G75*
%MOIN*%
%OFA0B0*%
%FSLAX24Y24*%
%IPPOS*%
%LPD*%
%AMOC8*
5,1,8,0,0,1.08239X$1,22.5*
%
%ADD10R,0.0651X0.0473*%
%ADD11R,0.0651X0.1005*%
%ADD12R,0.0591X0.0651*%
%ADD13R,0.0651X0.0572*%
%ADD14R,0.0572X0.0651*%
%ADD15R,0.2225X0.0985*%
%ADD16R,0.0375X0.0532*%
%ADD17R,0.0493X0.0454*%
%ADD18R,0.0985X0.2225*%
%ADD19R,0.0800X0.0800*%
%ADD20C,0.0800*%
%ADD21R,0.0454X0.0493*%
%ADD22R,0.0532X0.0375*%
%ADD23R,0.0532X0.0336*%
%ADD24R,0.0611X0.0611*%
%ADD25R,0.0454X0.0769*%
%ADD26R,0.0560X0.0918*%
%ADD27R,0.0280X0.0530*%
%ADD28R,0.0530X0.0280*%
%ADD29R,0.0320X0.0860*%
%ADD30R,0.0454X0.0611*%
%ADD31C,0.0042*%
%ADD32R,0.0532X0.0690*%
%ADD33R,0.0532X0.0532*%
%ADD34R,0.0820X0.2160*%
%ADD35R,0.0454X0.1060*%
%ADD36R,0.0170X0.0550*%
%ADD37R,0.2090X0.2090*%
%ADD38C,0.0330*%
%ADD39R,0.0277X0.0532*%
%ADD40R,0.0158X0.0651*%
%ADD41R,0.1714X0.1241*%
%ADD42R,0.0690X0.0280*%
%ADD43R,0.0180X0.0650*%
%ADD44R,0.0770X0.0930*%
%ADD45R,0.0310X0.0560*%
%ADD46R,0.1340X0.1044*%
%ADD47R,0.0375X0.0444*%
%ADD48R,0.0769X0.0454*%
%ADD49C,0.0400*%
%ADD50C,0.1710*%
%ADD51C,0.1460*%
%ADD52C,0.0660*%
D10*
X006030Y012564D03*
D11*
X006030Y013499D03*
D12*
X008213Y008649D03*
X009847Y008649D03*
D13*
X035530Y008525D03*
X035530Y009273D03*
X044030Y021525D03*
X044030Y022273D03*
X041030Y025025D03*
X041030Y025773D03*
X039280Y025773D03*
X039280Y025025D03*
D14*
X036464Y026779D03*
X035716Y026779D03*
X031904Y028899D03*
X031156Y028899D03*
X031156Y030899D03*
X031904Y030899D03*
X040416Y016879D03*
X041164Y016879D03*
X042906Y012149D03*
X043654Y012149D03*
X043654Y010649D03*
X042906Y010649D03*
X041654Y011149D03*
X040906Y011149D03*
X036714Y011659D03*
X035966Y011659D03*
X035926Y010569D03*
X036674Y010569D03*
D15*
X016530Y018297D03*
X016530Y020501D03*
X016280Y022797D03*
X016280Y025001D03*
X006530Y020251D03*
X006530Y018047D03*
D16*
X024676Y014399D03*
X025384Y014399D03*
X038586Y017639D03*
X039294Y017639D03*
D17*
X025365Y016399D03*
X024695Y016399D03*
X024695Y015399D03*
X025365Y015399D03*
X019365Y023399D03*
X018695Y023399D03*
X018115Y026899D03*
X017445Y026899D03*
X016365Y026899D03*
X015695Y026899D03*
X014615Y026899D03*
X013945Y026899D03*
X012865Y026899D03*
X012195Y026899D03*
X012945Y029399D03*
X013615Y029399D03*
X014445Y029399D03*
X015115Y029399D03*
X015945Y029399D03*
X016615Y029399D03*
X017445Y029399D03*
X018115Y029399D03*
D18*
X020928Y014899D03*
X023132Y014899D03*
D19*
X037840Y006229D03*
X013030Y034899D03*
D20*
X014030Y034899D03*
X015030Y034899D03*
X016030Y034899D03*
X017030Y034899D03*
X018030Y034899D03*
X019030Y034899D03*
X020030Y034899D03*
X044160Y035139D03*
X044160Y034139D03*
X045490Y034059D03*
X045490Y033059D03*
X045490Y032059D03*
X045490Y031059D03*
X044030Y030649D03*
X044030Y029649D03*
X044030Y028649D03*
X044030Y027649D03*
X044030Y031649D03*
X045490Y035059D03*
X044160Y036139D03*
X043840Y006229D03*
X042840Y006229D03*
X041840Y006229D03*
X040840Y006229D03*
X039840Y006229D03*
X038840Y006229D03*
X044840Y006229D03*
X015800Y006469D03*
D21*
X011530Y011064D03*
X011530Y011734D03*
X010530Y011734D03*
X010530Y011064D03*
X009530Y011064D03*
X009530Y011734D03*
X008530Y011734D03*
X008530Y011064D03*
X008530Y016064D03*
X008530Y016734D03*
X007530Y016734D03*
X007530Y016064D03*
X009530Y016064D03*
X009530Y016734D03*
X010530Y016734D03*
X010530Y016064D03*
X021030Y024564D03*
X021030Y025234D03*
D22*
X006030Y015253D03*
X006030Y014545D03*
X009530Y006753D03*
X009530Y006045D03*
X010530Y006045D03*
X010530Y006753D03*
X011530Y006753D03*
X011530Y006045D03*
X012530Y006045D03*
X012530Y006753D03*
D23*
X035322Y025779D03*
X036778Y025779D03*
D24*
X019280Y020397D03*
X019280Y018901D03*
D25*
X042729Y009149D03*
X043831Y009149D03*
D26*
X031540Y033408D03*
X030540Y033408D03*
X029540Y033408D03*
X029540Y035810D03*
X030540Y035810D03*
X031540Y035810D03*
D27*
X035418Y033954D03*
X035733Y033954D03*
X036048Y033954D03*
X036363Y033954D03*
X036678Y033954D03*
X036993Y033954D03*
X037308Y033954D03*
X037623Y033954D03*
X037937Y033954D03*
X038252Y033954D03*
X038567Y033954D03*
X038882Y033954D03*
X039197Y033954D03*
X039512Y033954D03*
X039827Y033954D03*
X040142Y033954D03*
X040142Y027844D03*
X039827Y027844D03*
X039512Y027844D03*
X039197Y027844D03*
X038882Y027844D03*
X038567Y027844D03*
X038252Y027844D03*
X037937Y027844D03*
X037623Y027844D03*
X037308Y027844D03*
X036993Y027844D03*
X036678Y027844D03*
X036363Y027844D03*
X036048Y027844D03*
X035733Y027844D03*
X035418Y027844D03*
D28*
X034725Y028537D03*
X034725Y028852D03*
X034725Y029167D03*
X034725Y029482D03*
X034725Y029797D03*
X034725Y030112D03*
X034725Y030427D03*
X034725Y030742D03*
X034725Y031056D03*
X034725Y031371D03*
X034725Y031686D03*
X034725Y032001D03*
X034725Y032316D03*
X034725Y032631D03*
X034725Y032946D03*
X034725Y033261D03*
X040835Y033261D03*
X040835Y032946D03*
X040835Y032631D03*
X040835Y032316D03*
X040835Y032001D03*
X040835Y031686D03*
X040835Y031371D03*
X040835Y031056D03*
X040835Y030742D03*
X040835Y030427D03*
X040835Y030112D03*
X040835Y029797D03*
X040835Y029482D03*
X040835Y029167D03*
X040835Y028852D03*
X040835Y028537D03*
D29*
X042780Y026109D03*
X043280Y026109D03*
X043780Y026109D03*
X044280Y026109D03*
X044280Y023689D03*
X043780Y023689D03*
X043280Y023689D03*
X042780Y023689D03*
D30*
X043780Y020582D03*
X043406Y019716D03*
X044154Y019716D03*
D31*
X043527Y016380D02*
X043359Y016380D01*
X043527Y016380D02*
X043527Y015772D01*
X043359Y015772D01*
X043359Y016380D01*
X043359Y015813D02*
X043527Y015813D01*
X043527Y015854D02*
X043359Y015854D01*
X043359Y015895D02*
X043527Y015895D01*
X043527Y015936D02*
X043359Y015936D01*
X043359Y015977D02*
X043527Y015977D01*
X043527Y016018D02*
X043359Y016018D01*
X043359Y016059D02*
X043527Y016059D01*
X043527Y016100D02*
X043359Y016100D01*
X043359Y016141D02*
X043527Y016141D01*
X043527Y016182D02*
X043359Y016182D01*
X043359Y016223D02*
X043527Y016223D01*
X043527Y016264D02*
X043359Y016264D01*
X043359Y016305D02*
X043527Y016305D01*
X043527Y016346D02*
X043359Y016346D01*
X043271Y016380D02*
X043103Y016380D01*
X043271Y016380D02*
X043271Y015772D01*
X043103Y015772D01*
X043103Y016380D01*
X043103Y015813D02*
X043271Y015813D01*
X043271Y015854D02*
X043103Y015854D01*
X043103Y015895D02*
X043271Y015895D01*
X043271Y015936D02*
X043103Y015936D01*
X043103Y015977D02*
X043271Y015977D01*
X043271Y016018D02*
X043103Y016018D01*
X043103Y016059D02*
X043271Y016059D01*
X043271Y016100D02*
X043103Y016100D01*
X043103Y016141D02*
X043271Y016141D01*
X043271Y016182D02*
X043103Y016182D01*
X043103Y016223D02*
X043271Y016223D01*
X043271Y016264D02*
X043103Y016264D01*
X043103Y016305D02*
X043271Y016305D01*
X043271Y016346D02*
X043103Y016346D01*
X043016Y016380D02*
X042848Y016380D01*
X043016Y016380D02*
X043016Y015772D01*
X042848Y015772D01*
X042848Y016380D01*
X042848Y015813D02*
X043016Y015813D01*
X043016Y015854D02*
X042848Y015854D01*
X042848Y015895D02*
X043016Y015895D01*
X043016Y015936D02*
X042848Y015936D01*
X042848Y015977D02*
X043016Y015977D01*
X043016Y016018D02*
X042848Y016018D01*
X042848Y016059D02*
X043016Y016059D01*
X043016Y016100D02*
X042848Y016100D01*
X042848Y016141D02*
X043016Y016141D01*
X043016Y016182D02*
X042848Y016182D01*
X042848Y016223D02*
X043016Y016223D01*
X043016Y016264D02*
X042848Y016264D01*
X042848Y016305D02*
X043016Y016305D01*
X043016Y016346D02*
X042848Y016346D01*
X042760Y016380D02*
X042592Y016380D01*
X042760Y016380D02*
X042760Y015772D01*
X042592Y015772D01*
X042592Y016380D01*
X042592Y015813D02*
X042760Y015813D01*
X042760Y015854D02*
X042592Y015854D01*
X042592Y015895D02*
X042760Y015895D01*
X042760Y015936D02*
X042592Y015936D01*
X042592Y015977D02*
X042760Y015977D01*
X042760Y016018D02*
X042592Y016018D01*
X042592Y016059D02*
X042760Y016059D01*
X042760Y016100D02*
X042592Y016100D01*
X042592Y016141D02*
X042760Y016141D01*
X042760Y016182D02*
X042592Y016182D01*
X042592Y016223D02*
X042760Y016223D01*
X042760Y016264D02*
X042592Y016264D01*
X042592Y016305D02*
X042760Y016305D01*
X042760Y016346D02*
X042592Y016346D01*
X042504Y016380D02*
X042336Y016380D01*
X042504Y016380D02*
X042504Y015772D01*
X042336Y015772D01*
X042336Y016380D01*
X042336Y015813D02*
X042504Y015813D01*
X042504Y015854D02*
X042336Y015854D01*
X042336Y015895D02*
X042504Y015895D01*
X042504Y015936D02*
X042336Y015936D01*
X042336Y015977D02*
X042504Y015977D01*
X042504Y016018D02*
X042336Y016018D01*
X042336Y016059D02*
X042504Y016059D01*
X042504Y016100D02*
X042336Y016100D01*
X042336Y016141D02*
X042504Y016141D01*
X042504Y016182D02*
X042336Y016182D01*
X042336Y016223D02*
X042504Y016223D01*
X042504Y016264D02*
X042336Y016264D01*
X042336Y016305D02*
X042504Y016305D01*
X042504Y016346D02*
X042336Y016346D01*
X042248Y016380D02*
X042080Y016380D01*
X042248Y016380D02*
X042248Y015772D01*
X042080Y015772D01*
X042080Y016380D01*
X042080Y015813D02*
X042248Y015813D01*
X042248Y015854D02*
X042080Y015854D01*
X042080Y015895D02*
X042248Y015895D01*
X042248Y015936D02*
X042080Y015936D01*
X042080Y015977D02*
X042248Y015977D01*
X042248Y016018D02*
X042080Y016018D01*
X042080Y016059D02*
X042248Y016059D01*
X042248Y016100D02*
X042080Y016100D01*
X042080Y016141D02*
X042248Y016141D01*
X042248Y016182D02*
X042080Y016182D01*
X042080Y016223D02*
X042248Y016223D01*
X042248Y016264D02*
X042080Y016264D01*
X042080Y016305D02*
X042248Y016305D01*
X042248Y016346D02*
X042080Y016346D01*
X041992Y016380D02*
X041824Y016380D01*
X041992Y016380D02*
X041992Y015772D01*
X041824Y015772D01*
X041824Y016380D01*
X041824Y015813D02*
X041992Y015813D01*
X041992Y015854D02*
X041824Y015854D01*
X041824Y015895D02*
X041992Y015895D01*
X041992Y015936D02*
X041824Y015936D01*
X041824Y015977D02*
X041992Y015977D01*
X041992Y016018D02*
X041824Y016018D01*
X041824Y016059D02*
X041992Y016059D01*
X041992Y016100D02*
X041824Y016100D01*
X041824Y016141D02*
X041992Y016141D01*
X041992Y016182D02*
X041824Y016182D01*
X041824Y016223D02*
X041992Y016223D01*
X041992Y016264D02*
X041824Y016264D01*
X041824Y016305D02*
X041992Y016305D01*
X041992Y016346D02*
X041824Y016346D01*
X041736Y016380D02*
X041568Y016380D01*
X041736Y016380D02*
X041736Y015772D01*
X041568Y015772D01*
X041568Y016380D01*
X041568Y015813D02*
X041736Y015813D01*
X041736Y015854D02*
X041568Y015854D01*
X041568Y015895D02*
X041736Y015895D01*
X041736Y015936D02*
X041568Y015936D01*
X041568Y015977D02*
X041736Y015977D01*
X041736Y016018D02*
X041568Y016018D01*
X041568Y016059D02*
X041736Y016059D01*
X041736Y016100D02*
X041568Y016100D01*
X041568Y016141D02*
X041736Y016141D01*
X041736Y016182D02*
X041568Y016182D01*
X041568Y016223D02*
X041736Y016223D01*
X041736Y016264D02*
X041568Y016264D01*
X041568Y016305D02*
X041736Y016305D01*
X041736Y016346D02*
X041568Y016346D01*
X041480Y016380D02*
X041312Y016380D01*
X041480Y016380D02*
X041480Y015772D01*
X041312Y015772D01*
X041312Y016380D01*
X041312Y015813D02*
X041480Y015813D01*
X041480Y015854D02*
X041312Y015854D01*
X041312Y015895D02*
X041480Y015895D01*
X041480Y015936D02*
X041312Y015936D01*
X041312Y015977D02*
X041480Y015977D01*
X041480Y016018D02*
X041312Y016018D01*
X041312Y016059D02*
X041480Y016059D01*
X041480Y016100D02*
X041312Y016100D01*
X041312Y016141D02*
X041480Y016141D01*
X041480Y016182D02*
X041312Y016182D01*
X041312Y016223D02*
X041480Y016223D01*
X041480Y016264D02*
X041312Y016264D01*
X041312Y016305D02*
X041480Y016305D01*
X041480Y016346D02*
X041312Y016346D01*
X041224Y016380D02*
X041056Y016380D01*
X041224Y016380D02*
X041224Y015772D01*
X041056Y015772D01*
X041056Y016380D01*
X041056Y015813D02*
X041224Y015813D01*
X041224Y015854D02*
X041056Y015854D01*
X041056Y015895D02*
X041224Y015895D01*
X041224Y015936D02*
X041056Y015936D01*
X041056Y015977D02*
X041224Y015977D01*
X041224Y016018D02*
X041056Y016018D01*
X041056Y016059D02*
X041224Y016059D01*
X041224Y016100D02*
X041056Y016100D01*
X041056Y016141D02*
X041224Y016141D01*
X041224Y016182D02*
X041056Y016182D01*
X041056Y016223D02*
X041224Y016223D01*
X041224Y016264D02*
X041056Y016264D01*
X041056Y016305D02*
X041224Y016305D01*
X041224Y016346D02*
X041056Y016346D01*
X040968Y016380D02*
X040800Y016380D01*
X040968Y016380D02*
X040968Y015772D01*
X040800Y015772D01*
X040800Y016380D01*
X040800Y015813D02*
X040968Y015813D01*
X040968Y015854D02*
X040800Y015854D01*
X040800Y015895D02*
X040968Y015895D01*
X040968Y015936D02*
X040800Y015936D01*
X040800Y015977D02*
X040968Y015977D01*
X040968Y016018D02*
X040800Y016018D01*
X040800Y016059D02*
X040968Y016059D01*
X040968Y016100D02*
X040800Y016100D01*
X040800Y016141D02*
X040968Y016141D01*
X040968Y016182D02*
X040800Y016182D01*
X040800Y016223D02*
X040968Y016223D01*
X040968Y016264D02*
X040800Y016264D01*
X040800Y016305D02*
X040968Y016305D01*
X040968Y016346D02*
X040800Y016346D01*
X040712Y016380D02*
X040544Y016380D01*
X040712Y016380D02*
X040712Y015772D01*
X040544Y015772D01*
X040544Y016380D01*
X040544Y015813D02*
X040712Y015813D01*
X040712Y015854D02*
X040544Y015854D01*
X040544Y015895D02*
X040712Y015895D01*
X040712Y015936D02*
X040544Y015936D01*
X040544Y015977D02*
X040712Y015977D01*
X040712Y016018D02*
X040544Y016018D01*
X040544Y016059D02*
X040712Y016059D01*
X040712Y016100D02*
X040544Y016100D01*
X040544Y016141D02*
X040712Y016141D01*
X040712Y016182D02*
X040544Y016182D01*
X040544Y016223D02*
X040712Y016223D01*
X040712Y016264D02*
X040544Y016264D01*
X040544Y016305D02*
X040712Y016305D01*
X040712Y016346D02*
X040544Y016346D01*
X040457Y016380D02*
X040289Y016380D01*
X040457Y016380D02*
X040457Y015772D01*
X040289Y015772D01*
X040289Y016380D01*
X040289Y015813D02*
X040457Y015813D01*
X040457Y015854D02*
X040289Y015854D01*
X040289Y015895D02*
X040457Y015895D01*
X040457Y015936D02*
X040289Y015936D01*
X040289Y015977D02*
X040457Y015977D01*
X040457Y016018D02*
X040289Y016018D01*
X040289Y016059D02*
X040457Y016059D01*
X040457Y016100D02*
X040289Y016100D01*
X040289Y016141D02*
X040457Y016141D01*
X040457Y016182D02*
X040289Y016182D01*
X040289Y016223D02*
X040457Y016223D01*
X040457Y016264D02*
X040289Y016264D01*
X040289Y016305D02*
X040457Y016305D01*
X040457Y016346D02*
X040289Y016346D01*
X040201Y016380D02*
X040033Y016380D01*
X040201Y016380D02*
X040201Y015772D01*
X040033Y015772D01*
X040033Y016380D01*
X040033Y015813D02*
X040201Y015813D01*
X040201Y015854D02*
X040033Y015854D01*
X040033Y015895D02*
X040201Y015895D01*
X040201Y015936D02*
X040033Y015936D01*
X040033Y015977D02*
X040201Y015977D01*
X040201Y016018D02*
X040033Y016018D01*
X040033Y016059D02*
X040201Y016059D01*
X040201Y016100D02*
X040033Y016100D01*
X040033Y016141D02*
X040201Y016141D01*
X040201Y016182D02*
X040033Y016182D01*
X040033Y016223D02*
X040201Y016223D01*
X040201Y016264D02*
X040033Y016264D01*
X040033Y016305D02*
X040201Y016305D01*
X040201Y016346D02*
X040033Y016346D01*
X040033Y013526D02*
X040201Y013526D01*
X040201Y012918D01*
X040033Y012918D01*
X040033Y013526D01*
X040033Y012959D02*
X040201Y012959D01*
X040201Y013000D02*
X040033Y013000D01*
X040033Y013041D02*
X040201Y013041D01*
X040201Y013082D02*
X040033Y013082D01*
X040033Y013123D02*
X040201Y013123D01*
X040201Y013164D02*
X040033Y013164D01*
X040033Y013205D02*
X040201Y013205D01*
X040201Y013246D02*
X040033Y013246D01*
X040033Y013287D02*
X040201Y013287D01*
X040201Y013328D02*
X040033Y013328D01*
X040033Y013369D02*
X040201Y013369D01*
X040201Y013410D02*
X040033Y013410D01*
X040033Y013451D02*
X040201Y013451D01*
X040201Y013492D02*
X040033Y013492D01*
X040289Y013526D02*
X040457Y013526D01*
X040457Y012918D01*
X040289Y012918D01*
X040289Y013526D01*
X040289Y012959D02*
X040457Y012959D01*
X040457Y013000D02*
X040289Y013000D01*
X040289Y013041D02*
X040457Y013041D01*
X040457Y013082D02*
X040289Y013082D01*
X040289Y013123D02*
X040457Y013123D01*
X040457Y013164D02*
X040289Y013164D01*
X040289Y013205D02*
X040457Y013205D01*
X040457Y013246D02*
X040289Y013246D01*
X040289Y013287D02*
X040457Y013287D01*
X040457Y013328D02*
X040289Y013328D01*
X040289Y013369D02*
X040457Y013369D01*
X040457Y013410D02*
X040289Y013410D01*
X040289Y013451D02*
X040457Y013451D01*
X040457Y013492D02*
X040289Y013492D01*
X040544Y013526D02*
X040712Y013526D01*
X040712Y012918D01*
X040544Y012918D01*
X040544Y013526D01*
X040544Y012959D02*
X040712Y012959D01*
X040712Y013000D02*
X040544Y013000D01*
X040544Y013041D02*
X040712Y013041D01*
X040712Y013082D02*
X040544Y013082D01*
X040544Y013123D02*
X040712Y013123D01*
X040712Y013164D02*
X040544Y013164D01*
X040544Y013205D02*
X040712Y013205D01*
X040712Y013246D02*
X040544Y013246D01*
X040544Y013287D02*
X040712Y013287D01*
X040712Y013328D02*
X040544Y013328D01*
X040544Y013369D02*
X040712Y013369D01*
X040712Y013410D02*
X040544Y013410D01*
X040544Y013451D02*
X040712Y013451D01*
X040712Y013492D02*
X040544Y013492D01*
X040800Y013526D02*
X040968Y013526D01*
X040968Y012918D01*
X040800Y012918D01*
X040800Y013526D01*
X040800Y012959D02*
X040968Y012959D01*
X040968Y013000D02*
X040800Y013000D01*
X040800Y013041D02*
X040968Y013041D01*
X040968Y013082D02*
X040800Y013082D01*
X040800Y013123D02*
X040968Y013123D01*
X040968Y013164D02*
X040800Y013164D01*
X040800Y013205D02*
X040968Y013205D01*
X040968Y013246D02*
X040800Y013246D01*
X040800Y013287D02*
X040968Y013287D01*
X040968Y013328D02*
X040800Y013328D01*
X040800Y013369D02*
X040968Y013369D01*
X040968Y013410D02*
X040800Y013410D01*
X040800Y013451D02*
X040968Y013451D01*
X040968Y013492D02*
X040800Y013492D01*
X041056Y013526D02*
X041224Y013526D01*
X041224Y012918D01*
X041056Y012918D01*
X041056Y013526D01*
X041056Y012959D02*
X041224Y012959D01*
X041224Y013000D02*
X041056Y013000D01*
X041056Y013041D02*
X041224Y013041D01*
X041224Y013082D02*
X041056Y013082D01*
X041056Y013123D02*
X041224Y013123D01*
X041224Y013164D02*
X041056Y013164D01*
X041056Y013205D02*
X041224Y013205D01*
X041224Y013246D02*
X041056Y013246D01*
X041056Y013287D02*
X041224Y013287D01*
X041224Y013328D02*
X041056Y013328D01*
X041056Y013369D02*
X041224Y013369D01*
X041224Y013410D02*
X041056Y013410D01*
X041056Y013451D02*
X041224Y013451D01*
X041224Y013492D02*
X041056Y013492D01*
X041312Y013526D02*
X041480Y013526D01*
X041480Y012918D01*
X041312Y012918D01*
X041312Y013526D01*
X041312Y012959D02*
X041480Y012959D01*
X041480Y013000D02*
X041312Y013000D01*
X041312Y013041D02*
X041480Y013041D01*
X041480Y013082D02*
X041312Y013082D01*
X041312Y013123D02*
X041480Y013123D01*
X041480Y013164D02*
X041312Y013164D01*
X041312Y013205D02*
X041480Y013205D01*
X041480Y013246D02*
X041312Y013246D01*
X041312Y013287D02*
X041480Y013287D01*
X041480Y013328D02*
X041312Y013328D01*
X041312Y013369D02*
X041480Y013369D01*
X041480Y013410D02*
X041312Y013410D01*
X041312Y013451D02*
X041480Y013451D01*
X041480Y013492D02*
X041312Y013492D01*
X041568Y013526D02*
X041736Y013526D01*
X041736Y012918D01*
X041568Y012918D01*
X041568Y013526D01*
X041568Y012959D02*
X041736Y012959D01*
X041736Y013000D02*
X041568Y013000D01*
X041568Y013041D02*
X041736Y013041D01*
X041736Y013082D02*
X041568Y013082D01*
X041568Y013123D02*
X041736Y013123D01*
X041736Y013164D02*
X041568Y013164D01*
X041568Y013205D02*
X041736Y013205D01*
X041736Y013246D02*
X041568Y013246D01*
X041568Y013287D02*
X041736Y013287D01*
X041736Y013328D02*
X041568Y013328D01*
X041568Y013369D02*
X041736Y013369D01*
X041736Y013410D02*
X041568Y013410D01*
X041568Y013451D02*
X041736Y013451D01*
X041736Y013492D02*
X041568Y013492D01*
X041824Y013526D02*
X041992Y013526D01*
X041992Y012918D01*
X041824Y012918D01*
X041824Y013526D01*
X041824Y012959D02*
X041992Y012959D01*
X041992Y013000D02*
X041824Y013000D01*
X041824Y013041D02*
X041992Y013041D01*
X041992Y013082D02*
X041824Y013082D01*
X041824Y013123D02*
X041992Y013123D01*
X041992Y013164D02*
X041824Y013164D01*
X041824Y013205D02*
X041992Y013205D01*
X041992Y013246D02*
X041824Y013246D01*
X041824Y013287D02*
X041992Y013287D01*
X041992Y013328D02*
X041824Y013328D01*
X041824Y013369D02*
X041992Y013369D01*
X041992Y013410D02*
X041824Y013410D01*
X041824Y013451D02*
X041992Y013451D01*
X041992Y013492D02*
X041824Y013492D01*
X042080Y013526D02*
X042248Y013526D01*
X042248Y012918D01*
X042080Y012918D01*
X042080Y013526D01*
X042080Y012959D02*
X042248Y012959D01*
X042248Y013000D02*
X042080Y013000D01*
X042080Y013041D02*
X042248Y013041D01*
X042248Y013082D02*
X042080Y013082D01*
X042080Y013123D02*
X042248Y013123D01*
X042248Y013164D02*
X042080Y013164D01*
X042080Y013205D02*
X042248Y013205D01*
X042248Y013246D02*
X042080Y013246D01*
X042080Y013287D02*
X042248Y013287D01*
X042248Y013328D02*
X042080Y013328D01*
X042080Y013369D02*
X042248Y013369D01*
X042248Y013410D02*
X042080Y013410D01*
X042080Y013451D02*
X042248Y013451D01*
X042248Y013492D02*
X042080Y013492D01*
X042336Y013526D02*
X042504Y013526D01*
X042504Y012918D01*
X042336Y012918D01*
X042336Y013526D01*
X042336Y012959D02*
X042504Y012959D01*
X042504Y013000D02*
X042336Y013000D01*
X042336Y013041D02*
X042504Y013041D01*
X042504Y013082D02*
X042336Y013082D01*
X042336Y013123D02*
X042504Y013123D01*
X042504Y013164D02*
X042336Y013164D01*
X042336Y013205D02*
X042504Y013205D01*
X042504Y013246D02*
X042336Y013246D01*
X042336Y013287D02*
X042504Y013287D01*
X042504Y013328D02*
X042336Y013328D01*
X042336Y013369D02*
X042504Y013369D01*
X042504Y013410D02*
X042336Y013410D01*
X042336Y013451D02*
X042504Y013451D01*
X042504Y013492D02*
X042336Y013492D01*
X042592Y013526D02*
X042760Y013526D01*
X042760Y012918D01*
X042592Y012918D01*
X042592Y013526D01*
X042592Y012959D02*
X042760Y012959D01*
X042760Y013000D02*
X042592Y013000D01*
X042592Y013041D02*
X042760Y013041D01*
X042760Y013082D02*
X042592Y013082D01*
X042592Y013123D02*
X042760Y013123D01*
X042760Y013164D02*
X042592Y013164D01*
X042592Y013205D02*
X042760Y013205D01*
X042760Y013246D02*
X042592Y013246D01*
X042592Y013287D02*
X042760Y013287D01*
X042760Y013328D02*
X042592Y013328D01*
X042592Y013369D02*
X042760Y013369D01*
X042760Y013410D02*
X042592Y013410D01*
X042592Y013451D02*
X042760Y013451D01*
X042760Y013492D02*
X042592Y013492D01*
X042848Y013526D02*
X043016Y013526D01*
X043016Y012918D01*
X042848Y012918D01*
X042848Y013526D01*
X042848Y012959D02*
X043016Y012959D01*
X043016Y013000D02*
X042848Y013000D01*
X042848Y013041D02*
X043016Y013041D01*
X043016Y013082D02*
X042848Y013082D01*
X042848Y013123D02*
X043016Y013123D01*
X043016Y013164D02*
X042848Y013164D01*
X042848Y013205D02*
X043016Y013205D01*
X043016Y013246D02*
X042848Y013246D01*
X042848Y013287D02*
X043016Y013287D01*
X043016Y013328D02*
X042848Y013328D01*
X042848Y013369D02*
X043016Y013369D01*
X043016Y013410D02*
X042848Y013410D01*
X042848Y013451D02*
X043016Y013451D01*
X043016Y013492D02*
X042848Y013492D01*
X043103Y013526D02*
X043271Y013526D01*
X043271Y012918D01*
X043103Y012918D01*
X043103Y013526D01*
X043103Y012959D02*
X043271Y012959D01*
X043271Y013000D02*
X043103Y013000D01*
X043103Y013041D02*
X043271Y013041D01*
X043271Y013082D02*
X043103Y013082D01*
X043103Y013123D02*
X043271Y013123D01*
X043271Y013164D02*
X043103Y013164D01*
X043103Y013205D02*
X043271Y013205D01*
X043271Y013246D02*
X043103Y013246D01*
X043103Y013287D02*
X043271Y013287D01*
X043271Y013328D02*
X043103Y013328D01*
X043103Y013369D02*
X043271Y013369D01*
X043271Y013410D02*
X043103Y013410D01*
X043103Y013451D02*
X043271Y013451D01*
X043271Y013492D02*
X043103Y013492D01*
X043359Y013526D02*
X043527Y013526D01*
X043527Y012918D01*
X043359Y012918D01*
X043359Y013526D01*
X043359Y012959D02*
X043527Y012959D01*
X043527Y013000D02*
X043359Y013000D01*
X043359Y013041D02*
X043527Y013041D01*
X043527Y013082D02*
X043359Y013082D01*
X043359Y013123D02*
X043527Y013123D01*
X043527Y013164D02*
X043359Y013164D01*
X043359Y013205D02*
X043527Y013205D01*
X043527Y013246D02*
X043359Y013246D01*
X043359Y013287D02*
X043527Y013287D01*
X043527Y013328D02*
X043359Y013328D01*
X043359Y013369D02*
X043527Y013369D01*
X043527Y013410D02*
X043359Y013410D01*
X043359Y013451D02*
X043527Y013451D01*
X043527Y013492D02*
X043359Y013492D01*
D32*
X035621Y035899D03*
X034439Y035899D03*
D33*
X038117Y013149D03*
X038943Y013149D03*
X038943Y011399D03*
X038117Y011399D03*
X041280Y009312D03*
X041280Y008486D03*
D34*
X041500Y019249D03*
X041500Y023049D03*
D35*
X013530Y022799D03*
X009530Y022799D03*
X009530Y017999D03*
X010530Y017999D03*
X012530Y017999D03*
X013530Y017999D03*
D36*
G36*
X033675Y023121D02*
X033795Y023001D01*
X033407Y022613D01*
X033287Y022733D01*
X033675Y023121D01*
G37*
G36*
X033795Y023257D02*
X033675Y023137D01*
X033287Y023525D01*
X033407Y023645D01*
X033795Y023257D01*
G37*
G36*
X033929Y023391D02*
X033809Y023271D01*
X033421Y023659D01*
X033541Y023779D01*
X033929Y023391D01*
G37*
G36*
X034071Y023532D02*
X033951Y023412D01*
X033563Y023800D01*
X033683Y023920D01*
X034071Y023532D01*
G37*
G36*
X034212Y023674D02*
X034092Y023554D01*
X033704Y023942D01*
X033824Y024062D01*
X034212Y023674D01*
G37*
G36*
X034347Y023808D02*
X034227Y023688D01*
X033839Y024076D01*
X033959Y024196D01*
X034347Y023808D01*
G37*
G36*
X034488Y023950D02*
X034368Y023830D01*
X033980Y024218D01*
X034100Y024338D01*
X034488Y023950D01*
G37*
G36*
X034629Y024091D02*
X034509Y023971D01*
X034121Y024359D01*
X034241Y024479D01*
X034629Y024091D01*
G37*
G36*
X034771Y024232D02*
X034651Y024112D01*
X034263Y024500D01*
X034383Y024620D01*
X034771Y024232D01*
G37*
G36*
X034905Y024367D02*
X034785Y024247D01*
X034397Y024635D01*
X034517Y024755D01*
X034905Y024367D01*
G37*
G36*
X035047Y024508D02*
X034927Y024388D01*
X034539Y024776D01*
X034659Y024896D01*
X035047Y024508D01*
G37*
G36*
X035188Y024650D02*
X035068Y024530D01*
X034680Y024918D01*
X034800Y025038D01*
X035188Y024650D01*
G37*
G36*
X035322Y024784D02*
X035202Y024664D01*
X034814Y025052D01*
X034934Y025172D01*
X035322Y024784D01*
G37*
G36*
X035726Y025172D02*
X035846Y025052D01*
X035458Y024664D01*
X035338Y024784D01*
X035726Y025172D01*
G37*
G36*
X035860Y025038D02*
X035980Y024918D01*
X035592Y024530D01*
X035472Y024650D01*
X035860Y025038D01*
G37*
G36*
X036001Y024896D02*
X036121Y024776D01*
X035733Y024388D01*
X035613Y024508D01*
X036001Y024896D01*
G37*
G36*
X036143Y024755D02*
X036263Y024635D01*
X035875Y024247D01*
X035755Y024367D01*
X036143Y024755D01*
G37*
G36*
X036277Y024620D02*
X036397Y024500D01*
X036009Y024112D01*
X035889Y024232D01*
X036277Y024620D01*
G37*
G36*
X036419Y024479D02*
X036539Y024359D01*
X036151Y023971D01*
X036031Y024091D01*
X036419Y024479D01*
G37*
G36*
X036560Y024338D02*
X036680Y024218D01*
X036292Y023830D01*
X036172Y023950D01*
X036560Y024338D01*
G37*
G36*
X036701Y024196D02*
X036821Y024076D01*
X036433Y023688D01*
X036313Y023808D01*
X036701Y024196D01*
G37*
G36*
X036836Y024062D02*
X036956Y023942D01*
X036568Y023554D01*
X036448Y023674D01*
X036836Y024062D01*
G37*
G36*
X036977Y023920D02*
X037097Y023800D01*
X036709Y023412D01*
X036589Y023532D01*
X036977Y023920D01*
G37*
G36*
X037119Y023779D02*
X037239Y023659D01*
X036851Y023271D01*
X036731Y023391D01*
X037119Y023779D01*
G37*
G36*
X037253Y023645D02*
X037373Y023525D01*
X036985Y023137D01*
X036865Y023257D01*
X037253Y023645D01*
G37*
G36*
X037373Y022733D02*
X037253Y022613D01*
X036865Y023001D01*
X036985Y023121D01*
X037373Y022733D01*
G37*
G36*
X037239Y022599D02*
X037119Y022479D01*
X036731Y022867D01*
X036851Y022987D01*
X037239Y022599D01*
G37*
G36*
X037097Y022458D02*
X036977Y022338D01*
X036589Y022726D01*
X036709Y022846D01*
X037097Y022458D01*
G37*
G36*
X036956Y022316D02*
X036836Y022196D01*
X036448Y022584D01*
X036568Y022704D01*
X036956Y022316D01*
G37*
G36*
X036821Y022182D02*
X036701Y022062D01*
X036313Y022450D01*
X036433Y022570D01*
X036821Y022182D01*
G37*
G36*
X036680Y022040D02*
X036560Y021920D01*
X036172Y022308D01*
X036292Y022428D01*
X036680Y022040D01*
G37*
G36*
X036539Y021899D02*
X036419Y021779D01*
X036031Y022167D01*
X036151Y022287D01*
X036539Y021899D01*
G37*
G36*
X036397Y021758D02*
X036277Y021638D01*
X035889Y022026D01*
X036009Y022146D01*
X036397Y021758D01*
G37*
G36*
X036263Y021623D02*
X036143Y021503D01*
X035755Y021891D01*
X035875Y022011D01*
X036263Y021623D01*
G37*
G36*
X036121Y021482D02*
X036001Y021362D01*
X035613Y021750D01*
X035733Y021870D01*
X036121Y021482D01*
G37*
G36*
X035980Y021340D02*
X035860Y021220D01*
X035472Y021608D01*
X035592Y021728D01*
X035980Y021340D01*
G37*
G36*
X035846Y021206D02*
X035726Y021086D01*
X035338Y021474D01*
X035458Y021594D01*
X035846Y021206D01*
G37*
G36*
X035202Y021594D02*
X035322Y021474D01*
X034934Y021086D01*
X034814Y021206D01*
X035202Y021594D01*
G37*
G36*
X035068Y021728D02*
X035188Y021608D01*
X034800Y021220D01*
X034680Y021340D01*
X035068Y021728D01*
G37*
G36*
X034927Y021870D02*
X035047Y021750D01*
X034659Y021362D01*
X034539Y021482D01*
X034927Y021870D01*
G37*
G36*
X034785Y022011D02*
X034905Y021891D01*
X034517Y021503D01*
X034397Y021623D01*
X034785Y022011D01*
G37*
G36*
X034651Y022146D02*
X034771Y022026D01*
X034383Y021638D01*
X034263Y021758D01*
X034651Y022146D01*
G37*
G36*
X034509Y022287D02*
X034629Y022167D01*
X034241Y021779D01*
X034121Y021899D01*
X034509Y022287D01*
G37*
G36*
X034368Y022428D02*
X034488Y022308D01*
X034100Y021920D01*
X033980Y022040D01*
X034368Y022428D01*
G37*
G36*
X034227Y022570D02*
X034347Y022450D01*
X033959Y022062D01*
X033839Y022182D01*
X034227Y022570D01*
G37*
G36*
X034092Y022704D02*
X034212Y022584D01*
X033824Y022196D01*
X033704Y022316D01*
X034092Y022704D01*
G37*
G36*
X033951Y022846D02*
X034071Y022726D01*
X033683Y022338D01*
X033563Y022458D01*
X033951Y022846D01*
G37*
G36*
X033809Y022987D02*
X033929Y022867D01*
X033541Y022479D01*
X033421Y022599D01*
X033809Y022987D01*
G37*
D37*
G36*
X033853Y023129D02*
X035330Y024606D01*
X036807Y023129D01*
X035330Y021652D01*
X033853Y023129D01*
G37*
D38*
X034199Y023129D03*
X034764Y023695D03*
X035401Y023058D03*
X035966Y023624D03*
X036461Y023129D03*
X035896Y022563D03*
X035330Y021998D03*
X034835Y022493D03*
X035330Y024260D03*
X009130Y014299D03*
X009130Y013899D03*
X009130Y013499D03*
X008530Y013499D03*
X008530Y013899D03*
X008530Y014299D03*
X007930Y014299D03*
X007930Y013899D03*
X007930Y013499D03*
D39*
X018656Y024387D03*
X019030Y024387D03*
X019404Y024387D03*
X019404Y025411D03*
X018656Y025411D03*
D40*
X009682Y015001D03*
X009426Y015001D03*
X009170Y015001D03*
X008914Y015001D03*
X008658Y015001D03*
X008402Y015001D03*
X008146Y015001D03*
X007890Y015001D03*
X007634Y015001D03*
X007378Y015001D03*
X007378Y012797D03*
X007634Y012797D03*
X007890Y012797D03*
X008146Y012797D03*
X008402Y012797D03*
X008658Y012797D03*
X008914Y012797D03*
X009170Y012797D03*
X009426Y012797D03*
X009682Y012797D03*
D41*
X008530Y013899D03*
D42*
X021030Y017899D03*
X021030Y018399D03*
X021030Y018899D03*
X021030Y019399D03*
X021030Y019899D03*
X021030Y020399D03*
X021030Y020899D03*
X023030Y020899D03*
X023030Y020399D03*
X023030Y019899D03*
X023030Y019399D03*
X023030Y018899D03*
X023030Y018399D03*
X023030Y017899D03*
D43*
X031540Y020449D03*
X031740Y020449D03*
X031940Y020449D03*
X032130Y020449D03*
X032330Y020449D03*
X032530Y020449D03*
X032720Y020449D03*
X032920Y020449D03*
X033120Y020449D03*
X033310Y020449D03*
X033510Y020449D03*
X033710Y020449D03*
X033900Y020449D03*
X034100Y020449D03*
X034300Y020449D03*
X034490Y020449D03*
X034690Y020449D03*
X034890Y020449D03*
X035080Y020449D03*
X035280Y020449D03*
X035480Y020449D03*
X035680Y020449D03*
X035870Y020449D03*
X036070Y020449D03*
X036270Y020449D03*
X036460Y020449D03*
X036660Y020449D03*
X036860Y020449D03*
X037050Y020449D03*
X037250Y020449D03*
X037450Y020449D03*
X037640Y020449D03*
X037840Y020449D03*
X038040Y020449D03*
X038230Y020449D03*
X038430Y020449D03*
X038630Y020449D03*
X038820Y020449D03*
X039020Y020449D03*
X039220Y020449D03*
D44*
X039960Y019169D03*
X030800Y019169D03*
D45*
X038603Y016399D03*
X038957Y016399D03*
D46*
X007030Y023218D03*
X007030Y025580D03*
D47*
X012156Y027755D03*
X012904Y027755D03*
X013906Y027755D03*
X014654Y027755D03*
X014280Y028543D03*
X015656Y027755D03*
X016404Y027755D03*
X016030Y028543D03*
X017406Y027755D03*
X018154Y027755D03*
X017780Y028543D03*
X017404Y030505D03*
X016656Y030505D03*
X015904Y030505D03*
X015156Y030505D03*
X014404Y030505D03*
X013656Y030505D03*
X014030Y031293D03*
X015530Y031293D03*
X017030Y031293D03*
X018156Y030505D03*
X018904Y030505D03*
X018530Y031293D03*
X012530Y028543D03*
D48*
X014030Y032348D03*
X014030Y033450D03*
X015530Y033450D03*
X015530Y032348D03*
X017030Y032348D03*
X018530Y032348D03*
X018530Y033450D03*
X017030Y033450D03*
D49*
X017030Y025899D03*
X016280Y025899D03*
X015530Y025899D03*
X022030Y019899D03*
X017130Y017399D03*
X016530Y017399D03*
X015930Y017399D03*
X019730Y015599D03*
X019730Y014999D03*
X019730Y014399D03*
X011630Y017999D03*
X011230Y017999D03*
X006930Y017099D03*
X006530Y017099D03*
X006130Y017099D03*
X039710Y017639D03*
D50*
X002050Y006769D03*
X002050Y036269D03*
X049550Y036269D03*
X049550Y006769D03*
D51*
X025230Y024999D03*
X025230Y029499D03*
D52*
X038730Y014729D03*
X034370Y011349D03*
M02*
