G75*
%MOIN*%
%OFA0B0*%
%FSLAX24Y24*%
%IPPOS*%
%LPD*%
%AMOC8*
5,1,8,0,0,1.08239X$1,22.5*
%
%ADD10R,0.0100X0.0050*%
%ADD11R,0.0500X0.0050*%
%ADD12R,0.2000X0.0050*%
%ADD13R,0.4300X0.0050*%
%ADD14R,0.0550X0.0050*%
%ADD15R,0.6550X0.0050*%
%ADD16R,0.8800X0.0050*%
%ADD17R,1.1100X0.0050*%
%ADD18R,1.3350X0.0050*%
%ADD19R,1.5650X0.0050*%
%ADD20R,1.7900X0.0050*%
%ADD21R,2.0150X0.0050*%
%ADD22R,2.2400X0.0050*%
%ADD23R,0.0600X0.0050*%
%ADD24R,0.0650X0.0050*%
%ADD25R,1.4900X0.0050*%
%ADD26R,1.4850X0.0050*%
%ADD27R,0.0950X0.0050*%
%ADD28R,0.6250X0.0050*%
%ADD29R,0.1500X0.0050*%
%ADD30R,0.2700X0.0050*%
%ADD31R,0.1900X0.0050*%
%ADD32R,0.1050X0.0050*%
%ADD33R,0.0850X0.0050*%
%ADD34R,0.1150X0.0050*%
%ADD35R,0.1300X0.0050*%
%ADD36R,0.0900X0.0050*%
%ADD37R,0.0800X0.0050*%
%ADD38R,0.1200X0.0050*%
%ADD39R,0.0050X0.0050*%
%ADD40R,0.0750X0.0050*%
%ADD41R,0.1000X0.0050*%
%ADD42R,0.0700X0.0050*%
%ADD43R,0.1250X0.0050*%
%ADD44R,0.1350X0.0050*%
%ADD45R,0.1400X0.0050*%
%ADD46R,0.0300X0.0050*%
%ADD47R,0.1450X0.0050*%
%ADD48R,0.1750X0.0050*%
%ADD49R,1.1950X0.0050*%
%ADD50R,0.0350X0.0050*%
%ADD51R,0.1600X0.0050*%
%ADD52R,0.1650X0.0050*%
%ADD53R,0.1700X0.0050*%
%ADD54R,0.1100X0.0050*%
%ADD55R,0.2050X0.0050*%
%ADD56R,1.2000X0.0050*%
%ADD57R,0.2100X0.0050*%
%ADD58R,0.2150X0.0050*%
%ADD59R,0.0150X0.0050*%
%ADD60R,0.0400X0.0050*%
%ADD61R,0.0450X0.0050*%
%ADD62R,0.0250X0.0050*%
%ADD63R,0.0200X0.0050*%
%ADD64R,0.1950X0.0050*%
%ADD65R,0.1850X0.0050*%
%ADD66R,0.2200X0.0050*%
%ADD67R,0.1550X0.0050*%
%ADD68C,0.0010*%
%ADD69C,0.0050*%
D10*
X014075Y015469D03*
X013725Y016969D03*
X013725Y017019D03*
X013725Y017069D03*
X013725Y017119D03*
X013725Y017169D03*
X013675Y017269D03*
X013675Y017319D03*
X013675Y017369D03*
X013675Y017419D03*
X014675Y017419D03*
X014675Y017369D03*
X014675Y017319D03*
X014675Y017269D03*
X015675Y017419D03*
X015725Y017019D03*
X015725Y016969D03*
X017475Y017069D03*
X017525Y017019D03*
X017475Y017319D03*
X017475Y017369D03*
X017475Y017419D03*
X018475Y017419D03*
X018475Y017369D03*
X018475Y017319D03*
X018525Y017219D03*
X018525Y017169D03*
X018525Y017119D03*
X018525Y017069D03*
X018525Y017019D03*
X020075Y017419D03*
X020125Y017019D03*
X020125Y016969D03*
X021875Y017069D03*
X021875Y017119D03*
X021875Y017169D03*
X021875Y017219D03*
X021875Y017269D03*
X021875Y017319D03*
X021875Y017369D03*
X021825Y017519D03*
X021825Y017569D03*
X021825Y017619D03*
X024375Y017619D03*
X024375Y017569D03*
X024375Y017519D03*
X024475Y016969D03*
X024475Y016919D03*
X024475Y016869D03*
X024475Y016819D03*
X025525Y016819D03*
X025525Y016869D03*
X025525Y016919D03*
X026525Y016969D03*
X026525Y017019D03*
X028425Y018519D03*
X028425Y018669D03*
X028375Y018769D03*
X028475Y019519D03*
X032425Y019669D03*
X032425Y019719D03*
X032475Y019419D03*
X032475Y019369D03*
X032475Y019319D03*
X032475Y019269D03*
X038025Y018719D03*
D11*
X039375Y018469D03*
X036275Y019369D03*
X029325Y018469D03*
X027925Y018469D03*
X027825Y019469D03*
X027825Y019519D03*
X027775Y019569D03*
X028425Y019819D03*
X028425Y019869D03*
X015475Y015519D03*
X015375Y015569D03*
X015275Y015619D03*
X014625Y015919D03*
X014525Y015969D03*
X014425Y016019D03*
X014175Y015519D03*
X014075Y015569D03*
X013425Y015869D03*
X013325Y015919D03*
X013225Y015969D03*
X013125Y016019D03*
D12*
X013475Y018219D03*
X013375Y020069D03*
X013325Y020169D03*
X017425Y015569D03*
X023125Y018919D03*
D13*
X018475Y015619D03*
D14*
X018000Y017119D03*
X018000Y017169D03*
X018000Y017219D03*
X018000Y017269D03*
X017000Y016969D03*
X017000Y016919D03*
X016950Y017369D03*
X015050Y015719D03*
X015150Y015669D03*
X014950Y015769D03*
X014850Y015819D03*
X014750Y015869D03*
X013950Y015619D03*
X013850Y015669D03*
X013750Y015719D03*
X013650Y015769D03*
X013550Y015819D03*
X014200Y017219D03*
X014200Y017269D03*
X014200Y017319D03*
X014150Y017419D03*
X014150Y017469D03*
X020650Y017019D03*
X020650Y016969D03*
X021400Y016969D03*
X021400Y016919D03*
X021350Y017269D03*
X021350Y017319D03*
X021350Y017369D03*
X021350Y017419D03*
X022400Y016919D03*
X022400Y016869D03*
X025000Y016819D03*
X026000Y016969D03*
X026000Y017019D03*
X026050Y016869D03*
X027850Y019419D03*
X029300Y018719D03*
X029300Y018669D03*
X029300Y018619D03*
X029300Y018569D03*
X029300Y018519D03*
X036250Y019419D03*
X036250Y019469D03*
X036250Y019519D03*
D15*
X019500Y015669D03*
D16*
X020525Y015719D03*
D17*
X021525Y015769D03*
D18*
X022550Y015819D03*
D19*
X023600Y015869D03*
D20*
X024625Y015919D03*
D21*
X025650Y015969D03*
D22*
X026675Y016019D03*
D23*
X026075Y016819D03*
X026025Y016919D03*
X025975Y017069D03*
X024975Y017069D03*
X024975Y017019D03*
X024975Y016969D03*
X024975Y016919D03*
X024975Y016869D03*
X024975Y017119D03*
X024975Y017169D03*
X024975Y017219D03*
X022375Y016819D03*
X021425Y016869D03*
X021375Y017019D03*
X021375Y017069D03*
X021375Y017119D03*
X021375Y017169D03*
X021375Y017219D03*
X021325Y017469D03*
X021325Y017519D03*
X021325Y017569D03*
X021325Y017619D03*
X020575Y017519D03*
X020575Y017469D03*
X020575Y017419D03*
X020575Y017369D03*
X020575Y017319D03*
X020575Y017269D03*
X020625Y016919D03*
X020625Y016869D03*
X018075Y016869D03*
X018075Y016819D03*
X018025Y016919D03*
X018025Y016969D03*
X018025Y017019D03*
X018025Y017069D03*
X017975Y017319D03*
X017975Y017369D03*
X017975Y017419D03*
X017975Y017469D03*
X017975Y017519D03*
X017975Y017569D03*
X016975Y017319D03*
X016975Y017269D03*
X016975Y017169D03*
X016975Y017119D03*
X016975Y017069D03*
X016975Y017019D03*
X017025Y016869D03*
X016925Y017419D03*
X016925Y017469D03*
X016175Y017469D03*
X016175Y017419D03*
X016175Y017369D03*
X016175Y017319D03*
X016175Y017269D03*
X016175Y017519D03*
X016225Y017019D03*
X016225Y016969D03*
X016225Y016919D03*
X016225Y016869D03*
X015275Y016819D03*
X015225Y016869D03*
X015225Y016919D03*
X015225Y016969D03*
X015225Y017019D03*
X015225Y017069D03*
X015225Y017119D03*
X015225Y017169D03*
X015175Y017419D03*
X015175Y017469D03*
X015175Y017519D03*
X015175Y017569D03*
X014175Y017519D03*
X014175Y017369D03*
X014225Y017169D03*
X027875Y019369D03*
X028425Y019919D03*
X029725Y019969D03*
X029425Y017819D03*
X029425Y017769D03*
X029425Y017719D03*
X029425Y017669D03*
X029425Y017619D03*
X029475Y017419D03*
X029475Y017369D03*
X029475Y017319D03*
X029475Y017269D03*
X029475Y017219D03*
X030175Y017119D03*
X030175Y017069D03*
X030175Y017019D03*
X030175Y016969D03*
X030225Y016769D03*
X030225Y016719D03*
X030225Y016669D03*
X030225Y016619D03*
X030225Y016569D03*
X030825Y017219D03*
X030825Y017269D03*
X030825Y017319D03*
X030775Y017519D03*
X030775Y017569D03*
X030775Y017619D03*
X030775Y017669D03*
X030775Y017719D03*
X031525Y017019D03*
X031525Y016969D03*
X031525Y016919D03*
X031525Y016869D03*
X031525Y016819D03*
X031575Y016619D03*
X031575Y016569D03*
X032125Y017369D03*
X032125Y017419D03*
X032125Y017469D03*
X032125Y017519D03*
X032125Y017569D03*
X032075Y017769D03*
X032075Y017819D03*
X032825Y017119D03*
X032875Y016919D03*
X032875Y016869D03*
X032875Y016819D03*
X032875Y016769D03*
X032875Y016719D03*
X033475Y017219D03*
X033475Y017269D03*
X033475Y017319D03*
X033475Y017369D03*
X033475Y017419D03*
X033475Y017469D03*
X033425Y017669D03*
X033425Y017719D03*
X033425Y017769D03*
X033425Y017819D03*
X034175Y017119D03*
X034175Y017069D03*
X034175Y017019D03*
X034175Y016969D03*
X034225Y016769D03*
X034225Y016719D03*
X034225Y016669D03*
X034225Y016619D03*
X034225Y016569D03*
X034825Y017219D03*
X034825Y017269D03*
X034825Y017319D03*
X034775Y017519D03*
X034775Y017569D03*
X034775Y017619D03*
X034775Y017669D03*
X034775Y017719D03*
X035525Y017069D03*
X035525Y017019D03*
X035525Y016969D03*
X035525Y016919D03*
X035525Y016869D03*
X035575Y016669D03*
X035575Y016619D03*
X035575Y016569D03*
X036125Y017369D03*
X036125Y017419D03*
X036125Y017469D03*
X036125Y017519D03*
X036125Y017569D03*
X036075Y017769D03*
X036075Y017819D03*
X036825Y017119D03*
X036875Y016919D03*
X036875Y016869D03*
X036875Y016819D03*
X036875Y016769D03*
X036875Y016719D03*
X037475Y017219D03*
X037475Y017269D03*
X037475Y017319D03*
X037475Y017369D03*
X037475Y017419D03*
X037425Y017669D03*
X037425Y017719D03*
X037425Y017769D03*
X037425Y017819D03*
X038175Y017119D03*
X038175Y017069D03*
X038175Y017019D03*
X038175Y016969D03*
X038225Y016769D03*
X038225Y016719D03*
X038225Y016669D03*
X038225Y016619D03*
X038225Y016569D03*
X038825Y017219D03*
X038825Y017269D03*
X038825Y017319D03*
X038775Y017519D03*
X038775Y017569D03*
X038775Y017619D03*
X038775Y017669D03*
X038775Y017719D03*
X039525Y017069D03*
X039525Y017019D03*
X039525Y016969D03*
X039525Y016919D03*
X039525Y016869D03*
X039525Y016819D03*
X039575Y016619D03*
X039575Y016569D03*
X037275Y018869D03*
X037675Y019769D03*
X037675Y019819D03*
X036275Y019719D03*
X036275Y019669D03*
X036275Y019619D03*
X036275Y019569D03*
X028825Y017119D03*
X028875Y016869D03*
X028875Y016819D03*
X028875Y016769D03*
X028875Y016719D03*
X028875Y016669D03*
X028125Y017369D03*
X028125Y017419D03*
X028125Y017469D03*
X028125Y017519D03*
X028125Y017569D03*
X028075Y017769D03*
X028075Y017819D03*
D24*
X028100Y017719D03*
X028100Y017669D03*
X028100Y017619D03*
X028150Y017319D03*
X028150Y017269D03*
X028150Y017219D03*
X028850Y017069D03*
X028850Y017019D03*
X028850Y016969D03*
X028850Y016919D03*
X028900Y016619D03*
X028900Y016569D03*
X029450Y017469D03*
X029450Y017519D03*
X029450Y017569D03*
X030200Y016919D03*
X030200Y016869D03*
X030200Y016819D03*
X030800Y017369D03*
X030800Y017419D03*
X030800Y017469D03*
X030750Y017769D03*
X030750Y017819D03*
X031500Y017119D03*
X031500Y017069D03*
X031550Y016769D03*
X031550Y016719D03*
X031550Y016669D03*
X032150Y017219D03*
X032150Y017269D03*
X032150Y017319D03*
X032100Y017619D03*
X032100Y017669D03*
X032100Y017719D03*
X032850Y017069D03*
X032850Y017019D03*
X032850Y016969D03*
X032900Y016669D03*
X032900Y016619D03*
X032900Y016569D03*
X033450Y017519D03*
X033450Y017569D03*
X033450Y017619D03*
X034200Y016919D03*
X034200Y016869D03*
X034200Y016819D03*
X034800Y017369D03*
X034800Y017419D03*
X034800Y017469D03*
X034750Y017769D03*
X034750Y017819D03*
X035500Y017119D03*
X035550Y016819D03*
X035550Y016769D03*
X035550Y016719D03*
X036150Y017219D03*
X036150Y017269D03*
X036150Y017319D03*
X036100Y017619D03*
X036100Y017669D03*
X036100Y017719D03*
X036850Y017069D03*
X036850Y017019D03*
X036850Y016969D03*
X036900Y016669D03*
X036900Y016619D03*
X036900Y016569D03*
X037450Y017469D03*
X037450Y017519D03*
X037450Y017569D03*
X037450Y017619D03*
X038200Y016919D03*
X038200Y016869D03*
X038200Y016819D03*
X038800Y017369D03*
X038800Y017419D03*
X038800Y017469D03*
X038750Y017769D03*
X038750Y017819D03*
X039500Y017119D03*
X039550Y016769D03*
X039550Y016719D03*
X039550Y016669D03*
X037300Y018769D03*
X037300Y018819D03*
X037650Y019869D03*
X036300Y019769D03*
X028400Y019969D03*
X027900Y019319D03*
X027900Y019269D03*
X025900Y017519D03*
X025900Y017469D03*
X025900Y017419D03*
X026000Y017169D03*
X026000Y017119D03*
X024950Y017269D03*
X021450Y016819D03*
X020650Y016819D03*
X020550Y017569D03*
X018000Y017619D03*
X016950Y017569D03*
X016950Y017519D03*
X017000Y017219D03*
X017050Y016819D03*
X016200Y016819D03*
X016150Y017569D03*
X015200Y017619D03*
X015250Y017219D03*
X014250Y017119D03*
X014150Y017569D03*
D25*
X019975Y017719D03*
X019975Y017769D03*
X019975Y017819D03*
X020125Y016619D03*
X020125Y016569D03*
D26*
X020100Y016669D03*
X020100Y016719D03*
X020000Y017669D03*
D27*
X022950Y020169D03*
X027000Y017119D03*
X027050Y016769D03*
X029650Y019419D03*
X029650Y019469D03*
X038250Y019069D03*
X013050Y017619D03*
D28*
X023350Y016769D03*
D29*
X019325Y016769D03*
D30*
X017175Y016769D03*
D31*
X014725Y016769D03*
X013425Y018169D03*
X013275Y020269D03*
X023125Y019019D03*
X026325Y019119D03*
D32*
X029600Y019219D03*
X029600Y019269D03*
X033000Y018819D03*
X033000Y018769D03*
X033000Y018719D03*
X033000Y018669D03*
X038150Y019319D03*
X038150Y019369D03*
X038200Y019219D03*
X022950Y020069D03*
X016750Y020369D03*
X015800Y018219D03*
X015800Y018169D03*
X013200Y016769D03*
D33*
X013100Y016869D03*
X013100Y016919D03*
X013050Y017069D03*
X013050Y017119D03*
X013050Y017169D03*
X013050Y017219D03*
X013050Y017269D03*
X014350Y017019D03*
X014350Y016969D03*
X014350Y016919D03*
X014350Y016869D03*
X015300Y017369D03*
X016000Y018519D03*
X016000Y018569D03*
X016050Y018619D03*
X016050Y018669D03*
X016050Y018719D03*
X016100Y018769D03*
X016100Y018819D03*
X016100Y018869D03*
X016150Y018919D03*
X016150Y018969D03*
X016200Y019069D03*
X016200Y019119D03*
X016250Y019219D03*
X016250Y019269D03*
X016300Y019369D03*
X016300Y019419D03*
X016350Y019519D03*
X016350Y019569D03*
X016400Y019669D03*
X016400Y019719D03*
X016450Y019819D03*
X016450Y019869D03*
X016500Y019969D03*
X016500Y020019D03*
X012850Y018469D03*
X020800Y018469D03*
X022350Y018169D03*
X022350Y018119D03*
X022400Y018319D03*
X022400Y018369D03*
X022450Y018519D03*
X022500Y018669D03*
X022500Y018719D03*
X022600Y019119D03*
X022650Y019319D03*
X022700Y019469D03*
X022700Y019519D03*
X022750Y019669D03*
X022750Y019719D03*
X022800Y019869D03*
X025450Y019469D03*
X025650Y018619D03*
X025600Y018469D03*
X025600Y018419D03*
X025550Y018319D03*
X025550Y018269D03*
X025500Y018169D03*
X025500Y018119D03*
X026050Y017369D03*
X026050Y017319D03*
X027000Y017619D03*
X027050Y017269D03*
X027050Y017219D03*
X027100Y016819D03*
X029650Y019519D03*
X029650Y019569D03*
X037350Y018519D03*
X038300Y018869D03*
X038300Y018919D03*
D34*
X038100Y019469D03*
X038100Y019519D03*
X038000Y019719D03*
X032950Y018519D03*
X029600Y018769D03*
X029600Y018819D03*
X029600Y018869D03*
X023600Y017419D03*
X023600Y017369D03*
X023600Y017319D03*
X023600Y017269D03*
X023600Y017219D03*
X023600Y017169D03*
X023600Y017119D03*
X023650Y017019D03*
X023650Y016969D03*
X023650Y016919D03*
X023650Y016869D03*
X023650Y016819D03*
X023550Y017519D03*
X023550Y017569D03*
X023550Y017619D03*
X016700Y020069D03*
X016700Y020119D03*
X016700Y020169D03*
X015800Y018419D03*
X015800Y018369D03*
X015800Y018319D03*
D35*
X019375Y017269D03*
X019325Y016819D03*
D36*
X022925Y020219D03*
X022925Y020269D03*
X027025Y017169D03*
X037325Y018469D03*
X038275Y018969D03*
X038275Y019019D03*
X014325Y016819D03*
X013125Y016819D03*
X013075Y016969D03*
X013075Y017019D03*
X013025Y017319D03*
X013025Y017369D03*
X013025Y017419D03*
X013025Y017469D03*
X013025Y017519D03*
X013025Y017569D03*
D37*
X014325Y017069D03*
X015275Y017319D03*
X016125Y017119D03*
X016125Y017069D03*
X014175Y018469D03*
X014175Y018919D03*
X014175Y018969D03*
X014125Y019319D03*
X014125Y019369D03*
X014075Y019719D03*
X014075Y019769D03*
X014075Y019819D03*
X012775Y018969D03*
X012775Y018919D03*
X012775Y018869D03*
X012775Y018819D03*
X012825Y018569D03*
X012825Y018519D03*
X016175Y019019D03*
X016225Y019169D03*
X016275Y019319D03*
X016325Y019469D03*
X016375Y019619D03*
X016425Y019769D03*
X016475Y019919D03*
X018225Y020169D03*
X018225Y020219D03*
X018225Y020269D03*
X018225Y020319D03*
X018275Y019919D03*
X018275Y019869D03*
X018275Y019819D03*
X018275Y019769D03*
X018325Y019469D03*
X018325Y019419D03*
X018325Y019369D03*
X018325Y019319D03*
X018375Y019069D03*
X018375Y019019D03*
X018375Y018969D03*
X018375Y018919D03*
X018425Y018669D03*
X018425Y018619D03*
X018425Y018569D03*
X018425Y018519D03*
X018475Y018269D03*
X018475Y018219D03*
X018475Y018169D03*
X018475Y018119D03*
X020525Y017119D03*
X020525Y017069D03*
X020875Y018569D03*
X020825Y018869D03*
X020825Y018919D03*
X020825Y018969D03*
X020775Y019269D03*
X020775Y019319D03*
X020775Y019369D03*
X020725Y019669D03*
X020725Y019719D03*
X020725Y019769D03*
X020725Y019819D03*
X020675Y020019D03*
X022675Y019419D03*
X022675Y019369D03*
X022625Y019269D03*
X022625Y019219D03*
X022625Y019169D03*
X022725Y019569D03*
X022725Y019619D03*
X022775Y019769D03*
X022775Y019819D03*
X022925Y020319D03*
X022925Y020369D03*
X022475Y018619D03*
X022475Y018569D03*
X022425Y018469D03*
X022425Y018419D03*
X022375Y018269D03*
X022375Y018219D03*
X022425Y017619D03*
X022425Y017569D03*
X022475Y017269D03*
X022475Y017219D03*
X022475Y017169D03*
X025525Y018219D03*
X025575Y018369D03*
X025625Y018519D03*
X025625Y018569D03*
X025675Y018669D03*
X025675Y018719D03*
X025675Y018769D03*
X025725Y018819D03*
X025725Y018869D03*
X025725Y018919D03*
X025775Y019019D03*
X025775Y019069D03*
X025425Y019519D03*
X025375Y019719D03*
X025375Y019769D03*
X025375Y019819D03*
X025375Y019869D03*
X026775Y019869D03*
X026775Y019819D03*
X026775Y019769D03*
X026775Y019919D03*
X026825Y019519D03*
X026825Y019469D03*
X026875Y019069D03*
X026875Y019019D03*
X026925Y018719D03*
X026925Y018669D03*
X026925Y018619D03*
X026925Y018569D03*
X026975Y018319D03*
X026975Y018269D03*
X026975Y018219D03*
X026975Y018169D03*
X027025Y017569D03*
X027025Y017519D03*
X027075Y017419D03*
X027075Y017369D03*
X027075Y017319D03*
X027125Y017019D03*
X027125Y016969D03*
X027125Y016919D03*
X027125Y016869D03*
X026025Y017269D03*
X025925Y017619D03*
X028025Y018819D03*
X028025Y018869D03*
X028025Y018919D03*
X028025Y018969D03*
X028025Y019019D03*
X029675Y019619D03*
X029675Y019669D03*
X034475Y018719D03*
X034475Y018669D03*
X034525Y018469D03*
X037325Y018569D03*
X037325Y018619D03*
X038325Y018769D03*
X038325Y018819D03*
D38*
X038075Y019569D03*
X038075Y019619D03*
X038025Y019669D03*
X029575Y019069D03*
X029575Y019019D03*
X029575Y018969D03*
X029575Y018919D03*
X023575Y017469D03*
X023625Y017069D03*
X022975Y019919D03*
X019275Y017519D03*
X019275Y017469D03*
X019275Y017419D03*
X019325Y017169D03*
X019325Y017119D03*
X019325Y017069D03*
X019325Y017019D03*
X019325Y016969D03*
X019325Y016919D03*
X019325Y016869D03*
X015825Y018469D03*
X012975Y019169D03*
X012925Y019269D03*
X012925Y019319D03*
X012925Y019369D03*
X012925Y019419D03*
D39*
X014700Y017469D03*
X015650Y017469D03*
X017500Y017119D03*
X017550Y016969D03*
X018500Y017269D03*
X018550Y016969D03*
X020050Y017469D03*
X021850Y017469D03*
X021850Y017419D03*
X021900Y017019D03*
X021900Y016969D03*
X024350Y017269D03*
X024350Y017319D03*
X024350Y017369D03*
X024350Y017419D03*
X024350Y017469D03*
X024500Y017069D03*
X024500Y017019D03*
X025500Y016969D03*
X026450Y017419D03*
X026450Y017469D03*
X028450Y018569D03*
X028450Y018619D03*
X028400Y018719D03*
X028450Y019469D03*
X037200Y019469D03*
X037200Y019519D03*
X038050Y018669D03*
X038050Y018619D03*
X038100Y018569D03*
X038100Y018519D03*
X038100Y018469D03*
X013700Y017219D03*
D40*
X014150Y017619D03*
X015250Y017269D03*
X016150Y017169D03*
X014200Y018519D03*
X014200Y018569D03*
X014200Y018619D03*
X014200Y018669D03*
X014200Y018719D03*
X014200Y018769D03*
X014200Y018819D03*
X014200Y018869D03*
X014150Y019019D03*
X014150Y019069D03*
X014150Y019119D03*
X014150Y019169D03*
X014150Y019219D03*
X014150Y019269D03*
X014100Y019419D03*
X014100Y019469D03*
X014100Y019519D03*
X014100Y019569D03*
X014100Y019619D03*
X014100Y019669D03*
X014050Y019869D03*
X014050Y019919D03*
X014050Y019969D03*
X014000Y020019D03*
X012750Y019119D03*
X012750Y019069D03*
X012750Y019019D03*
X012800Y018769D03*
X012800Y018719D03*
X012800Y018669D03*
X012800Y018619D03*
X018350Y019119D03*
X018350Y019169D03*
X018350Y019219D03*
X018350Y019269D03*
X018300Y019519D03*
X018300Y019569D03*
X018300Y019619D03*
X018300Y019669D03*
X018300Y019719D03*
X018250Y019969D03*
X018250Y020019D03*
X018250Y020069D03*
X018250Y020119D03*
X018200Y020369D03*
X018400Y018869D03*
X018400Y018819D03*
X018400Y018769D03*
X018400Y018719D03*
X018450Y018469D03*
X018450Y018419D03*
X018450Y018369D03*
X018450Y018319D03*
X020550Y017169D03*
X020850Y018519D03*
X020850Y018619D03*
X020850Y018669D03*
X020850Y018719D03*
X020850Y018769D03*
X020850Y018819D03*
X020800Y019019D03*
X020800Y019069D03*
X020800Y019119D03*
X020800Y019169D03*
X020800Y019219D03*
X020750Y019419D03*
X020750Y019469D03*
X020750Y019519D03*
X020750Y019569D03*
X020750Y019619D03*
X020700Y019869D03*
X020700Y019919D03*
X020700Y019969D03*
X022450Y017519D03*
X022450Y017469D03*
X022450Y017419D03*
X022450Y017369D03*
X022450Y017319D03*
X022500Y017119D03*
X022500Y017069D03*
X022500Y017019D03*
X022500Y016969D03*
X025750Y018969D03*
X025400Y019569D03*
X025400Y019619D03*
X025400Y019669D03*
X025350Y019919D03*
X025350Y019969D03*
X025350Y020019D03*
X026750Y020019D03*
X026750Y019969D03*
X026800Y019719D03*
X026800Y019669D03*
X026800Y019619D03*
X026800Y019569D03*
X026900Y018969D03*
X026900Y018919D03*
X026900Y018869D03*
X026900Y018819D03*
X026900Y018769D03*
X026950Y018519D03*
X026950Y018469D03*
X026950Y018419D03*
X026950Y018369D03*
X027000Y018119D03*
X027050Y017469D03*
X025900Y017569D03*
X028000Y019069D03*
X027950Y019169D03*
X029700Y019719D03*
X029700Y019769D03*
X034500Y018619D03*
X034500Y018569D03*
X034500Y018519D03*
X036300Y019919D03*
X036300Y019969D03*
X037300Y018669D03*
D41*
X038225Y019119D03*
X038225Y019169D03*
X038175Y019269D03*
X032975Y018969D03*
X032975Y018919D03*
X032975Y018869D03*
X029625Y019319D03*
X029625Y019369D03*
X026975Y017069D03*
X022975Y020119D03*
D42*
X024975Y017619D03*
X024975Y017569D03*
X024975Y017519D03*
X024975Y017469D03*
X024975Y017419D03*
X024975Y017369D03*
X024975Y017319D03*
X026025Y017219D03*
X027975Y019119D03*
X027925Y019219D03*
X029725Y019819D03*
X029725Y019869D03*
X029725Y019919D03*
X036275Y019869D03*
X036275Y019819D03*
X037625Y019919D03*
X037625Y019969D03*
X037325Y018719D03*
X020575Y017219D03*
X020525Y017619D03*
X016975Y017619D03*
X016125Y017619D03*
X016175Y017219D03*
D43*
X019250Y017569D03*
X019350Y017219D03*
X012950Y019219D03*
X032900Y018469D03*
D44*
X019400Y017319D03*
X019250Y017619D03*
D45*
X019425Y017369D03*
X034725Y019169D03*
X034725Y019219D03*
X034725Y019269D03*
X034725Y019319D03*
X034725Y019369D03*
X034725Y019419D03*
X034675Y019569D03*
X034675Y019619D03*
X034675Y019669D03*
X034675Y019719D03*
X034675Y019769D03*
X034675Y019819D03*
X034625Y019969D03*
X034775Y019019D03*
X034775Y018969D03*
X034775Y018919D03*
X034775Y018869D03*
X034775Y018819D03*
X034775Y018769D03*
D46*
X036225Y018769D03*
X036225Y018819D03*
X036225Y018869D03*
X036225Y018919D03*
X037225Y019169D03*
X037225Y019219D03*
X039375Y019469D03*
X039375Y019519D03*
X039375Y019569D03*
X039325Y019769D03*
X039325Y019819D03*
X039425Y019169D03*
X039425Y019119D03*
X039425Y019069D03*
X039475Y018769D03*
X039475Y018719D03*
X039475Y018669D03*
X033275Y019319D03*
X033275Y019369D03*
X033275Y019419D03*
X033225Y019719D03*
X032375Y019919D03*
X031575Y019719D03*
X032625Y019019D03*
X031725Y018769D03*
X030975Y018519D03*
X028425Y019669D03*
X027675Y019869D03*
X027625Y019969D03*
X024425Y018119D03*
X024275Y018369D03*
X024225Y018469D03*
X024075Y018719D03*
X023825Y019169D03*
X023775Y019269D03*
X023625Y019519D03*
X023575Y019619D03*
X023525Y019719D03*
X023475Y019819D03*
X023425Y019869D03*
X017275Y019069D03*
X017275Y019019D03*
X017275Y018969D03*
X017275Y018919D03*
X017275Y018869D03*
X017275Y018819D03*
X017275Y018769D03*
X017325Y018669D03*
X017325Y018619D03*
X017325Y018569D03*
X017325Y018519D03*
X017325Y018469D03*
X017325Y018419D03*
X017325Y018369D03*
X017375Y018219D03*
X017375Y018169D03*
X017225Y019169D03*
X017225Y019219D03*
X017225Y019269D03*
X017225Y019319D03*
X017225Y019369D03*
X017225Y019419D03*
X017225Y019469D03*
X017175Y019569D03*
X017175Y019619D03*
X017175Y019669D03*
X017175Y019719D03*
X017175Y019769D03*
X017175Y019819D03*
X017175Y019869D03*
X017125Y019969D03*
X017125Y020019D03*
X015225Y019819D03*
X015225Y019769D03*
X015225Y019719D03*
X015225Y019669D03*
X015275Y019419D03*
X015275Y019369D03*
X015275Y019319D03*
X015275Y019269D03*
X015275Y019219D03*
X015325Y019019D03*
X015325Y018969D03*
X015325Y018919D03*
X015325Y018869D03*
X015325Y018819D03*
X015375Y018619D03*
X015375Y018569D03*
X015375Y018519D03*
X015175Y020069D03*
X015175Y020119D03*
X015175Y020169D03*
X015175Y020219D03*
D47*
X020000Y020369D03*
X020200Y018119D03*
X034650Y019869D03*
X034650Y019919D03*
X034700Y019519D03*
X034700Y019469D03*
X034750Y019119D03*
X034750Y019069D03*
D48*
X020350Y018419D03*
X020350Y018369D03*
X020150Y020069D03*
X020150Y020119D03*
X013200Y020369D03*
X013350Y018119D03*
D49*
X033400Y020419D03*
X033450Y020319D03*
X033450Y020269D03*
X033450Y020219D03*
X033450Y020169D03*
X033450Y020119D03*
X033450Y020069D03*
X033450Y020019D03*
X033650Y018419D03*
X033700Y018319D03*
X033700Y018269D03*
X033700Y018219D03*
X033700Y018169D03*
D50*
X033250Y019469D03*
X033250Y019519D03*
X033250Y019569D03*
X033250Y019619D03*
X033250Y019669D03*
X031650Y019269D03*
X031700Y018869D03*
X031600Y019669D03*
X030800Y019969D03*
X028450Y019719D03*
X027700Y019769D03*
X027700Y019819D03*
X024400Y018169D03*
X024350Y018219D03*
X024350Y018269D03*
X024300Y018319D03*
X024250Y018419D03*
X024200Y018519D03*
X024150Y018569D03*
X024150Y018619D03*
X024100Y018669D03*
X023850Y019119D03*
X023800Y019219D03*
X023750Y019319D03*
X023700Y019369D03*
X023700Y019419D03*
X023650Y019469D03*
X023600Y019569D03*
X023550Y019669D03*
X023500Y019769D03*
X017250Y019119D03*
X017300Y018719D03*
X017350Y018319D03*
X017350Y018269D03*
X017200Y019519D03*
X017150Y019919D03*
X015250Y019619D03*
X015250Y019569D03*
X015250Y019519D03*
X015250Y019469D03*
X015300Y019169D03*
X015300Y019119D03*
X015300Y019069D03*
X015350Y018769D03*
X015350Y018719D03*
X015350Y018669D03*
X015200Y019869D03*
X015200Y019919D03*
X015200Y019969D03*
X015200Y020019D03*
X015150Y020269D03*
X015150Y020319D03*
X015150Y020369D03*
X036250Y018969D03*
X039300Y019869D03*
X039450Y018619D03*
X039450Y018569D03*
D51*
X020275Y018169D03*
X020075Y020269D03*
D52*
X020100Y020219D03*
X020300Y018219D03*
D53*
X020325Y018269D03*
X020325Y018319D03*
X020125Y020169D03*
D54*
X022975Y020019D03*
X022975Y019969D03*
X016725Y020219D03*
X016725Y020269D03*
X016725Y020319D03*
X015775Y018269D03*
X029575Y019119D03*
X029575Y019169D03*
X032975Y018619D03*
X032975Y018569D03*
X038125Y019419D03*
D55*
X026200Y019169D03*
X026100Y020319D03*
X023150Y018869D03*
X023150Y018819D03*
X013500Y018319D03*
X013500Y018269D03*
X013350Y020119D03*
D56*
X033425Y020369D03*
X033675Y018369D03*
D57*
X026175Y019219D03*
X026075Y020219D03*
X026075Y020269D03*
X023175Y018769D03*
X013525Y018369D03*
D58*
X013500Y018419D03*
X026050Y020069D03*
X026050Y020119D03*
X026050Y020169D03*
X026150Y019319D03*
X026150Y019269D03*
D59*
X028450Y019569D03*
X028400Y018469D03*
X030850Y018769D03*
X030850Y018819D03*
X030850Y018869D03*
X030850Y018919D03*
X030800Y019069D03*
X030800Y019119D03*
X030800Y019169D03*
X030800Y019219D03*
X030800Y019269D03*
X030800Y019319D03*
X030750Y019469D03*
X030750Y019519D03*
X030750Y019569D03*
X030750Y019619D03*
X030750Y019669D03*
X030750Y019719D03*
X030750Y019769D03*
X032400Y019769D03*
X032400Y019819D03*
X032450Y019619D03*
X032450Y019569D03*
X032450Y019519D03*
X032450Y019469D03*
X032500Y019219D03*
X032500Y019169D03*
X036200Y018519D03*
X036200Y018469D03*
X037200Y019369D03*
X037200Y019419D03*
D60*
X036225Y019119D03*
X036225Y019069D03*
X036225Y019019D03*
X039275Y019919D03*
X039425Y018519D03*
X031725Y018819D03*
X031675Y018919D03*
X031675Y018969D03*
X031675Y019019D03*
X031675Y019069D03*
X031675Y019119D03*
X031675Y019169D03*
X031675Y019219D03*
X031625Y019319D03*
X031625Y019369D03*
X031625Y019419D03*
X031625Y019469D03*
X031625Y019519D03*
X031625Y019569D03*
X031625Y019619D03*
X031025Y018469D03*
X028425Y019769D03*
X027725Y019719D03*
X027875Y018719D03*
X027875Y018669D03*
X027875Y018619D03*
X027875Y018569D03*
D61*
X027900Y018519D03*
X027850Y018769D03*
X027750Y019619D03*
X027750Y019669D03*
X032400Y019969D03*
X036250Y019319D03*
X036250Y019269D03*
X036250Y019219D03*
X036250Y019169D03*
X039250Y019969D03*
D62*
X039350Y019719D03*
X039350Y019669D03*
X039350Y019619D03*
X039400Y019419D03*
X039400Y019369D03*
X039400Y019319D03*
X039400Y019269D03*
X039400Y019219D03*
X039450Y019019D03*
X039450Y018969D03*
X039450Y018919D03*
X039450Y018869D03*
X039450Y018819D03*
X037200Y019269D03*
X036200Y018719D03*
X036200Y018669D03*
X036200Y018619D03*
X036200Y018569D03*
X032550Y019069D03*
X032400Y019869D03*
X030750Y019869D03*
X030750Y019919D03*
X030900Y018619D03*
X030900Y018569D03*
X028450Y019619D03*
X027650Y019919D03*
D63*
X030725Y019819D03*
X030775Y019419D03*
X030775Y019369D03*
X030825Y019019D03*
X030825Y018969D03*
X030875Y018719D03*
X030875Y018669D03*
X032525Y019119D03*
X037225Y019319D03*
D64*
X026150Y020369D03*
X023150Y018969D03*
X013300Y020219D03*
D65*
X013250Y020319D03*
X023100Y019069D03*
D66*
X026125Y019369D03*
X026125Y019419D03*
D67*
X020050Y020319D03*
D68*
X029603Y015269D02*
X029603Y015239D01*
X029618Y015224D01*
X029663Y015224D01*
X029663Y015194D02*
X029663Y015284D01*
X029618Y015284D01*
X029603Y015269D01*
X029695Y015269D02*
X029695Y015224D01*
X029725Y015224D02*
X029725Y015269D01*
X029710Y015284D01*
X029695Y015269D01*
X029725Y015269D02*
X029740Y015284D01*
X029755Y015284D01*
X029755Y015224D01*
X029787Y015239D02*
X029787Y015269D01*
X029802Y015284D01*
X029847Y015284D01*
X029847Y015314D02*
X029847Y015224D01*
X029802Y015224D01*
X029787Y015239D01*
X029878Y015239D02*
X029878Y015224D01*
X029893Y015224D01*
X029893Y015239D01*
X029878Y015239D01*
X029925Y015224D02*
X029925Y015269D01*
X029940Y015284D01*
X029985Y015284D01*
X029985Y015224D01*
X030017Y015224D02*
X030047Y015224D01*
X030032Y015224D02*
X030032Y015284D01*
X030047Y015284D01*
X030079Y015284D02*
X030094Y015269D01*
X030079Y015254D01*
X030079Y015239D01*
X030094Y015224D01*
X030124Y015224D01*
X030139Y015239D01*
X030109Y015269D02*
X030094Y015269D01*
X030079Y015284D02*
X030079Y015299D01*
X030094Y015314D01*
X030124Y015314D01*
X030139Y015299D01*
X030171Y015269D02*
X030231Y015269D01*
X030263Y015254D02*
X030263Y015239D01*
X030278Y015224D01*
X030323Y015224D01*
X030323Y015314D01*
X030278Y015314D01*
X030263Y015299D01*
X030263Y015284D01*
X030278Y015269D01*
X030323Y015269D01*
X030355Y015239D02*
X030370Y015224D01*
X030400Y015224D01*
X030415Y015239D01*
X030415Y015299D01*
X030400Y015314D01*
X030370Y015314D01*
X030355Y015299D01*
X030278Y015269D02*
X030263Y015254D01*
X030447Y015269D02*
X030462Y015254D01*
X030507Y015254D01*
X030507Y015224D02*
X030507Y015314D01*
X030462Y015314D01*
X030447Y015299D01*
X030447Y015269D01*
X030539Y015269D02*
X030599Y015269D01*
X030630Y015224D02*
X030660Y015224D01*
X030645Y015224D02*
X030645Y015314D01*
X030660Y015314D01*
X030692Y015269D02*
X030692Y015224D01*
X030738Y015224D01*
X030753Y015239D01*
X030738Y015254D01*
X030692Y015254D01*
X030692Y015269D02*
X030708Y015284D01*
X030738Y015284D01*
X030785Y015269D02*
X030785Y015224D01*
X030785Y015269D02*
X030800Y015284D01*
X030845Y015284D01*
X030845Y015224D01*
X030876Y015224D02*
X030906Y015224D01*
X030891Y015224D02*
X030891Y015284D01*
X030906Y015284D01*
X030891Y015314D02*
X030891Y015329D01*
X030938Y015314D02*
X030998Y015314D01*
X030998Y015224D01*
X030998Y015269D02*
X030968Y015269D01*
X031030Y015269D02*
X031090Y015269D01*
X031122Y015224D02*
X031122Y015314D01*
X031182Y015314D02*
X031182Y015224D01*
X031152Y015254D01*
X031122Y015224D01*
X031214Y015239D02*
X031229Y015224D01*
X031274Y015224D01*
X031274Y015314D01*
X031229Y015314D01*
X031214Y015299D01*
X031214Y015284D01*
X031229Y015269D01*
X031274Y015269D01*
X031306Y015269D02*
X031366Y015269D01*
X031398Y015239D02*
X031398Y015299D01*
X031413Y015314D01*
X031443Y015314D01*
X031458Y015299D01*
X031458Y015239D01*
X031443Y015224D01*
X031413Y015224D01*
X031398Y015239D01*
X031491Y015224D02*
X031551Y015224D01*
X031551Y015314D01*
X031583Y015299D02*
X031598Y015314D01*
X031628Y015314D01*
X031643Y015299D01*
X031643Y015284D01*
X031628Y015269D01*
X031598Y015269D01*
X031583Y015254D01*
X031583Y015239D01*
X031598Y015224D01*
X031628Y015224D01*
X031643Y015239D01*
X031675Y015224D02*
X031720Y015224D01*
X031735Y015239D01*
X031735Y015269D01*
X031720Y015284D01*
X031675Y015284D01*
X031675Y015209D01*
X031690Y015194D01*
X031705Y015194D01*
X031767Y015224D02*
X031767Y015269D01*
X031782Y015284D01*
X031827Y015284D01*
X031827Y015224D01*
X031858Y015224D02*
X031888Y015224D01*
X031873Y015224D02*
X031873Y015284D01*
X031888Y015284D01*
X031920Y015284D02*
X031965Y015284D01*
X031980Y015269D01*
X031980Y015239D01*
X031965Y015224D01*
X031920Y015224D01*
X032012Y015224D02*
X032057Y015224D01*
X032072Y015239D01*
X032057Y015254D01*
X032012Y015254D01*
X032012Y015269D02*
X032012Y015224D01*
X032012Y015269D02*
X032027Y015284D01*
X032057Y015284D01*
X032104Y015269D02*
X032119Y015254D01*
X032164Y015254D01*
X032134Y015254D02*
X032104Y015224D01*
X032104Y015269D02*
X032104Y015299D01*
X032119Y015314D01*
X032164Y015314D01*
X032164Y015224D01*
X032196Y015269D02*
X032211Y015254D01*
X032256Y015254D01*
X032256Y015224D02*
X032256Y015314D01*
X032211Y015314D01*
X032196Y015299D01*
X032196Y015269D01*
X032289Y015239D02*
X032304Y015224D01*
X032334Y015224D01*
X032349Y015239D01*
X032349Y015299D01*
X032334Y015314D01*
X032304Y015314D01*
X032289Y015299D01*
X032381Y015314D02*
X032441Y015224D01*
X032473Y015239D02*
X032473Y015269D01*
X032488Y015284D01*
X032518Y015284D01*
X032533Y015269D01*
X032533Y015239D01*
X032518Y015224D01*
X032488Y015224D01*
X032473Y015239D01*
X032565Y015224D02*
X032610Y015224D01*
X032625Y015239D01*
X032625Y015269D01*
X032610Y015284D01*
X032565Y015284D01*
X032565Y015209D01*
X032580Y015194D01*
X032595Y015194D01*
X032657Y015239D02*
X032657Y015269D01*
X032672Y015284D01*
X032702Y015284D01*
X032717Y015269D01*
X032717Y015239D01*
X032702Y015224D01*
X032672Y015224D01*
X032657Y015239D01*
X032749Y015224D02*
X032809Y015224D01*
X032809Y015314D01*
X032933Y015284D02*
X032978Y015284D01*
X032993Y015269D01*
X032993Y015239D01*
X032978Y015224D01*
X032933Y015224D01*
X032933Y015209D02*
X032933Y015284D01*
X032933Y015209D02*
X032948Y015194D01*
X032963Y015194D01*
X033025Y015224D02*
X033025Y015269D01*
X033040Y015284D01*
X033085Y015284D01*
X033085Y015224D01*
X033117Y015224D02*
X033147Y015224D01*
X033132Y015224D02*
X033132Y015284D01*
X033147Y015284D01*
X033179Y015284D02*
X033224Y015284D01*
X033239Y015269D01*
X033239Y015239D01*
X033224Y015224D01*
X033179Y015224D01*
X033271Y015224D02*
X033316Y015224D01*
X033331Y015239D01*
X033316Y015254D01*
X033271Y015254D01*
X033271Y015269D02*
X033271Y015224D01*
X033271Y015269D02*
X033286Y015284D01*
X033316Y015284D01*
X033363Y015269D02*
X033378Y015254D01*
X033423Y015254D01*
X033423Y015224D02*
X033423Y015314D01*
X033378Y015314D01*
X033363Y015299D01*
X033363Y015269D01*
X033393Y015254D02*
X033363Y015224D01*
X033547Y015224D02*
X033592Y015224D01*
X033607Y015239D01*
X033607Y015284D01*
X033653Y015314D02*
X033653Y015224D01*
X033668Y015224D02*
X033638Y015224D01*
X033700Y015239D02*
X033700Y015269D01*
X033715Y015284D01*
X033745Y015284D01*
X033760Y015269D01*
X033760Y015239D01*
X033745Y015224D01*
X033715Y015224D01*
X033700Y015239D01*
X033668Y015314D02*
X033653Y015314D01*
X033547Y015284D02*
X033547Y015209D01*
X033562Y015194D01*
X033577Y015194D01*
X033792Y015269D02*
X033807Y015254D01*
X033853Y015254D01*
X033853Y015224D02*
X033853Y015314D01*
X033807Y015314D01*
X033792Y015299D01*
X033792Y015269D01*
X033976Y015224D02*
X034006Y015224D01*
X033991Y015224D02*
X033991Y015314D01*
X034006Y015314D01*
X034038Y015269D02*
X034038Y015224D01*
X034083Y015224D01*
X034098Y015239D01*
X034083Y015254D01*
X034038Y015254D01*
X034038Y015269D02*
X034053Y015284D01*
X034083Y015284D01*
X034130Y015299D02*
X034145Y015314D01*
X034175Y015314D01*
X034190Y015299D01*
X034190Y015239D01*
X034175Y015224D01*
X034145Y015224D01*
X034130Y015239D01*
X034314Y015239D02*
X034329Y015224D01*
X034359Y015224D01*
X034374Y015239D01*
X034374Y015269D02*
X034344Y015284D01*
X034329Y015284D01*
X034314Y015269D01*
X034314Y015239D01*
X034374Y015269D02*
X034374Y015314D01*
X034314Y015314D01*
X034436Y015314D02*
X034436Y015224D01*
X034466Y015224D02*
X034406Y015224D01*
X034466Y015284D02*
X034436Y015314D01*
X034498Y015299D02*
X034558Y015239D01*
X034543Y015224D01*
X034513Y015224D01*
X034498Y015239D01*
X034498Y015299D01*
X034513Y015314D01*
X034543Y015314D01*
X034558Y015299D01*
X034558Y015239D01*
X034590Y015224D02*
X034651Y015224D01*
X034590Y015284D01*
X034590Y015299D01*
X034605Y015314D01*
X034636Y015314D01*
X034651Y015299D01*
X034683Y015314D02*
X034743Y015224D01*
X034775Y015239D02*
X034790Y015254D01*
X034820Y015254D01*
X034835Y015269D01*
X034820Y015284D01*
X034775Y015284D01*
X034775Y015239D02*
X034790Y015224D01*
X034835Y015224D01*
X034867Y015239D02*
X034867Y015269D01*
X034882Y015284D01*
X034912Y015284D01*
X034927Y015269D01*
X034927Y015239D01*
X034912Y015224D01*
X034882Y015224D01*
X034867Y015239D01*
X034959Y015224D02*
X035004Y015224D01*
X035019Y015239D01*
X035019Y015269D01*
X035004Y015284D01*
X034959Y015284D01*
X034959Y015209D01*
X034974Y015194D01*
X034989Y015194D01*
X035051Y015239D02*
X035051Y015269D01*
X035066Y015284D01*
X035096Y015284D01*
X035111Y015269D01*
X035111Y015239D01*
X035096Y015224D01*
X035066Y015224D01*
X035051Y015239D01*
X035143Y015224D02*
X035203Y015224D01*
X035203Y015314D01*
X035235Y015314D02*
X035295Y015224D01*
X035326Y015224D02*
X035356Y015224D01*
X035341Y015224D02*
X035341Y015314D01*
X035356Y015314D01*
X035388Y015269D02*
X035388Y015224D01*
X035434Y015224D01*
X035449Y015239D01*
X035434Y015254D01*
X035388Y015254D01*
X035388Y015269D02*
X035403Y015284D01*
X035434Y015284D01*
X035480Y015284D02*
X035495Y015284D01*
X035525Y015254D01*
X035525Y015224D02*
X035525Y015284D01*
X035557Y015269D02*
X035557Y015254D01*
X035617Y015254D01*
X035617Y015239D02*
X035617Y015269D01*
X035602Y015284D01*
X035572Y015284D01*
X035557Y015269D01*
X035572Y015224D02*
X035602Y015224D01*
X035617Y015239D01*
X035649Y015224D02*
X035649Y015269D01*
X035664Y015284D01*
X035709Y015284D01*
X035709Y015224D01*
X035741Y015254D02*
X035801Y015254D01*
X035801Y015239D02*
X035801Y015269D01*
X035786Y015284D01*
X035756Y015284D01*
X035741Y015269D01*
X035741Y015254D01*
X035756Y015224D02*
X035786Y015224D01*
X035801Y015239D01*
X035834Y015239D02*
X035834Y015269D01*
X035864Y015269D01*
X035894Y015239D02*
X035879Y015224D01*
X035849Y015224D01*
X035834Y015239D01*
X035894Y015239D02*
X035894Y015299D01*
X035879Y015314D01*
X035849Y015314D01*
X035834Y015299D01*
X036018Y015314D02*
X036078Y015314D01*
X036078Y015224D01*
X036018Y015224D01*
X036048Y015269D02*
X036078Y015269D01*
X036110Y015269D02*
X036170Y015269D01*
X036170Y015284D02*
X036140Y015314D01*
X036110Y015284D01*
X036110Y015224D01*
X036170Y015224D02*
X036170Y015284D01*
X036202Y015299D02*
X036217Y015314D01*
X036247Y015314D01*
X036262Y015299D01*
X036262Y015284D01*
X036247Y015269D01*
X036217Y015269D01*
X036202Y015254D01*
X036202Y015239D01*
X036217Y015224D01*
X036247Y015224D01*
X036262Y015239D01*
X036386Y015224D02*
X036431Y015224D01*
X036446Y015239D01*
X036446Y015284D01*
X036492Y015314D02*
X036492Y015224D01*
X036507Y015224D02*
X036477Y015224D01*
X036539Y015239D02*
X036539Y015269D01*
X036554Y015284D01*
X036584Y015284D01*
X036600Y015269D01*
X036600Y015239D01*
X036584Y015224D01*
X036554Y015224D01*
X036539Y015239D01*
X036507Y015314D02*
X036492Y015314D01*
X036386Y015284D02*
X036386Y015209D01*
X036401Y015194D01*
X036416Y015194D01*
X036632Y015269D02*
X036647Y015254D01*
X036692Y015254D01*
X036692Y015224D02*
X036692Y015314D01*
X036647Y015314D01*
X036632Y015299D01*
X036632Y015269D01*
X036815Y015224D02*
X036845Y015224D01*
X036830Y015224D02*
X036830Y015314D01*
X036845Y015314D01*
X036877Y015269D02*
X036877Y015224D01*
X036922Y015224D01*
X036937Y015239D01*
X036922Y015254D01*
X036877Y015254D01*
X036877Y015269D02*
X036892Y015284D01*
X036922Y015284D01*
X036969Y015299D02*
X036984Y015314D01*
X037014Y015314D01*
X037029Y015299D01*
X037029Y015239D01*
X037014Y015224D01*
X036984Y015224D01*
X036969Y015239D01*
X037061Y015314D02*
X037121Y015224D01*
X037153Y015254D02*
X037213Y015254D01*
X037213Y015239D02*
X037213Y015269D01*
X037198Y015284D01*
X037168Y015284D01*
X037153Y015269D01*
X037153Y015254D01*
X037168Y015224D02*
X037198Y015224D01*
X037213Y015239D01*
X037245Y015284D02*
X037275Y015224D01*
X037305Y015284D01*
X037352Y015284D02*
X037352Y015224D01*
X037367Y015224D02*
X037337Y015224D01*
X037352Y015284D02*
X037367Y015284D01*
X037399Y015284D02*
X037414Y015284D01*
X037444Y015254D01*
X037444Y015224D02*
X037444Y015284D01*
X037476Y015299D02*
X037491Y015314D01*
X037536Y015314D01*
X037536Y015224D01*
X037491Y015224D01*
X037476Y015239D01*
X037476Y015299D01*
X037352Y015314D02*
X037352Y015329D01*
X037660Y015269D02*
X037660Y015254D01*
X037720Y015254D01*
X037720Y015239D02*
X037720Y015269D01*
X037705Y015284D01*
X037675Y015284D01*
X037660Y015269D01*
X037675Y015224D02*
X037705Y015224D01*
X037720Y015239D01*
X037751Y015224D02*
X037781Y015224D01*
X037766Y015224D02*
X037766Y015314D01*
X037781Y015314D01*
X037813Y015284D02*
X037858Y015284D01*
X037873Y015269D01*
X037873Y015239D01*
X037858Y015224D01*
X037813Y015224D01*
X037813Y015209D02*
X037813Y015284D01*
X037813Y015209D02*
X037828Y015194D01*
X037843Y015194D01*
X037905Y015239D02*
X037905Y015269D01*
X037920Y015284D01*
X037950Y015284D01*
X037965Y015269D01*
X037965Y015239D01*
X037950Y015224D01*
X037920Y015224D01*
X037905Y015239D01*
X037997Y015239D02*
X037997Y015269D01*
X038012Y015284D01*
X038042Y015284D01*
X038057Y015269D01*
X038057Y015239D01*
X038042Y015224D01*
X038012Y015224D01*
X037997Y015239D01*
X038089Y015239D02*
X038089Y015269D01*
X038119Y015269D01*
X038089Y015239D02*
X038104Y015224D01*
X038134Y015224D01*
X038149Y015239D01*
X038149Y015299D01*
X038134Y015314D01*
X038104Y015314D01*
X038089Y015299D01*
X038182Y015314D02*
X038242Y015224D01*
X038274Y015224D02*
X038274Y015269D01*
X038289Y015284D01*
X038334Y015284D01*
X038334Y015224D01*
X038366Y015239D02*
X038366Y015269D01*
X038381Y015284D01*
X038411Y015284D01*
X038426Y015269D01*
X038426Y015239D01*
X038411Y015224D01*
X038381Y015224D01*
X038366Y015239D01*
X038458Y015239D02*
X038473Y015254D01*
X038503Y015254D01*
X038518Y015269D01*
X038503Y015284D01*
X038458Y015284D01*
X038458Y015239D02*
X038473Y015224D01*
X038518Y015224D01*
X038549Y015224D02*
X038579Y015224D01*
X038564Y015224D02*
X038564Y015314D01*
X038579Y015314D01*
X038626Y015314D02*
X038626Y015224D01*
X038641Y015224D02*
X038611Y015224D01*
X038672Y015224D02*
X038702Y015224D01*
X038687Y015224D02*
X038687Y015284D01*
X038702Y015284D01*
X038734Y015284D02*
X038734Y015239D01*
X038749Y015224D01*
X038764Y015239D01*
X038779Y015224D01*
X038794Y015239D01*
X038794Y015284D01*
X038826Y015284D02*
X038871Y015284D01*
X038886Y015269D01*
X038871Y015254D01*
X038841Y015254D01*
X038826Y015239D01*
X038841Y015224D01*
X038886Y015224D01*
X038918Y015224D02*
X038963Y015224D01*
X038978Y015239D01*
X038963Y015254D01*
X038918Y015254D01*
X038918Y015269D02*
X038918Y015224D01*
X038918Y015269D02*
X038933Y015284D01*
X038963Y015284D01*
X039010Y015269D02*
X039010Y015224D01*
X039040Y015224D02*
X039040Y015269D01*
X039025Y015284D01*
X039010Y015269D01*
X039040Y015269D02*
X039055Y015284D01*
X039070Y015284D01*
X039070Y015224D01*
X039102Y015239D02*
X039102Y015269D01*
X039117Y015284D01*
X039147Y015284D01*
X039162Y015269D01*
X039162Y015239D01*
X039147Y015224D01*
X039117Y015224D01*
X039102Y015239D01*
X039194Y015224D02*
X039194Y015269D01*
X039209Y015284D01*
X039239Y015284D01*
X039254Y015269D01*
X039286Y015284D02*
X039316Y015284D01*
X039301Y015299D02*
X039301Y015239D01*
X039286Y015224D01*
X039254Y015224D02*
X039254Y015314D01*
X039348Y015314D02*
X039408Y015224D01*
X039440Y015239D02*
X039455Y015254D01*
X039485Y015254D01*
X039500Y015269D01*
X039485Y015284D01*
X039440Y015284D01*
X039440Y015239D02*
X039455Y015224D01*
X039500Y015224D01*
X039532Y015284D02*
X039547Y015284D01*
X039577Y015254D01*
X039577Y015224D02*
X039577Y015284D01*
X039609Y015269D02*
X039609Y015254D01*
X039669Y015254D01*
X039669Y015239D02*
X039669Y015269D01*
X039654Y015284D01*
X039624Y015284D01*
X039609Y015269D01*
X039624Y015224D02*
X039654Y015224D01*
X039669Y015239D01*
X039701Y015239D02*
X039716Y015254D01*
X039746Y015254D01*
X039761Y015269D01*
X039746Y015284D01*
X039701Y015284D01*
X039701Y015239D02*
X039716Y015224D01*
X039761Y015224D01*
X039793Y015239D02*
X039793Y015314D01*
X039853Y015314D02*
X039853Y015239D01*
X039838Y015224D01*
X039808Y015224D01*
X039793Y015239D01*
X039885Y015314D02*
X039945Y015224D01*
X038687Y015314D02*
X038687Y015329D01*
X038641Y015314D02*
X038626Y015314D01*
X033132Y015329D02*
X033132Y015314D01*
X031873Y015329D02*
X031873Y015314D01*
X031229Y015269D02*
X031214Y015254D01*
X031214Y015239D01*
X030032Y015314D02*
X030032Y015329D01*
D69*
X006424Y012564D02*
X005636Y012564D01*
X005636Y013608D01*
X006424Y013608D01*
X006424Y012564D01*
X006424Y013608D02*
X006424Y013785D01*
X005636Y013785D01*
X005636Y013608D01*
M02*
