G75*
%MOIN*%
%OFA0B0*%
%FSLAX24Y24*%
%IPPOS*%
%LPD*%
%AMOC8*
5,1,8,0,0,1.08239X$1,22.5*
%
%ADD10R,0.0591X0.0413*%
%ADD11R,0.0591X0.0945*%
%ADD12R,0.0531X0.0591*%
%ADD13R,0.0591X0.0512*%
%ADD14R,0.0512X0.0591*%
%ADD15R,0.2165X0.0925*%
%ADD16R,0.0315X0.0472*%
%ADD17R,0.0433X0.0394*%
%ADD18R,0.0925X0.2165*%
%ADD19R,0.0394X0.0433*%
%ADD20R,0.0472X0.0315*%
%ADD21R,0.0472X0.0276*%
%ADD22R,0.0551X0.0551*%
%ADD23R,0.0394X0.0709*%
%ADD24R,0.0500X0.0858*%
%ADD25R,0.0220X0.0470*%
%ADD26R,0.0470X0.0220*%
%ADD27R,0.0260X0.0800*%
%ADD28R,0.0394X0.0551*%
%ADD29C,0.0030*%
%ADD30R,0.0472X0.0630*%
%ADD31R,0.0472X0.0472*%
%ADD32R,0.0760X0.2100*%
%ADD33R,0.0394X0.1000*%
%ADD34R,0.0110X0.0490*%
%ADD35R,0.2030X0.2030*%
%ADD36R,0.0217X0.0472*%
%ADD37R,0.0098X0.0591*%
%ADD38R,0.1654X0.1181*%
%ADD39R,0.0630X0.0220*%
%ADD40R,0.0120X0.0590*%
%ADD41R,0.0710X0.0870*%
%ADD42R,0.1280X0.0984*%
%ADD43R,0.0315X0.0384*%
%ADD44R,0.0709X0.0394*%
D10*
X006030Y012564D03*
D11*
X006030Y013499D03*
D12*
X008213Y008649D03*
X009847Y008649D03*
D13*
X035530Y008525D03*
X035530Y009273D03*
X044030Y021525D03*
X044030Y022273D03*
X041030Y025025D03*
X041030Y025773D03*
X039280Y025773D03*
X039280Y025025D03*
D14*
X036464Y026779D03*
X035716Y026779D03*
X031904Y028899D03*
X031156Y028899D03*
X031156Y030899D03*
X031904Y030899D03*
X040416Y016879D03*
X041164Y016879D03*
X042906Y012149D03*
X043654Y012149D03*
X043654Y010649D03*
X042906Y010649D03*
X041654Y011149D03*
X040906Y011149D03*
X036714Y011659D03*
X035966Y011659D03*
X035926Y010569D03*
X036674Y010569D03*
D15*
X016530Y018297D03*
X016530Y020501D03*
X016280Y022797D03*
X016280Y025001D03*
X006530Y020251D03*
X006530Y018047D03*
D16*
X024676Y014399D03*
X025384Y014399D03*
X038586Y017639D03*
X039294Y017639D03*
D17*
X025365Y016399D03*
X024695Y016399D03*
X024695Y015399D03*
X025365Y015399D03*
X019365Y023399D03*
X018695Y023399D03*
X018115Y026899D03*
X017445Y026899D03*
X016365Y026899D03*
X015695Y026899D03*
X014615Y026899D03*
X013945Y026899D03*
X012865Y026899D03*
X012195Y026899D03*
X012945Y029399D03*
X013615Y029399D03*
X014445Y029399D03*
X015115Y029399D03*
X015945Y029399D03*
X016615Y029399D03*
X017445Y029399D03*
X018115Y029399D03*
D18*
X020928Y014899D03*
X023132Y014899D03*
D19*
X011530Y011734D03*
X011530Y011064D03*
X010530Y011064D03*
X010530Y011734D03*
X009530Y011734D03*
X009530Y011064D03*
X008530Y011064D03*
X008530Y011734D03*
X008530Y016064D03*
X008530Y016734D03*
X007530Y016734D03*
X007530Y016064D03*
X009530Y016064D03*
X009530Y016734D03*
X010530Y016734D03*
X010530Y016064D03*
X021030Y024564D03*
X021030Y025234D03*
D20*
X009530Y006045D03*
X009530Y006753D03*
X010530Y006753D03*
X010530Y006045D03*
X011530Y006045D03*
X011530Y006753D03*
X012530Y006753D03*
X012530Y006045D03*
X006030Y014545D03*
X006030Y015253D03*
D21*
X035322Y025779D03*
X036778Y025779D03*
D22*
X019280Y020397D03*
X019280Y018901D03*
D23*
X042729Y009149D03*
X043831Y009149D03*
D24*
X031540Y033408D03*
X030540Y033408D03*
X029540Y033408D03*
X029540Y035810D03*
X030540Y035810D03*
X031540Y035810D03*
D25*
X035418Y033954D03*
X035733Y033954D03*
X036048Y033954D03*
X036363Y033954D03*
X036678Y033954D03*
X036993Y033954D03*
X037308Y033954D03*
X037623Y033954D03*
X037937Y033954D03*
X038252Y033954D03*
X038567Y033954D03*
X038882Y033954D03*
X039197Y033954D03*
X039512Y033954D03*
X039827Y033954D03*
X040142Y033954D03*
X040142Y027844D03*
X039827Y027844D03*
X039512Y027844D03*
X039197Y027844D03*
X038882Y027844D03*
X038567Y027844D03*
X038252Y027844D03*
X037937Y027844D03*
X037623Y027844D03*
X037308Y027844D03*
X036993Y027844D03*
X036678Y027844D03*
X036363Y027844D03*
X036048Y027844D03*
X035733Y027844D03*
X035418Y027844D03*
D26*
X034725Y028537D03*
X034725Y028852D03*
X034725Y029167D03*
X034725Y029482D03*
X034725Y029797D03*
X034725Y030112D03*
X034725Y030427D03*
X034725Y030742D03*
X034725Y031056D03*
X034725Y031371D03*
X034725Y031686D03*
X034725Y032001D03*
X034725Y032316D03*
X034725Y032631D03*
X034725Y032946D03*
X034725Y033261D03*
X040835Y033261D03*
X040835Y032946D03*
X040835Y032631D03*
X040835Y032316D03*
X040835Y032001D03*
X040835Y031686D03*
X040835Y031371D03*
X040835Y031056D03*
X040835Y030742D03*
X040835Y030427D03*
X040835Y030112D03*
X040835Y029797D03*
X040835Y029482D03*
X040835Y029167D03*
X040835Y028852D03*
X040835Y028537D03*
D27*
X042780Y026109D03*
X043280Y026109D03*
X043780Y026109D03*
X044280Y026109D03*
X044280Y023689D03*
X043780Y023689D03*
X043280Y023689D03*
X042780Y023689D03*
D28*
X043780Y020582D03*
X043406Y019716D03*
X044154Y019716D03*
D29*
X043503Y016356D02*
X043383Y016356D01*
X043503Y016356D02*
X043503Y015796D01*
X043383Y015796D01*
X043383Y016356D01*
X043383Y015825D02*
X043503Y015825D01*
X043503Y015854D02*
X043383Y015854D01*
X043383Y015883D02*
X043503Y015883D01*
X043503Y015912D02*
X043383Y015912D01*
X043383Y015941D02*
X043503Y015941D01*
X043503Y015970D02*
X043383Y015970D01*
X043383Y015999D02*
X043503Y015999D01*
X043503Y016028D02*
X043383Y016028D01*
X043383Y016057D02*
X043503Y016057D01*
X043503Y016086D02*
X043383Y016086D01*
X043383Y016115D02*
X043503Y016115D01*
X043503Y016144D02*
X043383Y016144D01*
X043383Y016173D02*
X043503Y016173D01*
X043503Y016202D02*
X043383Y016202D01*
X043383Y016231D02*
X043503Y016231D01*
X043503Y016260D02*
X043383Y016260D01*
X043383Y016289D02*
X043503Y016289D01*
X043503Y016318D02*
X043383Y016318D01*
X043383Y016347D02*
X043503Y016347D01*
X043247Y016356D02*
X043127Y016356D01*
X043247Y016356D02*
X043247Y015796D01*
X043127Y015796D01*
X043127Y016356D01*
X043127Y015825D02*
X043247Y015825D01*
X043247Y015854D02*
X043127Y015854D01*
X043127Y015883D02*
X043247Y015883D01*
X043247Y015912D02*
X043127Y015912D01*
X043127Y015941D02*
X043247Y015941D01*
X043247Y015970D02*
X043127Y015970D01*
X043127Y015999D02*
X043247Y015999D01*
X043247Y016028D02*
X043127Y016028D01*
X043127Y016057D02*
X043247Y016057D01*
X043247Y016086D02*
X043127Y016086D01*
X043127Y016115D02*
X043247Y016115D01*
X043247Y016144D02*
X043127Y016144D01*
X043127Y016173D02*
X043247Y016173D01*
X043247Y016202D02*
X043127Y016202D01*
X043127Y016231D02*
X043247Y016231D01*
X043247Y016260D02*
X043127Y016260D01*
X043127Y016289D02*
X043247Y016289D01*
X043247Y016318D02*
X043127Y016318D01*
X043127Y016347D02*
X043247Y016347D01*
X042992Y016356D02*
X042872Y016356D01*
X042992Y016356D02*
X042992Y015796D01*
X042872Y015796D01*
X042872Y016356D01*
X042872Y015825D02*
X042992Y015825D01*
X042992Y015854D02*
X042872Y015854D01*
X042872Y015883D02*
X042992Y015883D01*
X042992Y015912D02*
X042872Y015912D01*
X042872Y015941D02*
X042992Y015941D01*
X042992Y015970D02*
X042872Y015970D01*
X042872Y015999D02*
X042992Y015999D01*
X042992Y016028D02*
X042872Y016028D01*
X042872Y016057D02*
X042992Y016057D01*
X042992Y016086D02*
X042872Y016086D01*
X042872Y016115D02*
X042992Y016115D01*
X042992Y016144D02*
X042872Y016144D01*
X042872Y016173D02*
X042992Y016173D01*
X042992Y016202D02*
X042872Y016202D01*
X042872Y016231D02*
X042992Y016231D01*
X042992Y016260D02*
X042872Y016260D01*
X042872Y016289D02*
X042992Y016289D01*
X042992Y016318D02*
X042872Y016318D01*
X042872Y016347D02*
X042992Y016347D01*
X042736Y016356D02*
X042616Y016356D01*
X042736Y016356D02*
X042736Y015796D01*
X042616Y015796D01*
X042616Y016356D01*
X042616Y015825D02*
X042736Y015825D01*
X042736Y015854D02*
X042616Y015854D01*
X042616Y015883D02*
X042736Y015883D01*
X042736Y015912D02*
X042616Y015912D01*
X042616Y015941D02*
X042736Y015941D01*
X042736Y015970D02*
X042616Y015970D01*
X042616Y015999D02*
X042736Y015999D01*
X042736Y016028D02*
X042616Y016028D01*
X042616Y016057D02*
X042736Y016057D01*
X042736Y016086D02*
X042616Y016086D01*
X042616Y016115D02*
X042736Y016115D01*
X042736Y016144D02*
X042616Y016144D01*
X042616Y016173D02*
X042736Y016173D01*
X042736Y016202D02*
X042616Y016202D01*
X042616Y016231D02*
X042736Y016231D01*
X042736Y016260D02*
X042616Y016260D01*
X042616Y016289D02*
X042736Y016289D01*
X042736Y016318D02*
X042616Y016318D01*
X042616Y016347D02*
X042736Y016347D01*
X042480Y016356D02*
X042360Y016356D01*
X042480Y016356D02*
X042480Y015796D01*
X042360Y015796D01*
X042360Y016356D01*
X042360Y015825D02*
X042480Y015825D01*
X042480Y015854D02*
X042360Y015854D01*
X042360Y015883D02*
X042480Y015883D01*
X042480Y015912D02*
X042360Y015912D01*
X042360Y015941D02*
X042480Y015941D01*
X042480Y015970D02*
X042360Y015970D01*
X042360Y015999D02*
X042480Y015999D01*
X042480Y016028D02*
X042360Y016028D01*
X042360Y016057D02*
X042480Y016057D01*
X042480Y016086D02*
X042360Y016086D01*
X042360Y016115D02*
X042480Y016115D01*
X042480Y016144D02*
X042360Y016144D01*
X042360Y016173D02*
X042480Y016173D01*
X042480Y016202D02*
X042360Y016202D01*
X042360Y016231D02*
X042480Y016231D01*
X042480Y016260D02*
X042360Y016260D01*
X042360Y016289D02*
X042480Y016289D01*
X042480Y016318D02*
X042360Y016318D01*
X042360Y016347D02*
X042480Y016347D01*
X042224Y016356D02*
X042104Y016356D01*
X042224Y016356D02*
X042224Y015796D01*
X042104Y015796D01*
X042104Y016356D01*
X042104Y015825D02*
X042224Y015825D01*
X042224Y015854D02*
X042104Y015854D01*
X042104Y015883D02*
X042224Y015883D01*
X042224Y015912D02*
X042104Y015912D01*
X042104Y015941D02*
X042224Y015941D01*
X042224Y015970D02*
X042104Y015970D01*
X042104Y015999D02*
X042224Y015999D01*
X042224Y016028D02*
X042104Y016028D01*
X042104Y016057D02*
X042224Y016057D01*
X042224Y016086D02*
X042104Y016086D01*
X042104Y016115D02*
X042224Y016115D01*
X042224Y016144D02*
X042104Y016144D01*
X042104Y016173D02*
X042224Y016173D01*
X042224Y016202D02*
X042104Y016202D01*
X042104Y016231D02*
X042224Y016231D01*
X042224Y016260D02*
X042104Y016260D01*
X042104Y016289D02*
X042224Y016289D01*
X042224Y016318D02*
X042104Y016318D01*
X042104Y016347D02*
X042224Y016347D01*
X041968Y016356D02*
X041848Y016356D01*
X041968Y016356D02*
X041968Y015796D01*
X041848Y015796D01*
X041848Y016356D01*
X041848Y015825D02*
X041968Y015825D01*
X041968Y015854D02*
X041848Y015854D01*
X041848Y015883D02*
X041968Y015883D01*
X041968Y015912D02*
X041848Y015912D01*
X041848Y015941D02*
X041968Y015941D01*
X041968Y015970D02*
X041848Y015970D01*
X041848Y015999D02*
X041968Y015999D01*
X041968Y016028D02*
X041848Y016028D01*
X041848Y016057D02*
X041968Y016057D01*
X041968Y016086D02*
X041848Y016086D01*
X041848Y016115D02*
X041968Y016115D01*
X041968Y016144D02*
X041848Y016144D01*
X041848Y016173D02*
X041968Y016173D01*
X041968Y016202D02*
X041848Y016202D01*
X041848Y016231D02*
X041968Y016231D01*
X041968Y016260D02*
X041848Y016260D01*
X041848Y016289D02*
X041968Y016289D01*
X041968Y016318D02*
X041848Y016318D01*
X041848Y016347D02*
X041968Y016347D01*
X041712Y016356D02*
X041592Y016356D01*
X041712Y016356D02*
X041712Y015796D01*
X041592Y015796D01*
X041592Y016356D01*
X041592Y015825D02*
X041712Y015825D01*
X041712Y015854D02*
X041592Y015854D01*
X041592Y015883D02*
X041712Y015883D01*
X041712Y015912D02*
X041592Y015912D01*
X041592Y015941D02*
X041712Y015941D01*
X041712Y015970D02*
X041592Y015970D01*
X041592Y015999D02*
X041712Y015999D01*
X041712Y016028D02*
X041592Y016028D01*
X041592Y016057D02*
X041712Y016057D01*
X041712Y016086D02*
X041592Y016086D01*
X041592Y016115D02*
X041712Y016115D01*
X041712Y016144D02*
X041592Y016144D01*
X041592Y016173D02*
X041712Y016173D01*
X041712Y016202D02*
X041592Y016202D01*
X041592Y016231D02*
X041712Y016231D01*
X041712Y016260D02*
X041592Y016260D01*
X041592Y016289D02*
X041712Y016289D01*
X041712Y016318D02*
X041592Y016318D01*
X041592Y016347D02*
X041712Y016347D01*
X041456Y016356D02*
X041336Y016356D01*
X041456Y016356D02*
X041456Y015796D01*
X041336Y015796D01*
X041336Y016356D01*
X041336Y015825D02*
X041456Y015825D01*
X041456Y015854D02*
X041336Y015854D01*
X041336Y015883D02*
X041456Y015883D01*
X041456Y015912D02*
X041336Y015912D01*
X041336Y015941D02*
X041456Y015941D01*
X041456Y015970D02*
X041336Y015970D01*
X041336Y015999D02*
X041456Y015999D01*
X041456Y016028D02*
X041336Y016028D01*
X041336Y016057D02*
X041456Y016057D01*
X041456Y016086D02*
X041336Y016086D01*
X041336Y016115D02*
X041456Y016115D01*
X041456Y016144D02*
X041336Y016144D01*
X041336Y016173D02*
X041456Y016173D01*
X041456Y016202D02*
X041336Y016202D01*
X041336Y016231D02*
X041456Y016231D01*
X041456Y016260D02*
X041336Y016260D01*
X041336Y016289D02*
X041456Y016289D01*
X041456Y016318D02*
X041336Y016318D01*
X041336Y016347D02*
X041456Y016347D01*
X041200Y016356D02*
X041080Y016356D01*
X041200Y016356D02*
X041200Y015796D01*
X041080Y015796D01*
X041080Y016356D01*
X041080Y015825D02*
X041200Y015825D01*
X041200Y015854D02*
X041080Y015854D01*
X041080Y015883D02*
X041200Y015883D01*
X041200Y015912D02*
X041080Y015912D01*
X041080Y015941D02*
X041200Y015941D01*
X041200Y015970D02*
X041080Y015970D01*
X041080Y015999D02*
X041200Y015999D01*
X041200Y016028D02*
X041080Y016028D01*
X041080Y016057D02*
X041200Y016057D01*
X041200Y016086D02*
X041080Y016086D01*
X041080Y016115D02*
X041200Y016115D01*
X041200Y016144D02*
X041080Y016144D01*
X041080Y016173D02*
X041200Y016173D01*
X041200Y016202D02*
X041080Y016202D01*
X041080Y016231D02*
X041200Y016231D01*
X041200Y016260D02*
X041080Y016260D01*
X041080Y016289D02*
X041200Y016289D01*
X041200Y016318D02*
X041080Y016318D01*
X041080Y016347D02*
X041200Y016347D01*
X040944Y016356D02*
X040824Y016356D01*
X040944Y016356D02*
X040944Y015796D01*
X040824Y015796D01*
X040824Y016356D01*
X040824Y015825D02*
X040944Y015825D01*
X040944Y015854D02*
X040824Y015854D01*
X040824Y015883D02*
X040944Y015883D01*
X040944Y015912D02*
X040824Y015912D01*
X040824Y015941D02*
X040944Y015941D01*
X040944Y015970D02*
X040824Y015970D01*
X040824Y015999D02*
X040944Y015999D01*
X040944Y016028D02*
X040824Y016028D01*
X040824Y016057D02*
X040944Y016057D01*
X040944Y016086D02*
X040824Y016086D01*
X040824Y016115D02*
X040944Y016115D01*
X040944Y016144D02*
X040824Y016144D01*
X040824Y016173D02*
X040944Y016173D01*
X040944Y016202D02*
X040824Y016202D01*
X040824Y016231D02*
X040944Y016231D01*
X040944Y016260D02*
X040824Y016260D01*
X040824Y016289D02*
X040944Y016289D01*
X040944Y016318D02*
X040824Y016318D01*
X040824Y016347D02*
X040944Y016347D01*
X040688Y016356D02*
X040568Y016356D01*
X040688Y016356D02*
X040688Y015796D01*
X040568Y015796D01*
X040568Y016356D01*
X040568Y015825D02*
X040688Y015825D01*
X040688Y015854D02*
X040568Y015854D01*
X040568Y015883D02*
X040688Y015883D01*
X040688Y015912D02*
X040568Y015912D01*
X040568Y015941D02*
X040688Y015941D01*
X040688Y015970D02*
X040568Y015970D01*
X040568Y015999D02*
X040688Y015999D01*
X040688Y016028D02*
X040568Y016028D01*
X040568Y016057D02*
X040688Y016057D01*
X040688Y016086D02*
X040568Y016086D01*
X040568Y016115D02*
X040688Y016115D01*
X040688Y016144D02*
X040568Y016144D01*
X040568Y016173D02*
X040688Y016173D01*
X040688Y016202D02*
X040568Y016202D01*
X040568Y016231D02*
X040688Y016231D01*
X040688Y016260D02*
X040568Y016260D01*
X040568Y016289D02*
X040688Y016289D01*
X040688Y016318D02*
X040568Y016318D01*
X040568Y016347D02*
X040688Y016347D01*
X040433Y016356D02*
X040313Y016356D01*
X040433Y016356D02*
X040433Y015796D01*
X040313Y015796D01*
X040313Y016356D01*
X040313Y015825D02*
X040433Y015825D01*
X040433Y015854D02*
X040313Y015854D01*
X040313Y015883D02*
X040433Y015883D01*
X040433Y015912D02*
X040313Y015912D01*
X040313Y015941D02*
X040433Y015941D01*
X040433Y015970D02*
X040313Y015970D01*
X040313Y015999D02*
X040433Y015999D01*
X040433Y016028D02*
X040313Y016028D01*
X040313Y016057D02*
X040433Y016057D01*
X040433Y016086D02*
X040313Y016086D01*
X040313Y016115D02*
X040433Y016115D01*
X040433Y016144D02*
X040313Y016144D01*
X040313Y016173D02*
X040433Y016173D01*
X040433Y016202D02*
X040313Y016202D01*
X040313Y016231D02*
X040433Y016231D01*
X040433Y016260D02*
X040313Y016260D01*
X040313Y016289D02*
X040433Y016289D01*
X040433Y016318D02*
X040313Y016318D01*
X040313Y016347D02*
X040433Y016347D01*
X040177Y016356D02*
X040057Y016356D01*
X040177Y016356D02*
X040177Y015796D01*
X040057Y015796D01*
X040057Y016356D01*
X040057Y015825D02*
X040177Y015825D01*
X040177Y015854D02*
X040057Y015854D01*
X040057Y015883D02*
X040177Y015883D01*
X040177Y015912D02*
X040057Y015912D01*
X040057Y015941D02*
X040177Y015941D01*
X040177Y015970D02*
X040057Y015970D01*
X040057Y015999D02*
X040177Y015999D01*
X040177Y016028D02*
X040057Y016028D01*
X040057Y016057D02*
X040177Y016057D01*
X040177Y016086D02*
X040057Y016086D01*
X040057Y016115D02*
X040177Y016115D01*
X040177Y016144D02*
X040057Y016144D01*
X040057Y016173D02*
X040177Y016173D01*
X040177Y016202D02*
X040057Y016202D01*
X040057Y016231D02*
X040177Y016231D01*
X040177Y016260D02*
X040057Y016260D01*
X040057Y016289D02*
X040177Y016289D01*
X040177Y016318D02*
X040057Y016318D01*
X040057Y016347D02*
X040177Y016347D01*
X040177Y013502D02*
X040057Y013502D01*
X040177Y013502D02*
X040177Y012942D01*
X040057Y012942D01*
X040057Y013502D01*
X040057Y012971D02*
X040177Y012971D01*
X040177Y013000D02*
X040057Y013000D01*
X040057Y013029D02*
X040177Y013029D01*
X040177Y013058D02*
X040057Y013058D01*
X040057Y013087D02*
X040177Y013087D01*
X040177Y013116D02*
X040057Y013116D01*
X040057Y013145D02*
X040177Y013145D01*
X040177Y013174D02*
X040057Y013174D01*
X040057Y013203D02*
X040177Y013203D01*
X040177Y013232D02*
X040057Y013232D01*
X040057Y013261D02*
X040177Y013261D01*
X040177Y013290D02*
X040057Y013290D01*
X040057Y013319D02*
X040177Y013319D01*
X040177Y013348D02*
X040057Y013348D01*
X040057Y013377D02*
X040177Y013377D01*
X040177Y013406D02*
X040057Y013406D01*
X040057Y013435D02*
X040177Y013435D01*
X040177Y013464D02*
X040057Y013464D01*
X040057Y013493D02*
X040177Y013493D01*
X040313Y013502D02*
X040433Y013502D01*
X040433Y012942D01*
X040313Y012942D01*
X040313Y013502D01*
X040313Y012971D02*
X040433Y012971D01*
X040433Y013000D02*
X040313Y013000D01*
X040313Y013029D02*
X040433Y013029D01*
X040433Y013058D02*
X040313Y013058D01*
X040313Y013087D02*
X040433Y013087D01*
X040433Y013116D02*
X040313Y013116D01*
X040313Y013145D02*
X040433Y013145D01*
X040433Y013174D02*
X040313Y013174D01*
X040313Y013203D02*
X040433Y013203D01*
X040433Y013232D02*
X040313Y013232D01*
X040313Y013261D02*
X040433Y013261D01*
X040433Y013290D02*
X040313Y013290D01*
X040313Y013319D02*
X040433Y013319D01*
X040433Y013348D02*
X040313Y013348D01*
X040313Y013377D02*
X040433Y013377D01*
X040433Y013406D02*
X040313Y013406D01*
X040313Y013435D02*
X040433Y013435D01*
X040433Y013464D02*
X040313Y013464D01*
X040313Y013493D02*
X040433Y013493D01*
X040568Y013502D02*
X040688Y013502D01*
X040688Y012942D01*
X040568Y012942D01*
X040568Y013502D01*
X040568Y012971D02*
X040688Y012971D01*
X040688Y013000D02*
X040568Y013000D01*
X040568Y013029D02*
X040688Y013029D01*
X040688Y013058D02*
X040568Y013058D01*
X040568Y013087D02*
X040688Y013087D01*
X040688Y013116D02*
X040568Y013116D01*
X040568Y013145D02*
X040688Y013145D01*
X040688Y013174D02*
X040568Y013174D01*
X040568Y013203D02*
X040688Y013203D01*
X040688Y013232D02*
X040568Y013232D01*
X040568Y013261D02*
X040688Y013261D01*
X040688Y013290D02*
X040568Y013290D01*
X040568Y013319D02*
X040688Y013319D01*
X040688Y013348D02*
X040568Y013348D01*
X040568Y013377D02*
X040688Y013377D01*
X040688Y013406D02*
X040568Y013406D01*
X040568Y013435D02*
X040688Y013435D01*
X040688Y013464D02*
X040568Y013464D01*
X040568Y013493D02*
X040688Y013493D01*
X040824Y013502D02*
X040944Y013502D01*
X040944Y012942D01*
X040824Y012942D01*
X040824Y013502D01*
X040824Y012971D02*
X040944Y012971D01*
X040944Y013000D02*
X040824Y013000D01*
X040824Y013029D02*
X040944Y013029D01*
X040944Y013058D02*
X040824Y013058D01*
X040824Y013087D02*
X040944Y013087D01*
X040944Y013116D02*
X040824Y013116D01*
X040824Y013145D02*
X040944Y013145D01*
X040944Y013174D02*
X040824Y013174D01*
X040824Y013203D02*
X040944Y013203D01*
X040944Y013232D02*
X040824Y013232D01*
X040824Y013261D02*
X040944Y013261D01*
X040944Y013290D02*
X040824Y013290D01*
X040824Y013319D02*
X040944Y013319D01*
X040944Y013348D02*
X040824Y013348D01*
X040824Y013377D02*
X040944Y013377D01*
X040944Y013406D02*
X040824Y013406D01*
X040824Y013435D02*
X040944Y013435D01*
X040944Y013464D02*
X040824Y013464D01*
X040824Y013493D02*
X040944Y013493D01*
X041080Y013502D02*
X041200Y013502D01*
X041200Y012942D01*
X041080Y012942D01*
X041080Y013502D01*
X041080Y012971D02*
X041200Y012971D01*
X041200Y013000D02*
X041080Y013000D01*
X041080Y013029D02*
X041200Y013029D01*
X041200Y013058D02*
X041080Y013058D01*
X041080Y013087D02*
X041200Y013087D01*
X041200Y013116D02*
X041080Y013116D01*
X041080Y013145D02*
X041200Y013145D01*
X041200Y013174D02*
X041080Y013174D01*
X041080Y013203D02*
X041200Y013203D01*
X041200Y013232D02*
X041080Y013232D01*
X041080Y013261D02*
X041200Y013261D01*
X041200Y013290D02*
X041080Y013290D01*
X041080Y013319D02*
X041200Y013319D01*
X041200Y013348D02*
X041080Y013348D01*
X041080Y013377D02*
X041200Y013377D01*
X041200Y013406D02*
X041080Y013406D01*
X041080Y013435D02*
X041200Y013435D01*
X041200Y013464D02*
X041080Y013464D01*
X041080Y013493D02*
X041200Y013493D01*
X041336Y013502D02*
X041456Y013502D01*
X041456Y012942D01*
X041336Y012942D01*
X041336Y013502D01*
X041336Y012971D02*
X041456Y012971D01*
X041456Y013000D02*
X041336Y013000D01*
X041336Y013029D02*
X041456Y013029D01*
X041456Y013058D02*
X041336Y013058D01*
X041336Y013087D02*
X041456Y013087D01*
X041456Y013116D02*
X041336Y013116D01*
X041336Y013145D02*
X041456Y013145D01*
X041456Y013174D02*
X041336Y013174D01*
X041336Y013203D02*
X041456Y013203D01*
X041456Y013232D02*
X041336Y013232D01*
X041336Y013261D02*
X041456Y013261D01*
X041456Y013290D02*
X041336Y013290D01*
X041336Y013319D02*
X041456Y013319D01*
X041456Y013348D02*
X041336Y013348D01*
X041336Y013377D02*
X041456Y013377D01*
X041456Y013406D02*
X041336Y013406D01*
X041336Y013435D02*
X041456Y013435D01*
X041456Y013464D02*
X041336Y013464D01*
X041336Y013493D02*
X041456Y013493D01*
X041592Y013502D02*
X041712Y013502D01*
X041712Y012942D01*
X041592Y012942D01*
X041592Y013502D01*
X041592Y012971D02*
X041712Y012971D01*
X041712Y013000D02*
X041592Y013000D01*
X041592Y013029D02*
X041712Y013029D01*
X041712Y013058D02*
X041592Y013058D01*
X041592Y013087D02*
X041712Y013087D01*
X041712Y013116D02*
X041592Y013116D01*
X041592Y013145D02*
X041712Y013145D01*
X041712Y013174D02*
X041592Y013174D01*
X041592Y013203D02*
X041712Y013203D01*
X041712Y013232D02*
X041592Y013232D01*
X041592Y013261D02*
X041712Y013261D01*
X041712Y013290D02*
X041592Y013290D01*
X041592Y013319D02*
X041712Y013319D01*
X041712Y013348D02*
X041592Y013348D01*
X041592Y013377D02*
X041712Y013377D01*
X041712Y013406D02*
X041592Y013406D01*
X041592Y013435D02*
X041712Y013435D01*
X041712Y013464D02*
X041592Y013464D01*
X041592Y013493D02*
X041712Y013493D01*
X041848Y013502D02*
X041968Y013502D01*
X041968Y012942D01*
X041848Y012942D01*
X041848Y013502D01*
X041848Y012971D02*
X041968Y012971D01*
X041968Y013000D02*
X041848Y013000D01*
X041848Y013029D02*
X041968Y013029D01*
X041968Y013058D02*
X041848Y013058D01*
X041848Y013087D02*
X041968Y013087D01*
X041968Y013116D02*
X041848Y013116D01*
X041848Y013145D02*
X041968Y013145D01*
X041968Y013174D02*
X041848Y013174D01*
X041848Y013203D02*
X041968Y013203D01*
X041968Y013232D02*
X041848Y013232D01*
X041848Y013261D02*
X041968Y013261D01*
X041968Y013290D02*
X041848Y013290D01*
X041848Y013319D02*
X041968Y013319D01*
X041968Y013348D02*
X041848Y013348D01*
X041848Y013377D02*
X041968Y013377D01*
X041968Y013406D02*
X041848Y013406D01*
X041848Y013435D02*
X041968Y013435D01*
X041968Y013464D02*
X041848Y013464D01*
X041848Y013493D02*
X041968Y013493D01*
X042104Y013502D02*
X042224Y013502D01*
X042224Y012942D01*
X042104Y012942D01*
X042104Y013502D01*
X042104Y012971D02*
X042224Y012971D01*
X042224Y013000D02*
X042104Y013000D01*
X042104Y013029D02*
X042224Y013029D01*
X042224Y013058D02*
X042104Y013058D01*
X042104Y013087D02*
X042224Y013087D01*
X042224Y013116D02*
X042104Y013116D01*
X042104Y013145D02*
X042224Y013145D01*
X042224Y013174D02*
X042104Y013174D01*
X042104Y013203D02*
X042224Y013203D01*
X042224Y013232D02*
X042104Y013232D01*
X042104Y013261D02*
X042224Y013261D01*
X042224Y013290D02*
X042104Y013290D01*
X042104Y013319D02*
X042224Y013319D01*
X042224Y013348D02*
X042104Y013348D01*
X042104Y013377D02*
X042224Y013377D01*
X042224Y013406D02*
X042104Y013406D01*
X042104Y013435D02*
X042224Y013435D01*
X042224Y013464D02*
X042104Y013464D01*
X042104Y013493D02*
X042224Y013493D01*
X042360Y013502D02*
X042480Y013502D01*
X042480Y012942D01*
X042360Y012942D01*
X042360Y013502D01*
X042360Y012971D02*
X042480Y012971D01*
X042480Y013000D02*
X042360Y013000D01*
X042360Y013029D02*
X042480Y013029D01*
X042480Y013058D02*
X042360Y013058D01*
X042360Y013087D02*
X042480Y013087D01*
X042480Y013116D02*
X042360Y013116D01*
X042360Y013145D02*
X042480Y013145D01*
X042480Y013174D02*
X042360Y013174D01*
X042360Y013203D02*
X042480Y013203D01*
X042480Y013232D02*
X042360Y013232D01*
X042360Y013261D02*
X042480Y013261D01*
X042480Y013290D02*
X042360Y013290D01*
X042360Y013319D02*
X042480Y013319D01*
X042480Y013348D02*
X042360Y013348D01*
X042360Y013377D02*
X042480Y013377D01*
X042480Y013406D02*
X042360Y013406D01*
X042360Y013435D02*
X042480Y013435D01*
X042480Y013464D02*
X042360Y013464D01*
X042360Y013493D02*
X042480Y013493D01*
X042616Y013502D02*
X042736Y013502D01*
X042736Y012942D01*
X042616Y012942D01*
X042616Y013502D01*
X042616Y012971D02*
X042736Y012971D01*
X042736Y013000D02*
X042616Y013000D01*
X042616Y013029D02*
X042736Y013029D01*
X042736Y013058D02*
X042616Y013058D01*
X042616Y013087D02*
X042736Y013087D01*
X042736Y013116D02*
X042616Y013116D01*
X042616Y013145D02*
X042736Y013145D01*
X042736Y013174D02*
X042616Y013174D01*
X042616Y013203D02*
X042736Y013203D01*
X042736Y013232D02*
X042616Y013232D01*
X042616Y013261D02*
X042736Y013261D01*
X042736Y013290D02*
X042616Y013290D01*
X042616Y013319D02*
X042736Y013319D01*
X042736Y013348D02*
X042616Y013348D01*
X042616Y013377D02*
X042736Y013377D01*
X042736Y013406D02*
X042616Y013406D01*
X042616Y013435D02*
X042736Y013435D01*
X042736Y013464D02*
X042616Y013464D01*
X042616Y013493D02*
X042736Y013493D01*
X042872Y013502D02*
X042992Y013502D01*
X042992Y012942D01*
X042872Y012942D01*
X042872Y013502D01*
X042872Y012971D02*
X042992Y012971D01*
X042992Y013000D02*
X042872Y013000D01*
X042872Y013029D02*
X042992Y013029D01*
X042992Y013058D02*
X042872Y013058D01*
X042872Y013087D02*
X042992Y013087D01*
X042992Y013116D02*
X042872Y013116D01*
X042872Y013145D02*
X042992Y013145D01*
X042992Y013174D02*
X042872Y013174D01*
X042872Y013203D02*
X042992Y013203D01*
X042992Y013232D02*
X042872Y013232D01*
X042872Y013261D02*
X042992Y013261D01*
X042992Y013290D02*
X042872Y013290D01*
X042872Y013319D02*
X042992Y013319D01*
X042992Y013348D02*
X042872Y013348D01*
X042872Y013377D02*
X042992Y013377D01*
X042992Y013406D02*
X042872Y013406D01*
X042872Y013435D02*
X042992Y013435D01*
X042992Y013464D02*
X042872Y013464D01*
X042872Y013493D02*
X042992Y013493D01*
X043127Y013502D02*
X043247Y013502D01*
X043247Y012942D01*
X043127Y012942D01*
X043127Y013502D01*
X043127Y012971D02*
X043247Y012971D01*
X043247Y013000D02*
X043127Y013000D01*
X043127Y013029D02*
X043247Y013029D01*
X043247Y013058D02*
X043127Y013058D01*
X043127Y013087D02*
X043247Y013087D01*
X043247Y013116D02*
X043127Y013116D01*
X043127Y013145D02*
X043247Y013145D01*
X043247Y013174D02*
X043127Y013174D01*
X043127Y013203D02*
X043247Y013203D01*
X043247Y013232D02*
X043127Y013232D01*
X043127Y013261D02*
X043247Y013261D01*
X043247Y013290D02*
X043127Y013290D01*
X043127Y013319D02*
X043247Y013319D01*
X043247Y013348D02*
X043127Y013348D01*
X043127Y013377D02*
X043247Y013377D01*
X043247Y013406D02*
X043127Y013406D01*
X043127Y013435D02*
X043247Y013435D01*
X043247Y013464D02*
X043127Y013464D01*
X043127Y013493D02*
X043247Y013493D01*
X043383Y013502D02*
X043503Y013502D01*
X043503Y012942D01*
X043383Y012942D01*
X043383Y013502D01*
X043383Y012971D02*
X043503Y012971D01*
X043503Y013000D02*
X043383Y013000D01*
X043383Y013029D02*
X043503Y013029D01*
X043503Y013058D02*
X043383Y013058D01*
X043383Y013087D02*
X043503Y013087D01*
X043503Y013116D02*
X043383Y013116D01*
X043383Y013145D02*
X043503Y013145D01*
X043503Y013174D02*
X043383Y013174D01*
X043383Y013203D02*
X043503Y013203D01*
X043503Y013232D02*
X043383Y013232D01*
X043383Y013261D02*
X043503Y013261D01*
X043503Y013290D02*
X043383Y013290D01*
X043383Y013319D02*
X043503Y013319D01*
X043503Y013348D02*
X043383Y013348D01*
X043383Y013377D02*
X043503Y013377D01*
X043503Y013406D02*
X043383Y013406D01*
X043383Y013435D02*
X043503Y013435D01*
X043503Y013464D02*
X043383Y013464D01*
X043383Y013493D02*
X043503Y013493D01*
D30*
X035621Y035899D03*
X034439Y035899D03*
D31*
X038117Y013149D03*
X038943Y013149D03*
X038943Y011399D03*
X038117Y011399D03*
X041280Y009312D03*
X041280Y008486D03*
D32*
X041500Y019249D03*
X041500Y023049D03*
D33*
X013530Y022799D03*
X009530Y022799D03*
X009530Y017999D03*
X010530Y017999D03*
X012530Y017999D03*
X013530Y017999D03*
D34*
G36*
X033675Y023079D02*
X033753Y023001D01*
X033407Y022655D01*
X033329Y022733D01*
X033675Y023079D01*
G37*
G36*
X033753Y023257D02*
X033675Y023179D01*
X033329Y023525D01*
X033407Y023603D01*
X033753Y023257D01*
G37*
G36*
X033887Y023391D02*
X033809Y023313D01*
X033463Y023659D01*
X033541Y023737D01*
X033887Y023391D01*
G37*
G36*
X034029Y023532D02*
X033951Y023454D01*
X033605Y023800D01*
X033683Y023878D01*
X034029Y023532D01*
G37*
G36*
X034170Y023674D02*
X034092Y023596D01*
X033746Y023942D01*
X033824Y024020D01*
X034170Y023674D01*
G37*
G36*
X034305Y023808D02*
X034227Y023730D01*
X033881Y024076D01*
X033959Y024154D01*
X034305Y023808D01*
G37*
G36*
X034446Y023950D02*
X034368Y023872D01*
X034022Y024218D01*
X034100Y024296D01*
X034446Y023950D01*
G37*
G36*
X034587Y024091D02*
X034509Y024013D01*
X034163Y024359D01*
X034241Y024437D01*
X034587Y024091D01*
G37*
G36*
X034729Y024232D02*
X034651Y024154D01*
X034305Y024500D01*
X034383Y024578D01*
X034729Y024232D01*
G37*
G36*
X034863Y024367D02*
X034785Y024289D01*
X034439Y024635D01*
X034517Y024713D01*
X034863Y024367D01*
G37*
G36*
X035005Y024508D02*
X034927Y024430D01*
X034581Y024776D01*
X034659Y024854D01*
X035005Y024508D01*
G37*
G36*
X035146Y024650D02*
X035068Y024572D01*
X034722Y024918D01*
X034800Y024996D01*
X035146Y024650D01*
G37*
G36*
X035280Y024784D02*
X035202Y024706D01*
X034856Y025052D01*
X034934Y025130D01*
X035280Y024784D01*
G37*
G36*
X035726Y025130D02*
X035804Y025052D01*
X035458Y024706D01*
X035380Y024784D01*
X035726Y025130D01*
G37*
G36*
X035860Y024996D02*
X035938Y024918D01*
X035592Y024572D01*
X035514Y024650D01*
X035860Y024996D01*
G37*
G36*
X036001Y024854D02*
X036079Y024776D01*
X035733Y024430D01*
X035655Y024508D01*
X036001Y024854D01*
G37*
G36*
X036143Y024713D02*
X036221Y024635D01*
X035875Y024289D01*
X035797Y024367D01*
X036143Y024713D01*
G37*
G36*
X036277Y024578D02*
X036355Y024500D01*
X036009Y024154D01*
X035931Y024232D01*
X036277Y024578D01*
G37*
G36*
X036419Y024437D02*
X036497Y024359D01*
X036151Y024013D01*
X036073Y024091D01*
X036419Y024437D01*
G37*
G36*
X036560Y024296D02*
X036638Y024218D01*
X036292Y023872D01*
X036214Y023950D01*
X036560Y024296D01*
G37*
G36*
X036701Y024154D02*
X036779Y024076D01*
X036433Y023730D01*
X036355Y023808D01*
X036701Y024154D01*
G37*
G36*
X036836Y024020D02*
X036914Y023942D01*
X036568Y023596D01*
X036490Y023674D01*
X036836Y024020D01*
G37*
G36*
X036977Y023878D02*
X037055Y023800D01*
X036709Y023454D01*
X036631Y023532D01*
X036977Y023878D01*
G37*
G36*
X037119Y023737D02*
X037197Y023659D01*
X036851Y023313D01*
X036773Y023391D01*
X037119Y023737D01*
G37*
G36*
X037253Y023603D02*
X037331Y023525D01*
X036985Y023179D01*
X036907Y023257D01*
X037253Y023603D01*
G37*
G36*
X037331Y022733D02*
X037253Y022655D01*
X036907Y023001D01*
X036985Y023079D01*
X037331Y022733D01*
G37*
G36*
X037197Y022599D02*
X037119Y022521D01*
X036773Y022867D01*
X036851Y022945D01*
X037197Y022599D01*
G37*
G36*
X037055Y022458D02*
X036977Y022380D01*
X036631Y022726D01*
X036709Y022804D01*
X037055Y022458D01*
G37*
G36*
X036914Y022316D02*
X036836Y022238D01*
X036490Y022584D01*
X036568Y022662D01*
X036914Y022316D01*
G37*
G36*
X036779Y022182D02*
X036701Y022104D01*
X036355Y022450D01*
X036433Y022528D01*
X036779Y022182D01*
G37*
G36*
X036638Y022040D02*
X036560Y021962D01*
X036214Y022308D01*
X036292Y022386D01*
X036638Y022040D01*
G37*
G36*
X036497Y021899D02*
X036419Y021821D01*
X036073Y022167D01*
X036151Y022245D01*
X036497Y021899D01*
G37*
G36*
X036355Y021758D02*
X036277Y021680D01*
X035931Y022026D01*
X036009Y022104D01*
X036355Y021758D01*
G37*
G36*
X036221Y021623D02*
X036143Y021545D01*
X035797Y021891D01*
X035875Y021969D01*
X036221Y021623D01*
G37*
G36*
X036079Y021482D02*
X036001Y021404D01*
X035655Y021750D01*
X035733Y021828D01*
X036079Y021482D01*
G37*
G36*
X035938Y021340D02*
X035860Y021262D01*
X035514Y021608D01*
X035592Y021686D01*
X035938Y021340D01*
G37*
G36*
X035804Y021206D02*
X035726Y021128D01*
X035380Y021474D01*
X035458Y021552D01*
X035804Y021206D01*
G37*
G36*
X035202Y021552D02*
X035280Y021474D01*
X034934Y021128D01*
X034856Y021206D01*
X035202Y021552D01*
G37*
G36*
X035068Y021686D02*
X035146Y021608D01*
X034800Y021262D01*
X034722Y021340D01*
X035068Y021686D01*
G37*
G36*
X034927Y021828D02*
X035005Y021750D01*
X034659Y021404D01*
X034581Y021482D01*
X034927Y021828D01*
G37*
G36*
X034785Y021969D02*
X034863Y021891D01*
X034517Y021545D01*
X034439Y021623D01*
X034785Y021969D01*
G37*
G36*
X034651Y022104D02*
X034729Y022026D01*
X034383Y021680D01*
X034305Y021758D01*
X034651Y022104D01*
G37*
G36*
X034509Y022245D02*
X034587Y022167D01*
X034241Y021821D01*
X034163Y021899D01*
X034509Y022245D01*
G37*
G36*
X034368Y022386D02*
X034446Y022308D01*
X034100Y021962D01*
X034022Y022040D01*
X034368Y022386D01*
G37*
G36*
X034227Y022528D02*
X034305Y022450D01*
X033959Y022104D01*
X033881Y022182D01*
X034227Y022528D01*
G37*
G36*
X034092Y022662D02*
X034170Y022584D01*
X033824Y022238D01*
X033746Y022316D01*
X034092Y022662D01*
G37*
G36*
X033951Y022804D02*
X034029Y022726D01*
X033683Y022380D01*
X033605Y022458D01*
X033951Y022804D01*
G37*
G36*
X033809Y022945D02*
X033887Y022867D01*
X033541Y022521D01*
X033463Y022599D01*
X033809Y022945D01*
G37*
D35*
G36*
X033895Y023129D02*
X035330Y024564D01*
X036765Y023129D01*
X035330Y021694D01*
X033895Y023129D01*
G37*
D36*
X019404Y024387D03*
X019030Y024387D03*
X018656Y024387D03*
X018656Y025411D03*
X019404Y025411D03*
D37*
X009682Y015001D03*
X009426Y015001D03*
X009170Y015001D03*
X008914Y015001D03*
X008658Y015001D03*
X008402Y015001D03*
X008146Y015001D03*
X007890Y015001D03*
X007634Y015001D03*
X007378Y015001D03*
X007378Y012797D03*
X007634Y012797D03*
X007890Y012797D03*
X008146Y012797D03*
X008402Y012797D03*
X008658Y012797D03*
X008914Y012797D03*
X009170Y012797D03*
X009426Y012797D03*
X009682Y012797D03*
D38*
X008530Y013899D03*
D39*
X021030Y017899D03*
X021030Y018399D03*
X021030Y018899D03*
X021030Y019399D03*
X021030Y019899D03*
X021030Y020399D03*
X021030Y020899D03*
X023030Y020899D03*
X023030Y020399D03*
X023030Y019899D03*
X023030Y019399D03*
X023030Y018899D03*
X023030Y018399D03*
X023030Y017899D03*
D40*
X031540Y020449D03*
X031740Y020449D03*
X031940Y020449D03*
X032130Y020449D03*
X032330Y020449D03*
X032530Y020449D03*
X032720Y020449D03*
X032920Y020449D03*
X033120Y020449D03*
X033310Y020449D03*
X033510Y020449D03*
X033710Y020449D03*
X033900Y020449D03*
X034100Y020449D03*
X034300Y020449D03*
X034490Y020449D03*
X034690Y020449D03*
X034890Y020449D03*
X035080Y020449D03*
X035280Y020449D03*
X035480Y020449D03*
X035680Y020449D03*
X035870Y020449D03*
X036070Y020449D03*
X036270Y020449D03*
X036460Y020449D03*
X036660Y020449D03*
X036860Y020449D03*
X037050Y020449D03*
X037250Y020449D03*
X037450Y020449D03*
X037640Y020449D03*
X037840Y020449D03*
X038040Y020449D03*
X038230Y020449D03*
X038430Y020449D03*
X038630Y020449D03*
X038820Y020449D03*
X039020Y020449D03*
X039220Y020449D03*
D41*
X039960Y019169D03*
X030800Y019169D03*
D42*
X007030Y023218D03*
X007030Y025580D03*
D43*
X012156Y027755D03*
X012904Y027755D03*
X013906Y027755D03*
X014654Y027755D03*
X014280Y028543D03*
X015656Y027755D03*
X016404Y027755D03*
X016030Y028543D03*
X017406Y027755D03*
X018154Y027755D03*
X017780Y028543D03*
X017404Y030505D03*
X016656Y030505D03*
X015904Y030505D03*
X015156Y030505D03*
X014404Y030505D03*
X013656Y030505D03*
X014030Y031293D03*
X015530Y031293D03*
X017030Y031293D03*
X018156Y030505D03*
X018904Y030505D03*
X018530Y031293D03*
X012530Y028543D03*
D44*
X014030Y032348D03*
X014030Y033450D03*
X015530Y033450D03*
X015530Y032348D03*
X017030Y032348D03*
X018530Y032348D03*
X018530Y033450D03*
X017030Y033450D03*
M02*
