G75*
%MOIN*%
%OFA0B0*%
%FSLAX24Y24*%
%IPPOS*%
%LPD*%
%AMOC8*
5,1,8,0,0,1.08239X$1,22.5*
%
%ADD10R,0.0800X0.0800*%
%ADD11C,0.0800*%
%ADD12C,0.0330*%
%ADD13C,0.0400*%
%ADD14C,0.1710*%
%ADD15C,0.1460*%
%ADD16C,0.0660*%
D10*
X037840Y006229D03*
X013030Y034899D03*
D11*
X014030Y034899D03*
X015030Y034899D03*
X016030Y034899D03*
X017030Y034899D03*
X018030Y034899D03*
X019030Y034899D03*
X020030Y034899D03*
X044160Y035139D03*
X044160Y034139D03*
X045490Y034059D03*
X045490Y033059D03*
X045490Y032059D03*
X045490Y031059D03*
X044030Y030649D03*
X044030Y029649D03*
X044030Y028649D03*
X044030Y027649D03*
X044030Y031649D03*
X045490Y035059D03*
X044160Y036139D03*
X043840Y006229D03*
X042840Y006229D03*
X041840Y006229D03*
X040840Y006229D03*
X039840Y006229D03*
X038840Y006229D03*
X044840Y006229D03*
X015800Y006469D03*
D12*
X009130Y013499D03*
X009130Y013899D03*
X009130Y014299D03*
X008530Y014299D03*
X008530Y013899D03*
X008530Y013499D03*
X007930Y013499D03*
X007930Y013899D03*
X007930Y014299D03*
X034199Y023129D03*
X034764Y023695D03*
X035401Y023058D03*
X035966Y023624D03*
X036461Y023129D03*
X035896Y022563D03*
X035330Y021998D03*
X034835Y022493D03*
X035330Y024260D03*
D13*
X039710Y017639D03*
X022030Y019899D03*
X017130Y017399D03*
X016530Y017399D03*
X015930Y017399D03*
X019730Y015599D03*
X019730Y014999D03*
X019730Y014399D03*
X011630Y017999D03*
X011230Y017999D03*
X006930Y017099D03*
X006530Y017099D03*
X006130Y017099D03*
X015530Y025899D03*
X016280Y025899D03*
X017030Y025899D03*
D14*
X002050Y006769D03*
X002050Y036269D03*
X049550Y036269D03*
X049550Y006769D03*
D15*
X025230Y024999D03*
X025230Y029499D03*
D16*
X038730Y014729D03*
X034370Y011349D03*
M02*
