%
M48
M72
T01C0.0130
T02C0.0200
T03C0.0400
T04C0.1000
T05C0.1250
%
T01
X10030Y6799
X11030Y6799
X12030Y6799
X14000Y6039
X12710Y8739
X11530Y10399
X14020Y11029
X11520Y12799
X9130Y13499
X9130Y13899
X9130Y14299
X8530Y14299
X8530Y13899
X8530Y13499
X7930Y13499
X7930Y13899
X7930Y14299
X6930Y15249
X5180Y13179
X6310Y11419
X7760Y11419
X8520Y10559
X20140Y18069
X21780Y19619
X22410Y19679
X24150Y20419
X26780Y21339
X29790Y18149
X28530Y17199
X27720Y17639
X26790Y16339
X25030Y14899
X34835Y22493
X35330Y21998
X35896Y22563
X35401Y23058
X35966Y23624
X36461Y23129
X37030Y24129
X36950Y24459
X36610Y24529
X36110Y25169
X35330Y24260
X34764Y23695
X34199Y23129
X33960Y24589
X34420Y25059
X35710Y26269
X37290Y26259
X37800Y26099
X37030Y27299
X39670Y27289
X39230Y24499
X40830Y24499
X43780Y22919
X43780Y21059
X44440Y20279
X44160Y18209
X43400Y18189
X41930Y16599
X39430Y16399
X37580Y19099
X36940Y18849
X38860Y19949
X37370Y24029
X32360Y23759
X30460Y25929
X30440Y26699
X30370Y27269
X31410Y28139
X31770Y28379
X34200Y28769
X34000Y30759
X33450Y31669
X32620Y32479
X31490Y32619
X29540Y32529
X27560Y30899
X28260Y28719
X27730Y25649
X20510Y22859
X19030Y23799
X18530Y27399
X16780Y27399
X15030Y27399
X13280Y27399
X14230Y30049
X15730Y30049
X17280Y30024
X18730Y30024
X13530Y23999
X35060Y35129
X35730Y34499
X36150Y35419
X36650Y35939
X36690Y36279
X38960Y36049
X40050Y35939
X40530Y35709
X40020Y34589
X39400Y34589
X38830Y34499
X39660Y33509
X44660Y31679
X44290Y26789
X43830Y26759
X42930Y12699
X41920Y12159
X42170Y11589
X41630Y12699
X40930Y12699
X39560Y12139
X39410Y11339
X39200Y10439
X40930Y10399
X40930Y9799
X42630Y9949
X42930Y10149
X40750Y7559
X39010Y8759
X35530Y7529
T02
X39710Y17639
X22030Y19899
X17130Y17399
X16530Y17399
X15930Y17399
X19730Y15599
X19730Y14999
X19730Y14399
X11630Y17999
X11230Y17999
X6930Y17099
X6530Y17099
X6130Y17099
X15530Y25899
X16280Y25899
X17030Y25899
T03
X17030Y34899
X18030Y34899
X19030Y34899
X20030Y34899
X16030Y34899
X15030Y34899
X14030Y34899
X13030Y34899
X38730Y14729
X34370Y11349
X37840Y6229
X38840Y6229
X39840Y6229
X40840Y6229
X41840Y6229
X42840Y6229
X43840Y6229
X44840Y6229
X44030Y27649
X44030Y28649
X44030Y29649
X44030Y30649
X44030Y31649
X45490Y32059
X45490Y31059
X45490Y33059
X45490Y34059
X45490Y35059
X44160Y35139
X44160Y34139
X44160Y36139
X15800Y6469
T04
X25230Y24999
X25230Y29499
T05
X2050Y6769
X2050Y36269
X49550Y36269
X49550Y6769
M30
