G75*
%MOIN*%
%OFA0B0*%
%FSLAX24Y24*%
%IPPOS*%
%LPD*%
%AMOC8*
5,1,8,0,0,1.08239X$1,22.5*
%
%ADD10C,0.0250*%
%ADD11R,0.0354X0.0315*%
%ADD12R,0.0354X0.0276*%
%ADD13R,0.0276X0.0354*%
%ADD14R,0.0315X0.0354*%
D10*
X027567Y006582D03*
X028067Y006582D03*
X028567Y006582D03*
X029067Y006582D03*
X029067Y007082D03*
X028567Y007082D03*
X028067Y007082D03*
X027567Y007082D03*
X027567Y007582D03*
X028067Y007582D03*
X028567Y007582D03*
X029067Y007582D03*
X029067Y008082D03*
X028567Y008082D03*
X028067Y008082D03*
X027567Y008082D03*
X027567Y008582D03*
X028067Y008582D03*
X028567Y008582D03*
X029067Y008582D03*
X029067Y009082D03*
X028567Y009082D03*
X028067Y009082D03*
X027567Y009082D03*
X027567Y009582D03*
X028067Y009582D03*
X028567Y009582D03*
X029067Y009582D03*
X029067Y010082D03*
X028567Y010082D03*
X028067Y010082D03*
X027567Y010082D03*
X027567Y010582D03*
X028067Y010582D03*
X028567Y010582D03*
X029067Y010582D03*
X029067Y011082D03*
X028567Y011082D03*
X028067Y011082D03*
X027567Y011082D03*
X027567Y011582D03*
X028067Y011582D03*
X028567Y011582D03*
X029067Y011582D03*
X029067Y012082D03*
X028567Y012082D03*
X028067Y012082D03*
X027567Y012082D03*
X027567Y012582D03*
X028067Y012582D03*
X028567Y012582D03*
X029067Y012582D03*
X029067Y013082D03*
X028567Y013082D03*
X028067Y013082D03*
X027567Y013082D03*
X027567Y013582D03*
X028067Y013582D03*
X028567Y013582D03*
X029067Y013582D03*
X029067Y014082D03*
X028567Y014082D03*
X028067Y014082D03*
X027567Y014082D03*
X027567Y014582D03*
X028067Y014582D03*
X028567Y014582D03*
X029067Y014582D03*
X029567Y014582D03*
X030067Y014582D03*
X030067Y014082D03*
X030067Y013582D03*
X029567Y013582D03*
X029567Y014082D03*
X029567Y013082D03*
X030067Y013082D03*
X030067Y012582D03*
X029567Y012582D03*
X029567Y012082D03*
X030067Y012082D03*
X030067Y011582D03*
X029567Y011582D03*
X029567Y011082D03*
X030067Y011082D03*
X030067Y010582D03*
X029567Y010582D03*
X029567Y010082D03*
X030067Y010082D03*
X030067Y009582D03*
X029567Y009582D03*
X029567Y009082D03*
X030067Y009082D03*
X030067Y008582D03*
X029567Y008582D03*
X029567Y008082D03*
X030067Y008082D03*
X030067Y007582D03*
X029567Y007582D03*
X029567Y007082D03*
X030067Y007082D03*
X030067Y006582D03*
X029567Y006582D03*
X029567Y015082D03*
X030067Y015082D03*
X030067Y015582D03*
X029567Y015582D03*
X029567Y016082D03*
X030067Y016082D03*
X030067Y016582D03*
X029567Y016582D03*
X029567Y017082D03*
X030067Y017082D03*
X030067Y017582D03*
X029567Y017582D03*
X029567Y018082D03*
X030067Y018082D03*
X030067Y018582D03*
X029567Y018582D03*
X029567Y019082D03*
X030067Y019082D03*
X030067Y019582D03*
X029567Y019582D03*
X029567Y020082D03*
X030067Y020082D03*
X030067Y020582D03*
X029567Y020582D03*
X029567Y021082D03*
X030067Y021082D03*
X030067Y021582D03*
X029567Y021582D03*
X029567Y022082D03*
X030067Y022082D03*
X030067Y022582D03*
X029567Y022582D03*
X029567Y023082D03*
X030067Y023082D03*
X030067Y023582D03*
X029567Y023582D03*
X029567Y024082D03*
X030067Y024082D03*
X030067Y024582D03*
X030067Y025082D03*
X029567Y025082D03*
X029567Y024582D03*
X029067Y024582D03*
X029067Y025082D03*
X028567Y025082D03*
X028567Y024582D03*
X028067Y024582D03*
X028067Y025082D03*
X027567Y025082D03*
X027567Y024582D03*
X027567Y024082D03*
X028067Y024082D03*
X028567Y024082D03*
X029067Y024082D03*
X029067Y023582D03*
X029067Y023082D03*
X028567Y023082D03*
X028567Y023582D03*
X028067Y023582D03*
X028067Y023082D03*
X027567Y023082D03*
X027567Y023582D03*
X027567Y022582D03*
X028067Y022582D03*
X028567Y022582D03*
X029067Y022582D03*
X029067Y022082D03*
X028567Y022082D03*
X028067Y022082D03*
X027567Y022082D03*
X027567Y021582D03*
X028067Y021582D03*
X028567Y021582D03*
X029067Y021582D03*
X029067Y021082D03*
X028567Y021082D03*
X028067Y021082D03*
X027567Y021082D03*
X027567Y020582D03*
X028067Y020582D03*
X028567Y020582D03*
X029067Y020582D03*
X029067Y020082D03*
X028567Y020082D03*
X028067Y020082D03*
X027567Y020082D03*
X027567Y019582D03*
X028067Y019582D03*
X028567Y019582D03*
X029067Y019582D03*
X029067Y019082D03*
X028567Y019082D03*
X028067Y019082D03*
X027567Y019082D03*
X027567Y018582D03*
X028067Y018582D03*
X028567Y018582D03*
X029067Y018582D03*
X029067Y018082D03*
X028567Y018082D03*
X028067Y018082D03*
X027567Y018082D03*
X027567Y017582D03*
X028067Y017582D03*
X028567Y017582D03*
X029067Y017582D03*
X029067Y017082D03*
X028567Y017082D03*
X028067Y017082D03*
X027567Y017082D03*
X027567Y016582D03*
X028067Y016582D03*
X028567Y016582D03*
X029067Y016582D03*
X029067Y016082D03*
X028567Y016082D03*
X028067Y016082D03*
X027567Y016082D03*
X027567Y015582D03*
X028067Y015582D03*
X028567Y015582D03*
X029067Y015582D03*
X029067Y015082D03*
X028567Y015082D03*
X028067Y015082D03*
X027567Y015082D03*
X027567Y025582D03*
X028067Y025582D03*
X028567Y025582D03*
X029067Y025582D03*
X029067Y026082D03*
X028567Y026082D03*
X028067Y026082D03*
X027567Y026082D03*
X029567Y026082D03*
X030067Y026082D03*
X030067Y025582D03*
X029567Y025582D03*
D11*
X026310Y020196D03*
X026310Y019448D03*
X025523Y019822D03*
X037473Y025772D03*
X038260Y025398D03*
X038260Y026146D03*
X038260Y026698D03*
X038260Y027446D03*
X038260Y027998D03*
X038260Y028746D03*
X038260Y029298D03*
X038260Y030046D03*
X037473Y029672D03*
X037473Y028372D03*
X037473Y027072D03*
D12*
X022367Y002066D03*
X022367Y002578D03*
X027717Y002578D03*
X027717Y002066D03*
X025267Y008066D03*
X025267Y008578D03*
X026317Y018466D03*
X026317Y018978D03*
X025317Y018766D03*
X025317Y019278D03*
X023217Y025966D03*
X023217Y026478D03*
X021217Y026478D03*
X021217Y025966D03*
X019267Y025966D03*
X019267Y026478D03*
X037467Y024828D03*
X037467Y024316D03*
X038917Y025366D03*
X038917Y025878D03*
X038917Y026416D03*
X038917Y026928D03*
X038917Y027466D03*
X038917Y027978D03*
X038917Y028516D03*
X038917Y029028D03*
D13*
X037273Y028972D03*
X036761Y028972D03*
X036561Y027822D03*
X037073Y027822D03*
X037273Y030322D03*
X036761Y030322D03*
X024873Y016322D03*
X024361Y016322D03*
X035311Y015922D03*
X035823Y015922D03*
D14*
X025291Y018116D03*
X024543Y018116D03*
X024917Y017328D03*
M02*
