G75*
%MOIN*%
%OFA0B0*%
%FSLAX24Y24*%
%IPPOS*%
%LPD*%
%AMOC8*
5,1,8,0,0,1.08239X$1,22.5*
%
%ADD10C,0.0100*%
%ADD11C,0.0010*%
%ADD12C,0.0050*%
D10*
X026727Y005152D02*
X026727Y027512D01*
X030907Y027512D01*
X030907Y005152D01*
X029317Y005152D01*
X029317Y004802D01*
X028317Y004802D01*
X028317Y005152D01*
X026727Y005152D01*
D11*
X026543Y006333D02*
X026587Y006378D01*
X026587Y006466D01*
X026543Y006510D01*
X026499Y006510D01*
X026454Y006466D01*
X026454Y006333D01*
X026543Y006333D01*
X026454Y006333D02*
X026366Y006422D01*
X026321Y006510D01*
X031271Y006422D02*
X031537Y006422D01*
X031537Y006510D02*
X031537Y006333D01*
X031360Y006333D02*
X031271Y006422D01*
X031271Y015576D02*
X031493Y015576D01*
X031537Y015620D01*
X031537Y015709D01*
X031493Y015753D01*
X031271Y015753D01*
X031316Y015830D02*
X031271Y015874D01*
X031271Y015962D01*
X031316Y016007D01*
X031316Y016083D02*
X031271Y016128D01*
X031271Y016216D01*
X031316Y016260D01*
X031360Y016260D01*
X031404Y016216D01*
X031449Y016260D01*
X031493Y016260D01*
X031537Y016216D01*
X031537Y016128D01*
X031493Y016083D01*
X031493Y016007D02*
X031449Y016007D01*
X031404Y015962D01*
X031404Y015874D01*
X031360Y015830D01*
X031316Y015830D01*
X031227Y015918D02*
X031582Y015918D01*
X031537Y015874D02*
X031537Y015962D01*
X031493Y016007D01*
X031537Y015874D02*
X031493Y015830D01*
X031404Y016172D02*
X031404Y016216D01*
X031316Y025326D02*
X031271Y025370D01*
X031271Y025459D01*
X031316Y025503D01*
X031360Y025503D01*
X031537Y025326D01*
X031537Y025503D01*
X031493Y025580D02*
X031537Y025624D01*
X031537Y025712D01*
X031493Y025757D01*
X031449Y025757D01*
X031404Y025712D01*
X031404Y025668D01*
X031404Y025712D02*
X031360Y025757D01*
X031316Y025757D01*
X031271Y025712D01*
X031271Y025624D01*
X031316Y025580D01*
X031271Y025833D02*
X031404Y025833D01*
X031360Y025922D01*
X031360Y025966D01*
X031404Y026010D01*
X031493Y026010D01*
X031537Y025966D01*
X031537Y025878D01*
X031493Y025833D01*
X031271Y025833D02*
X031271Y026010D01*
X026587Y025966D02*
X026587Y025878D01*
X026543Y025833D01*
X026366Y026010D01*
X026543Y026010D01*
X026587Y025966D01*
X026543Y025833D02*
X026366Y025833D01*
X026321Y025878D01*
X026321Y025966D01*
X026366Y026010D01*
X026454Y025757D02*
X026454Y025580D01*
X026321Y025712D01*
X026587Y025712D01*
X026587Y025503D02*
X026587Y025326D01*
X026410Y025503D01*
X026366Y025503D01*
X026321Y025459D01*
X026321Y025370D01*
X026366Y025326D01*
D12*
X025507Y017446D02*
X024326Y017446D01*
X024326Y017998D01*
X025507Y017998D01*
X025507Y017446D01*
X025641Y019231D02*
X025641Y020413D01*
X026192Y020413D01*
X026192Y019231D01*
X025641Y019231D01*
X037591Y025181D02*
X037591Y026363D01*
X038142Y026363D01*
X038142Y025181D01*
X037591Y025181D01*
X037591Y026481D02*
X037591Y027663D01*
X038142Y027663D01*
X038142Y026481D01*
X037591Y026481D01*
X037591Y027781D02*
X037591Y028963D01*
X038142Y028963D01*
X038142Y027781D01*
X037591Y027781D01*
X037591Y029081D02*
X037591Y030263D01*
X038142Y030263D01*
X038142Y029081D01*
X037591Y029081D01*
M02*
