G75*
%MOIN*%
%OFA0B0*%
%FSLAX24Y24*%
%IPPOS*%
%LPD*%
%AMOC8*
5,1,8,0,0,1.08239X$1,22.5*
%
%ADD10C,0.0000*%
%ADD11R,0.0515X0.0515*%
%ADD12C,0.0515*%
%ADD13R,0.0397X0.0397*%
%ADD14C,0.0397*%
%ADD15C,0.0250*%
%ADD16R,0.0594X0.0594*%
%ADD17C,0.0594*%
%ADD18R,0.0650X0.0650*%
%ADD19C,0.0650*%
%ADD20R,0.0354X0.0315*%
%ADD21R,0.0354X0.0276*%
%ADD22R,0.0276X0.0354*%
%ADD23R,0.0315X0.0354*%
%ADD24C,0.0400*%
%ADD25C,0.0160*%
%ADD26C,0.0080*%
%ADD27C,0.0515*%
%ADD28C,0.0100*%
%ADD29C,0.1650*%
%ADD30C,0.0300*%
%ADD31C,0.0250*%
%ADD32C,0.0280*%
%ADD33C,0.0375*%
%ADD34C,0.0380*%
D10*
X000467Y000572D02*
X000467Y032572D01*
X040467Y032572D01*
X040467Y000572D01*
X000467Y000572D01*
X028567Y005627D02*
X028569Y005658D01*
X028575Y005689D01*
X028585Y005719D01*
X028598Y005747D01*
X028615Y005774D01*
X028635Y005798D01*
X028658Y005820D01*
X028683Y005838D01*
X028711Y005853D01*
X028740Y005865D01*
X028770Y005873D01*
X028801Y005877D01*
X028833Y005877D01*
X028864Y005873D01*
X028894Y005865D01*
X028923Y005853D01*
X028951Y005838D01*
X028976Y005820D01*
X028999Y005798D01*
X029019Y005774D01*
X029036Y005747D01*
X029049Y005719D01*
X029059Y005689D01*
X029065Y005658D01*
X029067Y005627D01*
X029065Y005596D01*
X029059Y005565D01*
X029049Y005535D01*
X029036Y005507D01*
X029019Y005480D01*
X028999Y005456D01*
X028976Y005434D01*
X028951Y005416D01*
X028923Y005401D01*
X028894Y005389D01*
X028864Y005381D01*
X028833Y005377D01*
X028801Y005377D01*
X028770Y005381D01*
X028740Y005389D01*
X028711Y005401D01*
X028683Y005416D01*
X028658Y005434D01*
X028635Y005456D01*
X028615Y005480D01*
X028598Y005507D01*
X028585Y005535D01*
X028575Y005565D01*
X028569Y005596D01*
X028567Y005627D01*
X027367Y027037D02*
X027369Y027068D01*
X027375Y027099D01*
X027385Y027129D01*
X027398Y027157D01*
X027415Y027184D01*
X027435Y027208D01*
X027458Y027230D01*
X027483Y027248D01*
X027511Y027263D01*
X027540Y027275D01*
X027570Y027283D01*
X027601Y027287D01*
X027633Y027287D01*
X027664Y027283D01*
X027694Y027275D01*
X027723Y027263D01*
X027751Y027248D01*
X027776Y027230D01*
X027799Y027208D01*
X027819Y027184D01*
X027836Y027157D01*
X027849Y027129D01*
X027859Y027099D01*
X027865Y027068D01*
X027867Y027037D01*
X027865Y027006D01*
X027859Y026975D01*
X027849Y026945D01*
X027836Y026917D01*
X027819Y026890D01*
X027799Y026866D01*
X027776Y026844D01*
X027751Y026826D01*
X027723Y026811D01*
X027694Y026799D01*
X027664Y026791D01*
X027633Y026787D01*
X027601Y026787D01*
X027570Y026791D01*
X027540Y026799D01*
X027511Y026811D01*
X027483Y026826D01*
X027458Y026844D01*
X027435Y026866D01*
X027415Y026890D01*
X027398Y026917D01*
X027385Y026945D01*
X027375Y026975D01*
X027369Y027006D01*
X027367Y027037D01*
D11*
X024617Y014272D03*
X024517Y007872D03*
D12*
X024517Y008659D03*
X023729Y008659D03*
X023729Y007872D03*
X022942Y007872D03*
X022942Y008659D03*
X022154Y008659D03*
X021367Y008659D03*
X021367Y007872D03*
X022154Y007872D03*
X020580Y007872D03*
X020580Y008659D03*
X019792Y008659D03*
X019792Y007872D03*
X019005Y007872D03*
X019005Y008659D03*
X018217Y008659D03*
X017430Y008659D03*
X017430Y007872D03*
X016643Y007872D03*
X016643Y008659D03*
X015855Y008659D03*
X015855Y007872D03*
X015068Y007872D03*
X015068Y008659D03*
X014280Y008659D03*
X014280Y007872D03*
X013493Y007872D03*
X012706Y007872D03*
X011918Y007872D03*
X011131Y007872D03*
X011131Y008659D03*
X011918Y008659D03*
X012706Y008659D03*
X013493Y008659D03*
X010343Y008659D03*
X010343Y007872D03*
X009556Y007872D03*
X008769Y007872D03*
X008769Y008659D03*
X009556Y008659D03*
X007981Y008659D03*
X007981Y007872D03*
X007194Y007872D03*
X007194Y008659D03*
X006406Y008659D03*
X006406Y007872D03*
X005619Y007872D03*
X005619Y008659D03*
X005719Y014272D03*
X006506Y014272D03*
X006506Y015059D03*
X005719Y015059D03*
X007294Y015059D03*
X007294Y014272D03*
X008081Y014272D03*
X008081Y015059D03*
X008869Y015059D03*
X008869Y014272D03*
X009656Y014272D03*
X010443Y014272D03*
X010443Y015059D03*
X009656Y015059D03*
X011231Y015059D03*
X011231Y014272D03*
X012018Y014272D03*
X012018Y015059D03*
X012806Y015059D03*
X012806Y014272D03*
X013593Y014272D03*
X014380Y014272D03*
X015168Y014272D03*
X015955Y014272D03*
X015955Y015059D03*
X015168Y015059D03*
X014380Y015059D03*
X013593Y015059D03*
X016743Y015059D03*
X016743Y014272D03*
X017530Y014272D03*
X017530Y015059D03*
X018317Y015059D03*
X018317Y014272D03*
X019105Y014272D03*
X019892Y014272D03*
X019892Y015059D03*
X019105Y015059D03*
X020680Y015059D03*
X020680Y014272D03*
X021467Y014272D03*
X021467Y015059D03*
X022254Y015059D03*
X022254Y014272D03*
X023042Y014272D03*
X023829Y014272D03*
X023829Y015059D03*
X024617Y015059D03*
X023042Y015059D03*
X018217Y007872D03*
D13*
X019217Y001422D03*
X008367Y001422D03*
X003267Y010172D03*
X030067Y001422D03*
X039617Y005722D03*
X039617Y016572D03*
X039617Y027422D03*
D14*
X039617Y026635D03*
X039617Y025847D03*
X039617Y025060D03*
X039617Y028209D03*
X039617Y028997D03*
X039617Y029784D03*
X039617Y030572D03*
X039617Y019722D03*
X039617Y018934D03*
X039617Y018147D03*
X039617Y017359D03*
X039617Y015785D03*
X039617Y014997D03*
X039617Y014210D03*
X039617Y008872D03*
X039617Y008084D03*
X039617Y007297D03*
X039617Y006509D03*
X039617Y004935D03*
X039617Y004147D03*
X039617Y003360D03*
X033216Y001422D03*
X032429Y001422D03*
X031641Y001422D03*
X030854Y001422D03*
X029279Y001422D03*
X028492Y001422D03*
X027704Y001422D03*
X022366Y001422D03*
X021579Y001422D03*
X020791Y001422D03*
X020004Y001422D03*
X018429Y001422D03*
X017642Y001422D03*
X016854Y001422D03*
X011516Y001422D03*
X010729Y001422D03*
X009941Y001422D03*
X009154Y001422D03*
X007579Y001422D03*
X006792Y001422D03*
X006004Y001422D03*
X003267Y006172D03*
X002267Y006172D03*
X002267Y007172D03*
X003267Y007172D03*
X003267Y008172D03*
X002267Y008172D03*
X002267Y009172D03*
X003267Y009172D03*
X002267Y010172D03*
D15*
X015317Y006022D03*
X015717Y005622D03*
X020967Y006922D03*
X023967Y011672D03*
X023967Y012272D03*
X027567Y012082D03*
X028067Y012082D03*
X028567Y012082D03*
X029067Y012082D03*
X029067Y011582D03*
X028567Y011582D03*
X028067Y011582D03*
X027567Y011582D03*
X027567Y011082D03*
X028067Y011082D03*
X028567Y011082D03*
X029067Y011082D03*
X029067Y010582D03*
X028567Y010582D03*
X028067Y010582D03*
X027567Y010582D03*
X027567Y010082D03*
X028067Y010082D03*
X028567Y010082D03*
X029067Y010082D03*
X029067Y009582D03*
X028567Y009582D03*
X028067Y009582D03*
X027567Y009582D03*
X027567Y009082D03*
X028067Y009082D03*
X028567Y009082D03*
X029067Y009082D03*
X029067Y008582D03*
X028567Y008582D03*
X028067Y008582D03*
X027567Y008582D03*
X027567Y008082D03*
X028067Y008082D03*
X028567Y008082D03*
X029067Y008082D03*
X029067Y007582D03*
X028567Y007582D03*
X028067Y007582D03*
X027567Y007582D03*
X027567Y007082D03*
X028067Y007082D03*
X028567Y007082D03*
X029067Y007082D03*
X029067Y006582D03*
X028567Y006582D03*
X028067Y006582D03*
X027567Y006582D03*
X029567Y006582D03*
X030067Y006582D03*
X030067Y007082D03*
X029567Y007082D03*
X029567Y007582D03*
X030067Y007582D03*
X030067Y008082D03*
X029567Y008082D03*
X029567Y008582D03*
X030067Y008582D03*
X030067Y009082D03*
X029567Y009082D03*
X029567Y009582D03*
X030067Y009582D03*
X030067Y010082D03*
X029567Y010082D03*
X029567Y010582D03*
X030067Y010582D03*
X030067Y011082D03*
X029567Y011082D03*
X029567Y011582D03*
X030067Y011582D03*
X030067Y012082D03*
X029567Y012082D03*
X029567Y012582D03*
X030067Y012582D03*
X030067Y013082D03*
X029567Y013082D03*
X029567Y013582D03*
X030067Y013582D03*
X030067Y014082D03*
X029567Y014082D03*
X029567Y014582D03*
X030067Y014582D03*
X030067Y015082D03*
X030067Y015582D03*
X029567Y015582D03*
X029567Y015082D03*
X029067Y015082D03*
X029067Y015082D03*
X029067Y015582D03*
X028567Y015582D03*
X028567Y015082D03*
X028067Y015082D03*
X028067Y015582D03*
X027567Y015582D03*
X027567Y015082D03*
X027567Y014582D03*
X027567Y014582D03*
X028067Y014582D03*
X028567Y014582D03*
X029067Y014582D03*
X029067Y014582D03*
X029067Y014082D03*
X029067Y013582D03*
X028567Y013582D03*
X028567Y014082D03*
X028067Y014082D03*
X028067Y013582D03*
X027567Y013582D03*
X027567Y014082D03*
X027567Y013082D03*
X028067Y013082D03*
X028567Y013082D03*
X029067Y013082D03*
X029067Y012582D03*
X028567Y012582D03*
X028067Y012582D03*
X027567Y012582D03*
X031067Y012822D03*
X031117Y012172D03*
X031717Y013322D03*
X032317Y013722D03*
X032217Y014072D03*
X032117Y014422D03*
X031417Y014822D03*
X031717Y015572D03*
X033117Y016322D03*
X035317Y015322D03*
X035317Y012322D03*
X035317Y009322D03*
X035317Y006322D03*
X031467Y006772D03*
X031467Y010022D03*
X030067Y016082D03*
X030067Y016582D03*
X029567Y016582D03*
X029567Y016082D03*
X029067Y016082D03*
X029067Y016082D03*
X029067Y016582D03*
X028567Y016582D03*
X028567Y016082D03*
X028067Y016082D03*
X028067Y016582D03*
X027567Y016582D03*
X027567Y016582D03*
X027567Y016082D03*
X027567Y016082D03*
X027567Y017082D03*
X028067Y017082D03*
X028567Y017082D03*
X029067Y017082D03*
X029067Y017582D03*
X028567Y017582D03*
X028067Y017582D03*
X027567Y017582D03*
X027567Y017582D03*
X027567Y018082D03*
X027567Y018082D03*
X028067Y018082D03*
X028567Y018082D03*
X029067Y018082D03*
X029067Y018582D03*
X028567Y018582D03*
X028067Y018582D03*
X027567Y018582D03*
X027167Y018672D03*
X027567Y019082D03*
X028067Y019082D03*
X028567Y019082D03*
X029067Y019082D03*
X029067Y019582D03*
X028567Y019582D03*
X028067Y019582D03*
X027567Y019582D03*
X027567Y019582D03*
X027567Y020082D03*
X028067Y020082D03*
X028567Y020082D03*
X029067Y020082D03*
X029067Y020582D03*
X028567Y020582D03*
X028067Y020582D03*
X027567Y020582D03*
X027567Y020582D03*
X027567Y021082D03*
X028067Y021082D03*
X028317Y021332D03*
X028567Y021082D03*
X029067Y021082D03*
X029067Y021082D03*
X029067Y021582D03*
X028567Y021582D03*
X028067Y021582D03*
X028067Y021582D03*
X027567Y021582D03*
X027567Y022082D03*
X028067Y022082D03*
X028567Y022082D03*
X029067Y022082D03*
X029067Y022082D03*
X029067Y022582D03*
X028567Y022582D03*
X028067Y022582D03*
X027567Y022582D03*
X027567Y022582D03*
X027567Y023082D03*
X028067Y023082D03*
X028067Y023082D03*
X028567Y023082D03*
X029067Y023082D03*
X029067Y023582D03*
X029067Y023582D03*
X028567Y023582D03*
X028067Y023582D03*
X027567Y023582D03*
X027567Y023582D03*
X027117Y023572D03*
X027567Y024082D03*
X028067Y024082D03*
X028567Y024082D03*
X029067Y024082D03*
X029567Y024082D03*
X030067Y024082D03*
X030067Y023582D03*
X030067Y023082D03*
X029567Y023082D03*
X029567Y023582D03*
X029567Y022582D03*
X030067Y022582D03*
X030067Y022082D03*
X029567Y022082D03*
X029567Y021582D03*
X030067Y021582D03*
X030067Y021082D03*
X029567Y021082D03*
X029567Y020582D03*
X030067Y020582D03*
X030067Y020082D03*
X029567Y020082D03*
X029567Y019582D03*
X030067Y019582D03*
X030067Y019082D03*
X029567Y019082D03*
X029567Y018582D03*
X030067Y018582D03*
X030067Y018082D03*
X029567Y018082D03*
X029567Y017582D03*
X030067Y017582D03*
X030067Y017082D03*
X029567Y017082D03*
X026267Y017972D03*
X022917Y015622D03*
X022267Y015822D03*
X021867Y015822D03*
X020297Y013142D03*
X018767Y019722D03*
X020067Y021372D03*
X019717Y021722D03*
X019367Y022072D03*
X017417Y022072D03*
X013817Y024872D03*
X013317Y024972D03*
X011717Y023472D03*
X011167Y022222D03*
X010067Y024322D03*
X006917Y024372D03*
X004017Y024772D03*
X022917Y020372D03*
X025517Y022972D03*
X026317Y022772D03*
X027057Y022332D03*
X026867Y024372D03*
X026867Y024772D03*
X027217Y024922D03*
X027567Y025082D03*
X027567Y025082D03*
X028067Y025082D03*
X028567Y025082D03*
X029067Y025082D03*
X029067Y024582D03*
X028567Y024582D03*
X028067Y024582D03*
X027567Y024582D03*
X027567Y025582D03*
X028067Y025582D03*
X028567Y025582D03*
X029067Y025582D03*
X029067Y026082D03*
X028567Y026082D03*
X028067Y026082D03*
X027567Y026082D03*
X027017Y026172D03*
X029567Y026082D03*
X030067Y026082D03*
X030067Y025582D03*
X029567Y025582D03*
X029567Y025082D03*
X030067Y025082D03*
X030067Y024582D03*
X029567Y024582D03*
X030817Y025322D03*
X031467Y025472D03*
X032117Y025622D03*
X032767Y025772D03*
X034067Y026572D03*
X033994Y027000D03*
X033679Y027335D03*
X035254Y026572D03*
X035817Y026572D03*
X037517Y027822D03*
X036367Y028972D03*
X035651Y028856D03*
X036367Y030322D03*
X033133Y028806D03*
X027667Y029272D03*
X027017Y028622D03*
X032017Y021422D03*
D16*
X011467Y018572D03*
D17*
X011467Y019572D03*
X011467Y020572D03*
D18*
X005751Y028004D03*
X004767Y029972D03*
X016317Y029972D03*
X017301Y028004D03*
D19*
X019269Y028004D03*
X021238Y028004D03*
X023206Y028004D03*
X025175Y028004D03*
X024191Y029972D03*
X022222Y029972D03*
X020254Y029972D03*
X018285Y029972D03*
X013625Y028004D03*
X011656Y028004D03*
X009688Y028004D03*
X007719Y028004D03*
X006735Y029972D03*
X008704Y029972D03*
X010672Y029972D03*
X012641Y029972D03*
D20*
X025523Y019822D03*
X026310Y019448D03*
X026310Y020196D03*
X037473Y025772D03*
X038260Y025398D03*
X038260Y026146D03*
X038260Y026698D03*
X038260Y027446D03*
X038260Y027998D03*
X038260Y028746D03*
X038260Y029298D03*
X038260Y030046D03*
X037473Y029672D03*
X037473Y028372D03*
X037473Y027072D03*
D21*
X038917Y026928D03*
X038917Y027466D03*
X038917Y027978D03*
X038917Y028516D03*
X038917Y029028D03*
X038917Y026416D03*
X038917Y025878D03*
X038917Y025366D03*
X037467Y024828D03*
X037467Y024316D03*
X026317Y018978D03*
X026317Y018466D03*
X025317Y018766D03*
X025317Y019278D03*
X023217Y025966D03*
X023217Y026478D03*
X021217Y026478D03*
X021217Y025966D03*
X019267Y025966D03*
X019267Y026478D03*
X025267Y008578D03*
X025267Y008066D03*
X027717Y002578D03*
X027717Y002066D03*
X022367Y002066D03*
X022367Y002578D03*
D22*
X035311Y015922D03*
X035823Y015922D03*
X024873Y016322D03*
X024361Y016322D03*
X036561Y027822D03*
X037073Y027822D03*
X037273Y028972D03*
X036761Y028972D03*
X036761Y030322D03*
X037273Y030322D03*
D23*
X025291Y018116D03*
X024543Y018116D03*
X024917Y017328D03*
D24*
X033467Y014272D02*
X035117Y015922D01*
X035311Y015922D01*
X033467Y014272D02*
X033467Y005672D01*
X030373Y002578D01*
X027717Y002578D01*
X022367Y002578D01*
X006711Y002578D01*
X004517Y004772D01*
X004517Y016722D01*
X008367Y020572D01*
X011467Y020572D01*
X003267Y009172D02*
X002267Y008172D01*
X002767Y007672D02*
X003267Y008172D01*
X002767Y007672D02*
X002767Y006672D01*
X002267Y006172D01*
D25*
X015317Y006022D02*
X020617Y006022D01*
X021767Y007172D01*
X021767Y007622D01*
X021767Y008122D02*
X021767Y008272D01*
X022154Y008659D01*
X022547Y008264D02*
X022547Y008122D01*
X022547Y008264D02*
X022942Y008659D01*
X023729Y008659D02*
X023729Y009872D01*
X025067Y009872D01*
X025857Y009082D01*
X025857Y009072D01*
X025267Y008578D02*
X024598Y008578D01*
X024517Y008659D01*
X024711Y008066D02*
X024517Y007872D01*
X024711Y008066D02*
X025267Y008066D01*
X027567Y008582D02*
X027567Y009072D01*
X027567Y009082D01*
X028067Y009582D01*
X028067Y010082D01*
X027567Y008582D02*
X028067Y008082D01*
X028067Y007582D01*
X030417Y007822D02*
X031467Y006772D01*
X030417Y007822D02*
X030417Y016622D01*
X030067Y016582D02*
X029567Y016082D01*
X029067Y015582D01*
X028567Y015082D01*
X028067Y014582D01*
X027567Y014082D01*
X027567Y013582D02*
X027357Y013372D01*
X023942Y013372D01*
X023042Y014272D01*
X023829Y014272D02*
X024379Y013722D01*
X026707Y013722D01*
X027567Y014582D01*
X027567Y015082D02*
X026267Y016382D01*
X026267Y017972D01*
X026317Y018466D02*
X026461Y018466D01*
X026717Y018722D01*
X026717Y019022D01*
X027027Y019332D01*
X027367Y019332D01*
X027567Y019082D02*
X027567Y019072D01*
X027167Y018672D01*
X027567Y018582D02*
X028067Y019082D01*
X028567Y019582D01*
X029067Y020082D01*
X029567Y020582D01*
X030267Y020832D02*
X030907Y020832D01*
X033117Y018622D01*
X033117Y016322D01*
X033467Y016222D02*
X033467Y019972D01*
X032017Y021422D01*
X030367Y021382D02*
X030067Y021082D01*
X030367Y021382D02*
X030367Y022282D01*
X030067Y022582D01*
X029567Y022082D01*
X029067Y021582D01*
X028567Y021082D01*
X028067Y020582D01*
X027567Y020082D01*
X027453Y020196D01*
X026310Y020196D01*
X026107Y019832D02*
X025767Y020172D01*
X025217Y020172D01*
X022617Y017572D01*
X022617Y015422D01*
X022254Y015059D01*
X021467Y015059D02*
X021467Y017922D01*
X026317Y022772D01*
X025517Y022972D02*
X022917Y020372D01*
X021238Y021193D02*
X021238Y025945D01*
X021217Y025966D01*
X019267Y025966D02*
X019267Y022622D01*
X020417Y021472D01*
X020417Y020872D01*
X017136Y017592D01*
X017136Y015322D01*
X017917Y015322D02*
X017917Y017872D01*
X021238Y021193D01*
X020067Y021372D02*
X009917Y021372D01*
X006917Y024372D01*
X010067Y024322D02*
X010067Y022672D01*
X011017Y021722D01*
X019717Y021722D01*
X019367Y022072D02*
X017417Y022072D01*
X017917Y020572D02*
X018767Y019722D01*
X017917Y020572D02*
X011467Y020572D01*
X013317Y024972D02*
X013317Y027695D01*
X013625Y028004D01*
X019267Y028001D02*
X019269Y028004D01*
X021217Y027982D02*
X021238Y028004D01*
X023206Y028004D02*
X023217Y027993D01*
X023217Y025966D02*
X023206Y025956D01*
X023206Y022662D01*
X018717Y018172D01*
X018717Y015322D01*
X019105Y015059D02*
X019507Y014658D01*
X019507Y014522D01*
X019892Y015059D02*
X019892Y017848D01*
X025217Y023172D01*
X025217Y023722D01*
X026827Y025332D01*
X027367Y025332D01*
X027367Y025832D02*
X026877Y025832D01*
X019105Y018060D01*
X019105Y015059D01*
X020680Y015059D02*
X020680Y017635D01*
X026877Y023832D01*
X026997Y023832D01*
X027157Y024082D02*
X026867Y024372D01*
X027157Y024082D02*
X027567Y024082D01*
X028067Y023582D02*
X027567Y023082D01*
X028567Y022582D02*
X029067Y023082D01*
X029567Y023582D01*
X030067Y024082D01*
X029067Y024582D02*
X029567Y025082D01*
X030067Y025582D01*
X031467Y025472D02*
X031467Y026372D01*
X033317Y028222D01*
X036767Y028222D01*
X036917Y028372D01*
X037473Y028372D01*
X037867Y028722D02*
X037891Y028746D01*
X038260Y028746D01*
X037867Y028722D02*
X037867Y029322D01*
X036117Y029322D01*
X035651Y028856D01*
X035601Y028806D01*
X036217Y027922D02*
X033417Y027922D01*
X032117Y026622D01*
X032117Y025622D01*
X032767Y025772D02*
X032767Y026872D01*
X033517Y027622D01*
X036117Y027622D01*
X036817Y026922D01*
X036817Y026272D01*
X037317Y025772D01*
X037473Y025772D01*
X037867Y026322D02*
X038067Y026122D01*
X038236Y026122D01*
X038260Y026146D01*
X037867Y026322D02*
X037867Y027422D01*
X037891Y027446D01*
X038260Y027446D01*
X037867Y027422D02*
X037867Y028722D01*
X037867Y029322D02*
X037867Y030046D01*
X038260Y030046D01*
X036217Y027922D02*
X036292Y027847D01*
X036536Y027847D01*
X036561Y027822D01*
X036292Y027847D02*
X037067Y027072D01*
X037473Y027072D01*
X036517Y026822D02*
X036004Y027335D01*
X033679Y027335D01*
X033994Y027000D02*
X035889Y027000D01*
X036167Y026722D01*
X036167Y018472D01*
X036167Y018072D01*
X036167Y018022D01*
X032217Y014072D01*
X032317Y013722D02*
X036517Y017922D01*
X036517Y026822D01*
X035817Y026572D02*
X035817Y018522D01*
X035817Y018122D01*
X032117Y014422D01*
X031717Y014472D02*
X033467Y016222D01*
X032067Y015972D02*
X032067Y018272D01*
X030507Y019832D01*
X030267Y019832D01*
X030067Y019582D02*
X029567Y019082D01*
X030267Y018832D02*
X030807Y018832D01*
X031717Y017922D01*
X031717Y015572D01*
X032067Y015472D02*
X032067Y015872D01*
X032067Y015972D01*
X032067Y015472D02*
X031417Y014822D01*
X031417Y012372D01*
X031217Y012172D01*
X031117Y012172D01*
X031067Y012822D02*
X031067Y017772D01*
X030507Y018332D01*
X030267Y018332D01*
X030067Y018082D02*
X029567Y017582D01*
X030267Y017332D02*
X030457Y017332D01*
X030717Y017072D01*
X030717Y010772D01*
X031467Y010022D01*
X028067Y013082D02*
X027567Y012582D01*
X026439Y012582D01*
X023944Y012582D01*
X022254Y014272D01*
X022917Y015622D02*
X022917Y016472D01*
X022908Y016481D01*
X024543Y018116D01*
X025291Y018116D02*
X025291Y018202D01*
X026107Y019832D02*
X027347Y019832D01*
X027567Y021082D02*
X025627Y021082D01*
X022267Y017722D01*
X022267Y015822D01*
X021867Y015822D02*
X021867Y017822D01*
X025467Y021422D01*
X026907Y021422D01*
X027567Y022082D01*
X027567Y021582D02*
X028067Y022082D01*
X028317Y021332D02*
X028067Y021082D01*
X029067Y018582D02*
X028567Y018082D01*
X028067Y017582D01*
X027567Y017082D01*
X028567Y016582D02*
X029067Y017082D01*
X028567Y016582D02*
X028067Y016082D01*
X027567Y015582D01*
X029067Y014082D02*
X029567Y014582D01*
X030067Y015082D01*
X029067Y014082D02*
X028567Y013582D01*
X028067Y013082D01*
X026439Y012582D02*
X023767Y009909D01*
X023729Y009909D01*
X023729Y009872D01*
X020967Y008272D02*
X020967Y008072D01*
X020967Y008272D02*
X020580Y008659D01*
X020180Y008272D02*
X020067Y008272D01*
X020180Y008272D02*
X020580Y007872D01*
X020967Y007622D02*
X020967Y006922D01*
X021267Y005622D02*
X022547Y006902D01*
X022547Y007622D01*
X021267Y005622D02*
X015717Y005622D01*
X016643Y007872D02*
X016247Y008268D01*
X016247Y008422D01*
X017817Y008422D02*
X017817Y008273D01*
X018217Y007872D01*
X018617Y008260D02*
X018617Y008422D01*
X018617Y008260D02*
X019005Y007872D01*
X031717Y013322D02*
X031717Y014472D01*
X040067Y021716D02*
X040067Y006172D01*
X039617Y005722D01*
X040067Y021716D02*
X037467Y024316D01*
X035254Y026572D02*
X034067Y026572D01*
X029067Y024582D02*
X028567Y024082D01*
D26*
X028317Y024332D01*
X027967Y024332D01*
X027717Y024582D01*
X027567Y024582D01*
X027667Y024332D02*
X027307Y024332D01*
X026867Y024772D01*
X027217Y024922D02*
X027307Y024832D01*
X027817Y024832D01*
X028067Y024582D01*
X028317Y024832D02*
X028067Y025082D01*
X028317Y024832D02*
X028817Y024832D01*
X029067Y024582D01*
X029067Y025082D02*
X028917Y025082D01*
X028667Y025332D01*
X027367Y025332D01*
X027367Y025832D02*
X028817Y025832D01*
X029067Y025582D01*
X028967Y025332D02*
X028717Y025582D01*
X028567Y025582D01*
X028967Y025332D02*
X029317Y025332D01*
X029317Y025832D01*
X029067Y026082D01*
X029317Y025332D02*
X029567Y025082D01*
X029817Y024832D01*
X029817Y024332D01*
X030067Y024082D01*
X029067Y024082D02*
X028817Y023832D01*
X026997Y023832D01*
X027117Y023572D02*
X027117Y023102D01*
X027387Y022832D01*
X027817Y022832D01*
X028067Y022582D01*
X028067Y022082D02*
X028317Y021832D01*
X028817Y021832D01*
X029067Y021582D01*
X028567Y021082D02*
X028817Y020832D01*
X028817Y020332D01*
X029067Y020082D01*
X029317Y019832D02*
X029067Y019582D01*
X029317Y019332D02*
X028817Y019332D01*
X028567Y019582D01*
X028817Y019332D02*
X028817Y018832D01*
X029067Y018582D01*
X029317Y018332D02*
X029067Y018082D01*
X029317Y017832D02*
X028817Y017832D01*
X028567Y018082D01*
X028817Y017832D02*
X028817Y017332D01*
X029067Y017082D01*
X029317Y016832D02*
X029067Y016582D01*
X029317Y016832D02*
X030207Y016832D01*
X030417Y016622D01*
X030267Y017332D02*
X029317Y017332D01*
X029067Y017582D01*
X029317Y017832D02*
X029567Y017582D01*
X029317Y018332D02*
X030267Y018332D01*
X030267Y018832D02*
X029317Y018832D01*
X029067Y019082D01*
X029317Y019332D02*
X029567Y019082D01*
X029317Y019832D02*
X030267Y019832D01*
X030267Y020832D02*
X029317Y020832D01*
X029067Y020582D01*
X028067Y020082D02*
X027817Y019832D01*
X027347Y019832D01*
X027367Y019332D02*
X027817Y019332D01*
X028067Y019582D01*
X028817Y022332D02*
X027057Y022332D01*
X028067Y023582D02*
X028317Y023332D01*
X028817Y023332D01*
X029067Y023082D01*
X029317Y022832D01*
X029817Y022832D01*
X030067Y022582D01*
X029067Y022582D02*
X028817Y022332D01*
X028067Y024082D02*
X027917Y024082D01*
X027667Y024332D01*
X028067Y016082D02*
X028317Y015832D01*
X028817Y015832D01*
X029067Y015582D01*
X028317Y013832D02*
X027817Y013832D01*
X027567Y014082D01*
X028317Y013832D02*
X028567Y013582D01*
X022547Y008122D02*
X022547Y007622D01*
X021767Y007622D02*
X021767Y008122D01*
X020967Y008072D02*
X020967Y007622D01*
X020967Y007472D01*
X020067Y008272D02*
X019555Y008272D01*
X019405Y008422D01*
X019405Y008922D01*
X018617Y008922D02*
X018617Y008422D01*
X017817Y008422D02*
X017817Y008922D01*
X016247Y008922D02*
X016247Y008422D01*
X015855Y007872D02*
X015467Y008261D01*
X015467Y008422D01*
X015467Y008922D01*
X017136Y013972D02*
X017136Y015322D01*
X017917Y015322D02*
X017917Y013972D01*
X018717Y013972D02*
X018717Y015322D01*
X019507Y014522D02*
X019507Y013972D01*
D27*
X019892Y014272D02*
X020680Y014272D01*
X021467Y014272D01*
X022254Y014272D01*
X016743Y014272D02*
X015955Y014272D01*
X015955Y015059D01*
X015168Y015059D01*
X014380Y015059D01*
X013593Y015059D01*
X012806Y015059D01*
X012018Y015059D01*
X011231Y015059D01*
X010443Y015059D01*
X009656Y015059D01*
X008869Y015059D01*
X008081Y015059D01*
X007294Y015059D01*
X006506Y015059D01*
X005719Y015059D01*
X012806Y014272D02*
X013593Y014272D01*
X014380Y014272D01*
X015168Y014272D01*
X015955Y014272D01*
X015955Y015059D02*
X016743Y015059D01*
X015068Y008659D02*
X015068Y007872D01*
X014280Y007872D01*
X013493Y007872D01*
X012706Y007872D01*
X011918Y007872D01*
X011131Y007872D01*
X010343Y007872D01*
X009556Y007872D01*
X008769Y007872D01*
X007981Y007872D01*
X007194Y007872D01*
X006406Y007872D01*
X005619Y007872D01*
D28*
X005538Y008252D02*
X005700Y008252D01*
X005850Y008314D01*
X005964Y008429D01*
X006013Y008545D01*
X006061Y008429D01*
X006176Y008314D01*
X006325Y008252D01*
X006487Y008252D01*
X006637Y008314D01*
X006752Y008429D01*
X006800Y008545D01*
X006848Y008429D01*
X006963Y008314D01*
X007113Y008252D01*
X007275Y008252D01*
X007425Y008314D01*
X007539Y008429D01*
X007588Y008545D01*
X007636Y008429D01*
X007750Y008314D01*
X007900Y008252D01*
X008062Y008252D01*
X008212Y008314D01*
X008327Y008429D01*
X008375Y008545D01*
X008423Y008429D01*
X008538Y008314D01*
X008688Y008252D01*
X008850Y008252D01*
X008999Y008314D01*
X009114Y008429D01*
X009162Y008545D01*
X009211Y008429D01*
X009325Y008314D01*
X009475Y008252D01*
X009637Y008252D01*
X009787Y008314D01*
X009901Y008429D01*
X009950Y008545D01*
X009998Y008429D01*
X010113Y008314D01*
X010262Y008252D01*
X010424Y008252D01*
X010574Y008314D01*
X010689Y008429D01*
X010737Y008545D01*
X010785Y008429D01*
X010900Y008314D01*
X011050Y008252D01*
X011212Y008252D01*
X011362Y008314D01*
X011476Y008429D01*
X011525Y008545D01*
X011573Y008429D01*
X011687Y008314D01*
X011837Y008252D01*
X011999Y008252D01*
X012149Y008314D01*
X012264Y008429D01*
X012312Y008545D01*
X012360Y008429D01*
X012475Y008314D01*
X012625Y008252D01*
X012787Y008252D01*
X012936Y008314D01*
X013051Y008429D01*
X013099Y008545D01*
X013148Y008429D01*
X013262Y008314D01*
X013412Y008252D01*
X013574Y008252D01*
X013724Y008314D01*
X013838Y008429D01*
X013887Y008545D01*
X013935Y008429D01*
X014050Y008314D01*
X014199Y008252D01*
X014361Y008252D01*
X014511Y008314D01*
X014626Y008429D01*
X014688Y008578D01*
X014688Y008741D01*
X014626Y008890D01*
X014574Y008942D01*
X015192Y008942D01*
X015192Y008867D01*
X015234Y008766D01*
X015277Y008723D01*
X015277Y008182D01*
X015388Y008071D01*
X015465Y007994D01*
X015448Y007953D01*
X015448Y007791D01*
X015510Y007641D01*
X015624Y007527D01*
X015774Y007465D01*
X015936Y007465D01*
X016086Y007527D01*
X016201Y007641D01*
X016249Y007758D01*
X016297Y007641D01*
X016412Y007527D01*
X016562Y007465D01*
X016724Y007465D01*
X016873Y007527D01*
X016988Y007641D01*
X017050Y007791D01*
X017050Y007953D01*
X016988Y008103D01*
X016873Y008217D01*
X016724Y008280D01*
X016562Y008280D01*
X016561Y008279D01*
X016477Y008363D01*
X016477Y008517D01*
X016437Y008557D01*
X016437Y008723D01*
X016480Y008766D01*
X016522Y008867D01*
X016522Y008942D01*
X017136Y008942D01*
X017085Y008890D01*
X017023Y008741D01*
X017023Y008578D01*
X017085Y008429D01*
X017199Y008314D01*
X017349Y008252D01*
X017511Y008252D01*
X017587Y008283D01*
X017587Y008178D01*
X017721Y008043D01*
X017810Y007954D01*
X017810Y007953D01*
X017810Y007791D01*
X017872Y007641D01*
X017987Y007527D01*
X018136Y007465D01*
X018299Y007465D01*
X018448Y007527D01*
X018563Y007641D01*
X018611Y007758D01*
X018659Y007641D01*
X018774Y007527D01*
X018924Y007465D01*
X019086Y007465D01*
X019236Y007527D01*
X019350Y007641D01*
X019412Y007791D01*
X019412Y007953D01*
X019350Y008103D01*
X019330Y008123D01*
X019382Y008176D01*
X019476Y008082D01*
X019931Y008082D01*
X019971Y008042D01*
X020084Y008042D01*
X020173Y007954D01*
X020172Y007953D01*
X020172Y007791D01*
X020234Y007641D01*
X020349Y007527D01*
X020499Y007465D01*
X020661Y007465D01*
X020737Y007496D01*
X020737Y007081D01*
X020734Y007078D01*
X020692Y006977D01*
X020692Y006867D01*
X020734Y006766D01*
X020811Y006689D01*
X020912Y006647D01*
X020916Y006647D01*
X020521Y006252D01*
X015476Y006252D01*
X015472Y006255D01*
X015371Y006297D01*
X015262Y006297D01*
X015161Y006255D01*
X015084Y006178D01*
X015042Y006077D01*
X015042Y005967D01*
X015084Y005866D01*
X015161Y005789D01*
X015262Y005747D01*
X015371Y005747D01*
X015472Y005789D01*
X015476Y005792D01*
X015498Y005792D01*
X015484Y005778D01*
X015442Y005677D01*
X015442Y005567D01*
X015484Y005466D01*
X015561Y005389D01*
X015662Y005347D01*
X015771Y005347D01*
X015872Y005389D01*
X015876Y005392D01*
X021362Y005392D01*
X021497Y005527D01*
X022642Y006672D01*
X022777Y006807D01*
X022777Y007499D01*
X022861Y007465D01*
X023023Y007465D01*
X023173Y007527D01*
X023287Y007641D01*
X023336Y007758D01*
X023384Y007641D01*
X023498Y007527D01*
X023648Y007465D01*
X023810Y007465D01*
X023960Y007527D01*
X024075Y007641D01*
X024137Y007791D01*
X024137Y007953D01*
X024075Y008103D01*
X023960Y008217D01*
X023810Y008280D01*
X023648Y008280D01*
X023498Y008217D01*
X023384Y008103D01*
X023336Y007986D01*
X023287Y008103D01*
X023173Y008217D01*
X023056Y008266D01*
X023173Y008314D01*
X023287Y008429D01*
X023349Y008578D01*
X023349Y008741D01*
X023287Y008890D01*
X023173Y009005D01*
X023023Y009067D01*
X022861Y009067D01*
X022711Y009005D01*
X022596Y008890D01*
X022548Y008774D01*
X022500Y008890D01*
X022429Y008961D01*
X022429Y010339D01*
X022388Y010440D01*
X021431Y011397D01*
X024021Y011397D01*
X024122Y011439D01*
X024200Y011516D01*
X024242Y011617D01*
X024242Y011727D01*
X024200Y011828D01*
X024122Y011905D01*
X024021Y011947D01*
X021381Y011947D01*
X021331Y011997D01*
X024021Y011997D01*
X024122Y012039D01*
X024200Y012116D01*
X024242Y012217D01*
X024242Y012327D01*
X024200Y012428D01*
X024122Y012505D01*
X024021Y012547D01*
X021281Y012547D01*
X020530Y013298D01*
X020452Y013375D01*
X020351Y013417D01*
X020242Y013417D01*
X020141Y013375D01*
X020064Y013298D01*
X020054Y013274D01*
X019782Y013546D01*
X019782Y014027D01*
X019740Y014128D01*
X019697Y014171D01*
X019697Y014387D01*
X019737Y014427D01*
X019737Y014683D01*
X019811Y014652D01*
X019973Y014652D01*
X020123Y014714D01*
X020238Y014829D01*
X020286Y014945D01*
X020334Y014829D01*
X020449Y014714D01*
X020599Y014652D01*
X020761Y014652D01*
X020910Y014714D01*
X021025Y014829D01*
X021073Y014945D01*
X021122Y014829D01*
X021236Y014714D01*
X021386Y014652D01*
X021548Y014652D01*
X021698Y014714D01*
X021813Y014829D01*
X021861Y014945D01*
X021909Y014829D01*
X022024Y014714D01*
X022173Y014652D01*
X022336Y014652D01*
X022485Y014714D01*
X022600Y014829D01*
X022648Y014945D01*
X022696Y014829D01*
X022811Y014714D01*
X022928Y014666D01*
X022811Y014617D01*
X022696Y014503D01*
X022634Y014353D01*
X022634Y014191D01*
X022696Y014041D01*
X022811Y013927D01*
X022961Y013865D01*
X023123Y013865D01*
X023124Y013865D01*
X023847Y013142D01*
X026517Y013142D01*
X026517Y005010D01*
X026537Y004990D01*
X026537Y002928D01*
X006856Y002928D01*
X004867Y004917D01*
X004867Y016577D01*
X008512Y020222D01*
X011185Y020222D01*
X011214Y020193D01*
X011378Y020125D01*
X011556Y020125D01*
X011720Y020193D01*
X011845Y020319D01*
X011855Y020342D01*
X017821Y020342D01*
X018492Y019672D01*
X018492Y019667D01*
X018534Y019566D01*
X018611Y019489D01*
X018680Y019460D01*
X016906Y017687D01*
X016906Y015227D01*
X016946Y015187D01*
X016946Y014171D01*
X016903Y014128D01*
X016861Y014027D01*
X016861Y014002D01*
X012677Y014002D01*
X012426Y014253D01*
X012426Y014353D01*
X012364Y014503D01*
X012249Y014617D01*
X012099Y014680D01*
X011937Y014680D01*
X011787Y014617D01*
X011673Y014503D01*
X011625Y014386D01*
X011576Y014503D01*
X011462Y014617D01*
X011312Y014680D01*
X011150Y014680D01*
X011000Y014617D01*
X010885Y014503D01*
X010837Y014386D01*
X010789Y014503D01*
X010674Y014617D01*
X010524Y014680D01*
X010362Y014680D01*
X010213Y014617D01*
X010098Y014503D01*
X010050Y014386D01*
X010001Y014503D01*
X009887Y014617D01*
X009737Y014680D01*
X009575Y014680D01*
X009425Y014617D01*
X009311Y014503D01*
X009262Y014386D01*
X009214Y014503D01*
X009099Y014617D01*
X008950Y014680D01*
X008788Y014680D01*
X008638Y014617D01*
X008523Y014503D01*
X008475Y014386D01*
X008427Y014503D01*
X008312Y014617D01*
X008162Y014680D01*
X008000Y014680D01*
X007850Y014617D01*
X007736Y014503D01*
X007688Y014386D01*
X007639Y014503D01*
X007525Y014617D01*
X007375Y014680D01*
X007213Y014680D01*
X007063Y014617D01*
X006948Y014503D01*
X006900Y014386D01*
X006852Y014503D01*
X006737Y014617D01*
X006587Y014680D01*
X006425Y014680D01*
X006276Y014617D01*
X006161Y014503D01*
X006113Y014386D01*
X006064Y014503D01*
X005950Y014617D01*
X005800Y014680D01*
X005638Y014680D01*
X005488Y014617D01*
X005374Y014503D01*
X005312Y014353D01*
X005312Y014191D01*
X005374Y014041D01*
X005488Y013927D01*
X005638Y013865D01*
X005738Y013865D01*
X009136Y010466D01*
X009213Y010389D01*
X009314Y010347D01*
X009842Y010347D01*
X011122Y009067D01*
X011050Y009067D01*
X010900Y009005D01*
X010785Y008890D01*
X010737Y008774D01*
X010689Y008890D01*
X010574Y009005D01*
X010424Y009067D01*
X010262Y009067D01*
X010113Y009005D01*
X009998Y008890D01*
X009950Y008774D01*
X009901Y008890D01*
X009787Y009005D01*
X009637Y009067D01*
X009475Y009067D01*
X009325Y009005D01*
X009211Y008890D01*
X009162Y008774D01*
X009114Y008890D01*
X008999Y009005D01*
X008850Y009067D01*
X008688Y009067D01*
X008538Y009005D01*
X008423Y008890D01*
X008375Y008774D01*
X008327Y008890D01*
X008212Y009005D01*
X008062Y009067D01*
X007900Y009067D01*
X007750Y009005D01*
X007636Y008890D01*
X007588Y008774D01*
X007539Y008890D01*
X007425Y009005D01*
X007275Y009067D01*
X007113Y009067D01*
X006963Y009005D01*
X006848Y008890D01*
X006800Y008774D01*
X006752Y008890D01*
X006637Y009005D01*
X006487Y009067D01*
X006325Y009067D01*
X006176Y009005D01*
X006061Y008890D01*
X006013Y008774D01*
X005964Y008890D01*
X005850Y009005D01*
X005700Y009067D01*
X005538Y009067D01*
X005388Y009005D01*
X005274Y008890D01*
X005212Y008741D01*
X005212Y008578D01*
X005274Y008429D01*
X005388Y008314D01*
X005538Y008252D01*
X005530Y008255D02*
X004867Y008255D01*
X004867Y008157D02*
X015302Y008157D01*
X015277Y008255D02*
X014369Y008255D01*
X014192Y008255D02*
X013582Y008255D01*
X013405Y008255D02*
X012794Y008255D01*
X012617Y008255D02*
X012007Y008255D01*
X011830Y008255D02*
X011219Y008255D01*
X011042Y008255D02*
X010432Y008255D01*
X010255Y008255D02*
X009645Y008255D01*
X009468Y008255D02*
X008857Y008255D01*
X008680Y008255D02*
X008070Y008255D01*
X007893Y008255D02*
X007282Y008255D01*
X007105Y008255D02*
X006495Y008255D01*
X006318Y008255D02*
X005708Y008255D01*
X005889Y008354D02*
X006136Y008354D01*
X006051Y008452D02*
X005974Y008452D01*
X005983Y008846D02*
X006043Y008846D01*
X006115Y008945D02*
X005910Y008945D01*
X005758Y009043D02*
X006268Y009043D01*
X006545Y009043D02*
X007055Y009043D01*
X006903Y008945D02*
X006698Y008945D01*
X006770Y008846D02*
X006830Y008846D01*
X006839Y008452D02*
X006762Y008452D01*
X006677Y008354D02*
X006923Y008354D01*
X007464Y008354D02*
X007711Y008354D01*
X007626Y008452D02*
X007549Y008452D01*
X007558Y008846D02*
X007617Y008846D01*
X007690Y008945D02*
X007485Y008945D01*
X007332Y009043D02*
X007843Y009043D01*
X008120Y009043D02*
X008630Y009043D01*
X008477Y008945D02*
X008272Y008945D01*
X008345Y008846D02*
X008405Y008846D01*
X008413Y008452D02*
X008336Y008452D01*
X008252Y008354D02*
X008498Y008354D01*
X009039Y008354D02*
X009286Y008354D01*
X009201Y008452D02*
X009124Y008452D01*
X009132Y008846D02*
X009192Y008846D01*
X009265Y008945D02*
X009060Y008945D01*
X008907Y009043D02*
X009417Y009043D01*
X009695Y009043D02*
X010205Y009043D01*
X010052Y008945D02*
X009847Y008945D01*
X009920Y008846D02*
X009980Y008846D01*
X009988Y008452D02*
X009911Y008452D01*
X009826Y008354D02*
X010073Y008354D01*
X010614Y008354D02*
X010860Y008354D01*
X010776Y008452D02*
X010699Y008452D01*
X010707Y008846D02*
X010767Y008846D01*
X010840Y008945D02*
X010635Y008945D01*
X010482Y009043D02*
X010992Y009043D01*
X011047Y009142D02*
X004867Y009142D01*
X004867Y009240D02*
X010949Y009240D01*
X010850Y009339D02*
X004867Y009339D01*
X004867Y009437D02*
X010752Y009437D01*
X010653Y009536D02*
X004867Y009536D01*
X004867Y009634D02*
X010555Y009634D01*
X010456Y009733D02*
X004867Y009733D01*
X004867Y009831D02*
X010358Y009831D01*
X010259Y009930D02*
X004867Y009930D01*
X004867Y010028D02*
X010161Y010028D01*
X010062Y010127D02*
X004867Y010127D01*
X004867Y010225D02*
X009964Y010225D01*
X009865Y010324D02*
X004867Y010324D01*
X004867Y010422D02*
X009180Y010422D01*
X009082Y010521D02*
X004867Y010521D01*
X004867Y010619D02*
X008983Y010619D01*
X008885Y010718D02*
X004867Y010718D01*
X004867Y010816D02*
X008786Y010816D01*
X008688Y010915D02*
X004867Y010915D01*
X004867Y011013D02*
X008589Y011013D01*
X008491Y011112D02*
X004867Y011112D01*
X004867Y011210D02*
X008392Y011210D01*
X008294Y011309D02*
X004867Y011309D01*
X004867Y011407D02*
X008195Y011407D01*
X008097Y011506D02*
X004867Y011506D01*
X004867Y011604D02*
X007998Y011604D01*
X007900Y011703D02*
X004867Y011703D01*
X004867Y011801D02*
X007801Y011801D01*
X007703Y011900D02*
X004867Y011900D01*
X004867Y011998D02*
X007604Y011998D01*
X007506Y012097D02*
X004867Y012097D01*
X004867Y012195D02*
X007407Y012195D01*
X007309Y012294D02*
X004867Y012294D01*
X004867Y012392D02*
X007210Y012392D01*
X007112Y012491D02*
X004867Y012491D01*
X004867Y012589D02*
X007013Y012589D01*
X006915Y012688D02*
X004867Y012688D01*
X004867Y012786D02*
X006816Y012786D01*
X006718Y012885D02*
X004867Y012885D01*
X004867Y012983D02*
X006619Y012983D01*
X006521Y013082D02*
X004867Y013082D01*
X004867Y013180D02*
X006422Y013180D01*
X006324Y013279D02*
X004867Y013279D01*
X004867Y013377D02*
X006225Y013377D01*
X006127Y013476D02*
X004867Y013476D01*
X004867Y013574D02*
X006028Y013574D01*
X005930Y013673D02*
X004867Y013673D01*
X004867Y013771D02*
X005831Y013771D01*
X005626Y013870D02*
X004867Y013870D01*
X004867Y013968D02*
X005447Y013968D01*
X005363Y014067D02*
X004867Y014067D01*
X004867Y014165D02*
X005322Y014165D01*
X005312Y014264D02*
X004867Y014264D01*
X004867Y014362D02*
X005315Y014362D01*
X005356Y014461D02*
X004867Y014461D01*
X004867Y014559D02*
X005430Y014559D01*
X005585Y014658D02*
X004867Y014658D01*
X004867Y014756D02*
X016946Y014756D01*
X016946Y014658D02*
X012152Y014658D01*
X012307Y014559D02*
X016946Y014559D01*
X016946Y014461D02*
X012381Y014461D01*
X012422Y014362D02*
X016946Y014362D01*
X016946Y014264D02*
X012426Y014264D01*
X012514Y014165D02*
X016940Y014165D01*
X016878Y014067D02*
X012613Y014067D01*
X011884Y014658D02*
X011365Y014658D01*
X011520Y014559D02*
X011729Y014559D01*
X011655Y014461D02*
X011594Y014461D01*
X011097Y014658D02*
X010577Y014658D01*
X010733Y014559D02*
X010942Y014559D01*
X010868Y014461D02*
X010806Y014461D01*
X010309Y014658D02*
X009790Y014658D01*
X009945Y014559D02*
X010154Y014559D01*
X010080Y014461D02*
X010019Y014461D01*
X009522Y014658D02*
X009003Y014658D01*
X009158Y014559D02*
X009367Y014559D01*
X009293Y014461D02*
X009232Y014461D01*
X008735Y014658D02*
X008215Y014658D01*
X008370Y014559D02*
X008579Y014559D01*
X008506Y014461D02*
X008444Y014461D01*
X007947Y014658D02*
X007428Y014658D01*
X007583Y014559D02*
X007792Y014559D01*
X007718Y014461D02*
X007657Y014461D01*
X007160Y014658D02*
X006640Y014658D01*
X006796Y014559D02*
X007005Y014559D01*
X006931Y014461D02*
X006869Y014461D01*
X006372Y014658D02*
X005853Y014658D01*
X006008Y014559D02*
X006217Y014559D01*
X006143Y014461D02*
X006082Y014461D01*
X004867Y014855D02*
X016946Y014855D01*
X016946Y014953D02*
X004867Y014953D01*
X004867Y015052D02*
X016946Y015052D01*
X016946Y015150D02*
X004867Y015150D01*
X004867Y015249D02*
X016906Y015249D01*
X016906Y015347D02*
X004867Y015347D01*
X004867Y015446D02*
X016906Y015446D01*
X016906Y015544D02*
X004867Y015544D01*
X004867Y015643D02*
X016906Y015643D01*
X016906Y015741D02*
X004867Y015741D01*
X004867Y015840D02*
X016906Y015840D01*
X016906Y015938D02*
X004867Y015938D01*
X004867Y016037D02*
X016906Y016037D01*
X016906Y016135D02*
X004867Y016135D01*
X004867Y016234D02*
X016906Y016234D01*
X016906Y016332D02*
X004867Y016332D01*
X004867Y016431D02*
X016906Y016431D01*
X016906Y016529D02*
X004867Y016529D01*
X004917Y016628D02*
X016906Y016628D01*
X016906Y016726D02*
X005016Y016726D01*
X005114Y016825D02*
X016906Y016825D01*
X016906Y016923D02*
X005213Y016923D01*
X005311Y017022D02*
X016906Y017022D01*
X016906Y017120D02*
X005410Y017120D01*
X005508Y017219D02*
X016906Y017219D01*
X016906Y017317D02*
X005607Y017317D01*
X005705Y017416D02*
X016906Y017416D01*
X016906Y017514D02*
X005804Y017514D01*
X005902Y017613D02*
X016906Y017613D01*
X016930Y017711D02*
X006001Y017711D01*
X006099Y017810D02*
X017029Y017810D01*
X017127Y017908D02*
X006198Y017908D01*
X006296Y018007D02*
X017226Y018007D01*
X017324Y018105D02*
X006395Y018105D01*
X006493Y018204D02*
X011029Y018204D01*
X011020Y018213D02*
X011108Y018125D01*
X011826Y018125D01*
X011914Y018213D01*
X011914Y018931D01*
X011826Y019019D01*
X011108Y019019D01*
X011020Y018931D01*
X011020Y018213D01*
X011020Y018302D02*
X006592Y018302D01*
X006690Y018401D02*
X011020Y018401D01*
X011020Y018499D02*
X006789Y018499D01*
X006887Y018598D02*
X011020Y018598D01*
X011020Y018696D02*
X006986Y018696D01*
X007084Y018795D02*
X011020Y018795D01*
X011020Y018893D02*
X007183Y018893D01*
X007281Y018992D02*
X011080Y018992D01*
X011853Y018992D02*
X018211Y018992D01*
X018309Y019090D02*
X007380Y019090D01*
X007478Y019189D02*
X018408Y019189D01*
X018506Y019287D02*
X007577Y019287D01*
X007675Y019386D02*
X018605Y019386D01*
X018623Y019484D02*
X007774Y019484D01*
X007872Y019583D02*
X018527Y019583D01*
X018482Y019681D02*
X007971Y019681D01*
X008069Y019780D02*
X018384Y019780D01*
X018285Y019878D02*
X008168Y019878D01*
X008266Y019977D02*
X018187Y019977D01*
X018088Y020075D02*
X008365Y020075D01*
X008463Y020174D02*
X011261Y020174D01*
X011672Y020174D02*
X017990Y020174D01*
X017891Y020272D02*
X011799Y020272D01*
X011914Y018893D02*
X018112Y018893D01*
X018014Y018795D02*
X011914Y018795D01*
X011914Y018696D02*
X017915Y018696D01*
X017817Y018598D02*
X011914Y018598D01*
X011914Y018499D02*
X017718Y018499D01*
X017620Y018401D02*
X011914Y018401D01*
X011914Y018302D02*
X017521Y018302D01*
X017423Y018204D02*
X011904Y018204D01*
X008137Y020837D02*
X004318Y017019D01*
X004220Y016920D01*
X004167Y016792D01*
X004167Y004702D01*
X004220Y004574D01*
X006414Y002380D01*
X006513Y002281D01*
X006641Y002228D01*
X016537Y002228D01*
X016537Y001565D01*
X016506Y001491D01*
X016506Y001353D01*
X016559Y001225D01*
X016657Y001127D01*
X016785Y001074D01*
X016924Y001074D01*
X017052Y001127D01*
X017117Y001192D01*
X017379Y001192D01*
X017444Y001127D01*
X017573Y001074D01*
X017711Y001074D01*
X017839Y001127D01*
X017905Y001192D01*
X018167Y001192D01*
X018232Y001127D01*
X018360Y001074D01*
X018499Y001074D01*
X018627Y001127D01*
X018692Y001192D01*
X018868Y001192D01*
X018868Y001161D01*
X018956Y001074D01*
X019477Y001074D01*
X019565Y001161D01*
X019565Y001192D01*
X019741Y001192D01*
X019807Y001127D01*
X019935Y001074D01*
X020073Y001074D01*
X020201Y001127D01*
X020267Y001192D01*
X020529Y001192D01*
X020594Y001127D01*
X020722Y001074D01*
X020861Y001074D01*
X020989Y001127D01*
X021054Y001192D01*
X021316Y001192D01*
X021382Y001127D01*
X021510Y001074D01*
X021648Y001074D01*
X021776Y001127D01*
X021842Y001192D01*
X022104Y001192D01*
X022169Y001127D01*
X022297Y001074D01*
X022436Y001074D01*
X022564Y001127D01*
X022629Y001192D01*
X027442Y001192D01*
X027507Y001127D01*
X027635Y001074D01*
X027774Y001074D01*
X027902Y001127D01*
X027967Y001192D01*
X028229Y001192D01*
X028294Y001127D01*
X028423Y001074D01*
X028561Y001074D01*
X028689Y001127D01*
X028755Y001192D01*
X029017Y001192D01*
X029082Y001127D01*
X029210Y001074D01*
X029349Y001074D01*
X029477Y001127D01*
X029542Y001192D01*
X029718Y001192D01*
X029718Y001161D01*
X029806Y001074D01*
X030327Y001074D01*
X030415Y001161D01*
X030415Y001192D01*
X030591Y001192D01*
X030657Y001127D01*
X030785Y001074D01*
X030923Y001074D01*
X031051Y001127D01*
X031149Y001225D01*
X031202Y001353D01*
X031202Y001491D01*
X031149Y001619D01*
X031147Y001622D01*
X031147Y002857D01*
X033665Y005375D01*
X033725Y005436D01*
X035331Y006032D01*
X039487Y006032D01*
X039594Y006076D01*
X039675Y006158D01*
X039678Y006161D01*
X039686Y006161D01*
X039814Y006214D01*
X039912Y006312D01*
X039933Y006363D01*
X039947Y006377D01*
X039947Y006396D01*
X039965Y006440D01*
X039965Y006579D01*
X039947Y006623D01*
X039947Y007183D01*
X039965Y007228D01*
X039965Y007366D01*
X039947Y007411D01*
X039947Y007970D01*
X039965Y008015D01*
X039965Y008154D01*
X039947Y008198D01*
X039947Y008758D01*
X039965Y008802D01*
X039965Y008941D01*
X039947Y008985D01*
X039947Y014096D01*
X039965Y014141D01*
X039965Y014279D01*
X039947Y014324D01*
X039947Y014883D01*
X039965Y014928D01*
X039965Y015067D01*
X039947Y015111D01*
X039947Y015671D01*
X039965Y015715D01*
X039965Y015854D01*
X039947Y015898D01*
X039947Y016293D01*
X039965Y016311D01*
X039965Y016833D01*
X039947Y016851D01*
X039947Y017246D01*
X039965Y017290D01*
X039965Y017429D01*
X039947Y017473D01*
X039947Y018033D01*
X039965Y018078D01*
X039965Y018216D01*
X039947Y018261D01*
X039947Y018820D01*
X039965Y018865D01*
X039965Y019004D01*
X039947Y019048D01*
X039947Y019608D01*
X039965Y019652D01*
X039965Y019791D01*
X039912Y019919D01*
X039814Y020017D01*
X039696Y020066D01*
X036747Y022968D01*
X036747Y026017D01*
X037146Y025618D01*
X037146Y025552D01*
X037177Y025522D01*
X037177Y025065D01*
X037140Y025028D01*
X037140Y024628D01*
X037227Y024540D01*
X037404Y024540D01*
X037409Y024538D01*
X037524Y024538D01*
X037530Y024540D01*
X037706Y024540D01*
X037794Y024628D01*
X037794Y024890D01*
X038128Y025091D01*
X038200Y025091D01*
X038235Y025076D01*
X038974Y025076D01*
X038980Y025078D01*
X039156Y025078D01*
X039244Y025166D01*
X039244Y025566D01*
X039222Y025588D01*
X039383Y025588D01*
X039419Y025552D01*
X039487Y025524D01*
X039487Y025383D01*
X039419Y025355D01*
X039321Y025257D01*
X039268Y025129D01*
X039268Y024991D01*
X039321Y024862D01*
X039419Y024764D01*
X039547Y024711D01*
X039686Y024711D01*
X039814Y024764D01*
X039912Y024862D01*
X039965Y024991D01*
X039965Y025129D01*
X039947Y025174D01*
X039947Y025733D01*
X039965Y025778D01*
X039965Y025917D01*
X039947Y025961D01*
X039947Y026521D01*
X039965Y026565D01*
X039965Y026704D01*
X039947Y026748D01*
X039947Y027143D01*
X039965Y027161D01*
X039965Y027683D01*
X039947Y027701D01*
X039947Y028096D01*
X039965Y028140D01*
X039965Y028279D01*
X039947Y028323D01*
X039947Y028883D01*
X039965Y028928D01*
X039965Y029066D01*
X039947Y029111D01*
X039947Y029670D01*
X039965Y029715D01*
X039965Y029854D01*
X039912Y029982D01*
X039814Y030080D01*
X039686Y030133D01*
X039547Y030133D01*
X039527Y030124D01*
X038529Y030324D01*
X038500Y030354D01*
X038382Y030354D01*
X038318Y030366D01*
X038299Y030354D01*
X038021Y030354D01*
X037944Y030276D01*
X037771Y030276D01*
X037737Y030242D01*
X037719Y030286D01*
X037637Y030368D01*
X037560Y030444D01*
X037560Y030561D01*
X037472Y030649D01*
X037073Y030649D01*
X036985Y030561D01*
X036985Y030385D01*
X036983Y030380D01*
X036983Y030264D01*
X036985Y030259D01*
X036985Y030083D01*
X037073Y029995D01*
X037183Y029995D01*
X037183Y029962D01*
X033309Y029962D01*
X033202Y029918D01*
X031007Y027722D01*
X027292Y027722D01*
X027292Y028564D01*
X027788Y029025D01*
X027822Y029039D01*
X027900Y029116D01*
X027908Y029136D01*
X027943Y029168D01*
X027950Y029359D01*
X027911Y029401D01*
X027900Y029428D01*
X027822Y029505D01*
X027721Y029547D01*
X024405Y029547D01*
X024460Y029570D01*
X024593Y029703D01*
X024665Y029878D01*
X024665Y030066D01*
X024593Y030241D01*
X024460Y030375D01*
X024285Y030447D01*
X024096Y030447D01*
X023922Y030375D01*
X023788Y030241D01*
X023716Y030066D01*
X023716Y029878D01*
X023788Y029703D01*
X023922Y029570D01*
X023976Y029547D01*
X022437Y029547D01*
X022491Y029570D01*
X022625Y029703D01*
X022697Y029878D01*
X022697Y030066D01*
X022625Y030241D01*
X022491Y030375D01*
X022317Y030447D01*
X022128Y030447D01*
X021953Y030375D01*
X021820Y030241D01*
X021747Y030066D01*
X021747Y029878D01*
X021820Y029703D01*
X021953Y029570D01*
X022008Y029547D01*
X020468Y029547D01*
X020523Y029570D01*
X020656Y029703D01*
X020728Y029878D01*
X020728Y030066D01*
X020656Y030241D01*
X020523Y030375D01*
X020348Y030447D01*
X020159Y030447D01*
X019985Y030375D01*
X019851Y030241D01*
X019779Y030066D01*
X019779Y029878D01*
X019851Y029703D01*
X019985Y029570D01*
X020039Y029547D01*
X018500Y029547D01*
X018554Y029570D01*
X018688Y029703D01*
X018760Y029878D01*
X018760Y030066D01*
X018688Y030241D01*
X018554Y030375D01*
X018380Y030447D01*
X018191Y030447D01*
X018016Y030375D01*
X017883Y030241D01*
X017810Y030066D01*
X017810Y029878D01*
X017883Y029703D01*
X018016Y029570D01*
X018070Y029547D01*
X017062Y029547D01*
X016961Y029505D01*
X016884Y029428D01*
X014134Y026678D01*
X014092Y026577D01*
X014092Y025557D01*
X013727Y025193D01*
X013571Y025036D01*
X011992Y023457D01*
X011992Y023475D01*
X011992Y023527D01*
X011991Y023529D01*
X011991Y023532D01*
X011970Y023580D01*
X011950Y023628D01*
X011948Y023630D01*
X011947Y023632D01*
X011909Y023668D01*
X011872Y023705D01*
X011870Y023706D01*
X010559Y024968D01*
X010522Y025005D01*
X010520Y025006D01*
X010518Y025008D01*
X010470Y025027D01*
X010421Y025047D01*
X010419Y025047D01*
X010416Y025048D01*
X010364Y025047D01*
X003962Y025047D01*
X003861Y025005D01*
X003784Y024928D01*
X003742Y024827D01*
X003742Y024717D01*
X003784Y024616D01*
X003861Y024539D01*
X003962Y024497D01*
X006671Y024497D01*
X006642Y024427D01*
X006642Y024317D01*
X006684Y024216D01*
X006761Y024139D01*
X006862Y024097D01*
X006866Y024097D01*
X008137Y022827D01*
X008137Y020837D01*
X008137Y020863D02*
X000717Y020863D01*
X000717Y020765D02*
X008064Y020765D01*
X007966Y020666D02*
X000717Y020666D01*
X000717Y020568D02*
X007867Y020568D01*
X007769Y020469D02*
X000717Y020469D01*
X000717Y020371D02*
X007670Y020371D01*
X007572Y020272D02*
X000717Y020272D01*
X000717Y020174D02*
X007473Y020174D01*
X007375Y020075D02*
X000717Y020075D01*
X000717Y019977D02*
X007276Y019977D01*
X007178Y019878D02*
X000717Y019878D01*
X000717Y019780D02*
X007079Y019780D01*
X006981Y019681D02*
X000717Y019681D01*
X000717Y019583D02*
X006882Y019583D01*
X006784Y019484D02*
X000717Y019484D01*
X000717Y019386D02*
X006685Y019386D01*
X006587Y019287D02*
X000717Y019287D01*
X000717Y019189D02*
X006488Y019189D01*
X006390Y019090D02*
X000717Y019090D01*
X000717Y018992D02*
X006291Y018992D01*
X006193Y018893D02*
X000717Y018893D01*
X000717Y018795D02*
X006094Y018795D01*
X005996Y018696D02*
X000717Y018696D01*
X000717Y018598D02*
X005897Y018598D01*
X005799Y018499D02*
X000717Y018499D01*
X000717Y018401D02*
X005700Y018401D01*
X005602Y018302D02*
X000717Y018302D01*
X000717Y018204D02*
X005503Y018204D01*
X005405Y018105D02*
X000717Y018105D01*
X000717Y018007D02*
X005306Y018007D01*
X005208Y017908D02*
X000717Y017908D01*
X000717Y017810D02*
X005109Y017810D01*
X005011Y017711D02*
X000717Y017711D01*
X000717Y017613D02*
X004912Y017613D01*
X004814Y017514D02*
X000717Y017514D01*
X000717Y017416D02*
X004715Y017416D01*
X004617Y017317D02*
X000717Y017317D01*
X000717Y017219D02*
X004518Y017219D01*
X004420Y017120D02*
X000717Y017120D01*
X000717Y017022D02*
X004321Y017022D01*
X004223Y016923D02*
X000717Y016923D01*
X000717Y016825D02*
X004180Y016825D01*
X004167Y016726D02*
X000717Y016726D01*
X000717Y016628D02*
X004167Y016628D01*
X004167Y016529D02*
X000717Y016529D01*
X000717Y016431D02*
X004167Y016431D01*
X004167Y016332D02*
X000717Y016332D01*
X000717Y016234D02*
X004167Y016234D01*
X004167Y016135D02*
X000717Y016135D01*
X000717Y016037D02*
X004167Y016037D01*
X004167Y015938D02*
X000717Y015938D01*
X000717Y015840D02*
X004167Y015840D01*
X004167Y015741D02*
X000717Y015741D01*
X000717Y015643D02*
X004167Y015643D01*
X004167Y015544D02*
X000717Y015544D01*
X000717Y015446D02*
X004167Y015446D01*
X004167Y015347D02*
X000717Y015347D01*
X000717Y015249D02*
X004167Y015249D01*
X004167Y015150D02*
X000717Y015150D01*
X000717Y015052D02*
X004167Y015052D01*
X004167Y014953D02*
X000717Y014953D01*
X000717Y014855D02*
X004167Y014855D01*
X004167Y014756D02*
X000717Y014756D01*
X000717Y014658D02*
X004167Y014658D01*
X004167Y014559D02*
X000717Y014559D01*
X000717Y014461D02*
X004167Y014461D01*
X004167Y014362D02*
X000717Y014362D01*
X000717Y014264D02*
X004167Y014264D01*
X004167Y014165D02*
X000717Y014165D01*
X000717Y014067D02*
X004167Y014067D01*
X004167Y013968D02*
X000717Y013968D01*
X000717Y013870D02*
X004167Y013870D01*
X004167Y013771D02*
X000717Y013771D01*
X000717Y013673D02*
X004167Y013673D01*
X004167Y013574D02*
X000717Y013574D01*
X000717Y013476D02*
X004167Y013476D01*
X004167Y013377D02*
X000717Y013377D01*
X000717Y013279D02*
X004167Y013279D01*
X004167Y013180D02*
X000717Y013180D01*
X000717Y013082D02*
X004167Y013082D01*
X004167Y012983D02*
X000717Y012983D01*
X000717Y012885D02*
X004167Y012885D01*
X004167Y012786D02*
X000717Y012786D01*
X000717Y012688D02*
X004167Y012688D01*
X004167Y012589D02*
X000717Y012589D01*
X000717Y012491D02*
X004167Y012491D01*
X004167Y012392D02*
X000717Y012392D01*
X000717Y012294D02*
X004167Y012294D01*
X004167Y012195D02*
X000717Y012195D01*
X000717Y012097D02*
X004167Y012097D01*
X004167Y011998D02*
X000717Y011998D01*
X000717Y011900D02*
X004167Y011900D01*
X004167Y011801D02*
X000717Y011801D01*
X000717Y011703D02*
X004167Y011703D01*
X004167Y011604D02*
X000717Y011604D01*
X000717Y011506D02*
X004167Y011506D01*
X004167Y011407D02*
X000717Y011407D01*
X000717Y011309D02*
X004167Y011309D01*
X004167Y011210D02*
X000717Y011210D01*
X000717Y011112D02*
X004167Y011112D01*
X004167Y011013D02*
X000717Y011013D01*
X000717Y010915D02*
X004167Y010915D01*
X004167Y010816D02*
X000717Y010816D01*
X000717Y010718D02*
X004167Y010718D01*
X004167Y010619D02*
X000717Y010619D01*
X000717Y010521D02*
X004167Y010521D01*
X004167Y010422D02*
X003615Y010422D01*
X003615Y010433D02*
X003527Y010520D01*
X003006Y010520D01*
X002918Y010433D01*
X002918Y009911D01*
X003006Y009824D01*
X003527Y009824D01*
X003615Y009911D01*
X003615Y010433D01*
X003615Y010324D02*
X004167Y010324D01*
X004167Y010225D02*
X003615Y010225D01*
X003615Y010127D02*
X004167Y010127D01*
X004167Y010028D02*
X003615Y010028D01*
X003615Y009930D02*
X004167Y009930D01*
X004167Y009831D02*
X003535Y009831D01*
X003336Y009522D02*
X003197Y009522D01*
X003068Y009469D01*
X001970Y008370D01*
X001917Y008242D01*
X001917Y008102D01*
X001970Y007974D01*
X002068Y007875D01*
X002197Y007822D01*
X002336Y007822D01*
X002465Y007875D01*
X003563Y008974D01*
X003617Y009102D01*
X003617Y009242D01*
X003563Y009370D01*
X003465Y009469D01*
X003336Y009522D01*
X003497Y009437D02*
X004167Y009437D01*
X004167Y009339D02*
X003577Y009339D01*
X003617Y009240D02*
X004167Y009240D01*
X004167Y009142D02*
X003617Y009142D01*
X003592Y009043D02*
X004167Y009043D01*
X004167Y008945D02*
X003534Y008945D01*
X003436Y008846D02*
X004167Y008846D01*
X004167Y008748D02*
X003337Y008748D01*
X003239Y008649D02*
X004167Y008649D01*
X004167Y008551D02*
X003140Y008551D01*
X003197Y008522D02*
X003068Y008469D01*
X002470Y007870D01*
X002417Y007742D01*
X002417Y007487D01*
X002336Y007520D01*
X002197Y007520D01*
X002069Y007467D01*
X000717Y007467D01*
X000717Y007369D02*
X001971Y007369D01*
X001918Y007241D01*
X001918Y007103D01*
X001971Y006975D01*
X002069Y006877D01*
X002197Y006824D01*
X002336Y006824D01*
X002417Y006857D01*
X002417Y006817D01*
X001970Y006370D01*
X001917Y006242D01*
X001917Y006102D01*
X001970Y005974D01*
X002068Y005875D01*
X002197Y005822D01*
X002336Y005822D01*
X002465Y005875D01*
X002965Y006375D01*
X003063Y006474D01*
X003117Y006602D01*
X003117Y006857D01*
X003197Y006824D01*
X003336Y006824D01*
X003464Y006877D01*
X003562Y006975D01*
X003615Y007103D01*
X003615Y007241D01*
X003562Y007369D01*
X003464Y007467D01*
X004167Y007467D01*
X004167Y007369D02*
X003562Y007369D01*
X003603Y007270D02*
X004167Y007270D01*
X004167Y007172D02*
X003615Y007172D01*
X003603Y007073D02*
X004167Y007073D01*
X004167Y006975D02*
X003562Y006975D01*
X003463Y006876D02*
X004167Y006876D01*
X004167Y006778D02*
X003117Y006778D01*
X003117Y006679D02*
X004167Y006679D01*
X004167Y006581D02*
X003108Y006581D01*
X003105Y006482D02*
X003067Y006482D01*
X003069Y006467D02*
X002971Y006369D01*
X002918Y006241D01*
X002918Y006103D01*
X002971Y005975D01*
X003069Y005877D01*
X003197Y005824D01*
X003336Y005824D01*
X003464Y005877D01*
X003562Y005975D01*
X003615Y006103D01*
X003615Y006241D01*
X003562Y006369D01*
X003464Y006467D01*
X003336Y006520D01*
X003197Y006520D01*
X003069Y006467D01*
X002985Y006384D02*
X002973Y006384D01*
X002965Y006375D02*
X002965Y006375D01*
X002936Y006285D02*
X002875Y006285D01*
X002918Y006187D02*
X002776Y006187D01*
X002678Y006088D02*
X002924Y006088D01*
X002965Y005990D02*
X002579Y005990D01*
X002481Y005891D02*
X003055Y005891D01*
X003478Y005891D02*
X004167Y005891D01*
X004167Y005793D02*
X000717Y005793D01*
X000717Y005891D02*
X002053Y005891D01*
X001963Y005990D02*
X000717Y005990D01*
X000717Y006088D02*
X001923Y006088D01*
X001917Y006187D02*
X000717Y006187D01*
X000717Y006285D02*
X001935Y006285D01*
X001983Y006384D02*
X000717Y006384D01*
X000717Y006482D02*
X002082Y006482D01*
X002180Y006581D02*
X000717Y006581D01*
X000717Y006679D02*
X002279Y006679D01*
X002377Y006778D02*
X000717Y006778D01*
X000717Y006876D02*
X002071Y006876D01*
X001971Y006975D02*
X000717Y006975D01*
X000717Y007073D02*
X001931Y007073D01*
X001918Y007172D02*
X000717Y007172D01*
X000717Y007270D02*
X001930Y007270D01*
X001971Y007369D02*
X002069Y007467D01*
X002417Y007566D02*
X000717Y007566D01*
X000717Y007664D02*
X002417Y007664D01*
X002425Y007763D02*
X000717Y007763D01*
X000717Y007861D02*
X002103Y007861D01*
X001984Y007960D02*
X000717Y007960D01*
X000717Y008058D02*
X001935Y008058D01*
X001917Y008157D02*
X000717Y008157D01*
X000717Y008255D02*
X001922Y008255D01*
X001963Y008354D02*
X000717Y008354D01*
X000717Y008452D02*
X002052Y008452D01*
X002150Y008551D02*
X000717Y008551D01*
X000717Y008649D02*
X002249Y008649D01*
X002347Y008748D02*
X000717Y008748D01*
X000717Y008846D02*
X002143Y008846D01*
X002197Y008824D02*
X002336Y008824D01*
X002464Y008877D01*
X002562Y008975D01*
X002615Y009103D01*
X002615Y009241D01*
X002562Y009369D01*
X002464Y009467D01*
X002336Y009520D01*
X002197Y009520D01*
X002069Y009467D01*
X001971Y009369D01*
X001918Y009241D01*
X001918Y009103D01*
X001971Y008975D01*
X002069Y008877D01*
X002197Y008824D01*
X002390Y008846D02*
X002446Y008846D01*
X002532Y008945D02*
X002544Y008945D01*
X002590Y009043D02*
X002643Y009043D01*
X002615Y009142D02*
X002741Y009142D01*
X002840Y009240D02*
X002615Y009240D01*
X002575Y009339D02*
X002938Y009339D01*
X003037Y009437D02*
X002494Y009437D01*
X002336Y009824D02*
X002464Y009877D01*
X002562Y009975D01*
X002615Y010103D01*
X002615Y010241D01*
X002562Y010369D01*
X002464Y010467D01*
X002336Y010520D01*
X002197Y010520D01*
X002069Y010467D01*
X001971Y010369D01*
X001918Y010241D01*
X001918Y010103D01*
X001971Y009975D01*
X002069Y009877D01*
X002197Y009824D01*
X002336Y009824D01*
X002354Y009831D02*
X002999Y009831D01*
X002918Y009930D02*
X002517Y009930D01*
X002584Y010028D02*
X002918Y010028D01*
X002918Y010127D02*
X002615Y010127D01*
X002615Y010225D02*
X002918Y010225D01*
X002918Y010324D02*
X002581Y010324D01*
X002509Y010422D02*
X002918Y010422D01*
X002179Y009831D02*
X000717Y009831D01*
X000717Y009733D02*
X004167Y009733D01*
X004167Y009634D02*
X000717Y009634D01*
X000717Y009536D02*
X004167Y009536D01*
X004867Y009043D02*
X005480Y009043D01*
X005328Y008945D02*
X004867Y008945D01*
X004867Y008846D02*
X005255Y008846D01*
X005214Y008748D02*
X004867Y008748D01*
X004867Y008649D02*
X005212Y008649D01*
X005223Y008551D02*
X004867Y008551D01*
X004867Y008452D02*
X005264Y008452D01*
X005349Y008354D02*
X004867Y008354D01*
X004867Y008058D02*
X015401Y008058D01*
X015450Y007960D02*
X004867Y007960D01*
X004867Y007861D02*
X015448Y007861D01*
X015460Y007763D02*
X004867Y007763D01*
X004867Y007664D02*
X015500Y007664D01*
X015585Y007566D02*
X004867Y007566D01*
X004867Y007467D02*
X015768Y007467D01*
X015942Y007467D02*
X016556Y007467D01*
X016730Y007467D02*
X018130Y007467D01*
X018305Y007467D02*
X018918Y007467D01*
X019092Y007467D02*
X020493Y007467D01*
X020667Y007467D02*
X020737Y007467D01*
X020737Y007369D02*
X004867Y007369D01*
X004867Y007270D02*
X020737Y007270D01*
X020737Y007172D02*
X004867Y007172D01*
X004867Y007073D02*
X020732Y007073D01*
X020692Y006975D02*
X004867Y006975D01*
X004867Y006876D02*
X020692Y006876D01*
X020729Y006778D02*
X004867Y006778D01*
X004867Y006679D02*
X020835Y006679D01*
X020850Y006581D02*
X004867Y006581D01*
X004867Y006482D02*
X020751Y006482D01*
X020653Y006384D02*
X004867Y006384D01*
X004867Y006285D02*
X015233Y006285D01*
X015400Y006285D02*
X020554Y006285D01*
X021565Y005596D02*
X026517Y005596D01*
X026517Y005694D02*
X021664Y005694D01*
X021762Y005793D02*
X026517Y005793D01*
X026517Y005891D02*
X021861Y005891D01*
X021959Y005990D02*
X026517Y005990D01*
X026517Y006088D02*
X022058Y006088D01*
X022156Y006187D02*
X026517Y006187D01*
X026517Y006285D02*
X022255Y006285D01*
X022353Y006384D02*
X026517Y006384D01*
X026517Y006482D02*
X022452Y006482D01*
X022550Y006581D02*
X026517Y006581D01*
X026517Y006679D02*
X022649Y006679D01*
X022747Y006778D02*
X026517Y006778D01*
X026517Y006876D02*
X022777Y006876D01*
X022777Y006975D02*
X026517Y006975D01*
X026517Y007073D02*
X022777Y007073D01*
X022777Y007172D02*
X026517Y007172D01*
X026517Y007270D02*
X022777Y007270D01*
X022777Y007369D02*
X026517Y007369D01*
X026517Y007467D02*
X023816Y007467D01*
X023642Y007467D02*
X023029Y007467D01*
X022855Y007467D02*
X022777Y007467D01*
X023212Y007566D02*
X023459Y007566D01*
X023374Y007664D02*
X023297Y007664D01*
X023306Y008058D02*
X023365Y008058D01*
X023438Y008157D02*
X023234Y008157D01*
X023082Y008255D02*
X023589Y008255D01*
X023869Y008255D02*
X024428Y008255D01*
X024436Y008252D02*
X024598Y008252D01*
X024747Y008314D01*
X024781Y008348D01*
X024970Y008348D01*
X025027Y008290D01*
X025506Y008290D01*
X025594Y008378D01*
X025594Y008778D01*
X025506Y008866D01*
X025027Y008866D01*
X024970Y008808D01*
X024896Y008808D01*
X024862Y008890D01*
X024747Y009005D01*
X024598Y009067D01*
X024436Y009067D01*
X024286Y009005D01*
X024171Y008890D01*
X024109Y008741D01*
X024109Y008578D01*
X024171Y008429D01*
X024286Y008314D01*
X024436Y008252D01*
X024605Y008255D02*
X026517Y008255D01*
X026517Y008157D02*
X024021Y008157D01*
X024093Y008058D02*
X026517Y008058D01*
X026517Y007960D02*
X024134Y007960D01*
X024137Y007861D02*
X026517Y007861D01*
X026517Y007763D02*
X024125Y007763D01*
X024084Y007664D02*
X026517Y007664D01*
X026517Y007566D02*
X023999Y007566D01*
X024246Y008354D02*
X023212Y008354D01*
X023297Y008452D02*
X024162Y008452D01*
X024121Y008551D02*
X023338Y008551D01*
X023349Y008649D02*
X024109Y008649D01*
X024112Y008748D02*
X023346Y008748D01*
X023306Y008846D02*
X024153Y008846D01*
X024226Y008945D02*
X023233Y008945D01*
X023081Y009043D02*
X024378Y009043D01*
X024655Y009043D02*
X026517Y009043D01*
X026517Y008945D02*
X024808Y008945D01*
X024880Y008846D02*
X025008Y008846D01*
X025526Y008846D02*
X026517Y008846D01*
X026517Y008748D02*
X025594Y008748D01*
X025594Y008649D02*
X026517Y008649D01*
X026517Y008551D02*
X025594Y008551D01*
X025594Y008452D02*
X026517Y008452D01*
X026517Y008354D02*
X025569Y008354D01*
X026517Y009142D02*
X022429Y009142D01*
X022429Y009240D02*
X026517Y009240D01*
X026517Y009339D02*
X022429Y009339D01*
X022429Y009437D02*
X026517Y009437D01*
X026517Y009536D02*
X022429Y009536D01*
X022429Y009634D02*
X026517Y009634D01*
X026517Y009733D02*
X022429Y009733D01*
X022429Y009831D02*
X026517Y009831D01*
X026517Y009930D02*
X022429Y009930D01*
X022429Y010028D02*
X026517Y010028D01*
X026517Y010127D02*
X022429Y010127D01*
X022429Y010225D02*
X026517Y010225D01*
X026517Y010324D02*
X022429Y010324D01*
X022395Y010422D02*
X026517Y010422D01*
X026517Y010521D02*
X022307Y010521D01*
X022209Y010619D02*
X026517Y010619D01*
X026517Y010718D02*
X022110Y010718D01*
X022012Y010816D02*
X026517Y010816D01*
X026517Y010915D02*
X021913Y010915D01*
X021815Y011013D02*
X026517Y011013D01*
X026517Y011112D02*
X021716Y011112D01*
X021618Y011210D02*
X026517Y011210D01*
X026517Y011309D02*
X021519Y011309D01*
X021239Y012589D02*
X026517Y012589D01*
X026517Y012491D02*
X024137Y012491D01*
X024215Y012392D02*
X026517Y012392D01*
X026517Y012294D02*
X024242Y012294D01*
X024232Y012195D02*
X026517Y012195D01*
X026517Y012097D02*
X024180Y012097D01*
X024024Y011998D02*
X026517Y011998D01*
X026517Y011900D02*
X024128Y011900D01*
X024211Y011801D02*
X026517Y011801D01*
X026517Y011703D02*
X024242Y011703D01*
X024236Y011604D02*
X026517Y011604D01*
X026517Y011506D02*
X024189Y011506D01*
X024046Y011407D02*
X026517Y011407D01*
X026517Y012688D02*
X021140Y012688D01*
X021042Y012786D02*
X026517Y012786D01*
X026517Y012885D02*
X020943Y012885D01*
X020845Y012983D02*
X026517Y012983D01*
X026517Y013082D02*
X020746Y013082D01*
X020648Y013180D02*
X023809Y013180D01*
X023710Y013279D02*
X020549Y013279D01*
X020448Y013377D02*
X023612Y013377D01*
X023513Y013476D02*
X019852Y013476D01*
X019782Y013574D02*
X023415Y013574D01*
X023316Y013673D02*
X019782Y013673D01*
X019782Y013771D02*
X023218Y013771D01*
X022949Y013870D02*
X019782Y013870D01*
X019782Y013968D02*
X022770Y013968D01*
X022686Y014067D02*
X019765Y014067D01*
X019703Y014165D02*
X022645Y014165D01*
X022634Y014264D02*
X019697Y014264D01*
X019697Y014362D02*
X022638Y014362D01*
X022679Y014461D02*
X019737Y014461D01*
X019737Y014559D02*
X022753Y014559D01*
X022908Y014658D02*
X022349Y014658D01*
X022160Y014658D02*
X021562Y014658D01*
X021372Y014658D02*
X020774Y014658D01*
X020585Y014658D02*
X019987Y014658D01*
X019798Y014658D02*
X019737Y014658D01*
X020165Y014756D02*
X020407Y014756D01*
X020323Y014855D02*
X020248Y014855D01*
X020953Y014756D02*
X021194Y014756D01*
X021111Y014855D02*
X021036Y014855D01*
X021740Y014756D02*
X021982Y014756D01*
X021898Y014855D02*
X021823Y014855D01*
X022527Y014756D02*
X022769Y014756D01*
X022686Y014855D02*
X022611Y014855D01*
X020145Y013377D02*
X019951Y013377D01*
X020049Y013279D02*
X020056Y013279D01*
X018527Y014171D02*
X018484Y014128D01*
X018442Y014027D01*
X018442Y014002D01*
X018192Y014002D01*
X018192Y014027D01*
X018150Y014128D01*
X018107Y014171D01*
X018107Y015187D01*
X018147Y015227D01*
X018147Y015292D01*
X018487Y015292D01*
X018487Y015227D01*
X018527Y015187D01*
X018527Y014171D01*
X018521Y014165D02*
X018113Y014165D01*
X018107Y014264D02*
X018527Y014264D01*
X018527Y014362D02*
X018107Y014362D01*
X018107Y014461D02*
X018527Y014461D01*
X018527Y014559D02*
X018107Y014559D01*
X018107Y014658D02*
X018527Y014658D01*
X018527Y014756D02*
X018107Y014756D01*
X018107Y014855D02*
X018527Y014855D01*
X018527Y014953D02*
X018107Y014953D01*
X018107Y015052D02*
X018527Y015052D01*
X018527Y015150D02*
X018107Y015150D01*
X018147Y015249D02*
X018487Y015249D01*
X017727Y015187D02*
X017727Y014171D01*
X017684Y014128D01*
X017642Y014027D01*
X017642Y014002D01*
X017411Y014002D01*
X017411Y014027D01*
X017369Y014128D01*
X017326Y014171D01*
X017326Y015187D01*
X017366Y015227D01*
X017366Y015292D01*
X017687Y015292D01*
X017687Y015227D01*
X017727Y015187D01*
X017727Y015150D02*
X017326Y015150D01*
X017326Y015052D02*
X017727Y015052D01*
X017727Y014953D02*
X017326Y014953D01*
X017326Y014855D02*
X017727Y014855D01*
X017727Y014756D02*
X017326Y014756D01*
X017326Y014658D02*
X017727Y014658D01*
X017727Y014559D02*
X017326Y014559D01*
X017326Y014461D02*
X017727Y014461D01*
X017727Y014362D02*
X017326Y014362D01*
X017326Y014264D02*
X017727Y014264D01*
X017721Y014165D02*
X017332Y014165D01*
X017395Y014067D02*
X017658Y014067D01*
X018175Y014067D02*
X018458Y014067D01*
X017687Y015249D02*
X017366Y015249D01*
X022429Y009043D02*
X022803Y009043D01*
X022651Y008945D02*
X022446Y008945D01*
X022518Y008846D02*
X022578Y008846D01*
X020167Y007960D02*
X019410Y007960D01*
X019412Y007861D02*
X020172Y007861D01*
X020184Y007763D02*
X019401Y007763D01*
X019360Y007664D02*
X020225Y007664D01*
X020310Y007566D02*
X019275Y007566D01*
X019369Y008058D02*
X019955Y008058D01*
X019401Y008157D02*
X019363Y008157D01*
X018735Y007566D02*
X018487Y007566D01*
X018572Y007664D02*
X018650Y007664D01*
X017948Y007566D02*
X016912Y007566D01*
X016998Y007664D02*
X017863Y007664D01*
X017822Y007763D02*
X017038Y007763D01*
X017050Y007861D02*
X017810Y007861D01*
X017805Y007960D02*
X017047Y007960D01*
X017007Y008058D02*
X017706Y008058D01*
X017608Y008157D02*
X016934Y008157D01*
X016783Y008255D02*
X017342Y008255D01*
X017519Y008255D02*
X017587Y008255D01*
X017160Y008354D02*
X016486Y008354D01*
X016477Y008452D02*
X017075Y008452D01*
X017034Y008551D02*
X016443Y008551D01*
X016437Y008649D02*
X017023Y008649D01*
X017025Y008748D02*
X016461Y008748D01*
X016513Y008846D02*
X017066Y008846D01*
X016288Y007664D02*
X016210Y007664D01*
X016125Y007566D02*
X016373Y007566D01*
X015277Y008354D02*
X014551Y008354D01*
X014636Y008452D02*
X015277Y008452D01*
X015277Y008551D02*
X014676Y008551D01*
X014688Y008649D02*
X015277Y008649D01*
X015252Y008748D02*
X014685Y008748D01*
X014644Y008846D02*
X015200Y008846D01*
X014010Y008354D02*
X013763Y008354D01*
X013848Y008452D02*
X013925Y008452D01*
X013223Y008354D02*
X012976Y008354D01*
X013061Y008452D02*
X013138Y008452D01*
X012435Y008354D02*
X012189Y008354D01*
X012273Y008452D02*
X012350Y008452D01*
X011648Y008354D02*
X011401Y008354D01*
X011486Y008452D02*
X011563Y008452D01*
X015092Y006187D02*
X004867Y006187D01*
X004867Y006088D02*
X015046Y006088D01*
X015042Y005990D02*
X004867Y005990D01*
X004867Y005891D02*
X015073Y005891D01*
X015157Y005793D02*
X004867Y005793D01*
X004867Y005694D02*
X015449Y005694D01*
X015442Y005596D02*
X004867Y005596D01*
X004867Y005497D02*
X015471Y005497D01*
X015551Y005399D02*
X004867Y005399D01*
X004867Y005300D02*
X026517Y005300D01*
X026517Y005202D02*
X004867Y005202D01*
X004867Y005103D02*
X026517Y005103D01*
X026522Y005005D02*
X004867Y005005D01*
X004878Y004906D02*
X026537Y004906D01*
X026537Y004808D02*
X004976Y004808D01*
X005075Y004709D02*
X026537Y004709D01*
X026537Y004611D02*
X005173Y004611D01*
X005272Y004512D02*
X026537Y004512D01*
X026537Y004414D02*
X005370Y004414D01*
X005469Y004315D02*
X026537Y004315D01*
X026537Y004217D02*
X005567Y004217D01*
X005666Y004118D02*
X026537Y004118D01*
X026537Y004020D02*
X005764Y004020D01*
X005863Y003921D02*
X026537Y003921D01*
X026537Y003823D02*
X005961Y003823D01*
X006060Y003724D02*
X026537Y003724D01*
X026537Y003626D02*
X006158Y003626D01*
X006257Y003527D02*
X026537Y003527D01*
X026537Y003429D02*
X006355Y003429D01*
X006454Y003330D02*
X026537Y003330D01*
X026537Y003232D02*
X006552Y003232D01*
X006651Y003133D02*
X026537Y003133D01*
X026537Y003035D02*
X006749Y003035D01*
X006848Y002936D02*
X026537Y002936D01*
X027471Y001163D02*
X022600Y001163D01*
X022133Y001163D02*
X021813Y001163D01*
X021345Y001163D02*
X021025Y001163D01*
X020558Y001163D02*
X020238Y001163D01*
X019770Y001163D02*
X019565Y001163D01*
X018868Y001163D02*
X018663Y001163D01*
X018196Y001163D02*
X017876Y001163D01*
X017408Y001163D02*
X017088Y001163D01*
X016621Y001163D02*
X011750Y001163D01*
X011714Y001127D02*
X011812Y001225D01*
X011865Y001353D01*
X011865Y001491D01*
X011812Y001619D01*
X011714Y001717D01*
X011586Y001770D01*
X011447Y001770D01*
X011319Y001717D01*
X011221Y001619D01*
X011168Y001491D01*
X011168Y001353D01*
X011221Y001225D01*
X011319Y001127D01*
X011447Y001074D01*
X011586Y001074D01*
X011714Y001127D01*
X011827Y001262D02*
X016544Y001262D01*
X016506Y001360D02*
X011865Y001360D01*
X011865Y001459D02*
X016506Y001459D01*
X016533Y001557D02*
X011837Y001557D01*
X011776Y001656D02*
X016537Y001656D01*
X016537Y001754D02*
X011625Y001754D01*
X011407Y001754D02*
X010838Y001754D01*
X010798Y001770D02*
X010660Y001770D01*
X010532Y001717D01*
X010433Y001619D01*
X010380Y001491D01*
X010380Y001353D01*
X010433Y001225D01*
X010532Y001127D01*
X010660Y001074D01*
X010798Y001074D01*
X010926Y001127D01*
X011024Y001225D01*
X011077Y001353D01*
X011077Y001491D01*
X011024Y001619D01*
X010926Y001717D01*
X010798Y001770D01*
X010620Y001754D02*
X010050Y001754D01*
X010011Y001770D02*
X009872Y001770D01*
X009744Y001717D01*
X009646Y001619D01*
X009593Y001491D01*
X009593Y001353D01*
X009646Y001225D01*
X009744Y001127D01*
X009872Y001074D01*
X010011Y001074D01*
X010139Y001127D01*
X010237Y001225D01*
X010290Y001353D01*
X010290Y001491D01*
X010237Y001619D01*
X010139Y001717D01*
X010011Y001770D01*
X009833Y001754D02*
X009263Y001754D01*
X009223Y001770D02*
X009085Y001770D01*
X008957Y001717D01*
X008859Y001619D01*
X008806Y001491D01*
X008806Y001353D01*
X008859Y001225D01*
X008957Y001127D01*
X009085Y001074D01*
X009223Y001074D01*
X009351Y001127D01*
X009449Y001225D01*
X009502Y001353D01*
X009502Y001491D01*
X009449Y001619D01*
X009351Y001717D01*
X009223Y001770D01*
X009045Y001754D02*
X008644Y001754D01*
X008627Y001770D02*
X008106Y001770D01*
X008018Y001683D01*
X008018Y001161D01*
X008106Y001074D01*
X008627Y001074D01*
X008715Y001161D01*
X008715Y001683D01*
X008627Y001770D01*
X008715Y001656D02*
X008895Y001656D01*
X008833Y001557D02*
X008715Y001557D01*
X008715Y001459D02*
X008806Y001459D01*
X008806Y001360D02*
X008715Y001360D01*
X008715Y001262D02*
X008843Y001262D01*
X008920Y001163D02*
X008715Y001163D01*
X009388Y001163D02*
X009708Y001163D01*
X009631Y001262D02*
X009465Y001262D01*
X009502Y001360D02*
X009593Y001360D01*
X009593Y001459D02*
X009502Y001459D01*
X009475Y001557D02*
X009620Y001557D01*
X009682Y001656D02*
X009413Y001656D01*
X010201Y001656D02*
X010470Y001656D01*
X010408Y001557D02*
X010263Y001557D01*
X010290Y001459D02*
X010380Y001459D01*
X010380Y001360D02*
X010290Y001360D01*
X010252Y001262D02*
X010418Y001262D01*
X010495Y001163D02*
X010175Y001163D01*
X010963Y001163D02*
X011283Y001163D01*
X011206Y001262D02*
X011040Y001262D01*
X011077Y001360D02*
X011168Y001360D01*
X011168Y001459D02*
X011077Y001459D01*
X011050Y001557D02*
X011195Y001557D01*
X011257Y001656D02*
X010988Y001656D01*
X008090Y001754D02*
X007688Y001754D01*
X007649Y001770D02*
X007510Y001770D01*
X007382Y001717D01*
X007284Y001619D01*
X007231Y001491D01*
X007231Y001353D01*
X007284Y001225D01*
X007382Y001127D01*
X007510Y001074D01*
X007649Y001074D01*
X007777Y001127D01*
X007875Y001225D01*
X007928Y001353D01*
X007928Y001491D01*
X007875Y001619D01*
X007777Y001717D01*
X007649Y001770D01*
X007470Y001754D02*
X006901Y001754D01*
X006861Y001770D02*
X006723Y001770D01*
X006594Y001717D01*
X006496Y001619D01*
X006443Y001491D01*
X006443Y001353D01*
X006496Y001225D01*
X006594Y001127D01*
X006723Y001074D01*
X006861Y001074D01*
X006989Y001127D01*
X007087Y001225D01*
X007140Y001353D01*
X007140Y001491D01*
X007087Y001619D01*
X006989Y001717D01*
X006861Y001770D01*
X006683Y001754D02*
X006113Y001754D01*
X006074Y001770D02*
X005935Y001770D01*
X005807Y001717D01*
X005709Y001619D01*
X005656Y001491D01*
X005656Y001353D01*
X005709Y001225D01*
X005807Y001127D01*
X005935Y001074D01*
X006074Y001074D01*
X006202Y001127D01*
X006300Y001225D01*
X006353Y001353D01*
X006353Y001491D01*
X006300Y001619D01*
X006202Y001717D01*
X006074Y001770D01*
X005896Y001754D02*
X000717Y001754D01*
X000717Y001656D02*
X005745Y001656D01*
X005683Y001557D02*
X000717Y001557D01*
X000717Y001459D02*
X005656Y001459D01*
X005656Y001360D02*
X000717Y001360D01*
X000717Y001262D02*
X005694Y001262D01*
X005771Y001163D02*
X000717Y001163D01*
X000717Y001065D02*
X040217Y001065D01*
X040217Y001163D02*
X033450Y001163D01*
X033414Y001127D02*
X033512Y001225D01*
X033565Y001353D01*
X033565Y001491D01*
X033512Y001619D01*
X033414Y001717D01*
X033286Y001770D01*
X033147Y001770D01*
X033019Y001717D01*
X032921Y001619D01*
X032868Y001491D01*
X032868Y001353D01*
X032921Y001225D01*
X033019Y001127D01*
X033147Y001074D01*
X033286Y001074D01*
X033414Y001127D01*
X033527Y001262D02*
X040217Y001262D01*
X040217Y001360D02*
X033565Y001360D01*
X033565Y001459D02*
X040217Y001459D01*
X040217Y001557D02*
X033537Y001557D01*
X033476Y001656D02*
X040217Y001656D01*
X040217Y001754D02*
X033325Y001754D01*
X033107Y001754D02*
X032538Y001754D01*
X032498Y001770D02*
X032360Y001770D01*
X032232Y001717D01*
X032133Y001619D01*
X032080Y001491D01*
X032080Y001353D01*
X032133Y001225D01*
X032232Y001127D01*
X032360Y001074D01*
X032498Y001074D01*
X032626Y001127D01*
X032724Y001225D01*
X032777Y001353D01*
X032777Y001491D01*
X032724Y001619D01*
X032626Y001717D01*
X032498Y001770D01*
X032320Y001754D02*
X031147Y001754D01*
X031147Y001656D02*
X032170Y001656D01*
X032108Y001557D02*
X031175Y001557D01*
X031202Y001459D02*
X032080Y001459D01*
X032080Y001360D02*
X031202Y001360D01*
X031165Y001262D02*
X032118Y001262D01*
X032195Y001163D02*
X031088Y001163D01*
X030620Y001163D02*
X030415Y001163D01*
X029718Y001163D02*
X029513Y001163D01*
X029046Y001163D02*
X028726Y001163D01*
X028258Y001163D02*
X027938Y001163D01*
X031147Y001853D02*
X040217Y001853D01*
X040217Y001951D02*
X031147Y001951D01*
X031147Y002050D02*
X040217Y002050D01*
X040217Y002148D02*
X031147Y002148D01*
X031147Y002247D02*
X040217Y002247D01*
X040217Y002345D02*
X031147Y002345D01*
X031147Y002444D02*
X040217Y002444D01*
X040217Y002542D02*
X031147Y002542D01*
X031147Y002641D02*
X040217Y002641D01*
X040217Y002739D02*
X031147Y002739D01*
X031147Y002838D02*
X040217Y002838D01*
X040217Y002936D02*
X031226Y002936D01*
X031324Y003035D02*
X040217Y003035D01*
X040217Y003133D02*
X031423Y003133D01*
X031521Y003232D02*
X040217Y003232D01*
X040217Y003330D02*
X031620Y003330D01*
X031718Y003429D02*
X040217Y003429D01*
X040217Y003527D02*
X031817Y003527D01*
X031915Y003626D02*
X040217Y003626D01*
X040217Y003724D02*
X032014Y003724D01*
X032112Y003823D02*
X040217Y003823D01*
X040217Y003921D02*
X032211Y003921D01*
X032309Y004020D02*
X040217Y004020D01*
X040217Y004118D02*
X032408Y004118D01*
X032506Y004217D02*
X040217Y004217D01*
X040217Y004315D02*
X032605Y004315D01*
X032703Y004414D02*
X040217Y004414D01*
X040217Y004512D02*
X032802Y004512D01*
X032900Y004611D02*
X040217Y004611D01*
X040217Y004709D02*
X032999Y004709D01*
X033097Y004808D02*
X040217Y004808D01*
X040217Y004906D02*
X033196Y004906D01*
X033294Y005005D02*
X040217Y005005D01*
X040217Y005103D02*
X033393Y005103D01*
X033491Y005202D02*
X040217Y005202D01*
X040217Y005300D02*
X033590Y005300D01*
X033688Y005399D02*
X040217Y005399D01*
X040217Y005497D02*
X033891Y005497D01*
X034156Y005596D02*
X040217Y005596D01*
X040217Y005694D02*
X034421Y005694D01*
X034686Y005793D02*
X040217Y005793D01*
X040217Y005891D02*
X034951Y005891D01*
X035217Y005990D02*
X040217Y005990D01*
X040217Y006088D02*
X039605Y006088D01*
X039675Y006158D02*
X039675Y006158D01*
X039748Y006187D02*
X040217Y006187D01*
X040217Y006285D02*
X039885Y006285D01*
X039947Y006384D02*
X040217Y006384D01*
X040217Y006482D02*
X039965Y006482D01*
X039964Y006581D02*
X040217Y006581D01*
X040217Y006679D02*
X039947Y006679D01*
X039947Y006778D02*
X040217Y006778D01*
X040217Y006876D02*
X039947Y006876D01*
X039947Y006975D02*
X040217Y006975D01*
X040217Y007073D02*
X039947Y007073D01*
X039947Y007172D02*
X040217Y007172D01*
X040217Y007270D02*
X039965Y007270D01*
X039964Y007369D02*
X040217Y007369D01*
X040217Y007467D02*
X039947Y007467D01*
X039947Y007566D02*
X040217Y007566D01*
X040217Y007664D02*
X039947Y007664D01*
X039947Y007763D02*
X040217Y007763D01*
X040217Y007861D02*
X039947Y007861D01*
X039947Y007960D02*
X040217Y007960D01*
X040217Y008058D02*
X039965Y008058D01*
X039964Y008157D02*
X040217Y008157D01*
X040217Y008255D02*
X039947Y008255D01*
X039947Y008354D02*
X040217Y008354D01*
X040217Y008452D02*
X039947Y008452D01*
X039947Y008551D02*
X040217Y008551D01*
X040217Y008649D02*
X039947Y008649D01*
X039947Y008748D02*
X040217Y008748D01*
X040217Y008846D02*
X039965Y008846D01*
X039964Y008945D02*
X040217Y008945D01*
X040217Y009043D02*
X039947Y009043D01*
X039947Y009142D02*
X040217Y009142D01*
X040217Y009240D02*
X039947Y009240D01*
X039947Y009339D02*
X040217Y009339D01*
X040217Y009437D02*
X039947Y009437D01*
X039947Y009536D02*
X040217Y009536D01*
X040217Y009634D02*
X039947Y009634D01*
X039947Y009733D02*
X040217Y009733D01*
X040217Y009831D02*
X039947Y009831D01*
X039947Y009930D02*
X040217Y009930D01*
X040217Y010028D02*
X039947Y010028D01*
X039947Y010127D02*
X040217Y010127D01*
X040217Y010225D02*
X039947Y010225D01*
X039947Y010324D02*
X040217Y010324D01*
X040217Y010422D02*
X039947Y010422D01*
X039947Y010521D02*
X040217Y010521D01*
X040217Y010619D02*
X039947Y010619D01*
X039947Y010718D02*
X040217Y010718D01*
X040217Y010816D02*
X039947Y010816D01*
X039947Y010915D02*
X040217Y010915D01*
X040217Y011013D02*
X039947Y011013D01*
X039947Y011112D02*
X040217Y011112D01*
X040217Y011210D02*
X039947Y011210D01*
X039947Y011309D02*
X040217Y011309D01*
X040217Y011407D02*
X039947Y011407D01*
X039947Y011506D02*
X040217Y011506D01*
X040217Y011604D02*
X039947Y011604D01*
X039947Y011703D02*
X040217Y011703D01*
X040217Y011801D02*
X039947Y011801D01*
X039947Y011900D02*
X040217Y011900D01*
X040217Y011998D02*
X039947Y011998D01*
X039947Y012097D02*
X040217Y012097D01*
X040217Y012195D02*
X039947Y012195D01*
X039947Y012294D02*
X040217Y012294D01*
X040217Y012392D02*
X039947Y012392D01*
X039947Y012491D02*
X040217Y012491D01*
X040217Y012589D02*
X039947Y012589D01*
X039947Y012688D02*
X040217Y012688D01*
X040217Y012786D02*
X039947Y012786D01*
X039947Y012885D02*
X040217Y012885D01*
X040217Y012983D02*
X039947Y012983D01*
X039947Y013082D02*
X040217Y013082D01*
X040217Y013180D02*
X039947Y013180D01*
X039947Y013279D02*
X040217Y013279D01*
X040217Y013377D02*
X039947Y013377D01*
X039947Y013476D02*
X040217Y013476D01*
X040217Y013574D02*
X039947Y013574D01*
X039947Y013673D02*
X040217Y013673D01*
X040217Y013771D02*
X039947Y013771D01*
X039947Y013870D02*
X040217Y013870D01*
X040217Y013968D02*
X039947Y013968D01*
X039947Y014067D02*
X040217Y014067D01*
X040217Y014165D02*
X039965Y014165D01*
X039965Y014264D02*
X040217Y014264D01*
X040217Y014362D02*
X039947Y014362D01*
X039947Y014461D02*
X040217Y014461D01*
X040217Y014559D02*
X039947Y014559D01*
X039947Y014658D02*
X040217Y014658D01*
X040217Y014756D02*
X039947Y014756D01*
X039947Y014855D02*
X040217Y014855D01*
X040217Y014953D02*
X039965Y014953D01*
X039965Y015052D02*
X040217Y015052D01*
X040217Y015150D02*
X039947Y015150D01*
X039947Y015249D02*
X040217Y015249D01*
X040217Y015347D02*
X039947Y015347D01*
X039947Y015446D02*
X040217Y015446D01*
X040217Y015544D02*
X039947Y015544D01*
X039947Y015643D02*
X040217Y015643D01*
X040217Y015741D02*
X039965Y015741D01*
X039965Y015840D02*
X040217Y015840D01*
X040217Y015938D02*
X039947Y015938D01*
X039947Y016037D02*
X040217Y016037D01*
X040217Y016135D02*
X039947Y016135D01*
X039947Y016234D02*
X040217Y016234D01*
X040217Y016332D02*
X039965Y016332D01*
X039965Y016431D02*
X040217Y016431D01*
X040217Y016529D02*
X039965Y016529D01*
X039965Y016628D02*
X040217Y016628D01*
X040217Y016726D02*
X039965Y016726D01*
X039965Y016825D02*
X040217Y016825D01*
X040217Y016923D02*
X039947Y016923D01*
X039947Y017022D02*
X040217Y017022D01*
X040217Y017120D02*
X039947Y017120D01*
X039947Y017219D02*
X040217Y017219D01*
X040217Y017317D02*
X039965Y017317D01*
X039965Y017416D02*
X040217Y017416D01*
X040217Y017514D02*
X039947Y017514D01*
X039947Y017613D02*
X040217Y017613D01*
X040217Y017711D02*
X039947Y017711D01*
X039947Y017810D02*
X040217Y017810D01*
X040217Y017908D02*
X039947Y017908D01*
X039947Y018007D02*
X040217Y018007D01*
X040217Y018105D02*
X039965Y018105D01*
X039965Y018204D02*
X040217Y018204D01*
X040217Y018302D02*
X039947Y018302D01*
X039947Y018401D02*
X040217Y018401D01*
X040217Y018499D02*
X039947Y018499D01*
X039947Y018598D02*
X040217Y018598D01*
X040217Y018696D02*
X039947Y018696D01*
X039947Y018795D02*
X040217Y018795D01*
X040217Y018893D02*
X039965Y018893D01*
X039965Y018992D02*
X040217Y018992D01*
X040217Y019090D02*
X039947Y019090D01*
X039947Y019189D02*
X040217Y019189D01*
X040217Y019287D02*
X039947Y019287D01*
X039947Y019386D02*
X040217Y019386D01*
X040217Y019484D02*
X039947Y019484D01*
X039947Y019583D02*
X040217Y019583D01*
X040217Y019681D02*
X039965Y019681D01*
X039965Y019780D02*
X040217Y019780D01*
X040217Y019878D02*
X039929Y019878D01*
X039854Y019977D02*
X040217Y019977D01*
X040217Y020075D02*
X039687Y020075D01*
X039587Y020174D02*
X040217Y020174D01*
X040217Y020272D02*
X039486Y020272D01*
X039386Y020371D02*
X040217Y020371D01*
X040217Y020469D02*
X039286Y020469D01*
X039186Y020568D02*
X040217Y020568D01*
X040217Y020666D02*
X039086Y020666D01*
X038986Y020765D02*
X040217Y020765D01*
X040217Y020863D02*
X038886Y020863D01*
X038786Y020962D02*
X040217Y020962D01*
X040217Y021060D02*
X038686Y021060D01*
X038586Y021159D02*
X040217Y021159D01*
X040217Y021257D02*
X038486Y021257D01*
X038385Y021356D02*
X040217Y021356D01*
X040217Y021454D02*
X038285Y021454D01*
X038185Y021553D02*
X040217Y021553D01*
X040217Y021651D02*
X038085Y021651D01*
X037985Y021750D02*
X040217Y021750D01*
X040217Y021848D02*
X037885Y021848D01*
X037785Y021947D02*
X040217Y021947D01*
X040217Y022045D02*
X037685Y022045D01*
X037585Y022144D02*
X040217Y022144D01*
X040217Y022242D02*
X037485Y022242D01*
X037385Y022341D02*
X040217Y022341D01*
X040217Y022439D02*
X037284Y022439D01*
X037184Y022538D02*
X040217Y022538D01*
X040217Y022636D02*
X037084Y022636D01*
X036984Y022735D02*
X040217Y022735D01*
X040217Y022833D02*
X036884Y022833D01*
X036784Y022932D02*
X040217Y022932D01*
X040217Y023030D02*
X036747Y023030D01*
X036747Y023129D02*
X040217Y023129D01*
X040217Y023227D02*
X036747Y023227D01*
X036747Y023326D02*
X040217Y023326D01*
X040217Y023424D02*
X036747Y023424D01*
X036747Y023523D02*
X040217Y023523D01*
X040217Y023621D02*
X036747Y023621D01*
X036747Y023720D02*
X040217Y023720D01*
X040217Y023818D02*
X036747Y023818D01*
X036747Y023917D02*
X040217Y023917D01*
X040217Y024015D02*
X036747Y024015D01*
X036747Y024114D02*
X040217Y024114D01*
X040217Y024212D02*
X036747Y024212D01*
X036747Y024311D02*
X040217Y024311D01*
X040217Y024409D02*
X036747Y024409D01*
X036747Y024508D02*
X040217Y024508D01*
X040217Y024606D02*
X037772Y024606D01*
X037794Y024705D02*
X040217Y024705D01*
X040217Y024803D02*
X039853Y024803D01*
X039928Y024902D02*
X040217Y024902D01*
X040217Y025000D02*
X039965Y025000D01*
X039965Y025099D02*
X040217Y025099D01*
X040217Y025197D02*
X039947Y025197D01*
X039947Y025296D02*
X040217Y025296D01*
X040217Y025394D02*
X039947Y025394D01*
X039947Y025493D02*
X040217Y025493D01*
X040217Y025591D02*
X039947Y025591D01*
X039947Y025690D02*
X040217Y025690D01*
X040217Y025788D02*
X039965Y025788D01*
X039965Y025887D02*
X040217Y025887D01*
X040217Y025985D02*
X039947Y025985D01*
X039947Y026084D02*
X040217Y026084D01*
X040217Y026182D02*
X039947Y026182D01*
X039947Y026281D02*
X040217Y026281D01*
X040217Y026379D02*
X039947Y026379D01*
X039947Y026478D02*
X040217Y026478D01*
X040217Y026576D02*
X039965Y026576D01*
X039965Y026675D02*
X040217Y026675D01*
X040217Y026773D02*
X039947Y026773D01*
X039947Y026872D02*
X040217Y026872D01*
X040217Y026970D02*
X039947Y026970D01*
X039947Y027069D02*
X040217Y027069D01*
X040217Y027167D02*
X039965Y027167D01*
X039965Y027266D02*
X040217Y027266D01*
X040217Y027364D02*
X039965Y027364D01*
X039965Y027463D02*
X040217Y027463D01*
X040217Y027561D02*
X039965Y027561D01*
X039965Y027660D02*
X040217Y027660D01*
X040217Y027758D02*
X039947Y027758D01*
X039947Y027857D02*
X040217Y027857D01*
X040217Y027955D02*
X039947Y027955D01*
X039947Y028054D02*
X040217Y028054D01*
X040217Y028152D02*
X039965Y028152D01*
X039965Y028251D02*
X040217Y028251D01*
X040217Y028349D02*
X039947Y028349D01*
X039947Y028448D02*
X040217Y028448D01*
X040217Y028546D02*
X039947Y028546D01*
X039947Y028645D02*
X040217Y028645D01*
X040217Y028743D02*
X039947Y028743D01*
X039947Y028842D02*
X040217Y028842D01*
X040217Y028940D02*
X039965Y028940D01*
X039965Y029039D02*
X040217Y029039D01*
X040217Y029137D02*
X039947Y029137D01*
X039947Y029236D02*
X040217Y029236D01*
X040217Y029334D02*
X039947Y029334D01*
X039947Y029433D02*
X040217Y029433D01*
X040217Y029531D02*
X039947Y029531D01*
X039947Y029630D02*
X040217Y029630D01*
X040217Y029728D02*
X039965Y029728D01*
X039965Y029827D02*
X040217Y029827D01*
X040217Y029925D02*
X039935Y029925D01*
X039870Y030024D02*
X040217Y030024D01*
X040217Y030122D02*
X039711Y030122D01*
X040217Y030221D02*
X039047Y030221D01*
X038554Y030319D02*
X040217Y030319D01*
X040217Y030418D02*
X037587Y030418D01*
X037560Y030516D02*
X040217Y030516D01*
X040217Y030615D02*
X037507Y030615D01*
X037686Y030319D02*
X037987Y030319D01*
X037044Y030024D02*
X024665Y030024D01*
X024665Y029925D02*
X033220Y029925D01*
X033111Y029827D02*
X024644Y029827D01*
X024604Y029728D02*
X033013Y029728D01*
X032914Y029630D02*
X024520Y029630D01*
X024642Y030122D02*
X036985Y030122D01*
X036985Y030221D02*
X024602Y030221D01*
X024515Y030319D02*
X036983Y030319D01*
X036985Y030418D02*
X024356Y030418D01*
X024026Y030418D02*
X022387Y030418D01*
X022547Y030319D02*
X023866Y030319D01*
X023780Y030221D02*
X022633Y030221D01*
X022674Y030122D02*
X023739Y030122D01*
X023716Y030024D02*
X022697Y030024D01*
X022697Y029925D02*
X023716Y029925D01*
X023737Y029827D02*
X022676Y029827D01*
X022635Y029728D02*
X023778Y029728D01*
X023862Y029630D02*
X022551Y029630D01*
X021893Y029630D02*
X020583Y029630D01*
X020667Y029728D02*
X021809Y029728D01*
X021768Y029827D02*
X020707Y029827D01*
X020728Y029925D02*
X021747Y029925D01*
X021747Y030024D02*
X020728Y030024D01*
X020705Y030122D02*
X021770Y030122D01*
X021811Y030221D02*
X020665Y030221D01*
X020578Y030319D02*
X021898Y030319D01*
X022057Y030418D02*
X020419Y030418D01*
X020089Y030418D02*
X018450Y030418D01*
X018610Y030319D02*
X019929Y030319D01*
X019843Y030221D02*
X018696Y030221D01*
X018737Y030122D02*
X019802Y030122D01*
X019779Y030024D02*
X018760Y030024D01*
X018760Y029925D02*
X019779Y029925D01*
X019800Y029827D02*
X018739Y029827D01*
X018698Y029728D02*
X019841Y029728D01*
X019925Y029630D02*
X018614Y029630D01*
X017956Y029630D02*
X016791Y029630D01*
X016791Y029585D02*
X016704Y029497D01*
X015930Y029497D01*
X015842Y029585D01*
X015842Y030359D01*
X015930Y030447D01*
X016704Y030447D01*
X016791Y030359D01*
X016791Y029585D01*
X016737Y029531D02*
X017024Y029531D01*
X016888Y029433D02*
X000717Y029433D01*
X000717Y029531D02*
X004346Y029531D01*
X004380Y029497D02*
X005154Y029497D01*
X005241Y029585D01*
X005241Y030359D01*
X005154Y030447D01*
X004380Y030447D01*
X004292Y030359D01*
X004292Y029585D01*
X004380Y029497D01*
X004292Y029630D02*
X000717Y029630D01*
X000717Y029728D02*
X004292Y029728D01*
X004292Y029827D02*
X000717Y029827D01*
X000717Y029925D02*
X004292Y029925D01*
X004292Y030024D02*
X000717Y030024D01*
X000717Y030122D02*
X004292Y030122D01*
X004292Y030221D02*
X000717Y030221D01*
X000717Y030319D02*
X004292Y030319D01*
X004351Y030418D02*
X000717Y030418D01*
X000717Y030516D02*
X036985Y030516D01*
X037038Y030615D02*
X000717Y030615D01*
X000717Y030713D02*
X040217Y030713D01*
X040217Y030812D02*
X000717Y030812D01*
X000717Y030910D02*
X040217Y030910D01*
X040217Y031009D02*
X000717Y031009D01*
X000717Y031107D02*
X040217Y031107D01*
X040217Y031206D02*
X000717Y031206D01*
X000717Y031304D02*
X040217Y031304D01*
X040217Y031403D02*
X000717Y031403D01*
X000717Y031501D02*
X040217Y031501D01*
X040217Y031600D02*
X000717Y031600D01*
X000717Y031698D02*
X040217Y031698D01*
X040217Y031797D02*
X000717Y031797D01*
X000717Y031895D02*
X040217Y031895D01*
X040217Y031994D02*
X000717Y031994D01*
X000717Y032092D02*
X040217Y032092D01*
X040217Y032191D02*
X000717Y032191D01*
X000717Y032289D02*
X040217Y032289D01*
X040217Y032322D02*
X000717Y032322D01*
X000717Y000822D01*
X040217Y000822D01*
X040217Y032322D01*
X036985Y029092D02*
X036212Y029092D01*
X035963Y028843D01*
X036159Y028452D01*
X036671Y028452D01*
X036821Y028602D01*
X037156Y028602D01*
X037183Y028629D01*
X037183Y028645D01*
X037073Y028645D01*
X036985Y028733D01*
X036985Y028909D01*
X036983Y028914D01*
X036983Y029030D01*
X036985Y029035D01*
X036985Y029092D01*
X036985Y029039D02*
X036159Y029039D01*
X036060Y028940D02*
X036983Y028940D01*
X036985Y028842D02*
X035964Y028842D01*
X036013Y028743D02*
X036985Y028743D01*
X037183Y028645D02*
X036063Y028645D01*
X036112Y028546D02*
X036765Y028546D01*
X037012Y028142D02*
X037156Y028142D01*
X037234Y028065D01*
X037637Y028065D01*
X037637Y027380D01*
X037234Y027380D01*
X037159Y027305D01*
X036849Y027615D01*
X036849Y027992D01*
X036862Y027992D01*
X036997Y028127D01*
X037012Y028142D01*
X036924Y028054D02*
X037637Y028054D01*
X037637Y027955D02*
X036849Y027955D01*
X036849Y027857D02*
X037637Y027857D01*
X037637Y027758D02*
X036849Y027758D01*
X036849Y027660D02*
X037637Y027660D01*
X037637Y027561D02*
X036903Y027561D01*
X037001Y027463D02*
X037637Y027463D01*
X037218Y027364D02*
X037100Y027364D01*
X036778Y025985D02*
X036747Y025985D01*
X036747Y025887D02*
X036877Y025887D01*
X036975Y025788D02*
X036747Y025788D01*
X036747Y025690D02*
X037074Y025690D01*
X037146Y025591D02*
X036747Y025591D01*
X036747Y025493D02*
X037177Y025493D01*
X037177Y025394D02*
X036747Y025394D01*
X036747Y025296D02*
X037177Y025296D01*
X037177Y025197D02*
X036747Y025197D01*
X036747Y025099D02*
X037177Y025099D01*
X037140Y025000D02*
X036747Y025000D01*
X036747Y024902D02*
X037140Y024902D01*
X037140Y024803D02*
X036747Y024803D01*
X036747Y024705D02*
X037140Y024705D01*
X037161Y024606D02*
X036747Y024606D01*
X037794Y024803D02*
X039381Y024803D01*
X039305Y024902D02*
X037813Y024902D01*
X037977Y025000D02*
X039268Y025000D01*
X039268Y025099D02*
X039176Y025099D01*
X039244Y025197D02*
X039296Y025197D01*
X039244Y025296D02*
X039360Y025296D01*
X039244Y025394D02*
X039487Y025394D01*
X039487Y025493D02*
X039244Y025493D01*
X032816Y029531D02*
X027760Y029531D01*
X027895Y029433D02*
X032717Y029433D01*
X032619Y029334D02*
X027949Y029334D01*
X027945Y029236D02*
X032520Y029236D01*
X032422Y029137D02*
X027909Y029137D01*
X027822Y029039D02*
X032323Y029039D01*
X032225Y028940D02*
X027697Y028940D01*
X027591Y028842D02*
X032126Y028842D01*
X032028Y028743D02*
X027485Y028743D01*
X027379Y028645D02*
X031929Y028645D01*
X031831Y028546D02*
X027292Y028546D01*
X027292Y028448D02*
X031732Y028448D01*
X031634Y028349D02*
X027292Y028349D01*
X027292Y028251D02*
X031535Y028251D01*
X031437Y028152D02*
X027292Y028152D01*
X027292Y028054D02*
X031338Y028054D01*
X031240Y027955D02*
X027292Y027955D01*
X027292Y027857D02*
X031141Y027857D01*
X031043Y027758D02*
X027292Y027758D01*
X026517Y020852D02*
X025722Y020852D01*
X025272Y020402D01*
X025862Y020402D01*
X025997Y020267D01*
X026202Y020062D01*
X026517Y020062D01*
X026517Y020852D01*
X026517Y020765D02*
X025634Y020765D01*
X025536Y020666D02*
X026517Y020666D01*
X026517Y020568D02*
X025437Y020568D01*
X025339Y020469D02*
X026517Y020469D01*
X026517Y020371D02*
X025893Y020371D01*
X025992Y020272D02*
X026517Y020272D01*
X026517Y020174D02*
X026090Y020174D01*
X026189Y020075D02*
X026517Y020075D01*
X016199Y028743D02*
X000717Y028743D01*
X000717Y028645D02*
X016100Y028645D01*
X016002Y028546D02*
X000717Y028546D01*
X000717Y028448D02*
X005333Y028448D01*
X005364Y028478D02*
X005276Y028390D01*
X005276Y027617D01*
X005364Y027529D01*
X006138Y027529D01*
X006226Y027617D01*
X006226Y028390D01*
X006138Y028478D01*
X005364Y028478D01*
X005276Y028349D02*
X000717Y028349D01*
X000717Y028251D02*
X005276Y028251D01*
X005276Y028152D02*
X000717Y028152D01*
X000717Y028054D02*
X005276Y028054D01*
X005276Y027955D02*
X000717Y027955D01*
X000717Y027857D02*
X005276Y027857D01*
X005276Y027758D02*
X000717Y027758D01*
X000717Y027660D02*
X005276Y027660D01*
X005332Y027561D02*
X000717Y027561D01*
X000717Y027463D02*
X014918Y027463D01*
X015017Y027561D02*
X011829Y027561D01*
X011751Y027529D02*
X011925Y027601D01*
X012059Y027735D01*
X012131Y027909D01*
X012131Y028098D01*
X012059Y028272D01*
X011925Y028406D01*
X011751Y028478D01*
X011562Y028478D01*
X011387Y028406D01*
X011254Y028272D01*
X011182Y028098D01*
X011182Y027909D01*
X011254Y027735D01*
X011387Y027601D01*
X011562Y027529D01*
X011751Y027529D01*
X011984Y027660D02*
X015115Y027660D01*
X015214Y027758D02*
X012069Y027758D01*
X012109Y027857D02*
X015312Y027857D01*
X015411Y027955D02*
X012131Y027955D01*
X012131Y028054D02*
X015509Y028054D01*
X015608Y028152D02*
X012109Y028152D01*
X012068Y028251D02*
X015706Y028251D01*
X015805Y028349D02*
X011982Y028349D01*
X011825Y028448D02*
X015903Y028448D01*
X016297Y028842D02*
X000717Y028842D01*
X000717Y028940D02*
X016396Y028940D01*
X016494Y029039D02*
X000717Y029039D01*
X000717Y029137D02*
X016593Y029137D01*
X016691Y029236D02*
X000717Y029236D01*
X000717Y029334D02*
X016790Y029334D01*
X016791Y029728D02*
X017872Y029728D01*
X017831Y029827D02*
X016791Y029827D01*
X016791Y029925D02*
X017810Y029925D01*
X017810Y030024D02*
X016791Y030024D01*
X016791Y030122D02*
X017833Y030122D01*
X017874Y030221D02*
X016791Y030221D01*
X016791Y030319D02*
X017961Y030319D01*
X018120Y030418D02*
X016733Y030418D01*
X015901Y030418D02*
X010837Y030418D01*
X010767Y030447D02*
X010578Y030447D01*
X010403Y030375D01*
X010270Y030241D01*
X010197Y030066D01*
X010197Y029878D01*
X010270Y029703D01*
X010403Y029570D01*
X010578Y029497D01*
X010767Y029497D01*
X010941Y029570D01*
X011075Y029703D01*
X011147Y029878D01*
X011147Y030066D01*
X011075Y030241D01*
X010941Y030375D01*
X010767Y030447D01*
X010507Y030418D02*
X008869Y030418D01*
X008798Y030447D02*
X008609Y030447D01*
X008435Y030375D01*
X008301Y030241D01*
X008229Y030066D01*
X008229Y029878D01*
X008301Y029703D01*
X008435Y029570D01*
X008609Y029497D01*
X008798Y029497D01*
X008973Y029570D01*
X009106Y029703D01*
X009178Y029878D01*
X009178Y030066D01*
X009106Y030241D01*
X008973Y030375D01*
X008798Y030447D01*
X008539Y030418D02*
X006900Y030418D01*
X006830Y030447D02*
X006641Y030447D01*
X006466Y030375D01*
X006333Y030241D01*
X006260Y030066D01*
X006260Y029878D01*
X006333Y029703D01*
X006466Y029570D01*
X006641Y029497D01*
X006830Y029497D01*
X007004Y029570D01*
X007138Y029703D01*
X007210Y029878D01*
X007210Y030066D01*
X007138Y030241D01*
X007004Y030375D01*
X006830Y030447D01*
X006570Y030418D02*
X005183Y030418D01*
X005241Y030319D02*
X006411Y030319D01*
X006324Y030221D02*
X005241Y030221D01*
X005241Y030122D02*
X006283Y030122D01*
X006260Y030024D02*
X005241Y030024D01*
X005241Y029925D02*
X006260Y029925D01*
X006281Y029827D02*
X005241Y029827D01*
X005241Y029728D02*
X006322Y029728D01*
X006406Y029630D02*
X005241Y029630D01*
X005187Y029531D02*
X006559Y029531D01*
X006911Y029531D02*
X008527Y029531D01*
X008375Y029630D02*
X007064Y029630D01*
X007148Y029728D02*
X008291Y029728D01*
X008250Y029827D02*
X007189Y029827D01*
X007210Y029925D02*
X008229Y029925D01*
X008229Y030024D02*
X007210Y030024D01*
X007187Y030122D02*
X008252Y030122D01*
X008293Y030221D02*
X007146Y030221D01*
X007060Y030319D02*
X008379Y030319D01*
X009028Y030319D02*
X010348Y030319D01*
X010261Y030221D02*
X009115Y030221D01*
X009155Y030122D02*
X010220Y030122D01*
X010197Y030024D02*
X009178Y030024D01*
X009178Y029925D02*
X010197Y029925D01*
X010218Y029827D02*
X009157Y029827D01*
X009117Y029728D02*
X010259Y029728D01*
X010343Y029630D02*
X009033Y029630D01*
X008880Y029531D02*
X010496Y029531D01*
X010848Y029531D02*
X015896Y029531D01*
X015842Y029630D02*
X011001Y029630D01*
X011085Y029728D02*
X015842Y029728D01*
X015842Y029827D02*
X011126Y029827D01*
X011147Y029925D02*
X015842Y029925D01*
X015842Y030024D02*
X011147Y030024D01*
X011124Y030122D02*
X015842Y030122D01*
X015842Y030221D02*
X011083Y030221D01*
X010997Y030319D02*
X015842Y030319D01*
X014820Y027364D02*
X000717Y027364D01*
X000717Y027266D02*
X014721Y027266D01*
X014623Y027167D02*
X000717Y027167D01*
X000717Y027069D02*
X014524Y027069D01*
X014426Y026970D02*
X000717Y026970D01*
X000717Y026872D02*
X014327Y026872D01*
X014229Y026773D02*
X000717Y026773D01*
X000717Y026675D02*
X014132Y026675D01*
X014092Y026576D02*
X000717Y026576D01*
X000717Y026478D02*
X014092Y026478D01*
X014092Y026379D02*
X000717Y026379D01*
X000717Y026281D02*
X014092Y026281D01*
X014092Y026182D02*
X000717Y026182D01*
X000717Y026084D02*
X014092Y026084D01*
X014092Y025985D02*
X000717Y025985D01*
X000717Y025887D02*
X014092Y025887D01*
X014092Y025788D02*
X000717Y025788D01*
X000717Y025690D02*
X014092Y025690D01*
X014092Y025591D02*
X000717Y025591D01*
X000717Y025493D02*
X014027Y025493D01*
X013929Y025394D02*
X000717Y025394D01*
X000717Y025296D02*
X013830Y025296D01*
X013732Y025197D02*
X000717Y025197D01*
X000717Y025099D02*
X013633Y025099D01*
X013727Y025193D02*
X013727Y025193D01*
X013535Y025000D02*
X010528Y025000D01*
X010629Y024902D02*
X013436Y024902D01*
X013338Y024803D02*
X010731Y024803D01*
X010833Y024705D02*
X013239Y024705D01*
X013141Y024606D02*
X010935Y024606D01*
X011038Y024508D02*
X013042Y024508D01*
X012944Y024409D02*
X011140Y024409D01*
X011242Y024311D02*
X012845Y024311D01*
X012747Y024212D02*
X011345Y024212D01*
X011447Y024114D02*
X012648Y024114D01*
X012550Y024015D02*
X011549Y024015D01*
X011651Y023917D02*
X012451Y023917D01*
X012353Y023818D02*
X011754Y023818D01*
X011856Y023720D02*
X012254Y023720D01*
X012156Y023621D02*
X011953Y023621D01*
X011992Y023523D02*
X012057Y023523D01*
X008130Y022833D02*
X000717Y022833D01*
X000717Y022735D02*
X008137Y022735D01*
X008137Y022636D02*
X000717Y022636D01*
X000717Y022538D02*
X008137Y022538D01*
X008137Y022439D02*
X000717Y022439D01*
X000717Y022341D02*
X008137Y022341D01*
X008137Y022242D02*
X000717Y022242D01*
X000717Y022144D02*
X008137Y022144D01*
X008137Y022045D02*
X000717Y022045D01*
X000717Y021947D02*
X008137Y021947D01*
X008137Y021848D02*
X000717Y021848D01*
X000717Y021750D02*
X008137Y021750D01*
X008137Y021651D02*
X000717Y021651D01*
X000717Y021553D02*
X008137Y021553D01*
X008137Y021454D02*
X000717Y021454D01*
X000717Y021356D02*
X008137Y021356D01*
X008137Y021257D02*
X000717Y021257D01*
X000717Y021159D02*
X008137Y021159D01*
X008137Y021060D02*
X000717Y021060D01*
X000717Y020962D02*
X008137Y020962D01*
X008032Y022932D02*
X000717Y022932D01*
X000717Y023030D02*
X007933Y023030D01*
X007835Y023129D02*
X000717Y023129D01*
X000717Y023227D02*
X007736Y023227D01*
X007638Y023326D02*
X000717Y023326D01*
X000717Y023424D02*
X007539Y023424D01*
X007441Y023523D02*
X000717Y023523D01*
X000717Y023621D02*
X007342Y023621D01*
X007244Y023720D02*
X000717Y023720D01*
X000717Y023818D02*
X007145Y023818D01*
X007047Y023917D02*
X000717Y023917D01*
X000717Y024015D02*
X006948Y024015D01*
X006822Y024114D02*
X000717Y024114D01*
X000717Y024212D02*
X006688Y024212D01*
X006644Y024311D02*
X000717Y024311D01*
X000717Y024409D02*
X006642Y024409D01*
X003936Y024508D02*
X000717Y024508D01*
X000717Y024606D02*
X003794Y024606D01*
X003747Y024705D02*
X000717Y024705D01*
X000717Y024803D02*
X003742Y024803D01*
X003773Y024902D02*
X000717Y024902D01*
X000717Y025000D02*
X003856Y025000D01*
X006170Y027561D02*
X007547Y027561D01*
X007625Y027529D02*
X007814Y027529D01*
X007988Y027601D01*
X008122Y027735D01*
X008194Y027909D01*
X008194Y028098D01*
X008122Y028272D01*
X007988Y028406D01*
X007814Y028478D01*
X007625Y028478D01*
X007450Y028406D01*
X007317Y028272D01*
X007245Y028098D01*
X007245Y027909D01*
X007317Y027735D01*
X007450Y027601D01*
X007625Y027529D01*
X007392Y027660D02*
X006226Y027660D01*
X006226Y027758D02*
X007307Y027758D01*
X007266Y027857D02*
X006226Y027857D01*
X006226Y027955D02*
X007245Y027955D01*
X007245Y028054D02*
X006226Y028054D01*
X006226Y028152D02*
X007267Y028152D01*
X007308Y028251D02*
X006226Y028251D01*
X006226Y028349D02*
X007394Y028349D01*
X007551Y028448D02*
X006169Y028448D01*
X007888Y028448D02*
X009519Y028448D01*
X009593Y028478D02*
X009419Y028406D01*
X009285Y028272D01*
X009213Y028098D01*
X009213Y027909D01*
X009285Y027735D01*
X009419Y027601D01*
X009593Y027529D01*
X009782Y027529D01*
X009957Y027601D01*
X010090Y027735D01*
X010163Y027909D01*
X010163Y028098D01*
X010090Y028272D01*
X009957Y028406D01*
X009782Y028478D01*
X009593Y028478D01*
X009362Y028349D02*
X008045Y028349D01*
X008131Y028251D02*
X009276Y028251D01*
X009236Y028152D02*
X008172Y028152D01*
X008194Y028054D02*
X009213Y028054D01*
X009213Y027955D02*
X008194Y027955D01*
X008172Y027857D02*
X009235Y027857D01*
X009276Y027758D02*
X008132Y027758D01*
X008047Y027660D02*
X009360Y027660D01*
X009515Y027561D02*
X007892Y027561D01*
X009861Y027561D02*
X011484Y027561D01*
X011329Y027660D02*
X010015Y027660D01*
X010100Y027758D02*
X011244Y027758D01*
X011203Y027857D02*
X010141Y027857D01*
X010163Y027955D02*
X011182Y027955D01*
X011182Y028054D02*
X010163Y028054D01*
X010140Y028152D02*
X011204Y028152D01*
X011245Y028251D02*
X010100Y028251D01*
X010014Y028349D02*
X011331Y028349D01*
X011488Y028448D02*
X009857Y028448D01*
X002024Y010422D02*
X000717Y010422D01*
X000717Y010324D02*
X001952Y010324D01*
X001918Y010225D02*
X000717Y010225D01*
X000717Y010127D02*
X001918Y010127D01*
X001949Y010028D02*
X000717Y010028D01*
X000717Y009930D02*
X002016Y009930D01*
X002039Y009437D02*
X000717Y009437D01*
X000717Y009339D02*
X001959Y009339D01*
X001918Y009240D02*
X000717Y009240D01*
X000717Y009142D02*
X001918Y009142D01*
X001943Y009043D02*
X000717Y009043D01*
X000717Y008945D02*
X002001Y008945D01*
X002845Y008255D02*
X002855Y008255D01*
X002943Y008354D02*
X002953Y008354D01*
X003042Y008452D02*
X003052Y008452D01*
X003197Y008522D02*
X003336Y008522D01*
X003465Y008469D01*
X003563Y008370D01*
X003617Y008242D01*
X003617Y008102D01*
X003563Y007974D01*
X003117Y007527D01*
X003117Y007487D01*
X003197Y007520D01*
X003336Y007520D01*
X003464Y007467D01*
X003254Y007664D02*
X004167Y007664D01*
X004167Y007566D02*
X003155Y007566D01*
X003352Y007763D02*
X004167Y007763D01*
X004167Y007861D02*
X003451Y007861D01*
X003549Y007960D02*
X004167Y007960D01*
X004167Y008058D02*
X003598Y008058D01*
X003617Y008157D02*
X004167Y008157D01*
X004167Y008255D02*
X003611Y008255D01*
X003570Y008354D02*
X004167Y008354D01*
X004167Y008452D02*
X003482Y008452D01*
X002756Y008157D02*
X002746Y008157D01*
X002658Y008058D02*
X002648Y008058D01*
X002559Y007960D02*
X002549Y007960D01*
X002466Y007861D02*
X002430Y007861D01*
X003429Y006482D02*
X004167Y006482D01*
X004167Y006384D02*
X003548Y006384D01*
X003597Y006285D02*
X004167Y006285D01*
X004167Y006187D02*
X003615Y006187D01*
X003609Y006088D02*
X004167Y006088D01*
X004167Y005990D02*
X003568Y005990D01*
X004167Y005694D02*
X000717Y005694D01*
X000717Y005596D02*
X004167Y005596D01*
X004167Y005497D02*
X000717Y005497D01*
X000717Y005399D02*
X004167Y005399D01*
X004167Y005300D02*
X000717Y005300D01*
X000717Y005202D02*
X004167Y005202D01*
X004167Y005103D02*
X000717Y005103D01*
X000717Y005005D02*
X004167Y005005D01*
X004167Y004906D02*
X000717Y004906D01*
X000717Y004808D02*
X004167Y004808D01*
X004167Y004709D02*
X000717Y004709D01*
X000717Y004611D02*
X004205Y004611D01*
X004282Y004512D02*
X000717Y004512D01*
X000717Y004414D02*
X004380Y004414D01*
X004479Y004315D02*
X000717Y004315D01*
X000717Y004217D02*
X004577Y004217D01*
X004676Y004118D02*
X000717Y004118D01*
X000717Y004020D02*
X004774Y004020D01*
X004873Y003921D02*
X000717Y003921D01*
X000717Y003823D02*
X004971Y003823D01*
X005070Y003724D02*
X000717Y003724D01*
X000717Y003626D02*
X005168Y003626D01*
X005267Y003527D02*
X000717Y003527D01*
X000717Y003429D02*
X005365Y003429D01*
X005464Y003330D02*
X000717Y003330D01*
X000717Y003232D02*
X005562Y003232D01*
X005661Y003133D02*
X000717Y003133D01*
X000717Y003035D02*
X005759Y003035D01*
X005858Y002936D02*
X000717Y002936D01*
X000717Y002838D02*
X005956Y002838D01*
X006055Y002739D02*
X000717Y002739D01*
X000717Y002641D02*
X006153Y002641D01*
X006252Y002542D02*
X000717Y002542D01*
X000717Y002444D02*
X006350Y002444D01*
X006449Y002345D02*
X000717Y002345D01*
X000717Y002247D02*
X006596Y002247D01*
X006533Y001656D02*
X006264Y001656D01*
X006326Y001557D02*
X006471Y001557D01*
X006443Y001459D02*
X006353Y001459D01*
X006353Y001360D02*
X006443Y001360D01*
X006481Y001262D02*
X006315Y001262D01*
X006238Y001163D02*
X006558Y001163D01*
X007026Y001163D02*
X007346Y001163D01*
X007269Y001262D02*
X007103Y001262D01*
X007140Y001360D02*
X007231Y001360D01*
X007231Y001459D02*
X007140Y001459D01*
X007113Y001557D02*
X007258Y001557D01*
X007320Y001656D02*
X007051Y001656D01*
X007839Y001656D02*
X008018Y001656D01*
X008018Y001557D02*
X007900Y001557D01*
X007928Y001459D02*
X008018Y001459D01*
X008018Y001360D02*
X007928Y001360D01*
X007890Y001262D02*
X008018Y001262D01*
X008018Y001163D02*
X007813Y001163D01*
X000717Y000966D02*
X040217Y000966D01*
X040217Y000868D02*
X000717Y000868D01*
X000717Y001853D02*
X016537Y001853D01*
X016537Y001951D02*
X000717Y001951D01*
X000717Y002050D02*
X016537Y002050D01*
X016537Y002148D02*
X000717Y002148D01*
X021368Y005399D02*
X026517Y005399D01*
X026517Y005497D02*
X021467Y005497D01*
X032688Y001656D02*
X032957Y001656D01*
X032895Y001557D02*
X032750Y001557D01*
X032777Y001459D02*
X032868Y001459D01*
X032868Y001360D02*
X032777Y001360D01*
X032740Y001262D02*
X032906Y001262D01*
X032983Y001163D02*
X032663Y001163D01*
D29*
X001727Y001832D03*
X001727Y030822D03*
X029967Y030822D03*
D30*
X029067Y029922D01*
X029067Y026082D01*
D31*
X027017Y026172D02*
X027017Y028622D01*
X027667Y029272D02*
X017117Y029272D01*
X014367Y026522D01*
X014367Y025422D01*
X011717Y023472D02*
X010367Y024772D01*
X004017Y024772D01*
X005719Y014272D02*
X009369Y010622D01*
X009956Y010622D01*
X011918Y008659D01*
X012706Y008659D02*
X010393Y010972D01*
X009806Y010972D01*
X006506Y014272D01*
X007294Y014272D02*
X010244Y011322D01*
X010830Y011322D01*
X013493Y008659D01*
X014280Y008659D02*
X011268Y011672D01*
X010681Y011672D01*
X008081Y014272D01*
X008869Y014272D02*
X011119Y012022D01*
X012917Y012022D01*
X015467Y009472D01*
X015467Y008922D01*
X016247Y008922D02*
X016247Y009492D01*
X013367Y012372D01*
X011556Y012372D01*
X009656Y014272D01*
X010443Y014272D02*
X011993Y012722D01*
X014567Y012722D01*
X017817Y009472D01*
X017817Y008922D01*
X018617Y008922D02*
X018617Y009472D01*
X015017Y013072D01*
X012431Y013072D01*
X011231Y014272D01*
X012018Y014272D02*
X012868Y013422D01*
X015467Y013422D01*
X019405Y009484D01*
X019405Y008922D01*
X019792Y008659D02*
X019792Y010946D01*
X017136Y013602D01*
X017136Y013972D01*
X017917Y013972D02*
X017917Y013622D01*
X020580Y010959D01*
X020580Y008659D01*
X022154Y008659D02*
X022154Y010284D01*
X018717Y013722D01*
X018717Y013972D01*
X019507Y013972D02*
X019507Y013432D01*
X021267Y011672D01*
X023967Y011672D01*
X023967Y012272D02*
X021167Y012272D01*
X020297Y013142D01*
X025857Y009072D02*
X027567Y009072D01*
D32*
X023042Y015059D02*
X024304Y016322D01*
X024361Y016322D01*
X024873Y016322D02*
X024873Y017284D01*
X024917Y017328D01*
X025291Y018116D02*
X025317Y018142D01*
X025317Y018766D01*
X025317Y019278D02*
X025317Y019616D01*
X025523Y019822D01*
X026310Y019448D02*
X026317Y019442D01*
X026317Y018978D01*
X030817Y025322D02*
X030817Y027122D01*
X033367Y029672D01*
X037473Y029672D01*
X037473Y030122D01*
X037273Y030322D01*
X036761Y030322D02*
X036367Y030322D01*
X036367Y028972D02*
X036761Y028972D01*
X037273Y028972D02*
X037473Y028772D01*
X037473Y028372D01*
X037517Y027822D02*
X037073Y027822D01*
X038260Y027998D02*
X038280Y027978D01*
X038917Y027978D01*
X038917Y027466D02*
X039573Y027466D01*
X039617Y027422D01*
X039617Y026635D02*
X039398Y026416D01*
X038917Y026416D01*
X038490Y026928D02*
X038260Y026698D01*
X038490Y026928D02*
X038917Y026928D01*
X038917Y025878D02*
X039586Y025878D01*
X039617Y025847D01*
X038917Y025366D02*
X038292Y025366D01*
X038260Y025398D01*
X037473Y025772D02*
X037467Y025766D01*
X037467Y024828D01*
X039617Y028209D02*
X039310Y028516D01*
X038917Y028516D01*
X038917Y029028D02*
X038647Y029298D01*
X038260Y029298D01*
X035601Y028806D02*
X033133Y028806D01*
X023217Y027993D02*
X023217Y026478D01*
X021217Y026478D02*
X021217Y027982D01*
X019267Y028001D02*
X019267Y026478D01*
X014367Y025422D02*
X013892Y024947D01*
X013817Y024872D01*
X011167Y022222D01*
X035317Y015322D02*
X035317Y013172D01*
X039617Y008872D01*
X039617Y008084D02*
X035379Y012322D01*
X035317Y012322D01*
X035317Y009322D02*
X037591Y009322D01*
X039617Y007297D01*
X039617Y006509D02*
X039429Y006322D01*
X035317Y006322D01*
X027717Y002066D02*
X027704Y002054D01*
X027704Y001422D01*
X022366Y001422D02*
X022366Y002066D01*
X022367Y002066D01*
X035823Y015922D02*
X037904Y015922D01*
X039617Y014210D01*
D33*
X024417Y022872D03*
X022417Y020872D03*
D34*
X024417Y022872D01*
M02*
