G75*
%MOIN*%
%OFA0B0*%
%FSLAX24Y24*%
%IPPOS*%
%LPD*%
%AMOC8*
5,1,8,0,0,1.08239X$1,22.5*
%
%ADD10R,0.0595X0.0595*%
%ADD11C,0.0595*%
%ADD12R,0.0477X0.0477*%
%ADD13C,0.0477*%
%ADD14C,0.0330*%
%ADD15C,0.0580*%
%ADD16R,0.0674X0.0674*%
%ADD17C,0.0674*%
%ADD18R,0.0730X0.0730*%
%ADD19C,0.0730*%
%ADD20R,0.0434X0.0395*%
%ADD21R,0.0434X0.0356*%
%ADD22R,0.0356X0.0434*%
%ADD23R,0.0395X0.0434*%
%ADD24C,0.1730*%
%ADD25C,0.0455*%
D10*
X024517Y007872D03*
X024617Y014272D03*
D11*
X023829Y014272D03*
X023042Y014272D03*
X023042Y015059D03*
X023829Y015059D03*
X024617Y015059D03*
X022254Y015059D03*
X021467Y015059D03*
X021467Y014272D03*
X020680Y014272D03*
X020680Y015059D03*
X019892Y015059D03*
X019892Y014272D03*
X019105Y014272D03*
X019105Y015059D03*
X018317Y015059D03*
X017530Y015059D03*
X017530Y014272D03*
X016743Y014272D03*
X016743Y015059D03*
X015955Y015059D03*
X015955Y014272D03*
X015168Y014272D03*
X014380Y014272D03*
X013593Y014272D03*
X012806Y014272D03*
X012806Y015059D03*
X013593Y015059D03*
X014380Y015059D03*
X015168Y015059D03*
X012018Y015059D03*
X012018Y014272D03*
X011231Y014272D03*
X011231Y015059D03*
X010443Y015059D03*
X010443Y014272D03*
X009656Y014272D03*
X008869Y014272D03*
X008869Y015059D03*
X009656Y015059D03*
X008081Y015059D03*
X008081Y014272D03*
X007294Y014272D03*
X007294Y015059D03*
X006506Y015059D03*
X006506Y014272D03*
X005719Y014272D03*
X005719Y015059D03*
X005619Y008659D03*
X005619Y007872D03*
X006406Y007872D03*
X006406Y008659D03*
X007194Y008659D03*
X007194Y007872D03*
X007981Y007872D03*
X007981Y008659D03*
X008769Y008659D03*
X008769Y007872D03*
X009556Y007872D03*
X010343Y007872D03*
X010343Y008659D03*
X009556Y008659D03*
X011131Y008659D03*
X011131Y007872D03*
X011918Y007872D03*
X012706Y007872D03*
X013493Y007872D03*
X014280Y007872D03*
X014280Y008659D03*
X013493Y008659D03*
X012706Y008659D03*
X011918Y008659D03*
X015068Y008659D03*
X015068Y007872D03*
X015855Y007872D03*
X015855Y008659D03*
X016643Y008659D03*
X016643Y007872D03*
X017430Y007872D03*
X017430Y008659D03*
X018217Y008659D03*
X018217Y007872D03*
X019005Y007872D03*
X019792Y007872D03*
X019792Y008659D03*
X019005Y008659D03*
X020580Y008659D03*
X020580Y007872D03*
X021367Y007872D03*
X022154Y007872D03*
X022154Y008659D03*
X021367Y008659D03*
X022942Y008659D03*
X022942Y007872D03*
X023729Y007872D03*
X023729Y008659D03*
X024517Y008659D03*
X022254Y014272D03*
X018317Y014272D03*
D12*
X003267Y010172D03*
X008367Y001422D03*
X019217Y001422D03*
X030067Y001422D03*
X039617Y005722D03*
X039617Y016572D03*
X039617Y027422D03*
D13*
X039617Y026635D03*
X039617Y025847D03*
X039617Y025060D03*
X039617Y028209D03*
X039617Y028997D03*
X039617Y029784D03*
X039617Y030572D03*
X039617Y019722D03*
X039617Y018934D03*
X039617Y018147D03*
X039617Y017359D03*
X039617Y015785D03*
X039617Y014997D03*
X039617Y014210D03*
X039617Y008872D03*
X039617Y008084D03*
X039617Y007297D03*
X039617Y006509D03*
X039617Y004935D03*
X039617Y004147D03*
X039617Y003360D03*
X033216Y001422D03*
X032429Y001422D03*
X031641Y001422D03*
X030854Y001422D03*
X029279Y001422D03*
X028492Y001422D03*
X027704Y001422D03*
X022366Y001422D03*
X021579Y001422D03*
X020791Y001422D03*
X020004Y001422D03*
X018429Y001422D03*
X017642Y001422D03*
X016854Y001422D03*
X011516Y001422D03*
X010729Y001422D03*
X009941Y001422D03*
X009154Y001422D03*
X007579Y001422D03*
X006792Y001422D03*
X006004Y001422D03*
X003267Y006172D03*
X002267Y006172D03*
X002267Y007172D03*
X003267Y007172D03*
X003267Y008172D03*
X002267Y008172D03*
X002267Y009172D03*
X003267Y009172D03*
X002267Y010172D03*
D14*
X015317Y006022D03*
X015717Y005622D03*
X020967Y006922D03*
X023967Y011672D03*
X023967Y012272D03*
X027567Y012082D03*
X028067Y012082D03*
X028567Y012082D03*
X029067Y012082D03*
X029067Y011582D03*
X028567Y011582D03*
X028067Y011582D03*
X027567Y011582D03*
X027567Y011082D03*
X028067Y011082D03*
X028567Y011082D03*
X029067Y011082D03*
X029067Y010582D03*
X028567Y010582D03*
X028067Y010582D03*
X027567Y010582D03*
X027567Y010082D03*
X028067Y010082D03*
X028567Y010082D03*
X029067Y010082D03*
X029067Y009582D03*
X028567Y009582D03*
X028067Y009582D03*
X027567Y009582D03*
X027567Y009082D03*
X028067Y009082D03*
X028567Y009082D03*
X029067Y009082D03*
X029067Y008582D03*
X028567Y008582D03*
X028067Y008582D03*
X027567Y008582D03*
X027567Y008082D03*
X028067Y008082D03*
X028567Y008082D03*
X029067Y008082D03*
X029067Y007582D03*
X028567Y007582D03*
X028067Y007582D03*
X027567Y007582D03*
X027567Y007082D03*
X028067Y007082D03*
X028567Y007082D03*
X029067Y007082D03*
X029067Y006582D03*
X028567Y006582D03*
X028067Y006582D03*
X027567Y006582D03*
X029567Y006582D03*
X030067Y006582D03*
X030067Y007082D03*
X029567Y007082D03*
X029567Y007582D03*
X030067Y007582D03*
X030067Y008082D03*
X029567Y008082D03*
X029567Y008582D03*
X030067Y008582D03*
X030067Y009082D03*
X029567Y009082D03*
X029567Y009582D03*
X030067Y009582D03*
X030067Y010082D03*
X029567Y010082D03*
X029567Y010582D03*
X030067Y010582D03*
X030067Y011082D03*
X029567Y011082D03*
X029567Y011582D03*
X030067Y011582D03*
X030067Y012082D03*
X029567Y012082D03*
X029567Y012582D03*
X030067Y012582D03*
X030067Y013082D03*
X029567Y013082D03*
X029567Y013582D03*
X030067Y013582D03*
X030067Y014082D03*
X029567Y014082D03*
X029567Y014582D03*
X030067Y014582D03*
X030067Y015082D03*
X030067Y015582D03*
X029567Y015582D03*
X029567Y015082D03*
X029067Y015082D03*
X029067Y015582D03*
X028567Y015582D03*
X028567Y015082D03*
X028067Y015082D03*
X028067Y015582D03*
X027567Y015582D03*
X027567Y015082D03*
X027567Y014582D03*
X028067Y014582D03*
X028567Y014582D03*
X029067Y014582D03*
X029067Y014082D03*
X029067Y013582D03*
X028567Y013582D03*
X028567Y014082D03*
X028067Y014082D03*
X028067Y013582D03*
X027567Y013582D03*
X027567Y014082D03*
X027567Y013082D03*
X028067Y013082D03*
X028567Y013082D03*
X029067Y013082D03*
X029067Y012582D03*
X028567Y012582D03*
X028067Y012582D03*
X027567Y012582D03*
X031067Y012822D03*
X031117Y012172D03*
X031717Y013322D03*
X032317Y013722D03*
X032217Y014072D03*
X032117Y014422D03*
X031417Y014822D03*
X031717Y015572D03*
X033117Y016322D03*
X035317Y015322D03*
X035317Y012322D03*
X035317Y009322D03*
X035317Y006322D03*
X031467Y006772D03*
X031467Y010022D03*
X030067Y016082D03*
X030067Y016582D03*
X029567Y016582D03*
X029567Y016082D03*
X029067Y016082D03*
X029067Y016582D03*
X028567Y016582D03*
X028567Y016082D03*
X028067Y016082D03*
X028067Y016582D03*
X027567Y016582D03*
X027567Y016082D03*
X027567Y017082D03*
X028067Y017082D03*
X028567Y017082D03*
X029067Y017082D03*
X029067Y017582D03*
X028567Y017582D03*
X028067Y017582D03*
X027567Y017582D03*
X027567Y018082D03*
X028067Y018082D03*
X028567Y018082D03*
X029067Y018082D03*
X029067Y018582D03*
X028567Y018582D03*
X028067Y018582D03*
X027567Y018582D03*
X027567Y019082D03*
X028067Y019082D03*
X028567Y019082D03*
X029067Y019082D03*
X029067Y019582D03*
X028567Y019582D03*
X028067Y019582D03*
X027567Y019582D03*
X027567Y020082D03*
X028067Y020082D03*
X028567Y020082D03*
X029067Y020082D03*
X029067Y020582D03*
X028567Y020582D03*
X028067Y020582D03*
X027567Y020582D03*
X027567Y021082D03*
X028067Y021082D03*
X028567Y021082D03*
X029067Y021082D03*
X029067Y021582D03*
X028567Y021582D03*
X028067Y021582D03*
X027567Y021582D03*
X027567Y022082D03*
X028067Y022082D03*
X028567Y022082D03*
X029067Y022082D03*
X029067Y022582D03*
X028567Y022582D03*
X028067Y022582D03*
X027567Y022582D03*
X027567Y023082D03*
X028067Y023082D03*
X028567Y023082D03*
X029067Y023082D03*
X029067Y023582D03*
X028567Y023582D03*
X028067Y023582D03*
X027567Y023582D03*
X027567Y024082D03*
X028067Y024082D03*
X028567Y024082D03*
X029067Y024082D03*
X029567Y024082D03*
X030067Y024082D03*
X030067Y023582D03*
X030067Y023082D03*
X029567Y023082D03*
X029567Y023582D03*
X029567Y022582D03*
X030067Y022582D03*
X030067Y022082D03*
X029567Y022082D03*
X029567Y021582D03*
X030067Y021582D03*
X030067Y021082D03*
X029567Y021082D03*
X029567Y020582D03*
X030067Y020582D03*
X030067Y020082D03*
X029567Y020082D03*
X029567Y019582D03*
X030067Y019582D03*
X030067Y019082D03*
X029567Y019082D03*
X029567Y018582D03*
X030067Y018582D03*
X030067Y018082D03*
X029567Y018082D03*
X029567Y017582D03*
X030067Y017582D03*
X030067Y017082D03*
X029567Y017082D03*
X026267Y017972D03*
X022917Y020372D03*
X020067Y021372D03*
X019717Y021722D03*
X019367Y022072D03*
X017417Y022072D03*
X011717Y023472D03*
X011167Y022222D03*
X004017Y024772D03*
X020297Y013142D03*
X026317Y022772D03*
X025517Y022972D03*
X027567Y024582D03*
X028067Y024582D03*
X028567Y024582D03*
X029067Y024582D03*
X029067Y025082D03*
X028567Y025082D03*
X028067Y025082D03*
X027567Y025082D03*
X027567Y025582D03*
X028067Y025582D03*
X028567Y025582D03*
X029067Y025582D03*
X029067Y026082D03*
X028567Y026082D03*
X028067Y026082D03*
X027567Y026082D03*
X029567Y026082D03*
X030067Y026082D03*
X030067Y025582D03*
X029567Y025582D03*
X029567Y025082D03*
X030067Y025082D03*
X030067Y024582D03*
X029567Y024582D03*
X031467Y025472D03*
X032117Y025622D03*
X032767Y025772D03*
X034067Y026572D03*
X033994Y027000D03*
X033679Y027335D03*
X035254Y026572D03*
X035817Y026572D03*
X035651Y028856D03*
X033133Y028806D03*
X027667Y029272D03*
X027017Y028622D03*
D15*
X027617Y027037D03*
X028817Y005627D03*
D16*
X011467Y018572D03*
D17*
X011467Y019572D03*
X011467Y020572D03*
D18*
X005751Y028004D03*
X004767Y029972D03*
X016317Y029972D03*
X017301Y028004D03*
D19*
X019269Y028004D03*
X021238Y028004D03*
X023206Y028004D03*
X025175Y028004D03*
X024191Y029972D03*
X022222Y029972D03*
X020254Y029972D03*
X018285Y029972D03*
X013625Y028004D03*
X011656Y028004D03*
X009688Y028004D03*
X007719Y028004D03*
X006735Y029972D03*
X008704Y029972D03*
X010672Y029972D03*
X012641Y029972D03*
D20*
X025523Y019822D03*
X026310Y019448D03*
X026310Y020196D03*
X037473Y025772D03*
X038260Y025398D03*
X038260Y026146D03*
X038260Y026698D03*
X038260Y027446D03*
X038260Y027998D03*
X038260Y028746D03*
X038260Y029298D03*
X038260Y030046D03*
X037473Y029672D03*
X037473Y028372D03*
X037473Y027072D03*
D21*
X038917Y026928D03*
X038917Y027466D03*
X038917Y027978D03*
X038917Y028516D03*
X038917Y029028D03*
X038917Y026416D03*
X038917Y025878D03*
X038917Y025366D03*
X037467Y024828D03*
X037467Y024316D03*
X026317Y018978D03*
X026317Y018466D03*
X025317Y018766D03*
X025317Y019278D03*
X023217Y025966D03*
X023217Y026478D03*
X021217Y026478D03*
X021217Y025966D03*
X019267Y025966D03*
X019267Y026478D03*
X025267Y008578D03*
X025267Y008066D03*
X027717Y002578D03*
X027717Y002066D03*
X022367Y002066D03*
X022367Y002578D03*
D22*
X035311Y015922D03*
X035823Y015922D03*
X024873Y016322D03*
X024361Y016322D03*
X036561Y027822D03*
X037073Y027822D03*
X037273Y028972D03*
X036761Y028972D03*
X036761Y030322D03*
X037273Y030322D03*
D23*
X025291Y018116D03*
X024543Y018116D03*
X024917Y017328D03*
D24*
X001727Y001832D03*
X001727Y030822D03*
X029967Y030822D03*
D25*
X024417Y022872D03*
X022417Y020872D03*
M02*
