%
M48
M72
T01C0.0150
T02C0.0197
T03C0.0250
T04C0.0315
T05C0.0394
T06C0.0433
T07C0.0500
T08C0.1250
%
T01
X15317Y6022
X15717Y5622
X20967Y6922
X23967Y11672
X23967Y12272
X20297Y13142
X22917Y15622
X22267Y15822
X21867Y15822
X26267Y17972
X27167Y18672
X27567Y18082
X27567Y17582
X27567Y16582
X27567Y16082
X29067Y16082
X29067Y15082
X29067Y14582
X27567Y14582
X31067Y12822
X31117Y12172
X31717Y13322
X32317Y13722
X32217Y14072
X32117Y14422
X31417Y14822
X31717Y15572
X33117Y16322
X35317Y15322
X35317Y12322
X35317Y9322
X35317Y6322
X31467Y6772
X31467Y10022
X27567Y19582
X27567Y20582
X28317Y21332
X28067Y21582
X29067Y21082
X29067Y22082
X28067Y23082
X27567Y23582
X27117Y23572
X26317Y22772
X27057Y22332
X27567Y22582
X29067Y23582
X27567Y25082
X27217Y24922
X26867Y24772
X26867Y24372
X25517Y22972
X22917Y20372
X20067Y21372
X19717Y21722
X19367Y22072
X17417Y22072
X18767Y19722
X13817Y24872
X13317Y24972
X11717Y23472
X11167Y22222
X10067Y24322
X6917Y24372
X4017Y24772
X27017Y26172
X27017Y28622
X27667Y29272
X32117Y25622
X32767Y25772
X31467Y25472
X30817Y25322
X33679Y27335
X33994Y27000
X34067Y26572
X35254Y26572
X35817Y26572
X37517Y27822
X36367Y28972
X35651Y28856
X36367Y30322
X33133Y28806
X32017Y21422
T02
X39617Y19722
X39617Y18934
X39617Y18147
X39617Y17359
X39617Y16572
X39617Y15785
X39617Y14997
X39617Y14210
X39617Y8872
X39617Y8084
X39617Y7297
X39617Y6509
X39617Y5722
X39617Y4935
X39617Y4147
X39617Y3360
X33216Y1422
X32429Y1422
X31641Y1422
X30854Y1422
X30067Y1422
X29279Y1422
X28492Y1422
X27704Y1422
X22366Y1422
X21579Y1422
X20791Y1422
X20004Y1422
X19217Y1422
X18429Y1422
X17642Y1422
X16854Y1422
X11516Y1422
X10729Y1422
X9941Y1422
X9154Y1422
X8367Y1422
X7579Y1422
X6792Y1422
X6004Y1422
X3267Y6172
X2267Y6172
X2267Y7172
X3267Y7172
X3267Y8172
X2267Y8172
X2267Y9172
X3267Y9172
X3267Y10172
X2267Y10172
X39617Y25060
X39617Y25847
X39617Y26635
X39617Y27422
X39617Y28209
X39617Y28997
X39617Y29784
X39617Y30572
T03
X24417Y22872
X22417Y20872
T04
X22254Y15059
X21467Y15059
X21467Y14272
X20680Y14272
X20680Y15059
X19892Y15059
X19892Y14272
X19105Y14272
X19105Y15059
X18317Y15059
X17530Y15059
X17530Y14272
X16743Y14272
X16743Y15059
X15955Y15059
X15955Y14272
X15168Y14272
X14380Y14272
X13593Y14272
X12806Y14272
X12806Y15059
X13593Y15059
X14380Y15059
X15168Y15059
X12018Y15059
X12018Y14272
X11231Y14272
X11231Y15059
X10443Y15059
X10443Y14272
X9656Y14272
X8869Y14272
X8869Y15059
X9656Y15059
X8081Y15059
X8081Y14272
X7294Y14272
X7294Y15059
X6506Y15059
X6506Y14272
X5719Y14272
X5719Y15059
X5619Y8659
X5619Y7872
X6406Y7872
X6406Y8659
X7194Y8659
X7194Y7872
X7981Y7872
X7981Y8659
X8769Y8659
X8769Y7872
X9556Y7872
X10343Y7872
X10343Y8659
X9556Y8659
X11131Y8659
X11131Y7872
X11918Y7872
X12706Y7872
X13493Y7872
X14280Y7872
X14280Y8659
X13493Y8659
X12706Y8659
X11918Y8659
X15068Y8659
X15068Y7872
X15855Y7872
X15855Y8659
X16643Y8659
X16643Y7872
X17430Y7872
X17430Y8659
X18217Y8659
X18217Y7872
X19005Y7872
X19792Y7872
X19792Y8659
X19005Y8659
X20580Y8659
X20580Y7872
X21367Y7872
X22154Y7872
X22154Y8659
X21367Y8659
X22942Y8659
X22942Y7872
X23729Y7872
X23729Y8659
X24517Y8659
X24517Y7872
X24617Y14272
X23829Y14272
X23042Y14272
X23042Y15059
X23829Y15059
X24617Y15059
X22254Y14272
X18317Y14272
T05
X11467Y18572
X11467Y19572
X11467Y20572
T06
X11656Y28004
X9688Y28004
X7719Y28004
X5751Y28004
X6735Y29972
X4767Y29972
X8704Y29972
X10672Y29972
X12641Y29972
X13625Y28004
X16317Y29972
X18285Y29972
X20254Y29972
X22222Y29972
X24191Y29972
X25175Y28004
X23206Y28004
X21238Y28004
X19269Y28004
X17301Y28004
T07
X27617Y27037
X28817Y5627
T08
X1727Y1832
X1727Y30822
X29967Y30822
M30
