G75*
%MOIN*%
%OFA0B0*%
%FSLAX24Y24*%
%IPPOS*%
%LPD*%
%AMOC8*
5,1,8,0,0,1.08239X$1,22.5*
%
%ADD10R,0.0515X0.0515*%
%ADD11C,0.0515*%
%ADD12R,0.0397X0.0397*%
%ADD13C,0.0397*%
%ADD14R,0.0594X0.0594*%
%ADD15C,0.0594*%
%ADD16R,0.0315X0.0354*%
%ADD17R,0.0354X0.0315*%
%ADD18R,0.0650X0.0650*%
%ADD19C,0.0650*%
%ADD20R,0.0276X0.0354*%
%ADD21R,0.0866X0.0236*%
%ADD22R,0.0394X0.0433*%
%ADD23R,0.0394X0.0709*%
%ADD24R,0.0197X0.0472*%
%ADD25R,0.0472X0.0197*%
%ADD26R,0.0433X0.0394*%
%ADD27R,0.0394X0.0157*%
%ADD28R,0.0157X0.0394*%
%ADD29R,0.0354X0.0276*%
%ADD30C,0.0400*%
%ADD31C,0.0250*%
%ADD32C,0.0160*%
%ADD33C,0.0280*%
%ADD34C,0.0515*%
%ADD35C,0.0100*%
%ADD36C,0.1650*%
%ADD37C,0.0650*%
%ADD38C,0.0375*%
%ADD39C,0.0080*%
%ADD40C,0.0300*%
%ADD41C,0.0120*%
D10*
X024517Y007872D03*
X024617Y014272D03*
D11*
X023829Y014272D03*
X023042Y014272D03*
X023042Y015059D03*
X023829Y015059D03*
X024617Y015059D03*
X022254Y015059D03*
X021467Y015059D03*
X021467Y014272D03*
X020680Y014272D03*
X020680Y015059D03*
X019892Y015059D03*
X019892Y014272D03*
X019105Y014272D03*
X019105Y015059D03*
X018317Y015059D03*
X017530Y015059D03*
X017530Y014272D03*
X016743Y014272D03*
X016743Y015059D03*
X015955Y015059D03*
X015955Y014272D03*
X015168Y014272D03*
X014380Y014272D03*
X013593Y014272D03*
X012806Y014272D03*
X012806Y015059D03*
X013593Y015059D03*
X014380Y015059D03*
X015168Y015059D03*
X012018Y015059D03*
X012018Y014272D03*
X011231Y014272D03*
X011231Y015059D03*
X010443Y015059D03*
X010443Y014272D03*
X009656Y014272D03*
X008869Y014272D03*
X008869Y015059D03*
X009656Y015059D03*
X008081Y015059D03*
X008081Y014272D03*
X007294Y014272D03*
X007294Y015059D03*
X006506Y015059D03*
X006506Y014272D03*
X005719Y014272D03*
X005719Y015059D03*
X005619Y008659D03*
X005619Y007872D03*
X006406Y007872D03*
X006406Y008659D03*
X007194Y008659D03*
X007194Y007872D03*
X007981Y007872D03*
X007981Y008659D03*
X008769Y008659D03*
X008769Y007872D03*
X009556Y007872D03*
X010343Y007872D03*
X010343Y008659D03*
X009556Y008659D03*
X011131Y008659D03*
X011131Y007872D03*
X011918Y007872D03*
X012706Y007872D03*
X013493Y007872D03*
X014280Y007872D03*
X014280Y008659D03*
X013493Y008659D03*
X012706Y008659D03*
X011918Y008659D03*
X015068Y008659D03*
X015068Y007872D03*
X015855Y007872D03*
X015855Y008659D03*
X016643Y008659D03*
X016643Y007872D03*
X017430Y007872D03*
X017430Y008659D03*
X018217Y008659D03*
X018217Y007872D03*
X019005Y007872D03*
X019792Y007872D03*
X019792Y008659D03*
X019005Y008659D03*
X020580Y008659D03*
X020580Y007872D03*
X021367Y007872D03*
X022154Y007872D03*
X022154Y008659D03*
X021367Y008659D03*
X022942Y008659D03*
X022942Y007872D03*
X023729Y007872D03*
X023729Y008659D03*
X024517Y008659D03*
X022254Y014272D03*
X018317Y014272D03*
D12*
X003267Y010172D03*
X008367Y001422D03*
X019217Y001422D03*
X030067Y001422D03*
X039617Y005722D03*
X039617Y016572D03*
X039617Y027422D03*
D13*
X039617Y026635D03*
X039617Y025847D03*
X039617Y025060D03*
X039617Y028209D03*
X039617Y028997D03*
X039617Y029784D03*
X039617Y030572D03*
X039617Y019722D03*
X039617Y018934D03*
X039617Y018147D03*
X039617Y017359D03*
X039617Y015785D03*
X039617Y014997D03*
X039617Y014210D03*
X039617Y008872D03*
X039617Y008084D03*
X039617Y007297D03*
X039617Y006509D03*
X039617Y004935D03*
X039617Y004147D03*
X039617Y003360D03*
X033216Y001422D03*
X032429Y001422D03*
X031641Y001422D03*
X030854Y001422D03*
X029279Y001422D03*
X028492Y001422D03*
X027704Y001422D03*
X022366Y001422D03*
X021579Y001422D03*
X020791Y001422D03*
X020004Y001422D03*
X018429Y001422D03*
X017642Y001422D03*
X016854Y001422D03*
X011516Y001422D03*
X010729Y001422D03*
X009941Y001422D03*
X009154Y001422D03*
X007579Y001422D03*
X006792Y001422D03*
X006004Y001422D03*
X003267Y006172D03*
X002267Y006172D03*
X002267Y007172D03*
X003267Y007172D03*
X003267Y008172D03*
X002267Y008172D03*
X002267Y009172D03*
X003267Y009172D03*
X002267Y010172D03*
D14*
X011467Y018572D03*
D15*
X011467Y019572D03*
X011467Y020572D03*
D16*
X009191Y023028D03*
X008443Y023028D03*
X008817Y023816D03*
X008091Y025178D03*
X007343Y025178D03*
X007717Y025966D03*
X006111Y025178D03*
X005363Y025178D03*
X005737Y025966D03*
X003453Y024766D03*
X002705Y024766D03*
X003079Y025553D03*
X006443Y023028D03*
X007191Y023028D03*
X006817Y023816D03*
X011293Y025178D03*
X012041Y025178D03*
X011667Y025966D03*
X016943Y025178D03*
X017691Y025178D03*
X017317Y025966D03*
X023193Y025528D03*
X023941Y025528D03*
X023567Y026316D03*
X025117Y025166D03*
X025491Y024378D03*
X024743Y024378D03*
X025767Y013066D03*
X026141Y012278D03*
X025393Y012278D03*
X011591Y005766D03*
X010843Y005766D03*
X011217Y004978D03*
X008441Y005766D03*
X007693Y005766D03*
X008067Y004978D03*
D17*
X024523Y010748D03*
X025310Y011122D03*
X024523Y011496D03*
X026560Y013548D03*
X026560Y014296D03*
X025773Y013922D03*
X026910Y015348D03*
X026123Y015722D03*
X026910Y016096D03*
X033073Y017598D03*
X033073Y018346D03*
X033860Y017972D03*
X035073Y018196D03*
X035073Y017448D03*
X035860Y017822D03*
X035073Y018948D03*
X035860Y019322D03*
X035073Y019696D03*
X035073Y020448D03*
X035073Y021196D03*
X035073Y021948D03*
X035860Y022322D03*
X035073Y022696D03*
X033860Y022472D03*
X033073Y022098D03*
X033073Y022846D03*
X033073Y021346D03*
X033860Y020972D03*
X033073Y020598D03*
X033073Y019846D03*
X033073Y019098D03*
X033860Y019472D03*
X035860Y020822D03*
X013510Y023648D03*
X012723Y024022D03*
X013510Y024396D03*
D18*
X017301Y028004D03*
X016317Y029972D03*
X005751Y028004D03*
X004767Y029972D03*
D19*
X006735Y029972D03*
X008704Y029972D03*
X010672Y029972D03*
X012641Y029972D03*
X013625Y028004D03*
X011656Y028004D03*
X009688Y028004D03*
X007719Y028004D03*
X018285Y029972D03*
X020254Y029972D03*
X022222Y029972D03*
X024191Y029972D03*
X025175Y028004D03*
X023206Y028004D03*
X021238Y028004D03*
X019269Y028004D03*
D20*
X017673Y024622D03*
X017161Y024622D03*
X014673Y024422D03*
X014161Y024422D03*
X024611Y025722D03*
X025123Y025722D03*
X025173Y026272D03*
X024661Y026272D03*
X032011Y022072D03*
X032523Y022072D03*
X032523Y020572D03*
X032011Y020572D03*
X032011Y019072D03*
X032523Y019072D03*
X032523Y017572D03*
X032011Y017572D03*
X033211Y017022D03*
X033723Y017022D03*
X026373Y011122D03*
X025861Y011122D03*
X024823Y012922D03*
X024311Y012922D03*
X010873Y006572D03*
X010361Y006572D03*
X010111Y004672D03*
X010623Y004672D03*
X009173Y004672D03*
X008661Y004672D03*
X007723Y006572D03*
X007211Y006572D03*
D21*
X032443Y006322D03*
X032443Y006822D03*
X032443Y007322D03*
X032443Y008822D03*
X032443Y009322D03*
X032443Y009822D03*
X032443Y010322D03*
X032443Y011822D03*
X032443Y012322D03*
X032443Y012822D03*
X032443Y013322D03*
X032443Y014822D03*
X032443Y015322D03*
X032443Y015822D03*
X032443Y016322D03*
X034490Y016322D03*
X034490Y015822D03*
X034490Y015322D03*
X034490Y014822D03*
X034490Y013322D03*
X034490Y012822D03*
X034490Y012322D03*
X034490Y011822D03*
X034490Y010322D03*
X034490Y009822D03*
X034490Y009322D03*
X034490Y008822D03*
X034490Y007322D03*
X034490Y006822D03*
X034490Y006322D03*
X034490Y005822D03*
X032443Y005822D03*
D22*
X035967Y005737D03*
X035967Y006407D03*
X035967Y008737D03*
X035967Y009407D03*
X035967Y011737D03*
X035967Y012407D03*
X035967Y014737D03*
X035967Y015407D03*
X027067Y030037D03*
X027067Y030707D03*
X010467Y020707D03*
X010467Y020037D03*
X009667Y019907D03*
X009667Y019237D03*
X010467Y019107D03*
X010467Y018437D03*
X002667Y019237D03*
X002667Y019907D03*
D23*
X004167Y021741D03*
X008167Y021741D03*
X008167Y017403D03*
X007167Y017403D03*
X005167Y017403D03*
X004167Y017403D03*
D24*
X033679Y027889D03*
X033994Y027889D03*
X034309Y027889D03*
X034624Y027889D03*
X034939Y027889D03*
X035254Y027889D03*
X035254Y028755D03*
X034939Y028755D03*
X034624Y028755D03*
X034309Y028755D03*
X033994Y028755D03*
X033679Y028755D03*
D25*
X033640Y028322D03*
X035293Y028322D03*
D26*
X035501Y029572D03*
X034832Y029572D03*
X034101Y029572D03*
X033432Y029572D03*
X028351Y030072D03*
X028351Y030672D03*
X028351Y031272D03*
X028351Y031872D03*
X027682Y031872D03*
X027682Y031272D03*
X027682Y030672D03*
X027682Y030072D03*
D27*
X027495Y028906D03*
X027495Y028650D03*
X027495Y028394D03*
X027495Y028138D03*
X026038Y028138D03*
X026038Y028394D03*
X026038Y028650D03*
X026038Y028906D03*
D28*
X026383Y029250D03*
X026639Y029250D03*
X026895Y029250D03*
X027151Y029250D03*
X027151Y027794D03*
X026895Y027794D03*
X026639Y027794D03*
X026383Y027794D03*
D29*
X025517Y023928D03*
X025517Y023416D03*
X034467Y022478D03*
X034467Y021966D03*
X034467Y020978D03*
X034467Y020466D03*
X034467Y019478D03*
X034467Y018966D03*
X034467Y017978D03*
X034467Y017466D03*
X036467Y017316D03*
X036467Y017828D03*
X036467Y018816D03*
X036467Y019328D03*
X036467Y020316D03*
X036467Y020828D03*
X036467Y021816D03*
X036467Y022328D03*
X035467Y024566D03*
X035467Y025078D03*
X025767Y015278D03*
X025767Y014766D03*
X027167Y013578D03*
X027167Y013066D03*
X023967Y011278D03*
X023967Y010766D03*
X012017Y024016D03*
X012017Y024528D03*
X010717Y025916D03*
X010717Y026428D03*
X009517Y024478D03*
X009517Y023966D03*
X008117Y023966D03*
X008117Y024478D03*
X007517Y024478D03*
X007517Y023966D03*
X006117Y024066D03*
X006117Y024578D03*
X006767Y025916D03*
X006767Y026428D03*
X004767Y026428D03*
X004767Y025916D03*
D30*
X011293Y025178D02*
X011293Y022796D01*
X012117Y021972D01*
X012117Y019222D01*
X011467Y018572D01*
X011332Y018437D01*
X010467Y018437D01*
X011467Y020572D02*
X011332Y020707D01*
X010467Y020707D01*
D31*
X011167Y022222D03*
X011717Y023472D03*
X010067Y024322D03*
X006917Y024372D03*
X004017Y024772D03*
X013317Y024972D03*
X013817Y024872D03*
X017417Y022072D03*
X019367Y022072D03*
X019717Y021722D03*
X020067Y021372D03*
X018767Y019722D03*
X022917Y020372D03*
X025517Y022972D03*
X026317Y022772D03*
X027057Y022332D03*
X027567Y022582D03*
X028067Y023082D03*
X027567Y023582D03*
X027117Y023572D03*
X026867Y024372D03*
X026867Y024772D03*
X027217Y024922D03*
X027567Y025082D03*
X027017Y026172D03*
X027017Y028622D03*
X027667Y029272D03*
X032117Y025622D03*
X032767Y025772D03*
X031467Y025472D03*
X030817Y025322D03*
X029067Y023582D03*
X029067Y022082D03*
X028317Y021332D03*
X028067Y021582D03*
X029067Y021082D03*
X027567Y020582D03*
X027567Y019582D03*
X027167Y018672D03*
X027567Y018082D03*
X027567Y017582D03*
X027567Y016582D03*
X027567Y016082D03*
X029067Y016082D03*
X029067Y015082D03*
X029067Y014582D03*
X027567Y014582D03*
X031067Y012822D03*
X031117Y012172D03*
X031717Y013322D03*
X032317Y013722D03*
X032217Y014072D03*
X032117Y014422D03*
X031417Y014822D03*
X031717Y015572D03*
X033117Y016322D03*
X035317Y015322D03*
X035317Y012322D03*
X035317Y009322D03*
X035317Y006322D03*
X031467Y006772D03*
X031467Y010022D03*
X023967Y011672D03*
X023967Y012272D03*
X020297Y013142D03*
X022917Y015622D03*
X022267Y015822D03*
X021867Y015822D03*
X026267Y017972D03*
X032017Y021422D03*
X034067Y026572D03*
X033994Y027000D03*
X033679Y027335D03*
X035254Y026572D03*
X035817Y026572D03*
X037517Y027822D03*
X036367Y028972D03*
X035651Y028856D03*
X036367Y030322D03*
X033133Y028806D03*
X020967Y006922D03*
X015717Y005622D03*
X015317Y006022D03*
D32*
X015317Y006010D01*
X010729Y001422D01*
X011516Y001422D02*
X015716Y005622D01*
X015717Y005622D01*
X016247Y007622D02*
X016247Y002030D01*
X016854Y001422D01*
X017642Y001422D02*
X016643Y002421D01*
X016643Y007872D01*
X016247Y008122D02*
X016247Y008268D01*
X015855Y008659D01*
X015730Y009322D02*
X015068Y008659D01*
X015730Y009322D02*
X016717Y009322D01*
X016643Y009248D01*
X016643Y008659D01*
X017430Y007872D01*
X017817Y007622D02*
X017817Y002035D01*
X018429Y001422D01*
X018617Y002022D02*
X018617Y007622D01*
X018617Y008122D02*
X018617Y008260D01*
X018217Y008659D01*
X017817Y008273D02*
X017817Y008122D01*
X017817Y008273D02*
X017430Y008659D01*
X016717Y009322D02*
X019117Y009322D01*
X019005Y009210D01*
X019005Y008659D01*
X019792Y007872D01*
X020192Y007622D02*
X020192Y001610D01*
X020004Y001422D01*
X019217Y001422D02*
X018617Y002022D01*
X020791Y001422D02*
X020967Y001597D01*
X020967Y006922D01*
X020580Y007872D02*
X024530Y003922D01*
X025992Y003922D01*
X028492Y001422D01*
X029279Y001422D02*
X026429Y004272D01*
X024967Y004272D01*
X021367Y007872D01*
X022154Y007872D02*
X021367Y008659D01*
X021367Y009272D01*
X021317Y009322D01*
X019117Y009322D01*
X019792Y008659D02*
X020192Y008260D01*
X020192Y008122D01*
X021317Y009322D02*
X023067Y009322D01*
X023729Y008659D01*
X024517Y007872D01*
X025317Y007072D01*
X025317Y008672D01*
X026817Y010172D01*
X026817Y012582D01*
X027167Y012932D01*
X027167Y013066D01*
X026817Y012582D02*
X026167Y013232D01*
X026167Y014366D01*
X025767Y014766D01*
X025767Y015278D02*
X026323Y015278D01*
X026517Y015472D01*
X026517Y016046D01*
X026467Y016096D01*
X023393Y016096D01*
X017417Y022072D01*
X016996Y021653D02*
X011736Y021653D01*
X011578Y021811D02*
X016837Y021811D01*
X016679Y021970D02*
X011419Y021970D01*
X011369Y022020D02*
X011409Y022060D01*
X011452Y022165D01*
X011452Y022279D01*
X011409Y022384D01*
X011329Y022464D01*
X011223Y022508D01*
X011110Y022508D01*
X011005Y022464D01*
X011003Y022463D01*
X010926Y022463D01*
X009817Y023571D01*
X009817Y023725D01*
X009855Y023762D01*
X009855Y024109D01*
X009896Y024067D01*
X010007Y024021D01*
X010126Y024021D01*
X010237Y024067D01*
X010322Y024152D01*
X010367Y024262D01*
X010367Y024382D01*
X010322Y024492D01*
X010081Y024733D01*
X009971Y024779D01*
X009457Y024779D01*
X009452Y024776D01*
X009273Y024776D01*
X009179Y024682D01*
X009179Y024274D01*
X009230Y024222D01*
X009179Y024171D01*
X009179Y023762D01*
X009216Y023725D01*
X009216Y023572D01*
X009135Y023572D01*
X009135Y024059D01*
X009041Y024154D01*
X008904Y024154D01*
X008837Y024221D01*
X008726Y024267D01*
X008448Y024267D01*
X008455Y024274D01*
X008455Y024682D01*
X008417Y024719D01*
X008417Y025212D01*
X008409Y025233D01*
X008409Y025422D01*
X008315Y025516D01*
X007867Y025516D01*
X007772Y025422D01*
X007772Y024935D01*
X007816Y024891D01*
X007816Y024721D01*
X007760Y024776D01*
X007582Y024776D01*
X007576Y024779D01*
X006963Y024779D01*
X006852Y024733D01*
X006662Y024542D01*
X006616Y024432D01*
X006616Y024312D01*
X006662Y024202D01*
X006710Y024154D01*
X006593Y024154D01*
X006555Y024116D01*
X006492Y024116D01*
X006455Y024154D01*
X006455Y024271D01*
X006403Y024322D01*
X006455Y024374D01*
X006455Y024782D01*
X006417Y024819D01*
X006417Y024923D01*
X006429Y024935D01*
X006429Y025422D01*
X006335Y025516D01*
X005887Y025516D01*
X005792Y025422D01*
X005792Y024935D01*
X005816Y024911D01*
X005816Y024819D01*
X005779Y024782D01*
X005779Y024374D01*
X005830Y024322D01*
X005779Y024271D01*
X005779Y023862D01*
X005873Y023768D01*
X005990Y023768D01*
X006197Y023561D01*
X006238Y023544D01*
X005867Y023172D01*
X005867Y022622D01*
X002867Y019622D01*
X001717Y019622D01*
X001717Y025122D01*
X002667Y026072D01*
X004429Y026072D01*
X004429Y025712D01*
X004523Y025618D01*
X004702Y025618D01*
X004707Y025615D01*
X004826Y025615D01*
X004832Y025618D01*
X005010Y025618D01*
X005058Y025665D01*
X005475Y025665D01*
X005513Y025628D01*
X005961Y025628D01*
X006055Y025722D01*
X006055Y026209D01*
X006004Y026260D01*
X006466Y026721D01*
X006466Y026669D01*
X006429Y026632D01*
X006429Y026224D01*
X006480Y026172D01*
X006429Y026121D01*
X006429Y025712D01*
X006523Y025618D01*
X006702Y025618D01*
X006707Y025615D01*
X006826Y025615D01*
X006832Y025618D01*
X007010Y025618D01*
X007058Y025665D01*
X007455Y025665D01*
X007493Y025628D01*
X007941Y025628D01*
X008035Y025722D01*
X008035Y026209D01*
X007941Y026304D01*
X007493Y026304D01*
X007455Y026266D01*
X007105Y026266D01*
X007105Y026632D01*
X007067Y026669D01*
X007067Y026926D01*
X007659Y027518D01*
X007816Y027518D01*
X007995Y027592D01*
X008131Y027728D01*
X008205Y027907D01*
X008205Y029084D01*
X008131Y029263D01*
X007995Y029400D01*
X007967Y029427D01*
X007967Y030372D01*
X008176Y030581D01*
X010107Y030581D01*
X010351Y030338D01*
X010260Y030247D01*
X010186Y030069D01*
X010186Y029875D01*
X010260Y029697D01*
X011171Y028787D01*
X011171Y027943D01*
X010462Y027234D01*
X010416Y027124D01*
X010416Y026669D01*
X010379Y026632D01*
X010379Y026224D01*
X010430Y026172D01*
X010379Y026121D01*
X010379Y025712D01*
X010473Y025618D01*
X010652Y025618D01*
X010657Y025615D01*
X010776Y025615D01*
X010782Y025618D01*
X010960Y025618D01*
X011008Y025665D01*
X011405Y025665D01*
X011443Y025628D01*
X011891Y025628D01*
X011985Y025722D01*
X011985Y025954D01*
X012067Y025872D01*
X016998Y025872D01*
X016998Y025722D01*
X017093Y025628D01*
X017541Y025628D01*
X017635Y025722D01*
X017635Y025872D01*
X023617Y025872D01*
X023670Y025819D01*
X023622Y025772D01*
X023622Y025285D01*
X023717Y025190D01*
X024165Y025190D01*
X024231Y025257D01*
X024267Y025222D01*
X024267Y023822D01*
X025067Y023022D01*
X025067Y022313D01*
X019530Y022313D01*
X019529Y022314D01*
X019423Y022358D01*
X019310Y022358D01*
X019205Y022314D01*
X019124Y022234D01*
X019116Y022213D01*
X017931Y023398D01*
X017931Y024339D01*
X017971Y024378D01*
X017971Y024866D01*
X017956Y024881D01*
X018009Y024935D01*
X018009Y025422D01*
X017915Y025516D01*
X017467Y025516D01*
X017372Y025422D01*
X017372Y024953D01*
X017365Y024960D01*
X017261Y024960D01*
X017261Y025422D01*
X017167Y025516D01*
X016719Y025516D01*
X016624Y025422D01*
X016624Y024935D01*
X016696Y024863D01*
X016466Y024863D01*
X016021Y025308D01*
X016021Y025308D01*
X015953Y025376D01*
X015865Y025413D01*
X013469Y025413D01*
X013380Y025376D01*
X013313Y025308D01*
X013262Y025258D01*
X013260Y025258D01*
X013155Y025214D01*
X013074Y025134D01*
X013031Y025029D01*
X013031Y025027D01*
X012913Y024908D01*
X012876Y024820D01*
X012876Y024340D01*
X012479Y024340D01*
X012462Y024323D01*
X012354Y024323D01*
X012355Y024324D01*
X012355Y024732D01*
X012317Y024769D01*
X012317Y024893D01*
X012359Y024935D01*
X012359Y025422D01*
X012265Y025516D01*
X011817Y025516D01*
X011722Y025422D01*
X011722Y025230D01*
X011716Y025214D01*
X011716Y024769D01*
X011679Y024732D01*
X011679Y024324D01*
X011730Y024272D01*
X011679Y024221D01*
X011679Y023812D01*
X011733Y023758D01*
X011660Y023758D01*
X011555Y023714D01*
X011474Y023634D01*
X011431Y023529D01*
X011431Y023415D01*
X011474Y023310D01*
X011555Y023230D01*
X011660Y023186D01*
X011662Y023186D01*
X012138Y022711D01*
X012205Y022643D01*
X012294Y022606D01*
X016042Y022606D01*
X018661Y019987D01*
X018605Y019964D01*
X018524Y019884D01*
X018481Y019779D01*
X018481Y019665D01*
X018524Y019560D01*
X018605Y019480D01*
X018710Y019436D01*
X018762Y019436D01*
X020717Y017482D01*
X020717Y015478D01*
X020596Y015478D01*
X020443Y015414D01*
X020409Y015380D01*
X017817Y017972D01*
X010067Y017972D01*
X010067Y018822D01*
X010111Y018822D01*
X010203Y018729D01*
X010730Y018729D01*
X010823Y018822D01*
X011567Y018822D01*
X012017Y019272D01*
X012017Y021372D01*
X011369Y022020D01*
X011437Y022128D02*
X016520Y022128D01*
X016362Y022287D02*
X011449Y022287D01*
X011348Y022445D02*
X016203Y022445D01*
X016045Y022604D02*
X010785Y022604D01*
X010627Y022762D02*
X012086Y022762D01*
X011928Y022921D02*
X010468Y022921D01*
X010310Y023079D02*
X011769Y023079D01*
X011547Y023238D02*
X010151Y023238D01*
X009993Y023396D02*
X011439Y023396D01*
X011442Y023555D02*
X009834Y023555D01*
X009817Y023713D02*
X011554Y023713D01*
X011679Y023872D02*
X009855Y023872D01*
X009855Y024030D02*
X009986Y024030D01*
X010148Y024030D02*
X011679Y024030D01*
X011679Y024189D02*
X010337Y024189D01*
X010367Y024347D02*
X011679Y024347D01*
X011679Y024506D02*
X010308Y024506D01*
X010150Y024664D02*
X011679Y024664D01*
X011716Y024823D02*
X008417Y024823D01*
X008417Y024981D02*
X011716Y024981D01*
X011716Y025140D02*
X008417Y025140D01*
X008409Y025298D02*
X011722Y025298D01*
X011757Y025457D02*
X008374Y025457D01*
X008091Y025178D02*
X008117Y025152D01*
X007772Y025140D02*
X006429Y025140D01*
X006429Y025298D02*
X007772Y025298D01*
X007807Y025457D02*
X006394Y025457D01*
X006429Y025774D02*
X006055Y025774D01*
X006055Y025932D02*
X006429Y025932D01*
X006429Y026091D02*
X006055Y026091D01*
X006015Y026249D02*
X006429Y026249D01*
X006429Y026408D02*
X006152Y026408D01*
X006311Y026566D02*
X006429Y026566D01*
X007067Y026725D02*
X010416Y026725D01*
X010416Y026883D02*
X007067Y026883D01*
X007183Y027042D02*
X010416Y027042D01*
X010448Y027200D02*
X007341Y027200D01*
X007500Y027359D02*
X010586Y027359D01*
X010745Y027517D02*
X007658Y027517D01*
X008078Y027676D02*
X010903Y027676D01*
X011062Y027834D02*
X008175Y027834D01*
X008205Y027993D02*
X011171Y027993D01*
X011171Y028151D02*
X008205Y028151D01*
X008205Y028310D02*
X011171Y028310D01*
X011171Y028468D02*
X008205Y028468D01*
X008205Y028627D02*
X011171Y028627D01*
X011171Y028785D02*
X008205Y028785D01*
X008205Y028944D02*
X011014Y028944D01*
X010855Y029102D02*
X008198Y029102D01*
X008132Y029261D02*
X010697Y029261D01*
X010538Y029419D02*
X007975Y029419D01*
X007967Y029578D02*
X010380Y029578D01*
X010244Y029736D02*
X007967Y029736D01*
X007967Y029895D02*
X010186Y029895D01*
X010186Y030053D02*
X007967Y030053D01*
X007967Y030212D02*
X010246Y030212D01*
X010319Y030370D02*
X007967Y030370D01*
X008123Y030529D02*
X010160Y030529D01*
X011791Y030822D02*
X001727Y030822D01*
X001117Y030212D01*
X001117Y019237D01*
X001727Y019237D01*
X002667Y019237D01*
X005167Y019237D01*
X005167Y021196D01*
X006443Y022472D01*
X006443Y023028D01*
X006091Y023396D02*
X001717Y023396D01*
X001717Y023238D02*
X005932Y023238D01*
X005867Y023079D02*
X001717Y023079D01*
X001717Y022921D02*
X005867Y022921D01*
X005867Y022762D02*
X001717Y022762D01*
X001717Y022604D02*
X005848Y022604D01*
X005690Y022445D02*
X001717Y022445D01*
X001717Y022287D02*
X005531Y022287D01*
X005373Y022128D02*
X001717Y022128D01*
X001717Y021970D02*
X005214Y021970D01*
X005056Y021811D02*
X001717Y021811D01*
X001717Y021653D02*
X004897Y021653D01*
X004739Y021494D02*
X001717Y021494D01*
X001717Y021336D02*
X004580Y021336D01*
X004422Y021177D02*
X001717Y021177D01*
X001717Y021019D02*
X004263Y021019D01*
X004105Y020860D02*
X001717Y020860D01*
X001717Y020702D02*
X003946Y020702D01*
X003788Y020543D02*
X001717Y020543D01*
X001717Y020385D02*
X003629Y020385D01*
X003471Y020226D02*
X001717Y020226D01*
X001717Y020068D02*
X003312Y020068D01*
X003154Y019909D02*
X001717Y019909D01*
X001717Y019751D02*
X002995Y019751D01*
X002667Y019907D02*
X004167Y021407D01*
X004167Y021741D01*
X005363Y022937D01*
X005363Y025178D01*
X005363Y025556D01*
X005367Y025560D01*
X003085Y025560D01*
X003229Y025104D02*
X003135Y025010D01*
X003135Y024522D01*
X003229Y024428D01*
X003677Y024428D01*
X003714Y024465D01*
X004070Y024465D01*
X004181Y024511D01*
X004265Y024596D01*
X004311Y024706D01*
X004311Y024826D01*
X004265Y024936D01*
X004181Y025021D01*
X004070Y025067D01*
X003714Y025067D01*
X003677Y025104D01*
X003229Y025104D01*
X003135Y024981D02*
X003023Y024981D01*
X003023Y025010D02*
X002929Y025104D01*
X002481Y025104D01*
X002387Y025010D01*
X002387Y024522D01*
X002481Y024428D01*
X002929Y024428D01*
X003023Y024522D01*
X003023Y025010D01*
X003023Y024823D02*
X003135Y024823D01*
X003135Y024664D02*
X003023Y024664D01*
X003007Y024506D02*
X003152Y024506D01*
X002403Y024506D02*
X001717Y024506D01*
X001717Y024664D02*
X002387Y024664D01*
X002387Y024823D02*
X001717Y024823D01*
X001717Y024981D02*
X002387Y024981D01*
X002051Y025457D02*
X005827Y025457D01*
X005792Y025298D02*
X001893Y025298D01*
X001734Y025140D02*
X005792Y025140D01*
X005792Y024981D02*
X004220Y024981D01*
X004311Y024823D02*
X005816Y024823D01*
X005779Y024664D02*
X004294Y024664D01*
X004168Y024506D02*
X005779Y024506D01*
X005805Y024347D02*
X001717Y024347D01*
X001717Y024189D02*
X005779Y024189D01*
X005779Y024030D02*
X001717Y024030D01*
X001717Y023872D02*
X005779Y023872D01*
X006044Y023713D02*
X001717Y023713D01*
X001717Y023555D02*
X006212Y023555D01*
X006455Y024189D02*
X006675Y024189D01*
X006616Y024347D02*
X006428Y024347D01*
X006455Y024506D02*
X006646Y024506D01*
X006783Y024664D02*
X006455Y024664D01*
X006417Y024823D02*
X007816Y024823D01*
X007772Y024981D02*
X006429Y024981D01*
X006117Y025172D02*
X006111Y025178D01*
X005367Y025560D02*
X007367Y025560D01*
X007343Y025536D01*
X007343Y025178D01*
X007367Y025560D02*
X008767Y025560D01*
X008767Y027082D01*
X009688Y028004D01*
X010379Y026566D02*
X007105Y026566D01*
X007105Y026408D02*
X010379Y026408D01*
X010379Y026249D02*
X007995Y026249D01*
X008035Y026091D02*
X010379Y026091D01*
X010379Y025932D02*
X008035Y025932D01*
X008035Y025774D02*
X010379Y025774D01*
X011267Y025560D02*
X023161Y025560D01*
X023193Y025528D01*
X023622Y025457D02*
X017974Y025457D01*
X018009Y025298D02*
X023622Y025298D01*
X023622Y025615D02*
X002210Y025615D01*
X002368Y025774D02*
X004429Y025774D01*
X004429Y025932D02*
X002527Y025932D01*
X004010Y024766D02*
X004017Y024772D01*
X006443Y022472D02*
X007886Y022472D01*
X008443Y023028D01*
X009135Y023713D02*
X009216Y023713D01*
X009179Y023872D02*
X009135Y023872D01*
X009135Y024030D02*
X009179Y024030D01*
X009197Y024189D02*
X008869Y024189D01*
X009179Y024347D02*
X008455Y024347D01*
X008455Y024506D02*
X009179Y024506D01*
X009179Y024664D02*
X008455Y024664D01*
X008767Y025560D02*
X011267Y025560D01*
X011293Y025534D01*
X011293Y025178D01*
X011985Y025774D02*
X016998Y025774D01*
X017226Y025457D02*
X017407Y025457D01*
X017372Y025298D02*
X017261Y025298D01*
X017261Y025140D02*
X017372Y025140D01*
X017372Y024981D02*
X017261Y024981D01*
X017161Y024622D02*
X016367Y024622D01*
X015817Y025172D01*
X013517Y025172D01*
X013317Y024972D01*
X013117Y024772D01*
X013117Y024042D01*
X013510Y023648D01*
X012876Y024347D02*
X012355Y024347D01*
X012355Y024506D02*
X012876Y024506D01*
X012876Y024664D02*
X012355Y024664D01*
X012317Y024823D02*
X012877Y024823D01*
X012985Y024981D02*
X012359Y024981D01*
X012359Y025140D02*
X013080Y025140D01*
X013302Y025298D02*
X012359Y025298D01*
X012324Y025457D02*
X016659Y025457D01*
X016624Y025298D02*
X016031Y025298D01*
X016190Y025140D02*
X016624Y025140D01*
X016624Y024981D02*
X016348Y024981D01*
X015617Y024872D02*
X013817Y024872D01*
X014673Y024422D02*
X015567Y024422D01*
X016173Y023816D01*
X016292Y023697D01*
X023407Y016582D01*
X027567Y016582D01*
X027717Y016922D02*
X023567Y016922D01*
X015617Y024872D01*
X017635Y025774D02*
X023624Y025774D01*
X024267Y025140D02*
X018009Y025140D01*
X018009Y024981D02*
X024267Y024981D01*
X024267Y024823D02*
X017971Y024823D01*
X017971Y024664D02*
X024267Y024664D01*
X024267Y024506D02*
X017971Y024506D01*
X017940Y024347D02*
X024267Y024347D01*
X024267Y024189D02*
X017931Y024189D01*
X017931Y024030D02*
X024267Y024030D01*
X024267Y023872D02*
X017931Y023872D01*
X017931Y023713D02*
X024376Y023713D01*
X024534Y023555D02*
X017931Y023555D01*
X017933Y023396D02*
X024693Y023396D01*
X024851Y023238D02*
X018092Y023238D01*
X018250Y023079D02*
X025010Y023079D01*
X025067Y022921D02*
X018409Y022921D01*
X018567Y022762D02*
X025067Y022762D01*
X025067Y022604D02*
X018726Y022604D01*
X018884Y022445D02*
X025067Y022445D01*
X026317Y022772D02*
X027217Y022772D01*
X027567Y022582D02*
X027727Y022422D01*
X029417Y022422D01*
X032767Y025772D01*
X032117Y025622D02*
X030467Y023972D01*
X027957Y023972D01*
X027567Y023582D01*
X027117Y023572D02*
X026567Y023572D01*
X026317Y023822D01*
X026317Y026472D01*
X026895Y027050D01*
X026895Y027794D01*
X027151Y027794D02*
X027151Y026806D01*
X026667Y026322D01*
X026667Y024972D01*
X026867Y024772D01*
X027017Y025122D02*
X027217Y024922D01*
X027017Y025122D02*
X027017Y026172D01*
X025967Y026622D02*
X026639Y027294D01*
X026639Y027794D01*
X026383Y027794D02*
X026383Y027538D01*
X025617Y026772D01*
X025617Y025072D01*
X025317Y024772D01*
X025136Y024772D01*
X024743Y024378D01*
X025967Y023672D02*
X026557Y023082D01*
X028067Y023082D01*
X028157Y022672D02*
X027897Y022672D01*
X028157Y022672D02*
X029067Y023582D01*
X030367Y024372D02*
X031467Y025472D01*
X030817Y025322D02*
X030577Y025082D01*
X027567Y025082D01*
X026867Y024372D02*
X030367Y024372D01*
X031967Y023272D02*
X034497Y023272D01*
X035073Y022696D01*
X035467Y023272D02*
X035467Y021172D01*
X035443Y021196D01*
X035073Y021196D01*
X035467Y021172D02*
X035467Y019722D01*
X035441Y019696D01*
X035073Y019696D01*
X035467Y019722D02*
X035467Y018590D01*
X035073Y018196D01*
X033723Y017316D02*
X033467Y017572D01*
X033467Y018346D01*
X033073Y018346D01*
X033467Y018346D02*
X033467Y019846D01*
X033073Y019846D01*
X033467Y019846D02*
X033467Y021346D01*
X033073Y021346D01*
X033467Y021346D02*
X033467Y022452D01*
X033073Y022846D01*
X032017Y022066D02*
X032011Y022072D01*
X032017Y022066D02*
X032017Y021422D01*
X032011Y020572D02*
X031561Y020122D01*
X028027Y020122D01*
X027567Y020582D01*
X027567Y021072D02*
X028067Y020572D01*
X029267Y020572D01*
X031967Y023272D01*
X029417Y021422D02*
X034939Y026944D01*
X034939Y027889D01*
X035254Y027889D02*
X035254Y026572D01*
X035817Y026572D02*
X035817Y028122D01*
X035617Y028322D01*
X035293Y028322D01*
X035254Y028755D02*
X035550Y028755D01*
X035651Y028856D01*
X035271Y028772D02*
X035254Y028755D01*
X035254Y029325D01*
X035501Y029572D01*
X034832Y029572D02*
X034624Y029364D01*
X034624Y028755D01*
X034939Y028755D01*
X034832Y029572D02*
X033832Y030572D01*
X033582Y030822D01*
X029967Y030822D01*
X028767Y031122D02*
X028767Y029722D01*
X028317Y029272D01*
X027667Y029272D01*
X027151Y029272D01*
X027151Y029250D01*
X026895Y029250D01*
X027151Y029250D02*
X027495Y028906D01*
X033033Y028906D01*
X033133Y028806D01*
X033184Y028755D01*
X033679Y028755D01*
X033679Y029325D01*
X033432Y029572D01*
X033994Y029465D02*
X034101Y029572D01*
X033994Y029465D02*
X033994Y028755D01*
X033640Y028322D02*
X032717Y028322D01*
X032389Y028650D01*
X027495Y028650D01*
X027045Y028650D01*
X027017Y028622D01*
X027495Y028394D02*
X032245Y028394D01*
X033304Y027335D01*
X033679Y027335D01*
X033679Y027889D01*
X033994Y027889D02*
X033994Y027000D01*
X033239Y027000D01*
X032101Y028138D01*
X027495Y028138D01*
X026383Y027794D02*
X026038Y028138D01*
X026038Y028394D01*
X026038Y028650D01*
X026038Y028906D01*
X026383Y029250D01*
X026383Y030037D01*
X026383Y031872D01*
X014541Y031872D01*
X012641Y029972D01*
X011791Y030822D01*
X017301Y028004D02*
X017317Y027988D01*
X017691Y025178D02*
X017673Y025160D01*
X017673Y024622D01*
X017691Y024604D01*
X017691Y023298D01*
X023407Y017582D01*
X027567Y017582D01*
X027567Y018082D02*
X028627Y017022D01*
X033211Y017022D01*
X033367Y016622D02*
X028017Y016622D01*
X027717Y016922D01*
X027567Y016082D02*
X027567Y015302D01*
X026560Y014296D01*
X025773Y013922D02*
X025754Y013922D01*
X024617Y015059D01*
X024492Y015722D02*
X023829Y015059D01*
X023437Y015322D02*
X023437Y015552D01*
X016142Y022847D01*
X012342Y022847D01*
X011717Y023472D01*
X011167Y022222D02*
X008647Y022222D01*
X008167Y021741D01*
X008167Y021407D01*
X009667Y019907D01*
X009667Y019237D02*
X009001Y019237D01*
X007167Y017403D01*
X005167Y017403D01*
X005167Y019237D01*
X007167Y017403D02*
X007294Y017276D01*
X007294Y015059D01*
X010067Y018007D02*
X020191Y018007D01*
X020033Y018166D02*
X010067Y018166D01*
X010067Y018324D02*
X019874Y018324D01*
X019716Y018483D02*
X010067Y018483D01*
X010067Y018641D02*
X019557Y018641D01*
X019399Y018800D02*
X010800Y018800D01*
X010467Y019107D02*
X009797Y019107D01*
X009667Y019237D01*
X010067Y018800D02*
X010133Y018800D01*
X010467Y019107D02*
X010467Y020037D01*
X010932Y019572D02*
X011467Y019572D01*
X010932Y019572D02*
X010467Y019107D01*
X011467Y018572D02*
X017517Y018572D01*
X020297Y015792D01*
X020297Y015322D01*
X020318Y015471D02*
X020581Y015471D01*
X020717Y015630D02*
X020159Y015630D01*
X020001Y015788D02*
X020717Y015788D01*
X020717Y015947D02*
X019842Y015947D01*
X019684Y016105D02*
X020717Y016105D01*
X020717Y016264D02*
X019525Y016264D01*
X019367Y016422D02*
X020717Y016422D01*
X020717Y016581D02*
X019208Y016581D01*
X019050Y016739D02*
X020717Y016739D01*
X020717Y016898D02*
X018891Y016898D01*
X018733Y017056D02*
X020717Y017056D01*
X020717Y017215D02*
X018574Y017215D01*
X018416Y017373D02*
X020717Y017373D01*
X020667Y017532D02*
X018257Y017532D01*
X018099Y017690D02*
X020508Y017690D01*
X020350Y017849D02*
X017940Y017849D01*
X019240Y018958D02*
X011703Y018958D01*
X011861Y019117D02*
X019082Y019117D01*
X018923Y019275D02*
X012017Y019275D01*
X012017Y019434D02*
X018765Y019434D01*
X018767Y019722D02*
X018817Y019722D01*
X022917Y015622D01*
X022647Y015442D02*
X022267Y015822D01*
X021867Y015822D02*
X021867Y015322D01*
X022647Y015322D02*
X022647Y015442D01*
X024492Y015722D02*
X026123Y015722D01*
X026467Y016096D02*
X026910Y016096D01*
X028567Y017572D02*
X032011Y017572D01*
X033367Y016622D02*
X033767Y016222D01*
X033767Y014822D01*
X033767Y011772D01*
X033817Y011822D01*
X034490Y011822D01*
X033767Y011772D02*
X033767Y008772D01*
X033817Y008822D01*
X034490Y008822D01*
X033767Y008772D02*
X033767Y006172D01*
X034117Y005822D01*
X034490Y005822D01*
X035882Y005822D02*
X035967Y005737D01*
X036001Y006372D02*
X035967Y006407D01*
X036417Y006407D01*
X037101Y005722D01*
X039617Y005722D01*
X039617Y004935D01*
X039617Y004147D01*
X039617Y003360D01*
X033579Y003360D01*
X031641Y001422D01*
X027691Y005372D01*
X027017Y005372D01*
X025317Y007072D01*
X023729Y007872D02*
X026629Y004972D01*
X027304Y004972D01*
X030854Y001422D01*
X030067Y001422D02*
X026867Y004622D01*
X026192Y004622D01*
X022942Y007872D01*
X024517Y008659D02*
X023437Y009739D01*
X023437Y014072D01*
X022647Y014022D02*
X022647Y013752D01*
X021017Y012122D01*
X014067Y012122D01*
X011517Y009572D01*
X011517Y008872D01*
X010361Y007855D02*
X010343Y007872D01*
X011517Y007622D02*
X011517Y007216D01*
X010873Y006572D01*
X010873Y005796D02*
X010843Y005766D01*
X008367Y007216D02*
X008367Y007622D01*
X008367Y007216D02*
X007723Y006572D01*
X007723Y005796D02*
X007693Y005766D01*
X007211Y007855D02*
X007194Y007872D01*
X008367Y008922D02*
X008367Y009572D01*
X011267Y012472D01*
X020567Y012472D01*
X021867Y013772D01*
X021867Y014022D01*
X020297Y014022D02*
X020297Y013142D01*
X024523Y011496D02*
X024917Y011102D01*
X024917Y009072D01*
X025317Y008672D01*
X031117Y008772D02*
X031117Y006522D01*
X031817Y005822D01*
X032443Y005822D01*
X032443Y006322D02*
X031917Y006322D01*
X031467Y006772D01*
X032443Y006822D02*
X032867Y006822D01*
X033117Y007072D01*
X033117Y009822D01*
X033117Y012822D01*
X032443Y012822D01*
X033117Y012822D02*
X033117Y015822D01*
X033117Y016322D01*
X033117Y015822D02*
X032443Y015822D01*
X032443Y015322D02*
X031967Y015322D01*
X031717Y015572D01*
X031417Y014822D02*
X032443Y014822D01*
X032117Y014422D02*
X030727Y014422D01*
X029067Y016082D01*
X029067Y015082D02*
X030077Y014072D01*
X032217Y014072D01*
X032317Y013722D02*
X029927Y013722D01*
X029067Y014582D01*
X028827Y013322D02*
X027567Y014582D01*
X028827Y013322D02*
X031717Y013322D01*
X031067Y012822D02*
X031567Y012322D01*
X032443Y012322D01*
X032443Y011822D02*
X031167Y011822D01*
X031117Y011772D01*
X031117Y012172D01*
X031117Y011772D02*
X031117Y008772D01*
X031167Y008822D01*
X032443Y008822D01*
X032443Y009322D02*
X031917Y009322D01*
X031467Y009772D01*
X031467Y010022D01*
X032443Y009822D02*
X033117Y009822D01*
X035967Y009407D02*
X036382Y009407D01*
X036417Y009372D01*
X036417Y006407D01*
X035967Y008737D02*
X035882Y008822D01*
X036417Y009372D02*
X036417Y012322D01*
X036332Y012407D01*
X035967Y012407D01*
X036417Y012322D02*
X036417Y015372D01*
X038017Y016972D01*
X040117Y016972D01*
X039617Y015785D02*
X039117Y015285D01*
X039117Y013972D01*
X040017Y013072D01*
X040017Y001622D01*
X039417Y001022D01*
X007192Y001022D01*
X006792Y001422D01*
X004567Y003647D01*
X004567Y005872D01*
X003267Y007172D01*
X003267Y008172D02*
X004917Y006522D01*
X004917Y004085D01*
X007579Y001422D01*
X008367Y001422D02*
X005267Y004522D01*
X005267Y007172D01*
X003267Y009172D01*
X002767Y009672D02*
X002267Y010172D01*
X002767Y009672D02*
X002767Y004660D01*
X006004Y001422D01*
X006654Y000772D01*
X039517Y000772D01*
X040267Y001522D01*
X040267Y014347D01*
X039617Y014997D01*
X036417Y015372D02*
X036001Y015372D01*
X035967Y015407D01*
X035967Y015522D01*
X035882Y014822D02*
X035967Y014737D01*
X034490Y014822D02*
X033767Y014822D01*
X034490Y016322D02*
X034490Y016333D01*
X033723Y017022D02*
X033723Y017316D01*
X032011Y019072D02*
X031501Y019582D01*
X027567Y019582D01*
X027467Y018672D02*
X028567Y017572D01*
X027467Y018672D02*
X027167Y018672D01*
X026267Y017972D02*
X025317Y017972D01*
X022917Y020372D01*
X022417Y020872D02*
X026667Y020872D01*
X026867Y021072D01*
X027567Y021072D01*
X027767Y021372D02*
X028167Y020972D01*
X028957Y020972D01*
X029067Y021082D01*
X029417Y021422D02*
X028407Y021422D01*
X028317Y021332D01*
X028067Y021582D02*
X028207Y021722D01*
X029217Y021722D01*
X034017Y026522D01*
X034067Y026572D01*
X036367Y028972D02*
X036367Y030322D01*
X036367Y030572D01*
X033832Y030572D01*
X036367Y030572D02*
X039617Y030572D01*
X039599Y025078D02*
X039617Y025060D01*
X029067Y022082D02*
X028077Y022082D01*
X027717Y021722D01*
X019717Y021722D01*
X020067Y021372D02*
X027767Y021372D01*
X027057Y022332D02*
X026797Y022072D01*
X019367Y022072D01*
X019177Y022287D02*
X019043Y022287D01*
X017630Y021019D02*
X012017Y021019D01*
X012017Y021177D02*
X017471Y021177D01*
X017313Y021336D02*
X012017Y021336D01*
X011895Y021494D02*
X017154Y021494D01*
X017788Y020860D02*
X012017Y020860D01*
X012017Y020702D02*
X017947Y020702D01*
X018105Y020543D02*
X012017Y020543D01*
X012017Y020385D02*
X018264Y020385D01*
X018422Y020226D02*
X012017Y020226D01*
X012017Y020068D02*
X018581Y020068D01*
X018550Y019909D02*
X012017Y019909D01*
X012017Y019751D02*
X018481Y019751D01*
X018511Y019592D02*
X012017Y019592D01*
X011985Y025932D02*
X012007Y025932D01*
X001727Y019237D02*
X001727Y001832D01*
X025967Y023672D02*
X025967Y026622D01*
X026639Y029250D02*
X026639Y029544D01*
X026717Y029622D01*
X028117Y029622D01*
X028351Y029857D01*
X028351Y030072D01*
X028767Y031122D02*
X028617Y031272D01*
X028351Y031272D01*
X027682Y031872D02*
X026383Y031872D01*
X027067Y030707D02*
X027101Y030672D01*
X027101Y030072D02*
X027067Y030037D01*
X026383Y030037D01*
X035882Y011822D02*
X035967Y011737D01*
D33*
X035882Y011822D02*
X034490Y011822D01*
X034490Y012322D02*
X035317Y012322D01*
X035551Y012822D02*
X035967Y012407D01*
X035551Y012822D02*
X034490Y012822D01*
X034490Y013322D01*
X034490Y014822D02*
X035882Y014822D01*
X035317Y015322D02*
X034490Y015322D01*
X034490Y015822D02*
X035551Y015822D01*
X035967Y015407D01*
X034490Y015822D02*
X034490Y016322D01*
X034490Y016333D02*
X033723Y017022D01*
X034467Y017466D02*
X035055Y017466D01*
X035073Y017448D01*
X034461Y017972D02*
X034467Y017978D01*
X034461Y017972D02*
X033860Y017972D01*
X033073Y017598D02*
X032549Y017598D01*
X032523Y017572D01*
X034467Y018966D02*
X035055Y018966D01*
X035073Y018948D01*
X034461Y019472D02*
X034467Y019478D01*
X034461Y019472D02*
X033860Y019472D01*
X033073Y019098D02*
X032549Y019098D01*
X032523Y019072D01*
X032523Y020572D02*
X032549Y020598D01*
X033073Y020598D01*
X033860Y020972D02*
X033866Y020978D01*
X034467Y020978D01*
X034467Y020466D02*
X035055Y020466D01*
X035073Y020448D01*
X035860Y020822D02*
X035866Y020828D01*
X036467Y020828D01*
X036467Y020316D02*
X038235Y020316D01*
X039617Y018934D01*
X038947Y018816D02*
X039617Y018147D01*
X038947Y018816D02*
X036467Y018816D01*
X036467Y019328D02*
X035866Y019328D01*
X035860Y019322D01*
X035866Y017828D02*
X035860Y017822D01*
X035866Y017828D02*
X036467Y017828D01*
X036467Y017316D02*
X039573Y017316D01*
X039617Y017359D01*
X039617Y019722D02*
X037522Y021816D01*
X036467Y021816D01*
X036467Y022328D02*
X035866Y022328D01*
X035860Y022322D01*
X035467Y023090D02*
X035073Y022696D01*
X035467Y023090D02*
X035467Y023272D01*
X035467Y024566D01*
X035467Y025078D02*
X039599Y025078D01*
X037517Y027822D02*
X036367Y028972D01*
X034832Y029572D02*
X034101Y029572D01*
X028351Y030072D02*
X028351Y030672D01*
X028351Y031272D02*
X028351Y031872D01*
X027682Y031872D02*
X027682Y031272D01*
X027682Y030672D02*
X027101Y030672D01*
X027101Y030072D02*
X027682Y030072D01*
X025175Y028004D02*
X025175Y026274D01*
X025173Y026272D01*
X024661Y026272D02*
X023610Y026272D01*
X023567Y026316D01*
X024134Y025722D02*
X024611Y025722D01*
X024134Y025722D02*
X023941Y025528D01*
X025117Y025716D02*
X025117Y025166D01*
X025117Y025716D02*
X025123Y025722D01*
X025491Y024378D02*
X025517Y024352D01*
X025517Y023928D01*
X025517Y023416D02*
X025517Y022972D01*
X032523Y022072D02*
X032549Y022098D01*
X033073Y022098D01*
X033860Y022472D02*
X033866Y022478D01*
X034467Y022478D01*
X034467Y021966D02*
X035055Y021966D01*
X035073Y021948D01*
X027167Y013690D02*
X026560Y014296D01*
X027167Y013690D02*
X027167Y013578D01*
X025767Y013066D02*
X024966Y013066D01*
X024823Y012922D01*
X024311Y012922D02*
X024311Y013966D01*
X024617Y014272D01*
X023967Y012272D02*
X025386Y012272D01*
X025393Y012278D01*
X026141Y012278D02*
X026373Y012046D01*
X026373Y011122D01*
X025861Y011122D02*
X025310Y011122D01*
X024523Y010748D02*
X024505Y010766D01*
X023967Y010766D01*
X023967Y011278D02*
X023967Y011672D01*
X034490Y010322D02*
X034490Y009822D01*
X035551Y009822D01*
X035967Y009407D01*
X035317Y009322D02*
X034490Y009322D01*
X034490Y008822D02*
X035882Y008822D01*
X034490Y007322D02*
X034490Y006822D01*
X035551Y006822D01*
X035967Y006407D01*
X035317Y006322D02*
X034490Y006322D01*
X034490Y005822D02*
X035882Y005822D01*
X012723Y024022D02*
X012023Y024022D01*
X012017Y024016D01*
X012017Y024528D02*
X012017Y025154D01*
X012041Y025178D01*
X011667Y025966D02*
X010766Y025966D01*
X010717Y025916D01*
X010717Y026428D02*
X010717Y027064D01*
X011656Y028004D01*
X008117Y025152D02*
X008117Y024478D01*
X008117Y023966D02*
X008666Y023966D01*
X008817Y023816D01*
X009517Y023966D02*
X009517Y023354D01*
X009191Y023028D01*
X009517Y024478D02*
X009911Y024478D01*
X010067Y024322D01*
X007517Y024478D02*
X007023Y024478D01*
X006917Y024372D01*
X006817Y023816D02*
X006367Y023816D01*
X006117Y024066D01*
X006117Y024578D02*
X006117Y025172D01*
X005737Y025966D02*
X004816Y025966D01*
X004767Y025916D01*
X004767Y026428D02*
X004767Y027019D01*
X005751Y028004D01*
X006767Y027051D02*
X007719Y028004D01*
X006767Y027051D02*
X006767Y026428D01*
X006816Y025966D02*
X006767Y025916D01*
X006816Y025966D02*
X007717Y025966D01*
X007517Y023966D02*
X007517Y023354D01*
X007191Y023028D01*
X004010Y024766D02*
X003453Y024766D01*
X013510Y024396D02*
X013536Y024422D01*
X014161Y024422D01*
X017317Y025966D02*
X017317Y027988D01*
X010361Y007855D02*
X010361Y006572D01*
X010873Y006572D02*
X010873Y005796D01*
X011217Y004978D02*
X010910Y004672D01*
X010623Y004672D01*
X010111Y004672D02*
X010111Y001591D01*
X009941Y001422D01*
X009173Y001441D02*
X009173Y004672D01*
X008661Y004672D02*
X008373Y004672D01*
X008067Y004978D01*
X007723Y005796D02*
X007723Y006572D01*
X007211Y006572D02*
X007211Y007855D01*
X009173Y001441D02*
X009154Y001422D01*
D34*
X016743Y014272D02*
X017530Y014272D01*
X018317Y014272D01*
X019105Y014272D01*
X019892Y014272D01*
X018317Y015059D02*
X017530Y015059D01*
X016743Y015059D01*
D35*
X000717Y000822D02*
X000717Y032322D01*
X040217Y032322D01*
X040217Y014723D01*
X039965Y014974D01*
X039965Y015067D01*
X039912Y015195D01*
X039814Y015293D01*
X039686Y015346D01*
X039547Y015346D01*
X039472Y015314D01*
X039594Y015436D01*
X039686Y015436D01*
X039814Y015489D01*
X039912Y015587D01*
X039965Y015715D01*
X039965Y015854D01*
X039912Y015982D01*
X039814Y016080D01*
X039686Y016133D01*
X039547Y016133D01*
X039419Y016080D01*
X039321Y015982D01*
X039268Y015854D01*
X039268Y015761D01*
X038887Y015380D01*
X038887Y013877D01*
X039021Y013742D01*
X039787Y012977D01*
X039787Y009178D01*
X039686Y009220D01*
X039547Y009220D01*
X039419Y009167D01*
X039321Y009069D01*
X039268Y008941D01*
X039268Y008802D01*
X039321Y008674D01*
X039419Y008576D01*
X039547Y008523D01*
X039686Y008523D01*
X039787Y008565D01*
X039787Y008391D01*
X039686Y008433D01*
X039547Y008433D01*
X039419Y008380D01*
X039321Y008282D01*
X039268Y008154D01*
X039268Y008015D01*
X039321Y007887D01*
X039419Y007789D01*
X039547Y007736D01*
X039686Y007736D01*
X039787Y007778D01*
X039787Y007604D01*
X039686Y007645D01*
X039547Y007645D01*
X039419Y007592D01*
X039321Y007494D01*
X039268Y007366D01*
X039268Y007228D01*
X039321Y007099D01*
X039419Y007001D01*
X039547Y006948D01*
X039686Y006948D01*
X039787Y006990D01*
X039787Y006816D01*
X039686Y006858D01*
X039547Y006858D01*
X039419Y006805D01*
X039321Y006707D01*
X039268Y006579D01*
X039268Y006440D01*
X039321Y006312D01*
X039419Y006214D01*
X039547Y006161D01*
X039686Y006161D01*
X039787Y006203D01*
X039787Y001717D01*
X039321Y001252D01*
X033523Y001252D01*
X033565Y001353D01*
X033565Y001491D01*
X033512Y001619D01*
X033414Y001717D01*
X033286Y001770D01*
X033147Y001770D01*
X033019Y001717D01*
X032921Y001619D01*
X032868Y001491D01*
X032868Y001353D01*
X032910Y001252D01*
X032736Y001252D01*
X032777Y001353D01*
X032777Y001491D01*
X032724Y001619D01*
X032626Y001717D01*
X032498Y001770D01*
X032360Y001770D01*
X032232Y001717D01*
X032133Y001619D01*
X032080Y001491D01*
X032080Y001353D01*
X032122Y001252D01*
X031161Y001252D01*
X031202Y001353D01*
X031202Y001491D01*
X031149Y001619D01*
X031051Y001717D01*
X030923Y001770D01*
X030831Y001770D01*
X027534Y005067D01*
X027399Y005202D01*
X026725Y005202D01*
X024136Y007790D01*
X024137Y007791D01*
X024137Y007953D01*
X024075Y008103D01*
X023960Y008217D01*
X023810Y008280D01*
X023648Y008280D01*
X023498Y008217D01*
X023384Y008103D01*
X023336Y007986D01*
X023287Y008103D01*
X023173Y008217D01*
X023056Y008266D01*
X023173Y008314D01*
X023287Y008429D01*
X023349Y008578D01*
X023349Y008741D01*
X023287Y008890D01*
X023173Y009005D01*
X023023Y009067D01*
X022861Y009067D01*
X022711Y009005D01*
X022596Y008890D01*
X022548Y008774D01*
X022500Y008890D01*
X022385Y009005D01*
X022236Y009067D01*
X022073Y009067D01*
X021924Y009005D01*
X021809Y008890D01*
X021747Y008741D01*
X021747Y008578D01*
X021809Y008429D01*
X021924Y008314D01*
X022073Y008252D01*
X022236Y008252D01*
X022385Y008314D01*
X022500Y008429D01*
X022548Y008545D01*
X022596Y008429D01*
X022711Y008314D01*
X022828Y008266D01*
X022711Y008217D01*
X022596Y008103D01*
X022534Y007953D01*
X022534Y007791D01*
X022596Y007641D01*
X022636Y007602D01*
X021962Y007602D01*
X021774Y007790D01*
X021775Y007791D01*
X021775Y007953D01*
X021713Y008103D01*
X021598Y008217D01*
X021448Y008280D01*
X021286Y008280D01*
X021136Y008217D01*
X021022Y008103D01*
X020973Y007986D01*
X020925Y008103D01*
X020810Y008217D01*
X020694Y008266D01*
X020810Y008314D01*
X020925Y008429D01*
X020987Y008578D01*
X020987Y008741D01*
X020925Y008890D01*
X020810Y009005D01*
X020661Y009067D01*
X020499Y009067D01*
X020349Y009005D01*
X020234Y008890D01*
X020186Y008774D01*
X020138Y008890D01*
X020023Y009005D01*
X019873Y009067D01*
X019711Y009067D01*
X019561Y009005D01*
X019447Y008890D01*
X019385Y008741D01*
X019385Y008578D01*
X019447Y008429D01*
X019561Y008314D01*
X019711Y008252D01*
X019873Y008252D01*
X019874Y008252D01*
X019962Y008165D01*
X019962Y008027D01*
X020002Y007987D01*
X020002Y007757D01*
X019962Y007717D01*
X019962Y007602D01*
X019311Y007602D01*
X019350Y007641D01*
X019412Y007791D01*
X019412Y007953D01*
X019350Y008103D01*
X019236Y008217D01*
X019086Y008280D01*
X018924Y008280D01*
X018847Y008248D01*
X018847Y008356D01*
X018712Y008490D01*
X018625Y008578D01*
X018625Y008741D01*
X018563Y008890D01*
X018448Y009005D01*
X018299Y009067D01*
X018136Y009067D01*
X017987Y009005D01*
X017872Y008890D01*
X017824Y008774D01*
X017775Y008890D01*
X017661Y009005D01*
X017511Y009067D01*
X017349Y009067D01*
X017199Y009005D01*
X017085Y008890D01*
X017023Y008741D01*
X017023Y008578D01*
X017085Y008429D01*
X017199Y008314D01*
X017349Y008252D01*
X017511Y008252D01*
X017512Y008252D01*
X017587Y008178D01*
X017587Y008027D01*
X017627Y007987D01*
X017627Y007757D01*
X017587Y007717D01*
X017587Y007602D01*
X016949Y007602D01*
X016988Y007641D01*
X017050Y007791D01*
X017050Y007953D01*
X016988Y008103D01*
X016873Y008217D01*
X016724Y008280D01*
X016562Y008280D01*
X016477Y008244D01*
X016477Y008363D01*
X016342Y008498D01*
X016262Y008578D01*
X016263Y008578D01*
X016263Y008741D01*
X016201Y008890D01*
X016086Y009005D01*
X015936Y009067D01*
X015774Y009067D01*
X015624Y009005D01*
X015510Y008890D01*
X015448Y008741D01*
X015448Y008578D01*
X015510Y008429D01*
X015624Y008314D01*
X015741Y008266D01*
X015624Y008217D01*
X015510Y008103D01*
X015448Y007953D01*
X015448Y007791D01*
X015510Y007641D01*
X015624Y007527D01*
X015774Y007465D01*
X015936Y007465D01*
X016017Y007498D01*
X016017Y007047D01*
X015266Y006297D01*
X015262Y006297D01*
X015161Y006255D01*
X015084Y006178D01*
X015042Y006077D01*
X015042Y006060D01*
X014184Y005202D01*
X011524Y005202D01*
X011524Y005218D01*
X011436Y005306D01*
X010997Y005306D01*
X010909Y005218D01*
X010909Y005202D01*
X008374Y005202D01*
X008374Y005218D01*
X008286Y005306D01*
X007847Y005306D01*
X007759Y005218D01*
X007759Y005202D01*
X005497Y005202D01*
X005497Y007267D01*
X005362Y007402D01*
X003615Y009149D01*
X003615Y009241D01*
X003562Y009369D01*
X003464Y009467D01*
X003336Y009520D01*
X003197Y009520D01*
X003069Y009467D01*
X002997Y009395D01*
X002997Y009767D01*
X002615Y010149D01*
X002615Y010241D01*
X002562Y010369D01*
X002464Y010467D01*
X002336Y010520D01*
X002197Y010520D01*
X002069Y010467D01*
X001971Y010369D01*
X001918Y010241D01*
X001918Y010103D01*
X001971Y009975D01*
X002069Y009877D01*
X002197Y009824D01*
X002290Y009824D01*
X002537Y009577D01*
X002537Y009395D01*
X002464Y009467D01*
X002336Y009520D01*
X002197Y009520D01*
X002069Y009467D01*
X001971Y009369D01*
X001918Y009241D01*
X001918Y009103D01*
X001971Y008975D01*
X002069Y008877D01*
X002197Y008824D01*
X002336Y008824D01*
X002464Y008877D01*
X002537Y008949D01*
X002537Y008395D01*
X002464Y008467D01*
X002336Y008520D01*
X002197Y008520D01*
X002069Y008467D01*
X001971Y008369D01*
X001918Y008241D01*
X001918Y008103D01*
X001971Y007975D01*
X002069Y007877D01*
X002197Y007824D01*
X002336Y007824D01*
X002464Y007877D01*
X002537Y007949D01*
X002537Y007395D01*
X002464Y007467D01*
X002537Y007467D01*
X002464Y007467D02*
X002336Y007520D01*
X002197Y007520D01*
X002069Y007467D01*
X000717Y007467D01*
X000717Y007369D02*
X001971Y007369D01*
X001918Y007241D01*
X001918Y007103D01*
X001971Y006975D01*
X002069Y006877D01*
X002197Y006824D01*
X002336Y006824D01*
X002464Y006877D01*
X002537Y006949D01*
X002537Y006395D01*
X002464Y006467D01*
X002336Y006520D01*
X002197Y006520D01*
X002069Y006467D01*
X001971Y006369D01*
X001918Y006241D01*
X001918Y006103D01*
X001971Y005975D01*
X002069Y005877D01*
X002197Y005824D01*
X002336Y005824D01*
X002464Y005877D01*
X002537Y005949D01*
X002537Y004565D01*
X002671Y004430D01*
X005656Y001445D01*
X005656Y001353D01*
X005709Y001225D01*
X005807Y001127D01*
X005935Y001074D01*
X006028Y001074D01*
X006279Y000822D01*
X000717Y000822D01*
X000717Y000868D02*
X006234Y000868D01*
X006135Y000966D02*
X000717Y000966D01*
X000717Y001065D02*
X006037Y001065D01*
X005771Y001163D02*
X000717Y001163D01*
X000717Y001262D02*
X005694Y001262D01*
X005656Y001360D02*
X000717Y001360D01*
X000717Y001459D02*
X005643Y001459D01*
X005544Y001557D02*
X000717Y001557D01*
X000717Y001656D02*
X005446Y001656D01*
X005347Y001754D02*
X000717Y001754D01*
X000717Y001853D02*
X005249Y001853D01*
X005150Y001951D02*
X000717Y001951D01*
X000717Y002050D02*
X005052Y002050D01*
X004953Y002148D02*
X000717Y002148D01*
X000717Y002247D02*
X004855Y002247D01*
X004756Y002345D02*
X000717Y002345D01*
X000717Y002444D02*
X004658Y002444D01*
X004559Y002542D02*
X000717Y002542D01*
X000717Y002641D02*
X004461Y002641D01*
X004362Y002739D02*
X000717Y002739D01*
X000717Y002838D02*
X004264Y002838D01*
X004165Y002936D02*
X000717Y002936D01*
X000717Y003035D02*
X004067Y003035D01*
X003968Y003133D02*
X000717Y003133D01*
X000717Y003232D02*
X003870Y003232D01*
X003771Y003330D02*
X000717Y003330D01*
X000717Y003429D02*
X003673Y003429D01*
X003574Y003527D02*
X000717Y003527D01*
X000717Y003626D02*
X003476Y003626D01*
X003377Y003724D02*
X000717Y003724D01*
X000717Y003823D02*
X003279Y003823D01*
X003180Y003921D02*
X000717Y003921D01*
X000717Y004020D02*
X003082Y004020D01*
X002983Y004118D02*
X000717Y004118D01*
X000717Y004217D02*
X002885Y004217D01*
X002786Y004315D02*
X000717Y004315D01*
X000717Y004414D02*
X002688Y004414D01*
X002589Y004512D02*
X000717Y004512D01*
X000717Y004611D02*
X002537Y004611D01*
X002537Y004709D02*
X000717Y004709D01*
X000717Y004808D02*
X002537Y004808D01*
X002537Y004906D02*
X000717Y004906D01*
X000717Y005005D02*
X002537Y005005D01*
X002537Y005103D02*
X000717Y005103D01*
X000717Y005202D02*
X002537Y005202D01*
X002537Y005300D02*
X000717Y005300D01*
X000717Y005399D02*
X002537Y005399D01*
X002537Y005497D02*
X000717Y005497D01*
X000717Y005596D02*
X002537Y005596D01*
X002537Y005694D02*
X000717Y005694D01*
X000717Y005793D02*
X002537Y005793D01*
X002537Y005891D02*
X002478Y005891D01*
X002055Y005891D02*
X000717Y005891D01*
X000717Y005990D02*
X001965Y005990D01*
X001924Y006088D02*
X000717Y006088D01*
X000717Y006187D02*
X001918Y006187D01*
X001936Y006285D02*
X000717Y006285D01*
X000717Y006384D02*
X001985Y006384D01*
X002105Y006482D02*
X000717Y006482D01*
X000717Y006581D02*
X002537Y006581D01*
X002537Y006679D02*
X000717Y006679D01*
X000717Y006778D02*
X002537Y006778D01*
X002537Y006876D02*
X002463Y006876D01*
X002071Y006876D02*
X000717Y006876D01*
X000717Y006975D02*
X001971Y006975D01*
X001931Y007073D02*
X000717Y007073D01*
X000717Y007172D02*
X001918Y007172D01*
X001930Y007270D02*
X000717Y007270D01*
X000717Y007566D02*
X002537Y007566D01*
X002537Y007664D02*
X000717Y007664D01*
X000717Y007763D02*
X002537Y007763D01*
X002537Y007861D02*
X002426Y007861D01*
X002107Y007861D02*
X000717Y007861D01*
X000717Y007960D02*
X001986Y007960D01*
X001937Y008058D02*
X000717Y008058D01*
X000717Y008157D02*
X001918Y008157D01*
X001924Y008255D02*
X000717Y008255D01*
X000717Y008354D02*
X001965Y008354D01*
X002054Y008452D02*
X000717Y008452D01*
X000717Y008551D02*
X002537Y008551D01*
X002537Y008649D02*
X000717Y008649D01*
X000717Y008748D02*
X002537Y008748D01*
X002537Y008846D02*
X002390Y008846D01*
X002532Y008945D02*
X002537Y008945D01*
X002143Y008846D02*
X000717Y008846D01*
X000717Y008945D02*
X002001Y008945D01*
X001943Y009043D02*
X000717Y009043D01*
X000717Y009142D02*
X001918Y009142D01*
X001918Y009240D02*
X000717Y009240D01*
X000717Y009339D02*
X001959Y009339D01*
X002039Y009437D02*
X000717Y009437D01*
X000717Y009536D02*
X002537Y009536D01*
X002537Y009437D02*
X002494Y009437D01*
X002479Y009634D02*
X000717Y009634D01*
X000717Y009733D02*
X002381Y009733D01*
X002179Y009831D02*
X000717Y009831D01*
X000717Y009930D02*
X002016Y009930D01*
X001949Y010028D02*
X000717Y010028D01*
X000717Y010127D02*
X001918Y010127D01*
X001918Y010225D02*
X000717Y010225D01*
X000717Y010324D02*
X001952Y010324D01*
X002024Y010422D02*
X000717Y010422D01*
X000717Y010521D02*
X008990Y010521D01*
X009088Y010619D02*
X000717Y010619D01*
X000717Y010718D02*
X009187Y010718D01*
X009285Y010816D02*
X000717Y010816D01*
X000717Y010915D02*
X009384Y010915D01*
X009482Y011013D02*
X000717Y011013D01*
X000717Y011112D02*
X009581Y011112D01*
X009679Y011210D02*
X000717Y011210D01*
X000717Y011309D02*
X009778Y011309D01*
X009876Y011407D02*
X000717Y011407D01*
X000717Y011506D02*
X009975Y011506D01*
X010073Y011604D02*
X000717Y011604D01*
X000717Y011703D02*
X010172Y011703D01*
X010270Y011801D02*
X000717Y011801D01*
X000717Y011900D02*
X010369Y011900D01*
X010467Y011998D02*
X000717Y011998D01*
X000717Y012097D02*
X010566Y012097D01*
X010664Y012195D02*
X000717Y012195D01*
X000717Y012294D02*
X010763Y012294D01*
X010861Y012392D02*
X000717Y012392D01*
X000717Y012491D02*
X010960Y012491D01*
X011058Y012589D02*
X000717Y012589D01*
X000717Y012688D02*
X011157Y012688D01*
X011171Y012702D02*
X008271Y009802D01*
X008137Y009667D01*
X008137Y009036D01*
X008062Y009067D01*
X007900Y009067D01*
X007750Y009005D01*
X007636Y008890D01*
X007588Y008774D01*
X007539Y008890D01*
X007425Y009005D01*
X007275Y009067D01*
X007113Y009067D01*
X006963Y009005D01*
X006848Y008890D01*
X006800Y008774D01*
X006752Y008890D01*
X006637Y009005D01*
X006487Y009067D01*
X006325Y009067D01*
X006176Y009005D01*
X006061Y008890D01*
X006013Y008774D01*
X005964Y008890D01*
X005850Y009005D01*
X005700Y009067D01*
X005538Y009067D01*
X005388Y009005D01*
X005274Y008890D01*
X005212Y008741D01*
X005212Y008578D01*
X005274Y008429D01*
X005388Y008314D01*
X005538Y008252D01*
X005700Y008252D01*
X005850Y008314D01*
X005964Y008429D01*
X006013Y008545D01*
X006061Y008429D01*
X006176Y008314D01*
X006325Y008252D01*
X006487Y008252D01*
X006637Y008314D01*
X006752Y008429D01*
X006800Y008545D01*
X006848Y008429D01*
X006963Y008314D01*
X007113Y008252D01*
X007275Y008252D01*
X007425Y008314D01*
X007539Y008429D01*
X007588Y008545D01*
X007636Y008429D01*
X007750Y008314D01*
X007900Y008252D01*
X008062Y008252D01*
X008177Y008299D01*
X008177Y007757D01*
X008137Y007717D01*
X008137Y007311D01*
X007724Y006899D01*
X007523Y006899D01*
X007435Y006811D01*
X007435Y006635D01*
X007433Y006630D01*
X007433Y006052D01*
X007385Y006005D01*
X007385Y005526D01*
X007473Y005439D01*
X007912Y005439D01*
X008000Y005526D01*
X008000Y005708D01*
X008013Y005738D01*
X008013Y006537D01*
X008597Y007121D01*
X008597Y007717D01*
X008557Y007757D01*
X008557Y008306D01*
X008688Y008252D01*
X008850Y008252D01*
X008999Y008314D01*
X009114Y008429D01*
X009162Y008545D01*
X009211Y008429D01*
X009325Y008314D01*
X009475Y008252D01*
X009637Y008252D01*
X009787Y008314D01*
X009901Y008429D01*
X009950Y008545D01*
X009998Y008429D01*
X010113Y008314D01*
X010262Y008252D01*
X010424Y008252D01*
X010574Y008314D01*
X010689Y008429D01*
X010737Y008545D01*
X010785Y008429D01*
X010900Y008314D01*
X011050Y008252D01*
X011212Y008252D01*
X011327Y008300D01*
X011327Y007757D01*
X011287Y007717D01*
X011287Y007311D01*
X010874Y006899D01*
X010673Y006899D01*
X010585Y006811D01*
X010585Y006635D01*
X010583Y006630D01*
X010583Y006052D01*
X010535Y006005D01*
X010535Y005526D01*
X010623Y005439D01*
X011062Y005439D01*
X011150Y005526D01*
X011150Y005708D01*
X011163Y005738D01*
X011163Y006537D01*
X011747Y007121D01*
X011747Y007717D01*
X011707Y007757D01*
X011707Y008306D01*
X011837Y008252D01*
X011999Y008252D01*
X012149Y008314D01*
X012264Y008429D01*
X012312Y008545D01*
X012360Y008429D01*
X012475Y008314D01*
X012625Y008252D01*
X012787Y008252D01*
X012936Y008314D01*
X013051Y008429D01*
X013099Y008545D01*
X013148Y008429D01*
X013262Y008314D01*
X013412Y008252D01*
X013574Y008252D01*
X013724Y008314D01*
X013838Y008429D01*
X013887Y008545D01*
X013935Y008429D01*
X014050Y008314D01*
X014199Y008252D01*
X014361Y008252D01*
X014511Y008314D01*
X014626Y008429D01*
X014688Y008578D01*
X014688Y008741D01*
X014626Y008890D01*
X014511Y009005D01*
X014361Y009067D01*
X014199Y009067D01*
X014050Y009005D01*
X013935Y008890D01*
X013887Y008774D01*
X013838Y008890D01*
X013724Y009005D01*
X013574Y009067D01*
X013412Y009067D01*
X013262Y009005D01*
X013148Y008890D01*
X013099Y008774D01*
X013051Y008890D01*
X012936Y009005D01*
X012787Y009067D01*
X012625Y009067D01*
X012475Y009005D01*
X012360Y008890D01*
X012312Y008774D01*
X012264Y008890D01*
X012149Y009005D01*
X011999Y009067D01*
X011837Y009067D01*
X011747Y009029D01*
X011747Y009477D01*
X014162Y011892D01*
X021112Y011892D01*
X022742Y013522D01*
X022877Y013657D01*
X022877Y013899D01*
X022961Y013865D01*
X023123Y013865D01*
X023207Y013899D01*
X023207Y009644D01*
X023341Y009509D01*
X024110Y008741D01*
X024109Y008741D01*
X024109Y008578D01*
X024171Y008429D01*
X024286Y008314D01*
X024436Y008252D01*
X024598Y008252D01*
X024747Y008314D01*
X024862Y008429D01*
X024924Y008578D01*
X024924Y008741D01*
X024862Y008890D01*
X024747Y009005D01*
X024598Y009067D01*
X024436Y009067D01*
X024435Y009067D01*
X023667Y009835D01*
X023667Y010539D01*
X023727Y010478D01*
X023904Y010478D01*
X023909Y010476D01*
X024248Y010476D01*
X024284Y010441D01*
X024762Y010441D01*
X024850Y010528D01*
X024850Y010968D01*
X024762Y011056D01*
X024564Y011056D01*
X024563Y011056D01*
X024272Y011056D01*
X024294Y011078D01*
X024294Y011478D01*
X024257Y011515D01*
X024257Y011730D01*
X024213Y011836D01*
X024131Y011918D01*
X024024Y011962D01*
X023909Y011962D01*
X023802Y011918D01*
X023721Y011836D01*
X023677Y011730D01*
X023677Y011515D01*
X023667Y011505D01*
X023667Y013898D01*
X023748Y013865D01*
X023910Y013865D01*
X024021Y013910D01*
X024021Y012864D01*
X024023Y012859D01*
X024023Y012683D01*
X024111Y012595D01*
X024511Y012595D01*
X024567Y012651D01*
X024623Y012595D01*
X025022Y012595D01*
X025110Y012683D01*
X025110Y012776D01*
X025510Y012776D01*
X025547Y012739D01*
X025986Y012739D01*
X026074Y012826D01*
X026074Y013305D01*
X025986Y013393D01*
X025547Y013393D01*
X025510Y013356D01*
X024909Y013356D01*
X024802Y013312D01*
X024740Y013249D01*
X024623Y013249D01*
X024601Y013227D01*
X024601Y013846D01*
X024619Y013865D01*
X024936Y013865D01*
X025024Y013952D01*
X025024Y014327D01*
X025446Y013905D01*
X025446Y013702D01*
X025534Y013615D01*
X026012Y013615D01*
X026100Y013702D01*
X026100Y014142D01*
X026012Y014230D01*
X025772Y014230D01*
X025024Y014978D01*
X025024Y015141D01*
X024962Y015290D01*
X024847Y015405D01*
X024698Y015467D01*
X024562Y015467D01*
X024587Y015492D01*
X025454Y015492D01*
X025440Y015478D01*
X025440Y015078D01*
X025527Y014990D01*
X026006Y014990D01*
X026064Y015048D01*
X026418Y015048D01*
X026583Y015213D01*
X026583Y015128D01*
X026671Y015041D01*
X026980Y015041D01*
X026543Y014604D01*
X026321Y014604D01*
X026233Y014516D01*
X026233Y014076D01*
X026321Y013989D01*
X026458Y013989D01*
X026591Y013856D01*
X026321Y013856D01*
X026233Y013768D01*
X026233Y013328D01*
X026321Y013241D01*
X026800Y013241D01*
X026888Y013328D01*
X026888Y013330D01*
X026927Y013290D01*
X027104Y013290D01*
X027109Y013288D01*
X027224Y013288D01*
X027230Y013290D01*
X027406Y013290D01*
X027408Y013292D01*
X028531Y013292D01*
X028731Y013092D01*
X031000Y013092D01*
X030911Y013055D01*
X030834Y012978D01*
X030792Y012877D01*
X030792Y012767D01*
X030834Y012666D01*
X030911Y012589D01*
X031012Y012547D01*
X031016Y012547D01*
X031116Y012447D01*
X031062Y012447D01*
X030961Y012405D01*
X030884Y012328D01*
X030842Y012227D01*
X030842Y012117D01*
X030884Y012016D01*
X030887Y012013D01*
X030887Y006427D01*
X031021Y006292D01*
X031721Y005592D01*
X031910Y005592D01*
X031948Y005554D01*
X032610Y005554D01*
X032621Y005542D01*
X034408Y005542D01*
X034433Y005532D01*
X035620Y005532D01*
X035620Y005459D01*
X035708Y005371D01*
X036226Y005371D01*
X036314Y005459D01*
X036314Y006016D01*
X036226Y006104D01*
X035959Y006104D01*
X035940Y006112D01*
X035517Y006112D01*
X035563Y006158D01*
X035607Y006264D01*
X035607Y006380D01*
X035563Y006486D01*
X035481Y006568D01*
X035374Y006612D01*
X034433Y006612D01*
X034380Y006590D01*
X033997Y006590D01*
X033997Y008554D01*
X034380Y008554D01*
X034433Y008532D01*
X035620Y008532D01*
X035620Y008459D01*
X035708Y008371D01*
X036226Y008371D01*
X036314Y008459D01*
X036314Y009016D01*
X036226Y009104D01*
X035959Y009104D01*
X035940Y009112D01*
X035517Y009112D01*
X035563Y009158D01*
X035607Y009264D01*
X035607Y009380D01*
X035563Y009486D01*
X035481Y009568D01*
X035374Y009612D01*
X034433Y009612D01*
X034380Y009590D01*
X033997Y009590D01*
X033997Y011554D01*
X034380Y011554D01*
X034433Y011532D01*
X035620Y011532D01*
X035620Y011459D01*
X035708Y011371D01*
X036226Y011371D01*
X036314Y011459D01*
X036314Y012016D01*
X036226Y012104D01*
X035959Y012104D01*
X035940Y012112D01*
X035517Y012112D01*
X035563Y012158D01*
X035607Y012264D01*
X035607Y012380D01*
X035563Y012486D01*
X035481Y012568D01*
X035374Y012612D01*
X034433Y012612D01*
X034380Y012590D01*
X033997Y012590D01*
X033997Y014554D01*
X034380Y014554D01*
X034433Y014532D01*
X035620Y014532D01*
X035620Y014459D01*
X035708Y014371D01*
X036226Y014371D01*
X036314Y014459D01*
X036314Y015016D01*
X036226Y015104D01*
X035959Y015104D01*
X035940Y015112D01*
X035517Y015112D01*
X035563Y015158D01*
X035607Y015264D01*
X035607Y015380D01*
X035563Y015486D01*
X035481Y015568D01*
X035374Y015612D01*
X034433Y015612D01*
X034380Y015590D01*
X033997Y015590D01*
X033997Y016317D01*
X033499Y016815D01*
X033499Y017179D01*
X033547Y017227D01*
X033547Y017622D01*
X034140Y017622D01*
X034140Y017266D01*
X034227Y017178D01*
X034404Y017178D01*
X034409Y017176D01*
X034798Y017176D01*
X034834Y017141D01*
X035312Y017141D01*
X035400Y017228D01*
X035400Y017622D01*
X035533Y017622D01*
X035533Y017602D01*
X035621Y017515D01*
X036100Y017515D01*
X036123Y017538D01*
X036161Y017538D01*
X036140Y017516D01*
X036140Y017116D01*
X036227Y017028D01*
X036404Y017028D01*
X036409Y017026D01*
X039511Y017026D01*
X039547Y017011D01*
X039686Y017011D01*
X039814Y017064D01*
X039912Y017162D01*
X039933Y017213D01*
X039947Y017227D01*
X039947Y017246D01*
X039965Y017290D01*
X039965Y017429D01*
X039947Y017473D01*
X039947Y018033D01*
X039965Y018078D01*
X039965Y018216D01*
X039947Y018261D01*
X039947Y018820D01*
X039965Y018865D01*
X039965Y019004D01*
X039947Y019048D01*
X039947Y019608D01*
X039965Y019652D01*
X039965Y019791D01*
X039947Y019835D01*
X039947Y024946D01*
X039965Y024991D01*
X039965Y025129D01*
X039912Y025257D01*
X039814Y025355D01*
X039686Y025408D01*
X039547Y025408D01*
X039450Y025368D01*
X036117Y025368D01*
X036117Y025822D01*
X036097Y025870D01*
X036097Y026667D01*
X036059Y026705D01*
X036050Y026728D01*
X036047Y026731D01*
X036047Y028217D01*
X035847Y028417D01*
X035712Y028552D01*
X035672Y028552D01*
X035701Y028581D01*
X035705Y028581D01*
X035806Y028623D01*
X035884Y028700D01*
X035926Y028801D01*
X035926Y028911D01*
X035884Y029012D01*
X035806Y029089D01*
X035705Y029131D01*
X035596Y029131D01*
X035495Y029089D01*
X035484Y029078D01*
X035484Y029225D01*
X035780Y029225D01*
X035868Y029313D01*
X035868Y029831D01*
X035780Y029919D01*
X035223Y029919D01*
X035135Y029831D01*
X035135Y029531D01*
X033799Y029531D01*
X033799Y029831D01*
X033711Y029919D01*
X033153Y029919D01*
X033065Y029831D01*
X033065Y029313D01*
X033153Y029225D01*
X033449Y029225D01*
X033449Y029072D01*
X033431Y029053D01*
X033431Y028985D01*
X033343Y028985D01*
X033289Y029039D01*
X033431Y029039D01*
X033449Y029137D02*
X028507Y029137D01*
X028506Y029136D02*
X028862Y029492D01*
X028997Y029627D01*
X028997Y031217D01*
X028862Y031352D01*
X028718Y031496D01*
X028718Y031531D01*
X028677Y031572D01*
X028718Y031613D01*
X028718Y032131D01*
X028630Y032219D01*
X028073Y032219D01*
X027985Y032131D01*
X027985Y031613D01*
X028026Y031572D01*
X027985Y031531D01*
X027985Y031013D01*
X028026Y030972D01*
X028017Y030963D01*
X027961Y031019D01*
X027403Y031019D01*
X027392Y031007D01*
X027326Y031073D01*
X026808Y031073D01*
X026720Y030985D01*
X026720Y030428D01*
X026808Y030340D01*
X027326Y030340D01*
X027357Y030372D01*
X027403Y030325D01*
X027961Y030325D01*
X028017Y030381D01*
X028026Y030372D01*
X027985Y030331D01*
X027985Y029852D01*
X026621Y029852D01*
X026487Y029717D01*
X026409Y029639D01*
X026409Y029155D01*
X026410Y029154D01*
X026410Y028991D01*
X026498Y028904D01*
X027148Y028904D01*
X027148Y028880D01*
X027113Y028880D01*
X027071Y028897D01*
X026962Y028897D01*
X026861Y028855D01*
X026784Y028778D01*
X026742Y028677D01*
X026742Y028567D01*
X026784Y028466D01*
X026861Y028389D01*
X026962Y028347D01*
X027071Y028347D01*
X027148Y028379D01*
X027148Y028141D01*
X026498Y028141D01*
X026410Y028053D01*
X026410Y027890D01*
X026409Y027889D01*
X026409Y027389D01*
X025737Y026717D01*
X025737Y024679D01*
X025710Y024706D01*
X025271Y024706D01*
X025183Y024618D01*
X025183Y024139D01*
X025192Y024130D01*
X025190Y024128D01*
X025190Y023728D01*
X025245Y023672D01*
X025190Y023616D01*
X025190Y023224D01*
X025162Y023252D01*
X024497Y023917D01*
X024497Y025317D01*
X024419Y025395D01*
X024809Y025395D01*
X024809Y024926D01*
X024897Y024839D01*
X025336Y024839D01*
X025424Y024926D01*
X025424Y025405D01*
X025407Y025423D01*
X025407Y025479D01*
X025410Y025483D01*
X025410Y025659D01*
X025413Y025664D01*
X025413Y025780D01*
X025410Y025785D01*
X025410Y025961D01*
X025400Y025972D01*
X025460Y026033D01*
X025460Y026206D01*
X025465Y026217D01*
X025465Y027622D01*
X025578Y027734D01*
X025650Y027909D01*
X025650Y029082D01*
X025578Y029257D01*
X025444Y029390D01*
X024460Y030375D01*
X024285Y030447D01*
X024096Y030447D01*
X023922Y030375D01*
X023788Y030241D01*
X023716Y030067D01*
X023716Y029878D01*
X023788Y029703D01*
X024700Y028791D01*
X024700Y027909D01*
X024772Y027734D01*
X024885Y027622D01*
X024885Y026575D01*
X024861Y026599D01*
X024461Y026599D01*
X024424Y026562D01*
X023867Y026562D01*
X023786Y026643D01*
X023347Y026643D01*
X023259Y026555D01*
X023259Y026102D01*
X017624Y026102D01*
X017624Y026205D01*
X017607Y026223D01*
X017607Y027529D01*
X017688Y027529D01*
X017776Y027617D01*
X017776Y027909D01*
X017776Y029082D01*
X017704Y029257D01*
X017570Y029390D01*
X016791Y030169D01*
X016791Y030359D01*
X016704Y030447D01*
X016412Y030447D01*
X016411Y030447D01*
X016222Y030447D01*
X016222Y030447D01*
X015930Y030447D01*
X015842Y030359D01*
X015842Y030067D01*
X015842Y030067D01*
X015842Y029878D01*
X015842Y029877D01*
X015842Y029585D01*
X015930Y029497D01*
X016120Y029497D01*
X016826Y028791D01*
X016826Y027909D01*
X016826Y027909D01*
X016826Y027617D01*
X016914Y027529D01*
X017027Y027529D01*
X017027Y026223D01*
X017009Y026205D01*
X017009Y026102D01*
X012162Y026102D01*
X011747Y026517D01*
X011747Y027529D01*
X011751Y027529D01*
X011925Y027601D01*
X012059Y027734D01*
X012131Y027909D01*
X012131Y029082D01*
X012059Y029257D01*
X011925Y029390D01*
X010941Y030375D01*
X010767Y030447D01*
X010578Y030447D01*
X010570Y030444D01*
X009962Y031052D01*
X008321Y031052D01*
X008187Y030917D01*
X007737Y030467D01*
X007737Y029642D01*
X007004Y030375D01*
X006830Y030447D01*
X006641Y030447D01*
X006466Y030375D01*
X006332Y030241D01*
X006260Y030067D01*
X006260Y029878D01*
X006332Y029703D01*
X007244Y028791D01*
X007244Y027939D01*
X006521Y027215D01*
X006477Y027108D01*
X006477Y027057D01*
X005721Y026302D01*
X005094Y026302D01*
X005094Y026628D01*
X005057Y026665D01*
X005057Y026899D01*
X005686Y027529D01*
X005845Y027529D01*
X005846Y027529D01*
X006138Y027529D01*
X006226Y027617D01*
X006226Y027909D01*
X006226Y029082D01*
X006154Y029257D01*
X006020Y029390D01*
X005241Y030169D01*
X005241Y030359D01*
X005154Y030447D01*
X004862Y030447D01*
X004861Y030447D01*
X004672Y030447D01*
X004672Y030447D01*
X004380Y030447D01*
X004292Y030359D01*
X004292Y030067D01*
X004292Y030067D01*
X004292Y029878D01*
X004292Y029877D01*
X004292Y029585D01*
X004380Y029497D01*
X004570Y029497D01*
X005276Y028791D01*
X005276Y027939D01*
X004521Y027184D01*
X004477Y027077D01*
X004477Y026665D01*
X004440Y026628D01*
X004440Y026302D01*
X002571Y026302D01*
X002437Y026167D01*
X001487Y025217D01*
X001487Y019527D01*
X001621Y019392D01*
X002962Y019392D01*
X003097Y019527D01*
X006097Y022527D01*
X006097Y023077D01*
X006362Y023342D01*
X006958Y023342D01*
X006883Y023268D01*
X006883Y022789D01*
X006971Y022701D01*
X007410Y022701D01*
X007498Y022789D01*
X007498Y022926D01*
X007763Y023190D01*
X007807Y023297D01*
X007807Y023342D01*
X008958Y023342D01*
X008883Y023268D01*
X008883Y022789D01*
X008971Y022701D01*
X009410Y022701D01*
X009498Y022789D01*
X009498Y022926D01*
X009763Y023190D01*
X009795Y023268D01*
X010611Y022452D01*
X008552Y022452D01*
X008346Y022246D01*
X007908Y022246D01*
X007820Y022158D01*
X007820Y021325D01*
X007908Y021237D01*
X008011Y021237D01*
X009320Y019928D01*
X009320Y019628D01*
X009408Y019540D01*
X009926Y019540D01*
X010014Y019628D01*
X010014Y020066D01*
X010333Y020340D01*
X010726Y020340D01*
X010742Y020357D01*
X011072Y020357D01*
X011088Y020319D01*
X011214Y020193D01*
X011378Y020125D01*
X011556Y020125D01*
X011720Y020193D01*
X011767Y020240D01*
X011767Y019367D01*
X011452Y019052D01*
X009971Y019052D01*
X009837Y018917D01*
X009837Y017877D01*
X009971Y017742D01*
X017721Y017742D01*
X020013Y015451D01*
X019973Y015467D01*
X019811Y015467D01*
X019661Y015405D01*
X019547Y015290D01*
X019499Y015174D01*
X019450Y015290D01*
X019336Y015405D01*
X019186Y015467D01*
X019024Y015467D01*
X018874Y015405D01*
X018759Y015290D01*
X018697Y015141D01*
X018697Y014978D01*
X018759Y014829D01*
X018874Y014714D01*
X019024Y014652D01*
X019186Y014652D01*
X019336Y014714D01*
X019450Y014829D01*
X019499Y014945D01*
X019547Y014829D01*
X019661Y014714D01*
X019811Y014652D01*
X019973Y014652D01*
X020107Y014707D01*
X020107Y014157D01*
X020067Y014117D01*
X020067Y013301D01*
X020064Y013298D01*
X020022Y013197D01*
X020022Y013087D01*
X020064Y012986D01*
X020141Y012909D01*
X020242Y012867D01*
X020351Y012867D01*
X020452Y012909D01*
X020530Y012986D01*
X020572Y013087D01*
X020572Y013197D01*
X020530Y013298D01*
X020527Y013301D01*
X020527Y014117D01*
X020487Y014157D01*
X020487Y014698D01*
X020599Y014652D01*
X020761Y014652D01*
X020910Y014714D01*
X021025Y014829D01*
X021073Y014945D01*
X021122Y014829D01*
X021236Y014714D01*
X021386Y014652D01*
X021548Y014652D01*
X021677Y014705D01*
X021677Y014157D01*
X021637Y014117D01*
X021637Y013867D01*
X020471Y012702D01*
X011171Y012702D01*
X011150Y013865D02*
X011000Y013927D01*
X010885Y014041D01*
X010837Y014158D01*
X010789Y014041D01*
X010674Y013927D01*
X010524Y013865D01*
X010362Y013865D01*
X010213Y013927D01*
X010098Y014041D01*
X010050Y014158D01*
X010001Y014041D01*
X009887Y013927D01*
X009737Y013865D01*
X009575Y013865D01*
X009425Y013927D01*
X009311Y014041D01*
X009262Y014158D01*
X009214Y014041D01*
X009099Y013927D01*
X008950Y013865D01*
X008788Y013865D01*
X008638Y013927D01*
X008523Y014041D01*
X008475Y014158D01*
X008427Y014041D01*
X008312Y013927D01*
X008162Y013865D01*
X008000Y013865D01*
X007850Y013927D01*
X007736Y014041D01*
X007688Y014158D01*
X007639Y014041D01*
X007525Y013927D01*
X007375Y013865D01*
X007213Y013865D01*
X007063Y013927D01*
X006948Y014041D01*
X006900Y014158D01*
X006852Y014041D01*
X006737Y013927D01*
X006587Y013865D01*
X006425Y013865D01*
X006276Y013927D01*
X006161Y014041D01*
X006113Y014158D01*
X006064Y014041D01*
X005950Y013927D01*
X005800Y013865D01*
X005638Y013865D01*
X005488Y013927D01*
X005374Y014041D01*
X005312Y014191D01*
X005312Y014353D01*
X005374Y014503D01*
X005488Y014617D01*
X005638Y014680D01*
X005800Y014680D01*
X005950Y014617D01*
X006064Y014503D01*
X006113Y014386D01*
X006161Y014503D01*
X006276Y014617D01*
X006425Y014680D01*
X006587Y014680D01*
X006737Y014617D01*
X006852Y014503D01*
X006900Y014386D01*
X006948Y014503D01*
X007063Y014617D01*
X007213Y014680D01*
X007375Y014680D01*
X007525Y014617D01*
X007639Y014503D01*
X007688Y014386D01*
X007736Y014503D01*
X007850Y014617D01*
X008000Y014680D01*
X008162Y014680D01*
X008312Y014617D01*
X008427Y014503D01*
X008475Y014386D01*
X008523Y014503D01*
X008638Y014617D01*
X008788Y014680D01*
X008950Y014680D01*
X009099Y014617D01*
X009214Y014503D01*
X009262Y014386D01*
X009311Y014503D01*
X009425Y014617D01*
X009575Y014680D01*
X009737Y014680D01*
X009887Y014617D01*
X010001Y014503D01*
X010050Y014386D01*
X010098Y014503D01*
X010213Y014617D01*
X010362Y014680D01*
X010524Y014680D01*
X010674Y014617D01*
X010789Y014503D01*
X010837Y014386D01*
X010885Y014503D01*
X011000Y014617D01*
X011150Y014680D01*
X011312Y014680D01*
X011462Y014617D01*
X011576Y014503D01*
X011625Y014386D01*
X011673Y014503D01*
X011787Y014617D01*
X011937Y014680D01*
X012099Y014680D01*
X012249Y014617D01*
X012364Y014503D01*
X012426Y014353D01*
X012426Y014191D01*
X012364Y014041D01*
X012249Y013927D01*
X012099Y013865D01*
X011937Y013865D01*
X011787Y013927D01*
X011673Y014041D01*
X011625Y014158D01*
X011576Y014041D01*
X011462Y013927D01*
X011312Y013865D01*
X011150Y013865D01*
X011138Y013870D02*
X010537Y013870D01*
X010350Y013870D02*
X009749Y013870D01*
X009563Y013870D02*
X008962Y013870D01*
X008775Y013870D02*
X008174Y013870D01*
X007988Y013870D02*
X007387Y013870D01*
X007201Y013870D02*
X006600Y013870D01*
X006413Y013870D02*
X005812Y013870D01*
X005626Y013870D02*
X000717Y013870D01*
X000717Y013968D02*
X005447Y013968D01*
X005363Y014067D02*
X000717Y014067D01*
X000717Y014165D02*
X005322Y014165D01*
X005312Y014264D02*
X000717Y014264D01*
X000717Y014362D02*
X005315Y014362D01*
X005356Y014461D02*
X000717Y014461D01*
X000717Y014559D02*
X005430Y014559D01*
X005585Y014658D02*
X000717Y014658D01*
X000717Y014756D02*
X018832Y014756D01*
X018749Y014855D02*
X000717Y014855D01*
X000717Y014953D02*
X018708Y014953D01*
X018697Y015052D02*
X000717Y015052D01*
X000717Y015150D02*
X018701Y015150D01*
X018742Y015249D02*
X000717Y015249D01*
X000717Y015347D02*
X018816Y015347D01*
X018972Y015446D02*
X000717Y015446D01*
X000717Y015544D02*
X019919Y015544D01*
X019821Y015643D02*
X000717Y015643D01*
X000717Y015741D02*
X019722Y015741D01*
X019624Y015840D02*
X000717Y015840D01*
X000717Y015938D02*
X019525Y015938D01*
X019427Y016037D02*
X000717Y016037D01*
X000717Y016135D02*
X019328Y016135D01*
X019230Y016234D02*
X000717Y016234D01*
X000717Y016332D02*
X019131Y016332D01*
X019033Y016431D02*
X000717Y016431D01*
X000717Y016529D02*
X018934Y016529D01*
X018836Y016628D02*
X000717Y016628D01*
X000717Y016726D02*
X018737Y016726D01*
X018639Y016825D02*
X000717Y016825D01*
X000717Y016923D02*
X003883Y016923D01*
X003908Y016898D02*
X003820Y016986D01*
X003820Y017819D01*
X003908Y017907D01*
X004426Y017907D01*
X004514Y017819D01*
X004514Y016986D01*
X004426Y016898D01*
X003908Y016898D01*
X003820Y017022D02*
X000717Y017022D01*
X000717Y017120D02*
X003820Y017120D01*
X003820Y017219D02*
X000717Y017219D01*
X000717Y017317D02*
X003820Y017317D01*
X003820Y017416D02*
X000717Y017416D01*
X000717Y017514D02*
X003820Y017514D01*
X003820Y017613D02*
X000717Y017613D01*
X000717Y017711D02*
X003820Y017711D01*
X003820Y017810D02*
X000717Y017810D01*
X000717Y017908D02*
X009837Y017908D01*
X009837Y018007D02*
X000717Y018007D01*
X000717Y018105D02*
X009837Y018105D01*
X009837Y018204D02*
X000717Y018204D01*
X000717Y018302D02*
X009837Y018302D01*
X009837Y018401D02*
X000717Y018401D01*
X000717Y018499D02*
X009837Y018499D01*
X009837Y018598D02*
X000717Y018598D01*
X000717Y018696D02*
X009837Y018696D01*
X009837Y018795D02*
X000717Y018795D01*
X000717Y018893D02*
X009837Y018893D01*
X009911Y018992D02*
X000717Y018992D01*
X000717Y019090D02*
X011490Y019090D01*
X011588Y019189D02*
X000717Y019189D01*
X000717Y019287D02*
X011687Y019287D01*
X011767Y019386D02*
X000717Y019386D01*
X000717Y019484D02*
X001529Y019484D01*
X001487Y019583D02*
X000717Y019583D01*
X000717Y019681D02*
X001487Y019681D01*
X001487Y019780D02*
X000717Y019780D01*
X000717Y019878D02*
X001487Y019878D01*
X001487Y019977D02*
X000717Y019977D01*
X000717Y020075D02*
X001487Y020075D01*
X001487Y020174D02*
X000717Y020174D01*
X000717Y020272D02*
X001487Y020272D01*
X001487Y020371D02*
X000717Y020371D01*
X000717Y020469D02*
X001487Y020469D01*
X001487Y020568D02*
X000717Y020568D01*
X000717Y020666D02*
X001487Y020666D01*
X001487Y020765D02*
X000717Y020765D01*
X000717Y020863D02*
X001487Y020863D01*
X001487Y020962D02*
X000717Y020962D01*
X000717Y021060D02*
X001487Y021060D01*
X001487Y021159D02*
X000717Y021159D01*
X000717Y021257D02*
X001487Y021257D01*
X001487Y021356D02*
X000717Y021356D01*
X000717Y021454D02*
X001487Y021454D01*
X001487Y021553D02*
X000717Y021553D01*
X000717Y021651D02*
X001487Y021651D01*
X001487Y021750D02*
X000717Y021750D01*
X000717Y021848D02*
X001487Y021848D01*
X001487Y021947D02*
X000717Y021947D01*
X000717Y022045D02*
X001487Y022045D01*
X001487Y022144D02*
X000717Y022144D01*
X000717Y022242D02*
X001487Y022242D01*
X001487Y022341D02*
X000717Y022341D01*
X000717Y022439D02*
X001487Y022439D01*
X001487Y022538D02*
X000717Y022538D01*
X000717Y022636D02*
X001487Y022636D01*
X001487Y022735D02*
X000717Y022735D01*
X000717Y022833D02*
X001487Y022833D01*
X001487Y022932D02*
X000717Y022932D01*
X000717Y023030D02*
X001487Y023030D01*
X001487Y023129D02*
X000717Y023129D01*
X000717Y023227D02*
X001487Y023227D01*
X001487Y023326D02*
X000717Y023326D01*
X000717Y023424D02*
X001487Y023424D01*
X001487Y023523D02*
X000717Y023523D01*
X000717Y023621D02*
X001487Y023621D01*
X001487Y023720D02*
X000717Y023720D01*
X000717Y023818D02*
X001487Y023818D01*
X001487Y023917D02*
X000717Y023917D01*
X000717Y024015D02*
X001487Y024015D01*
X001487Y024114D02*
X000717Y024114D01*
X000717Y024212D02*
X001487Y024212D01*
X001487Y024311D02*
X000717Y024311D01*
X000717Y024409D02*
X001487Y024409D01*
X001487Y024508D02*
X000717Y024508D01*
X000717Y024606D02*
X001487Y024606D01*
X001487Y024705D02*
X000717Y024705D01*
X000717Y024803D02*
X001487Y024803D01*
X001487Y024902D02*
X000717Y024902D01*
X000717Y025000D02*
X001487Y025000D01*
X001487Y025099D02*
X000717Y025099D01*
X000717Y025197D02*
X001487Y025197D01*
X001565Y025296D02*
X000717Y025296D01*
X000717Y025394D02*
X001663Y025394D01*
X001762Y025493D02*
X000717Y025493D01*
X000717Y025591D02*
X001860Y025591D01*
X001959Y025690D02*
X000717Y025690D01*
X000717Y025788D02*
X002057Y025788D01*
X002156Y025887D02*
X000717Y025887D01*
X000717Y025985D02*
X002254Y025985D01*
X002353Y026084D02*
X000717Y026084D01*
X000717Y026182D02*
X002451Y026182D01*
X002550Y026281D02*
X000717Y026281D01*
X000717Y026379D02*
X004440Y026379D01*
X004440Y026478D02*
X000717Y026478D01*
X000717Y026576D02*
X004440Y026576D01*
X004477Y026675D02*
X000717Y026675D01*
X000717Y026773D02*
X004477Y026773D01*
X004477Y026872D02*
X000717Y026872D01*
X000717Y026970D02*
X004477Y026970D01*
X004477Y027069D02*
X000717Y027069D01*
X000717Y027167D02*
X004514Y027167D01*
X004603Y027266D02*
X000717Y027266D01*
X000717Y027364D02*
X004701Y027364D01*
X004800Y027463D02*
X000717Y027463D01*
X000717Y027561D02*
X004898Y027561D01*
X004997Y027660D02*
X000717Y027660D01*
X000717Y027758D02*
X005095Y027758D01*
X005194Y027857D02*
X000717Y027857D01*
X000717Y027955D02*
X005276Y027955D01*
X005276Y028054D02*
X000717Y028054D01*
X000717Y028152D02*
X005276Y028152D01*
X005276Y028251D02*
X000717Y028251D01*
X000717Y028349D02*
X005276Y028349D01*
X005276Y028448D02*
X000717Y028448D01*
X000717Y028546D02*
X005276Y028546D01*
X005276Y028645D02*
X000717Y028645D01*
X000717Y028743D02*
X005276Y028743D01*
X005225Y028842D02*
X000717Y028842D01*
X000717Y028940D02*
X005127Y028940D01*
X005028Y029039D02*
X000717Y029039D01*
X000717Y029137D02*
X004930Y029137D01*
X004831Y029236D02*
X000717Y029236D01*
X000717Y029334D02*
X004733Y029334D01*
X004634Y029433D02*
X000717Y029433D01*
X000717Y029531D02*
X004346Y029531D01*
X004292Y029630D02*
X000717Y029630D01*
X000717Y029728D02*
X004292Y029728D01*
X004292Y029827D02*
X000717Y029827D01*
X000717Y029925D02*
X004292Y029925D01*
X004292Y030024D02*
X000717Y030024D01*
X000717Y030122D02*
X004292Y030122D01*
X004292Y030221D02*
X000717Y030221D01*
X000717Y030319D02*
X004292Y030319D01*
X004351Y030418D02*
X000717Y030418D01*
X000717Y030516D02*
X007785Y030516D01*
X007737Y030418D02*
X006901Y030418D01*
X007060Y030319D02*
X007737Y030319D01*
X007737Y030221D02*
X007158Y030221D01*
X007257Y030122D02*
X007737Y030122D01*
X007737Y030024D02*
X007355Y030024D01*
X007454Y029925D02*
X007737Y029925D01*
X007737Y029827D02*
X007552Y029827D01*
X007651Y029728D02*
X007737Y029728D01*
X006997Y029039D02*
X006226Y029039D01*
X006226Y028940D02*
X007095Y028940D01*
X007194Y028842D02*
X006226Y028842D01*
X006226Y028743D02*
X007244Y028743D01*
X007244Y028645D02*
X006226Y028645D01*
X006226Y028546D02*
X007244Y028546D01*
X007244Y028448D02*
X006226Y028448D01*
X006226Y028349D02*
X007244Y028349D01*
X007244Y028251D02*
X006226Y028251D01*
X006226Y028152D02*
X007244Y028152D01*
X007244Y028054D02*
X006226Y028054D01*
X006226Y027955D02*
X007244Y027955D01*
X007162Y027857D02*
X006226Y027857D01*
X006226Y027909D02*
X006226Y027909D01*
X006226Y027758D02*
X007064Y027758D01*
X006965Y027660D02*
X006226Y027660D01*
X006170Y027561D02*
X006867Y027561D01*
X006768Y027463D02*
X005620Y027463D01*
X005522Y027364D02*
X006670Y027364D01*
X006571Y027266D02*
X005423Y027266D01*
X005325Y027167D02*
X006501Y027167D01*
X006477Y027069D02*
X005226Y027069D01*
X005128Y026970D02*
X006389Y026970D01*
X006291Y026872D02*
X005057Y026872D01*
X005057Y026773D02*
X006192Y026773D01*
X006094Y026675D02*
X005057Y026675D01*
X005094Y026576D02*
X005995Y026576D01*
X005897Y026478D02*
X005094Y026478D01*
X005094Y026379D02*
X005798Y026379D01*
X006203Y029137D02*
X006898Y029137D01*
X006800Y029236D02*
X006162Y029236D01*
X006076Y029334D02*
X006701Y029334D01*
X006603Y029433D02*
X005978Y029433D01*
X005879Y029531D02*
X006504Y029531D01*
X006406Y029630D02*
X005781Y029630D01*
X005682Y029728D02*
X006322Y029728D01*
X006281Y029827D02*
X005584Y029827D01*
X005485Y029925D02*
X006260Y029925D01*
X006260Y030024D02*
X005387Y030024D01*
X005288Y030122D02*
X006283Y030122D01*
X006324Y030221D02*
X005241Y030221D01*
X005241Y030319D02*
X006410Y030319D01*
X006570Y030418D02*
X005183Y030418D01*
X007884Y030615D02*
X000717Y030615D01*
X000717Y030713D02*
X007982Y030713D01*
X008081Y030812D02*
X000717Y030812D01*
X000717Y030910D02*
X008179Y030910D01*
X008278Y031009D02*
X000717Y031009D01*
X000717Y031107D02*
X027985Y031107D01*
X027971Y031009D02*
X027989Y031009D01*
X027985Y031206D02*
X000717Y031206D01*
X000717Y031304D02*
X027985Y031304D01*
X027985Y031403D02*
X000717Y031403D01*
X000717Y031501D02*
X027985Y031501D01*
X027998Y031600D02*
X000717Y031600D01*
X000717Y031698D02*
X027985Y031698D01*
X027985Y031797D02*
X000717Y031797D01*
X000717Y031895D02*
X027985Y031895D01*
X027985Y031994D02*
X000717Y031994D01*
X000717Y032092D02*
X027985Y032092D01*
X028044Y032191D02*
X000717Y032191D01*
X000717Y032289D02*
X040217Y032289D01*
X040217Y032191D02*
X028658Y032191D01*
X028718Y032092D02*
X040217Y032092D01*
X040217Y031994D02*
X028718Y031994D01*
X028718Y031895D02*
X040217Y031895D01*
X040217Y031797D02*
X028718Y031797D01*
X028718Y031698D02*
X040217Y031698D01*
X040217Y031600D02*
X028704Y031600D01*
X028718Y031501D02*
X040217Y031501D01*
X040217Y031403D02*
X028811Y031403D01*
X028910Y031304D02*
X040217Y031304D01*
X040217Y031206D02*
X028997Y031206D01*
X028997Y031107D02*
X040217Y031107D01*
X040217Y031009D02*
X028997Y031009D01*
X028997Y030910D02*
X040217Y030910D01*
X040217Y030812D02*
X028997Y030812D01*
X028997Y030713D02*
X040217Y030713D01*
X040217Y030615D02*
X028997Y030615D01*
X028997Y030516D02*
X040217Y030516D01*
X040217Y030418D02*
X028997Y030418D01*
X028997Y030319D02*
X040217Y030319D01*
X040217Y030221D02*
X028997Y030221D01*
X028997Y030122D02*
X039522Y030122D01*
X039547Y030133D02*
X039419Y030080D01*
X039321Y029982D01*
X039268Y029854D01*
X039268Y029715D01*
X039321Y029587D01*
X039419Y029489D01*
X039547Y029436D01*
X039686Y029436D01*
X039814Y029489D01*
X039912Y029587D01*
X039965Y029715D01*
X039965Y029854D01*
X039912Y029982D01*
X039814Y030080D01*
X039686Y030133D01*
X039547Y030133D01*
X039711Y030122D02*
X040217Y030122D01*
X040217Y030024D02*
X039870Y030024D01*
X039935Y029925D02*
X040217Y029925D01*
X040217Y029827D02*
X039965Y029827D01*
X039965Y029728D02*
X040217Y029728D01*
X040217Y029630D02*
X039930Y029630D01*
X039856Y029531D02*
X040217Y029531D01*
X040217Y029433D02*
X035868Y029433D01*
X035868Y029531D02*
X039377Y029531D01*
X039304Y029630D02*
X035868Y029630D01*
X035868Y029728D02*
X039268Y029728D01*
X039268Y029827D02*
X035868Y029827D01*
X035868Y029334D02*
X039520Y029334D01*
X039547Y029345D02*
X039419Y029292D01*
X039321Y029194D01*
X039268Y029066D01*
X039268Y028928D01*
X039321Y028799D01*
X039419Y028701D01*
X039547Y028648D01*
X039686Y028648D01*
X039814Y028701D01*
X039912Y028799D01*
X039965Y028928D01*
X039965Y029066D01*
X039912Y029194D01*
X039814Y029292D01*
X039686Y029345D01*
X039547Y029345D01*
X039713Y029334D02*
X040217Y029334D01*
X040217Y029236D02*
X039871Y029236D01*
X039936Y029137D02*
X040217Y029137D01*
X040217Y029039D02*
X039965Y029039D01*
X039965Y028940D02*
X040217Y028940D01*
X040217Y028842D02*
X039929Y028842D01*
X039856Y028743D02*
X040217Y028743D01*
X040217Y028645D02*
X035828Y028645D01*
X035901Y028743D02*
X039378Y028743D01*
X039304Y028842D02*
X035926Y028842D01*
X035913Y028940D02*
X039268Y028940D01*
X039268Y029039D02*
X035857Y029039D01*
X035790Y029236D02*
X039363Y029236D01*
X039298Y029137D02*
X035484Y029137D01*
X035024Y029137D02*
X034474Y029137D01*
X034470Y029141D02*
X034558Y029053D01*
X034558Y028457D01*
X034470Y028369D01*
X034149Y028369D01*
X034061Y028457D01*
X034061Y029053D01*
X034149Y029141D01*
X034470Y029141D01*
X034558Y029039D02*
X035006Y029039D01*
X035006Y029053D02*
X035006Y028570D01*
X034995Y028570D01*
X034907Y028483D01*
X034907Y028275D01*
X034026Y028275D01*
X034026Y028483D01*
X033938Y028570D01*
X033928Y028570D01*
X033928Y029053D01*
X033909Y029072D01*
X033909Y029420D01*
X033799Y029531D01*
X033799Y029630D02*
X035135Y029630D01*
X035135Y029728D02*
X033799Y029728D01*
X033799Y029827D02*
X035135Y029827D01*
X035135Y029531D02*
X035024Y029420D01*
X035024Y029072D01*
X035006Y029053D01*
X035006Y028940D02*
X034558Y028940D01*
X034558Y028842D02*
X035006Y028842D01*
X035006Y028743D02*
X034558Y028743D01*
X034558Y028645D02*
X035006Y028645D01*
X034971Y028546D02*
X034558Y028546D01*
X034548Y028448D02*
X034907Y028448D01*
X034907Y028349D02*
X034026Y028349D01*
X034026Y028448D02*
X034070Y028448D01*
X034061Y028546D02*
X033963Y028546D01*
X033928Y028645D02*
X034061Y028645D01*
X034061Y028743D02*
X033928Y028743D01*
X033928Y028842D02*
X034061Y028842D01*
X034061Y028940D02*
X033928Y028940D01*
X033928Y029039D02*
X034061Y029039D01*
X034144Y029137D02*
X033909Y029137D01*
X033909Y029236D02*
X035024Y029236D01*
X035024Y029334D02*
X033909Y029334D01*
X033897Y029433D02*
X035037Y029433D01*
X035718Y028546D02*
X039519Y028546D01*
X039547Y028558D02*
X039419Y028505D01*
X039321Y028407D01*
X039268Y028279D01*
X039268Y028140D01*
X039321Y028012D01*
X039419Y027914D01*
X039547Y027861D01*
X039686Y027861D01*
X039814Y027914D01*
X039912Y028012D01*
X039965Y028140D01*
X039965Y028279D01*
X039912Y028407D01*
X039814Y028505D01*
X039686Y028558D01*
X039547Y028558D01*
X039714Y028546D02*
X040217Y028546D01*
X040217Y028448D02*
X039871Y028448D01*
X039936Y028349D02*
X040217Y028349D01*
X040217Y028251D02*
X039965Y028251D01*
X039965Y028152D02*
X040217Y028152D01*
X040217Y028054D02*
X039929Y028054D01*
X039855Y027955D02*
X040217Y027955D01*
X040217Y027857D02*
X036047Y027857D01*
X036047Y027955D02*
X039378Y027955D01*
X039304Y028054D02*
X036047Y028054D01*
X036047Y028152D02*
X039268Y028152D01*
X039268Y028251D02*
X036013Y028251D01*
X035915Y028349D02*
X039297Y028349D01*
X039362Y028448D02*
X035816Y028448D01*
X036047Y027758D02*
X039344Y027758D01*
X039356Y027770D02*
X039268Y027683D01*
X039268Y027161D01*
X039356Y027074D01*
X039877Y027074D01*
X039965Y027161D01*
X039965Y027683D01*
X039877Y027770D01*
X039356Y027770D01*
X039268Y027660D02*
X036047Y027660D01*
X036047Y027561D02*
X039268Y027561D01*
X039268Y027463D02*
X036047Y027463D01*
X036047Y027364D02*
X039268Y027364D01*
X039268Y027266D02*
X036047Y027266D01*
X036047Y027167D02*
X039268Y027167D01*
X039419Y026930D02*
X039321Y026832D01*
X039268Y026704D01*
X039268Y026565D01*
X039321Y026437D01*
X039419Y026339D01*
X039547Y026286D01*
X039686Y026286D01*
X039814Y026339D01*
X039912Y026437D01*
X039965Y026565D01*
X039965Y026704D01*
X039912Y026832D01*
X039814Y026930D01*
X039686Y026983D01*
X039547Y026983D01*
X039419Y026930D01*
X039361Y026872D02*
X036047Y026872D01*
X036047Y026970D02*
X039516Y026970D01*
X039717Y026970D02*
X040217Y026970D01*
X040217Y026872D02*
X039872Y026872D01*
X039936Y026773D02*
X040217Y026773D01*
X040217Y026675D02*
X039965Y026675D01*
X039965Y026576D02*
X040217Y026576D01*
X040217Y026478D02*
X039929Y026478D01*
X039854Y026379D02*
X040217Y026379D01*
X040217Y026281D02*
X036097Y026281D01*
X036097Y026379D02*
X039379Y026379D01*
X039305Y026478D02*
X036097Y026478D01*
X036097Y026576D02*
X039268Y026576D01*
X039268Y026675D02*
X036089Y026675D01*
X036047Y026773D02*
X039297Y026773D01*
X039547Y026196D02*
X039419Y026143D01*
X039321Y026045D01*
X039268Y025917D01*
X039268Y025778D01*
X039321Y025650D01*
X039419Y025552D01*
X039547Y025499D01*
X039686Y025499D01*
X039814Y025552D01*
X039912Y025650D01*
X039965Y025778D01*
X039965Y025917D01*
X039912Y026045D01*
X039814Y026143D01*
X039686Y026196D01*
X039547Y026196D01*
X039515Y026182D02*
X036097Y026182D01*
X036097Y026084D02*
X039360Y026084D01*
X039297Y025985D02*
X036097Y025985D01*
X036097Y025887D02*
X039268Y025887D01*
X039268Y025788D02*
X036117Y025788D01*
X036117Y025690D02*
X039305Y025690D01*
X039380Y025591D02*
X036117Y025591D01*
X036117Y025493D02*
X040217Y025493D01*
X040217Y025591D02*
X039853Y025591D01*
X039929Y025690D02*
X040217Y025690D01*
X040217Y025788D02*
X039965Y025788D01*
X039965Y025887D02*
X040217Y025887D01*
X040217Y025985D02*
X039937Y025985D01*
X039873Y026084D02*
X040217Y026084D01*
X040217Y026182D02*
X039719Y026182D01*
X039720Y025394D02*
X040217Y025394D01*
X040217Y025296D02*
X039874Y025296D01*
X039937Y025197D02*
X040217Y025197D01*
X040217Y025099D02*
X039965Y025099D01*
X039965Y025000D02*
X040217Y025000D01*
X040217Y024902D02*
X039947Y024902D01*
X039947Y024803D02*
X040217Y024803D01*
X040217Y024705D02*
X039947Y024705D01*
X039947Y024606D02*
X040217Y024606D01*
X040217Y024508D02*
X039947Y024508D01*
X039947Y024409D02*
X040217Y024409D01*
X040217Y024311D02*
X039947Y024311D01*
X039947Y024212D02*
X040217Y024212D01*
X040217Y024114D02*
X039947Y024114D01*
X039947Y024015D02*
X040217Y024015D01*
X040217Y023917D02*
X039947Y023917D01*
X039947Y023818D02*
X040217Y023818D01*
X040217Y023720D02*
X039947Y023720D01*
X039947Y023621D02*
X040217Y023621D01*
X040217Y023523D02*
X039947Y023523D01*
X039947Y023424D02*
X040217Y023424D01*
X040217Y023326D02*
X039947Y023326D01*
X039947Y023227D02*
X040217Y023227D01*
X040217Y023129D02*
X039947Y023129D01*
X039947Y023030D02*
X040217Y023030D01*
X040217Y022932D02*
X039947Y022932D01*
X039947Y022833D02*
X040217Y022833D01*
X040217Y022735D02*
X039947Y022735D01*
X039947Y022636D02*
X040217Y022636D01*
X040217Y022538D02*
X039947Y022538D01*
X039947Y022439D02*
X040217Y022439D01*
X040217Y022341D02*
X039947Y022341D01*
X039947Y022242D02*
X040217Y022242D01*
X040217Y022144D02*
X039947Y022144D01*
X039947Y022045D02*
X040217Y022045D01*
X040217Y021947D02*
X039947Y021947D01*
X039947Y021848D02*
X040217Y021848D01*
X040217Y021750D02*
X039947Y021750D01*
X039947Y021651D02*
X040217Y021651D01*
X040217Y021553D02*
X039947Y021553D01*
X039947Y021454D02*
X040217Y021454D01*
X040217Y021356D02*
X039947Y021356D01*
X039947Y021257D02*
X040217Y021257D01*
X040217Y021159D02*
X039947Y021159D01*
X039947Y021060D02*
X040217Y021060D01*
X040217Y020962D02*
X039947Y020962D01*
X039947Y020863D02*
X040217Y020863D01*
X040217Y020765D02*
X039947Y020765D01*
X039947Y020666D02*
X040217Y020666D01*
X040217Y020568D02*
X039947Y020568D01*
X039947Y020469D02*
X040217Y020469D01*
X040217Y020371D02*
X039947Y020371D01*
X039947Y020272D02*
X040217Y020272D01*
X040217Y020174D02*
X039947Y020174D01*
X039947Y020075D02*
X040217Y020075D01*
X040217Y019977D02*
X039947Y019977D01*
X039947Y019878D02*
X040217Y019878D01*
X040217Y019780D02*
X039965Y019780D01*
X039965Y019681D02*
X040217Y019681D01*
X040217Y019583D02*
X039947Y019583D01*
X039947Y019484D02*
X040217Y019484D01*
X040217Y019386D02*
X039947Y019386D01*
X039947Y019287D02*
X040217Y019287D01*
X040217Y019189D02*
X039947Y019189D01*
X039947Y019090D02*
X040217Y019090D01*
X040217Y018992D02*
X039965Y018992D01*
X039965Y018893D02*
X040217Y018893D01*
X040217Y018795D02*
X039947Y018795D01*
X039947Y018696D02*
X040217Y018696D01*
X040217Y018598D02*
X039947Y018598D01*
X039947Y018499D02*
X040217Y018499D01*
X040217Y018401D02*
X039947Y018401D01*
X039947Y018302D02*
X040217Y018302D01*
X040217Y018204D02*
X039965Y018204D01*
X039965Y018105D02*
X040217Y018105D01*
X040217Y018007D02*
X039947Y018007D01*
X039947Y017908D02*
X040217Y017908D01*
X040217Y017810D02*
X039947Y017810D01*
X039947Y017711D02*
X040217Y017711D01*
X040217Y017613D02*
X039947Y017613D01*
X039947Y017514D02*
X040217Y017514D01*
X040217Y017416D02*
X039965Y017416D01*
X039965Y017317D02*
X040217Y017317D01*
X040217Y017219D02*
X039938Y017219D01*
X039870Y017120D02*
X040217Y017120D01*
X040217Y017022D02*
X039711Y017022D01*
X039522Y017022D02*
X033499Y017022D01*
X033499Y017120D02*
X036140Y017120D01*
X036140Y017219D02*
X035390Y017219D01*
X035400Y017317D02*
X036140Y017317D01*
X036140Y017416D02*
X035400Y017416D01*
X035400Y017514D02*
X036140Y017514D01*
X035533Y017613D02*
X035400Y017613D01*
X035483Y017872D02*
X034844Y017872D01*
X034844Y018199D01*
X034727Y018316D01*
X034540Y018316D01*
X034534Y018318D01*
X034399Y018318D01*
X034394Y018316D01*
X034207Y018316D01*
X034203Y018312D01*
X034138Y018312D01*
X034120Y018330D01*
X033747Y018330D01*
X033747Y019115D01*
X034090Y019115D01*
X034090Y018746D01*
X034207Y018628D01*
X034394Y018628D01*
X034399Y018626D01*
X034777Y018626D01*
X034813Y018591D01*
X035333Y018591D01*
X035450Y018708D01*
X035450Y019188D01*
X035333Y019306D01*
X035124Y019306D01*
X035122Y019306D01*
X034844Y019306D01*
X034844Y019699D01*
X034727Y019816D01*
X034540Y019816D01*
X034534Y019818D01*
X034399Y019818D01*
X034394Y019816D01*
X034207Y019816D01*
X034203Y019812D01*
X034138Y019812D01*
X034120Y019830D01*
X033747Y019830D01*
X033747Y020615D01*
X034090Y020615D01*
X034090Y020246D01*
X034207Y020128D01*
X034394Y020128D01*
X034399Y020126D01*
X034777Y020126D01*
X034813Y020091D01*
X035333Y020091D01*
X035450Y020208D01*
X035450Y020688D01*
X035333Y020806D01*
X035124Y020806D01*
X035122Y020806D01*
X034844Y020806D01*
X034844Y021199D01*
X034727Y021316D01*
X034540Y021316D01*
X034534Y021318D01*
X034132Y021318D01*
X034120Y021330D01*
X033747Y021330D01*
X033747Y022115D01*
X034090Y022115D01*
X034090Y021746D01*
X034207Y021628D01*
X034394Y021628D01*
X034399Y021626D01*
X034777Y021626D01*
X034813Y021591D01*
X035333Y021591D01*
X035450Y021708D01*
X035450Y022188D01*
X035333Y022306D01*
X035124Y022306D01*
X035122Y022306D01*
X034844Y022306D01*
X034844Y022699D01*
X034727Y022816D01*
X034540Y022816D01*
X034534Y022818D01*
X034132Y022818D01*
X034120Y022830D01*
X033600Y022830D01*
X033543Y022772D01*
X033450Y022865D01*
X033450Y023086D01*
X033333Y023204D01*
X032813Y023204D01*
X032696Y023086D01*
X032696Y022606D01*
X032813Y022489D01*
X033034Y022489D01*
X033068Y022456D01*
X032813Y022456D01*
X032795Y022438D01*
X032754Y022438D01*
X032743Y022449D01*
X032302Y022449D01*
X032267Y022414D01*
X032231Y022449D01*
X031790Y022449D01*
X031673Y022332D01*
X031673Y021812D01*
X031737Y021748D01*
X031737Y021595D01*
X031692Y021487D01*
X031692Y021357D01*
X031741Y021238D01*
X031833Y021147D01*
X031952Y021097D01*
X032081Y021097D01*
X032201Y021147D01*
X032292Y021238D01*
X032342Y021357D01*
X032342Y021487D01*
X032297Y021595D01*
X032297Y021700D01*
X032302Y021695D01*
X032743Y021695D01*
X032801Y021753D01*
X032813Y021741D01*
X033187Y021741D01*
X033187Y021704D01*
X032813Y021704D01*
X032696Y021586D01*
X032696Y021106D01*
X032813Y020989D01*
X033187Y020989D01*
X033187Y020956D01*
X032813Y020956D01*
X032795Y020938D01*
X032754Y020938D01*
X032743Y020949D01*
X032302Y020949D01*
X032267Y020914D01*
X032231Y020949D01*
X031790Y020949D01*
X031673Y020832D01*
X031673Y020630D01*
X031445Y020402D01*
X028143Y020402D01*
X027887Y020658D01*
X027842Y020766D01*
X027751Y020858D01*
X027631Y020907D01*
X027502Y020907D01*
X027383Y020858D01*
X027291Y020766D01*
X027242Y020647D01*
X027242Y020517D01*
X027291Y020398D01*
X027383Y020307D01*
X027491Y020262D01*
X027868Y019885D01*
X027923Y019862D01*
X027740Y019862D01*
X027631Y019907D01*
X027502Y019907D01*
X027383Y019858D01*
X027291Y019766D01*
X027242Y019647D01*
X027242Y019517D01*
X027291Y019398D01*
X027383Y019307D01*
X027502Y019257D01*
X027631Y019257D01*
X027740Y019302D01*
X031385Y019302D01*
X031673Y019014D01*
X031673Y018812D01*
X031790Y018695D01*
X032231Y018695D01*
X032267Y018730D01*
X032302Y018695D01*
X032743Y018695D01*
X032801Y018753D01*
X032813Y018741D01*
X033187Y018741D01*
X033187Y018704D01*
X032813Y018704D01*
X032696Y018586D01*
X032696Y018106D01*
X032813Y017989D01*
X033187Y017989D01*
X033187Y017956D01*
X032813Y017956D01*
X032795Y017938D01*
X032754Y017938D01*
X032743Y017949D01*
X032302Y017949D01*
X032267Y017914D01*
X032231Y017949D01*
X031790Y017949D01*
X031713Y017872D01*
X028663Y017872D01*
X027625Y018909D01*
X027522Y018952D01*
X027340Y018952D01*
X027231Y018997D01*
X027102Y018997D01*
X026983Y018948D01*
X026891Y018856D01*
X026842Y018737D01*
X026842Y018607D01*
X026891Y018488D01*
X026983Y018397D01*
X027102Y018347D01*
X027231Y018347D01*
X027340Y018392D01*
X027351Y018392D01*
X027384Y018358D01*
X027383Y018358D01*
X027291Y018266D01*
X027242Y018147D01*
X027242Y018017D01*
X027291Y017898D01*
X027317Y017872D01*
X026577Y017872D01*
X026592Y017907D01*
X026592Y018037D01*
X026542Y018156D01*
X026451Y018248D01*
X026331Y018297D01*
X026202Y018297D01*
X026093Y018252D01*
X025433Y018252D01*
X023237Y020448D01*
X023192Y020556D01*
X023101Y020648D01*
X022981Y020697D01*
X022852Y020697D01*
X022733Y020648D01*
X022641Y020556D01*
X022592Y020437D01*
X022592Y020372D01*
X021817Y020372D01*
X021817Y021092D01*
X027651Y021092D01*
X027929Y020813D01*
X028008Y020735D01*
X028111Y020692D01*
X029012Y020692D01*
X029115Y020735D01*
X029142Y020762D01*
X029251Y020807D01*
X029342Y020898D01*
X029392Y021017D01*
X029392Y021142D01*
X029472Y021142D01*
X029575Y021185D01*
X034163Y025772D01*
X035587Y025772D01*
X035587Y025418D01*
X035399Y025418D01*
X035394Y025416D01*
X035207Y025416D01*
X035090Y025299D01*
X035090Y024857D01*
X035207Y024740D01*
X035394Y024740D01*
X035399Y024738D01*
X035867Y024738D01*
X035867Y022680D01*
X035600Y022680D01*
X035483Y022562D01*
X035483Y022082D01*
X035600Y021965D01*
X035867Y021965D01*
X035867Y021180D01*
X035600Y021180D01*
X035483Y021062D01*
X035483Y020582D01*
X035600Y020465D01*
X035867Y020465D01*
X035867Y019680D01*
X035600Y019680D01*
X035483Y019562D01*
X035483Y019082D01*
X035600Y018965D01*
X035867Y018965D01*
X035867Y018180D01*
X035600Y018180D01*
X035483Y018062D01*
X035483Y017872D01*
X035483Y017908D02*
X034844Y017908D01*
X034844Y018007D02*
X035483Y018007D01*
X035526Y018105D02*
X034844Y018105D01*
X034839Y018204D02*
X035867Y018204D01*
X035867Y018302D02*
X034740Y018302D01*
X034806Y018598D02*
X033747Y018598D01*
X033747Y018696D02*
X034139Y018696D01*
X034090Y018795D02*
X033747Y018795D01*
X033747Y018893D02*
X034090Y018893D01*
X034090Y018992D02*
X033747Y018992D01*
X033747Y019090D02*
X034090Y019090D01*
X034844Y019386D02*
X035483Y019386D01*
X035483Y019484D02*
X034844Y019484D01*
X034844Y019583D02*
X035503Y019583D01*
X035483Y019287D02*
X035351Y019287D01*
X035450Y019189D02*
X035483Y019189D01*
X035483Y019090D02*
X035450Y019090D01*
X035450Y018992D02*
X035573Y018992D01*
X035450Y018893D02*
X035867Y018893D01*
X035867Y018795D02*
X035450Y018795D01*
X035439Y018696D02*
X035867Y018696D01*
X035867Y018598D02*
X035340Y018598D01*
X035867Y018499D02*
X033747Y018499D01*
X033747Y018401D02*
X035867Y018401D01*
X035867Y019681D02*
X034844Y019681D01*
X034763Y019780D02*
X035867Y019780D01*
X035867Y019878D02*
X033747Y019878D01*
X033747Y019977D02*
X035867Y019977D01*
X035867Y020075D02*
X033747Y020075D01*
X033747Y020174D02*
X034161Y020174D01*
X034090Y020272D02*
X033747Y020272D01*
X033747Y020371D02*
X034090Y020371D01*
X034090Y020469D02*
X033747Y020469D01*
X033747Y020568D02*
X034090Y020568D01*
X034844Y020863D02*
X035483Y020863D01*
X035483Y020765D02*
X035374Y020765D01*
X035450Y020666D02*
X035483Y020666D01*
X035497Y020568D02*
X035450Y020568D01*
X035450Y020469D02*
X035596Y020469D01*
X035450Y020371D02*
X035867Y020371D01*
X035867Y020272D02*
X035450Y020272D01*
X035416Y020174D02*
X035867Y020174D01*
X035483Y020962D02*
X034844Y020962D01*
X034844Y021060D02*
X035483Y021060D01*
X035579Y021159D02*
X034844Y021159D01*
X034785Y021257D02*
X035867Y021257D01*
X035867Y021356D02*
X033747Y021356D01*
X033747Y021454D02*
X035867Y021454D01*
X035867Y021553D02*
X033747Y021553D01*
X033747Y021651D02*
X034184Y021651D01*
X034090Y021750D02*
X033747Y021750D01*
X033747Y021848D02*
X034090Y021848D01*
X034090Y021947D02*
X033747Y021947D01*
X033747Y022045D02*
X034090Y022045D01*
X034844Y022341D02*
X035483Y022341D01*
X035483Y022439D02*
X034844Y022439D01*
X034844Y022538D02*
X035483Y022538D01*
X035557Y022636D02*
X034844Y022636D01*
X034808Y022735D02*
X035867Y022735D01*
X035867Y022833D02*
X033482Y022833D01*
X033450Y022932D02*
X035867Y022932D01*
X035867Y023030D02*
X033450Y023030D01*
X033408Y023129D02*
X035867Y023129D01*
X035867Y023227D02*
X031618Y023227D01*
X031716Y023326D02*
X035867Y023326D01*
X035867Y023424D02*
X031815Y023424D01*
X031913Y023523D02*
X035867Y023523D01*
X035867Y023621D02*
X032012Y023621D01*
X032110Y023720D02*
X035867Y023720D01*
X035867Y023818D02*
X032209Y023818D01*
X032307Y023917D02*
X035867Y023917D01*
X035867Y024015D02*
X032406Y024015D01*
X032504Y024114D02*
X035867Y024114D01*
X035867Y024212D02*
X032603Y024212D01*
X032701Y024311D02*
X035867Y024311D01*
X035867Y024409D02*
X032800Y024409D01*
X032898Y024508D02*
X035867Y024508D01*
X035867Y024606D02*
X032997Y024606D01*
X033095Y024705D02*
X035867Y024705D01*
X035144Y024803D02*
X033194Y024803D01*
X033292Y024902D02*
X035090Y024902D01*
X035090Y025000D02*
X033391Y025000D01*
X033489Y025099D02*
X035090Y025099D01*
X035090Y025197D02*
X033588Y025197D01*
X033686Y025296D02*
X035090Y025296D01*
X035185Y025394D02*
X033785Y025394D01*
X033883Y025493D02*
X035587Y025493D01*
X035587Y025591D02*
X033982Y025591D01*
X034080Y025690D02*
X035587Y025690D01*
X036117Y025394D02*
X039513Y025394D01*
X040217Y027069D02*
X036047Y027069D01*
X033289Y029039D02*
X033188Y029081D01*
X033183Y029081D01*
X033128Y029136D01*
X028506Y029136D01*
X028606Y029236D02*
X033143Y029236D01*
X033065Y029334D02*
X028704Y029334D01*
X028803Y029433D02*
X033065Y029433D01*
X033065Y029531D02*
X028901Y029531D01*
X028997Y029630D02*
X033065Y029630D01*
X033065Y029728D02*
X028997Y029728D01*
X028997Y029827D02*
X033065Y029827D01*
X028997Y029925D02*
X039298Y029925D01*
X039363Y030024D02*
X028997Y030024D01*
X027985Y030024D02*
X024811Y030024D01*
X024712Y030122D02*
X027985Y030122D01*
X027985Y030221D02*
X024614Y030221D01*
X024515Y030319D02*
X027985Y030319D01*
X027985Y029925D02*
X024909Y029925D01*
X025008Y029827D02*
X026596Y029827D01*
X026497Y029728D02*
X025106Y029728D01*
X025205Y029630D02*
X026409Y029630D01*
X026409Y029531D02*
X025303Y029531D01*
X025402Y029433D02*
X026409Y029433D01*
X026409Y029334D02*
X025500Y029334D01*
X025586Y029236D02*
X026409Y029236D01*
X026410Y029137D02*
X025627Y029137D01*
X025650Y029039D02*
X026410Y029039D01*
X026461Y028940D02*
X025650Y028940D01*
X025650Y028842D02*
X026847Y028842D01*
X026769Y028743D02*
X025650Y028743D01*
X025650Y028645D02*
X026742Y028645D01*
X026750Y028546D02*
X025650Y028546D01*
X025650Y028448D02*
X026802Y028448D01*
X026957Y028349D02*
X025650Y028349D01*
X025650Y028251D02*
X027148Y028251D01*
X027148Y028349D02*
X027076Y028349D01*
X027148Y028152D02*
X025650Y028152D01*
X025650Y028054D02*
X026411Y028054D01*
X026410Y027955D02*
X025650Y027955D01*
X025628Y027857D02*
X026409Y027857D01*
X026409Y027758D02*
X025587Y027758D01*
X025503Y027660D02*
X026409Y027660D01*
X026409Y027561D02*
X025465Y027561D01*
X025465Y027463D02*
X026409Y027463D01*
X026383Y027364D02*
X025465Y027364D01*
X025465Y027266D02*
X026285Y027266D01*
X026186Y027167D02*
X025465Y027167D01*
X025465Y027069D02*
X026088Y027069D01*
X025989Y026970D02*
X025465Y026970D01*
X025465Y026872D02*
X025891Y026872D01*
X025792Y026773D02*
X025465Y026773D01*
X025465Y026675D02*
X025737Y026675D01*
X025737Y026576D02*
X025465Y026576D01*
X025465Y026478D02*
X025737Y026478D01*
X025737Y026379D02*
X025465Y026379D01*
X025465Y026281D02*
X025737Y026281D01*
X025737Y026182D02*
X025460Y026182D01*
X025460Y026084D02*
X025737Y026084D01*
X025737Y025985D02*
X025413Y025985D01*
X025410Y025887D02*
X025737Y025887D01*
X025737Y025788D02*
X025410Y025788D01*
X025413Y025690D02*
X025737Y025690D01*
X025737Y025591D02*
X025410Y025591D01*
X025410Y025493D02*
X025737Y025493D01*
X025737Y025394D02*
X025424Y025394D01*
X025424Y025296D02*
X025737Y025296D01*
X025737Y025197D02*
X025424Y025197D01*
X025424Y025099D02*
X025737Y025099D01*
X025737Y025000D02*
X025424Y025000D01*
X025399Y024902D02*
X025737Y024902D01*
X025737Y024803D02*
X024497Y024803D01*
X024497Y024705D02*
X025270Y024705D01*
X025183Y024606D02*
X024497Y024606D01*
X024497Y024508D02*
X025183Y024508D01*
X025183Y024409D02*
X024497Y024409D01*
X024497Y024311D02*
X025183Y024311D01*
X025183Y024212D02*
X024497Y024212D01*
X024497Y024114D02*
X025190Y024114D01*
X025190Y024015D02*
X024497Y024015D01*
X024497Y023917D02*
X025190Y023917D01*
X025190Y023818D02*
X024596Y023818D01*
X024694Y023720D02*
X025198Y023720D01*
X025195Y023621D02*
X024793Y023621D01*
X024891Y023523D02*
X025190Y023523D01*
X025190Y023424D02*
X024990Y023424D01*
X025088Y023326D02*
X025190Y023326D01*
X025187Y023227D02*
X025190Y023227D01*
X025711Y024705D02*
X025737Y024705D01*
X024834Y024902D02*
X024497Y024902D01*
X024497Y025000D02*
X024809Y025000D01*
X024809Y025099D02*
X024497Y025099D01*
X024497Y025197D02*
X024809Y025197D01*
X024809Y025296D02*
X024497Y025296D01*
X024420Y025394D02*
X024809Y025394D01*
X024884Y026576D02*
X024885Y026576D01*
X024885Y026675D02*
X017607Y026675D01*
X017607Y026773D02*
X024885Y026773D01*
X024885Y026872D02*
X017607Y026872D01*
X017607Y026970D02*
X024885Y026970D01*
X024885Y027069D02*
X017607Y027069D01*
X017607Y027167D02*
X024885Y027167D01*
X024885Y027266D02*
X017607Y027266D01*
X017607Y027364D02*
X024885Y027364D01*
X024885Y027463D02*
X017607Y027463D01*
X017720Y027561D02*
X019096Y027561D01*
X019175Y027529D02*
X019364Y027529D01*
X019538Y027601D01*
X019672Y027734D01*
X019744Y027909D01*
X019744Y029082D01*
X019672Y029257D01*
X019538Y029390D01*
X018554Y030375D01*
X018380Y030447D01*
X018191Y030447D01*
X018016Y030375D01*
X017882Y030241D01*
X017810Y030067D01*
X017810Y029878D01*
X017882Y029703D01*
X018794Y028791D01*
X018794Y027909D01*
X018867Y027734D01*
X019000Y027601D01*
X019175Y027529D01*
X018942Y027660D02*
X017776Y027660D01*
X017776Y027758D02*
X018857Y027758D01*
X018816Y027857D02*
X017776Y027857D01*
X017776Y027909D02*
X017776Y027909D01*
X017776Y027955D02*
X018794Y027955D01*
X018794Y028054D02*
X017776Y028054D01*
X017776Y028152D02*
X018794Y028152D01*
X018794Y028251D02*
X017776Y028251D01*
X017776Y028349D02*
X018794Y028349D01*
X018794Y028448D02*
X017776Y028448D01*
X017776Y028546D02*
X018794Y028546D01*
X018794Y028645D02*
X017776Y028645D01*
X017776Y028743D02*
X018794Y028743D01*
X018744Y028842D02*
X017776Y028842D01*
X017776Y028940D02*
X018645Y028940D01*
X018547Y029039D02*
X017776Y029039D01*
X017753Y029137D02*
X018448Y029137D01*
X018350Y029236D02*
X017712Y029236D01*
X017626Y029334D02*
X018251Y029334D01*
X018153Y029433D02*
X017528Y029433D01*
X017429Y029531D02*
X018054Y029531D01*
X017956Y029630D02*
X017331Y029630D01*
X017232Y029728D02*
X017872Y029728D01*
X017831Y029827D02*
X017134Y029827D01*
X017035Y029925D02*
X017810Y029925D01*
X017810Y030024D02*
X016937Y030024D01*
X016838Y030122D02*
X017833Y030122D01*
X017874Y030221D02*
X016791Y030221D01*
X016791Y030319D02*
X017960Y030319D01*
X018120Y030418D02*
X016733Y030418D01*
X015901Y030418D02*
X010838Y030418D01*
X010997Y030319D02*
X015842Y030319D01*
X015842Y030221D02*
X011095Y030221D01*
X011194Y030122D02*
X015842Y030122D01*
X015842Y030024D02*
X011292Y030024D01*
X011391Y029925D02*
X015842Y029925D01*
X015842Y029827D02*
X011489Y029827D01*
X011588Y029728D02*
X015842Y029728D01*
X015842Y029630D02*
X011686Y029630D01*
X011785Y029531D02*
X015896Y029531D01*
X016184Y029433D02*
X011883Y029433D01*
X011982Y029334D02*
X016283Y029334D01*
X016381Y029236D02*
X012068Y029236D01*
X012109Y029137D02*
X016480Y029137D01*
X016578Y029039D02*
X012131Y029039D01*
X012131Y028940D02*
X016677Y028940D01*
X016775Y028842D02*
X012131Y028842D01*
X012131Y028743D02*
X016826Y028743D01*
X016826Y028645D02*
X012131Y028645D01*
X012131Y028546D02*
X016826Y028546D01*
X016826Y028448D02*
X012131Y028448D01*
X012131Y028349D02*
X016826Y028349D01*
X016826Y028251D02*
X012131Y028251D01*
X012131Y028152D02*
X016826Y028152D01*
X016826Y028054D02*
X012131Y028054D01*
X012131Y027955D02*
X016826Y027955D01*
X016826Y027857D02*
X012110Y027857D01*
X012069Y027758D02*
X016826Y027758D01*
X016826Y027660D02*
X011984Y027660D01*
X011830Y027561D02*
X016882Y027561D01*
X017027Y027463D02*
X011747Y027463D01*
X011747Y027364D02*
X017027Y027364D01*
X017027Y027266D02*
X011747Y027266D01*
X011747Y027167D02*
X017027Y027167D01*
X017027Y027069D02*
X011747Y027069D01*
X011747Y026970D02*
X017027Y026970D01*
X017027Y026872D02*
X011747Y026872D01*
X011747Y026773D02*
X017027Y026773D01*
X017027Y026675D02*
X011747Y026675D01*
X011747Y026576D02*
X017027Y026576D01*
X017027Y026478D02*
X011786Y026478D01*
X011885Y026379D02*
X017027Y026379D01*
X017027Y026281D02*
X011983Y026281D01*
X012082Y026182D02*
X017009Y026182D01*
X017607Y026281D02*
X023259Y026281D01*
X023259Y026379D02*
X017607Y026379D01*
X017607Y026478D02*
X023259Y026478D01*
X023280Y026576D02*
X017607Y026576D01*
X017624Y026182D02*
X023259Y026182D01*
X023853Y026576D02*
X024438Y026576D01*
X024885Y027561D02*
X023380Y027561D01*
X023301Y027529D02*
X023475Y027601D01*
X023609Y027734D01*
X023681Y027909D01*
X023681Y029082D01*
X023609Y029257D01*
X023475Y029390D01*
X022491Y030375D01*
X022317Y030447D01*
X022128Y030447D01*
X021953Y030375D01*
X021819Y030241D01*
X021747Y030067D01*
X021747Y029878D01*
X021819Y029703D01*
X022731Y028791D01*
X022731Y027909D01*
X022804Y027734D01*
X022937Y027601D01*
X023112Y027529D01*
X023301Y027529D01*
X023534Y027660D02*
X024847Y027660D01*
X024762Y027758D02*
X023619Y027758D01*
X023660Y027857D02*
X024722Y027857D01*
X024700Y027955D02*
X023681Y027955D01*
X023681Y028054D02*
X024700Y028054D01*
X024700Y028152D02*
X023681Y028152D01*
X023681Y028251D02*
X024700Y028251D01*
X024700Y028349D02*
X023681Y028349D01*
X023681Y028448D02*
X024700Y028448D01*
X024700Y028546D02*
X023681Y028546D01*
X023681Y028645D02*
X024700Y028645D01*
X024700Y028743D02*
X023681Y028743D01*
X023681Y028842D02*
X024649Y028842D01*
X024551Y028940D02*
X023681Y028940D01*
X023681Y029039D02*
X024452Y029039D01*
X024354Y029137D02*
X023659Y029137D01*
X023618Y029236D02*
X024255Y029236D01*
X024157Y029334D02*
X023532Y029334D01*
X023433Y029433D02*
X024058Y029433D01*
X023960Y029531D02*
X023335Y029531D01*
X023236Y029630D02*
X023861Y029630D01*
X023778Y029728D02*
X023138Y029728D01*
X023039Y029827D02*
X023737Y029827D01*
X023716Y029925D02*
X022941Y029925D01*
X022842Y030024D02*
X023716Y030024D01*
X023739Y030122D02*
X022744Y030122D01*
X022645Y030221D02*
X023780Y030221D01*
X023866Y030319D02*
X022547Y030319D01*
X022388Y030418D02*
X024025Y030418D01*
X024356Y030418D02*
X026730Y030418D01*
X026720Y030516D02*
X010498Y030516D01*
X010399Y030615D02*
X026720Y030615D01*
X026720Y030713D02*
X010301Y030713D01*
X010202Y030812D02*
X026720Y030812D01*
X026720Y030910D02*
X010104Y030910D01*
X010005Y031009D02*
X026743Y031009D01*
X027390Y031009D02*
X027393Y031009D01*
X023033Y027561D02*
X021411Y027561D01*
X021332Y027529D02*
X021507Y027601D01*
X021641Y027734D01*
X021713Y027909D01*
X021713Y029082D01*
X021641Y029257D01*
X021507Y029390D01*
X020523Y030375D01*
X020348Y030447D01*
X020159Y030447D01*
X019985Y030375D01*
X019851Y030241D01*
X019779Y030067D01*
X019779Y029878D01*
X019851Y029703D01*
X020763Y028791D01*
X020763Y027909D01*
X020835Y027734D01*
X020969Y027601D01*
X021143Y027529D01*
X021332Y027529D01*
X021566Y027660D02*
X022879Y027660D01*
X022794Y027758D02*
X021650Y027758D01*
X021691Y027857D02*
X022753Y027857D01*
X022731Y027955D02*
X021713Y027955D01*
X021713Y028054D02*
X022731Y028054D01*
X022731Y028152D02*
X021713Y028152D01*
X021713Y028251D02*
X022731Y028251D01*
X022731Y028349D02*
X021713Y028349D01*
X021713Y028448D02*
X022731Y028448D01*
X022731Y028546D02*
X021713Y028546D01*
X021713Y028645D02*
X022731Y028645D01*
X022731Y028743D02*
X021713Y028743D01*
X021713Y028842D02*
X022681Y028842D01*
X022582Y028940D02*
X021713Y028940D01*
X021713Y029039D02*
X022484Y029039D01*
X022385Y029137D02*
X021690Y029137D01*
X021649Y029236D02*
X022287Y029236D01*
X022188Y029334D02*
X021563Y029334D01*
X021465Y029433D02*
X022090Y029433D01*
X021991Y029531D02*
X021366Y029531D01*
X021268Y029630D02*
X021893Y029630D01*
X021809Y029728D02*
X021169Y029728D01*
X021071Y029827D02*
X021768Y029827D01*
X021747Y029925D02*
X020972Y029925D01*
X020874Y030024D02*
X021747Y030024D01*
X021770Y030122D02*
X020775Y030122D01*
X020677Y030221D02*
X021811Y030221D01*
X021898Y030319D02*
X020578Y030319D01*
X020419Y030418D02*
X022057Y030418D01*
X020614Y028940D02*
X019744Y028940D01*
X019744Y028842D02*
X020712Y028842D01*
X020763Y028743D02*
X019744Y028743D01*
X019744Y028645D02*
X020763Y028645D01*
X020763Y028546D02*
X019744Y028546D01*
X019744Y028448D02*
X020763Y028448D01*
X020763Y028349D02*
X019744Y028349D01*
X019744Y028251D02*
X020763Y028251D01*
X020763Y028152D02*
X019744Y028152D01*
X019744Y028054D02*
X020763Y028054D01*
X020763Y027955D02*
X019744Y027955D01*
X019723Y027857D02*
X020785Y027857D01*
X020825Y027758D02*
X019682Y027758D01*
X019597Y027660D02*
X020910Y027660D01*
X021065Y027561D02*
X019443Y027561D01*
X019744Y029039D02*
X020515Y029039D01*
X020417Y029137D02*
X019722Y029137D01*
X019681Y029236D02*
X020318Y029236D01*
X020220Y029334D02*
X019595Y029334D01*
X019496Y029433D02*
X020121Y029433D01*
X020023Y029531D02*
X019398Y029531D01*
X019299Y029630D02*
X019924Y029630D01*
X019841Y029728D02*
X019201Y029728D01*
X019102Y029827D02*
X019800Y029827D01*
X019779Y029925D02*
X019004Y029925D01*
X018905Y030024D02*
X019779Y030024D01*
X019802Y030122D02*
X018807Y030122D01*
X018708Y030221D02*
X019843Y030221D01*
X019929Y030319D02*
X018610Y030319D01*
X018451Y030418D02*
X020088Y030418D01*
X010427Y022636D02*
X006097Y022636D01*
X006097Y022538D02*
X010526Y022538D01*
X010329Y022735D02*
X009444Y022735D01*
X009498Y022833D02*
X010230Y022833D01*
X010132Y022932D02*
X009504Y022932D01*
X009603Y023030D02*
X010033Y023030D01*
X009935Y023129D02*
X009701Y023129D01*
X009778Y023227D02*
X009836Y023227D01*
X008941Y023326D02*
X007807Y023326D01*
X007778Y023227D02*
X008883Y023227D01*
X008883Y023129D02*
X007701Y023129D01*
X007603Y023030D02*
X008883Y023030D01*
X008883Y022932D02*
X007504Y022932D01*
X007498Y022833D02*
X008883Y022833D01*
X008938Y022735D02*
X007444Y022735D01*
X006938Y022735D02*
X006097Y022735D01*
X006097Y022833D02*
X006883Y022833D01*
X006883Y022932D02*
X006097Y022932D01*
X006097Y023030D02*
X006883Y023030D01*
X006883Y023129D02*
X006148Y023129D01*
X006247Y023227D02*
X006883Y023227D01*
X006941Y023326D02*
X006345Y023326D01*
X006009Y022439D02*
X008539Y022439D01*
X008441Y022341D02*
X005910Y022341D01*
X005812Y022242D02*
X007904Y022242D01*
X007820Y022144D02*
X005713Y022144D01*
X005615Y022045D02*
X007820Y022045D01*
X007820Y021947D02*
X005516Y021947D01*
X005418Y021848D02*
X007820Y021848D01*
X007820Y021750D02*
X005319Y021750D01*
X005221Y021651D02*
X007820Y021651D01*
X007820Y021553D02*
X005122Y021553D01*
X005024Y021454D02*
X007820Y021454D01*
X007820Y021356D02*
X004925Y021356D01*
X004827Y021257D02*
X007888Y021257D01*
X008089Y021159D02*
X004728Y021159D01*
X004630Y021060D02*
X008188Y021060D01*
X008286Y020962D02*
X004531Y020962D01*
X004433Y020863D02*
X008385Y020863D01*
X008483Y020765D02*
X004334Y020765D01*
X004236Y020666D02*
X008582Y020666D01*
X008680Y020568D02*
X004137Y020568D01*
X004039Y020469D02*
X008779Y020469D01*
X008877Y020371D02*
X003940Y020371D01*
X003842Y020272D02*
X008976Y020272D01*
X009074Y020174D02*
X003743Y020174D01*
X003645Y020075D02*
X009173Y020075D01*
X009271Y019977D02*
X003546Y019977D01*
X003448Y019878D02*
X009320Y019878D01*
X009320Y019780D02*
X003349Y019780D01*
X003251Y019681D02*
X009320Y019681D01*
X009365Y019583D02*
X003152Y019583D01*
X003054Y019484D02*
X011767Y019484D01*
X011767Y019583D02*
X009968Y019583D01*
X010014Y019681D02*
X011767Y019681D01*
X011767Y019780D02*
X010014Y019780D01*
X010014Y019878D02*
X011767Y019878D01*
X011767Y019977D02*
X010014Y019977D01*
X010024Y020075D02*
X011767Y020075D01*
X011767Y020174D02*
X011672Y020174D01*
X011261Y020174D02*
X010139Y020174D01*
X010253Y020272D02*
X011135Y020272D01*
X009904Y017810D02*
X008514Y017810D01*
X008514Y017819D02*
X008426Y017907D01*
X007908Y017907D01*
X007820Y017819D01*
X007820Y016986D01*
X007908Y016898D01*
X008426Y016898D01*
X008514Y016986D01*
X008514Y017819D01*
X008514Y017711D02*
X017752Y017711D01*
X017851Y017613D02*
X008514Y017613D01*
X008514Y017514D02*
X017949Y017514D01*
X018048Y017416D02*
X008514Y017416D01*
X008514Y017317D02*
X018146Y017317D01*
X018245Y017219D02*
X008514Y017219D01*
X008514Y017120D02*
X018343Y017120D01*
X018442Y017022D02*
X008514Y017022D01*
X008450Y016923D02*
X018540Y016923D01*
X019237Y015446D02*
X019760Y015446D01*
X019604Y015347D02*
X019393Y015347D01*
X019468Y015249D02*
X019530Y015249D01*
X019536Y014855D02*
X019461Y014855D01*
X019378Y014756D02*
X019619Y014756D01*
X019798Y014658D02*
X019199Y014658D01*
X019010Y014658D02*
X012152Y014658D01*
X012307Y014559D02*
X020107Y014559D01*
X020107Y014461D02*
X012381Y014461D01*
X012422Y014362D02*
X020107Y014362D01*
X020107Y014264D02*
X012426Y014264D01*
X012415Y014165D02*
X020107Y014165D01*
X020067Y014067D02*
X012374Y014067D01*
X012291Y013968D02*
X020067Y013968D01*
X020067Y013870D02*
X012111Y013870D01*
X011925Y013870D02*
X011324Y013870D01*
X011503Y013968D02*
X011746Y013968D01*
X011662Y014067D02*
X011587Y014067D01*
X011594Y014461D02*
X011655Y014461D01*
X011729Y014559D02*
X011520Y014559D01*
X011365Y014658D02*
X011884Y014658D01*
X011097Y014658D02*
X010577Y014658D01*
X010733Y014559D02*
X010942Y014559D01*
X010868Y014461D02*
X010806Y014461D01*
X010309Y014658D02*
X009790Y014658D01*
X009945Y014559D02*
X010154Y014559D01*
X010080Y014461D02*
X010019Y014461D01*
X009522Y014658D02*
X009003Y014658D01*
X009158Y014559D02*
X009367Y014559D01*
X009293Y014461D02*
X009232Y014461D01*
X008735Y014658D02*
X008215Y014658D01*
X008370Y014559D02*
X008579Y014559D01*
X008506Y014461D02*
X008444Y014461D01*
X007947Y014658D02*
X007428Y014658D01*
X007583Y014559D02*
X007792Y014559D01*
X007718Y014461D02*
X007657Y014461D01*
X007160Y014658D02*
X006640Y014658D01*
X006796Y014559D02*
X007005Y014559D01*
X006931Y014461D02*
X006869Y014461D01*
X006372Y014658D02*
X005853Y014658D01*
X006008Y014559D02*
X006217Y014559D01*
X006143Y014461D02*
X006082Y014461D01*
X006075Y014067D02*
X006150Y014067D01*
X006234Y013968D02*
X005991Y013968D01*
X006779Y013968D02*
X007022Y013968D01*
X006938Y014067D02*
X006862Y014067D01*
X007566Y013968D02*
X007809Y013968D01*
X007725Y014067D02*
X007650Y014067D01*
X008354Y013968D02*
X008596Y013968D01*
X008513Y014067D02*
X008437Y014067D01*
X009141Y013968D02*
X009384Y013968D01*
X009300Y014067D02*
X009225Y014067D01*
X009928Y013968D02*
X010171Y013968D01*
X010087Y014067D02*
X010012Y014067D01*
X010716Y013968D02*
X010959Y013968D01*
X010875Y014067D02*
X010799Y014067D01*
X013775Y011506D02*
X023207Y011506D01*
X023207Y011604D02*
X013874Y011604D01*
X013972Y011703D02*
X023207Y011703D01*
X023207Y011801D02*
X014071Y011801D01*
X013677Y011407D02*
X023207Y011407D01*
X023207Y011309D02*
X013578Y011309D01*
X013480Y011210D02*
X023207Y011210D01*
X023207Y011112D02*
X013381Y011112D01*
X013283Y011013D02*
X023207Y011013D01*
X023207Y010915D02*
X013184Y010915D01*
X013086Y010816D02*
X023207Y010816D01*
X023207Y010718D02*
X012987Y010718D01*
X012889Y010619D02*
X023207Y010619D01*
X023207Y010521D02*
X012790Y010521D01*
X012692Y010422D02*
X023207Y010422D01*
X023207Y010324D02*
X012593Y010324D01*
X012495Y010225D02*
X023207Y010225D01*
X023207Y010127D02*
X012396Y010127D01*
X012298Y010028D02*
X023207Y010028D01*
X023207Y009930D02*
X012199Y009930D01*
X012101Y009831D02*
X023207Y009831D01*
X023207Y009733D02*
X012002Y009733D01*
X011904Y009634D02*
X023217Y009634D01*
X023315Y009536D02*
X011805Y009536D01*
X011747Y009437D02*
X023414Y009437D01*
X023512Y009339D02*
X011747Y009339D01*
X011747Y009240D02*
X023611Y009240D01*
X023709Y009142D02*
X011747Y009142D01*
X011747Y009043D02*
X011780Y009043D01*
X012057Y009043D02*
X012567Y009043D01*
X012414Y008945D02*
X012209Y008945D01*
X012282Y008846D02*
X012342Y008846D01*
X012350Y008452D02*
X012273Y008452D01*
X012189Y008354D02*
X012435Y008354D01*
X012617Y008255D02*
X012007Y008255D01*
X011830Y008255D02*
X011707Y008255D01*
X011707Y008157D02*
X015564Y008157D01*
X015491Y008058D02*
X011707Y008058D01*
X011707Y007960D02*
X015450Y007960D01*
X015448Y007861D02*
X011707Y007861D01*
X011707Y007763D02*
X015460Y007763D01*
X015500Y007664D02*
X011747Y007664D01*
X011747Y007566D02*
X015585Y007566D01*
X015768Y007467D02*
X011747Y007467D01*
X011747Y007369D02*
X016017Y007369D01*
X016017Y007467D02*
X015942Y007467D01*
X016017Y007270D02*
X011747Y007270D01*
X011747Y007172D02*
X016017Y007172D01*
X016017Y007073D02*
X011699Y007073D01*
X011600Y006975D02*
X015944Y006975D01*
X015845Y006876D02*
X011502Y006876D01*
X011403Y006778D02*
X015747Y006778D01*
X015648Y006679D02*
X011305Y006679D01*
X011206Y006581D02*
X015550Y006581D01*
X015451Y006482D02*
X011163Y006482D01*
X011163Y006384D02*
X015353Y006384D01*
X015233Y006285D02*
X011163Y006285D01*
X011163Y006187D02*
X015092Y006187D01*
X015046Y006088D02*
X011815Y006088D01*
X011810Y006093D02*
X011371Y006093D01*
X011283Y006005D01*
X011283Y005526D01*
X011371Y005439D01*
X011810Y005439D01*
X011898Y005526D01*
X011898Y006005D01*
X011810Y006093D01*
X011898Y005990D02*
X014971Y005990D01*
X014873Y005891D02*
X011898Y005891D01*
X011898Y005793D02*
X014774Y005793D01*
X014676Y005694D02*
X011898Y005694D01*
X011898Y005596D02*
X014577Y005596D01*
X014479Y005497D02*
X011869Y005497D01*
X011442Y005300D02*
X014282Y005300D01*
X014380Y005399D02*
X005497Y005399D01*
X005497Y005497D02*
X007415Y005497D01*
X007385Y005596D02*
X005497Y005596D01*
X005497Y005694D02*
X007385Y005694D01*
X007385Y005793D02*
X005497Y005793D01*
X005497Y005891D02*
X007385Y005891D01*
X007385Y005990D02*
X005497Y005990D01*
X005497Y006088D02*
X007433Y006088D01*
X007433Y006187D02*
X005497Y006187D01*
X005497Y006285D02*
X007433Y006285D01*
X007433Y006384D02*
X005497Y006384D01*
X005497Y006482D02*
X007433Y006482D01*
X007433Y006581D02*
X005497Y006581D01*
X005497Y006679D02*
X007435Y006679D01*
X007435Y006778D02*
X005497Y006778D01*
X005497Y006876D02*
X007499Y006876D01*
X007800Y006975D02*
X005497Y006975D01*
X005497Y007073D02*
X007898Y007073D01*
X007997Y007172D02*
X005497Y007172D01*
X005494Y007270D02*
X008095Y007270D01*
X008137Y007369D02*
X005395Y007369D01*
X005297Y007467D02*
X008137Y007467D01*
X008137Y007566D02*
X005198Y007566D01*
X005100Y007664D02*
X008137Y007664D01*
X008177Y007763D02*
X005001Y007763D01*
X004903Y007861D02*
X008177Y007861D01*
X008177Y007960D02*
X004804Y007960D01*
X004706Y008058D02*
X008177Y008058D01*
X008177Y008157D02*
X004607Y008157D01*
X004509Y008255D02*
X005530Y008255D01*
X005708Y008255D02*
X006318Y008255D01*
X006495Y008255D02*
X007105Y008255D01*
X007282Y008255D02*
X007893Y008255D01*
X008070Y008255D02*
X008177Y008255D01*
X008557Y008255D02*
X008680Y008255D01*
X008557Y008157D02*
X011327Y008157D01*
X011327Y008255D02*
X011219Y008255D01*
X011042Y008255D02*
X010432Y008255D01*
X010255Y008255D02*
X009645Y008255D01*
X009468Y008255D02*
X008857Y008255D01*
X009039Y008354D02*
X009286Y008354D01*
X009201Y008452D02*
X009124Y008452D01*
X009826Y008354D02*
X010073Y008354D01*
X009988Y008452D02*
X009911Y008452D01*
X010614Y008354D02*
X010860Y008354D01*
X010776Y008452D02*
X010699Y008452D01*
X011327Y008058D02*
X008557Y008058D01*
X008557Y007960D02*
X011327Y007960D01*
X011327Y007861D02*
X008557Y007861D01*
X008557Y007763D02*
X011327Y007763D01*
X011287Y007664D02*
X008597Y007664D01*
X008597Y007566D02*
X011287Y007566D01*
X011287Y007467D02*
X008597Y007467D01*
X008597Y007369D02*
X011287Y007369D01*
X011245Y007270D02*
X008597Y007270D01*
X008597Y007172D02*
X011147Y007172D01*
X011048Y007073D02*
X008549Y007073D01*
X008450Y006975D02*
X010950Y006975D01*
X010649Y006876D02*
X008352Y006876D01*
X008253Y006778D02*
X010585Y006778D01*
X010585Y006679D02*
X008155Y006679D01*
X008056Y006581D02*
X010583Y006581D01*
X010583Y006482D02*
X008013Y006482D01*
X008013Y006384D02*
X010583Y006384D01*
X010583Y006285D02*
X008013Y006285D01*
X008013Y006187D02*
X010583Y006187D01*
X010583Y006088D02*
X008665Y006088D01*
X008660Y006093D02*
X008221Y006093D01*
X008133Y006005D01*
X008133Y005526D01*
X008221Y005439D01*
X008660Y005439D01*
X008748Y005526D01*
X008748Y006005D01*
X008660Y006093D01*
X008748Y005990D02*
X010535Y005990D01*
X010535Y005891D02*
X008748Y005891D01*
X008748Y005793D02*
X010535Y005793D01*
X010535Y005694D02*
X008748Y005694D01*
X008748Y005596D02*
X010535Y005596D01*
X010565Y005497D02*
X008719Y005497D01*
X008292Y005300D02*
X010992Y005300D01*
X011121Y005497D02*
X011313Y005497D01*
X011283Y005596D02*
X011150Y005596D01*
X011150Y005694D02*
X011283Y005694D01*
X011283Y005793D02*
X011163Y005793D01*
X011163Y005891D02*
X011283Y005891D01*
X011283Y005990D02*
X011163Y005990D01*
X011163Y006088D02*
X011366Y006088D01*
X012794Y008255D02*
X013405Y008255D01*
X013582Y008255D02*
X014192Y008255D01*
X014369Y008255D02*
X015715Y008255D01*
X015585Y008354D02*
X014551Y008354D01*
X014636Y008452D02*
X015500Y008452D01*
X015459Y008551D02*
X014676Y008551D01*
X014688Y008649D02*
X015448Y008649D01*
X015451Y008748D02*
X014685Y008748D01*
X014644Y008846D02*
X015491Y008846D01*
X015564Y008945D02*
X014572Y008945D01*
X014419Y009043D02*
X015717Y009043D01*
X015994Y009043D02*
X017291Y009043D01*
X017139Y008945D02*
X016146Y008945D01*
X016219Y008846D02*
X017066Y008846D01*
X017025Y008748D02*
X016260Y008748D01*
X016263Y008649D02*
X017023Y008649D01*
X017034Y008551D02*
X016289Y008551D01*
X016388Y008452D02*
X017075Y008452D01*
X017160Y008354D02*
X016477Y008354D01*
X016477Y008255D02*
X016503Y008255D01*
X016783Y008255D02*
X017342Y008255D01*
X017587Y008157D02*
X016934Y008157D01*
X017007Y008058D02*
X017587Y008058D01*
X017627Y007960D02*
X017047Y007960D01*
X017050Y007861D02*
X017627Y007861D01*
X017627Y007763D02*
X017038Y007763D01*
X016998Y007664D02*
X017587Y007664D01*
X017794Y008846D02*
X017854Y008846D01*
X017926Y008945D02*
X017721Y008945D01*
X017569Y009043D02*
X018079Y009043D01*
X018356Y009043D02*
X019654Y009043D01*
X019501Y008945D02*
X018509Y008945D01*
X018581Y008846D02*
X019429Y008846D01*
X019388Y008748D02*
X018622Y008748D01*
X018625Y008649D02*
X019385Y008649D01*
X019396Y008551D02*
X018652Y008551D01*
X018625Y008578D02*
X018625Y008578D01*
X018750Y008452D02*
X019437Y008452D01*
X019522Y008354D02*
X018847Y008354D01*
X018847Y008255D02*
X018865Y008255D01*
X019145Y008255D02*
X019704Y008255D01*
X019962Y008157D02*
X019297Y008157D01*
X019369Y008058D02*
X019962Y008058D01*
X020002Y007960D02*
X019410Y007960D01*
X019412Y007861D02*
X020002Y007861D01*
X020002Y007763D02*
X019401Y007763D01*
X019360Y007664D02*
X019962Y007664D01*
X020720Y008255D02*
X021227Y008255D01*
X021075Y008157D02*
X020871Y008157D01*
X020944Y008058D02*
X021003Y008058D01*
X020850Y008354D02*
X021884Y008354D01*
X021799Y008452D02*
X020935Y008452D01*
X020976Y008551D02*
X021759Y008551D01*
X021747Y008649D02*
X020987Y008649D01*
X020984Y008748D02*
X021750Y008748D01*
X021791Y008846D02*
X020943Y008846D01*
X020871Y008945D02*
X021863Y008945D01*
X022016Y009043D02*
X020718Y009043D01*
X020441Y009043D02*
X019931Y009043D01*
X020083Y008945D02*
X020289Y008945D01*
X020216Y008846D02*
X020156Y008846D01*
X021507Y008255D02*
X022066Y008255D01*
X022243Y008255D02*
X022802Y008255D01*
X022671Y008354D02*
X022425Y008354D01*
X022510Y008452D02*
X022587Y008452D01*
X022650Y008157D02*
X021659Y008157D01*
X021731Y008058D02*
X022578Y008058D01*
X022537Y007960D02*
X021772Y007960D01*
X021775Y007861D02*
X022534Y007861D01*
X022546Y007763D02*
X021802Y007763D01*
X021900Y007664D02*
X022587Y007664D01*
X023234Y008157D02*
X023438Y008157D01*
X023365Y008058D02*
X023306Y008058D01*
X023082Y008255D02*
X023589Y008255D01*
X023869Y008255D02*
X024428Y008255D01*
X024605Y008255D02*
X030887Y008255D01*
X030887Y008157D02*
X024021Y008157D01*
X024093Y008058D02*
X030887Y008058D01*
X030887Y007960D02*
X024134Y007960D01*
X024137Y007861D02*
X030887Y007861D01*
X030887Y007763D02*
X024164Y007763D01*
X024263Y007664D02*
X030887Y007664D01*
X030887Y007566D02*
X024361Y007566D01*
X024460Y007467D02*
X030887Y007467D01*
X030887Y007369D02*
X024558Y007369D01*
X024657Y007270D02*
X030887Y007270D01*
X030887Y007172D02*
X024755Y007172D01*
X024854Y007073D02*
X030887Y007073D01*
X030887Y006975D02*
X024952Y006975D01*
X025051Y006876D02*
X030887Y006876D01*
X030887Y006778D02*
X025149Y006778D01*
X025248Y006679D02*
X030887Y006679D01*
X030887Y006581D02*
X025346Y006581D01*
X025445Y006482D02*
X030887Y006482D01*
X030930Y006384D02*
X025543Y006384D01*
X025642Y006285D02*
X031028Y006285D01*
X031127Y006187D02*
X025740Y006187D01*
X025839Y006088D02*
X031225Y006088D01*
X031324Y005990D02*
X028987Y005990D01*
X029043Y005966D02*
X028896Y006027D01*
X028737Y006027D01*
X028590Y005966D01*
X028478Y005854D01*
X028417Y005707D01*
X028417Y005547D01*
X028478Y005400D01*
X028590Y005288D01*
X028737Y005227D01*
X028896Y005227D01*
X029043Y005288D01*
X029156Y005400D01*
X029217Y005547D01*
X029217Y005707D01*
X029156Y005854D01*
X029043Y005966D01*
X029118Y005891D02*
X031422Y005891D01*
X031521Y005793D02*
X029181Y005793D01*
X029217Y005694D02*
X031619Y005694D01*
X031718Y005596D02*
X029217Y005596D01*
X029196Y005497D02*
X035620Y005497D01*
X035680Y005399D02*
X029154Y005399D01*
X029055Y005300D02*
X039787Y005300D01*
X039787Y005202D02*
X027400Y005202D01*
X027498Y005103D02*
X039787Y005103D01*
X039787Y005005D02*
X027597Y005005D01*
X027695Y004906D02*
X039787Y004906D01*
X039787Y004808D02*
X027794Y004808D01*
X027892Y004709D02*
X039787Y004709D01*
X039787Y004611D02*
X027991Y004611D01*
X028089Y004512D02*
X039787Y004512D01*
X039787Y004414D02*
X028188Y004414D01*
X028286Y004315D02*
X039787Y004315D01*
X039787Y004217D02*
X028385Y004217D01*
X028483Y004118D02*
X039787Y004118D01*
X039787Y004020D02*
X028582Y004020D01*
X028680Y003921D02*
X039787Y003921D01*
X039787Y003823D02*
X028779Y003823D01*
X028877Y003724D02*
X039787Y003724D01*
X039787Y003626D02*
X028976Y003626D01*
X029074Y003527D02*
X039787Y003527D01*
X039787Y003429D02*
X029173Y003429D01*
X029271Y003330D02*
X039787Y003330D01*
X039787Y003232D02*
X029370Y003232D01*
X029468Y003133D02*
X039787Y003133D01*
X039787Y003035D02*
X029567Y003035D01*
X029665Y002936D02*
X039787Y002936D01*
X039787Y002838D02*
X029764Y002838D01*
X029862Y002739D02*
X039787Y002739D01*
X039787Y002641D02*
X029961Y002641D01*
X030059Y002542D02*
X039787Y002542D01*
X039787Y002444D02*
X030158Y002444D01*
X030256Y002345D02*
X039787Y002345D01*
X039787Y002247D02*
X030355Y002247D01*
X030453Y002148D02*
X039787Y002148D01*
X039787Y002050D02*
X030552Y002050D01*
X030650Y001951D02*
X039787Y001951D01*
X039787Y001853D02*
X030749Y001853D01*
X030963Y001754D02*
X032320Y001754D01*
X032170Y001656D02*
X031113Y001656D01*
X031175Y001557D02*
X032108Y001557D01*
X032080Y001459D02*
X031202Y001459D01*
X031202Y001360D02*
X032080Y001360D01*
X032118Y001262D02*
X031165Y001262D01*
X032538Y001754D02*
X033107Y001754D01*
X032957Y001656D02*
X032688Y001656D01*
X032750Y001557D02*
X032895Y001557D01*
X032868Y001459D02*
X032777Y001459D01*
X032777Y001360D02*
X032868Y001360D01*
X032906Y001262D02*
X032740Y001262D01*
X033325Y001754D02*
X039787Y001754D01*
X039725Y001656D02*
X033476Y001656D01*
X033537Y001557D02*
X039626Y001557D01*
X039528Y001459D02*
X033565Y001459D01*
X033565Y001360D02*
X039429Y001360D01*
X039331Y001262D02*
X033527Y001262D01*
X036253Y005399D02*
X039787Y005399D01*
X039787Y005497D02*
X036314Y005497D01*
X036314Y005596D02*
X039787Y005596D01*
X039787Y005694D02*
X036314Y005694D01*
X036314Y005793D02*
X039787Y005793D01*
X039787Y005891D02*
X036314Y005891D01*
X036314Y005990D02*
X039787Y005990D01*
X039787Y006088D02*
X036242Y006088D01*
X035607Y006285D02*
X039348Y006285D01*
X039292Y006384D02*
X035605Y006384D01*
X035564Y006482D02*
X039268Y006482D01*
X039269Y006581D02*
X035450Y006581D01*
X035574Y006187D02*
X039486Y006187D01*
X039748Y006187D02*
X039787Y006187D01*
X039310Y006679D02*
X033997Y006679D01*
X033997Y006778D02*
X039392Y006778D01*
X039484Y006975D02*
X033997Y006975D01*
X033997Y007073D02*
X039348Y007073D01*
X039291Y007172D02*
X033997Y007172D01*
X033997Y007270D02*
X039268Y007270D01*
X039269Y007369D02*
X033997Y007369D01*
X033997Y007467D02*
X039310Y007467D01*
X039393Y007566D02*
X033997Y007566D01*
X033997Y007664D02*
X039787Y007664D01*
X039787Y007763D02*
X039751Y007763D01*
X039483Y007763D02*
X033997Y007763D01*
X033997Y007861D02*
X039347Y007861D01*
X039291Y007960D02*
X033997Y007960D01*
X033997Y008058D02*
X039268Y008058D01*
X039269Y008157D02*
X033997Y008157D01*
X033997Y008255D02*
X039310Y008255D01*
X039393Y008354D02*
X033997Y008354D01*
X033997Y008452D02*
X035626Y008452D01*
X036307Y008452D02*
X039787Y008452D01*
X039787Y008551D02*
X039752Y008551D01*
X039481Y008551D02*
X036314Y008551D01*
X036314Y008649D02*
X039347Y008649D01*
X039291Y008748D02*
X036314Y008748D01*
X036314Y008846D02*
X039268Y008846D01*
X039270Y008945D02*
X036314Y008945D01*
X036287Y009043D02*
X039311Y009043D01*
X039394Y009142D02*
X035546Y009142D01*
X035597Y009240D02*
X039787Y009240D01*
X039787Y009339D02*
X035607Y009339D01*
X035583Y009437D02*
X039787Y009437D01*
X039787Y009536D02*
X035513Y009536D01*
X034388Y008551D02*
X033997Y008551D01*
X033997Y009634D02*
X039787Y009634D01*
X039787Y009733D02*
X033997Y009733D01*
X033997Y009831D02*
X039787Y009831D01*
X039787Y009930D02*
X033997Y009930D01*
X033997Y010028D02*
X039787Y010028D01*
X039787Y010127D02*
X033997Y010127D01*
X033997Y010225D02*
X039787Y010225D01*
X039787Y010324D02*
X033997Y010324D01*
X033997Y010422D02*
X039787Y010422D01*
X039787Y010521D02*
X033997Y010521D01*
X033997Y010619D02*
X039787Y010619D01*
X039787Y010718D02*
X033997Y010718D01*
X033997Y010816D02*
X039787Y010816D01*
X039787Y010915D02*
X033997Y010915D01*
X033997Y011013D02*
X039787Y011013D01*
X039787Y011112D02*
X033997Y011112D01*
X033997Y011210D02*
X039787Y011210D01*
X039787Y011309D02*
X033997Y011309D01*
X033997Y011407D02*
X035671Y011407D01*
X035620Y011506D02*
X033997Y011506D01*
X033997Y012688D02*
X039787Y012688D01*
X039787Y012786D02*
X033997Y012786D01*
X033997Y012885D02*
X039787Y012885D01*
X039780Y012983D02*
X033997Y012983D01*
X033997Y013082D02*
X039682Y013082D01*
X039583Y013180D02*
X033997Y013180D01*
X033997Y013279D02*
X039485Y013279D01*
X039386Y013377D02*
X033997Y013377D01*
X033997Y013476D02*
X039288Y013476D01*
X039189Y013574D02*
X033997Y013574D01*
X033997Y013673D02*
X039091Y013673D01*
X038992Y013771D02*
X033997Y013771D01*
X033997Y013870D02*
X038894Y013870D01*
X038887Y013968D02*
X033997Y013968D01*
X033997Y014067D02*
X038887Y014067D01*
X038887Y014165D02*
X033997Y014165D01*
X033997Y014264D02*
X038887Y014264D01*
X038887Y014362D02*
X033997Y014362D01*
X033997Y014461D02*
X035620Y014461D01*
X035555Y015150D02*
X038887Y015150D01*
X038887Y015052D02*
X036278Y015052D01*
X036314Y014953D02*
X038887Y014953D01*
X038887Y014855D02*
X036314Y014855D01*
X036314Y014756D02*
X038887Y014756D01*
X038887Y014658D02*
X036314Y014658D01*
X036314Y014559D02*
X038887Y014559D01*
X038887Y014461D02*
X036314Y014461D01*
X035600Y015249D02*
X038887Y015249D01*
X038887Y015347D02*
X035607Y015347D01*
X035579Y015446D02*
X038952Y015446D01*
X039051Y015544D02*
X035505Y015544D01*
X033997Y015643D02*
X039149Y015643D01*
X039248Y015741D02*
X033997Y015741D01*
X033997Y015840D02*
X039268Y015840D01*
X039303Y015938D02*
X033997Y015938D01*
X033997Y016037D02*
X039376Y016037D01*
X039356Y016224D02*
X039268Y016311D01*
X039268Y016833D01*
X039356Y016920D01*
X039877Y016920D01*
X039965Y016833D01*
X039965Y016311D01*
X039877Y016224D01*
X039356Y016224D01*
X039346Y016234D02*
X033997Y016234D01*
X033997Y016135D02*
X040217Y016135D01*
X040217Y016037D02*
X039857Y016037D01*
X039930Y015938D02*
X040217Y015938D01*
X040217Y015840D02*
X039965Y015840D01*
X039965Y015741D02*
X040217Y015741D01*
X040217Y015643D02*
X039935Y015643D01*
X039869Y015544D02*
X040217Y015544D01*
X040217Y015446D02*
X039709Y015446D01*
X039504Y015347D02*
X040217Y015347D01*
X040217Y015249D02*
X039858Y015249D01*
X039930Y015150D02*
X040217Y015150D01*
X040217Y015052D02*
X039965Y015052D01*
X039986Y014953D02*
X040217Y014953D01*
X040217Y014855D02*
X040085Y014855D01*
X040183Y014756D02*
X040217Y014756D01*
X040217Y016234D02*
X039887Y016234D01*
X039965Y016332D02*
X040217Y016332D01*
X040217Y016431D02*
X039965Y016431D01*
X039965Y016529D02*
X040217Y016529D01*
X040217Y016628D02*
X039965Y016628D01*
X039965Y016726D02*
X040217Y016726D01*
X040217Y016825D02*
X039965Y016825D01*
X040217Y016923D02*
X033499Y016923D01*
X033499Y016825D02*
X039268Y016825D01*
X039268Y016726D02*
X033588Y016726D01*
X033686Y016628D02*
X039268Y016628D01*
X039268Y016529D02*
X033785Y016529D01*
X033883Y016431D02*
X039268Y016431D01*
X039268Y016332D02*
X033982Y016332D01*
X034187Y017219D02*
X033538Y017219D01*
X033547Y017317D02*
X034140Y017317D01*
X034140Y017416D02*
X033547Y017416D01*
X033547Y017514D02*
X034140Y017514D01*
X034140Y017613D02*
X033547Y017613D01*
X032795Y018007D02*
X028528Y018007D01*
X028430Y018105D02*
X032696Y018105D01*
X032696Y018204D02*
X028331Y018204D01*
X028233Y018302D02*
X032696Y018302D01*
X032696Y018401D02*
X028134Y018401D01*
X028036Y018499D02*
X032696Y018499D01*
X032707Y018598D02*
X027937Y018598D01*
X027839Y018696D02*
X031789Y018696D01*
X031690Y018795D02*
X027740Y018795D01*
X027642Y018893D02*
X031673Y018893D01*
X031673Y018992D02*
X027244Y018992D01*
X027089Y018992D02*
X024693Y018992D01*
X024595Y019090D02*
X031597Y019090D01*
X031498Y019189D02*
X024496Y019189D01*
X024398Y019287D02*
X027429Y019287D01*
X027303Y019386D02*
X024299Y019386D01*
X024201Y019484D02*
X027255Y019484D01*
X027242Y019583D02*
X024102Y019583D01*
X024004Y019681D02*
X027256Y019681D01*
X027305Y019780D02*
X023905Y019780D01*
X023807Y019878D02*
X027432Y019878D01*
X027701Y019878D02*
X027884Y019878D01*
X027776Y019977D02*
X023708Y019977D01*
X023610Y020075D02*
X027678Y020075D01*
X027579Y020174D02*
X023511Y020174D01*
X023413Y020272D02*
X027466Y020272D01*
X027318Y020371D02*
X023314Y020371D01*
X023228Y020469D02*
X027262Y020469D01*
X027242Y020568D02*
X023181Y020568D01*
X023056Y020666D02*
X027250Y020666D01*
X027291Y020765D02*
X021817Y020765D01*
X021817Y020863D02*
X027396Y020863D01*
X027737Y020863D02*
X027880Y020863D01*
X027843Y020765D02*
X027978Y020765D01*
X027884Y020666D02*
X031673Y020666D01*
X031673Y020765D02*
X029150Y020765D01*
X029307Y020863D02*
X031704Y020863D01*
X031610Y020568D02*
X027977Y020568D01*
X028076Y020469D02*
X031512Y020469D01*
X031820Y021159D02*
X029512Y021159D01*
X029392Y021060D02*
X032741Y021060D01*
X032696Y021159D02*
X032213Y021159D01*
X032300Y021257D02*
X032696Y021257D01*
X032696Y021356D02*
X032341Y021356D01*
X032342Y021454D02*
X032696Y021454D01*
X032696Y021553D02*
X032314Y021553D01*
X032297Y021651D02*
X032761Y021651D01*
X032798Y021750D02*
X032804Y021750D01*
X032797Y022439D02*
X032753Y022439D01*
X032764Y022538D02*
X030928Y022538D01*
X031027Y022636D02*
X032696Y022636D01*
X032696Y022735D02*
X031125Y022735D01*
X031224Y022833D02*
X032696Y022833D01*
X032696Y022932D02*
X031322Y022932D01*
X031421Y023030D02*
X032696Y023030D01*
X032738Y023129D02*
X031519Y023129D01*
X031780Y022439D02*
X030830Y022439D01*
X030731Y022341D02*
X031682Y022341D01*
X031673Y022242D02*
X030633Y022242D01*
X030534Y022144D02*
X031673Y022144D01*
X031673Y022045D02*
X030436Y022045D01*
X030337Y021947D02*
X031673Y021947D01*
X031673Y021848D02*
X030239Y021848D01*
X030140Y021750D02*
X031735Y021750D01*
X031737Y021651D02*
X030042Y021651D01*
X029943Y021553D02*
X031719Y021553D01*
X031692Y021454D02*
X029845Y021454D01*
X029746Y021356D02*
X031692Y021356D01*
X031733Y021257D02*
X029648Y021257D01*
X029369Y020962D02*
X033187Y020962D01*
X032292Y022439D02*
X032242Y022439D01*
X035396Y022242D02*
X035483Y022242D01*
X035483Y022144D02*
X035450Y022144D01*
X035450Y022045D02*
X035520Y022045D01*
X035450Y021947D02*
X035867Y021947D01*
X035867Y021848D02*
X035450Y021848D01*
X035450Y021750D02*
X035867Y021750D01*
X035867Y021651D02*
X035394Y021651D01*
X032806Y018696D02*
X032744Y018696D01*
X032301Y018696D02*
X032233Y018696D01*
X031400Y019287D02*
X027704Y019287D01*
X026928Y018893D02*
X024792Y018893D01*
X024890Y018795D02*
X026866Y018795D01*
X026842Y018696D02*
X024989Y018696D01*
X025087Y018598D02*
X026846Y018598D01*
X026887Y018499D02*
X025186Y018499D01*
X025284Y018401D02*
X026979Y018401D01*
X027265Y018204D02*
X026495Y018204D01*
X026563Y018105D02*
X027242Y018105D01*
X027246Y018007D02*
X026592Y018007D01*
X026592Y017908D02*
X027287Y017908D01*
X027327Y018302D02*
X025383Y018302D01*
X022605Y020469D02*
X021817Y020469D01*
X021817Y020568D02*
X022653Y020568D01*
X022777Y020666D02*
X021817Y020666D01*
X021817Y020962D02*
X027781Y020962D01*
X027683Y021060D02*
X021817Y021060D01*
X028627Y017908D02*
X031749Y017908D01*
X026892Y014953D02*
X025048Y014953D01*
X025024Y014978D02*
X025024Y014978D01*
X025024Y015052D02*
X025466Y015052D01*
X025440Y015150D02*
X025020Y015150D01*
X024979Y015249D02*
X025440Y015249D01*
X025440Y015347D02*
X024905Y015347D01*
X024749Y015446D02*
X025440Y015446D01*
X025147Y014855D02*
X026794Y014855D01*
X026695Y014756D02*
X025245Y014756D01*
X025344Y014658D02*
X026597Y014658D01*
X026277Y014559D02*
X025442Y014559D01*
X025541Y014461D02*
X026233Y014461D01*
X026233Y014362D02*
X025639Y014362D01*
X025738Y014264D02*
X026233Y014264D01*
X026233Y014165D02*
X026077Y014165D01*
X026100Y014067D02*
X026243Y014067D01*
X026100Y013968D02*
X026478Y013968D01*
X026577Y013870D02*
X026100Y013870D01*
X026100Y013771D02*
X026237Y013771D01*
X026233Y013673D02*
X026070Y013673D01*
X026233Y013574D02*
X024601Y013574D01*
X024601Y013476D02*
X026233Y013476D01*
X026233Y013377D02*
X026002Y013377D01*
X026074Y013279D02*
X026283Y013279D01*
X026074Y013180D02*
X028643Y013180D01*
X028545Y013279D02*
X026838Y013279D01*
X026074Y013082D02*
X030975Y013082D01*
X030839Y012983D02*
X026074Y012983D01*
X026074Y012885D02*
X030795Y012885D01*
X030792Y012786D02*
X026034Y012786D01*
X025921Y012606D02*
X025833Y012518D01*
X025833Y012039D01*
X025921Y011951D01*
X026058Y011951D01*
X026083Y011926D01*
X026083Y011427D01*
X026061Y011449D01*
X025661Y011449D01*
X025624Y011412D01*
X025567Y011412D01*
X025550Y011430D01*
X025071Y011430D01*
X024983Y011342D01*
X024983Y010902D01*
X025071Y010815D01*
X025550Y010815D01*
X025567Y010832D01*
X025624Y010832D01*
X025661Y010795D01*
X026061Y010795D01*
X026117Y010851D01*
X026173Y010795D01*
X026572Y010795D01*
X026660Y010883D01*
X026660Y011059D01*
X026663Y011064D01*
X026663Y012104D01*
X026618Y012211D01*
X026448Y012381D01*
X026448Y012518D01*
X026360Y012606D01*
X025921Y012606D01*
X025905Y012589D02*
X025629Y012589D01*
X025612Y012606D02*
X025173Y012606D01*
X025130Y012562D01*
X023909Y012562D01*
X023802Y012518D01*
X023721Y012436D01*
X023677Y012330D01*
X023677Y012214D01*
X023721Y012108D01*
X023802Y012026D01*
X023909Y011982D01*
X025142Y011982D01*
X025173Y011951D01*
X025612Y011951D01*
X025700Y012039D01*
X025700Y012518D01*
X025612Y012606D01*
X025700Y012491D02*
X025833Y012491D01*
X025833Y012392D02*
X025700Y012392D01*
X025700Y012294D02*
X025833Y012294D01*
X025833Y012195D02*
X025700Y012195D01*
X025700Y012097D02*
X025833Y012097D01*
X025874Y011998D02*
X025659Y011998D01*
X026083Y011900D02*
X024149Y011900D01*
X024227Y011801D02*
X026083Y011801D01*
X026083Y011703D02*
X024257Y011703D01*
X024257Y011604D02*
X026083Y011604D01*
X026083Y011506D02*
X024266Y011506D01*
X024294Y011407D02*
X025049Y011407D01*
X024983Y011309D02*
X024294Y011309D01*
X024294Y011210D02*
X024983Y011210D01*
X024983Y011112D02*
X024294Y011112D01*
X024805Y011013D02*
X024983Y011013D01*
X024983Y010915D02*
X024850Y010915D01*
X024850Y010816D02*
X025070Y010816D01*
X024850Y010718D02*
X030887Y010718D01*
X030887Y010816D02*
X026594Y010816D01*
X026660Y010915D02*
X030887Y010915D01*
X030887Y011013D02*
X026660Y011013D01*
X026663Y011112D02*
X030887Y011112D01*
X030887Y011210D02*
X026663Y011210D01*
X026663Y011309D02*
X030887Y011309D01*
X030887Y011407D02*
X026663Y011407D01*
X026663Y011506D02*
X030887Y011506D01*
X030887Y011604D02*
X026663Y011604D01*
X026663Y011703D02*
X030887Y011703D01*
X030887Y011801D02*
X026663Y011801D01*
X026663Y011900D02*
X030887Y011900D01*
X030887Y011998D02*
X026663Y011998D01*
X026663Y012097D02*
X030850Y012097D01*
X030842Y012195D02*
X026625Y012195D01*
X026536Y012294D02*
X030869Y012294D01*
X030948Y012392D02*
X026448Y012392D01*
X026448Y012491D02*
X031073Y012491D01*
X030911Y012589D02*
X026377Y012589D01*
X025531Y013377D02*
X024601Y013377D01*
X024601Y013279D02*
X024769Y013279D01*
X024601Y013673D02*
X025476Y013673D01*
X025446Y013771D02*
X024601Y013771D01*
X024941Y013870D02*
X025446Y013870D01*
X025383Y013968D02*
X025024Y013968D01*
X025024Y014067D02*
X025284Y014067D01*
X025186Y014165D02*
X025024Y014165D01*
X025024Y014264D02*
X025087Y014264D01*
X024021Y013870D02*
X023922Y013870D01*
X024021Y013771D02*
X023667Y013771D01*
X023667Y013673D02*
X024021Y013673D01*
X024021Y013574D02*
X023667Y013574D01*
X023667Y013476D02*
X024021Y013476D01*
X024021Y013377D02*
X023667Y013377D01*
X023667Y013279D02*
X024021Y013279D01*
X024021Y013180D02*
X023667Y013180D01*
X023667Y013082D02*
X024021Y013082D01*
X024021Y012983D02*
X023667Y012983D01*
X023667Y012885D02*
X024021Y012885D01*
X024023Y012786D02*
X023667Y012786D01*
X023667Y012688D02*
X024023Y012688D01*
X023775Y012491D02*
X023667Y012491D01*
X023667Y012589D02*
X025157Y012589D01*
X025110Y012688D02*
X030825Y012688D01*
X030887Y010619D02*
X024850Y010619D01*
X024842Y010521D02*
X030887Y010521D01*
X030887Y010422D02*
X023667Y010422D01*
X023667Y010324D02*
X030887Y010324D01*
X030887Y010225D02*
X023667Y010225D01*
X023667Y010127D02*
X030887Y010127D01*
X030887Y010028D02*
X023667Y010028D01*
X023667Y009930D02*
X030887Y009930D01*
X030887Y009831D02*
X023670Y009831D01*
X023769Y009733D02*
X030887Y009733D01*
X030887Y009634D02*
X023867Y009634D01*
X023966Y009536D02*
X030887Y009536D01*
X030887Y009437D02*
X024064Y009437D01*
X024163Y009339D02*
X030887Y009339D01*
X030887Y009240D02*
X024261Y009240D01*
X024360Y009142D02*
X030887Y009142D01*
X030887Y009043D02*
X024655Y009043D01*
X024808Y008945D02*
X030887Y008945D01*
X030887Y008846D02*
X024880Y008846D01*
X024921Y008748D02*
X030887Y008748D01*
X030887Y008649D02*
X024924Y008649D01*
X024913Y008551D02*
X030887Y008551D01*
X030887Y008452D02*
X024872Y008452D01*
X024787Y008354D02*
X030887Y008354D01*
X028647Y005990D02*
X025937Y005990D01*
X026036Y005891D02*
X028515Y005891D01*
X028452Y005793D02*
X026134Y005793D01*
X026233Y005694D02*
X028417Y005694D01*
X028417Y005596D02*
X026331Y005596D01*
X026430Y005497D02*
X028438Y005497D01*
X028479Y005399D02*
X026528Y005399D01*
X026627Y005300D02*
X028578Y005300D01*
X024246Y008354D02*
X023212Y008354D01*
X023297Y008452D02*
X024162Y008452D01*
X024121Y008551D02*
X023338Y008551D01*
X023349Y008649D02*
X024109Y008649D01*
X024103Y008748D02*
X023346Y008748D01*
X023306Y008846D02*
X024005Y008846D01*
X023906Y008945D02*
X023233Y008945D01*
X023081Y009043D02*
X023808Y009043D01*
X022803Y009043D02*
X022293Y009043D01*
X022446Y008945D02*
X022651Y008945D01*
X022578Y008846D02*
X022518Y008846D01*
X023667Y010521D02*
X023685Y010521D01*
X023667Y011506D02*
X023667Y011506D01*
X023667Y011604D02*
X023677Y011604D01*
X023667Y011703D02*
X023677Y011703D01*
X023667Y011801D02*
X023706Y011801D01*
X023667Y011900D02*
X023784Y011900D01*
X023870Y011998D02*
X023667Y011998D01*
X023667Y012097D02*
X023732Y012097D01*
X023685Y012195D02*
X023667Y012195D01*
X023667Y012294D02*
X023677Y012294D01*
X023667Y012392D02*
X023702Y012392D01*
X023207Y012392D02*
X021612Y012392D01*
X021513Y012294D02*
X023207Y012294D01*
X023207Y012195D02*
X021415Y012195D01*
X021316Y012097D02*
X023207Y012097D01*
X023207Y011998D02*
X021218Y011998D01*
X021119Y011900D02*
X023207Y011900D01*
X023207Y012491D02*
X021710Y012491D01*
X021809Y012589D02*
X023207Y012589D01*
X023207Y012688D02*
X021907Y012688D01*
X022006Y012786D02*
X023207Y012786D01*
X023207Y012885D02*
X022104Y012885D01*
X022203Y012983D02*
X023207Y012983D01*
X023207Y013082D02*
X022301Y013082D01*
X022400Y013180D02*
X023207Y013180D01*
X023207Y013279D02*
X022498Y013279D01*
X022597Y013377D02*
X023207Y013377D01*
X023207Y013476D02*
X022695Y013476D01*
X022794Y013574D02*
X023207Y013574D01*
X023207Y013673D02*
X022877Y013673D01*
X022877Y013771D02*
X023207Y013771D01*
X023207Y013870D02*
X023135Y013870D01*
X022949Y013870D02*
X022877Y013870D01*
X023667Y013870D02*
X023736Y013870D01*
X021677Y014165D02*
X020487Y014165D01*
X020487Y014264D02*
X021677Y014264D01*
X021677Y014362D02*
X020487Y014362D01*
X020487Y014461D02*
X021677Y014461D01*
X021677Y014559D02*
X020487Y014559D01*
X020487Y014658D02*
X020585Y014658D01*
X020774Y014658D02*
X021372Y014658D01*
X021562Y014658D02*
X021677Y014658D01*
X021194Y014756D02*
X020953Y014756D01*
X021036Y014855D02*
X021111Y014855D01*
X021637Y014067D02*
X020527Y014067D01*
X020527Y013968D02*
X021637Y013968D01*
X021637Y013870D02*
X020527Y013870D01*
X020527Y013771D02*
X021540Y013771D01*
X021442Y013673D02*
X020527Y013673D01*
X020527Y013574D02*
X021343Y013574D01*
X021245Y013476D02*
X020527Y013476D01*
X020527Y013377D02*
X021146Y013377D01*
X021048Y013279D02*
X020538Y013279D01*
X020572Y013180D02*
X020949Y013180D01*
X020851Y013082D02*
X020569Y013082D01*
X020527Y012983D02*
X020752Y012983D01*
X020654Y012885D02*
X020394Y012885D01*
X020555Y012786D02*
X000717Y012786D01*
X000717Y012885D02*
X020200Y012885D01*
X020067Y012983D02*
X000717Y012983D01*
X000717Y013082D02*
X020024Y013082D01*
X020022Y013180D02*
X000717Y013180D01*
X000717Y013279D02*
X020056Y013279D01*
X020067Y013377D02*
X000717Y013377D01*
X000717Y013476D02*
X020067Y013476D01*
X020067Y013574D02*
X000717Y013574D01*
X000717Y013673D02*
X020067Y013673D01*
X020067Y013771D02*
X000717Y013771D01*
X004450Y016923D02*
X007883Y016923D01*
X007820Y017022D02*
X004514Y017022D01*
X004514Y017120D02*
X007820Y017120D01*
X007820Y017219D02*
X004514Y017219D01*
X004514Y017317D02*
X007820Y017317D01*
X007820Y017416D02*
X004514Y017416D01*
X004514Y017514D02*
X007820Y017514D01*
X007820Y017613D02*
X004514Y017613D01*
X004514Y017711D02*
X007820Y017711D01*
X007820Y017810D02*
X004514Y017810D01*
X003527Y010520D02*
X003006Y010520D01*
X002918Y010433D01*
X002918Y009911D01*
X003006Y009824D01*
X003527Y009824D01*
X003615Y009911D01*
X003615Y010433D01*
X003527Y010520D01*
X003615Y010422D02*
X008891Y010422D01*
X008793Y010324D02*
X003615Y010324D01*
X003615Y010225D02*
X008694Y010225D01*
X008596Y010127D02*
X003615Y010127D01*
X003615Y010028D02*
X008497Y010028D01*
X008399Y009930D02*
X003615Y009930D01*
X003535Y009831D02*
X008300Y009831D01*
X008202Y009733D02*
X002997Y009733D01*
X002999Y009831D02*
X002933Y009831D01*
X002918Y009930D02*
X002834Y009930D01*
X002918Y010028D02*
X002736Y010028D01*
X002637Y010127D02*
X002918Y010127D01*
X002918Y010225D02*
X002615Y010225D01*
X002581Y010324D02*
X002918Y010324D01*
X002918Y010422D02*
X002509Y010422D01*
X002997Y009634D02*
X008137Y009634D01*
X008137Y009536D02*
X002997Y009536D01*
X002997Y009437D02*
X003039Y009437D01*
X003494Y009437D02*
X008137Y009437D01*
X008137Y009339D02*
X003575Y009339D01*
X003615Y009240D02*
X008137Y009240D01*
X008137Y009142D02*
X003622Y009142D01*
X003721Y009043D02*
X005480Y009043D01*
X005328Y008945D02*
X003819Y008945D01*
X003918Y008846D02*
X005255Y008846D01*
X005214Y008748D02*
X004016Y008748D01*
X004115Y008649D02*
X005212Y008649D01*
X005223Y008551D02*
X004213Y008551D01*
X004312Y008452D02*
X005264Y008452D01*
X005349Y008354D02*
X004410Y008354D01*
X005889Y008354D02*
X006136Y008354D01*
X006051Y008452D02*
X005974Y008452D01*
X005983Y008846D02*
X006043Y008846D01*
X006115Y008945D02*
X005910Y008945D01*
X005758Y009043D02*
X006268Y009043D01*
X006545Y009043D02*
X007055Y009043D01*
X006903Y008945D02*
X006698Y008945D01*
X006770Y008846D02*
X006830Y008846D01*
X006839Y008452D02*
X006762Y008452D01*
X006677Y008354D02*
X006923Y008354D01*
X007464Y008354D02*
X007711Y008354D01*
X007626Y008452D02*
X007549Y008452D01*
X007558Y008846D02*
X007617Y008846D01*
X007690Y008945D02*
X007485Y008945D01*
X007332Y009043D02*
X007843Y009043D01*
X008120Y009043D02*
X008137Y009043D01*
X008216Y006088D02*
X008013Y006088D01*
X008013Y005990D02*
X008133Y005990D01*
X008133Y005891D02*
X008013Y005891D01*
X008013Y005793D02*
X008133Y005793D01*
X008133Y005694D02*
X008000Y005694D01*
X008000Y005596D02*
X008133Y005596D01*
X008163Y005497D02*
X007971Y005497D01*
X007842Y005300D02*
X005497Y005300D01*
X002537Y006482D02*
X002429Y006482D01*
X001971Y007369D02*
X002069Y007467D01*
X002479Y008452D02*
X002537Y008452D01*
X012844Y009043D02*
X013354Y009043D01*
X013202Y008945D02*
X012997Y008945D01*
X013069Y008846D02*
X013129Y008846D01*
X013138Y008452D02*
X013061Y008452D01*
X012976Y008354D02*
X013223Y008354D01*
X013763Y008354D02*
X014010Y008354D01*
X013925Y008452D02*
X013848Y008452D01*
X013857Y008846D02*
X013917Y008846D01*
X013989Y008945D02*
X013784Y008945D01*
X013632Y009043D02*
X014142Y009043D01*
X019987Y014658D02*
X020107Y014658D01*
X025551Y010816D02*
X025640Y010816D01*
X026082Y010816D02*
X026151Y010816D01*
X026421Y015052D02*
X026660Y015052D01*
X026583Y015150D02*
X026520Y015150D01*
X035430Y012589D02*
X039787Y012589D01*
X039787Y012491D02*
X035558Y012491D01*
X035602Y012392D02*
X039787Y012392D01*
X039787Y012294D02*
X035607Y012294D01*
X035578Y012195D02*
X039787Y012195D01*
X039787Y012097D02*
X036233Y012097D01*
X036314Y011998D02*
X039787Y011998D01*
X039787Y011900D02*
X036314Y011900D01*
X036314Y011801D02*
X039787Y011801D01*
X039787Y011703D02*
X036314Y011703D01*
X036314Y011604D02*
X039787Y011604D01*
X039787Y011506D02*
X036314Y011506D01*
X036262Y011407D02*
X039787Y011407D01*
X039749Y006975D02*
X039787Y006975D01*
X039787Y006876D02*
X033997Y006876D01*
X039965Y027167D02*
X040217Y027167D01*
X040217Y027266D02*
X039965Y027266D01*
X039965Y027364D02*
X040217Y027364D01*
X040217Y027463D02*
X039965Y027463D01*
X039965Y027561D02*
X040217Y027561D01*
X040217Y027660D02*
X039965Y027660D01*
X039890Y027758D02*
X040217Y027758D01*
D36*
X029967Y030822D03*
X001727Y030822D03*
X001727Y001832D03*
D37*
X005751Y028004D02*
X005751Y028988D01*
X004767Y029972D01*
X006735Y029972D02*
X007719Y028988D01*
X007719Y028004D01*
X009688Y028004D02*
X009688Y028988D01*
X008704Y029972D01*
X010672Y029972D02*
X011656Y028988D01*
X011656Y028004D01*
X013625Y028004D02*
X013625Y028988D01*
X012641Y029972D01*
X016317Y029972D02*
X017301Y028988D01*
X017301Y028004D01*
X019269Y028004D02*
X019269Y028988D01*
X018285Y029972D01*
X020254Y029972D02*
X021238Y028988D01*
X021238Y028004D01*
X023206Y028004D02*
X023206Y028988D01*
X022222Y029972D01*
X024191Y029972D02*
X025175Y028988D01*
X025175Y028004D01*
D38*
X024417Y022872D03*
X022417Y020872D03*
D39*
X022647Y015322D02*
X022647Y014022D01*
X021867Y014022D02*
X021867Y015322D01*
X023437Y015322D02*
X023437Y014072D01*
X023437Y014022D01*
X020297Y014022D02*
X020297Y015322D01*
X016247Y008248D02*
X016247Y008122D01*
X016247Y007622D01*
X017817Y007622D02*
X017817Y008122D01*
X018617Y008122D02*
X018617Y007622D01*
X020192Y007622D02*
X020192Y008122D01*
X011517Y007622D02*
X011517Y008872D01*
X008367Y008922D02*
X008367Y007622D01*
D40*
X024417Y022872D02*
X023193Y024096D01*
X023193Y025528D01*
D41*
X027217Y022772D02*
X027337Y022772D01*
X027417Y022852D01*
X027717Y022852D01*
X027897Y022672D01*
M02*
