G75*
%MOIN*%
%OFA0B0*%
%FSLAX24Y24*%
%IPPOS*%
%LPD*%
%AMOC8*
5,1,8,0,0,1.08239X$1,22.5*
%
%ADD10C,0.0197*%
%ADD11C,0.0030*%
%ADD12C,0.0040*%
%ADD13C,0.0050*%
%ADD14C,0.0020*%
%ADD15C,0.0220*%
%ADD16C,0.0080*%
%ADD17C,0.0070*%
%ADD18R,0.0300X0.0180*%
D10*
X001267Y004672D02*
X001267Y011672D01*
X004267Y011672D01*
X004267Y004672D01*
X001267Y004672D01*
X004832Y007085D02*
X008769Y007085D01*
X012706Y007085D01*
X016643Y007085D01*
X020580Y007085D01*
X024517Y007085D01*
X025304Y007085D01*
X025304Y009447D01*
X024517Y009447D01*
X020580Y009447D01*
X016643Y009447D01*
X012706Y009447D01*
X008769Y009447D01*
X004832Y009447D01*
X004832Y007085D01*
X004932Y013485D02*
X008869Y013485D01*
X012806Y013485D01*
X016743Y013485D01*
X020680Y013485D01*
X024617Y013485D01*
X025404Y013485D01*
X025404Y015847D01*
X024617Y015847D01*
X020680Y015847D01*
X016743Y015847D01*
X012806Y015847D01*
X008869Y015847D01*
X004932Y015847D01*
X004932Y013485D01*
D11*
X020392Y010159D02*
X020453Y010220D01*
X020574Y010220D01*
X020635Y010159D01*
X020635Y009916D01*
X020574Y009856D01*
X020453Y009856D01*
X020392Y009916D01*
X020392Y010038D01*
X020514Y010038D01*
X020755Y010159D02*
X020815Y010220D01*
X020937Y010220D01*
X020997Y010159D01*
X020997Y009916D01*
X020937Y009856D01*
X020815Y009856D01*
X020755Y009916D01*
X020755Y010159D01*
X021117Y009856D02*
X021360Y009856D01*
X021360Y010220D01*
X021480Y010098D02*
X021601Y010220D01*
X021722Y010098D01*
X021722Y009856D01*
X021842Y009856D02*
X021842Y010220D01*
X021722Y010038D02*
X021480Y010038D01*
X021480Y010098D02*
X021480Y009856D01*
X021842Y009856D02*
X022085Y010220D01*
X022085Y009856D01*
X022205Y009856D02*
X022205Y010098D01*
X022326Y010220D01*
X022447Y010098D01*
X022447Y009856D01*
X022567Y009795D02*
X022810Y009795D01*
X022930Y009916D02*
X022930Y010159D01*
X022990Y010220D01*
X023112Y010220D01*
X023172Y010159D01*
X023172Y009916D01*
X023112Y009856D01*
X022990Y009856D01*
X022930Y009916D01*
X023293Y009856D02*
X023414Y009856D01*
X023353Y009856D02*
X023353Y010220D01*
X023293Y010220D02*
X023414Y010220D01*
X023534Y010159D02*
X023595Y010220D01*
X023777Y010220D01*
X023777Y009856D01*
X023777Y009977D02*
X023595Y009977D01*
X023534Y010038D01*
X023534Y010159D01*
X023655Y009977D02*
X023534Y009856D01*
X023896Y009916D02*
X023957Y009856D01*
X024139Y009856D01*
X024139Y010220D01*
X023957Y010220D01*
X023896Y010159D01*
X023896Y010098D01*
X023957Y010038D01*
X024139Y010038D01*
X024259Y009977D02*
X024259Y009916D01*
X024320Y009856D01*
X024441Y009856D01*
X024502Y009916D01*
X024441Y010038D02*
X024320Y010038D01*
X024259Y009977D01*
X024259Y010159D02*
X024320Y010220D01*
X024441Y010220D01*
X024502Y010159D01*
X024502Y010098D01*
X024441Y010038D01*
X023957Y010038D02*
X023896Y009977D01*
X023896Y009916D01*
X022447Y010038D02*
X022205Y010038D01*
X022667Y016195D02*
X022910Y016195D01*
X023030Y016316D02*
X023030Y016559D01*
X023090Y016620D01*
X023212Y016620D01*
X023272Y016559D01*
X023272Y016316D01*
X023212Y016256D01*
X023090Y016256D01*
X023030Y016316D01*
X023393Y016256D02*
X023514Y016256D01*
X023453Y016256D02*
X023453Y016620D01*
X023393Y016620D02*
X023514Y016620D01*
X023634Y016559D02*
X023634Y016438D01*
X023695Y016377D01*
X023877Y016377D01*
X023996Y016377D02*
X023996Y016316D01*
X024057Y016256D01*
X024239Y016256D01*
X024239Y016620D01*
X024057Y016620D01*
X023996Y016559D01*
X023996Y016498D01*
X024057Y016438D01*
X024239Y016438D01*
X024359Y016377D02*
X024420Y016438D01*
X024541Y016438D01*
X024602Y016498D01*
X024602Y016559D01*
X024541Y016620D01*
X024420Y016620D01*
X024359Y016559D01*
X024359Y016377D02*
X024359Y016316D01*
X024420Y016256D01*
X024541Y016256D01*
X024602Y016316D01*
X024057Y016438D02*
X023996Y016377D01*
X023877Y016256D02*
X023877Y016620D01*
X023695Y016620D01*
X023634Y016559D01*
X023755Y016377D02*
X023634Y016256D01*
X022547Y016256D02*
X022547Y016498D01*
X022426Y016620D01*
X022305Y016498D01*
X022305Y016256D01*
X022185Y016316D02*
X022124Y016256D01*
X022003Y016256D01*
X021942Y016316D01*
X021942Y016620D01*
X021822Y016620D02*
X021580Y016256D01*
X021822Y016256D02*
X021580Y016620D01*
X022185Y016620D02*
X022185Y016316D01*
X022305Y016438D02*
X022547Y016438D01*
D12*
X025077Y016567D02*
X025384Y016261D01*
X025077Y016261D01*
X025077Y016567D02*
X025077Y016644D01*
X025154Y016721D01*
X025307Y016721D01*
X025384Y016644D01*
X025231Y013178D02*
X025231Y012717D01*
X025384Y012717D02*
X025077Y012717D01*
X025384Y013024D02*
X025231Y013178D01*
X025207Y010321D02*
X025284Y010244D01*
X025207Y010321D02*
X025054Y010321D01*
X024977Y010244D01*
X024977Y010167D01*
X025284Y009861D01*
X024977Y009861D01*
X025131Y006778D02*
X025131Y006317D01*
X025284Y006317D02*
X024977Y006317D01*
X025284Y006624D02*
X025131Y006778D01*
X015209Y016669D02*
X015132Y016592D01*
X014979Y016592D01*
X014902Y016669D01*
X014902Y016822D01*
X014979Y016899D01*
X015056Y016899D01*
X015209Y016822D01*
X015209Y017052D01*
X014902Y017052D01*
X014749Y017052D02*
X014749Y016746D01*
X014595Y016592D01*
X014442Y016746D01*
X014442Y017052D01*
X014288Y016515D02*
X013981Y016515D01*
X013828Y016592D02*
X013828Y017052D01*
X013598Y017052D01*
X013521Y016976D01*
X013521Y016822D01*
X013598Y016746D01*
X013828Y016746D01*
X013674Y016746D02*
X013521Y016592D01*
X013367Y016592D02*
X013061Y016592D01*
X012907Y016669D02*
X012830Y016592D01*
X012677Y016592D01*
X012600Y016669D01*
X012600Y016822D01*
X012754Y016822D01*
X012907Y016669D02*
X012907Y016976D01*
X012830Y017052D01*
X012677Y017052D01*
X012600Y016976D01*
X013061Y017052D02*
X013367Y017052D01*
X013367Y016592D01*
X013367Y016822D02*
X013214Y016822D01*
X008523Y022092D02*
X008600Y022169D01*
X008523Y022092D02*
X008369Y022092D01*
X008293Y022169D01*
X008293Y022246D01*
X008369Y022322D01*
X008446Y022322D01*
X008369Y022322D02*
X008293Y022399D01*
X008293Y022476D01*
X008369Y022552D01*
X008523Y022552D01*
X008600Y022476D01*
X008139Y022169D02*
X008062Y022169D01*
X008062Y022092D01*
X008139Y022092D01*
X008139Y022169D01*
X007909Y022169D02*
X007832Y022092D01*
X007679Y022092D01*
X007602Y022169D01*
X007602Y022246D01*
X007679Y022322D01*
X007756Y022322D01*
X007679Y022322D02*
X007602Y022399D01*
X007602Y022476D01*
X007679Y022552D01*
X007832Y022552D01*
X007909Y022476D01*
X007449Y022552D02*
X007449Y022246D01*
X007295Y022092D01*
X007142Y022246D01*
X007142Y022552D01*
X006988Y022015D02*
X006681Y022015D01*
X006528Y022092D02*
X006528Y022552D01*
X006298Y022552D01*
X006221Y022476D01*
X006221Y022322D01*
X006298Y022246D01*
X006528Y022246D01*
X006374Y022246D02*
X006221Y022092D01*
X006067Y022092D02*
X006067Y022552D01*
X005761Y022552D01*
X005607Y022476D02*
X005607Y022169D01*
X005530Y022092D01*
X005377Y022092D01*
X005300Y022169D01*
X005300Y022322D01*
X005454Y022322D01*
X005607Y022476D02*
X005530Y022552D01*
X005377Y022552D01*
X005300Y022476D01*
X005761Y022092D02*
X006067Y022092D01*
X006067Y022322D02*
X005914Y022322D01*
X000670Y011039D02*
X000747Y010962D01*
X000747Y010808D01*
X000670Y010732D01*
X000670Y010578D02*
X000747Y010501D01*
X000747Y010348D01*
X000670Y010271D01*
X000594Y010271D01*
X000517Y010348D01*
X000517Y010501D01*
X000440Y010578D01*
X000363Y010578D01*
X000287Y010501D01*
X000287Y010348D01*
X000363Y010271D01*
X000363Y010118D02*
X000747Y010118D01*
X000747Y009811D02*
X000363Y009811D01*
X000287Y009888D01*
X000287Y010041D01*
X000363Y010118D01*
X000210Y010425D02*
X000824Y010425D01*
X000287Y010732D02*
X000287Y011039D01*
X000287Y010732D02*
X000594Y011039D01*
X000670Y011039D01*
D13*
X003249Y004178D02*
X003249Y000241D01*
X013485Y000241D01*
X013485Y004178D01*
X003249Y004178D01*
X007476Y005096D02*
X008657Y005096D01*
X008657Y005648D01*
X007476Y005648D01*
X007476Y005096D01*
X008769Y007085D02*
X008769Y007478D01*
X008769Y009053D02*
X008769Y009447D01*
X012706Y009447D02*
X012706Y009053D01*
X012706Y007478D02*
X012706Y007085D01*
X011807Y005648D02*
X011807Y005096D01*
X010626Y005096D01*
X010626Y005648D01*
X011807Y005648D01*
X014099Y004178D02*
X014099Y000241D01*
X024335Y000241D01*
X024335Y004178D01*
X014099Y004178D01*
X016643Y007085D02*
X016643Y007478D01*
X016643Y009053D02*
X016643Y009447D01*
X020580Y009447D02*
X020580Y009053D01*
X020580Y007478D02*
X020580Y007085D01*
X024517Y007085D02*
X024517Y007478D01*
X024517Y009053D02*
X024517Y009447D01*
X024641Y010531D02*
X024641Y011713D01*
X025192Y011713D01*
X025192Y010531D01*
X024641Y010531D01*
X025176Y012396D02*
X025176Y012948D01*
X026357Y012948D01*
X026357Y012396D01*
X025176Y012396D01*
X025891Y013331D02*
X025891Y014513D01*
X026442Y014513D01*
X026442Y013331D01*
X025891Y013331D01*
X024617Y013485D02*
X024617Y013878D01*
X026241Y015131D02*
X026241Y016313D01*
X026792Y016313D01*
X026792Y015131D01*
X026241Y015131D01*
X024617Y015453D02*
X024617Y015847D01*
X020680Y015847D02*
X020680Y015453D01*
X020680Y013878D02*
X020680Y013485D01*
X016743Y013485D02*
X016743Y013878D01*
X016743Y015453D02*
X016743Y015847D01*
X018376Y017446D02*
X018376Y021698D01*
X011998Y021698D01*
X011998Y017446D01*
X018376Y017446D01*
X012806Y015847D02*
X012806Y015453D01*
X012806Y013878D02*
X012806Y013485D01*
X008869Y013485D02*
X008869Y013878D01*
X008869Y015453D02*
X008869Y015847D01*
X009167Y017899D02*
X009167Y021245D01*
X003167Y021245D01*
X003167Y017899D01*
X009167Y017899D01*
X009407Y023146D02*
X008226Y023146D01*
X008226Y023698D01*
X009407Y023698D01*
X009407Y023146D01*
X007407Y023146D02*
X006226Y023146D01*
X006226Y023698D01*
X007407Y023698D01*
X007407Y023146D01*
X007126Y025296D02*
X007126Y025848D01*
X008307Y025848D01*
X008307Y025296D01*
X007126Y025296D01*
X006327Y025296D02*
X005146Y025296D01*
X005146Y025848D01*
X006327Y025848D01*
X006327Y025296D01*
X003670Y025435D02*
X003670Y024884D01*
X002489Y024884D01*
X002489Y025435D01*
X003670Y025435D01*
X003684Y026704D02*
X014117Y026704D01*
X014117Y032531D01*
X003684Y032531D01*
X003684Y026704D01*
X011076Y025848D02*
X011076Y025296D01*
X012257Y025296D01*
X012257Y025848D01*
X011076Y025848D01*
X012841Y024613D02*
X012841Y023431D01*
X013392Y023431D01*
X013392Y024613D01*
X012841Y024613D01*
X015234Y026704D02*
X025667Y026704D01*
X025667Y032531D01*
X015234Y032531D01*
X015234Y026704D01*
X016726Y025848D02*
X017907Y025848D01*
X017907Y025296D01*
X016726Y025296D01*
X016726Y025848D01*
X022976Y025646D02*
X022976Y026198D01*
X024157Y026198D01*
X024157Y025646D01*
X022976Y025646D01*
X024526Y025048D02*
X024526Y024496D01*
X025707Y024496D01*
X025707Y025048D01*
X024526Y025048D01*
X033191Y023063D02*
X033191Y021881D01*
X033742Y021881D01*
X033742Y023063D01*
X033191Y023063D01*
X033191Y021563D02*
X033742Y021563D01*
X033742Y020381D01*
X033191Y020381D01*
X033191Y021563D01*
X033191Y020063D02*
X033742Y020063D01*
X033742Y018881D01*
X033191Y018881D01*
X033191Y020063D01*
X033191Y018563D02*
X033742Y018563D01*
X033742Y017381D01*
X033191Y017381D01*
X033191Y018563D01*
X035191Y018413D02*
X035191Y017231D01*
X035742Y017231D01*
X035742Y018413D01*
X035191Y018413D01*
X035191Y018731D02*
X035191Y019913D01*
X035742Y019913D01*
X035742Y018731D01*
X035191Y018731D01*
X035191Y020231D02*
X035191Y021413D01*
X035742Y021413D01*
X035742Y020231D01*
X035191Y020231D01*
X035191Y021731D02*
X035191Y022913D01*
X035742Y022913D01*
X035742Y021731D01*
X035191Y021731D01*
X036861Y021690D02*
X036861Y011454D01*
X040798Y011454D01*
X040798Y021690D01*
X036861Y021690D01*
X036861Y022304D02*
X040798Y022304D01*
X040798Y032540D01*
X036861Y032540D01*
X036861Y022304D01*
X036861Y010840D02*
X036861Y000604D01*
X040798Y000604D01*
X040798Y010840D01*
X036861Y010840D01*
X035185Y004178D02*
X024949Y004178D01*
X024949Y000241D01*
X035185Y000241D01*
X035185Y004178D01*
D14*
X034706Y004439D02*
X034668Y004401D01*
X034591Y004401D01*
X034553Y004439D01*
X034553Y004477D01*
X034591Y004516D01*
X034668Y004516D01*
X034706Y004554D01*
X034706Y004592D01*
X034668Y004631D01*
X034591Y004631D01*
X034553Y004592D01*
X034476Y004631D02*
X034476Y004401D01*
X034476Y004516D02*
X034323Y004516D01*
X034246Y004592D02*
X034246Y004439D01*
X034208Y004401D01*
X034131Y004401D01*
X034092Y004439D01*
X034092Y004592D01*
X034131Y004631D01*
X034208Y004631D01*
X034246Y004592D01*
X034323Y004631D02*
X034323Y004401D01*
X034016Y004439D02*
X034016Y004592D01*
X033977Y004631D01*
X033901Y004631D01*
X033862Y004592D01*
X033785Y004631D02*
X033785Y004401D01*
X033785Y004477D02*
X033632Y004631D01*
X033747Y004516D02*
X033632Y004401D01*
X033555Y004362D02*
X033402Y004362D01*
X033325Y004401D02*
X033325Y004631D01*
X033210Y004631D01*
X033172Y004592D01*
X033172Y004516D01*
X033210Y004477D01*
X033325Y004477D01*
X033095Y004439D02*
X033095Y004592D01*
X033057Y004631D01*
X032980Y004631D01*
X032941Y004592D01*
X032941Y004439D01*
X032980Y004401D01*
X033057Y004401D01*
X033095Y004439D01*
X032865Y004631D02*
X032711Y004631D01*
X032788Y004631D02*
X032788Y004401D01*
X032635Y004362D02*
X032481Y004362D01*
X032404Y004439D02*
X032404Y004592D01*
X032366Y004631D01*
X032289Y004631D01*
X032251Y004592D01*
X032174Y004592D02*
X032174Y004439D01*
X032136Y004401D01*
X032059Y004401D01*
X032021Y004439D01*
X032021Y004592D01*
X032059Y004631D01*
X032136Y004631D01*
X032174Y004592D01*
X032251Y004439D02*
X032289Y004401D01*
X032366Y004401D01*
X032404Y004439D01*
X031944Y004401D02*
X031944Y004631D01*
X031790Y004401D01*
X031790Y004631D01*
X031714Y004631D02*
X031560Y004401D01*
X031560Y004631D01*
X031714Y004631D02*
X031714Y004401D01*
X033862Y004439D02*
X033901Y004401D01*
X033977Y004401D01*
X034016Y004439D01*
X036408Y008156D02*
X036638Y008156D01*
X036638Y008080D02*
X036638Y008233D01*
X036638Y008310D02*
X036408Y008310D01*
X036523Y008310D02*
X036523Y008463D01*
X036523Y008540D02*
X036523Y008617D01*
X036408Y008540D02*
X036408Y008694D01*
X036408Y008770D02*
X036638Y008770D01*
X036638Y008885D01*
X036600Y008924D01*
X036523Y008924D01*
X036485Y008885D01*
X036485Y008770D01*
X036485Y008847D02*
X036408Y008924D01*
X036408Y009000D02*
X036638Y009000D01*
X036562Y009077D01*
X036638Y009154D01*
X036408Y009154D01*
X036370Y009231D02*
X036370Y009384D01*
X036447Y009461D02*
X036408Y009499D01*
X036408Y009576D01*
X036447Y009614D01*
X036447Y009691D02*
X036408Y009729D01*
X036408Y009806D01*
X036447Y009845D01*
X036600Y009845D01*
X036638Y009806D01*
X036638Y009729D01*
X036600Y009691D01*
X036447Y009691D01*
X036600Y009614D02*
X036638Y009576D01*
X036638Y009499D01*
X036600Y009461D01*
X036447Y009461D01*
X036408Y009921D02*
X036638Y009921D01*
X036408Y010075D01*
X036638Y010075D01*
X036638Y010151D02*
X036408Y010305D01*
X036638Y010305D01*
X036638Y010151D02*
X036408Y010151D01*
X036638Y008694D02*
X036638Y008540D01*
X036408Y008540D01*
X036408Y008463D02*
X036638Y008463D01*
X040499Y007192D02*
X040499Y007077D01*
X040729Y007077D01*
X040729Y007192D01*
X040691Y007230D01*
X040652Y007230D01*
X040614Y007192D01*
X040614Y007077D01*
X040691Y007000D02*
X040729Y006962D01*
X040729Y006885D01*
X040691Y006846D01*
X040537Y006846D01*
X040499Y006885D01*
X040499Y006962D01*
X040537Y007000D01*
X040499Y007192D02*
X040537Y007230D01*
X040575Y007230D01*
X040614Y007192D01*
X040614Y006770D02*
X040575Y006731D01*
X040575Y006616D01*
X040499Y006616D02*
X040729Y006616D01*
X040729Y006731D01*
X040691Y006770D01*
X040614Y006770D01*
X040614Y006309D02*
X040614Y006233D01*
X040614Y006156D02*
X040652Y006117D01*
X040652Y006041D01*
X040614Y006002D01*
X040537Y006002D01*
X040499Y006041D01*
X040499Y006117D01*
X040537Y006156D01*
X040614Y006156D01*
X040691Y006271D02*
X040499Y006271D01*
X040691Y006271D02*
X040729Y006309D01*
X040614Y005695D02*
X040575Y005695D01*
X040575Y005542D01*
X040537Y005542D02*
X040614Y005542D01*
X040652Y005580D01*
X040652Y005657D01*
X040614Y005695D01*
X040499Y005657D02*
X040499Y005580D01*
X040537Y005542D01*
X040499Y005465D02*
X040499Y005350D01*
X040537Y005312D01*
X040614Y005312D01*
X040652Y005350D01*
X040652Y005465D01*
X040460Y005465D01*
X040422Y005427D01*
X040422Y005389D01*
X040499Y005235D02*
X040499Y005120D01*
X040537Y005082D01*
X040614Y005082D01*
X040652Y005120D01*
X040652Y005235D01*
X040729Y005235D02*
X040499Y005235D01*
X040499Y005005D02*
X040499Y004851D01*
X040729Y004851D01*
X040729Y005005D01*
X040614Y004928D02*
X040614Y004851D01*
X031631Y000540D02*
X031631Y000310D01*
X031478Y000310D01*
X031401Y000348D02*
X031363Y000310D01*
X031248Y000310D01*
X031248Y000540D01*
X031248Y000463D02*
X031363Y000463D01*
X031401Y000425D01*
X031401Y000348D01*
X031555Y000425D02*
X031631Y000425D01*
X031631Y000540D02*
X031478Y000540D01*
X031171Y000425D02*
X031171Y000348D01*
X031133Y000310D01*
X031018Y000310D01*
X031018Y000272D02*
X031018Y000463D01*
X031133Y000463D01*
X031171Y000425D01*
X031094Y000233D02*
X031056Y000233D01*
X031018Y000272D01*
X030941Y000348D02*
X030903Y000310D01*
X030826Y000310D01*
X030787Y000387D02*
X030941Y000387D01*
X030941Y000425D02*
X030903Y000463D01*
X030826Y000463D01*
X030787Y000425D01*
X030787Y000387D01*
X030941Y000348D02*
X030941Y000425D01*
X030480Y000425D02*
X030480Y000348D01*
X030442Y000310D01*
X030365Y000310D01*
X030327Y000348D01*
X030327Y000425D01*
X030365Y000463D01*
X030442Y000463D01*
X030480Y000425D01*
X030250Y000425D02*
X030174Y000425D01*
X030212Y000502D02*
X030174Y000540D01*
X030212Y000502D02*
X030212Y000310D01*
X029867Y000310D02*
X029867Y000540D01*
X029752Y000540D01*
X029713Y000502D01*
X029713Y000425D01*
X029752Y000387D01*
X029867Y000387D01*
X029636Y000348D02*
X029598Y000310D01*
X029521Y000310D01*
X029483Y000348D01*
X029406Y000310D02*
X029406Y000540D01*
X029291Y000540D01*
X029253Y000502D01*
X029253Y000463D01*
X029291Y000425D01*
X029406Y000425D01*
X029483Y000502D02*
X029521Y000540D01*
X029598Y000540D01*
X029636Y000502D01*
X029636Y000348D01*
X029406Y000310D02*
X029291Y000310D01*
X029253Y000348D01*
X029253Y000387D01*
X029291Y000425D01*
X023856Y004401D02*
X023856Y004631D01*
X023741Y004631D01*
X023703Y004592D01*
X023703Y004516D01*
X023741Y004477D01*
X023856Y004477D01*
X023626Y004516D02*
X023549Y004516D01*
X023473Y004631D02*
X023626Y004631D01*
X023626Y004401D01*
X023473Y004401D01*
X023396Y004401D02*
X023281Y004401D01*
X023242Y004439D01*
X023242Y004592D01*
X023281Y004631D01*
X023396Y004631D01*
X023396Y004401D01*
X023166Y004401D02*
X023166Y004554D01*
X023089Y004631D01*
X023012Y004554D01*
X023012Y004401D01*
X022935Y004401D02*
X022935Y004631D01*
X023012Y004516D02*
X023166Y004516D01*
X022935Y004401D02*
X022782Y004401D01*
X022705Y004362D02*
X022552Y004362D01*
X022475Y004439D02*
X022437Y004401D01*
X022360Y004401D01*
X022322Y004439D01*
X022245Y004439D02*
X022207Y004401D01*
X022130Y004401D01*
X022091Y004439D01*
X022091Y004592D01*
X022130Y004631D01*
X022207Y004631D01*
X022245Y004592D01*
X022245Y004439D01*
X022322Y004592D02*
X022360Y004631D01*
X022437Y004631D01*
X022475Y004592D01*
X022475Y004439D01*
X022015Y004401D02*
X022015Y004631D01*
X021861Y004401D01*
X021861Y004631D01*
X021785Y004631D02*
X021631Y004401D01*
X021631Y004631D01*
X021785Y004631D02*
X021785Y004401D01*
X020781Y000540D02*
X020781Y000310D01*
X020628Y000310D01*
X020551Y000348D02*
X020513Y000310D01*
X020398Y000310D01*
X020398Y000540D01*
X020398Y000463D02*
X020513Y000463D01*
X020551Y000425D01*
X020551Y000348D01*
X020705Y000425D02*
X020781Y000425D01*
X020781Y000540D02*
X020628Y000540D01*
X020321Y000425D02*
X020321Y000348D01*
X020283Y000310D01*
X020168Y000310D01*
X020168Y000272D02*
X020168Y000463D01*
X020283Y000463D01*
X020321Y000425D01*
X020244Y000233D02*
X020206Y000233D01*
X020168Y000272D01*
X020091Y000348D02*
X020053Y000310D01*
X019976Y000310D01*
X019937Y000387D02*
X020091Y000387D01*
X020091Y000425D02*
X020053Y000463D01*
X019976Y000463D01*
X019937Y000425D01*
X019937Y000387D01*
X020091Y000348D02*
X020091Y000425D01*
X019630Y000425D02*
X019630Y000348D01*
X019592Y000310D01*
X019515Y000310D01*
X019477Y000348D01*
X019477Y000425D01*
X019515Y000463D01*
X019592Y000463D01*
X019630Y000425D01*
X019400Y000425D02*
X019324Y000425D01*
X019362Y000502D02*
X019324Y000540D01*
X019362Y000502D02*
X019362Y000310D01*
X019017Y000310D02*
X019017Y000540D01*
X018902Y000540D01*
X018863Y000502D01*
X018863Y000425D01*
X018902Y000387D01*
X019017Y000387D01*
X018786Y000348D02*
X018748Y000310D01*
X018671Y000310D01*
X018633Y000348D01*
X018556Y000310D02*
X018556Y000540D01*
X018441Y000540D01*
X018403Y000502D01*
X018403Y000463D01*
X018441Y000425D01*
X018556Y000425D01*
X018633Y000502D02*
X018671Y000540D01*
X018748Y000540D01*
X018786Y000502D01*
X018786Y000348D01*
X018556Y000310D02*
X018441Y000310D01*
X018403Y000348D01*
X018403Y000387D01*
X018441Y000425D01*
X013006Y004401D02*
X013006Y004631D01*
X013006Y004516D02*
X012853Y004516D01*
X012776Y004477D02*
X012699Y004401D01*
X012623Y004477D01*
X012623Y004631D01*
X012776Y004631D02*
X012776Y004477D01*
X012853Y004401D02*
X012853Y004631D01*
X012546Y004362D02*
X012392Y004362D01*
X012316Y004401D02*
X012201Y004401D01*
X012162Y004439D01*
X012162Y004477D01*
X012201Y004516D01*
X012316Y004516D01*
X012316Y004401D02*
X012316Y004631D01*
X012201Y004631D01*
X012162Y004592D01*
X012162Y004554D01*
X012201Y004516D01*
X012085Y004592D02*
X012085Y004439D01*
X012047Y004401D01*
X011970Y004401D01*
X011932Y004439D01*
X011932Y004592D01*
X011970Y004631D01*
X012047Y004631D01*
X012085Y004592D01*
X011855Y004631D02*
X011702Y004401D01*
X011625Y004362D02*
X011472Y004362D01*
X011395Y004439D02*
X011357Y004401D01*
X011280Y004401D01*
X011241Y004439D01*
X011165Y004439D02*
X011126Y004401D01*
X011050Y004401D01*
X011011Y004439D01*
X011011Y004592D01*
X011050Y004631D01*
X011126Y004631D01*
X011165Y004592D01*
X011165Y004439D01*
X011241Y004592D02*
X011280Y004631D01*
X011357Y004631D01*
X011395Y004592D01*
X011395Y004439D01*
X011702Y004631D02*
X011855Y004401D01*
X010935Y004401D02*
X010935Y004631D01*
X010781Y004401D01*
X010781Y004631D01*
X010704Y004631D02*
X010551Y004401D01*
X010551Y004631D01*
X010704Y004631D02*
X010704Y004401D01*
X009931Y000540D02*
X009778Y000540D01*
X009701Y000425D02*
X009663Y000463D01*
X009548Y000463D01*
X009548Y000540D02*
X009548Y000310D01*
X009663Y000310D01*
X009701Y000348D01*
X009701Y000425D01*
X009778Y000310D02*
X009931Y000310D01*
X009931Y000540D01*
X009931Y000425D02*
X009855Y000425D01*
X009471Y000425D02*
X009471Y000348D01*
X009433Y000310D01*
X009318Y000310D01*
X009318Y000272D02*
X009318Y000463D01*
X009433Y000463D01*
X009471Y000425D01*
X009394Y000233D02*
X009356Y000233D01*
X009318Y000272D01*
X009241Y000348D02*
X009203Y000310D01*
X009126Y000310D01*
X009087Y000387D02*
X009241Y000387D01*
X009241Y000425D02*
X009203Y000463D01*
X009126Y000463D01*
X009087Y000425D01*
X009087Y000387D01*
X009241Y000348D02*
X009241Y000425D01*
X008780Y000425D02*
X008780Y000348D01*
X008742Y000310D01*
X008665Y000310D01*
X008627Y000348D01*
X008627Y000425D01*
X008665Y000463D01*
X008742Y000463D01*
X008780Y000425D01*
X008550Y000425D02*
X008474Y000425D01*
X008512Y000502D02*
X008474Y000540D01*
X008512Y000502D02*
X008512Y000310D01*
X008167Y000310D02*
X008167Y000540D01*
X008052Y000540D01*
X008013Y000502D01*
X008013Y000425D01*
X008052Y000387D01*
X008167Y000387D01*
X007936Y000348D02*
X007898Y000310D01*
X007821Y000310D01*
X007783Y000348D01*
X007706Y000310D02*
X007706Y000540D01*
X007591Y000540D01*
X007553Y000502D01*
X007553Y000463D01*
X007591Y000425D01*
X007706Y000425D01*
X007783Y000502D02*
X007821Y000540D01*
X007898Y000540D01*
X007936Y000502D01*
X007936Y000348D01*
X007706Y000310D02*
X007591Y000310D01*
X007553Y000348D01*
X007553Y000387D01*
X007591Y000425D01*
X036408Y018009D02*
X036408Y018124D01*
X036447Y018162D01*
X036600Y018162D01*
X036638Y018124D01*
X036638Y018009D01*
X036408Y018009D01*
X036408Y018239D02*
X036562Y018239D01*
X036638Y018316D01*
X036562Y018393D01*
X036408Y018393D01*
X036447Y018469D02*
X036408Y018508D01*
X036408Y018584D01*
X036447Y018623D01*
X036485Y018623D01*
X036523Y018584D01*
X036523Y018508D01*
X036562Y018469D01*
X036600Y018469D01*
X036638Y018508D01*
X036638Y018584D01*
X036600Y018623D01*
X036638Y018699D02*
X036408Y018699D01*
X036523Y018699D02*
X036523Y018853D01*
X036523Y018930D02*
X036523Y019045D01*
X036485Y019083D01*
X036447Y019083D01*
X036408Y019045D01*
X036408Y018930D01*
X036638Y018930D01*
X036638Y019045D01*
X036600Y019083D01*
X036562Y019083D01*
X036523Y019045D01*
X036447Y019160D02*
X036408Y019198D01*
X036408Y019275D01*
X036447Y019313D01*
X036600Y019313D01*
X036638Y019275D01*
X036638Y019198D01*
X036600Y019160D01*
X036447Y019160D01*
X036408Y019390D02*
X036562Y019390D01*
X036638Y019467D01*
X036562Y019544D01*
X036408Y019544D01*
X036408Y019620D02*
X036638Y019620D01*
X036638Y019735D01*
X036600Y019774D01*
X036523Y019774D01*
X036485Y019735D01*
X036485Y019620D01*
X036485Y019697D02*
X036408Y019774D01*
X036408Y019850D02*
X036408Y019966D01*
X036447Y020004D01*
X036600Y020004D01*
X036638Y019966D01*
X036638Y019850D01*
X036408Y019850D01*
X036370Y020081D02*
X036370Y020234D01*
X036447Y020311D02*
X036408Y020349D01*
X036408Y020426D01*
X036447Y020464D01*
X036447Y020541D02*
X036408Y020579D01*
X036408Y020656D01*
X036447Y020695D01*
X036600Y020695D01*
X036638Y020656D01*
X036638Y020579D01*
X036600Y020541D01*
X036447Y020541D01*
X036600Y020464D02*
X036638Y020426D01*
X036638Y020349D01*
X036600Y020311D01*
X036447Y020311D01*
X036408Y020771D02*
X036638Y020771D01*
X036408Y020925D01*
X036638Y020925D01*
X036638Y021001D02*
X036408Y021155D01*
X036638Y021155D01*
X036638Y021001D02*
X036408Y021001D01*
X036523Y019544D02*
X036523Y019390D01*
X036638Y018853D02*
X036408Y018853D01*
X036523Y018393D02*
X036523Y018239D01*
X040499Y018042D02*
X040499Y017927D01*
X040729Y017927D01*
X040729Y018042D01*
X040691Y018080D01*
X040652Y018080D01*
X040614Y018042D01*
X040614Y017927D01*
X040691Y017850D02*
X040729Y017812D01*
X040729Y017735D01*
X040691Y017696D01*
X040537Y017696D01*
X040499Y017735D01*
X040499Y017812D01*
X040537Y017850D01*
X040499Y018042D02*
X040537Y018080D01*
X040575Y018080D01*
X040614Y018042D01*
X040614Y017620D02*
X040575Y017581D01*
X040575Y017466D01*
X040499Y017466D02*
X040729Y017466D01*
X040729Y017581D01*
X040691Y017620D01*
X040614Y017620D01*
X040614Y017159D02*
X040614Y017083D01*
X040614Y017006D02*
X040652Y016967D01*
X040652Y016891D01*
X040614Y016852D01*
X040537Y016852D01*
X040499Y016891D01*
X040499Y016967D01*
X040537Y017006D01*
X040614Y017006D01*
X040691Y017121D02*
X040499Y017121D01*
X040691Y017121D02*
X040729Y017159D01*
X040614Y016545D02*
X040575Y016545D01*
X040575Y016392D01*
X040537Y016392D02*
X040614Y016392D01*
X040652Y016430D01*
X040652Y016507D01*
X040614Y016545D01*
X040499Y016507D02*
X040499Y016430D01*
X040537Y016392D01*
X040499Y016315D02*
X040499Y016200D01*
X040537Y016162D01*
X040614Y016162D01*
X040652Y016200D01*
X040652Y016315D01*
X040460Y016315D01*
X040422Y016277D01*
X040422Y016239D01*
X040499Y016085D02*
X040499Y015970D01*
X040537Y015932D01*
X040614Y015932D01*
X040652Y015970D01*
X040652Y016085D01*
X040729Y016085D02*
X040499Y016085D01*
X040499Y015855D02*
X040499Y015701D01*
X040729Y015701D01*
X040729Y015855D01*
X040614Y015778D02*
X040614Y015701D01*
X040614Y026551D02*
X040614Y026628D01*
X040729Y026551D02*
X040499Y026551D01*
X040499Y026705D01*
X040537Y026782D02*
X040614Y026782D01*
X040652Y026820D01*
X040652Y026935D01*
X040729Y026935D02*
X040499Y026935D01*
X040499Y026820D01*
X040537Y026782D01*
X040729Y026705D02*
X040729Y026551D01*
X040614Y027012D02*
X040537Y027012D01*
X040499Y027050D01*
X040499Y027165D01*
X040460Y027165D02*
X040652Y027165D01*
X040652Y027050D01*
X040614Y027012D01*
X040422Y027089D02*
X040422Y027127D01*
X040460Y027165D01*
X040537Y027242D02*
X040614Y027242D01*
X040652Y027280D01*
X040652Y027357D01*
X040614Y027395D01*
X040575Y027395D01*
X040575Y027242D01*
X040537Y027242D02*
X040499Y027280D01*
X040499Y027357D01*
X040537Y027702D02*
X040499Y027741D01*
X040499Y027817D01*
X040537Y027856D01*
X040614Y027856D01*
X040652Y027817D01*
X040652Y027741D01*
X040614Y027702D01*
X040537Y027702D01*
X040614Y027933D02*
X040614Y028009D01*
X040691Y027971D02*
X040499Y027971D01*
X040691Y027971D02*
X040729Y028009D01*
X040729Y028316D02*
X040499Y028316D01*
X040575Y028316D02*
X040575Y028431D01*
X040614Y028470D01*
X040691Y028470D01*
X040729Y028431D01*
X040729Y028316D01*
X040691Y028546D02*
X040537Y028546D01*
X040499Y028585D01*
X040499Y028662D01*
X040537Y028700D01*
X040499Y028777D02*
X040499Y028892D01*
X040537Y028930D01*
X040575Y028930D01*
X040614Y028892D01*
X040614Y028777D01*
X040691Y028700D02*
X040729Y028662D01*
X040729Y028585D01*
X040691Y028546D01*
X040729Y028777D02*
X040729Y028892D01*
X040691Y028930D01*
X040652Y028930D01*
X040614Y028892D01*
X040499Y028777D02*
X040729Y028777D01*
X036638Y029549D02*
X036408Y029549D01*
X036485Y029626D01*
X036408Y029703D01*
X036638Y029703D01*
X036638Y029780D02*
X036408Y029780D01*
X036523Y029780D02*
X036523Y029933D01*
X036523Y030010D02*
X036523Y030087D01*
X036408Y030163D02*
X036408Y030010D01*
X036638Y030010D01*
X036638Y030163D01*
X036638Y030240D02*
X036408Y030240D01*
X036408Y030394D01*
X036408Y030470D02*
X036408Y030624D01*
X036370Y030700D02*
X036370Y030854D01*
X036447Y030931D02*
X036408Y030969D01*
X036408Y031046D01*
X036447Y031084D01*
X036485Y031084D01*
X036523Y031046D01*
X036523Y030969D01*
X036562Y030931D01*
X036600Y030931D01*
X036638Y030969D01*
X036638Y031046D01*
X036600Y031084D01*
X036638Y031161D02*
X036408Y031161D01*
X036485Y031161D02*
X036485Y031276D01*
X036523Y031314D01*
X036600Y031314D01*
X036638Y031276D01*
X036638Y031161D01*
X036638Y031391D02*
X036408Y031391D01*
X036408Y031545D01*
X036408Y031621D02*
X036408Y031775D01*
X036408Y031851D02*
X036408Y031967D01*
X036447Y032005D01*
X036600Y032005D01*
X036638Y031967D01*
X036638Y031851D01*
X036408Y031851D01*
X036523Y031698D02*
X036523Y031621D01*
X036638Y031621D02*
X036408Y031621D01*
X036523Y031468D02*
X036523Y031391D01*
X036638Y031391D02*
X036638Y031545D01*
X036638Y031621D02*
X036638Y031775D01*
X036638Y030470D02*
X036408Y030470D01*
X036523Y030317D02*
X036523Y030240D01*
X036638Y030240D02*
X036638Y030394D01*
X036638Y029933D02*
X036408Y029933D01*
D15*
X035167Y029584D02*
X035167Y029560D01*
X033767Y029560D02*
X033767Y029584D01*
X028017Y030060D02*
X028017Y030084D01*
X028017Y030660D02*
X028017Y030684D01*
X028017Y031260D02*
X028017Y031284D01*
X028017Y031860D02*
X028017Y031884D01*
X010479Y020372D02*
X010455Y020372D01*
X009679Y019572D02*
X009655Y019572D01*
X010455Y018772D02*
X010479Y018772D01*
X002679Y019572D02*
X002655Y019572D01*
X035955Y015072D02*
X035979Y015072D01*
X035955Y012072D02*
X035979Y012072D01*
X035955Y009072D02*
X035979Y009072D01*
X035955Y006072D02*
X035979Y006072D01*
D16*
X035451Y027731D02*
X035451Y028046D01*
X035451Y028598D02*
X035451Y028913D01*
X034034Y028322D02*
X034036Y028334D01*
X034041Y028345D01*
X034050Y028354D01*
X034061Y028359D01*
X034073Y028361D01*
X034085Y028359D01*
X034096Y028354D01*
X034105Y028345D01*
X034110Y028334D01*
X034112Y028322D01*
X034110Y028310D01*
X034105Y028299D01*
X034096Y028290D01*
X034085Y028285D01*
X034073Y028283D01*
X034061Y028285D01*
X034050Y028290D01*
X034041Y028299D01*
X034036Y028310D01*
X034034Y028322D01*
X033482Y028046D02*
X033482Y027731D01*
X033482Y028598D02*
X033482Y028913D01*
D17*
X027554Y029073D02*
X027318Y029309D01*
X026215Y029309D02*
X025979Y029309D01*
X025979Y029073D01*
X025979Y027971D02*
X025979Y027735D01*
X026215Y027735D01*
X027318Y027735D02*
X027554Y027735D01*
X027554Y027971D01*
D18*
X027067Y030372D03*
M02*
