G75*
%MOIN*%
%OFA0B0*%
%FSLAX25Y25*%
%IPPOS*%
%LPD*%
%AMOC8*
5,1,8,0,0,1.08239X$1,22.5*
%
%ADD10C,0.02500*%
%ADD11R,0.03150X0.03843*%
%ADD12R,0.03937X0.10000*%
%ADD13R,0.04331X0.03937*%
%ADD14R,0.03937X0.04331*%
%ADD15R,0.01969X0.06299*%
%ADD16R,0.06299X0.01969*%
%ADD17R,0.01575X0.05512*%
%ADD18R,0.05512X0.01575*%
%ADD19R,0.03843X0.03150*%
%ADD20R,0.03543X0.02756*%
%ADD21R,0.02756X0.03543*%
%ADD22R,0.02362X0.07087*%
%ADD23R,0.07087X0.02362*%
D10*
X0355038Y0060600D03*
X0360038Y0060600D03*
X0365038Y0060600D03*
X0370038Y0060600D03*
X0375038Y0060600D03*
X0380038Y0060600D03*
X0380038Y0065600D03*
X0380038Y0070600D03*
X0375038Y0070600D03*
X0375038Y0065600D03*
X0370038Y0065600D03*
X0370038Y0070600D03*
X0365038Y0070600D03*
X0365038Y0065600D03*
X0360038Y0065600D03*
X0360038Y0070600D03*
X0355038Y0070600D03*
X0355038Y0065600D03*
X0355038Y0075600D03*
X0360038Y0075600D03*
X0365038Y0075600D03*
X0370038Y0075600D03*
X0375038Y0075600D03*
X0380038Y0075600D03*
X0380038Y0080600D03*
X0380038Y0085600D03*
X0375038Y0085600D03*
X0375038Y0080600D03*
X0370038Y0080600D03*
X0370038Y0085600D03*
X0365038Y0085600D03*
X0365038Y0080600D03*
X0360038Y0080600D03*
X0360038Y0085600D03*
X0355038Y0085600D03*
X0355038Y0080600D03*
X0355038Y0090600D03*
X0360038Y0090600D03*
X0365038Y0090600D03*
X0370038Y0090600D03*
X0370038Y0095600D03*
X0365038Y0095600D03*
X0360038Y0095600D03*
X0355038Y0095600D03*
X0355038Y0100600D03*
X0360038Y0100600D03*
X0365038Y0100600D03*
X0370038Y0100600D03*
X0370038Y0105600D03*
X0365038Y0105600D03*
X0360038Y0105600D03*
X0355038Y0105600D03*
X0355038Y0110600D03*
X0360038Y0110600D03*
X0365038Y0110600D03*
X0370038Y0110600D03*
X0370038Y0115600D03*
X0365038Y0115600D03*
X0360038Y0115600D03*
X0355038Y0115600D03*
X0355038Y0120600D03*
X0360038Y0120600D03*
X0365038Y0120600D03*
X0370038Y0120600D03*
X0375038Y0120600D03*
X0380038Y0120600D03*
X0380038Y0115600D03*
X0380038Y0110600D03*
X0375038Y0110600D03*
X0375038Y0115600D03*
X0375038Y0105600D03*
X0380038Y0105600D03*
X0380038Y0100600D03*
X0375038Y0100600D03*
X0375038Y0095600D03*
X0380038Y0095600D03*
X0380038Y0090600D03*
X0375038Y0090600D03*
X0375038Y0125600D03*
X0380038Y0125600D03*
X0380038Y0130600D03*
X0375038Y0130600D03*
X0375038Y0135600D03*
X0380038Y0135600D03*
X0380038Y0140600D03*
X0375038Y0140600D03*
X0375038Y0145600D03*
X0380038Y0145600D03*
X0380038Y0150600D03*
X0375038Y0150600D03*
X0375038Y0155600D03*
X0380038Y0155600D03*
X0380038Y0160600D03*
X0375038Y0160600D03*
X0375038Y0165600D03*
X0380038Y0165600D03*
X0380038Y0170600D03*
X0375038Y0170600D03*
X0375038Y0175600D03*
X0380038Y0175600D03*
X0380038Y0180600D03*
X0380038Y0185600D03*
X0375038Y0185600D03*
X0375038Y0180600D03*
X0370038Y0180600D03*
X0370038Y0185600D03*
X0365038Y0185600D03*
X0365038Y0180600D03*
X0360038Y0180600D03*
X0360038Y0185600D03*
X0355038Y0185600D03*
X0355038Y0180600D03*
X0355038Y0175600D03*
X0360038Y0175600D03*
X0365038Y0175600D03*
X0370038Y0175600D03*
X0370038Y0170600D03*
X0370038Y0165600D03*
X0365038Y0165600D03*
X0365038Y0170600D03*
X0360038Y0170600D03*
X0360038Y0165600D03*
X0355038Y0165600D03*
X0355038Y0170600D03*
X0355038Y0160600D03*
X0360038Y0160600D03*
X0365038Y0160600D03*
X0370038Y0160600D03*
X0370038Y0155600D03*
X0365038Y0155600D03*
X0360038Y0155600D03*
X0355038Y0155600D03*
X0355038Y0150600D03*
X0360038Y0150600D03*
X0365038Y0150600D03*
X0370038Y0150600D03*
X0370038Y0145600D03*
X0365038Y0145600D03*
X0360038Y0145600D03*
X0355038Y0145600D03*
X0355038Y0140600D03*
X0360038Y0140600D03*
X0365038Y0140600D03*
X0370038Y0140600D03*
X0370038Y0135600D03*
X0365038Y0135600D03*
X0360038Y0135600D03*
X0355038Y0135600D03*
X0355038Y0130600D03*
X0360038Y0130600D03*
X0365038Y0130600D03*
X0370038Y0130600D03*
X0370038Y0125600D03*
X0365038Y0125600D03*
X0360038Y0125600D03*
X0355038Y0125600D03*
X0355038Y0190600D03*
X0360038Y0190600D03*
X0365038Y0190600D03*
X0370038Y0190600D03*
X0370038Y0195600D03*
X0365038Y0195600D03*
X0360038Y0195600D03*
X0355038Y0195600D03*
X0355038Y0200600D03*
X0360038Y0200600D03*
X0365038Y0200600D03*
X0370038Y0200600D03*
X0370038Y0205600D03*
X0365038Y0205600D03*
X0360038Y0205600D03*
X0355038Y0205600D03*
X0355038Y0210600D03*
X0360038Y0210600D03*
X0365038Y0210600D03*
X0370038Y0210600D03*
X0370038Y0215600D03*
X0365038Y0215600D03*
X0360038Y0215600D03*
X0355038Y0215600D03*
X0355038Y0220600D03*
X0360038Y0220600D03*
X0365038Y0220600D03*
X0370038Y0220600D03*
X0375038Y0220600D03*
X0380038Y0220600D03*
X0380038Y0215600D03*
X0380038Y0210600D03*
X0375038Y0210600D03*
X0375038Y0215600D03*
X0375038Y0205600D03*
X0380038Y0205600D03*
X0380038Y0200600D03*
X0375038Y0200600D03*
X0375038Y0195600D03*
X0380038Y0195600D03*
X0380038Y0190600D03*
X0375038Y0190600D03*
X0375038Y0225600D03*
X0380038Y0225600D03*
X0380038Y0230600D03*
X0375038Y0230600D03*
X0375038Y0235600D03*
X0380038Y0235600D03*
X0380038Y0240600D03*
X0375038Y0240600D03*
X0375038Y0245600D03*
X0380038Y0245600D03*
X0380038Y0250600D03*
X0375038Y0250600D03*
X0375038Y0255600D03*
X0380038Y0255600D03*
X0370038Y0255600D03*
X0365038Y0255600D03*
X0360038Y0255600D03*
X0355038Y0255600D03*
X0355038Y0250600D03*
X0360038Y0250600D03*
X0365038Y0250600D03*
X0370038Y0250600D03*
X0370038Y0245600D03*
X0365038Y0245600D03*
X0360038Y0245600D03*
X0355038Y0245600D03*
X0355038Y0240600D03*
X0360038Y0240600D03*
X0365038Y0240600D03*
X0370038Y0240600D03*
X0370038Y0235600D03*
X0365038Y0235600D03*
X0360038Y0235600D03*
X0355038Y0235600D03*
X0355038Y0230600D03*
X0360038Y0230600D03*
X0365038Y0230600D03*
X0370038Y0230600D03*
X0370038Y0225600D03*
X0365038Y0225600D03*
X0360038Y0225600D03*
X0355038Y0225600D03*
D11*
X0331778Y0099437D03*
X0324298Y0099437D03*
X0328038Y0091563D03*
X0304778Y0091437D03*
X0297298Y0091437D03*
X0301038Y0083563D03*
X0296153Y0078562D03*
X0288673Y0078562D03*
X0292413Y0070688D03*
X0302298Y0070437D03*
X0309778Y0070437D03*
X0306038Y0062563D03*
X0035278Y0254063D03*
X0027798Y0254063D03*
X0031538Y0261937D03*
X0035278Y0281563D03*
X0027798Y0281563D03*
X0031538Y0289437D03*
D12*
X0286538Y0258000D03*
X0326538Y0258000D03*
X0326538Y0210000D03*
X0316538Y0210000D03*
X0296538Y0210000D03*
X0286538Y0210000D03*
D13*
X0267038Y0272654D03*
X0267038Y0279346D03*
X0247538Y0279346D03*
X0247538Y0272654D03*
X0228038Y0273154D03*
X0228038Y0279846D03*
X0219038Y0279346D03*
X0219038Y0272654D03*
X0296691Y0285000D03*
X0303384Y0285000D03*
X0346191Y0297000D03*
X0346191Y0302500D03*
X0352884Y0302500D03*
X0352884Y0297000D03*
X0388316Y0298125D03*
X0395009Y0298125D03*
X0341038Y0076346D03*
X0341038Y0069654D03*
X0034884Y0247000D03*
X0028191Y0247000D03*
X0028191Y0274500D03*
X0034884Y0274500D03*
D14*
X0035191Y0305000D03*
X0041884Y0305000D03*
X0107538Y0303346D03*
X0107538Y0296654D03*
X0267538Y0237846D03*
X0267538Y0231154D03*
X0267538Y0225346D03*
X0267538Y0218654D03*
X0268038Y0244654D03*
X0268038Y0251346D03*
X0331038Y0305154D03*
X0331038Y0311846D03*
X0403163Y0304721D03*
X0403163Y0298029D03*
X0298884Y0058500D03*
X0292191Y0058500D03*
X0352038Y0021346D03*
X0352038Y0014654D03*
D15*
X0387164Y0276382D03*
X0390313Y0276382D03*
X0393463Y0276382D03*
X0396613Y0276382D03*
X0399762Y0276382D03*
X0402912Y0276382D03*
X0402912Y0286618D03*
X0399762Y0286618D03*
X0396613Y0286618D03*
X0393463Y0286618D03*
X0390313Y0286618D03*
X0387164Y0286618D03*
D16*
X0385983Y0281500D03*
X0404093Y0281500D03*
D17*
X0362876Y0273929D03*
X0360317Y0273929D03*
X0357758Y0273929D03*
X0355199Y0273929D03*
X0355199Y0290071D03*
X0357758Y0290071D03*
X0360317Y0290071D03*
X0362876Y0290071D03*
D18*
X0367109Y0285839D03*
X0367109Y0283280D03*
X0367109Y0280720D03*
X0367109Y0278161D03*
X0350967Y0278161D03*
X0350967Y0280720D03*
X0350967Y0283280D03*
X0350967Y0285839D03*
D19*
X0117475Y0283000D03*
X0109601Y0286740D03*
X0109601Y0279260D03*
X0322601Y0078240D03*
X0330475Y0074500D03*
X0322601Y0070760D03*
X0084475Y0066240D03*
X0084475Y0058760D03*
X0076601Y0062500D03*
D20*
X0076538Y0019941D03*
X0076538Y0025059D03*
X0310038Y0074941D03*
X0310038Y0080059D03*
X0335538Y0113441D03*
X0335538Y0118559D03*
X0179538Y0305441D03*
X0179538Y0310559D03*
X0159538Y0310559D03*
X0159538Y0305441D03*
X0140038Y0304941D03*
X0140038Y0310059D03*
X0120038Y0309559D03*
X0120038Y0304441D03*
D21*
X0034097Y0267500D03*
X0028979Y0267500D03*
X0026479Y0295500D03*
X0031597Y0295500D03*
X0037979Y0135000D03*
X0043097Y0135000D03*
X0043097Y0125500D03*
X0037979Y0125500D03*
X0098979Y0108000D03*
X0104097Y0108000D03*
X0087597Y0073000D03*
X0082479Y0073000D03*
X0314479Y0090000D03*
X0319597Y0090000D03*
X0322479Y0084000D03*
X0327597Y0084000D03*
X0336979Y0099500D03*
X0342097Y0099500D03*
D22*
X0247038Y0214890D03*
X0242038Y0214890D03*
X0237038Y0214890D03*
X0232038Y0214890D03*
X0227038Y0214890D03*
X0222038Y0214890D03*
X0217038Y0214890D03*
X0212038Y0214890D03*
X0207038Y0214890D03*
X0202038Y0214890D03*
X0202038Y0251110D03*
X0207038Y0251110D03*
X0212038Y0251110D03*
X0217038Y0251110D03*
X0222038Y0251110D03*
X0227038Y0251110D03*
X0232038Y0251110D03*
X0237038Y0251110D03*
X0242038Y0251110D03*
X0247038Y0251110D03*
D23*
X0115648Y0233500D03*
X0115648Y0228500D03*
X0115648Y0223500D03*
X0115648Y0218500D03*
X0115648Y0213500D03*
X0115648Y0208500D03*
X0115648Y0203500D03*
X0115648Y0198500D03*
X0115648Y0193500D03*
X0115648Y0188500D03*
X0115648Y0181500D03*
X0115648Y0176500D03*
X0115648Y0171500D03*
X0115648Y0166500D03*
X0115648Y0161500D03*
X0115648Y0156500D03*
X0115648Y0151500D03*
X0115648Y0146500D03*
X0115648Y0141500D03*
X0115648Y0136500D03*
X0079428Y0136500D03*
X0079428Y0141500D03*
X0079428Y0146500D03*
X0079428Y0151500D03*
X0079428Y0156500D03*
X0079428Y0161500D03*
X0079428Y0166500D03*
X0079428Y0171500D03*
X0079428Y0176500D03*
X0079428Y0181500D03*
X0079428Y0188500D03*
X0079428Y0193500D03*
X0079428Y0198500D03*
X0079428Y0203500D03*
X0079428Y0208500D03*
X0079428Y0213500D03*
X0079428Y0218500D03*
X0079428Y0223500D03*
X0079428Y0228500D03*
X0079428Y0233500D03*
M02*
