G75*
%MOIN*%
%OFA0B0*%
%FSLAX25Y25*%
%IPPOS*%
%LPD*%
%AMOC8*
5,1,8,0,0,1.08239X$1,22.5*
%
%ADD10C,0.00600*%
%ADD11R,0.00600X0.00300*%
%ADD12R,0.03000X0.00300*%
%ADD13R,0.12000X0.00300*%
%ADD14R,0.25800X0.00300*%
%ADD15R,0.03300X0.00300*%
%ADD16R,0.39300X0.00300*%
%ADD17R,0.52800X0.00300*%
%ADD18R,0.66600X0.00300*%
%ADD19R,0.80100X0.00300*%
%ADD20R,0.93900X0.00300*%
%ADD21R,1.07400X0.00300*%
%ADD22R,1.20900X0.00300*%
%ADD23R,1.34400X0.00300*%
%ADD24R,0.03600X0.00300*%
%ADD25R,0.03900X0.00300*%
%ADD26R,0.89400X0.00300*%
%ADD27R,0.89100X0.00300*%
%ADD28R,0.05700X0.00300*%
%ADD29R,0.37500X0.00300*%
%ADD30R,0.09000X0.00300*%
%ADD31R,0.16200X0.00300*%
%ADD32R,0.11400X0.00300*%
%ADD33R,0.06300X0.00300*%
%ADD34R,0.05100X0.00300*%
%ADD35R,0.06900X0.00300*%
%ADD36R,0.07800X0.00300*%
%ADD37R,0.05400X0.00300*%
%ADD38R,0.04800X0.00300*%
%ADD39R,0.07200X0.00300*%
%ADD40R,0.00300X0.00300*%
%ADD41R,0.04500X0.00300*%
%ADD42R,0.06000X0.00300*%
%ADD43R,0.04200X0.00300*%
%ADD44R,0.07500X0.00300*%
%ADD45R,0.08100X0.00300*%
%ADD46R,0.08400X0.00300*%
%ADD47R,0.01800X0.00300*%
%ADD48R,0.08700X0.00300*%
%ADD49R,0.10500X0.00300*%
%ADD50R,0.71700X0.00300*%
%ADD51R,0.02100X0.00300*%
%ADD52R,0.09600X0.00300*%
%ADD53R,0.09900X0.00300*%
%ADD54R,0.10200X0.00300*%
%ADD55R,0.06600X0.00300*%
%ADD56R,0.12300X0.00300*%
%ADD57R,0.72000X0.00300*%
%ADD58R,0.12600X0.00300*%
%ADD59R,0.12900X0.00300*%
%ADD60R,0.00900X0.00300*%
%ADD61R,0.02400X0.00300*%
%ADD62R,0.02700X0.00300*%
%ADD63R,0.01500X0.00300*%
%ADD64R,0.01200X0.00300*%
%ADD65R,0.11700X0.00300*%
%ADD66R,0.11100X0.00300*%
%ADD67R,0.13200X0.00300*%
%ADD68R,0.09300X0.00300*%
%ADD69C,0.00000*%
%ADD70C,0.01969*%
%ADD71C,0.00300*%
%ADD72C,0.00400*%
%ADD73C,0.00500*%
%ADD74R,0.05000X0.27122*%
%ADD75R,0.05000X0.27122*%
%ADD76R,0.10000X0.03252*%
%ADD77C,0.02200*%
%ADD78C,0.00800*%
%ADD79C,0.01000*%
%ADD80C,0.00100*%
%ADD81C,0.01200*%
D10*
X0109761Y0007232D02*
X0110829Y0006165D01*
X0111897Y0006165D01*
X0112964Y0008300D02*
X0109761Y0008300D01*
X0109761Y0007232D02*
X0109761Y0012570D01*
X0114032Y0012570D02*
X0114032Y0009368D01*
X0112964Y0008300D01*
X0116207Y0008300D02*
X0116207Y0011503D01*
X0117274Y0012570D01*
X0119410Y0012570D01*
X0119410Y0010435D02*
X0116207Y0010435D01*
X0116207Y0008300D02*
X0119410Y0008300D01*
X0120477Y0009368D01*
X0119410Y0010435D01*
X0122652Y0008300D02*
X0126923Y0008300D01*
X0126923Y0014705D01*
X0129098Y0011503D02*
X0129098Y0010435D01*
X0133368Y0010435D01*
X0133368Y0009368D02*
X0133368Y0011503D01*
X0132301Y0012570D01*
X0130165Y0012570D01*
X0129098Y0011503D01*
X0130165Y0008300D02*
X0132301Y0008300D01*
X0133368Y0009368D01*
X0135543Y0009368D02*
X0135543Y0013638D01*
X0136611Y0014705D01*
X0139814Y0014705D01*
X0139814Y0008300D01*
X0136611Y0008300D01*
X0135543Y0009368D01*
X0148421Y0008300D02*
X0150556Y0008300D01*
X0149489Y0008300D02*
X0149489Y0014705D01*
X0150556Y0014705D01*
X0152731Y0011503D02*
X0152731Y0010435D01*
X0157002Y0010435D01*
X0157002Y0009368D02*
X0157002Y0011503D01*
X0155934Y0012570D01*
X0153799Y0012570D01*
X0152731Y0011503D01*
X0153799Y0008300D02*
X0155934Y0008300D01*
X0157002Y0009368D01*
X0159177Y0010435D02*
X0162380Y0010435D01*
X0163447Y0009368D01*
X0162380Y0008300D01*
X0159177Y0008300D01*
X0159177Y0011503D01*
X0160244Y0012570D01*
X0162380Y0012570D01*
X0165622Y0011503D02*
X0165622Y0008300D01*
X0165622Y0011503D02*
X0166690Y0012570D01*
X0168825Y0012570D01*
X0169893Y0011503D01*
X0172068Y0012570D02*
X0175271Y0012570D01*
X0176338Y0011503D01*
X0176338Y0009368D01*
X0175271Y0008300D01*
X0172068Y0008300D01*
X0169893Y0008300D02*
X0169893Y0014705D01*
X0179568Y0014705D02*
X0179568Y0015773D01*
X0179568Y0012570D02*
X0179568Y0008300D01*
X0180635Y0008300D02*
X0178500Y0008300D01*
X0182810Y0008300D02*
X0182810Y0014705D01*
X0184945Y0012570D01*
X0187081Y0014705D01*
X0187081Y0008300D01*
X0180635Y0012570D02*
X0179568Y0012570D01*
X0195701Y0010435D02*
X0197836Y0008300D01*
X0198904Y0008300D01*
X0199972Y0009368D01*
X0199972Y0010435D01*
X0197836Y0012570D01*
X0197836Y0013638D01*
X0198904Y0014705D01*
X0199972Y0013638D01*
X0199972Y0012570D01*
X0195701Y0008300D01*
X0208592Y0008300D02*
X0208592Y0011503D01*
X0209660Y0012570D01*
X0212863Y0012570D01*
X0212863Y0008300D01*
X0215038Y0009368D02*
X0215038Y0011503D01*
X0216105Y0012570D01*
X0218241Y0012570D01*
X0219308Y0011503D01*
X0219308Y0009368D01*
X0218241Y0008300D01*
X0216105Y0008300D01*
X0215038Y0009368D01*
X0221483Y0009368D02*
X0222551Y0010435D01*
X0224686Y0010435D01*
X0225754Y0011503D01*
X0224686Y0012570D01*
X0221483Y0012570D01*
X0221483Y0009368D02*
X0222551Y0008300D01*
X0225754Y0008300D01*
X0227915Y0008300D02*
X0230051Y0008300D01*
X0228983Y0008300D02*
X0228983Y0014705D01*
X0230051Y0014705D01*
X0233280Y0014705D02*
X0233280Y0008300D01*
X0234348Y0008300D02*
X0232212Y0008300D01*
X0236509Y0008300D02*
X0238645Y0008300D01*
X0237577Y0008300D02*
X0237577Y0012570D01*
X0238645Y0012570D01*
X0237577Y0014705D02*
X0237577Y0015773D01*
X0234348Y0014705D02*
X0233280Y0014705D01*
X0240820Y0014705D02*
X0240820Y0008300D01*
X0242955Y0010435D01*
X0245090Y0008300D01*
X0245090Y0014705D01*
X0253711Y0012570D02*
X0256914Y0012570D01*
X0257981Y0011503D01*
X0256914Y0010435D01*
X0254778Y0010435D01*
X0253711Y0009368D01*
X0254778Y0008300D01*
X0257981Y0008300D01*
X0260156Y0008300D02*
X0260156Y0011503D01*
X0261224Y0012570D01*
X0263359Y0012570D01*
X0263359Y0010435D02*
X0260156Y0010435D01*
X0260156Y0008300D02*
X0263359Y0008300D01*
X0264427Y0009368D01*
X0263359Y0010435D01*
X0266602Y0011503D02*
X0266602Y0008300D01*
X0268737Y0008300D02*
X0268737Y0011503D01*
X0267669Y0012570D01*
X0266602Y0011503D01*
X0268737Y0011503D02*
X0269805Y0012570D01*
X0270872Y0012570D01*
X0270872Y0008300D01*
X0273047Y0009368D02*
X0273047Y0011503D01*
X0274115Y0012570D01*
X0276250Y0012570D01*
X0277318Y0011503D01*
X0277318Y0009368D01*
X0276250Y0008300D01*
X0274115Y0008300D01*
X0273047Y0009368D01*
X0279493Y0008300D02*
X0279493Y0011503D01*
X0280560Y0012570D01*
X0282696Y0012570D01*
X0283763Y0011503D01*
X0283763Y0014705D02*
X0283763Y0008300D01*
X0288073Y0008300D02*
X0288073Y0014705D01*
X0285938Y0014705D02*
X0290209Y0014705D01*
X0298809Y0012570D02*
X0298809Y0011503D01*
X0299877Y0011503D01*
X0299877Y0012570D01*
X0298809Y0012570D01*
X0298809Y0009368D02*
X0298809Y0008300D01*
X0299877Y0008300D01*
X0299877Y0009368D01*
X0298809Y0009368D01*
X0302052Y0008300D02*
X0305255Y0008300D01*
X0306322Y0009368D01*
X0306322Y0012570D01*
X0308498Y0012570D02*
X0309565Y0011503D01*
X0312768Y0011503D01*
X0312768Y0014705D02*
X0312768Y0008300D01*
X0309565Y0008300D01*
X0308498Y0009368D01*
X0308498Y0010435D01*
X0309565Y0011503D01*
X0308498Y0012570D02*
X0308498Y0013638D01*
X0309565Y0014705D01*
X0312768Y0014705D01*
X0321388Y0011503D02*
X0321388Y0008300D01*
X0321388Y0011503D02*
X0322456Y0012570D01*
X0325659Y0012570D01*
X0325659Y0008300D01*
X0327834Y0008300D02*
X0331037Y0008300D01*
X0332104Y0009368D01*
X0332104Y0011503D01*
X0331037Y0012570D01*
X0327834Y0012570D01*
X0327834Y0007232D01*
X0328902Y0006165D01*
X0329969Y0006165D01*
X0334266Y0008300D02*
X0336401Y0008300D01*
X0335334Y0008300D02*
X0335334Y0012570D01*
X0336401Y0012570D01*
X0338576Y0012570D02*
X0341779Y0012570D01*
X0342847Y0011503D01*
X0341779Y0010435D01*
X0339644Y0010435D01*
X0338576Y0009368D01*
X0339644Y0008300D01*
X0342847Y0008300D01*
X0345022Y0010435D02*
X0349292Y0010435D01*
X0349292Y0009368D02*
X0349292Y0011503D01*
X0348225Y0012570D01*
X0346090Y0012570D01*
X0345022Y0011503D01*
X0345022Y0010435D01*
X0346090Y0008300D02*
X0348225Y0008300D01*
X0349292Y0009368D01*
X0351467Y0009368D02*
X0351467Y0013638D01*
X0352535Y0014705D01*
X0355738Y0014705D01*
X0355738Y0008300D01*
X0352535Y0008300D01*
X0351467Y0009368D01*
X0335334Y0014705D02*
X0335334Y0015773D01*
X0304187Y0006165D02*
X0303120Y0006165D01*
X0302052Y0007232D01*
X0302052Y0012570D01*
X0296211Y0060665D02*
X0295144Y0060665D01*
X0294076Y0061732D01*
X0294076Y0067070D01*
X0291901Y0067070D02*
X0291901Y0066003D01*
X0290833Y0066003D01*
X0290833Y0067070D01*
X0291901Y0067070D01*
X0291901Y0063868D02*
X0291901Y0062800D01*
X0290833Y0062800D01*
X0290833Y0063868D01*
X0291901Y0063868D01*
X0294076Y0062800D02*
X0297279Y0062800D01*
X0298346Y0063868D01*
X0298346Y0067070D01*
X0300521Y0067070D02*
X0301589Y0066003D01*
X0304792Y0066003D01*
X0304792Y0069205D02*
X0304792Y0062800D01*
X0301589Y0062800D01*
X0300521Y0063868D01*
X0300521Y0064935D01*
X0301589Y0066003D01*
X0300521Y0067070D02*
X0300521Y0068138D01*
X0301589Y0069205D01*
X0304792Y0069205D01*
X0313399Y0067070D02*
X0315534Y0067070D01*
X0314467Y0068138D02*
X0314467Y0063868D01*
X0313399Y0062800D01*
X0317709Y0062800D02*
X0317709Y0067070D01*
X0317709Y0062800D02*
X0320912Y0062800D01*
X0321980Y0063868D01*
X0321980Y0067070D01*
X0324155Y0066003D02*
X0325223Y0067070D01*
X0327358Y0067070D01*
X0328425Y0066003D01*
X0328425Y0063868D01*
X0327358Y0062800D01*
X0325223Y0062800D01*
X0324155Y0063868D01*
X0324155Y0066003D01*
X0330600Y0067070D02*
X0330600Y0061732D01*
X0331668Y0060665D01*
X0332736Y0060665D01*
X0333803Y0062800D02*
X0330600Y0062800D01*
X0333803Y0062800D02*
X0334871Y0063868D01*
X0334871Y0067070D01*
X0337046Y0066003D02*
X0337046Y0062800D01*
X0340249Y0062800D01*
X0341316Y0063868D01*
X0340249Y0064935D01*
X0337046Y0064935D01*
X0337046Y0066003D02*
X0338114Y0067070D01*
X0340249Y0067070D01*
X0343491Y0062800D02*
X0347762Y0062800D01*
X0347762Y0069205D01*
X0282233Y0069205D02*
X0282233Y0062800D01*
X0277962Y0062800D02*
X0277962Y0069205D01*
X0280097Y0067070D01*
X0282233Y0069205D01*
X0275787Y0067070D02*
X0274719Y0067070D01*
X0274719Y0062800D01*
X0273652Y0062800D02*
X0275787Y0062800D01*
X0271490Y0063868D02*
X0271490Y0066003D01*
X0270422Y0067070D01*
X0267220Y0067070D01*
X0265045Y0066003D02*
X0263977Y0067070D01*
X0261842Y0067070D01*
X0260774Y0066003D01*
X0260774Y0062800D01*
X0258599Y0063868D02*
X0257531Y0064935D01*
X0254329Y0064935D01*
X0254329Y0066003D02*
X0254329Y0062800D01*
X0257531Y0062800D01*
X0258599Y0063868D01*
X0257531Y0067070D02*
X0255396Y0067070D01*
X0254329Y0066003D01*
X0252154Y0066003D02*
X0251086Y0067070D01*
X0248951Y0067070D01*
X0247883Y0066003D01*
X0247883Y0064935D01*
X0252154Y0064935D01*
X0252154Y0063868D02*
X0252154Y0066003D01*
X0252154Y0063868D02*
X0251086Y0062800D01*
X0248951Y0062800D01*
X0245708Y0062800D02*
X0243573Y0062800D01*
X0244640Y0062800D02*
X0244640Y0069205D01*
X0245708Y0069205D01*
X0234966Y0069205D02*
X0234966Y0062800D01*
X0231763Y0062800D01*
X0230695Y0063868D01*
X0230695Y0068138D01*
X0231763Y0069205D01*
X0234966Y0069205D01*
X0228520Y0066003D02*
X0228520Y0063868D01*
X0227452Y0062800D01*
X0225317Y0062800D01*
X0224250Y0064935D02*
X0228520Y0064935D01*
X0228520Y0066003D02*
X0227452Y0067070D01*
X0225317Y0067070D01*
X0224250Y0066003D01*
X0224250Y0064935D01*
X0222075Y0062800D02*
X0217804Y0062800D01*
X0215629Y0063868D02*
X0214561Y0064935D01*
X0211359Y0064935D01*
X0211359Y0066003D02*
X0211359Y0062800D01*
X0214561Y0062800D01*
X0215629Y0063868D01*
X0214561Y0067070D02*
X0212426Y0067070D01*
X0211359Y0066003D01*
X0209184Y0067070D02*
X0209184Y0063868D01*
X0208116Y0062800D01*
X0204913Y0062800D01*
X0204913Y0061732D02*
X0205981Y0060665D01*
X0207048Y0060665D01*
X0204913Y0061732D02*
X0204913Y0067070D01*
X0222075Y0069205D02*
X0222075Y0062800D01*
X0265045Y0062800D02*
X0265045Y0069205D01*
X0267220Y0062800D02*
X0270422Y0062800D01*
X0271490Y0063868D01*
X0274719Y0069205D02*
X0274719Y0070273D01*
X0386050Y0194600D02*
X0404025Y0194600D01*
X0388438Y0198100D02*
X0388440Y0198184D01*
X0388446Y0198269D01*
X0388456Y0198352D01*
X0388470Y0198436D01*
X0388487Y0198518D01*
X0388509Y0198600D01*
X0388534Y0198680D01*
X0388563Y0198759D01*
X0388596Y0198837D01*
X0388632Y0198913D01*
X0388672Y0198988D01*
X0388716Y0199060D01*
X0388762Y0199131D01*
X0388812Y0199199D01*
X0388865Y0199264D01*
X0388921Y0199327D01*
X0388980Y0199388D01*
X0389042Y0199445D01*
X0389106Y0199500D01*
X0389173Y0199551D01*
X0389242Y0199600D01*
X0389314Y0199645D01*
X0389387Y0199686D01*
X0389462Y0199724D01*
X0389539Y0199759D01*
X0389618Y0199790D01*
X0389698Y0199817D01*
X0389779Y0199840D01*
X0389861Y0199860D01*
X0389944Y0199876D01*
X0390027Y0199888D01*
X0390112Y0199896D01*
X0390196Y0199900D01*
X0390280Y0199900D01*
X0390364Y0199896D01*
X0390449Y0199888D01*
X0390532Y0199876D01*
X0390615Y0199860D01*
X0390697Y0199840D01*
X0390778Y0199817D01*
X0390858Y0199790D01*
X0390937Y0199759D01*
X0391014Y0199724D01*
X0391089Y0199686D01*
X0391162Y0199645D01*
X0391234Y0199600D01*
X0391303Y0199551D01*
X0391370Y0199500D01*
X0391434Y0199445D01*
X0391496Y0199388D01*
X0391555Y0199327D01*
X0391611Y0199264D01*
X0391664Y0199199D01*
X0391714Y0199131D01*
X0391760Y0199060D01*
X0391804Y0198988D01*
X0391844Y0198913D01*
X0391880Y0198837D01*
X0391913Y0198759D01*
X0391942Y0198680D01*
X0391967Y0198600D01*
X0391989Y0198518D01*
X0392006Y0198436D01*
X0392020Y0198352D01*
X0392030Y0198269D01*
X0392036Y0198184D01*
X0392038Y0198100D01*
X0392036Y0198016D01*
X0392030Y0197931D01*
X0392020Y0197848D01*
X0392006Y0197764D01*
X0391989Y0197682D01*
X0391967Y0197600D01*
X0391942Y0197520D01*
X0391913Y0197441D01*
X0391880Y0197363D01*
X0391844Y0197287D01*
X0391804Y0197212D01*
X0391760Y0197140D01*
X0391714Y0197069D01*
X0391664Y0197001D01*
X0391611Y0196936D01*
X0391555Y0196873D01*
X0391496Y0196812D01*
X0391434Y0196755D01*
X0391370Y0196700D01*
X0391303Y0196649D01*
X0391234Y0196600D01*
X0391162Y0196555D01*
X0391089Y0196514D01*
X0391014Y0196476D01*
X0390937Y0196441D01*
X0390858Y0196410D01*
X0390778Y0196383D01*
X0390697Y0196360D01*
X0390615Y0196340D01*
X0390532Y0196324D01*
X0390449Y0196312D01*
X0390364Y0196304D01*
X0390280Y0196300D01*
X0390196Y0196300D01*
X0390112Y0196304D01*
X0390027Y0196312D01*
X0389944Y0196324D01*
X0389861Y0196340D01*
X0389779Y0196360D01*
X0389698Y0196383D01*
X0389618Y0196410D01*
X0389539Y0196441D01*
X0389462Y0196476D01*
X0389387Y0196514D01*
X0389314Y0196555D01*
X0389242Y0196600D01*
X0389173Y0196649D01*
X0389106Y0196700D01*
X0389042Y0196755D01*
X0388980Y0196812D01*
X0388921Y0196873D01*
X0388865Y0196936D01*
X0388812Y0197001D01*
X0388762Y0197069D01*
X0388716Y0197140D01*
X0388672Y0197212D01*
X0388632Y0197287D01*
X0388596Y0197363D01*
X0388563Y0197441D01*
X0388534Y0197520D01*
X0388509Y0197600D01*
X0388487Y0197682D01*
X0388470Y0197764D01*
X0388456Y0197848D01*
X0388446Y0197931D01*
X0388440Y0198016D01*
X0388438Y0198100D01*
X0386050Y0214400D02*
X0404025Y0214400D01*
X0254738Y0226800D02*
X0254738Y0234206D01*
X0249800Y0234206D01*
X0247372Y0232972D02*
X0247372Y0231738D01*
X0246137Y0230503D01*
X0243668Y0230503D01*
X0242434Y0229269D01*
X0242434Y0228034D01*
X0243668Y0226800D01*
X0246137Y0226800D01*
X0247372Y0228034D01*
X0252269Y0230503D02*
X0254738Y0230503D01*
X0247372Y0232972D02*
X0246137Y0234206D01*
X0243668Y0234206D01*
X0242434Y0232972D01*
X0240005Y0231738D02*
X0237536Y0234206D01*
X0235068Y0231738D01*
X0235068Y0226800D01*
X0232639Y0226800D02*
X0227701Y0226800D01*
X0230170Y0230503D02*
X0232639Y0230503D01*
X0235068Y0230503D02*
X0240005Y0230503D01*
X0240005Y0231738D02*
X0240005Y0226800D01*
X0232639Y0226800D02*
X0232639Y0234206D01*
X0227701Y0234206D01*
X0226494Y0238800D02*
X0224025Y0238800D01*
X0222791Y0240034D01*
X0222791Y0244972D01*
X0224025Y0246206D01*
X0226494Y0246206D01*
X0227728Y0244972D01*
X0227728Y0240034D01*
X0226494Y0238800D01*
X0230170Y0238800D02*
X0232639Y0238800D01*
X0231405Y0238800D02*
X0231405Y0246206D01*
X0232639Y0246206D02*
X0230170Y0246206D01*
X0235068Y0244972D02*
X0235068Y0242503D01*
X0236302Y0241269D01*
X0240005Y0241269D01*
X0237536Y0241269D02*
X0235068Y0238800D01*
X0240005Y0238800D02*
X0240005Y0246206D01*
X0236302Y0246206D01*
X0235068Y0244972D01*
X0242434Y0242503D02*
X0243668Y0243738D01*
X0247372Y0243738D01*
X0249800Y0243738D02*
X0253503Y0243738D01*
X0254738Y0242503D01*
X0253503Y0241269D01*
X0251035Y0241269D01*
X0249800Y0240034D01*
X0251035Y0238800D01*
X0254738Y0238800D01*
X0247372Y0238800D02*
X0243668Y0238800D01*
X0242434Y0240034D01*
X0242434Y0242503D01*
X0247372Y0246206D02*
X0247372Y0238800D01*
X0217906Y0234206D02*
X0217906Y0226800D01*
X0212969Y0226800D01*
X0210540Y0226800D02*
X0208071Y0226800D01*
X0209306Y0226800D02*
X0209306Y0234206D01*
X0210540Y0234206D01*
X0212969Y0234206D02*
X0217906Y0234206D01*
X0217906Y0230503D02*
X0215438Y0230503D01*
X0212995Y0238800D02*
X0209292Y0238800D01*
X0208058Y0240034D01*
X0208058Y0244972D01*
X0209292Y0246206D01*
X0212995Y0246206D01*
X0212995Y0238800D01*
X0205629Y0240034D02*
X0204395Y0241269D01*
X0200692Y0241269D01*
X0200692Y0242503D02*
X0200692Y0238800D01*
X0204395Y0238800D01*
X0205629Y0240034D01*
X0204395Y0243738D02*
X0201926Y0243738D01*
X0200692Y0242503D01*
X0198263Y0243738D02*
X0198263Y0240034D01*
X0197029Y0238800D01*
X0193325Y0238800D01*
X0193325Y0243738D01*
X0190897Y0242503D02*
X0190897Y0240034D01*
X0189662Y0238800D01*
X0185959Y0238800D01*
X0185959Y0237566D02*
X0185959Y0243738D01*
X0189662Y0243738D01*
X0190897Y0242503D01*
X0188428Y0236331D02*
X0187193Y0236331D01*
X0185959Y0237566D01*
X0183530Y0238800D02*
X0183530Y0246206D01*
X0182296Y0243738D02*
X0179827Y0243738D01*
X0178593Y0242503D01*
X0178593Y0238800D01*
X0178613Y0235441D02*
X0178613Y0234206D01*
X0178613Y0231738D02*
X0178613Y0226800D01*
X0179847Y0226800D02*
X0177378Y0226800D01*
X0174936Y0228034D02*
X0174936Y0230503D01*
X0173702Y0231738D01*
X0169999Y0231738D01*
X0169999Y0226800D02*
X0173702Y0226800D01*
X0174936Y0228034D01*
X0178613Y0231738D02*
X0179847Y0231738D01*
X0182283Y0231738D02*
X0183517Y0231738D01*
X0185986Y0229269D01*
X0185986Y0226800D02*
X0185986Y0231738D01*
X0188428Y0231738D02*
X0190897Y0231738D01*
X0189662Y0232972D02*
X0189662Y0228034D01*
X0188428Y0226800D01*
X0193325Y0226800D02*
X0197029Y0226800D01*
X0198263Y0228034D01*
X0198263Y0230503D01*
X0197029Y0231738D01*
X0193325Y0231738D01*
X0200692Y0230503D02*
X0200692Y0229269D01*
X0205629Y0229269D01*
X0205629Y0230503D02*
X0204395Y0231738D01*
X0201926Y0231738D01*
X0200692Y0230503D01*
X0201926Y0226800D02*
X0204395Y0226800D01*
X0205629Y0228034D01*
X0205629Y0230503D01*
X0183530Y0242503D02*
X0182296Y0243738D01*
X0176164Y0243738D02*
X0173695Y0243738D01*
X0174930Y0244972D02*
X0174930Y0240034D01*
X0173695Y0238800D01*
X0171253Y0240034D02*
X0171253Y0242503D01*
X0170019Y0243738D01*
X0167550Y0243738D01*
X0166316Y0242503D01*
X0166316Y0241269D01*
X0171253Y0241269D01*
X0171253Y0240034D02*
X0170019Y0238800D01*
X0167550Y0238800D01*
X0163887Y0238800D02*
X0163887Y0243738D01*
X0161418Y0243738D02*
X0160184Y0243738D01*
X0161418Y0243738D02*
X0163887Y0241269D01*
X0158969Y0234206D02*
X0156501Y0234206D01*
X0155266Y0232972D01*
X0155266Y0231738D01*
X0160204Y0226800D01*
X0155266Y0226800D01*
X0152837Y0228034D02*
X0147900Y0232972D01*
X0147900Y0228034D01*
X0149134Y0226800D01*
X0151603Y0226800D01*
X0152837Y0228034D01*
X0152837Y0232972D01*
X0151603Y0234206D01*
X0149134Y0234206D01*
X0147900Y0232972D01*
X0145471Y0231738D02*
X0143002Y0234206D01*
X0143002Y0226800D01*
X0140534Y0226800D02*
X0145471Y0226800D01*
X0138105Y0228034D02*
X0136870Y0226800D01*
X0134402Y0226800D01*
X0133167Y0228034D01*
X0133167Y0229269D01*
X0134402Y0230503D01*
X0138105Y0230503D01*
X0138105Y0228034D01*
X0138105Y0230503D02*
X0135636Y0232972D01*
X0133167Y0234206D01*
X0135649Y0238800D02*
X0135649Y0243738D01*
X0133181Y0243738D02*
X0131946Y0243738D01*
X0133181Y0243738D02*
X0135649Y0241269D01*
X0138078Y0241269D02*
X0141781Y0241269D01*
X0143016Y0240034D01*
X0141781Y0238800D01*
X0138078Y0238800D01*
X0138078Y0242503D01*
X0139313Y0243738D01*
X0141781Y0243738D01*
X0145444Y0244972D02*
X0146679Y0246206D01*
X0149148Y0246206D01*
X0150382Y0244972D01*
X0150382Y0240034D01*
X0149148Y0238800D01*
X0146679Y0238800D01*
X0145444Y0240034D01*
X0158969Y0234206D02*
X0160204Y0232972D01*
X0129511Y0240034D02*
X0129511Y0242503D01*
X0128276Y0243738D01*
X0124573Y0243738D01*
X0124573Y0246206D02*
X0124573Y0238800D01*
X0128276Y0238800D01*
X0129511Y0240034D01*
X0114778Y0243738D02*
X0112310Y0238800D01*
X0109841Y0243738D01*
X0107412Y0242503D02*
X0104943Y0243738D01*
X0103709Y0243738D01*
X0102474Y0242503D01*
X0102474Y0240034D01*
X0103709Y0238800D01*
X0106178Y0238800D01*
X0107412Y0240034D01*
X0107412Y0242503D02*
X0107412Y0246206D01*
X0102474Y0246206D01*
D11*
X0185288Y0172000D03*
X0185288Y0171700D03*
X0185288Y0171400D03*
X0185288Y0171100D03*
X0185588Y0170500D03*
X0185588Y0170200D03*
X0185588Y0169900D03*
X0185588Y0169600D03*
X0185588Y0169300D03*
X0191288Y0171100D03*
X0191288Y0171400D03*
X0191288Y0171700D03*
X0191288Y0172000D03*
X0197288Y0172000D03*
X0197588Y0169600D03*
X0197588Y0169300D03*
X0208088Y0169900D03*
X0208388Y0169600D03*
X0208088Y0171400D03*
X0208088Y0171700D03*
X0208088Y0172000D03*
X0214088Y0172000D03*
X0214088Y0171700D03*
X0214088Y0171400D03*
X0214388Y0170800D03*
X0214388Y0170500D03*
X0214388Y0170200D03*
X0214388Y0169900D03*
X0214388Y0169600D03*
X0223988Y0169600D03*
X0223988Y0169300D03*
X0223688Y0172000D03*
X0234188Y0172600D03*
X0234188Y0172900D03*
X0234188Y0173200D03*
X0234488Y0171700D03*
X0234488Y0171400D03*
X0234488Y0171100D03*
X0234488Y0170800D03*
X0234488Y0170500D03*
X0234488Y0170200D03*
X0234488Y0169900D03*
X0249488Y0172600D03*
X0249488Y0172900D03*
X0249488Y0173200D03*
X0250088Y0169300D03*
X0250088Y0169000D03*
X0250088Y0168700D03*
X0250088Y0168400D03*
X0256388Y0168400D03*
X0256388Y0168700D03*
X0256388Y0169000D03*
X0262388Y0169300D03*
X0262388Y0169600D03*
X0273788Y0178600D03*
X0273788Y0179500D03*
X0273488Y0180100D03*
X0274088Y0184600D03*
X0297788Y0185500D03*
X0297788Y0185800D03*
X0298088Y0184000D03*
X0298088Y0183700D03*
X0298088Y0183400D03*
X0298088Y0183100D03*
X0331388Y0179800D03*
X0187688Y0160300D03*
D12*
X0187688Y0160900D03*
X0188288Y0160600D03*
X0189788Y0163600D03*
X0190388Y0163300D03*
X0190988Y0163000D03*
X0194888Y0161200D03*
X0195488Y0160900D03*
X0196088Y0160600D03*
X0183788Y0162700D03*
X0183188Y0163000D03*
X0182588Y0163300D03*
X0181988Y0163600D03*
X0270788Y0178300D03*
X0270188Y0184300D03*
X0270188Y0184600D03*
X0269888Y0184900D03*
X0273788Y0186400D03*
X0273788Y0186700D03*
X0279188Y0178300D03*
X0320888Y0183700D03*
X0339488Y0178300D03*
D13*
X0241988Y0181000D03*
X0207788Y0160900D03*
X0184088Y0176800D03*
X0183488Y0187900D03*
X0183188Y0188500D03*
D14*
X0214088Y0161200D03*
D15*
X0211238Y0170200D03*
X0211238Y0170500D03*
X0211238Y0170800D03*
X0211238Y0171100D03*
X0205238Y0169300D03*
X0205238Y0169000D03*
X0204938Y0171700D03*
X0194138Y0161500D03*
X0193538Y0161800D03*
X0192938Y0162100D03*
X0192338Y0162400D03*
X0191738Y0162700D03*
X0186938Y0161200D03*
X0186338Y0161500D03*
X0185738Y0161800D03*
X0185138Y0162100D03*
X0184538Y0162400D03*
X0188438Y0170800D03*
X0188438Y0171100D03*
X0188438Y0171400D03*
X0188138Y0172000D03*
X0188138Y0172300D03*
X0227138Y0169600D03*
X0227138Y0169300D03*
X0231638Y0169300D03*
X0231638Y0169000D03*
X0231338Y0171100D03*
X0231338Y0171400D03*
X0231338Y0171700D03*
X0231338Y0172000D03*
X0237638Y0169000D03*
X0237638Y0168700D03*
X0253238Y0168400D03*
X0259238Y0169300D03*
X0259238Y0169600D03*
X0259538Y0168700D03*
X0270338Y0184000D03*
X0279038Y0179800D03*
X0279038Y0179500D03*
X0279038Y0179200D03*
X0279038Y0178900D03*
X0279038Y0178600D03*
X0320738Y0184000D03*
X0320738Y0184300D03*
X0320738Y0184600D03*
D16*
X0220238Y0161500D03*
D17*
X0226388Y0161800D03*
D18*
X0232388Y0162100D03*
D19*
X0238538Y0162400D03*
D20*
X0244838Y0162700D03*
D21*
X0250988Y0163000D03*
D22*
X0257138Y0163300D03*
D23*
X0263288Y0163600D03*
D24*
X0259688Y0168400D03*
X0259388Y0169000D03*
X0259088Y0169900D03*
X0253088Y0169900D03*
X0253088Y0170200D03*
X0253088Y0170500D03*
X0253088Y0170800D03*
X0253088Y0169600D03*
X0253088Y0169300D03*
X0253088Y0169000D03*
X0253088Y0168700D03*
X0237488Y0168400D03*
X0231788Y0168700D03*
X0231488Y0169600D03*
X0231488Y0169900D03*
X0231488Y0170200D03*
X0231488Y0170500D03*
X0231488Y0170800D03*
X0231188Y0172300D03*
X0231188Y0172600D03*
X0231188Y0172900D03*
X0231188Y0173200D03*
X0226688Y0172600D03*
X0226688Y0172300D03*
X0226688Y0172000D03*
X0226688Y0171700D03*
X0226688Y0171400D03*
X0226688Y0171100D03*
X0226988Y0169000D03*
X0226988Y0168700D03*
X0211688Y0168700D03*
X0211688Y0168400D03*
X0211388Y0169000D03*
X0211388Y0169300D03*
X0211388Y0169600D03*
X0211388Y0169900D03*
X0211088Y0171400D03*
X0211088Y0171700D03*
X0211088Y0172000D03*
X0211088Y0172300D03*
X0211088Y0172600D03*
X0211088Y0172900D03*
X0205088Y0171400D03*
X0205088Y0171100D03*
X0205088Y0170500D03*
X0205088Y0170200D03*
X0205088Y0169900D03*
X0205088Y0169600D03*
X0205388Y0168700D03*
X0204788Y0172000D03*
X0204788Y0172300D03*
X0200288Y0172300D03*
X0200288Y0172600D03*
X0200288Y0172000D03*
X0200288Y0171700D03*
X0200288Y0171400D03*
X0200288Y0171100D03*
X0200588Y0169600D03*
X0200588Y0169300D03*
X0200588Y0169000D03*
X0200588Y0168700D03*
X0194888Y0168400D03*
X0194588Y0168700D03*
X0194588Y0169000D03*
X0194588Y0169300D03*
X0194588Y0169600D03*
X0194588Y0169900D03*
X0194588Y0170200D03*
X0194588Y0170500D03*
X0194288Y0172000D03*
X0194288Y0172300D03*
X0194288Y0172600D03*
X0194288Y0172900D03*
X0188288Y0172600D03*
X0188288Y0171700D03*
X0188588Y0170500D03*
X0270488Y0183700D03*
X0273788Y0187000D03*
X0281588Y0187300D03*
X0279788Y0174400D03*
X0279788Y0174100D03*
X0279788Y0173800D03*
X0279788Y0173500D03*
X0279788Y0173200D03*
X0280088Y0172000D03*
X0280088Y0171700D03*
X0280088Y0171400D03*
X0280088Y0171100D03*
X0280088Y0170800D03*
X0276188Y0170200D03*
X0276488Y0168700D03*
X0276488Y0168400D03*
X0276488Y0168100D03*
X0276488Y0167800D03*
X0276488Y0167500D03*
X0271988Y0171700D03*
X0271988Y0172000D03*
X0271988Y0172300D03*
X0271988Y0172600D03*
X0271988Y0172900D03*
X0271688Y0174100D03*
X0271688Y0174400D03*
X0284288Y0170200D03*
X0284288Y0169900D03*
X0284288Y0169600D03*
X0284288Y0169300D03*
X0284588Y0168100D03*
X0284588Y0167800D03*
X0284588Y0167500D03*
X0284588Y0167200D03*
X0284588Y0166900D03*
X0292388Y0168400D03*
X0292388Y0168700D03*
X0292388Y0169000D03*
X0292388Y0169300D03*
X0292388Y0169600D03*
X0292688Y0167200D03*
X0292688Y0166900D03*
X0300488Y0167800D03*
X0300488Y0168100D03*
X0300488Y0168400D03*
X0300488Y0168700D03*
X0300488Y0169000D03*
X0300188Y0170200D03*
X0304088Y0170800D03*
X0304088Y0171100D03*
X0304088Y0171400D03*
X0304088Y0171700D03*
X0304088Y0172000D03*
X0304088Y0172300D03*
X0303788Y0173500D03*
X0303788Y0173800D03*
X0303788Y0174100D03*
X0303788Y0174400D03*
X0308288Y0170200D03*
X0308288Y0169900D03*
X0308288Y0169600D03*
X0308288Y0169300D03*
X0308588Y0168100D03*
X0308588Y0167800D03*
X0308588Y0167500D03*
X0308588Y0167200D03*
X0308588Y0166900D03*
X0312188Y0170800D03*
X0312188Y0171100D03*
X0312188Y0171400D03*
X0311888Y0172600D03*
X0311888Y0172900D03*
X0311888Y0173200D03*
X0311888Y0173500D03*
X0311888Y0173800D03*
X0316388Y0169900D03*
X0316388Y0169600D03*
X0316388Y0169300D03*
X0316388Y0169000D03*
X0316388Y0168700D03*
X0316688Y0167500D03*
X0316688Y0167200D03*
X0316688Y0166900D03*
X0319988Y0171700D03*
X0319988Y0172000D03*
X0319988Y0172300D03*
X0319988Y0172600D03*
X0319988Y0172900D03*
X0319688Y0174100D03*
X0319688Y0174400D03*
X0324188Y0170200D03*
X0324488Y0169000D03*
X0324488Y0168700D03*
X0324488Y0168400D03*
X0324488Y0168100D03*
X0324488Y0167800D03*
X0328088Y0170800D03*
X0328088Y0171100D03*
X0328088Y0171400D03*
X0328088Y0171700D03*
X0328088Y0172000D03*
X0327788Y0173500D03*
X0327788Y0173800D03*
X0327788Y0174100D03*
X0327788Y0174400D03*
X0332288Y0170200D03*
X0332288Y0169900D03*
X0332288Y0169600D03*
X0332288Y0169300D03*
X0332588Y0168100D03*
X0332588Y0167800D03*
X0332588Y0167500D03*
X0332588Y0167200D03*
X0332588Y0166900D03*
X0336188Y0170800D03*
X0336188Y0171100D03*
X0336188Y0171400D03*
X0335888Y0172600D03*
X0335888Y0172900D03*
X0335888Y0173200D03*
X0335888Y0173500D03*
X0335888Y0173800D03*
X0340388Y0169900D03*
X0340388Y0169600D03*
X0340388Y0169300D03*
X0340388Y0169000D03*
X0340388Y0168700D03*
X0340388Y0168400D03*
X0340688Y0167200D03*
X0340688Y0166900D03*
X0326888Y0180700D03*
X0329288Y0186100D03*
X0329288Y0186400D03*
X0320888Y0185800D03*
X0320888Y0185500D03*
X0320888Y0185200D03*
X0320888Y0184900D03*
X0295688Y0174400D03*
X0295688Y0174100D03*
X0295988Y0172900D03*
X0295988Y0172600D03*
X0295988Y0172300D03*
X0295988Y0172000D03*
X0295988Y0171700D03*
X0288188Y0171400D03*
X0288188Y0171100D03*
X0288188Y0170800D03*
X0287888Y0172600D03*
X0287888Y0172900D03*
X0287888Y0173200D03*
X0287888Y0173500D03*
X0287888Y0173800D03*
D25*
X0287738Y0174100D03*
X0287738Y0174400D03*
X0288038Y0172300D03*
X0288038Y0172000D03*
X0288038Y0171700D03*
X0292238Y0170200D03*
X0292238Y0169900D03*
X0292538Y0168100D03*
X0292538Y0167800D03*
X0292538Y0167500D03*
X0296138Y0170800D03*
X0296138Y0171100D03*
X0296138Y0171400D03*
X0295838Y0173200D03*
X0295838Y0173500D03*
X0295838Y0173800D03*
X0300338Y0169900D03*
X0300338Y0169600D03*
X0300338Y0169300D03*
X0300638Y0167500D03*
X0300638Y0167200D03*
X0300638Y0166900D03*
X0303938Y0172600D03*
X0303938Y0172900D03*
X0303938Y0173200D03*
X0308438Y0169000D03*
X0308438Y0168700D03*
X0308438Y0168400D03*
X0312038Y0171700D03*
X0312038Y0172000D03*
X0312038Y0172300D03*
X0311738Y0174100D03*
X0311738Y0174400D03*
X0316238Y0170200D03*
X0316538Y0168400D03*
X0316538Y0168100D03*
X0316538Y0167800D03*
X0320138Y0170800D03*
X0320138Y0171100D03*
X0320138Y0171400D03*
X0319838Y0173200D03*
X0319838Y0173500D03*
X0319838Y0173800D03*
X0324338Y0169900D03*
X0324338Y0169600D03*
X0324338Y0169300D03*
X0324638Y0167500D03*
X0324638Y0167200D03*
X0324638Y0166900D03*
X0327938Y0172300D03*
X0327938Y0172600D03*
X0327938Y0172900D03*
X0327938Y0173200D03*
X0332438Y0169000D03*
X0332438Y0168700D03*
X0332438Y0168400D03*
X0336038Y0171700D03*
X0336038Y0172000D03*
X0336038Y0172300D03*
X0335738Y0174100D03*
X0335738Y0174400D03*
X0340238Y0170200D03*
X0340538Y0168100D03*
X0340538Y0167800D03*
X0340538Y0167500D03*
X0327038Y0180100D03*
X0327038Y0180400D03*
X0329138Y0186700D03*
X0321038Y0186100D03*
X0284438Y0169000D03*
X0284438Y0168700D03*
X0284438Y0168400D03*
X0279938Y0172300D03*
X0279938Y0172600D03*
X0279938Y0172900D03*
X0276338Y0169900D03*
X0276338Y0169600D03*
X0276338Y0169300D03*
X0276338Y0169000D03*
X0276638Y0167200D03*
X0276638Y0166900D03*
X0272138Y0170800D03*
X0272138Y0171100D03*
X0272138Y0171400D03*
X0271838Y0173200D03*
X0271838Y0173500D03*
X0271838Y0173800D03*
X0270638Y0183100D03*
X0270638Y0183400D03*
X0273638Y0187300D03*
X0258638Y0172600D03*
X0258638Y0172300D03*
X0258638Y0172000D03*
X0259238Y0170500D03*
X0259238Y0170200D03*
X0252938Y0171100D03*
X0231938Y0168400D03*
X0227138Y0168400D03*
X0226538Y0172900D03*
X0211238Y0173200D03*
X0204938Y0172900D03*
X0204938Y0172600D03*
X0205238Y0170800D03*
X0205538Y0168400D03*
X0200438Y0168400D03*
X0200138Y0172900D03*
X0194438Y0173200D03*
X0194738Y0170800D03*
X0188738Y0170200D03*
X0188138Y0172900D03*
D26*
X0223088Y0173800D03*
X0223088Y0174100D03*
X0223088Y0174400D03*
X0223988Y0167200D03*
X0223988Y0166900D03*
D27*
X0223838Y0167500D03*
X0223838Y0167800D03*
X0223238Y0173500D03*
D28*
X0240938Y0188500D03*
X0265238Y0170200D03*
X0265538Y0168100D03*
X0281138Y0184000D03*
X0281138Y0184300D03*
X0332738Y0181900D03*
X0181538Y0173200D03*
D29*
X0243338Y0168100D03*
D30*
X0219188Y0168100D03*
D31*
X0206288Y0168100D03*
D32*
X0191588Y0168100D03*
X0183788Y0176500D03*
X0182888Y0189100D03*
X0241988Y0181600D03*
X0261188Y0182200D03*
D33*
X0280838Y0182800D03*
X0280838Y0183100D03*
X0301238Y0180400D03*
X0301238Y0180100D03*
X0301238Y0179800D03*
X0301238Y0179500D03*
X0332138Y0183400D03*
X0332138Y0183700D03*
X0332438Y0182800D03*
X0240938Y0187900D03*
X0203738Y0189700D03*
X0198038Y0176800D03*
X0198038Y0176500D03*
X0182438Y0168100D03*
D34*
X0181838Y0168700D03*
X0181838Y0169000D03*
X0181538Y0169900D03*
X0181538Y0170200D03*
X0181538Y0170500D03*
X0181538Y0170800D03*
X0181538Y0171100D03*
X0189338Y0169600D03*
X0189338Y0169300D03*
X0189338Y0169000D03*
X0189338Y0168700D03*
X0195038Y0171700D03*
X0199238Y0178600D03*
X0199238Y0178900D03*
X0199538Y0179200D03*
X0199538Y0179500D03*
X0199538Y0179800D03*
X0199838Y0180100D03*
X0199838Y0180400D03*
X0199838Y0180700D03*
X0200138Y0181000D03*
X0200138Y0181300D03*
X0200438Y0181900D03*
X0200438Y0182200D03*
X0200738Y0182800D03*
X0200738Y0183100D03*
X0201038Y0183700D03*
X0201038Y0184000D03*
X0201338Y0184600D03*
X0201338Y0184900D03*
X0201638Y0185500D03*
X0201638Y0185800D03*
X0201938Y0186400D03*
X0201938Y0186700D03*
X0202238Y0187300D03*
X0202238Y0187600D03*
X0180338Y0178300D03*
X0228038Y0178300D03*
X0237338Y0176500D03*
X0237338Y0176200D03*
X0237638Y0177400D03*
X0237638Y0177700D03*
X0237938Y0178600D03*
X0238238Y0179500D03*
X0238238Y0179800D03*
X0238838Y0182200D03*
X0239138Y0183400D03*
X0239438Y0184300D03*
X0239438Y0184600D03*
X0239738Y0185500D03*
X0239738Y0185800D03*
X0240038Y0186700D03*
X0255938Y0184300D03*
X0257138Y0179200D03*
X0256838Y0178300D03*
X0256838Y0178000D03*
X0256538Y0177400D03*
X0256538Y0177100D03*
X0256238Y0176500D03*
X0256238Y0176200D03*
X0259538Y0171700D03*
X0259538Y0171400D03*
X0265238Y0173200D03*
X0265538Y0171100D03*
X0265538Y0170800D03*
X0265838Y0168400D03*
X0281138Y0184600D03*
X0281138Y0184900D03*
X0327338Y0178600D03*
X0333038Y0180700D03*
X0333038Y0181000D03*
D35*
X0331838Y0184300D03*
X0331838Y0184600D03*
X0331238Y0185800D03*
X0300938Y0178600D03*
X0280838Y0180100D03*
X0280838Y0180400D03*
X0280838Y0180700D03*
X0244838Y0172000D03*
X0244838Y0171700D03*
X0244838Y0171400D03*
X0244838Y0171100D03*
X0244838Y0170800D03*
X0244838Y0170500D03*
X0244838Y0170200D03*
X0245138Y0169600D03*
X0245138Y0169300D03*
X0245138Y0169000D03*
X0245138Y0168700D03*
X0245138Y0168400D03*
X0244538Y0172600D03*
X0244538Y0172900D03*
X0244538Y0173200D03*
X0203438Y0187900D03*
X0203438Y0188200D03*
X0203438Y0188500D03*
X0198038Y0178000D03*
X0198038Y0177700D03*
X0198038Y0177400D03*
D36*
X0219488Y0171100D03*
X0219188Y0168400D03*
D37*
X0240788Y0188800D03*
X0240788Y0189100D03*
X0265388Y0170500D03*
X0327188Y0178300D03*
X0332888Y0181300D03*
X0332888Y0181600D03*
X0189188Y0168400D03*
X0181988Y0168400D03*
X0181688Y0169300D03*
X0181688Y0169600D03*
X0181388Y0171400D03*
X0181388Y0171700D03*
X0181388Y0172000D03*
X0181388Y0172300D03*
X0181388Y0172600D03*
X0181388Y0172900D03*
D38*
X0189188Y0169900D03*
X0194888Y0171400D03*
X0199988Y0170200D03*
X0199988Y0169900D03*
X0188288Y0178300D03*
X0188288Y0181000D03*
X0188288Y0181300D03*
X0187988Y0183400D03*
X0187988Y0183700D03*
X0187688Y0185800D03*
X0187688Y0186100D03*
X0187688Y0186400D03*
X0179888Y0181300D03*
X0179888Y0181000D03*
X0179888Y0180700D03*
X0179888Y0180400D03*
X0180188Y0178900D03*
X0180188Y0178600D03*
X0200288Y0181600D03*
X0200588Y0182500D03*
X0200888Y0183400D03*
X0201188Y0184300D03*
X0201488Y0185200D03*
X0201788Y0186100D03*
X0202088Y0187000D03*
X0212588Y0188500D03*
X0212588Y0188800D03*
X0212588Y0189100D03*
X0212588Y0189400D03*
X0212888Y0187000D03*
X0212888Y0186700D03*
X0212888Y0186400D03*
X0212888Y0186100D03*
X0213188Y0184300D03*
X0213188Y0184000D03*
X0213188Y0183700D03*
X0213188Y0183400D03*
X0213488Y0181900D03*
X0213488Y0181600D03*
X0213488Y0181300D03*
X0213488Y0181000D03*
X0213788Y0179500D03*
X0213788Y0179200D03*
X0213788Y0178900D03*
X0213788Y0178600D03*
X0214088Y0177100D03*
X0214088Y0176800D03*
X0214088Y0176500D03*
X0214088Y0176200D03*
X0226388Y0170200D03*
X0226388Y0169900D03*
X0228488Y0178900D03*
X0228188Y0180700D03*
X0228188Y0181000D03*
X0228188Y0181300D03*
X0227888Y0183100D03*
X0227888Y0183400D03*
X0227888Y0183700D03*
X0227588Y0185500D03*
X0227588Y0185800D03*
X0227588Y0186100D03*
X0227588Y0186400D03*
X0227288Y0187600D03*
X0238988Y0183100D03*
X0238988Y0182800D03*
X0238988Y0182500D03*
X0239288Y0183700D03*
X0239288Y0184000D03*
X0239588Y0184900D03*
X0239588Y0185200D03*
X0239888Y0186100D03*
X0239888Y0186400D03*
X0240788Y0189400D03*
X0240788Y0189700D03*
X0238088Y0179200D03*
X0238088Y0178900D03*
X0237788Y0178300D03*
X0237788Y0178000D03*
X0237488Y0177100D03*
X0237488Y0176800D03*
X0237788Y0173200D03*
X0237788Y0172900D03*
X0238088Y0171100D03*
X0238088Y0170800D03*
X0238088Y0170500D03*
X0256388Y0176800D03*
X0256688Y0177700D03*
X0256988Y0178600D03*
X0256988Y0178900D03*
X0257288Y0179500D03*
X0257288Y0179800D03*
X0257288Y0180100D03*
X0257588Y0180400D03*
X0257588Y0180700D03*
X0257588Y0181000D03*
X0257888Y0181600D03*
X0257888Y0181900D03*
X0255788Y0184600D03*
X0255488Y0185800D03*
X0255488Y0186100D03*
X0255488Y0186400D03*
X0255488Y0186700D03*
X0263888Y0186700D03*
X0263888Y0186400D03*
X0263888Y0186100D03*
X0263888Y0187000D03*
X0264188Y0184600D03*
X0264188Y0184300D03*
X0264488Y0181900D03*
X0264488Y0181600D03*
X0264788Y0179800D03*
X0264788Y0179500D03*
X0264788Y0179200D03*
X0264788Y0178900D03*
X0265088Y0177400D03*
X0265088Y0177100D03*
X0265088Y0176800D03*
X0265088Y0176500D03*
X0265388Y0172900D03*
X0265388Y0172600D03*
X0265688Y0172000D03*
X0265688Y0171700D03*
X0265688Y0171400D03*
X0265988Y0169600D03*
X0265988Y0169300D03*
X0265988Y0169000D03*
X0265988Y0168700D03*
X0259388Y0171100D03*
X0258788Y0173200D03*
X0271388Y0180400D03*
X0271388Y0180700D03*
X0271388Y0181000D03*
X0271388Y0181300D03*
X0271388Y0181600D03*
X0281288Y0185200D03*
X0281288Y0185500D03*
X0310088Y0179800D03*
X0310088Y0179500D03*
X0310388Y0178300D03*
X0327188Y0178900D03*
X0327188Y0179200D03*
X0333188Y0180100D03*
X0333188Y0180400D03*
D39*
X0331688Y0184900D03*
X0331688Y0185200D03*
X0331388Y0185500D03*
X0280688Y0181900D03*
X0280688Y0181600D03*
X0280688Y0181300D03*
X0280688Y0181000D03*
X0244688Y0172300D03*
X0244988Y0169900D03*
X0241088Y0187000D03*
X0218888Y0172600D03*
X0218888Y0172300D03*
X0218888Y0172000D03*
X0219188Y0170500D03*
X0219188Y0170200D03*
X0219188Y0169900D03*
X0219188Y0169600D03*
X0219188Y0169300D03*
X0219188Y0169000D03*
X0219188Y0168700D03*
X0198188Y0178300D03*
X0181088Y0182500D03*
X0180788Y0183100D03*
X0180788Y0183400D03*
X0180788Y0183700D03*
X0180788Y0184000D03*
D40*
X0185438Y0170800D03*
X0191438Y0172300D03*
X0197138Y0172300D03*
X0208238Y0170200D03*
X0208538Y0169300D03*
X0214238Y0171100D03*
X0214538Y0169300D03*
X0223538Y0172300D03*
X0234338Y0172300D03*
X0234338Y0172000D03*
X0234638Y0169600D03*
X0234638Y0169300D03*
X0249338Y0171100D03*
X0249338Y0171400D03*
X0249338Y0171700D03*
X0249338Y0172000D03*
X0249338Y0172300D03*
X0250238Y0169900D03*
X0250238Y0169600D03*
X0256238Y0169300D03*
X0261938Y0172000D03*
X0261938Y0172300D03*
X0273938Y0178900D03*
X0273938Y0179200D03*
X0273638Y0179800D03*
X0273938Y0184300D03*
X0326438Y0184300D03*
X0326438Y0184600D03*
X0331538Y0179500D03*
X0331538Y0179200D03*
X0331838Y0178900D03*
X0331838Y0178600D03*
X0331838Y0178300D03*
D41*
X0327038Y0179500D03*
X0321038Y0187000D03*
X0321038Y0187300D03*
X0310238Y0179200D03*
X0310238Y0178900D03*
X0310238Y0178600D03*
X0281438Y0185800D03*
X0281438Y0186100D03*
X0271238Y0181900D03*
X0270938Y0182500D03*
X0264638Y0181300D03*
X0264638Y0181000D03*
X0264638Y0180700D03*
X0264638Y0180400D03*
X0264638Y0180100D03*
X0264938Y0178600D03*
X0264938Y0178300D03*
X0264938Y0178000D03*
X0264938Y0177700D03*
X0265238Y0176200D03*
X0265538Y0172300D03*
X0258638Y0172900D03*
X0257738Y0181300D03*
X0255638Y0184900D03*
X0255638Y0185200D03*
X0255638Y0185500D03*
X0255338Y0187000D03*
X0255338Y0187300D03*
X0255338Y0187600D03*
X0263738Y0187600D03*
X0263738Y0187300D03*
X0264038Y0185800D03*
X0264038Y0185500D03*
X0264038Y0185200D03*
X0264038Y0184900D03*
X0237938Y0172600D03*
X0237938Y0172300D03*
X0237938Y0172000D03*
X0237938Y0171700D03*
X0237938Y0171400D03*
X0238238Y0170200D03*
X0238238Y0169900D03*
X0238238Y0169600D03*
X0238238Y0169300D03*
X0226538Y0170500D03*
X0228338Y0178600D03*
X0228338Y0179200D03*
X0228338Y0179500D03*
X0228338Y0179800D03*
X0228338Y0180100D03*
X0228338Y0180400D03*
X0228038Y0181600D03*
X0228038Y0181900D03*
X0228038Y0182200D03*
X0228038Y0182500D03*
X0228038Y0182800D03*
X0227738Y0184000D03*
X0227738Y0184300D03*
X0227738Y0184600D03*
X0227738Y0184900D03*
X0227738Y0185200D03*
X0227438Y0186700D03*
X0227438Y0187000D03*
X0227438Y0187300D03*
X0213038Y0185800D03*
X0213038Y0185500D03*
X0213038Y0185200D03*
X0213038Y0184900D03*
X0213038Y0184600D03*
X0213338Y0183100D03*
X0213338Y0182800D03*
X0213338Y0182500D03*
X0213338Y0182200D03*
X0213638Y0180700D03*
X0213638Y0180400D03*
X0213638Y0180100D03*
X0213638Y0179800D03*
X0213938Y0178300D03*
X0213938Y0178000D03*
X0213938Y0177700D03*
X0213938Y0177400D03*
X0212738Y0187300D03*
X0212738Y0187600D03*
X0212738Y0187900D03*
X0212738Y0188200D03*
X0212438Y0189700D03*
X0194738Y0171100D03*
X0200138Y0170500D03*
X0188138Y0173200D03*
X0188438Y0178600D03*
X0188438Y0178900D03*
X0188438Y0179200D03*
X0188438Y0179500D03*
X0188438Y0179800D03*
X0188438Y0180100D03*
X0188438Y0180400D03*
X0188438Y0180700D03*
X0188138Y0181600D03*
X0188138Y0181900D03*
X0188138Y0182200D03*
X0188138Y0182500D03*
X0188138Y0182800D03*
X0188138Y0183100D03*
X0187838Y0184000D03*
X0187838Y0184300D03*
X0187838Y0184600D03*
X0187838Y0184900D03*
X0187838Y0185200D03*
X0187838Y0185500D03*
X0187538Y0186700D03*
X0187538Y0187000D03*
X0187538Y0187300D03*
X0187238Y0187600D03*
X0179738Y0182200D03*
X0179738Y0181900D03*
X0179738Y0181600D03*
X0180038Y0180100D03*
X0180038Y0179800D03*
X0180038Y0179500D03*
X0180038Y0179200D03*
D42*
X0241088Y0188200D03*
X0265088Y0169900D03*
X0280988Y0183400D03*
X0280988Y0183700D03*
X0301088Y0181300D03*
X0301088Y0181000D03*
X0301088Y0180700D03*
X0332288Y0183100D03*
X0332588Y0182500D03*
X0332588Y0182200D03*
D43*
X0327188Y0179800D03*
X0320888Y0186400D03*
X0320888Y0186700D03*
X0328988Y0187000D03*
X0328988Y0187300D03*
X0281588Y0187000D03*
X0281588Y0186700D03*
X0281588Y0186400D03*
X0271088Y0182200D03*
X0270788Y0182800D03*
X0259388Y0170800D03*
X0253088Y0171400D03*
X0253088Y0171700D03*
X0253088Y0172000D03*
X0253088Y0172300D03*
X0253088Y0172600D03*
X0253088Y0172900D03*
X0253088Y0173200D03*
X0226688Y0170800D03*
X0226388Y0173200D03*
X0205088Y0173200D03*
X0199988Y0173200D03*
X0200288Y0170800D03*
D44*
X0218738Y0172900D03*
X0219338Y0170800D03*
X0180938Y0182800D03*
X0300638Y0178300D03*
D45*
X0219638Y0171400D03*
X0218738Y0173200D03*
D46*
X0219788Y0171700D03*
X0311588Y0182500D03*
X0311588Y0182800D03*
X0311588Y0183100D03*
X0311588Y0183400D03*
X0311588Y0183700D03*
X0311588Y0184000D03*
X0311288Y0184900D03*
X0311288Y0185200D03*
X0311288Y0185500D03*
X0311288Y0185800D03*
X0311288Y0186100D03*
X0311288Y0186400D03*
X0310988Y0187300D03*
X0311888Y0181600D03*
X0311888Y0181300D03*
X0311888Y0181000D03*
X0311888Y0180700D03*
X0311888Y0180400D03*
X0311888Y0180100D03*
D47*
X0320588Y0180100D03*
X0320588Y0180400D03*
X0320588Y0180700D03*
X0320588Y0181000D03*
X0326588Y0182500D03*
X0326588Y0182800D03*
X0339488Y0184300D03*
X0339488Y0184600D03*
X0339488Y0184900D03*
X0339188Y0186100D03*
X0339188Y0186400D03*
X0339788Y0182500D03*
X0339788Y0182200D03*
X0339788Y0181900D03*
X0340088Y0180100D03*
X0340088Y0179800D03*
X0340088Y0179500D03*
X0302888Y0183400D03*
X0302888Y0183700D03*
X0302888Y0184000D03*
X0302588Y0185800D03*
X0297488Y0187000D03*
X0292688Y0185800D03*
X0298988Y0181600D03*
X0293588Y0180100D03*
X0289088Y0178600D03*
X0273788Y0185500D03*
X0269288Y0186700D03*
X0268988Y0187300D03*
X0249788Y0176200D03*
X0248888Y0177700D03*
X0248588Y0178300D03*
X0247688Y0179800D03*
X0246188Y0182500D03*
X0245888Y0183100D03*
X0244988Y0184600D03*
X0244688Y0185200D03*
X0244388Y0185800D03*
X0244088Y0186400D03*
X0243788Y0186700D03*
X0206888Y0181900D03*
X0206888Y0181600D03*
X0206888Y0181300D03*
X0206888Y0181000D03*
X0206888Y0180700D03*
X0206888Y0180400D03*
X0206888Y0180100D03*
X0207188Y0179500D03*
X0207188Y0179200D03*
X0207188Y0178900D03*
X0207188Y0178600D03*
X0207188Y0178300D03*
X0207188Y0178000D03*
X0207188Y0177700D03*
X0207488Y0176800D03*
X0207488Y0176500D03*
X0206588Y0182500D03*
X0206588Y0182800D03*
X0206588Y0183100D03*
X0206588Y0183400D03*
X0206588Y0183700D03*
X0206588Y0184000D03*
X0206588Y0184300D03*
X0206288Y0184900D03*
X0206288Y0185200D03*
X0206288Y0185500D03*
X0206288Y0185800D03*
X0206288Y0186100D03*
X0206288Y0186400D03*
X0206288Y0186700D03*
X0205988Y0187300D03*
X0205988Y0187600D03*
X0194588Y0186400D03*
X0194588Y0186100D03*
X0194588Y0185800D03*
X0194588Y0185500D03*
X0194888Y0184000D03*
X0194888Y0183700D03*
X0194888Y0183400D03*
X0194888Y0183100D03*
X0194888Y0182800D03*
X0195188Y0181600D03*
X0195188Y0181300D03*
X0195188Y0181000D03*
X0195188Y0180700D03*
X0195188Y0180400D03*
X0195488Y0179200D03*
X0195488Y0178900D03*
X0195488Y0178600D03*
X0194288Y0187900D03*
X0194288Y0188200D03*
X0194288Y0188500D03*
X0194288Y0188800D03*
D48*
X0223238Y0189700D03*
X0224438Y0176200D03*
X0311138Y0186700D03*
X0311138Y0187000D03*
X0311438Y0184600D03*
X0311438Y0184300D03*
X0311738Y0182200D03*
X0311738Y0181900D03*
D49*
X0225338Y0178000D03*
X0225338Y0177700D03*
X0224138Y0187900D03*
X0224138Y0188200D03*
X0182438Y0189700D03*
X0183338Y0176200D03*
D50*
X0303638Y0190000D03*
X0303938Y0189400D03*
X0303938Y0189100D03*
X0303938Y0188800D03*
X0303938Y0188500D03*
X0303938Y0188200D03*
X0303938Y0187900D03*
X0303938Y0187600D03*
X0305138Y0178000D03*
X0305438Y0177400D03*
X0305438Y0177100D03*
X0305438Y0176800D03*
X0305438Y0176500D03*
D51*
X0302738Y0184300D03*
X0302738Y0184600D03*
X0302738Y0184900D03*
X0302738Y0185200D03*
X0302738Y0185500D03*
X0293138Y0183100D03*
X0293438Y0180700D03*
X0292838Y0185500D03*
X0288038Y0187300D03*
X0273938Y0185800D03*
X0269438Y0186100D03*
X0269438Y0186400D03*
X0249638Y0176500D03*
X0249338Y0176800D03*
X0249338Y0177100D03*
X0249038Y0177400D03*
X0248738Y0178000D03*
X0248438Y0178600D03*
X0248138Y0178900D03*
X0248138Y0179200D03*
X0247838Y0179500D03*
X0246338Y0182200D03*
X0246038Y0182800D03*
X0245738Y0183400D03*
X0245438Y0183700D03*
X0245438Y0184000D03*
X0245138Y0184300D03*
X0244838Y0184900D03*
X0244538Y0185500D03*
X0244238Y0186100D03*
X0206738Y0182200D03*
X0207038Y0179800D03*
X0207338Y0177400D03*
X0207338Y0177100D03*
X0206438Y0184600D03*
X0206138Y0187000D03*
X0194738Y0185200D03*
X0194738Y0184900D03*
X0194738Y0184600D03*
X0194738Y0184300D03*
X0195038Y0182500D03*
X0195038Y0182200D03*
X0195038Y0181900D03*
X0195338Y0180100D03*
X0195338Y0179800D03*
X0195338Y0179500D03*
X0194438Y0186700D03*
X0194438Y0187000D03*
X0194438Y0187300D03*
X0194438Y0187600D03*
X0194138Y0189100D03*
X0194138Y0189400D03*
X0194138Y0189700D03*
X0320738Y0181300D03*
X0339038Y0186700D03*
X0339938Y0179200D03*
X0339938Y0178900D03*
D52*
X0224888Y0176500D03*
X0223688Y0189100D03*
D53*
X0223838Y0188800D03*
X0225038Y0176800D03*
D54*
X0225188Y0177100D03*
X0225188Y0177400D03*
X0223988Y0188500D03*
D55*
X0241088Y0187600D03*
X0241088Y0187300D03*
X0203588Y0188800D03*
X0203588Y0189100D03*
X0203588Y0189400D03*
X0197888Y0177100D03*
X0280688Y0182200D03*
X0280688Y0182500D03*
X0301088Y0179200D03*
X0301088Y0178900D03*
X0331988Y0184000D03*
D56*
X0260438Y0182500D03*
X0259838Y0189400D03*
X0242138Y0180700D03*
X0242138Y0180400D03*
X0184238Y0177400D03*
X0184238Y0177100D03*
X0183338Y0188200D03*
D57*
X0303788Y0189700D03*
X0305288Y0177700D03*
D58*
X0260288Y0182800D03*
X0259688Y0188800D03*
X0259688Y0189100D03*
X0242288Y0180100D03*
X0184388Y0177700D03*
D59*
X0184238Y0178000D03*
X0259538Y0187900D03*
X0259538Y0188200D03*
X0259538Y0188500D03*
X0260138Y0183400D03*
X0260138Y0183100D03*
D60*
X0273938Y0184900D03*
X0273638Y0178300D03*
X0288338Y0180100D03*
X0288338Y0180400D03*
X0288338Y0180700D03*
X0288338Y0181000D03*
X0288038Y0181900D03*
X0288038Y0182200D03*
X0288038Y0182500D03*
X0288038Y0182800D03*
X0288038Y0183100D03*
X0288038Y0183400D03*
X0287738Y0184300D03*
X0287738Y0184600D03*
X0287738Y0184900D03*
X0287738Y0185200D03*
X0287738Y0185500D03*
X0287738Y0185800D03*
X0287738Y0186100D03*
X0297638Y0186100D03*
X0297638Y0186400D03*
X0297938Y0185200D03*
X0297938Y0184900D03*
X0297938Y0184600D03*
X0297938Y0184300D03*
X0298238Y0182800D03*
X0298238Y0182500D03*
X0320438Y0178600D03*
X0320438Y0178300D03*
X0326438Y0183700D03*
X0326438Y0184000D03*
D61*
X0320588Y0182200D03*
X0320588Y0181900D03*
X0320588Y0181600D03*
X0338888Y0187000D03*
X0339788Y0178600D03*
X0293588Y0180400D03*
X0293288Y0181000D03*
X0293288Y0181300D03*
X0293288Y0181600D03*
X0293288Y0181900D03*
X0293288Y0182200D03*
X0293288Y0182500D03*
X0293288Y0182800D03*
X0292988Y0183400D03*
X0292988Y0183700D03*
X0292988Y0184000D03*
X0292988Y0184300D03*
X0292988Y0184600D03*
X0292988Y0184900D03*
X0292988Y0185200D03*
X0289388Y0178300D03*
X0273788Y0186100D03*
X0269588Y0185800D03*
X0270488Y0179800D03*
X0270488Y0179500D03*
X0270488Y0179200D03*
X0270488Y0178900D03*
D62*
X0270638Y0178600D03*
X0270338Y0180100D03*
X0269738Y0185200D03*
X0269738Y0185500D03*
X0297638Y0187300D03*
X0320738Y0183400D03*
X0320738Y0183100D03*
X0320738Y0182800D03*
X0320738Y0182500D03*
X0338738Y0187300D03*
D63*
X0339338Y0185800D03*
X0339338Y0185500D03*
X0339338Y0185200D03*
X0339638Y0184000D03*
X0339638Y0183700D03*
X0339638Y0183400D03*
X0339638Y0183100D03*
X0339638Y0182800D03*
X0339938Y0181600D03*
X0339938Y0181300D03*
X0339938Y0181000D03*
X0339938Y0180700D03*
X0339938Y0180400D03*
X0326438Y0183100D03*
X0320438Y0179800D03*
X0320438Y0179500D03*
X0320438Y0179200D03*
X0320438Y0178900D03*
X0298538Y0181900D03*
X0297638Y0186700D03*
X0288638Y0179200D03*
X0288638Y0178900D03*
X0287738Y0186700D03*
X0287738Y0187000D03*
X0273938Y0185200D03*
X0269138Y0187000D03*
D64*
X0287588Y0186400D03*
X0287888Y0184000D03*
X0287888Y0183700D03*
X0288188Y0181600D03*
X0288188Y0181300D03*
X0288488Y0179800D03*
X0288488Y0179500D03*
X0298388Y0182200D03*
X0326588Y0183400D03*
D65*
X0260138Y0189700D03*
X0242138Y0181300D03*
X0183038Y0188800D03*
D66*
X0182738Y0189400D03*
X0241838Y0181900D03*
D67*
X0259988Y0183700D03*
X0259988Y0184000D03*
D68*
X0223538Y0189400D03*
D69*
X0254052Y0159100D02*
X0254052Y0158900D01*
X0254152Y0158800D01*
X0254452Y0158800D01*
X0254604Y0158800D02*
X0254604Y0159100D01*
X0254704Y0159200D01*
X0254804Y0159100D01*
X0254804Y0158800D01*
X0255004Y0158800D02*
X0255004Y0159200D01*
X0254904Y0159200D01*
X0254804Y0159100D01*
X0255157Y0159100D02*
X0255257Y0159200D01*
X0255557Y0159200D01*
X0255557Y0159401D02*
X0255557Y0158800D01*
X0255257Y0158800D01*
X0255157Y0158900D01*
X0255157Y0159100D01*
X0255733Y0158900D02*
X0255733Y0158800D01*
X0255833Y0158800D01*
X0255833Y0158900D01*
X0255733Y0158900D01*
X0255985Y0158800D02*
X0256286Y0158800D01*
X0256386Y0158900D01*
X0256386Y0159100D01*
X0256286Y0159200D01*
X0255985Y0159200D01*
X0255985Y0159401D02*
X0255985Y0158800D01*
X0256538Y0159000D02*
X0256938Y0159000D01*
X0256938Y0158900D02*
X0256938Y0159100D01*
X0256838Y0159200D01*
X0256638Y0159200D01*
X0256538Y0159100D01*
X0256538Y0159000D01*
X0256638Y0158800D02*
X0256838Y0158800D01*
X0256938Y0158900D01*
X0257106Y0158800D02*
X0257206Y0158900D01*
X0257206Y0159300D01*
X0257306Y0159200D02*
X0257106Y0159200D01*
X0257467Y0159200D02*
X0257567Y0159200D01*
X0257767Y0159000D01*
X0257919Y0159000D02*
X0258319Y0159000D01*
X0258319Y0158900D02*
X0258319Y0159100D01*
X0258219Y0159200D01*
X0258019Y0159200D01*
X0257919Y0159100D01*
X0257919Y0159000D01*
X0258019Y0158800D02*
X0258219Y0158800D01*
X0258319Y0158900D01*
X0258471Y0159200D02*
X0258672Y0158800D01*
X0258872Y0159200D01*
X0259024Y0159100D02*
X0259024Y0158800D01*
X0259024Y0159100D02*
X0259124Y0159200D01*
X0259424Y0159200D01*
X0259424Y0158800D01*
X0259592Y0158800D02*
X0259792Y0158800D01*
X0259692Y0158800D02*
X0259692Y0159401D01*
X0259792Y0159401D02*
X0259592Y0159401D01*
X0259945Y0159100D02*
X0260345Y0159100D01*
X0260497Y0159100D02*
X0260497Y0158800D01*
X0260497Y0159100D02*
X0260597Y0159200D01*
X0260897Y0159200D01*
X0260897Y0158800D01*
X0261066Y0158800D02*
X0261266Y0158800D01*
X0261166Y0158800D02*
X0261166Y0159200D01*
X0261266Y0159200D01*
X0261418Y0159200D02*
X0261518Y0159100D01*
X0261418Y0159000D01*
X0261418Y0158900D01*
X0261518Y0158800D01*
X0261718Y0158800D01*
X0261818Y0158900D01*
X0261970Y0159100D02*
X0262371Y0159100D01*
X0262523Y0159000D02*
X0262523Y0158900D01*
X0262623Y0158800D01*
X0262923Y0158800D01*
X0262923Y0159401D01*
X0262623Y0159401D01*
X0262523Y0159300D01*
X0262523Y0159200D01*
X0262623Y0159100D01*
X0262923Y0159100D01*
X0263075Y0158900D02*
X0263175Y0158800D01*
X0263375Y0158800D01*
X0263476Y0158900D01*
X0263476Y0159300D01*
X0263375Y0159401D01*
X0263175Y0159401D01*
X0263075Y0159300D01*
X0262623Y0159100D02*
X0262523Y0159000D01*
X0261818Y0159300D02*
X0261718Y0159401D01*
X0261518Y0159401D01*
X0261418Y0159300D01*
X0261418Y0159200D01*
X0261518Y0159100D02*
X0261618Y0159100D01*
X0261166Y0159401D02*
X0261166Y0159501D01*
X0263628Y0159300D02*
X0263628Y0159100D01*
X0263728Y0159000D01*
X0264028Y0159000D01*
X0264180Y0159100D02*
X0264580Y0159100D01*
X0264749Y0158800D02*
X0264949Y0158800D01*
X0264849Y0158800D02*
X0264849Y0159401D01*
X0264949Y0159401D01*
X0265201Y0159200D02*
X0265101Y0159100D01*
X0265101Y0158800D01*
X0265401Y0158800D01*
X0265501Y0158900D01*
X0265401Y0159000D01*
X0265101Y0159000D01*
X0265201Y0159200D02*
X0265401Y0159200D01*
X0265653Y0159100D02*
X0265653Y0158800D01*
X0265653Y0159100D02*
X0265753Y0159200D01*
X0266054Y0159200D01*
X0266054Y0158800D01*
X0266222Y0158800D02*
X0266422Y0158800D01*
X0266322Y0158800D02*
X0266322Y0159200D01*
X0266422Y0159200D01*
X0266322Y0159401D02*
X0266322Y0159501D01*
X0266574Y0159401D02*
X0266974Y0159401D01*
X0266974Y0158800D01*
X0266974Y0159100D02*
X0266774Y0159100D01*
X0267127Y0159100D02*
X0267527Y0159100D01*
X0267679Y0158800D02*
X0267679Y0159401D01*
X0268079Y0159401D02*
X0268079Y0158800D01*
X0267879Y0159000D01*
X0267679Y0158800D01*
X0268232Y0158900D02*
X0268332Y0158800D01*
X0268632Y0158800D01*
X0268632Y0159401D01*
X0268332Y0159401D01*
X0268232Y0159300D01*
X0268232Y0159200D01*
X0268332Y0159100D01*
X0268632Y0159100D01*
X0268784Y0159100D02*
X0269184Y0159100D01*
X0269336Y0158900D02*
X0269336Y0159300D01*
X0269437Y0159401D01*
X0269637Y0159401D01*
X0269737Y0159300D01*
X0269737Y0158900D01*
X0269637Y0158800D01*
X0269437Y0158800D01*
X0269336Y0158900D01*
X0269889Y0158800D02*
X0270289Y0158800D01*
X0270289Y0159401D01*
X0270441Y0159300D02*
X0270541Y0159401D01*
X0270742Y0159401D01*
X0270842Y0159300D01*
X0270842Y0159200D01*
X0270742Y0159100D01*
X0270541Y0159100D01*
X0270441Y0159000D01*
X0270441Y0158900D01*
X0270541Y0158800D01*
X0270742Y0158800D01*
X0270842Y0158900D01*
X0270994Y0158800D02*
X0271294Y0158800D01*
X0271394Y0158900D01*
X0271394Y0159100D01*
X0271294Y0159200D01*
X0270994Y0159200D01*
X0270994Y0158700D01*
X0271094Y0158600D01*
X0271194Y0158600D01*
X0271546Y0158800D02*
X0271546Y0159100D01*
X0271646Y0159200D01*
X0271947Y0159200D01*
X0271947Y0158800D01*
X0272115Y0158800D02*
X0272315Y0158800D01*
X0272215Y0158800D02*
X0272215Y0159200D01*
X0272315Y0159200D01*
X0272467Y0159200D02*
X0272767Y0159200D01*
X0272867Y0159100D01*
X0272867Y0158900D01*
X0272767Y0158800D01*
X0272467Y0158800D01*
X0273020Y0158800D02*
X0273320Y0158800D01*
X0273420Y0158900D01*
X0273320Y0159000D01*
X0273020Y0159000D01*
X0273020Y0159100D02*
X0273020Y0158800D01*
X0273020Y0159100D02*
X0273120Y0159200D01*
X0273320Y0159200D01*
X0273572Y0159100D02*
X0273672Y0159000D01*
X0273972Y0159000D01*
X0274124Y0159100D02*
X0274225Y0159000D01*
X0274525Y0159000D01*
X0274677Y0158900D02*
X0274777Y0158800D01*
X0274977Y0158800D01*
X0275077Y0158900D01*
X0275077Y0159300D01*
X0274977Y0159401D01*
X0274777Y0159401D01*
X0274677Y0159300D01*
X0274525Y0159401D02*
X0274225Y0159401D01*
X0274124Y0159300D01*
X0274124Y0159100D01*
X0273972Y0158800D02*
X0273972Y0159401D01*
X0273672Y0159401D01*
X0273572Y0159300D01*
X0273572Y0159100D01*
X0273772Y0159000D02*
X0273572Y0158800D01*
X0274525Y0158800D02*
X0274525Y0159401D01*
X0275229Y0159401D02*
X0275630Y0158800D01*
X0275782Y0158900D02*
X0275882Y0158800D01*
X0276182Y0158800D01*
X0276182Y0159401D01*
X0275882Y0159401D01*
X0275782Y0159300D01*
X0275782Y0159200D01*
X0275882Y0159100D01*
X0276182Y0159100D01*
X0276334Y0158900D02*
X0276434Y0158800D01*
X0276635Y0158800D01*
X0276735Y0158900D01*
X0276735Y0159300D01*
X0276635Y0159401D01*
X0276434Y0159401D01*
X0276334Y0159300D01*
X0275882Y0159100D02*
X0275782Y0159000D01*
X0275782Y0158900D01*
X0276887Y0159100D02*
X0276987Y0159000D01*
X0277287Y0159000D01*
X0277287Y0158800D02*
X0277287Y0159401D01*
X0276987Y0159401D01*
X0276887Y0159300D01*
X0276887Y0159100D01*
X0277439Y0159401D02*
X0277840Y0158800D01*
X0277992Y0158900D02*
X0277992Y0159100D01*
X0278092Y0159200D01*
X0278292Y0159200D01*
X0278392Y0159100D01*
X0278392Y0158900D01*
X0278292Y0158800D01*
X0278092Y0158800D01*
X0277992Y0158900D01*
X0278544Y0158800D02*
X0278844Y0158800D01*
X0278944Y0158900D01*
X0278944Y0159100D01*
X0278844Y0159200D01*
X0278544Y0159200D01*
X0278544Y0158700D01*
X0278644Y0158600D01*
X0278744Y0158600D01*
X0279097Y0158900D02*
X0279097Y0159100D01*
X0279197Y0159200D01*
X0279397Y0159200D01*
X0279497Y0159100D01*
X0279497Y0158900D01*
X0279397Y0158800D01*
X0279197Y0158800D01*
X0279097Y0158900D01*
X0279649Y0158800D02*
X0280049Y0158800D01*
X0280049Y0159401D01*
X0280754Y0159200D02*
X0281054Y0159200D01*
X0281154Y0159100D01*
X0281154Y0158900D01*
X0281054Y0158800D01*
X0280754Y0158800D01*
X0280754Y0158700D02*
X0280754Y0159200D01*
X0280754Y0158700D02*
X0280854Y0158600D01*
X0280954Y0158600D01*
X0281306Y0158800D02*
X0281306Y0159100D01*
X0281406Y0159200D01*
X0281707Y0159200D01*
X0281707Y0158800D01*
X0281875Y0158800D02*
X0282075Y0158800D01*
X0281975Y0158800D02*
X0281975Y0159200D01*
X0282075Y0159200D01*
X0282227Y0159200D02*
X0282527Y0159200D01*
X0282628Y0159100D01*
X0282628Y0158900D01*
X0282527Y0158800D01*
X0282227Y0158800D01*
X0282780Y0158800D02*
X0283080Y0158800D01*
X0283180Y0158900D01*
X0283080Y0159000D01*
X0282780Y0159000D01*
X0282780Y0159100D02*
X0282780Y0158800D01*
X0282780Y0159100D02*
X0282880Y0159200D01*
X0283080Y0159200D01*
X0283332Y0159100D02*
X0283432Y0159000D01*
X0283732Y0159000D01*
X0283532Y0159000D02*
X0283332Y0158800D01*
X0283332Y0159100D02*
X0283332Y0159300D01*
X0283432Y0159401D01*
X0283732Y0159401D01*
X0283732Y0158800D01*
X0284437Y0158800D02*
X0284737Y0158800D01*
X0284837Y0158900D01*
X0284837Y0159200D01*
X0285106Y0159401D02*
X0285106Y0158800D01*
X0285206Y0158800D02*
X0285005Y0158800D01*
X0285358Y0158900D02*
X0285358Y0159100D01*
X0285458Y0159200D01*
X0285658Y0159200D01*
X0285758Y0159100D01*
X0285758Y0158900D01*
X0285658Y0158800D01*
X0285458Y0158800D01*
X0285358Y0158900D01*
X0285206Y0159401D02*
X0285106Y0159401D01*
X0284437Y0159200D02*
X0284437Y0158700D01*
X0284537Y0158600D01*
X0284637Y0158600D01*
X0285910Y0159100D02*
X0286010Y0159000D01*
X0286311Y0159000D01*
X0286311Y0158800D02*
X0286311Y0159401D01*
X0286010Y0159401D01*
X0285910Y0159300D01*
X0285910Y0159100D01*
X0287031Y0158800D02*
X0287231Y0158800D01*
X0287131Y0158800D02*
X0287131Y0159401D01*
X0287231Y0159401D01*
X0287484Y0159200D02*
X0287383Y0159100D01*
X0287383Y0158800D01*
X0287684Y0158800D01*
X0287784Y0158900D01*
X0287684Y0159000D01*
X0287383Y0159000D01*
X0287484Y0159200D02*
X0287684Y0159200D01*
X0287936Y0159300D02*
X0288036Y0159401D01*
X0288236Y0159401D01*
X0288336Y0159300D01*
X0288336Y0158900D01*
X0288236Y0158800D01*
X0288036Y0158800D01*
X0287936Y0158900D01*
X0289041Y0158900D02*
X0289141Y0158800D01*
X0289341Y0158800D01*
X0289441Y0158900D01*
X0289593Y0158800D02*
X0289994Y0158800D01*
X0290146Y0158900D02*
X0290246Y0158800D01*
X0290446Y0158800D01*
X0290546Y0158900D01*
X0290146Y0159300D01*
X0290146Y0158900D01*
X0289994Y0159200D02*
X0289793Y0159401D01*
X0289793Y0158800D01*
X0289441Y0159100D02*
X0289241Y0159200D01*
X0289141Y0159200D01*
X0289041Y0159100D01*
X0289041Y0158900D01*
X0289441Y0159100D02*
X0289441Y0159401D01*
X0289041Y0159401D01*
X0290146Y0159300D02*
X0290246Y0159401D01*
X0290446Y0159401D01*
X0290546Y0159300D01*
X0290546Y0158900D01*
X0290698Y0158800D02*
X0291099Y0158800D01*
X0290698Y0159200D01*
X0290698Y0159300D01*
X0290798Y0159401D01*
X0290998Y0159401D01*
X0291099Y0159300D01*
X0291251Y0159401D02*
X0291651Y0158800D01*
X0291803Y0158900D02*
X0291903Y0159000D01*
X0292103Y0159000D01*
X0292203Y0159100D01*
X0292103Y0159200D01*
X0291803Y0159200D01*
X0291803Y0158900D02*
X0291903Y0158800D01*
X0292203Y0158800D01*
X0292364Y0158800D02*
X0292664Y0159000D01*
X0292364Y0159200D01*
X0292664Y0159401D02*
X0292664Y0158800D01*
X0292824Y0159200D02*
X0292924Y0159200D01*
X0293124Y0159000D01*
X0293276Y0159000D02*
X0293577Y0159000D01*
X0293677Y0158900D01*
X0293577Y0158800D01*
X0293276Y0158800D01*
X0293276Y0159100D01*
X0293376Y0159200D01*
X0293577Y0159200D01*
X0293829Y0159401D02*
X0293829Y0158800D01*
X0294229Y0158800D02*
X0294229Y0159401D01*
X0294029Y0159200D01*
X0293829Y0159401D01*
X0293124Y0159200D02*
X0293124Y0158800D01*
X0294934Y0158800D02*
X0295234Y0158800D01*
X0295334Y0158900D01*
X0295334Y0159100D01*
X0295234Y0159200D01*
X0294934Y0159200D01*
X0294934Y0159401D02*
X0294934Y0158800D01*
X0295486Y0158800D02*
X0295486Y0159100D01*
X0295586Y0159200D01*
X0295887Y0159200D01*
X0295887Y0158800D01*
X0296039Y0158800D02*
X0296339Y0158800D01*
X0296439Y0158900D01*
X0296339Y0159000D01*
X0296039Y0159000D01*
X0296039Y0159100D02*
X0296039Y0158800D01*
X0296039Y0159100D02*
X0296139Y0159200D01*
X0296339Y0159200D01*
X0297144Y0159200D02*
X0297444Y0159200D01*
X0297544Y0159100D01*
X0297444Y0159000D01*
X0297244Y0159000D01*
X0297144Y0158900D01*
X0297244Y0158800D01*
X0297544Y0158800D01*
X0297696Y0158900D02*
X0297696Y0159100D01*
X0297796Y0159200D01*
X0297996Y0159200D01*
X0298096Y0159100D01*
X0298096Y0158900D01*
X0297996Y0158800D01*
X0297796Y0158800D01*
X0297696Y0158900D01*
X0298249Y0158800D02*
X0298549Y0158800D01*
X0298649Y0158900D01*
X0298649Y0159100D01*
X0298549Y0159200D01*
X0298249Y0159200D01*
X0298249Y0158700D01*
X0298349Y0158600D01*
X0298449Y0158600D01*
X0298801Y0158900D02*
X0298801Y0159100D01*
X0298901Y0159200D01*
X0299101Y0159200D01*
X0299201Y0159100D01*
X0299201Y0158900D01*
X0299101Y0158800D01*
X0298901Y0158800D01*
X0298801Y0158900D01*
X0299353Y0158800D02*
X0299754Y0158800D01*
X0299754Y0159401D01*
X0299906Y0159401D02*
X0300306Y0158800D01*
X0300458Y0158900D02*
X0300558Y0159000D01*
X0300759Y0159000D01*
X0300859Y0159100D01*
X0300759Y0159200D01*
X0300458Y0159200D01*
X0300458Y0158900D02*
X0300558Y0158800D01*
X0300859Y0158800D01*
X0301011Y0158800D02*
X0301011Y0159100D01*
X0301111Y0159200D01*
X0301411Y0159200D01*
X0301411Y0158800D01*
X0301563Y0158900D02*
X0301563Y0159100D01*
X0301663Y0159200D01*
X0301864Y0159200D01*
X0301964Y0159100D01*
X0301964Y0158900D01*
X0301864Y0158800D01*
X0301663Y0158800D01*
X0301563Y0158900D01*
X0302132Y0158800D02*
X0302332Y0158800D01*
X0302232Y0158800D02*
X0302232Y0159200D01*
X0302332Y0159200D01*
X0302500Y0159200D02*
X0302700Y0159200D01*
X0302600Y0159300D02*
X0302600Y0158900D01*
X0302500Y0158800D01*
X0302852Y0158900D02*
X0302852Y0159100D01*
X0302952Y0159200D01*
X0303153Y0159200D01*
X0303253Y0159100D01*
X0303253Y0158900D01*
X0303153Y0158800D01*
X0302952Y0158800D01*
X0302852Y0158900D01*
X0303405Y0158800D02*
X0303405Y0159100D01*
X0303505Y0159200D01*
X0303605Y0159100D01*
X0303605Y0158800D01*
X0303805Y0158800D02*
X0303805Y0159200D01*
X0303705Y0159200D01*
X0303605Y0159100D01*
X0303957Y0159100D02*
X0304057Y0159200D01*
X0304258Y0159200D01*
X0304358Y0159100D01*
X0304358Y0158900D01*
X0304258Y0158800D01*
X0304057Y0158800D01*
X0303957Y0158900D01*
X0303957Y0159100D01*
X0304518Y0159200D02*
X0304618Y0159200D01*
X0304818Y0159000D01*
X0304970Y0159100D02*
X0305070Y0159000D01*
X0305370Y0159000D01*
X0305370Y0158800D02*
X0305370Y0159401D01*
X0305070Y0159401D01*
X0304970Y0159300D01*
X0304970Y0159100D01*
X0304818Y0159200D02*
X0304818Y0158800D01*
X0306075Y0158800D02*
X0306375Y0158800D01*
X0306475Y0158900D01*
X0306475Y0159100D01*
X0306375Y0159200D01*
X0306075Y0159200D01*
X0306075Y0159401D02*
X0306075Y0158800D01*
X0306628Y0158800D02*
X0306628Y0159100D01*
X0306728Y0159200D01*
X0307028Y0159200D01*
X0307028Y0158800D01*
X0307180Y0158800D02*
X0307480Y0158800D01*
X0307580Y0158900D01*
X0307480Y0159000D01*
X0307180Y0159000D01*
X0307180Y0159100D02*
X0307180Y0158800D01*
X0307180Y0159100D02*
X0307280Y0159200D01*
X0307480Y0159200D01*
X0308285Y0159200D02*
X0308585Y0159200D01*
X0308685Y0159100D01*
X0308585Y0159000D01*
X0308385Y0159000D01*
X0308285Y0158900D01*
X0308385Y0158800D01*
X0308685Y0158800D01*
X0308837Y0158900D02*
X0308937Y0158800D01*
X0309238Y0158800D01*
X0309406Y0158800D02*
X0309606Y0158800D01*
X0309506Y0158800D02*
X0309506Y0159200D01*
X0309606Y0159200D01*
X0309758Y0159100D02*
X0309758Y0158800D01*
X0309758Y0159100D02*
X0309858Y0159200D01*
X0310058Y0159200D01*
X0310158Y0159100D01*
X0310311Y0159200D02*
X0310611Y0159200D01*
X0310711Y0159100D01*
X0310611Y0159000D01*
X0310411Y0159000D01*
X0310311Y0158900D01*
X0310411Y0158800D01*
X0310711Y0158800D01*
X0310871Y0159200D02*
X0310971Y0159200D01*
X0311171Y0159000D01*
X0311323Y0158900D02*
X0311323Y0159100D01*
X0311424Y0159200D01*
X0311624Y0159200D01*
X0311724Y0159100D01*
X0311724Y0158900D01*
X0311624Y0158800D01*
X0311424Y0158800D01*
X0311323Y0158900D01*
X0311171Y0158800D02*
X0311171Y0159200D01*
X0311876Y0159200D02*
X0312176Y0159200D01*
X0312276Y0159100D01*
X0312176Y0159000D01*
X0311976Y0159000D01*
X0311876Y0158900D01*
X0311976Y0158800D01*
X0312276Y0158800D01*
X0312428Y0158800D02*
X0312428Y0159100D01*
X0312528Y0159200D01*
X0312829Y0159200D01*
X0312829Y0158800D01*
X0312981Y0158900D02*
X0312981Y0159100D01*
X0313081Y0159200D01*
X0313281Y0159200D01*
X0313381Y0159100D01*
X0313381Y0158900D01*
X0313281Y0158800D01*
X0313081Y0158800D01*
X0312981Y0158900D01*
X0313533Y0158900D02*
X0313633Y0158800D01*
X0313934Y0158800D01*
X0314086Y0158900D02*
X0314186Y0158800D01*
X0314386Y0158800D01*
X0314486Y0158900D01*
X0314386Y0159100D02*
X0314186Y0159100D01*
X0314086Y0159000D01*
X0314086Y0158900D01*
X0313934Y0158600D02*
X0313934Y0159200D01*
X0313633Y0159200D01*
X0313533Y0159100D01*
X0313533Y0158900D01*
X0314086Y0159300D02*
X0314186Y0159401D01*
X0314386Y0159401D01*
X0314486Y0159300D01*
X0314486Y0159200D01*
X0314386Y0159100D01*
X0314638Y0159401D02*
X0315039Y0158800D01*
X0315207Y0158800D02*
X0315407Y0158800D01*
X0315307Y0158800D02*
X0315307Y0159401D01*
X0315407Y0159401D01*
X0315659Y0159200D02*
X0315559Y0159100D01*
X0315559Y0158800D01*
X0315859Y0158800D01*
X0315959Y0158900D01*
X0315859Y0159000D01*
X0315559Y0159000D01*
X0315659Y0159200D02*
X0315859Y0159200D01*
X0316119Y0159200D02*
X0316220Y0159200D01*
X0316420Y0159000D01*
X0316572Y0159000D02*
X0316972Y0159000D01*
X0316972Y0158900D02*
X0316972Y0159100D01*
X0316872Y0159200D01*
X0316672Y0159200D01*
X0316572Y0159100D01*
X0316572Y0159000D01*
X0316672Y0158800D02*
X0316872Y0158800D01*
X0316972Y0158900D01*
X0317124Y0158800D02*
X0317124Y0159100D01*
X0317224Y0159200D01*
X0317525Y0159200D01*
X0317525Y0158800D01*
X0317677Y0159000D02*
X0318077Y0159000D01*
X0318077Y0158900D02*
X0318077Y0159100D01*
X0317977Y0159200D01*
X0317777Y0159200D01*
X0317677Y0159100D01*
X0317677Y0159000D01*
X0317777Y0158800D02*
X0317977Y0158800D01*
X0318077Y0158900D01*
X0318229Y0158900D02*
X0318229Y0159100D01*
X0318429Y0159100D01*
X0318229Y0158900D02*
X0318329Y0158800D01*
X0318529Y0158800D01*
X0318630Y0158900D01*
X0318630Y0159300D01*
X0318529Y0159401D01*
X0318329Y0159401D01*
X0318229Y0159300D01*
X0319334Y0159401D02*
X0319734Y0159401D01*
X0319734Y0158800D01*
X0319334Y0158800D01*
X0319534Y0159100D02*
X0319734Y0159100D01*
X0319887Y0159100D02*
X0320287Y0159100D01*
X0320287Y0159200D02*
X0320087Y0159401D01*
X0319887Y0159200D01*
X0319887Y0158800D01*
X0320287Y0158800D02*
X0320287Y0159200D01*
X0320439Y0159300D02*
X0320539Y0159401D01*
X0320739Y0159401D01*
X0320839Y0159300D01*
X0320839Y0159200D01*
X0320739Y0159100D01*
X0320539Y0159100D01*
X0320439Y0159000D01*
X0320439Y0158900D01*
X0320539Y0158800D01*
X0320739Y0158800D01*
X0320839Y0158900D01*
X0321544Y0158800D02*
X0321844Y0158800D01*
X0321944Y0158900D01*
X0321944Y0159200D01*
X0322213Y0159401D02*
X0322213Y0158800D01*
X0322313Y0158800D02*
X0322112Y0158800D01*
X0322465Y0158900D02*
X0322465Y0159100D01*
X0322565Y0159200D01*
X0322765Y0159200D01*
X0322865Y0159100D01*
X0322865Y0158900D01*
X0322765Y0158800D01*
X0322565Y0158800D01*
X0322465Y0158900D01*
X0322313Y0159401D02*
X0322213Y0159401D01*
X0321544Y0159200D02*
X0321544Y0158700D01*
X0321644Y0158600D01*
X0321744Y0158600D01*
X0323017Y0159100D02*
X0323117Y0159000D01*
X0323418Y0159000D01*
X0323418Y0158800D02*
X0323418Y0159401D01*
X0323117Y0159401D01*
X0323017Y0159300D01*
X0323017Y0159100D01*
X0324138Y0158800D02*
X0324338Y0158800D01*
X0324238Y0158800D02*
X0324238Y0159401D01*
X0324338Y0159401D01*
X0324591Y0159200D02*
X0324490Y0159100D01*
X0324490Y0158800D01*
X0324791Y0158800D01*
X0324891Y0158900D01*
X0324791Y0159000D01*
X0324490Y0159000D01*
X0324591Y0159200D02*
X0324791Y0159200D01*
X0325043Y0159300D02*
X0325143Y0159401D01*
X0325343Y0159401D01*
X0325443Y0159300D01*
X0325443Y0158900D01*
X0325343Y0158800D01*
X0325143Y0158800D01*
X0325043Y0158900D01*
X0325595Y0159401D02*
X0325996Y0158800D01*
X0326148Y0159000D02*
X0326548Y0159000D01*
X0326548Y0158900D02*
X0326548Y0159100D01*
X0326448Y0159200D01*
X0326248Y0159200D01*
X0326148Y0159100D01*
X0326148Y0159000D01*
X0326248Y0158800D02*
X0326448Y0158800D01*
X0326548Y0158900D01*
X0326700Y0159200D02*
X0326900Y0158800D01*
X0327101Y0159200D01*
X0327369Y0159200D02*
X0327369Y0158800D01*
X0327469Y0158800D02*
X0327269Y0158800D01*
X0327369Y0159200D02*
X0327469Y0159200D01*
X0327629Y0159200D02*
X0327729Y0159200D01*
X0327929Y0159000D01*
X0328081Y0158900D02*
X0328081Y0159300D01*
X0328181Y0159401D01*
X0328482Y0159401D01*
X0328482Y0158800D01*
X0328181Y0158800D01*
X0328081Y0158900D01*
X0327929Y0158800D02*
X0327929Y0159200D01*
X0327369Y0159401D02*
X0327369Y0159501D01*
X0329186Y0159100D02*
X0329186Y0159000D01*
X0329587Y0159000D01*
X0329587Y0158900D02*
X0329587Y0159100D01*
X0329487Y0159200D01*
X0329286Y0159200D01*
X0329186Y0159100D01*
X0329286Y0158800D02*
X0329487Y0158800D01*
X0329587Y0158900D01*
X0329755Y0158800D02*
X0329955Y0158800D01*
X0329855Y0158800D02*
X0329855Y0159401D01*
X0329955Y0159401D01*
X0330107Y0159200D02*
X0330407Y0159200D01*
X0330507Y0159100D01*
X0330507Y0158900D01*
X0330407Y0158800D01*
X0330107Y0158800D01*
X0330107Y0158700D02*
X0330107Y0159200D01*
X0330107Y0158700D02*
X0330207Y0158600D01*
X0330307Y0158600D01*
X0330660Y0158900D02*
X0330660Y0159100D01*
X0330760Y0159200D01*
X0330960Y0159200D01*
X0331060Y0159100D01*
X0331060Y0158900D01*
X0330960Y0158800D01*
X0330760Y0158800D01*
X0330660Y0158900D01*
X0331212Y0158900D02*
X0331212Y0159100D01*
X0331312Y0159200D01*
X0331512Y0159200D01*
X0331612Y0159100D01*
X0331612Y0158900D01*
X0331512Y0158800D01*
X0331312Y0158800D01*
X0331212Y0158900D01*
X0331764Y0158900D02*
X0331764Y0159100D01*
X0331965Y0159100D01*
X0332165Y0158900D02*
X0332065Y0158800D01*
X0331865Y0158800D01*
X0331764Y0158900D01*
X0331764Y0159300D02*
X0331865Y0159401D01*
X0332065Y0159401D01*
X0332165Y0159300D01*
X0332165Y0158900D01*
X0332317Y0159401D02*
X0332717Y0158800D01*
X0332869Y0158800D02*
X0332869Y0159100D01*
X0332969Y0159200D01*
X0333270Y0159200D01*
X0333270Y0158800D01*
X0333422Y0158900D02*
X0333422Y0159100D01*
X0333522Y0159200D01*
X0333722Y0159200D01*
X0333822Y0159100D01*
X0333822Y0158900D01*
X0333722Y0158800D01*
X0333522Y0158800D01*
X0333422Y0158900D01*
X0333974Y0158900D02*
X0334074Y0159000D01*
X0334275Y0159000D01*
X0334375Y0159100D01*
X0334275Y0159200D01*
X0333974Y0159200D01*
X0333974Y0158900D02*
X0334074Y0158800D01*
X0334375Y0158800D01*
X0334543Y0158800D02*
X0334743Y0158800D01*
X0334643Y0158800D02*
X0334643Y0159401D01*
X0334743Y0159401D01*
X0335011Y0159401D02*
X0335011Y0158800D01*
X0335111Y0158800D02*
X0334911Y0158800D01*
X0335279Y0158800D02*
X0335480Y0158800D01*
X0335380Y0158800D02*
X0335380Y0159200D01*
X0335480Y0159200D01*
X0335632Y0159200D02*
X0335632Y0158900D01*
X0335732Y0158800D01*
X0335832Y0158900D01*
X0335932Y0158800D01*
X0336032Y0158900D01*
X0336032Y0159200D01*
X0336184Y0159200D02*
X0336484Y0159200D01*
X0336584Y0159100D01*
X0336484Y0159000D01*
X0336284Y0159000D01*
X0336184Y0158900D01*
X0336284Y0158800D01*
X0336584Y0158800D01*
X0336737Y0158800D02*
X0337037Y0158800D01*
X0337137Y0158900D01*
X0337037Y0159000D01*
X0336737Y0159000D01*
X0336737Y0159100D02*
X0336737Y0158800D01*
X0336737Y0159100D02*
X0336837Y0159200D01*
X0337037Y0159200D01*
X0337289Y0159100D02*
X0337289Y0158800D01*
X0337489Y0158800D02*
X0337489Y0159100D01*
X0337389Y0159200D01*
X0337289Y0159100D01*
X0337489Y0159100D02*
X0337589Y0159200D01*
X0337689Y0159200D01*
X0337689Y0158800D01*
X0337842Y0158900D02*
X0337842Y0159100D01*
X0337942Y0159200D01*
X0338142Y0159200D01*
X0338242Y0159100D01*
X0338242Y0158900D01*
X0338142Y0158800D01*
X0337942Y0158800D01*
X0337842Y0158900D01*
X0338394Y0158800D02*
X0338394Y0159100D01*
X0338494Y0159200D01*
X0338694Y0159200D01*
X0338794Y0159100D01*
X0338962Y0159200D02*
X0339163Y0159200D01*
X0339063Y0159300D02*
X0339063Y0158900D01*
X0338962Y0158800D01*
X0338794Y0158800D02*
X0338794Y0159401D01*
X0339315Y0159401D02*
X0339715Y0158800D01*
X0339867Y0158900D02*
X0339967Y0159000D01*
X0340167Y0159000D01*
X0340268Y0159100D01*
X0340167Y0159200D01*
X0339867Y0159200D01*
X0339867Y0158900D02*
X0339967Y0158800D01*
X0340268Y0158800D01*
X0340428Y0159200D02*
X0340528Y0159200D01*
X0340728Y0159000D01*
X0340880Y0159000D02*
X0341280Y0159000D01*
X0341280Y0158900D02*
X0341280Y0159100D01*
X0341180Y0159200D01*
X0340980Y0159200D01*
X0340880Y0159100D01*
X0340880Y0159000D01*
X0340980Y0158800D02*
X0341180Y0158800D01*
X0341280Y0158900D01*
X0341433Y0158900D02*
X0341533Y0159000D01*
X0341733Y0159000D01*
X0341833Y0159100D01*
X0341733Y0159200D01*
X0341433Y0159200D01*
X0341433Y0158900D02*
X0341533Y0158800D01*
X0341833Y0158800D01*
X0341985Y0158900D02*
X0341985Y0159401D01*
X0342385Y0159401D02*
X0342385Y0158900D01*
X0342285Y0158800D01*
X0342085Y0158800D01*
X0341985Y0158900D01*
X0342537Y0159401D02*
X0342938Y0158800D01*
X0340728Y0158800D02*
X0340728Y0159200D01*
X0335380Y0159401D02*
X0335380Y0159501D01*
X0335111Y0159401D02*
X0335011Y0159401D01*
X0316420Y0159200D02*
X0316420Y0158800D01*
X0310158Y0158800D02*
X0310158Y0159401D01*
X0309506Y0159401D02*
X0309506Y0159501D01*
X0309238Y0159200D02*
X0308937Y0159200D01*
X0308837Y0159100D01*
X0308837Y0158900D01*
X0309238Y0158600D02*
X0309238Y0159200D01*
X0302232Y0159401D02*
X0302232Y0159501D01*
X0281975Y0159501D02*
X0281975Y0159401D01*
X0272215Y0159501D02*
X0272215Y0159401D01*
X0268332Y0159100D02*
X0268232Y0159000D01*
X0268232Y0158900D01*
X0264028Y0158800D02*
X0264028Y0159401D01*
X0263728Y0159401D01*
X0263628Y0159300D01*
X0257767Y0159200D02*
X0257767Y0158800D01*
X0254452Y0158600D02*
X0254452Y0159200D01*
X0254152Y0159200D01*
X0254052Y0159100D01*
D70*
X0245798Y0127248D02*
X0206428Y0127248D01*
X0167057Y0127248D01*
X0119038Y0127248D01*
X0119038Y0103626D01*
X0167057Y0103626D01*
X0206428Y0103626D01*
X0223788Y0103626D01*
X0235538Y0103626D02*
X0245798Y0103626D01*
X0285168Y0103626D01*
X0324538Y0103626D01*
X0340538Y0103626D01*
X0340538Y0127248D01*
X0324538Y0127248D01*
X0285168Y0127248D01*
X0245798Y0127248D01*
X0185038Y0096500D02*
X0185038Y0060500D01*
X0105038Y0060500D01*
X0105038Y0096500D01*
X0185038Y0096500D01*
X0167057Y0051748D02*
X0119038Y0051748D01*
X0119038Y0028126D01*
X0167057Y0028126D01*
X0206428Y0028126D01*
X0223788Y0028126D01*
X0235538Y0028126D02*
X0245798Y0028126D01*
X0285168Y0028126D01*
X0324538Y0028126D01*
X0340538Y0028126D01*
X0340538Y0051748D01*
X0324538Y0051748D01*
X0285168Y0051748D01*
X0245798Y0051748D01*
X0206428Y0051748D01*
X0167057Y0051748D01*
D71*
X0283293Y0131942D02*
X0283293Y0133155D01*
X0284506Y0133155D01*
X0283293Y0131942D02*
X0283900Y0131335D01*
X0285113Y0131335D01*
X0285720Y0131942D01*
X0285720Y0134368D01*
X0285113Y0134975D01*
X0283900Y0134975D01*
X0283293Y0134368D01*
X0286918Y0134368D02*
X0286918Y0131942D01*
X0287525Y0131335D01*
X0288738Y0131335D01*
X0289345Y0131942D01*
X0289345Y0134368D01*
X0288738Y0134975D01*
X0287525Y0134975D01*
X0286918Y0134368D01*
X0290543Y0131335D02*
X0292970Y0131335D01*
X0292970Y0134975D01*
X0294168Y0133762D02*
X0294168Y0131335D01*
X0294168Y0133155D02*
X0296595Y0133155D01*
X0296595Y0133762D02*
X0295382Y0134975D01*
X0294168Y0133762D01*
X0296595Y0133762D02*
X0296595Y0131335D01*
X0297793Y0131335D02*
X0297793Y0134975D01*
X0300220Y0134975D02*
X0297793Y0131335D01*
X0300220Y0131335D02*
X0300220Y0134975D01*
X0301419Y0133762D02*
X0301419Y0131335D01*
X0301419Y0133155D02*
X0303845Y0133155D01*
X0303845Y0133762D02*
X0302632Y0134975D01*
X0301419Y0133762D01*
X0303845Y0133762D02*
X0303845Y0131335D01*
X0305044Y0130728D02*
X0307470Y0130728D01*
X0308669Y0131942D02*
X0308669Y0134368D01*
X0309276Y0134975D01*
X0310489Y0134975D01*
X0311096Y0134368D01*
X0311096Y0131942D01*
X0310489Y0131335D01*
X0309276Y0131335D01*
X0308669Y0131942D01*
X0312299Y0131335D02*
X0313512Y0131335D01*
X0312906Y0131335D02*
X0312906Y0134975D01*
X0313512Y0134975D02*
X0312299Y0134975D01*
X0314711Y0134368D02*
X0314711Y0133155D01*
X0315317Y0132548D01*
X0317138Y0132548D01*
X0318336Y0132548D02*
X0318336Y0131942D01*
X0318943Y0131335D01*
X0320763Y0131335D01*
X0320763Y0134975D01*
X0318943Y0134975D01*
X0318336Y0134368D01*
X0318336Y0133762D01*
X0318943Y0133155D01*
X0320763Y0133155D01*
X0321961Y0132548D02*
X0321961Y0131942D01*
X0322568Y0131335D01*
X0323781Y0131335D01*
X0324388Y0131942D01*
X0323781Y0133155D02*
X0322568Y0133155D01*
X0321961Y0132548D01*
X0321961Y0134368D02*
X0322568Y0134975D01*
X0323781Y0134975D01*
X0324388Y0134368D01*
X0324388Y0133762D01*
X0323781Y0133155D01*
X0318943Y0133155D02*
X0318336Y0132548D01*
X0317138Y0131335D02*
X0317138Y0134975D01*
X0315317Y0134975D01*
X0314711Y0134368D01*
X0315924Y0132548D02*
X0314711Y0131335D01*
X0315317Y0059475D02*
X0314711Y0058868D01*
X0314711Y0057655D01*
X0315317Y0057048D01*
X0317138Y0057048D01*
X0318336Y0057048D02*
X0318336Y0056442D01*
X0318943Y0055835D01*
X0320763Y0055835D01*
X0320763Y0059475D01*
X0318943Y0059475D01*
X0318336Y0058868D01*
X0318336Y0058262D01*
X0318943Y0057655D01*
X0320763Y0057655D01*
X0321961Y0057048D02*
X0321961Y0056442D01*
X0322568Y0055835D01*
X0323781Y0055835D01*
X0324388Y0056442D01*
X0323781Y0057655D02*
X0322568Y0057655D01*
X0321961Y0057048D01*
X0321961Y0058868D02*
X0322568Y0059475D01*
X0323781Y0059475D01*
X0324388Y0058868D01*
X0324388Y0058262D01*
X0323781Y0057655D01*
X0318943Y0057655D02*
X0318336Y0057048D01*
X0317138Y0055835D02*
X0317138Y0059475D01*
X0315317Y0059475D01*
X0313512Y0059475D02*
X0312299Y0059475D01*
X0312906Y0059475D02*
X0312906Y0055835D01*
X0313512Y0055835D02*
X0312299Y0055835D01*
X0311096Y0056442D02*
X0310489Y0055835D01*
X0309276Y0055835D01*
X0308669Y0056442D01*
X0308669Y0058868D01*
X0309276Y0059475D01*
X0310489Y0059475D01*
X0311096Y0058868D01*
X0311096Y0056442D01*
X0314711Y0055835D02*
X0315924Y0057048D01*
X0307470Y0055228D02*
X0305044Y0055228D01*
X0303845Y0055835D02*
X0303845Y0058262D01*
X0302632Y0059475D01*
X0301419Y0058262D01*
X0301419Y0055835D01*
X0300220Y0056442D02*
X0300220Y0059475D01*
X0301419Y0057655D02*
X0303845Y0057655D01*
X0300220Y0056442D02*
X0299614Y0055835D01*
X0298400Y0055835D01*
X0297793Y0056442D01*
X0297793Y0059475D01*
X0296595Y0059475D02*
X0294168Y0055835D01*
X0296595Y0055835D02*
X0294168Y0059475D01*
D72*
X0329143Y0059722D02*
X0329910Y0060489D01*
X0331445Y0060489D01*
X0332212Y0059722D01*
X0329143Y0059722D02*
X0329143Y0058954D01*
X0332212Y0055885D01*
X0329143Y0055885D01*
X0366738Y0045165D02*
X0366738Y0042096D01*
X0371342Y0042096D01*
X0371342Y0040561D02*
X0371342Y0037492D01*
X0366738Y0037492D01*
X0366738Y0040561D01*
X0369040Y0039027D02*
X0369040Y0037492D01*
X0371342Y0035957D02*
X0371342Y0032888D01*
X0366738Y0032888D01*
X0366738Y0035957D01*
X0369040Y0034423D02*
X0369040Y0032888D01*
X0369040Y0031354D02*
X0369040Y0028284D01*
X0366738Y0028284D02*
X0371342Y0028284D01*
X0371342Y0026750D02*
X0366738Y0026750D01*
X0368272Y0025215D01*
X0366738Y0023680D01*
X0371342Y0023680D01*
X0371342Y0031354D02*
X0366738Y0031354D01*
X0332212Y0023521D02*
X0330677Y0025056D01*
X0330677Y0020452D01*
X0329143Y0020452D02*
X0332212Y0020452D01*
X0332212Y0095952D02*
X0329143Y0095952D01*
X0330677Y0095952D02*
X0330677Y0100556D01*
X0332212Y0099021D01*
X0332212Y0131385D02*
X0329143Y0131385D01*
X0332212Y0131385D02*
X0329143Y0134454D01*
X0329143Y0135222D01*
X0329910Y0135989D01*
X0331445Y0135989D01*
X0332212Y0135222D01*
X0402763Y0141375D02*
X0402763Y0143777D01*
X0402763Y0145058D02*
X0402763Y0147460D01*
X0403964Y0148741D02*
X0402763Y0149942D01*
X0403964Y0151143D01*
X0406366Y0151143D01*
X0406366Y0152424D02*
X0402763Y0152424D01*
X0402763Y0154826D01*
X0402763Y0156108D02*
X0402763Y0158510D01*
X0402162Y0159791D02*
X0402162Y0162193D01*
X0403363Y0163474D02*
X0402763Y0164074D01*
X0402763Y0165275D01*
X0403363Y0165876D01*
X0403964Y0165876D01*
X0404564Y0165275D01*
X0404564Y0164074D01*
X0405165Y0163474D01*
X0405765Y0163474D01*
X0406366Y0164074D01*
X0406366Y0165275D01*
X0405765Y0165876D01*
X0406366Y0167157D02*
X0402763Y0167157D01*
X0404564Y0167157D02*
X0404564Y0169559D01*
X0402763Y0169559D02*
X0406366Y0169559D01*
X0406366Y0170840D02*
X0406366Y0172041D01*
X0406366Y0171441D02*
X0402763Y0171441D01*
X0402763Y0172041D02*
X0402763Y0170840D01*
X0402763Y0173296D02*
X0406366Y0173296D01*
X0406366Y0175698D01*
X0406366Y0176979D02*
X0406366Y0179381D01*
X0406366Y0178180D02*
X0402763Y0178180D01*
X0402763Y0180662D02*
X0402763Y0183064D01*
X0402763Y0184345D02*
X0406366Y0184345D01*
X0406366Y0186147D01*
X0405765Y0186747D01*
X0404564Y0186747D01*
X0403964Y0186147D01*
X0403964Y0184345D01*
X0403964Y0185546D02*
X0402763Y0186747D01*
X0406366Y0183064D02*
X0406366Y0180662D01*
X0402763Y0180662D01*
X0404564Y0180662D02*
X0404564Y0181863D01*
X0404564Y0174497D02*
X0404564Y0173296D01*
X0406366Y0156108D02*
X0402763Y0156108D01*
X0404564Y0153625D02*
X0404564Y0152424D01*
X0406366Y0152424D02*
X0406366Y0154826D01*
X0406366Y0148741D02*
X0403964Y0148741D01*
X0404564Y0146259D02*
X0404564Y0145058D01*
X0402763Y0145058D02*
X0406366Y0145058D01*
X0406366Y0147460D01*
X0406366Y0141375D02*
X0402763Y0141375D01*
X0298461Y0201467D02*
X0297694Y0200700D01*
X0296159Y0200700D01*
X0295392Y0201467D01*
X0295392Y0203002D01*
X0296159Y0203769D01*
X0296927Y0203769D01*
X0298461Y0203002D01*
X0298461Y0205304D01*
X0295392Y0205304D01*
X0293857Y0205304D02*
X0293857Y0202235D01*
X0292323Y0200700D01*
X0290788Y0202235D01*
X0290788Y0205304D01*
X0289254Y0199933D02*
X0286184Y0199933D01*
X0284650Y0200700D02*
X0284650Y0205304D01*
X0282348Y0205304D01*
X0281580Y0204537D01*
X0281580Y0203002D01*
X0282348Y0202235D01*
X0284650Y0202235D01*
X0283115Y0202235D02*
X0281580Y0200700D01*
X0280046Y0200700D02*
X0280046Y0205304D01*
X0276976Y0205304D01*
X0275442Y0204537D02*
X0275442Y0201467D01*
X0274674Y0200700D01*
X0273140Y0200700D01*
X0272373Y0201467D01*
X0272373Y0203002D01*
X0273907Y0203002D01*
X0272373Y0204537D02*
X0273140Y0205304D01*
X0274674Y0205304D01*
X0275442Y0204537D01*
X0278511Y0203002D02*
X0280046Y0203002D01*
X0280046Y0200700D02*
X0276976Y0200700D01*
X0267714Y0256200D02*
X0268481Y0256967D01*
X0267714Y0256200D02*
X0266179Y0256200D01*
X0265412Y0256967D01*
X0265412Y0257735D01*
X0266179Y0258502D01*
X0267714Y0258502D01*
X0268481Y0259269D01*
X0268481Y0260037D01*
X0267714Y0260804D01*
X0266179Y0260804D01*
X0265412Y0260037D01*
X0263877Y0260804D02*
X0263877Y0256200D01*
X0263877Y0258502D02*
X0260808Y0258502D01*
X0260808Y0260804D02*
X0260808Y0256200D01*
X0257739Y0256200D02*
X0257739Y0260804D01*
X0259273Y0260804D02*
X0256204Y0260804D01*
X0254669Y0260804D02*
X0254669Y0256200D01*
X0252367Y0256200D01*
X0251600Y0256967D01*
X0251600Y0260037D01*
X0252367Y0260804D01*
X0254669Y0260804D01*
X0250065Y0260804D02*
X0250065Y0256200D01*
X0248531Y0257735D01*
X0246996Y0256200D01*
X0246996Y0260804D01*
X0245461Y0260804D02*
X0242392Y0256200D01*
X0242392Y0260804D01*
X0245461Y0260804D02*
X0245461Y0256200D01*
X0240858Y0255433D02*
X0237788Y0255433D01*
X0236254Y0256967D02*
X0235486Y0256200D01*
X0233952Y0256200D01*
X0233184Y0256967D01*
X0231650Y0256967D02*
X0230882Y0256200D01*
X0229348Y0256200D01*
X0228580Y0256967D01*
X0228580Y0260037D01*
X0229348Y0260804D01*
X0230882Y0260804D01*
X0231650Y0260037D01*
X0231650Y0256967D01*
X0233184Y0260037D02*
X0233952Y0260804D01*
X0235486Y0260804D01*
X0236254Y0260037D01*
X0236254Y0256967D01*
X0227046Y0256200D02*
X0227046Y0260804D01*
X0223976Y0256200D01*
X0223976Y0260804D01*
X0222442Y0260804D02*
X0219373Y0256200D01*
X0219373Y0260804D01*
X0222442Y0260804D02*
X0222442Y0256200D01*
X0152273Y0256200D02*
X0149971Y0256200D01*
X0149204Y0256967D01*
X0149204Y0257735D01*
X0149971Y0258502D01*
X0152273Y0258502D01*
X0149971Y0258502D02*
X0149204Y0259269D01*
X0149204Y0260037D01*
X0149971Y0260804D01*
X0152273Y0260804D01*
X0152273Y0256200D01*
X0147669Y0256967D02*
X0146902Y0256200D01*
X0145367Y0256200D01*
X0144600Y0256967D01*
X0144600Y0257735D01*
X0145367Y0258502D01*
X0146902Y0258502D01*
X0147669Y0259269D01*
X0147669Y0260037D01*
X0146902Y0260804D01*
X0145367Y0260804D01*
X0144600Y0260037D01*
X0143065Y0260804D02*
X0143065Y0256200D01*
X0143065Y0257735D02*
X0140763Y0257735D01*
X0139996Y0258502D01*
X0139996Y0260037D01*
X0140763Y0260804D01*
X0143065Y0260804D01*
X0138461Y0260804D02*
X0138461Y0256200D01*
X0136159Y0256200D01*
X0135392Y0256967D01*
X0135392Y0260037D01*
X0136159Y0260804D01*
X0138461Y0260804D01*
X0133858Y0255433D02*
X0130788Y0255433D01*
X0129254Y0256967D02*
X0128486Y0256200D01*
X0126952Y0256200D01*
X0126184Y0256967D01*
X0124650Y0256967D02*
X0123882Y0256200D01*
X0122348Y0256200D01*
X0121580Y0256967D01*
X0121580Y0260037D01*
X0122348Y0260804D01*
X0123882Y0260804D01*
X0124650Y0260037D01*
X0124650Y0256967D01*
X0126184Y0260037D02*
X0126952Y0260804D01*
X0128486Y0260804D01*
X0129254Y0260037D01*
X0129254Y0256967D01*
X0120046Y0256200D02*
X0120046Y0260804D01*
X0116976Y0256200D01*
X0116976Y0260804D01*
X0115442Y0260804D02*
X0112373Y0256200D01*
X0112373Y0260804D01*
X0115442Y0260804D02*
X0115442Y0256200D01*
X0070342Y0269626D02*
X0068807Y0271161D01*
X0065738Y0271161D01*
X0065738Y0272695D02*
X0065738Y0274230D01*
X0065738Y0273463D02*
X0070342Y0273463D01*
X0070342Y0274230D02*
X0070342Y0272695D01*
X0068040Y0271161D02*
X0068040Y0268091D01*
X0068807Y0268091D02*
X0070342Y0269626D01*
X0068807Y0268091D02*
X0065738Y0268091D01*
X0066505Y0275765D02*
X0065738Y0276532D01*
X0065738Y0278067D01*
X0066505Y0278834D01*
X0069574Y0278834D01*
X0070342Y0278067D01*
X0070342Y0276532D01*
X0069574Y0275765D01*
X0066505Y0275765D01*
X0064970Y0280368D02*
X0064970Y0283438D01*
X0065738Y0284972D02*
X0070342Y0284972D01*
X0070342Y0287274D01*
X0069574Y0288042D01*
X0068040Y0288042D01*
X0067272Y0287274D01*
X0067272Y0284972D01*
X0066505Y0289576D02*
X0065738Y0290344D01*
X0065738Y0291878D01*
X0066505Y0292646D01*
X0069574Y0292646D01*
X0070342Y0291878D01*
X0070342Y0290344D01*
X0069574Y0289576D01*
X0066505Y0289576D01*
X0064970Y0294180D02*
X0064970Y0297250D01*
X0066505Y0298784D02*
X0065738Y0299552D01*
X0065738Y0301086D01*
X0066505Y0301853D01*
X0066505Y0303388D02*
X0065738Y0304155D01*
X0065738Y0305690D01*
X0066505Y0306457D01*
X0069574Y0306457D01*
X0070342Y0305690D01*
X0070342Y0304155D01*
X0069574Y0303388D01*
X0066505Y0303388D01*
X0069574Y0301853D02*
X0070342Y0301086D01*
X0070342Y0299552D01*
X0069574Y0298784D01*
X0066505Y0298784D01*
X0065738Y0307992D02*
X0070342Y0307992D01*
X0065738Y0311061D01*
X0070342Y0311061D01*
X0070342Y0312596D02*
X0065738Y0315665D01*
X0070342Y0315665D01*
X0070342Y0312596D02*
X0065738Y0312596D01*
X0099387Y0192804D02*
X0099387Y0188200D01*
X0102457Y0192804D01*
X0102457Y0188200D01*
X0103991Y0188200D02*
X0105526Y0188200D01*
X0104759Y0188200D02*
X0104759Y0192804D01*
X0105526Y0192804D02*
X0103991Y0192804D01*
X0107061Y0192804D02*
X0107061Y0189735D01*
X0108595Y0188200D01*
X0110130Y0189735D01*
X0110130Y0192804D01*
X0111665Y0192037D02*
X0112432Y0192804D01*
X0113967Y0192804D01*
X0114734Y0192037D01*
X0111665Y0192037D02*
X0111665Y0191269D01*
X0114734Y0188200D01*
X0111665Y0188200D01*
X0116269Y0188200D02*
X0119338Y0188200D01*
X0117803Y0188200D02*
X0117803Y0192804D01*
X0119338Y0191269D01*
X0070342Y0181665D02*
X0065738Y0181665D01*
X0070342Y0178596D01*
X0065738Y0178596D01*
X0065738Y0177061D02*
X0070342Y0177061D01*
X0070342Y0173992D02*
X0065738Y0177061D01*
X0065738Y0173992D02*
X0070342Y0173992D01*
X0069574Y0172457D02*
X0070342Y0171690D01*
X0070342Y0170155D01*
X0069574Y0169388D01*
X0066505Y0169388D01*
X0065738Y0170155D01*
X0065738Y0171690D01*
X0066505Y0172457D01*
X0069574Y0172457D01*
X0069574Y0167854D02*
X0070342Y0167086D01*
X0070342Y0165552D01*
X0069574Y0164784D01*
X0066505Y0164784D01*
X0065738Y0165552D01*
X0065738Y0167086D01*
X0066505Y0167854D01*
X0064970Y0163250D02*
X0064970Y0160180D01*
X0066505Y0158646D02*
X0065738Y0157878D01*
X0065738Y0155576D01*
X0070342Y0155576D01*
X0070342Y0157878D01*
X0069574Y0158646D01*
X0068807Y0158646D01*
X0068040Y0157878D01*
X0068040Y0155576D01*
X0066505Y0154042D02*
X0065738Y0153274D01*
X0065738Y0151740D01*
X0066505Y0150972D01*
X0070342Y0150972D01*
X0070342Y0149438D02*
X0070342Y0146369D01*
X0070342Y0147903D02*
X0065738Y0147903D01*
X0066505Y0154042D02*
X0070342Y0154042D01*
X0068040Y0157878D02*
X0067272Y0158646D01*
X0066505Y0158646D01*
X0066422Y0090804D02*
X0064887Y0089269D01*
X0063353Y0090804D01*
X0063353Y0086200D01*
X0061818Y0086967D02*
X0061051Y0086200D01*
X0059516Y0086200D01*
X0058749Y0086967D01*
X0058749Y0090804D01*
X0057214Y0090804D02*
X0057214Y0086200D01*
X0054145Y0086200D01*
X0052610Y0086200D02*
X0052610Y0089269D01*
X0051076Y0090804D01*
X0049541Y0089269D01*
X0049541Y0086200D01*
X0049541Y0088502D02*
X0052610Y0088502D01*
X0048006Y0090804D02*
X0044937Y0090804D01*
X0046472Y0090804D02*
X0046472Y0086200D01*
X0043402Y0086967D02*
X0042635Y0086200D01*
X0041101Y0086200D01*
X0040333Y0086967D01*
X0040333Y0090037D01*
X0041101Y0090804D01*
X0042635Y0090804D01*
X0043402Y0090037D01*
X0043402Y0086967D01*
X0038799Y0086200D02*
X0038799Y0090804D01*
X0036497Y0090804D01*
X0035729Y0090037D01*
X0035729Y0088502D01*
X0036497Y0087735D01*
X0038799Y0087735D01*
X0037264Y0087735D02*
X0035729Y0086200D01*
X0034195Y0085433D02*
X0031125Y0085433D01*
X0029591Y0086967D02*
X0028823Y0086200D01*
X0027289Y0086200D01*
X0026521Y0086967D01*
X0024987Y0086967D02*
X0024219Y0086200D01*
X0022685Y0086200D01*
X0021917Y0086967D01*
X0021917Y0090037D01*
X0022685Y0090804D01*
X0024219Y0090804D01*
X0024987Y0090037D01*
X0024987Y0086967D01*
X0026521Y0090037D02*
X0027289Y0090804D01*
X0028823Y0090804D01*
X0029591Y0090037D01*
X0029591Y0086967D01*
X0020383Y0086200D02*
X0020383Y0090804D01*
X0017314Y0086200D01*
X0017314Y0090804D01*
X0015779Y0090804D02*
X0012710Y0086200D01*
X0012710Y0090804D01*
X0015779Y0090804D02*
X0015779Y0086200D01*
X0061818Y0086967D02*
X0061818Y0090804D01*
X0066422Y0090804D02*
X0066422Y0086200D01*
X0067957Y0086967D02*
X0068724Y0086200D01*
X0070259Y0086200D01*
X0071026Y0086967D01*
X0071026Y0090804D01*
X0072561Y0090037D02*
X0073328Y0090804D01*
X0074863Y0090804D01*
X0075630Y0090037D01*
X0075630Y0086967D01*
X0074863Y0086200D01*
X0073328Y0086200D01*
X0072561Y0086967D01*
X0077165Y0086967D02*
X0077932Y0086200D01*
X0079467Y0086200D01*
X0080234Y0086967D01*
X0080234Y0090037D01*
X0079467Y0090804D01*
X0077932Y0090804D01*
X0077165Y0090037D01*
X0081769Y0089269D02*
X0081769Y0086200D01*
X0081769Y0088502D02*
X0084838Y0088502D01*
X0084838Y0089269D02*
X0083303Y0090804D01*
X0081769Y0089269D01*
X0084838Y0089269D02*
X0084838Y0086200D01*
X0067957Y0086967D02*
X0067957Y0090804D01*
X0186970Y0082853D02*
X0186970Y0079784D01*
X0188505Y0078250D02*
X0191574Y0078250D01*
X0192342Y0077482D01*
X0192342Y0075948D01*
X0191574Y0075180D01*
X0188505Y0075180D01*
X0187738Y0075948D01*
X0187738Y0077482D01*
X0188505Y0078250D01*
X0187738Y0073646D02*
X0187738Y0072111D01*
X0187738Y0072878D02*
X0192342Y0072878D01*
X0192342Y0072111D02*
X0192342Y0073646D01*
X0191574Y0070576D02*
X0190040Y0070576D01*
X0189272Y0069809D01*
X0189272Y0067507D01*
X0187738Y0067507D02*
X0192342Y0067507D01*
X0192342Y0069809D01*
X0191574Y0070576D01*
X0189272Y0069042D02*
X0187738Y0070576D01*
X0188505Y0065972D02*
X0187738Y0065205D01*
X0187738Y0062903D01*
X0192342Y0062903D01*
X0192342Y0065205D01*
X0191574Y0065972D01*
X0190807Y0065972D01*
X0190040Y0065205D01*
X0190040Y0062903D01*
X0189272Y0061369D02*
X0190040Y0060601D01*
X0190040Y0059067D01*
X0190807Y0058299D01*
X0191574Y0058299D01*
X0192342Y0059067D01*
X0192342Y0060601D01*
X0191574Y0061369D01*
X0189272Y0061369D02*
X0188505Y0061369D01*
X0187738Y0060601D01*
X0187738Y0059067D01*
X0188505Y0058299D01*
X0190040Y0065205D02*
X0189272Y0065972D01*
X0188505Y0065972D01*
X0188505Y0084388D02*
X0187738Y0085155D01*
X0187738Y0086690D01*
X0188505Y0087457D01*
X0187738Y0088992D02*
X0190807Y0088992D01*
X0192342Y0090527D01*
X0190807Y0092061D01*
X0187738Y0092061D01*
X0187738Y0093596D02*
X0192342Y0093596D01*
X0187738Y0096665D01*
X0192342Y0096665D01*
X0190040Y0092061D02*
X0190040Y0088992D01*
X0191574Y0087457D02*
X0192342Y0086690D01*
X0192342Y0085155D01*
X0191574Y0084388D01*
X0188505Y0084388D01*
D73*
X0206428Y0103626D02*
X0206428Y0107563D01*
X0206428Y0123311D02*
X0206428Y0127248D01*
X0245798Y0127248D02*
X0245798Y0123311D01*
X0245798Y0107563D02*
X0245798Y0103626D01*
X0285168Y0103626D02*
X0285168Y0107563D01*
X0285168Y0123311D02*
X0285168Y0127248D01*
X0324538Y0127248D02*
X0324538Y0123311D01*
X0324538Y0107563D02*
X0324538Y0103626D01*
X0324538Y0051748D02*
X0324538Y0047811D01*
X0324538Y0032063D02*
X0324538Y0028126D01*
X0285168Y0028126D02*
X0285168Y0032063D01*
X0285168Y0047811D02*
X0285168Y0051748D01*
X0245798Y0051748D02*
X0245798Y0047811D01*
X0245798Y0032063D02*
X0245798Y0028126D01*
X0206428Y0028126D02*
X0206428Y0032063D01*
X0206428Y0047811D02*
X0206428Y0051748D01*
X0167057Y0051748D02*
X0167057Y0047811D01*
X0167057Y0032063D02*
X0167057Y0028126D01*
X0086294Y0055094D02*
X0080782Y0055094D01*
X0080782Y0059000D01*
X0080782Y0063000D02*
X0080782Y0066900D01*
X0086294Y0066900D01*
X0086294Y0062800D02*
X0086294Y0059200D01*
X0167057Y0103626D02*
X0167057Y0107563D01*
X0167057Y0123311D02*
X0167057Y0127248D01*
X0152565Y0134563D02*
X0143510Y0134563D01*
X0143510Y0142437D02*
X0152565Y0142437D01*
X0266353Y0206500D02*
X0333038Y0206500D01*
X0333038Y0254500D01*
X0266353Y0254500D01*
X0266353Y0206500D01*
X0216711Y0262323D02*
X0321042Y0262323D01*
X0321042Y0320591D01*
X0216711Y0320591D01*
X0216711Y0262323D01*
X0214042Y0262323D02*
X0109711Y0262323D01*
X0109711Y0320591D01*
X0214042Y0320591D01*
X0214042Y0262323D01*
D74*
X0120038Y0117187D03*
X0120038Y0041687D03*
D75*
X0120038Y0041687D03*
X0120038Y0117187D03*
X0339038Y0117187D03*
X0339038Y0041687D03*
D76*
X0229788Y0053374D03*
X0229788Y0128874D03*
D77*
X0343918Y0018500D02*
X0344158Y0018500D01*
X0349538Y0296880D02*
X0349538Y0297120D01*
X0349538Y0302380D02*
X0349538Y0302620D01*
D78*
X0012132Y0012382D02*
X0001400Y0012382D01*
X0001400Y0073618D01*
X0012132Y0073618D01*
X0028900Y0073618D02*
X0059632Y0073618D01*
X0074632Y0073618D02*
X0074632Y0012382D01*
X0059632Y0012382D02*
X0028900Y0012382D01*
X0010935Y0097130D02*
X0010935Y0118122D01*
X0014754Y0118122D01*
X0014754Y0123945D01*
X0010935Y0123945D01*
X0010935Y0144087D01*
X0010935Y0158913D01*
X0010935Y0168122D01*
X0014754Y0168122D01*
X0014754Y0173945D01*
X0010935Y0173945D01*
X0010935Y0205870D01*
X0047156Y0205870D01*
X0047156Y0191917D01*
X0047156Y0210130D02*
X0047156Y0224134D01*
X0047156Y0210130D02*
X0010935Y0210130D01*
X0010935Y0231122D01*
X0014754Y0231122D01*
X0014754Y0236945D01*
X0010935Y0236945D01*
X0010935Y0257087D01*
X0010935Y0271913D01*
X0010935Y0281122D01*
X0014754Y0281122D01*
X0014754Y0286945D01*
X0010935Y0286945D01*
X0010935Y0318870D01*
X0047156Y0318870D01*
X0047156Y0304917D01*
X0021585Y0299520D02*
X0011447Y0304539D01*
X0011447Y0294500D01*
X0021585Y0299520D01*
X0021336Y0299643D02*
X0011447Y0299643D01*
X0011447Y0298845D02*
X0020222Y0298845D01*
X0019723Y0300442D02*
X0011447Y0300442D01*
X0011447Y0301240D02*
X0018110Y0301240D01*
X0016497Y0302039D02*
X0011447Y0302039D01*
X0011447Y0302837D02*
X0014885Y0302837D01*
X0013272Y0303636D02*
X0011447Y0303636D01*
X0011447Y0304434D02*
X0011659Y0304434D01*
X0011447Y0298046D02*
X0018609Y0298046D01*
X0016997Y0297248D02*
X0011447Y0297248D01*
X0011447Y0296449D02*
X0015384Y0296449D01*
X0013771Y0295651D02*
X0011447Y0295651D01*
X0011447Y0294852D02*
X0012158Y0294852D01*
X0010935Y0286945D02*
X0010935Y0281122D01*
X0010935Y0271913D02*
X0038750Y0271913D01*
X0038750Y0257087D01*
X0010935Y0257087D01*
X0010935Y0236945D02*
X0010935Y0231122D01*
X0011447Y0191539D02*
X0021585Y0186520D01*
X0011447Y0181500D01*
X0011447Y0191539D01*
X0011447Y0191046D02*
X0012444Y0191046D01*
X0011447Y0190247D02*
X0014057Y0190247D01*
X0015670Y0189449D02*
X0011447Y0189449D01*
X0011447Y0188650D02*
X0017282Y0188650D01*
X0018895Y0187852D02*
X0011447Y0187852D01*
X0011447Y0187053D02*
X0020508Y0187053D01*
X0021050Y0186255D02*
X0011447Y0186255D01*
X0011447Y0185456D02*
X0019437Y0185456D01*
X0017824Y0184658D02*
X0011447Y0184658D01*
X0011447Y0183859D02*
X0016212Y0183859D01*
X0014599Y0183061D02*
X0011447Y0183061D01*
X0011447Y0182262D02*
X0012986Y0182262D01*
X0010935Y0173945D02*
X0010935Y0168122D01*
X0010935Y0158913D02*
X0038750Y0158913D01*
X0038750Y0144087D01*
X0010935Y0144087D01*
X0010935Y0123945D02*
X0010935Y0118122D01*
X0010935Y0097130D02*
X0047156Y0097130D01*
X0047156Y0111134D01*
X0377494Y0046646D02*
X0377494Y0044000D01*
X0380038Y0044000D01*
X0380038Y0030000D01*
X0377494Y0030000D01*
X0377494Y0027354D01*
X0404581Y0027354D01*
X0404581Y0046646D01*
X0377494Y0046646D01*
D79*
X0161254Y0174764D02*
X0124246Y0174764D01*
X0124246Y0195236D01*
X0130546Y0195236D01*
X0130548Y0195328D01*
X0130554Y0195420D01*
X0130564Y0195511D01*
X0130577Y0195602D01*
X0130595Y0195692D01*
X0130616Y0195782D01*
X0130641Y0195870D01*
X0130670Y0195957D01*
X0130702Y0196043D01*
X0130738Y0196128D01*
X0130778Y0196211D01*
X0130821Y0196292D01*
X0130867Y0196371D01*
X0130917Y0196448D01*
X0130970Y0196523D01*
X0131027Y0196596D01*
X0131086Y0196666D01*
X0131148Y0196734D01*
X0131213Y0196799D01*
X0131281Y0196861D01*
X0131351Y0196920D01*
X0131424Y0196977D01*
X0131499Y0197030D01*
X0131576Y0197080D01*
X0131655Y0197126D01*
X0131736Y0197169D01*
X0131819Y0197209D01*
X0131904Y0197245D01*
X0131990Y0197277D01*
X0132077Y0197306D01*
X0132165Y0197331D01*
X0132255Y0197352D01*
X0132345Y0197370D01*
X0132436Y0197383D01*
X0132527Y0197393D01*
X0132619Y0197399D01*
X0132711Y0197401D01*
X0132803Y0197399D01*
X0132895Y0197393D01*
X0132986Y0197383D01*
X0133077Y0197370D01*
X0133167Y0197352D01*
X0133257Y0197331D01*
X0133345Y0197306D01*
X0133432Y0197277D01*
X0133518Y0197245D01*
X0133603Y0197209D01*
X0133686Y0197169D01*
X0133767Y0197126D01*
X0133846Y0197080D01*
X0133923Y0197030D01*
X0133998Y0196977D01*
X0134071Y0196920D01*
X0134141Y0196861D01*
X0134209Y0196799D01*
X0134274Y0196734D01*
X0134336Y0196666D01*
X0134395Y0196596D01*
X0134452Y0196523D01*
X0134505Y0196448D01*
X0134555Y0196371D01*
X0134601Y0196292D01*
X0134644Y0196211D01*
X0134684Y0196128D01*
X0134720Y0196043D01*
X0134752Y0195957D01*
X0134781Y0195870D01*
X0134806Y0195782D01*
X0134827Y0195692D01*
X0134845Y0195602D01*
X0134858Y0195511D01*
X0134868Y0195420D01*
X0134874Y0195328D01*
X0134876Y0195236D01*
X0161254Y0195236D01*
X0161254Y0174764D01*
X0156530Y0174370D02*
X0156530Y0171614D01*
X0148656Y0171614D02*
X0148656Y0174370D01*
X0149050Y0172007D02*
X0148917Y0171919D01*
X0148786Y0171828D01*
X0148657Y0171734D01*
X0148530Y0171636D01*
X0148406Y0171536D01*
X0148285Y0171432D01*
X0148166Y0171326D01*
X0148049Y0171216D01*
X0147935Y0171104D01*
X0147824Y0170989D01*
X0147716Y0170872D01*
X0147611Y0170752D01*
X0147509Y0170629D01*
X0147410Y0170504D01*
X0147314Y0170376D01*
X0147221Y0170246D01*
X0147131Y0170114D01*
X0147044Y0169980D01*
X0146961Y0169844D01*
X0146881Y0169705D01*
X0146804Y0169565D01*
X0146731Y0169423D01*
X0146662Y0169280D01*
X0146596Y0169134D01*
X0146533Y0168987D01*
X0146474Y0168839D01*
X0146419Y0168689D01*
X0146367Y0168538D01*
X0146319Y0168385D01*
X0146275Y0168232D01*
X0146235Y0168077D01*
X0146198Y0167922D01*
X0146165Y0167766D01*
X0146136Y0167609D01*
X0146111Y0167451D01*
X0146090Y0167293D01*
X0146072Y0167134D01*
X0146059Y0166975D01*
X0146049Y0166815D01*
X0146043Y0166656D01*
X0146041Y0166496D01*
X0146043Y0166336D01*
X0146049Y0166177D01*
X0146059Y0166017D01*
X0146072Y0165858D01*
X0146090Y0165699D01*
X0146111Y0165541D01*
X0146136Y0165383D01*
X0146165Y0165226D01*
X0146198Y0165070D01*
X0146235Y0164915D01*
X0146275Y0164760D01*
X0146319Y0164607D01*
X0146367Y0164454D01*
X0146419Y0164303D01*
X0146474Y0164153D01*
X0146533Y0164005D01*
X0146596Y0163858D01*
X0146662Y0163712D01*
X0146731Y0163569D01*
X0146804Y0163427D01*
X0146881Y0163287D01*
X0146961Y0163148D01*
X0147044Y0163012D01*
X0147131Y0162878D01*
X0147221Y0162746D01*
X0147314Y0162616D01*
X0147410Y0162488D01*
X0147509Y0162363D01*
X0147611Y0162240D01*
X0147716Y0162120D01*
X0147824Y0162003D01*
X0147935Y0161888D01*
X0148049Y0161776D01*
X0148166Y0161666D01*
X0148285Y0161560D01*
X0148406Y0161456D01*
X0148530Y0161356D01*
X0148657Y0161258D01*
X0148786Y0161164D01*
X0148917Y0161073D01*
X0149050Y0160985D01*
X0149050Y0160984D02*
X0156136Y0160984D01*
X0156136Y0160985D02*
X0156269Y0161073D01*
X0156400Y0161164D01*
X0156529Y0161258D01*
X0156656Y0161356D01*
X0156780Y0161456D01*
X0156901Y0161560D01*
X0157020Y0161666D01*
X0157137Y0161776D01*
X0157251Y0161888D01*
X0157362Y0162003D01*
X0157470Y0162120D01*
X0157575Y0162240D01*
X0157677Y0162363D01*
X0157776Y0162488D01*
X0157872Y0162616D01*
X0157965Y0162746D01*
X0158055Y0162878D01*
X0158142Y0163012D01*
X0158225Y0163148D01*
X0158305Y0163287D01*
X0158382Y0163427D01*
X0158455Y0163569D01*
X0158524Y0163712D01*
X0158590Y0163858D01*
X0158653Y0164005D01*
X0158712Y0164153D01*
X0158767Y0164303D01*
X0158819Y0164454D01*
X0158867Y0164607D01*
X0158911Y0164760D01*
X0158951Y0164915D01*
X0158988Y0165070D01*
X0159021Y0165226D01*
X0159050Y0165383D01*
X0159075Y0165541D01*
X0159096Y0165699D01*
X0159114Y0165858D01*
X0159127Y0166017D01*
X0159137Y0166177D01*
X0159143Y0166336D01*
X0159145Y0166496D01*
X0159143Y0166656D01*
X0159137Y0166815D01*
X0159127Y0166975D01*
X0159114Y0167134D01*
X0159096Y0167293D01*
X0159075Y0167451D01*
X0159050Y0167609D01*
X0159021Y0167766D01*
X0158988Y0167922D01*
X0158951Y0168077D01*
X0158911Y0168232D01*
X0158867Y0168385D01*
X0158819Y0168538D01*
X0158767Y0168689D01*
X0158712Y0168839D01*
X0158653Y0168987D01*
X0158590Y0169134D01*
X0158524Y0169280D01*
X0158455Y0169423D01*
X0158382Y0169565D01*
X0158305Y0169705D01*
X0158225Y0169844D01*
X0158142Y0169980D01*
X0158055Y0170114D01*
X0157965Y0170246D01*
X0157872Y0170376D01*
X0157776Y0170504D01*
X0157677Y0170629D01*
X0157575Y0170752D01*
X0157470Y0170872D01*
X0157362Y0170989D01*
X0157251Y0171104D01*
X0157137Y0171216D01*
X0157020Y0171326D01*
X0156901Y0171432D01*
X0156780Y0171536D01*
X0156656Y0171636D01*
X0156529Y0171734D01*
X0156400Y0171828D01*
X0156269Y0171919D01*
X0156136Y0172007D01*
X0156530Y0195630D02*
X0156530Y0198386D01*
X0148656Y0198386D02*
X0148656Y0195630D01*
X0156136Y0197993D02*
X0156269Y0198081D01*
X0156400Y0198172D01*
X0156529Y0198266D01*
X0156656Y0198364D01*
X0156780Y0198464D01*
X0156901Y0198568D01*
X0157020Y0198674D01*
X0157137Y0198784D01*
X0157251Y0198896D01*
X0157362Y0199011D01*
X0157470Y0199128D01*
X0157575Y0199248D01*
X0157677Y0199371D01*
X0157776Y0199496D01*
X0157872Y0199624D01*
X0157965Y0199754D01*
X0158055Y0199886D01*
X0158142Y0200020D01*
X0158225Y0200156D01*
X0158305Y0200295D01*
X0158382Y0200435D01*
X0158455Y0200577D01*
X0158524Y0200720D01*
X0158590Y0200866D01*
X0158653Y0201013D01*
X0158712Y0201161D01*
X0158767Y0201311D01*
X0158819Y0201462D01*
X0158867Y0201615D01*
X0158911Y0201768D01*
X0158951Y0201923D01*
X0158988Y0202078D01*
X0159021Y0202234D01*
X0159050Y0202391D01*
X0159075Y0202549D01*
X0159096Y0202707D01*
X0159114Y0202866D01*
X0159127Y0203025D01*
X0159137Y0203185D01*
X0159143Y0203344D01*
X0159145Y0203504D01*
X0159143Y0203664D01*
X0159137Y0203823D01*
X0159127Y0203983D01*
X0159114Y0204142D01*
X0159096Y0204301D01*
X0159075Y0204459D01*
X0159050Y0204617D01*
X0159021Y0204774D01*
X0158988Y0204930D01*
X0158951Y0205085D01*
X0158911Y0205240D01*
X0158867Y0205393D01*
X0158819Y0205546D01*
X0158767Y0205697D01*
X0158712Y0205847D01*
X0158653Y0205995D01*
X0158590Y0206142D01*
X0158524Y0206288D01*
X0158455Y0206431D01*
X0158382Y0206573D01*
X0158305Y0206713D01*
X0158225Y0206852D01*
X0158142Y0206988D01*
X0158055Y0207122D01*
X0157965Y0207254D01*
X0157872Y0207384D01*
X0157776Y0207512D01*
X0157677Y0207637D01*
X0157575Y0207760D01*
X0157470Y0207880D01*
X0157362Y0207997D01*
X0157251Y0208112D01*
X0157137Y0208224D01*
X0157020Y0208334D01*
X0156901Y0208440D01*
X0156780Y0208544D01*
X0156656Y0208644D01*
X0156529Y0208742D01*
X0156400Y0208836D01*
X0156269Y0208927D01*
X0156136Y0209015D01*
X0156136Y0209016D02*
X0149050Y0209016D01*
X0149050Y0209015D02*
X0148917Y0208927D01*
X0148786Y0208836D01*
X0148657Y0208742D01*
X0148530Y0208644D01*
X0148406Y0208544D01*
X0148285Y0208440D01*
X0148166Y0208334D01*
X0148049Y0208224D01*
X0147935Y0208112D01*
X0147824Y0207997D01*
X0147716Y0207880D01*
X0147611Y0207760D01*
X0147509Y0207637D01*
X0147410Y0207512D01*
X0147314Y0207384D01*
X0147221Y0207254D01*
X0147131Y0207122D01*
X0147044Y0206988D01*
X0146961Y0206852D01*
X0146881Y0206713D01*
X0146804Y0206573D01*
X0146731Y0206431D01*
X0146662Y0206288D01*
X0146596Y0206142D01*
X0146533Y0205995D01*
X0146474Y0205847D01*
X0146419Y0205697D01*
X0146367Y0205546D01*
X0146319Y0205393D01*
X0146275Y0205240D01*
X0146235Y0205085D01*
X0146198Y0204930D01*
X0146165Y0204774D01*
X0146136Y0204617D01*
X0146111Y0204459D01*
X0146090Y0204301D01*
X0146072Y0204142D01*
X0146059Y0203983D01*
X0146049Y0203823D01*
X0146043Y0203664D01*
X0146041Y0203504D01*
X0146043Y0203344D01*
X0146049Y0203185D01*
X0146059Y0203025D01*
X0146072Y0202866D01*
X0146090Y0202707D01*
X0146111Y0202549D01*
X0146136Y0202391D01*
X0146165Y0202234D01*
X0146198Y0202078D01*
X0146235Y0201923D01*
X0146275Y0201768D01*
X0146319Y0201615D01*
X0146367Y0201462D01*
X0146419Y0201311D01*
X0146474Y0201161D01*
X0146533Y0201013D01*
X0146596Y0200866D01*
X0146662Y0200720D01*
X0146731Y0200577D01*
X0146804Y0200435D01*
X0146881Y0200295D01*
X0146961Y0200156D01*
X0147044Y0200020D01*
X0147131Y0199886D01*
X0147221Y0199754D01*
X0147314Y0199624D01*
X0147410Y0199496D01*
X0147509Y0199371D01*
X0147611Y0199248D01*
X0147716Y0199128D01*
X0147824Y0199011D01*
X0147935Y0198896D01*
X0148049Y0198784D01*
X0148166Y0198674D01*
X0148285Y0198568D01*
X0148406Y0198464D01*
X0148530Y0198364D01*
X0148657Y0198266D01*
X0148786Y0198172D01*
X0148917Y0198081D01*
X0149050Y0197993D01*
D80*
X0146286Y0136089D02*
X0146286Y0135338D01*
X0146136Y0135188D01*
X0145836Y0135188D01*
X0145686Y0135338D01*
X0145686Y0136089D01*
X0145365Y0135788D02*
X0145065Y0136089D01*
X0145065Y0135188D01*
X0145365Y0135188D02*
X0144765Y0135188D01*
X0079122Y0057680D02*
X0079489Y0057313D01*
X0079489Y0056942D02*
X0079489Y0056208D01*
X0078938Y0056208D01*
X0079122Y0056575D01*
X0079122Y0056759D01*
X0078938Y0056942D01*
X0078571Y0056942D01*
X0078388Y0056759D01*
X0078388Y0056392D01*
X0078571Y0056208D01*
X0078388Y0055839D02*
X0078755Y0055472D01*
X0079122Y0055472D01*
X0079489Y0055839D01*
X0079305Y0055101D02*
X0078938Y0055101D01*
X0078755Y0054917D01*
X0078755Y0054367D01*
X0078755Y0054734D02*
X0078388Y0055101D01*
X0078388Y0054367D02*
X0079489Y0054367D01*
X0079489Y0054917D01*
X0079305Y0055101D01*
X0079489Y0053996D02*
X0079489Y0053262D01*
X0079489Y0053629D02*
X0078388Y0053629D01*
X0078938Y0052891D02*
X0078938Y0052157D01*
X0078938Y0051786D02*
X0078571Y0051786D01*
X0078388Y0051602D01*
X0078388Y0051235D01*
X0078571Y0051052D01*
X0078938Y0051052D02*
X0079122Y0051419D01*
X0079122Y0051602D01*
X0078938Y0051786D01*
X0079489Y0051786D02*
X0079489Y0051052D01*
X0078938Y0051052D01*
X0078388Y0050681D02*
X0079489Y0050681D01*
X0079122Y0050314D01*
X0079489Y0049947D01*
X0078388Y0049947D01*
X0078571Y0049576D02*
X0078388Y0049393D01*
X0078388Y0049026D01*
X0078571Y0048842D01*
X0078571Y0048473D02*
X0078388Y0048473D01*
X0078388Y0048290D01*
X0078571Y0048290D01*
X0078571Y0048473D01*
X0078571Y0047919D02*
X0078388Y0047735D01*
X0078388Y0047368D01*
X0078571Y0047185D01*
X0078938Y0047552D02*
X0078938Y0047735D01*
X0078755Y0047919D01*
X0078571Y0047919D01*
X0078938Y0047735D02*
X0079122Y0047919D01*
X0079305Y0047919D01*
X0079489Y0047735D01*
X0079489Y0047368D01*
X0079305Y0047185D01*
X0078938Y0046814D02*
X0078938Y0046080D01*
X0078938Y0045709D02*
X0078571Y0045709D01*
X0078388Y0045525D01*
X0078388Y0045158D01*
X0078571Y0044975D01*
X0078938Y0044975D02*
X0079122Y0045342D01*
X0079122Y0045525D01*
X0078938Y0045709D01*
X0079489Y0045709D02*
X0079489Y0044975D01*
X0078938Y0044975D01*
X0079122Y0044604D02*
X0079305Y0044604D01*
X0079489Y0044420D01*
X0079489Y0044053D01*
X0079305Y0043870D01*
X0079305Y0043499D02*
X0079489Y0043315D01*
X0079489Y0042948D01*
X0079305Y0042765D01*
X0079489Y0042394D02*
X0079489Y0041660D01*
X0078938Y0041660D01*
X0079122Y0042027D01*
X0079122Y0042210D01*
X0078938Y0042394D01*
X0078571Y0042394D01*
X0078388Y0042210D01*
X0078388Y0041843D01*
X0078571Y0041660D01*
X0078388Y0042765D02*
X0079122Y0043499D01*
X0079305Y0043499D01*
X0078388Y0043499D02*
X0078388Y0042765D01*
X0078388Y0043870D02*
X0079122Y0044604D01*
X0078388Y0044604D02*
X0078388Y0043870D01*
X0079305Y0048842D02*
X0079489Y0049026D01*
X0079489Y0049393D01*
X0079305Y0049576D01*
X0079122Y0049576D01*
X0078938Y0049393D01*
X0078755Y0049576D01*
X0078571Y0049576D01*
X0078938Y0049393D02*
X0078938Y0049209D01*
X0078388Y0057313D02*
X0078755Y0057680D01*
X0079122Y0057680D01*
D81*
X0144297Y0132398D02*
X0144299Y0132446D01*
X0144305Y0132494D01*
X0144315Y0132541D01*
X0144328Y0132587D01*
X0144346Y0132632D01*
X0144366Y0132676D01*
X0144391Y0132718D01*
X0144419Y0132757D01*
X0144449Y0132794D01*
X0144483Y0132828D01*
X0144520Y0132860D01*
X0144558Y0132889D01*
X0144599Y0132914D01*
X0144642Y0132936D01*
X0144687Y0132954D01*
X0144733Y0132968D01*
X0144780Y0132979D01*
X0144828Y0132986D01*
X0144876Y0132989D01*
X0144924Y0132988D01*
X0144972Y0132983D01*
X0145020Y0132974D01*
X0145066Y0132962D01*
X0145111Y0132945D01*
X0145155Y0132925D01*
X0145197Y0132902D01*
X0145237Y0132875D01*
X0145275Y0132845D01*
X0145310Y0132812D01*
X0145342Y0132776D01*
X0145372Y0132738D01*
X0145398Y0132697D01*
X0145420Y0132654D01*
X0145440Y0132610D01*
X0145455Y0132565D01*
X0145467Y0132518D01*
X0145475Y0132470D01*
X0145479Y0132422D01*
X0145479Y0132374D01*
X0145475Y0132326D01*
X0145467Y0132278D01*
X0145455Y0132231D01*
X0145440Y0132186D01*
X0145420Y0132142D01*
X0145398Y0132099D01*
X0145372Y0132058D01*
X0145342Y0132020D01*
X0145310Y0131984D01*
X0145275Y0131951D01*
X0145237Y0131921D01*
X0145197Y0131894D01*
X0145155Y0131871D01*
X0145111Y0131851D01*
X0145066Y0131834D01*
X0145020Y0131822D01*
X0144972Y0131813D01*
X0144924Y0131808D01*
X0144876Y0131807D01*
X0144828Y0131810D01*
X0144780Y0131817D01*
X0144733Y0131828D01*
X0144687Y0131842D01*
X0144642Y0131860D01*
X0144599Y0131882D01*
X0144558Y0131907D01*
X0144520Y0131936D01*
X0144483Y0131968D01*
X0144449Y0132002D01*
X0144419Y0132039D01*
X0144391Y0132078D01*
X0144366Y0132120D01*
X0144346Y0132164D01*
X0144328Y0132209D01*
X0144315Y0132255D01*
X0144305Y0132302D01*
X0144299Y0132350D01*
X0144297Y0132398D01*
M02*
