  0
SECTION
  2
HEADER
  9
$ACADVER
  1
AC1009
  9
$FILLMODE
 70
1
  9
$EXTMIN
 10
-0.020000
 20
-0.022903
 30
0.000000
  9
$EXTMAX
 10
1.185000
 20
1.184667
 30
0.000000
  0
ENDSEC
  0
SECTION
  2
TABLES
  0
TABLE
  2
LTYPE
 70
1
  0
LTYPE
  2
CONTINUOUS
 70
64
  3
Solid line
 72
65
 73
0
 40
0
  0
ENDTAB
  0
TABLE
  2
LAYER
 70
255
  0
LAYER
  2
16
 70
64
 62
175
  6
CONTINUOUS
  0
LAYER
  2
20
 70
64
 62
7
  6
CONTINUOUS
  0
ENDTAB
  0
ENDSEC
  0
SECTION
  2
BLOCKS
  0
BLOCK
  8
0
  2
RECT
 70
64
 10
0.000000
 20
0.000000
 30
0.000000
  3
RECT
  0
SOLID
  8
0
 10
-0.500000
 20
-0.500000
 30
0.000000
 11
0.500000
 21
-0.500000
 31
0.000000
 12
-0.500000
 22
0.500000
 32
0.000000
 13
0.500000
 23
0.500000
 33
0.000000
  0
ENDBLK
  8
0
  0
BLOCK
  8
0
  2
PIE
 70
64
 10
0.000000
 20
0.000000
 30
0.000000
  3
PIE
  0
POLYLINE
  8
0
 66
1
 10
0.000000
 20
0.000000
 30
0.000000
 40
0.500000
 41
0.500000
 70
0
  0
VERTEX
  8
0
 10
0.000000
 20
-0.250000
 30
0.000000
 42
1.000000
  0
VERTEX
  8
0
 10
0.000000
 20
0.250000
 30
0.000000
 42
1.000000
  0
VERTEX
  8
0
 10
0.000000
 20
-0.250000
 30
0.000000
  0
SEQEND
  8
0
  0
ENDBLK
  8
0
  0
BLOCK
  8
0
  2
OCTAGONP
 70
64
 10
0.000000
 20
0.000000
 30
0.000000
  3
OCTAGONP
  0
POLYLINE
  8
0
 66
1
 10
0.000000
 20
0.000000
 30
0.000000
 40
0.500000
 41
0.500000
 70
0
  0
VERTEX
  8
0
 10
-0.250000
 20
-0.103553
 30
0.000000
  0
VERTEX
  8
0
 10
-0.250000
 20
0.103553
 30
0.000000
  0
VERTEX
  8
0
 10
-0.103553
 20
0.250000
 30
0.000000
  0
VERTEX
  8
0
 10
0.103553
 20
0.250000
 30
0.000000
  0
VERTEX
  8
0
 10
0.250000
 20
0.103553
 30
0.000000
  0
VERTEX
  8
0
 10
0.250000
 20
-0.103553
 30
0.000000
  0
VERTEX
  8
0
 10
0.103553
 20
-0.250000
 30
0.000000
  0
VERTEX
  8
0
 10
-0.103553
 20
-0.250000
 30
0.000000
  0
VERTEX
  8
0
 10
-0.250000
 20
-0.103553
 30
0.000000
  0
VERTEX
  8
0
 10
-0.250000
 20
0.103553
 30
0.000000
  0
SEQEND
  8
0
  0
ENDBLK
  8
0
  0
BLOCK
  8
0
  2
SQUAREP
 70
64
 10
0.000000
 20
0.000000
 30
0.000000
  3
SQUAREP
  0
SOLID
  8
0
 10
-0.500000
 20
-0.500000
 30
0.000000
 11
0.500000
 21
-0.500000
 31
0.000000
 12
-0.500000
 22
0.500000
 32
0.000000
 13
0.500000
 23
0.500000
 33
0.000000
  0
ENDBLK
  8
0
  0
BLOCK
  8
0
  2
ROUNDP
 70
64
 10
0.000000
 20
0.000000
 30
0.000000
  3
ROUNDP
  0
POLYLINE
  8
0
 66
1
 10
0.000000
 20
0.000000
 30
0.000000
 40
0.500000
 41
0.500000
 70
0
  0
VERTEX
  8
0
 10
0.000000
 20
-0.250000
 30
0.000000
 42
1.000000
  0
VERTEX
  8
0
 10
0.000000
 20
0.250000
 30
0.000000
 42
1.000000
  0
VERTEX
  8
0
 10
0.000000
 20
-0.250000
 30
0.000000
  0
SEQEND
  8
0
  0
ENDBLK
  8
0
  0
BLOCK
  8
0
  2
ANNULUSP
 70
64
 10
0.000000
 20
0.000000
 30
0.000000
  3
ANNULUSP
  0
POLYLINE
  8
0
 66
1
 10
0.000000
 20
0.000000
 30
0.000000
 40
0.500000
 41
0.500000
 70
0
  0
VERTEX
  8
0
 10
0.000000
 20
-0.250000
 30
0.000000
 42
1.000000
  0
VERTEX
  8
0
 10
0.000000
 20
0.250000
 30
0.000000
 42
1.000000
  0
VERTEX
  8
0
 10
0.000000
 20
-0.250000
 30
0.000000
  0
SEQEND
  8
0
  0
ENDBLK
  8
0
  0
BLOCK
  8
0
  2
THERMALP
 70
64
 10
0.000000
 20
0.000000
 30
0.000000
  3
THERMALP
  0
POLYLINE
  8
0
 66
1
 10
0.000000
 20
0.000000
 30
0.000000
 40
0.100000
 41
0.100000
 70
0
  0
VERTEX
  8
0
 10
-0.237868
 20
0.450000
 30
0.000000
  0
VERTEX
  8
0
 10
0.237868
 20
0.450000
 30
0.000000
  0
SEQEND
  8
0
  0
POLYLINE
  8
0
 66
1
 10
0.000000
 20
0.000000
 30
0.000000
 40
0.050000
 41
0.050000
 70
0
  0
VERTEX
  8
0
 10
0.237868
 20
0.425000
 30
0.000000
 42
1.000000
  0
VERTEX
  8
0
 10
0.237868
 20
0.475000
 30
0.000000
  0
SEQEND
  8
0
  0
POLYLINE
  8
0
 66
1
 10
0.000000
 20
0.000000
 30
0.000000
 40
0.050000
 41
0.050000
 70
0
  0
VERTEX
  8
0
 10
-0.237868
 20
0.475000
 30
0.000000
 42
1.000000
  0
VERTEX
  8
0
 10
-0.237868
 20
0.425000
 30
0.000000
  0
SEQEND
  8
0
  0
POLYLINE
  8
0
 66
1
 10
0.000000
 20
0.000000
 30
0.000000
 40
0.100000
 41
0.100000
 70
0
  0
VERTEX
  8
0
 10
0.450000
 20
0.237868
 30
0.000000
  0
VERTEX
  8
0
 10
0.450000
 20
-0.237868
 30
0.000000
  0
SEQEND
  8
0
  0
POLYLINE
  8
0
 66
1
 10
0.000000
 20
0.000000
 30
0.000000
 40
0.050000
 41
0.050000
 70
0
  0
VERTEX
  8
0
 10
0.425000
 20
-0.237868
 30
0.000000
 42
1.000000
  0
VERTEX
  8
0
 10
0.475000
 20
-0.237868
 30
0.000000
  0
SEQEND
  8
0
  0
POLYLINE
  8
0
 66
1
 10
0.000000
 20
0.000000
 30
0.000000
 40
0.050000
 41
0.050000
 70
0
  0
VERTEX
  8
0
 10
0.475000
 20
0.237868
 30
0.000000
 42
1.000000
  0
VERTEX
  8
0
 10
0.425000
 20
0.237868
 30
0.000000
  0
SEQEND
  8
0
  0
POLYLINE
  8
0
 66
1
 10
0.000000
 20
0.000000
 30
0.000000
 40
0.100000
 41
0.100000
 70
0
  0
VERTEX
  8
0
 10
0.237868
 20
-0.450000
 30
0.000000
  0
VERTEX
  8
0
 10
-0.237868
 20
-0.450000
 30
0.000000
  0
SEQEND
  8
0
  0
POLYLINE
  8
0
 66
1
 10
0.000000
 20
0.000000
 30
0.000000
 40
0.050000
 41
0.050000
 70
0
  0
VERTEX
  8
0
 10
-0.237868
 20
-0.425000
 30
0.000000
 42
1.000000
  0
VERTEX
  8
0
 10
-0.237868
 20
-0.475000
 30
0.000000
  0
SEQEND
  8
0
  0
POLYLINE
  8
0
 66
1
 10
0.000000
 20
0.000000
 30
0.000000
 40
0.050000
 41
0.050000
 70
0
  0
VERTEX
  8
0
 10
0.237868
 20
-0.475000
 30
0.000000
 42
1.000000
  0
VERTEX
  8
0
 10
0.237868
 20
-0.425000
 30
0.000000
  0
SEQEND
  8
0
  0
POLYLINE
  8
0
 66
1
 10
0.000000
 20
0.000000
 30
0.000000
 40
0.100000
 41
0.100000
 70
0
  0
VERTEX
  8
0
 10
-0.450000
 20
-0.237868
 30
0.000000
  0
VERTEX
  8
0
 10
-0.450000
 20
0.237868
 30
0.000000
  0
SEQEND
  8
0
  0
POLYLINE
  8
0
 66
1
 10
0.000000
 20
0.000000
 30
0.000000
 40
0.050000
 41
0.050000
 70
0
  0
VERTEX
  8
0
 10
-0.425000
 20
0.237868
 30
0.000000
 42
1.000000
  0
VERTEX
  8
0
 10
-0.475000
 20
0.237868
 30
0.000000
  0
SEQEND
  8
0
  0
POLYLINE
  8
0
 66
1
 10
0.000000
 20
0.000000
 30
0.000000
 40
0.050000
 41
0.050000
 70
0
  0
VERTEX
  8
0
 10
-0.475000
 20
-0.237868
 30
0.000000
 42
1.000000
  0
VERTEX
  8
0
 10
-0.425000
 20
-0.237868
 30
0.000000
  0
SEQEND
  8
0
  0
ENDBLK
  8
0
  0
BLOCK
  8
0
  2
OCTAGONV
 70
64
 10
0.000000
 20
0.000000
 30
0.000000
  3
OCTAGONV
  0
POLYLINE
  8
0
 66
1
 10
0.000000
 20
0.000000
 30
0.000000
 40
0.500000
 41
0.500000
 70
0
  0
VERTEX
  8
0
 10
-0.250000
 20
-0.103553
 30
0.000000
  0
VERTEX
  8
0
 10
-0.250000
 20
0.103553
 30
0.000000
  0
VERTEX
  8
0
 10
-0.103553
 20
0.250000
 30
0.000000
  0
VERTEX
  8
0
 10
0.103553
 20
0.250000
 30
0.000000
  0
VERTEX
  8
0
 10
0.250000
 20
0.103553
 30
0.000000
  0
VERTEX
  8
0
 10
0.250000
 20
-0.103553
 30
0.000000
  0
VERTEX
  8
0
 10
0.103553
 20
-0.250000
 30
0.000000
  0
VERTEX
  8
0
 10
-0.103553
 20
-0.250000
 30
0.000000
  0
VERTEX
  8
0
 10
-0.250000
 20
-0.103553
 30
0.000000
  0
VERTEX
  8
0
 10
-0.250000
 20
0.103553
 30
0.000000
  0
SEQEND
  8
0
  0
ENDBLK
  8
0
  0
BLOCK
  8
0
  2
SQUAREV
 70
64
 10
0.000000
 20
0.000000
 30
0.000000
  3
SQUAREV
  0
SOLID
  8
0
 10
-0.500000
 20
-0.500000
 30
0.000000
 11
0.500000
 21
-0.500000
 31
0.000000
 12
-0.500000
 22
0.500000
 32
0.000000
 13
0.500000
 23
0.500000
 33
0.000000
  0
ENDBLK
  8
0
  0
BLOCK
  8
0
  2
ROUNDV
 70
64
 10
0.000000
 20
0.000000
 30
0.000000
  3
ROUNDV
  0
POLYLINE
  8
0
 66
1
 10
0.000000
 20
0.000000
 30
0.000000
 40
0.500000
 41
0.500000
 70
0
  0
VERTEX
  8
0
 10
0.000000
 20
-0.250000
 30
0.000000
 42
1.000000
  0
VERTEX
  8
0
 10
0.000000
 20
0.250000
 30
0.000000
 42
1.000000
  0
VERTEX
  8
0
 10
0.000000
 20
-0.250000
 30
0.000000
  0
SEQEND
  8
0
  0
ENDBLK
  8
0
  0
BLOCK
  8
0
  2
ANNULUSV
 70
64
 10
0.000000
 20
0.000000
 30
0.000000
  3
ANNULUSV
  0
POLYLINE
  8
0
 66
1
 10
0.000000
 20
0.000000
 30
0.000000
 40
0.500000
 41
0.500000
 70
0
  0
VERTEX
  8
0
 10
0.000000
 20
-0.250000
 30
0.000000
 42
1.000000
  0
VERTEX
  8
0
 10
0.000000
 20
0.250000
 30
0.000000
 42
1.000000
  0
VERTEX
  8
0
 10
0.000000
 20
-0.250000
 30
0.000000
  0
SEQEND
  8
0
  0
ENDBLK
  8
0
  0
BLOCK
  8
0
  2
THERMALV
 70
64
 10
0.000000
 20
0.000000
 30
0.000000
  3
THERMALV
  0
POLYLINE
  8
0
 66
1
 10
0.000000
 20
0.000000
 30
0.000000
 40
0.100000
 41
0.100000
 70
0
  0
VERTEX
  8
0
 10
-0.237868
 20
0.450000
 30
0.000000
  0
VERTEX
  8
0
 10
0.237868
 20
0.450000
 30
0.000000
  0
SEQEND
  8
0
  0
POLYLINE
  8
0
 66
1
 10
0.000000
 20
0.000000
 30
0.000000
 40
0.050000
 41
0.050000
 70
0
  0
VERTEX
  8
0
 10
0.237868
 20
0.425000
 30
0.000000
 42
1.000000
  0
VERTEX
  8
0
 10
0.237868
 20
0.475000
 30
0.000000
  0
SEQEND
  8
0
  0
POLYLINE
  8
0
 66
1
 10
0.000000
 20
0.000000
 30
0.000000
 40
0.050000
 41
0.050000
 70
0
  0
VERTEX
  8
0
 10
-0.237868
 20
0.475000
 30
0.000000
 42
1.000000
  0
VERTEX
  8
0
 10
-0.237868
 20
0.425000
 30
0.000000
  0
SEQEND
  8
0
  0
POLYLINE
  8
0
 66
1
 10
0.000000
 20
0.000000
 30
0.000000
 40
0.100000
 41
0.100000
 70
0
  0
VERTEX
  8
0
 10
0.450000
 20
0.237868
 30
0.000000
  0
VERTEX
  8
0
 10
0.450000
 20
-0.237868
 30
0.000000
  0
SEQEND
  8
0
  0
POLYLINE
  8
0
 66
1
 10
0.000000
 20
0.000000
 30
0.000000
 40
0.050000
 41
0.050000
 70
0
  0
VERTEX
  8
0
 10
0.425000
 20
-0.237868
 30
0.000000
 42
1.000000
  0
VERTEX
  8
0
 10
0.475000
 20
-0.237868
 30
0.000000
  0
SEQEND
  8
0
  0
POLYLINE
  8
0
 66
1
 10
0.000000
 20
0.000000
 30
0.000000
 40
0.050000
 41
0.050000
 70
0
  0
VERTEX
  8
0
 10
0.475000
 20
0.237868
 30
0.000000
 42
1.000000
  0
VERTEX
  8
0
 10
0.425000
 20
0.237868
 30
0.000000
  0
SEQEND
  8
0
  0
POLYLINE
  8
0
 66
1
 10
0.000000
 20
0.000000
 30
0.000000
 40
0.100000
 41
0.100000
 70
0
  0
VERTEX
  8
0
 10
0.237868
 20
-0.450000
 30
0.000000
  0
VERTEX
  8
0
 10
-0.237868
 20
-0.450000
 30
0.000000
  0
SEQEND
  8
0
  0
POLYLINE
  8
0
 66
1
 10
0.000000
 20
0.000000
 30
0.000000
 40
0.050000
 41
0.050000
 70
0
  0
VERTEX
  8
0
 10
-0.237868
 20
-0.425000
 30
0.000000
 42
1.000000
  0
VERTEX
  8
0
 10
-0.237868
 20
-0.475000
 30
0.000000
  0
SEQEND
  8
0
  0
POLYLINE
  8
0
 66
1
 10
0.000000
 20
0.000000
 30
0.000000
 40
0.050000
 41
0.050000
 70
0
  0
VERTEX
  8
0
 10
0.237868
 20
-0.475000
 30
0.000000
 42
1.000000
  0
VERTEX
  8
0
 10
0.237868
 20
-0.425000
 30
0.000000
  0
SEQEND
  8
0
  0
POLYLINE
  8
0
 66
1
 10
0.000000
 20
0.000000
 30
0.000000
 40
0.100000
 41
0.100000
 70
0
  0
VERTEX
  8
0
 10
-0.450000
 20
-0.237868
 30
0.000000
  0
VERTEX
  8
0
 10
-0.450000
 20
0.237868
 30
0.000000
  0
SEQEND
  8
0
  0
POLYLINE
  8
0
 66
1
 10
0.000000
 20
0.000000
 30
0.000000
 40
0.050000
 41
0.050000
 70
0
  0
VERTEX
  8
0
 10
-0.425000
 20
0.237868
 30
0.000000
 42
1.000000
  0
VERTEX
  8
0
 10
-0.475000
 20
0.237868
 30
0.000000
  0
SEQEND
  8
0
  0
POLYLINE
  8
0
 66
1
 10
0.000000
 20
0.000000
 30
0.000000
 40
0.050000
 41
0.050000
 70
0
  0
VERTEX
  8
0
 10
-0.475000
 20
-0.237868
 30
0.000000
 42
1.000000
  0
VERTEX
  8
0
 10
-0.425000
 20
-0.237868
 30
0.000000
  0
SEQEND
  8
0
  0
ENDBLK
  8
0
  0
ENDSEC
  0
SECTION
  2
ENTITIES
  0
POLYLINE
  8
20
 66
1
 10
0.000000
 20
0.000000
 30
0.000000
 40
0.010000
 41
0.010000
 70
0
  0
VERTEX
  8
20
 10
0.154000
 20
0.000000
 30
0.000000
  0
VERTEX
  8
20
 10
0.000000
 20
0.412000
 30
0.000000
  0
SEQEND
  8
0
  0
POLYLINE
  8
20
 66
1
 10
0.000000
 20
0.000000
 30
0.000000
 40
0.005000
 41
0.005000
 70
0
  0
VERTEX
  8
20
 10
0.002342
 20
0.412875
 30
0.000000
 42
1.000000
  0
VERTEX
  8
20
 10
-0.002342
 20
0.411125
 30
0.000000
  0
SEQEND
  8
0
  0
POLYLINE
  8
20
 66
1
 10
0.000000
 20
0.000000
 30
0.000000
 40
0.005000
 41
0.005000
 70
0
  0
VERTEX
  8
20
 10
0.151658
 20
-0.000875
 30
0.000000
 42
1.000000
  0
VERTEX
  8
20
 10
0.156342
 20
0.000875
 30
0.000000
  0
SEQEND
  8
0
  0
POLYLINE
  8
20
 66
1
 10
0.000000
 20
0.000000
 30
0.000000
 40
0.010000
 41
0.010000
 70
0
  0
VERTEX
  8
20
 10
0.000000
 20
0.412000
 30
0.000000
  0
VERTEX
  8
20
 10
0.000000
 20
1.083000
 30
0.000000
  0
SEQEND
  8
0
  0
POLYLINE
  8
20
 66
1
 10
0.000000
 20
0.000000
 30
0.000000
 40
0.005000
 41
0.005000
 70
0
  0
VERTEX
  8
20
 10
0.002500
 20
1.083000
 30
0.000000
 42
1.000000
  0
VERTEX
  8
20
 10
-0.002500
 20
1.083000
 30
0.000000
  0
SEQEND
  8
0
  0
POLYLINE
  8
20
 66
1
 10
0.000000
 20
0.000000
 30
0.000000
 40
0.005000
 41
0.005000
 70
0
  0
VERTEX
  8
20
 10
-0.002500
 20
0.412000
 30
0.000000
 42
1.000000
  0
VERTEX
  8
20
 10
0.002500
 20
0.412000
 30
0.000000
  0
SEQEND
  8
0
  0
POLYLINE
  8
20
 66
1
 10
0.000000
 20
0.000000
 30
0.000000
 40
0.010000
 41
0.010000
 70
0
  0
VERTEX
  8
20
 10
0.000000
 20
1.083000
 30
0.000000
  0
VERTEX
  8
20
 10
1.128000
 20
1.083000
 30
0.000000
  0
SEQEND
  8
0
  0
POLYLINE
  8
20
 66
1
 10
0.000000
 20
0.000000
 30
0.000000
 40
0.005000
 41
0.005000
 70
0
  0
VERTEX
  8
20
 10
1.128000
 20
1.080500
 30
0.000000
 42
1.000000
  0
VERTEX
  8
20
 10
1.128000
 20
1.085500
 30
0.000000
  0
SEQEND
  8
0
  0
POLYLINE
  8
20
 66
1
 10
0.000000
 20
0.000000
 30
0.000000
 40
0.005000
 41
0.005000
 70
0
  0
VERTEX
  8
20
 10
0.000000
 20
1.085500
 30
0.000000
 42
1.000000
  0
VERTEX
  8
20
 10
0.000000
 20
1.080500
 30
0.000000
  0
SEQEND
  8
0
  0
POLYLINE
  8
20
 66
1
 10
0.000000
 20
0.000000
 30
0.000000
 40
0.010000
 41
0.010000
 70
0
  0
VERTEX
  8
20
 10
1.128000
 20
1.083000
 30
0.000000
  0
VERTEX
  8
20
 10
1.128000
 20
0.412000
 30
0.000000
  0
SEQEND
  8
0
  0
POLYLINE
  8
20
 66
1
 10
0.000000
 20
0.000000
 30
0.000000
 40
0.005000
 41
0.005000
 70
0
  0
VERTEX
  8
20
 10
1.125500
 20
0.412000
 30
0.000000
 42
1.000000
  0
VERTEX
  8
20
 10
1.130500
 20
0.412000
 30
0.000000
  0
SEQEND
  8
0
  0
POLYLINE
  8
20
 66
1
 10
0.000000
 20
0.000000
 30
0.000000
 40
0.005000
 41
0.005000
 70
0
  0
VERTEX
  8
20
 10
1.130500
 20
1.083000
 30
0.000000
 42
1.000000
  0
VERTEX
  8
20
 10
1.125500
 20
1.083000
 30
0.000000
  0
SEQEND
  8
0
  0
POLYLINE
  8
20
 66
1
 10
0.000000
 20
0.000000
 30
0.000000
 40
0.010000
 41
0.010000
 70
0
  0
VERTEX
  8
20
 10
1.128000
 20
0.412000
 30
0.000000
  0
VERTEX
  8
20
 10
0.974000
 20
0.000000
 30
0.000000
  0
SEQEND
  8
0
  0
POLYLINE
  8
20
 66
1
 10
0.000000
 20
0.000000
 30
0.000000
 40
0.005000
 41
0.005000
 70
0
  0
VERTEX
  8
20
 10
0.971658
 20
0.000875
 30
0.000000
 42
1.000000
  0
VERTEX
  8
20
 10
0.976342
 20
-0.000875
 30
0.000000
  0
SEQEND
  8
0
  0
POLYLINE
  8
20
 66
1
 10
0.000000
 20
0.000000
 30
0.000000
 40
0.005000
 41
0.005000
 70
0
  0
VERTEX
  8
20
 10
1.130342
 20
0.411125
 30
0.000000
 42
1.000000
  0
VERTEX
  8
20
 10
1.125658
 20
0.412875
 30
0.000000
  0
SEQEND
  8
0
  0
POLYLINE
  8
20
 66
1
 10
0.000000
 20
0.000000
 30
0.000000
 40
0.010000
 41
0.010000
 70
0
  0
VERTEX
  8
20
 10
0.974000
 20
0.000000
 30
0.000000
  0
VERTEX
  8
20
 10
0.154000
 20
0.000000
 30
0.000000
  0
SEQEND
  8
0
  0
POLYLINE
  8
20
 66
1
 10
0.000000
 20
0.000000
 30
0.000000
 40
0.005000
 41
0.005000
 70
0
  0
VERTEX
  8
20
 10
0.154000
 20
0.002500
 30
0.000000
 42
1.000000
  0
VERTEX
  8
20
 10
0.154000
 20
-0.002500
 30
0.000000
  0
SEQEND
  8
0
  0
POLYLINE
  8
20
 66
1
 10
0.000000
 20
0.000000
 30
0.000000
 40
0.005000
 41
0.005000
 70
0
  0
VERTEX
  8
20
 10
0.974000
 20
-0.002500
 30
0.000000
 42
1.000000
  0
VERTEX
  8
20
 10
0.974000
 20
0.002500
 30
0.000000
  0
SEQEND
  8
0
  0
CIRCLE
  8
20
 10
0.570000
 20
0.690000
 30
0.000000
 40
0.031500
  0
CIRCLE
  8
20
 10
0.570000
 20
0.298000
 30
0.000000
 40
0.031500
  0
INSERT
  8
16
  2
RECT
 10
0.720000
 20
0.214646
 30
0.000000
 41
0.050000
 42
0.057874
 43
1.000000
 50
90.000000
  0
INSERT
  8
16
  2
RECT
 10
0.720000
 20
0.045354
 30
0.000000
 41
0.050000
 42
0.057874
 43
1.000000
 50
270.000000
  0
INSERT
  8
16
  2
RECT
 10
0.500000
 20
0.214646
 30
0.000000
 41
0.050000
 42
0.057874
 43
1.000000
 50
90.000000
  0
INSERT
  8
16
  2
RECT
 10
0.500000
 20
0.045354
 30
0.000000
 41
0.050000
 42
0.057874
 43
1.000000
 50
270.000000
  0
CIRCLE
  8
20
 10
1.032000
 20
1.016500
 30
0.000000
 40
0.021500
  0
CIRCLE
  8
20
 10
0.844000
 20
1.041500
 30
0.000000
 40
0.015500
  0
CIRCLE
  8
20
 10
1.033000
 20
0.740500
 30
0.000000
 40
0.021500
  0
CIRCLE
  8
20
 10
0.844000
 20
0.719500
 30
0.000000
 40
0.015500
  0
CIRCLE
  8
20
 10
0.662000
 20
0.523000
 30
0.000000
 40
0.021500
  0
CIRCLE
  8
20
 10
0.662000
 20
1.041500
 30
0.000000
 40
0.021500
  0
INSERT
  8
16
  2
RECT
 10
0.799000
 20
0.980500
 30
0.000000
 41
0.043000
 42
0.062000
 43
1.000000
 50
90.000000
  0
INSERT
  8
16
  2
RECT
 10
0.799000
 20
0.655500
 30
0.000000
 41
0.043000
 42
0.062000
 43
1.000000
 50
90.000000
  0
INSERT
  8
16
  2
RECT
 10
0.732000
 20
0.818000
 30
0.000000
 41
0.387000
 42
0.054000
 43
1.000000
 50
90.000000
  0
INSERT
  8
16
  2
RECT
 10
0.790000
 20
0.283465
 30
0.000000
 41
0.039370
 42
0.043307
 43
1.000000
 50
270.000000
  0
INSERT
  8
16
  2
RECT
 10
0.790000
 20
0.216535
 30
0.000000
 41
0.039370
 42
0.043307
 43
1.000000
 50
270.000000
  0
INSERT
  8
16
  2
RECT
 10
0.740000
 20
0.331654
 30
0.000000
 41
0.023622
 42
0.035433
 43
1.000000
 50
270.000000
  0
INSERT
  8
16
  2
RECT
 10
0.740000
 20
0.288346
 30
0.000000
 41
0.023622
 42
0.035433
 43
1.000000
 50
270.000000
  0
CIRCLE
  8
20
 10
0.443000
 20
1.016500
 30
0.000000
 40
0.021500
  0
CIRCLE
  8
20
 10
0.255000
 20
1.041500
 30
0.000000
 40
0.015500
  0
CIRCLE
  8
20
 10
0.444000
 20
0.740500
 30
0.000000
 40
0.021500
  0
CIRCLE
  8
20
 10
0.255000
 20
0.719500
 30
0.000000
 40
0.015500
  0
CIRCLE
  8
20
 10
0.073000
 20
0.523000
 30
0.000000
 40
0.021500
  0
CIRCLE
  8
20
 10
0.073000
 20
1.041500
 30
0.000000
 40
0.021500
  0
INSERT
  8
16
  2
RECT
 10
0.210000
 20
0.980500
 30
0.000000
 41
0.043000
 42
0.062000
 43
1.000000
 50
90.000000
  0
INSERT
  8
16
  2
RECT
 10
0.210000
 20
0.655500
 30
0.000000
 41
0.043000
 42
0.062000
 43
1.000000
 50
90.000000
  0
INSERT
  8
16
  2
RECT
 10
0.143000
 20
0.818000
 30
0.000000
 41
0.387000
 42
0.054000
 43
1.000000
 50
90.000000
  0
INSERT
  8
16
  2
RECT
 10
0.530984
 20
0.417992
 30
0.000000
 41
0.047244
 42
0.055118
 43
1.000000
 50
180.000000
  0
INSERT
  8
16
  2
RECT
 10
0.440000
 20
0.417992
 30
0.000000
 41
0.047244
 42
0.055118
 43
1.000000
 50
180.000000
  0
INSERT
  8
16
  2
RECT
 10
0.349016
 20
0.417992
 30
0.000000
 41
0.047244
 42
0.055118
 43
1.000000
 50
180.000000
  0
INSERT
  8
16
  2
RECT
 10
0.440000
 20
0.662008
 30
0.000000
 41
0.137795
 42
0.055118
 43
1.000000
 50
180.000000
  0
INSERT
  8
16
  2
RECT
 10
0.412008
 20
0.260984
 30
0.000000
 41
0.047244
 42
0.055118
 43
1.000000
 50
270.000000
  0
INSERT
  8
16
  2
RECT
 10
0.412008
 20
0.170000
 30
0.000000
 41
0.047244
 42
0.055118
 43
1.000000
 50
270.000000
  0
INSERT
  8
16
  2
RECT
 10
0.412008
 20
0.079016
 30
0.000000
 41
0.047244
 42
0.055118
 43
1.000000
 50
270.000000
  0
INSERT
  8
16
  2
RECT
 10
0.167992
 20
0.170000
 30
0.000000
 41
0.137795
 42
0.055118
 43
1.000000
 50
270.000000
  0
INSERT
  8
16
  2
RECT
 10
0.178819
 20
0.352598
 30
0.000000
 41
0.021654
 42
0.047244
 43
1.000000
 50
90.000000
  0
INSERT
  8
16
  2
RECT
 10
0.178819
 20
0.390000
 30
0.000000
 41
0.021654
 42
0.047244
 43
1.000000
 50
90.000000
  0
INSERT
  8
16
  2
RECT
 10
0.178819
 20
0.427402
 30
0.000000
 41
0.021654
 42
0.047244
 43
1.000000
 50
90.000000
  0
INSERT
  8
16
  2
RECT
 10
0.281181
 20
0.427402
 30
0.000000
 41
0.021654
 42
0.047244
 43
1.000000
 50
90.000000
  0
INSERT
  8
16
  2
RECT
 10
0.281181
 20
0.352598
 30
0.000000
 41
0.021654
 42
0.047244
 43
1.000000
 50
90.000000
  0
POLYLINE
  8
16
 66
1
 10
0.000000
 20
0.000000
 30
0.000000
 40
0.010000
 41
0.010000
 70
0
  0
VERTEX
  8
16
 10
0.740000
 20
0.288346
 30
0.000000
  0
VERTEX
  8
16
 10
0.685346
 20
0.288346
 30
0.000000
  0
SEQEND
  8
0
  0
POLYLINE
  8
16
 66
1
 10
0.000000
 20
0.000000
 30
0.000000
 40
0.005000
 41
0.005000
 70
0
  0
VERTEX
  8
16
 10
0.685346
 20
0.290846
 30
0.000000
 42
1.000000
  0
VERTEX
  8
16
 10
0.685346
 20
0.285846
 30
0.000000
  0
SEQEND
  8
0
  0
POLYLINE
  8
16
 66
1
 10
0.000000
 20
0.000000
 30
0.000000
 40
0.005000
 41
0.005000
 70
0
  0
VERTEX
  8
16
 10
0.740000
 20
0.285846
 30
0.000000
 42
1.000000
  0
VERTEX
  8
16
 10
0.740000
 20
0.290846
 30
0.000000
  0
SEQEND
  8
0
  0
POLYLINE
  8
16
 66
1
 10
0.000000
 20
0.000000
 30
0.000000
 40
0.010000
 41
0.010000
 70
0
  0
VERTEX
  8
16
 10
0.685346
 20
0.288346
 30
0.000000
  0
VERTEX
  8
16
 10
0.653000
 20
0.256000
 30
0.000000
  0
SEQEND
  8
0
  0
POLYLINE
  8
16
 66
1
 10
0.000000
 20
0.000000
 30
0.000000
 40
0.005000
 41
0.005000
 70
0
  0
VERTEX
  8
16
 10
0.651232
 20
0.257768
 30
0.000000
 42
1.000000
  0
VERTEX
  8
16
 10
0.654768
 20
0.254232
 30
0.000000
  0
SEQEND
  8
0
  0
POLYLINE
  8
16
 66
1
 10
0.000000
 20
0.000000
 30
0.000000
 40
0.005000
 41
0.005000
 70
0
  0
VERTEX
  8
16
 10
0.687114
 20
0.286579
 30
0.000000
 42
1.000000
  0
VERTEX
  8
16
 10
0.683579
 20
0.290114
 30
0.000000
  0
SEQEND
  8
0
  0
POLYLINE
  8
16
 66
1
 10
0.000000
 20
0.000000
 30
0.000000
 40
0.010000
 41
0.010000
 70
0
  0
VERTEX
  8
16
 10
0.790000
 20
0.283465
 30
0.000000
  0
VERTEX
  8
16
 10
0.784882
 20
0.288346
 30
0.000000
  0
SEQEND
  8
0
  0
POLYLINE
  8
16
 66
1
 10
0.000000
 20
0.000000
 30
0.000000
 40
0.005000
 41
0.005000
 70
0
  0
VERTEX
  8
16
 10
0.786607
 20
0.290155
 30
0.000000
 42
1.000000
  0
VERTEX
  8
16
 10
0.783156
 20
0.286537
 30
0.000000
  0
SEQEND
  8
0
  0
POLYLINE
  8
16
 66
1
 10
0.000000
 20
0.000000
 30
0.000000
 40
0.005000
 41
0.005000
 70
0
  0
VERTEX
  8
16
 10
0.788274
 20
0.281656
 30
0.000000
 42
1.000000
  0
VERTEX
  8
16
 10
0.791726
 20
0.285274
 30
0.000000
  0
SEQEND
  8
0
  0
POLYLINE
  8
16
 66
1
 10
0.000000
 20
0.000000
 30
0.000000
 40
0.010000
 41
0.010000
 70
0
  0
VERTEX
  8
16
 10
0.784882
 20
0.288346
 30
0.000000
  0
VERTEX
  8
16
 10
0.740000
 20
0.288346
 30
0.000000
  0
SEQEND
  8
0
  0
POLYLINE
  8
16
 66
1
 10
0.000000
 20
0.000000
 30
0.000000
 40
0.005000
 41
0.005000
 70
0
  0
VERTEX
  8
16
 10
0.740000
 20
0.290846
 30
0.000000
 42
1.000000
  0
VERTEX
  8
16
 10
0.740000
 20
0.285846
 30
0.000000
  0
SEQEND
  8
0
  0
POLYLINE
  8
16
 66
1
 10
0.000000
 20
0.000000
 30
0.000000
 40
0.005000
 41
0.005000
 70
0
  0
VERTEX
  8
16
 10
0.784882
 20
0.285846
 30
0.000000
 42
1.000000
  0
VERTEX
  8
16
 10
0.784882
 20
0.290846
 30
0.000000
  0
SEQEND
  8
0
  0
POLYLINE
  8
16
 66
1
 10
0.000000
 20
0.000000
 30
0.000000
 40
0.010000
 41
0.010000
 70
0
  0
VERTEX
  8
16
 10
0.390000
 20
0.450000
 30
0.000000
  0
VERTEX
  8
16
 10
0.390000
 20
0.320000
 30
0.000000
  0
SEQEND
  8
0
  0
POLYLINE
  8
16
 66
1
 10
0.000000
 20
0.000000
 30
0.000000
 40
0.005000
 41
0.005000
 70
0
  0
VERTEX
  8
16
 10
0.387500
 20
0.320000
 30
0.000000
 42
1.000000
  0
VERTEX
  8
16
 10
0.392500
 20
0.320000
 30
0.000000
  0
SEQEND
  8
0
  0
POLYLINE
  8
16
 66
1
 10
0.000000
 20
0.000000
 30
0.000000
 40
0.005000
 41
0.005000
 70
0
  0
VERTEX
  8
16
 10
0.392500
 20
0.450000
 30
0.000000
 42
1.000000
  0
VERTEX
  8
16
 10
0.387500
 20
0.450000
 30
0.000000
  0
SEQEND
  8
0
  0
POLYLINE
  8
16
 66
1
 10
0.000000
 20
0.000000
 30
0.000000
 40
0.010000
 41
0.010000
 70
0
  0
VERTEX
  8
16
 10
0.390000
 20
0.320000
 30
0.000000
  0
VERTEX
  8
16
 10
0.412008
 20
0.297992
 30
0.000000
  0
SEQEND
  8
0
  0
POLYLINE
  8
16
 66
1
 10
0.000000
 20
0.000000
 30
0.000000
 40
0.005000
 41
0.005000
 70
0
  0
VERTEX
  8
16
 10
0.410240
 20
0.296224
 30
0.000000
 42
1.000000
  0
VERTEX
  8
16
 10
0.413776
 20
0.299760
 30
0.000000
  0
SEQEND
  8
0
  0
POLYLINE
  8
16
 66
1
 10
0.000000
 20
0.000000
 30
0.000000
 40
0.005000
 41
0.005000
 70
0
  0
VERTEX
  8
16
 10
0.391768
 20
0.321768
 30
0.000000
 42
1.000000
  0
VERTEX
  8
16
 10
0.388232
 20
0.318232
 30
0.000000
  0
SEQEND
  8
0
  0
POLYLINE
  8
16
 66
1
 10
0.000000
 20
0.000000
 30
0.000000
 40
0.010000
 41
0.010000
 70
0
  0
VERTEX
  8
16
 10
0.412008
 20
0.297992
 30
0.000000
  0
VERTEX
  8
16
 10
0.412008
 20
0.260984
 30
0.000000
  0
SEQEND
  8
0
  0
POLYLINE
  8
16
 66
1
 10
0.000000
 20
0.000000
 30
0.000000
 40
0.005000
 41
0.005000
 70
0
  0
VERTEX
  8
16
 10
0.409508
 20
0.260984
 30
0.000000
 42
1.000000
  0
VERTEX
  8
16
 10
0.414508
 20
0.260984
 30
0.000000
  0
SEQEND
  8
0
  0
POLYLINE
  8
16
 66
1
 10
0.000000
 20
0.000000
 30
0.000000
 40
0.005000
 41
0.005000
 70
0
  0
VERTEX
  8
16
 10
0.414508
 20
0.297992
 30
0.000000
 42
1.000000
  0
VERTEX
  8
16
 10
0.409508
 20
0.297992
 30
0.000000
  0
SEQEND
  8
0
  0
POLYLINE
  8
16
 66
1
 10
0.000000
 20
0.000000
 30
0.000000
 40
0.010000
 41
0.010000
 70
0
  0
VERTEX
  8
16
 10
0.680000
 20
0.481000
 30
0.000000
  0
VERTEX
  8
16
 10
0.421000
 20
0.481000
 30
0.000000
  0
SEQEND
  8
0
  0
POLYLINE
  8
16
 66
1
 10
0.000000
 20
0.000000
 30
0.000000
 40
0.005000
 41
0.005000
 70
0
  0
VERTEX
  8
16
 10
0.421000
 20
0.483500
 30
0.000000
 42
1.000000
  0
VERTEX
  8
16
 10
0.421000
 20
0.478500
 30
0.000000
  0
SEQEND
  8
0
  0
POLYLINE
  8
16
 66
1
 10
0.000000
 20
0.000000
 30
0.000000
 40
0.005000
 41
0.005000
 70
0
  0
VERTEX
  8
16
 10
0.680000
 20
0.478500
 30
0.000000
 42
1.000000
  0
VERTEX
  8
16
 10
0.680000
 20
0.483500
 30
0.000000
  0
SEQEND
  8
0
  0
POLYLINE
  8
16
 66
1
 10
0.000000
 20
0.000000
 30
0.000000
 40
0.010000
 41
0.010000
 70
0
  0
VERTEX
  8
16
 10
0.390000
 20
0.450000
 30
0.000000
  0
VERTEX
  8
16
 10
0.421000
 20
0.481000
 30
0.000000
  0
SEQEND
  8
0
  0
POLYLINE
  8
16
 66
1
 10
0.000000
 20
0.000000
 30
0.000000
 40
0.005000
 41
0.005000
 70
0
  0
VERTEX
  8
16
 10
0.422768
 20
0.479232
 30
0.000000
 42
1.000000
  0
VERTEX
  8
16
 10
0.419232
 20
0.482768
 30
0.000000
  0
SEQEND
  8
0
  0
POLYLINE
  8
16
 66
1
 10
0.000000
 20
0.000000
 30
0.000000
 40
0.005000
 41
0.005000
 70
0
  0
VERTEX
  8
16
 10
0.388232
 20
0.451768
 30
0.000000
 42
1.000000
  0
VERTEX
  8
16
 10
0.391768
 20
0.448232
 30
0.000000
  0
SEQEND
  8
0
  0
POLYLINE
  8
16
 66
1
 10
0.000000
 20
0.000000
 30
0.000000
 40
0.010000
 41
0.010000
 70
0
  0
VERTEX
  8
16
 10
0.680000
 20
0.481000
 30
0.000000
  0
VERTEX
  8
16
 10
0.693000
 20
0.494000
 30
0.000000
  0
SEQEND
  8
0
  0
POLYLINE
  8
16
 66
1
 10
0.000000
 20
0.000000
 30
0.000000
 40
0.005000
 41
0.005000
 70
0
  0
VERTEX
  8
16
 10
0.694768
 20
0.492232
 30
0.000000
 42
1.000000
  0
VERTEX
  8
16
 10
0.691232
 20
0.495768
 30
0.000000
  0
SEQEND
  8
0
  0
POLYLINE
  8
16
 66
1
 10
0.000000
 20
0.000000
 30
0.000000
 40
0.005000
 41
0.005000
 70
0
  0
VERTEX
  8
16
 10
0.678232
 20
0.482768
 30
0.000000
 42
1.000000
  0
VERTEX
  8
16
 10
0.681768
 20
0.479232
 30
0.000000
  0
SEQEND
  8
0
  0
POLYLINE
  8
16
 66
1
 10
0.000000
 20
0.000000
 30
0.000000
 40
0.010000
 41
0.010000
 70
0
  0
VERTEX
  8
16
 10
0.693000
 20
0.494000
 30
0.000000
  0
VERTEX
  8
16
 10
0.758000
 20
0.494000
 30
0.000000
  0
SEQEND
  8
0
  0
POLYLINE
  8
16
 66
1
 10
0.000000
 20
0.000000
 30
0.000000
 40
0.005000
 41
0.005000
 70
0
  0
VERTEX
  8
16
 10
0.758000
 20
0.491500
 30
0.000000
 42
1.000000
  0
VERTEX
  8
16
 10
0.758000
 20
0.496500
 30
0.000000
  0
SEQEND
  8
0
  0
POLYLINE
  8
16
 66
1
 10
0.000000
 20
0.000000
 30
0.000000
 40
0.005000
 41
0.005000
 70
0
  0
VERTEX
  8
16
 10
0.693000
 20
0.496500
 30
0.000000
 42
1.000000
  0
VERTEX
  8
16
 10
0.693000
 20
0.491500
 30
0.000000
  0
SEQEND
  8
0
  0
POLYLINE
  8
16
 66
1
 10
0.000000
 20
0.000000
 30
0.000000
 40
0.010000
 41
0.010000
 70
0
  0
VERTEX
  8
16
 10
0.620000
 20
0.380000
 30
0.000000
  0
VERTEX
  8
16
 10
0.582008
 20
0.417992
 30
0.000000
  0
SEQEND
  8
0
  0
POLYLINE
  8
16
 66
1
 10
0.000000
 20
0.000000
 30
0.000000
 40
0.005000
 41
0.005000
 70
0
  0
VERTEX
  8
16
 10
0.583776
 20
0.419760
 30
0.000000
 42
1.000000
  0
VERTEX
  8
16
 10
0.580240
 20
0.416224
 30
0.000000
  0
SEQEND
  8
0
  0
POLYLINE
  8
16
 66
1
 10
0.000000
 20
0.000000
 30
0.000000
 40
0.005000
 41
0.005000
 70
0
  0
VERTEX
  8
16
 10
0.618232
 20
0.378232
 30
0.000000
 42
1.000000
  0
VERTEX
  8
16
 10
0.621768
 20
0.381768
 30
0.000000
  0
SEQEND
  8
0
  0
POLYLINE
  8
16
 66
1
 10
0.000000
 20
0.000000
 30
0.000000
 40
0.010000
 41
0.010000
 70
0
  0
VERTEX
  8
16
 10
0.582008
 20
0.417992
 30
0.000000
  0
VERTEX
  8
16
 10
0.530984
 20
0.417992
 30
0.000000
  0
SEQEND
  8
0
  0
POLYLINE
  8
16
 66
1
 10
0.000000
 20
0.000000
 30
0.000000
 40
0.005000
 41
0.005000
 70
0
  0
VERTEX
  8
16
 10
0.530984
 20
0.420492
 30
0.000000
 42
1.000000
  0
VERTEX
  8
16
 10
0.530984
 20
0.415492
 30
0.000000
  0
SEQEND
  8
0
  0
POLYLINE
  8
16
 66
1
 10
0.000000
 20
0.000000
 30
0.000000
 40
0.005000
 41
0.005000
 70
0
  0
VERTEX
  8
16
 10
0.582008
 20
0.415492
 30
0.000000
 42
1.000000
  0
VERTEX
  8
16
 10
0.582008
 20
0.420492
 30
0.000000
  0
SEQEND
  8
0
  0
POLYLINE
  8
16
 66
1
 10
0.000000
 20
0.000000
 30
0.000000
 40
0.010000
 41
0.010000
 70
0
  0
VERTEX
  8
16
 10
0.620000
 20
0.380000
 30
0.000000
  0
VERTEX
  8
16
 10
0.682000
 20
0.380000
 30
0.000000
  0
SEQEND
  8
0
  0
POLYLINE
  8
16
 66
1
 10
0.000000
 20
0.000000
 30
0.000000
 40
0.005000
 41
0.005000
 70
0
  0
VERTEX
  8
16
 10
0.682000
 20
0.377500
 30
0.000000
 42
1.000000
  0
VERTEX
  8
16
 10
0.682000
 20
0.382500
 30
0.000000
  0
SEQEND
  8
0
  0
POLYLINE
  8
16
 66
1
 10
0.000000
 20
0.000000
 30
0.000000
 40
0.005000
 41
0.005000
 70
0
  0
VERTEX
  8
16
 10
0.620000
 20
0.382500
 30
0.000000
 42
1.000000
  0
VERTEX
  8
16
 10
0.620000
 20
0.377500
 30
0.000000
  0
SEQEND
  8
0
  0
POLYLINE
  8
16
 66
1
 10
0.000000
 20
0.000000
 30
0.000000
 40
0.010000
 41
0.010000
 70
0
  0
VERTEX
  8
16
 10
0.682000
 20
0.380000
 30
0.000000
  0
VERTEX
  8
16
 10
0.759000
 20
0.457000
 30
0.000000
  0
SEQEND
  8
0
  0
POLYLINE
  8
16
 66
1
 10
0.000000
 20
0.000000
 30
0.000000
 40
0.005000
 41
0.005000
 70
0
  0
VERTEX
  8
16
 10
0.760768
 20
0.455232
 30
0.000000
 42
1.000000
  0
VERTEX
  8
16
 10
0.757232
 20
0.458768
 30
0.000000
  0
SEQEND
  8
0
  0
POLYLINE
  8
16
 66
1
 10
0.000000
 20
0.000000
 30
0.000000
 40
0.005000
 41
0.005000
 70
0
  0
VERTEX
  8
16
 10
0.680232
 20
0.381768
 30
0.000000
 42
1.000000
  0
VERTEX
  8
16
 10
0.683768
 20
0.378232
 30
0.000000
  0
SEQEND
  8
0
  0
POLYLINE
  8
16
 66
1
 10
0.000000
 20
0.000000
 30
0.000000
 40
0.010000
 41
0.010000
 70
0
  0
VERTEX
  8
16
 10
0.000000
 20
1.090000
 30
0.000000
  0
VERTEX
  8
16
 10
1.130000
 20
1.090000
 30
0.000000
  0
SEQEND
  8
0
  0
POLYLINE
  8
16
 66
1
 10
0.000000
 20
0.000000
 30
0.000000
 40
0.005000
 41
0.005000
 70
0
  0
VERTEX
  8
16
 10
1.130000
 20
1.087500
 30
0.000000
 42
1.000000
  0
VERTEX
  8
16
 10
1.130000
 20
1.092500
 30
0.000000
  0
SEQEND
  8
0
  0
POLYLINE
  8
16
 66
1
 10
0.000000
 20
0.000000
 30
0.000000
 40
0.005000
 41
0.005000
 70
0
  0
VERTEX
  8
16
 10
0.000000
 20
1.092500
 30
0.000000
 42
1.000000
  0
VERTEX
  8
16
 10
0.000000
 20
1.087500
 30
0.000000
  0
SEQEND
  8
0
  0
POLYLINE
  8
16
 66
1
 10
0.000000
 20
0.000000
 30
0.000000
 40
0.010000
 41
0.010000
 70
0
  0
VERTEX
  8
16
 10
1.130000
 20
1.090000
 30
0.000000
  0
VERTEX
  8
16
 10
1.130000
 20
0.410000
 30
0.000000
  0
SEQEND
  8
0
  0
POLYLINE
  8
16
 66
1
 10
0.000000
 20
0.000000
 30
0.000000
 40
0.005000
 41
0.005000
 70
0
  0
VERTEX
  8
16
 10
1.127500
 20
0.410000
 30
0.000000
 42
1.000000
  0
VERTEX
  8
16
 10
1.132500
 20
0.410000
 30
0.000000
  0
SEQEND
  8
0
  0
POLYLINE
  8
16
 66
1
 10
0.000000
 20
0.000000
 30
0.000000
 40
0.005000
 41
0.005000
 70
0
  0
VERTEX
  8
16
 10
1.132500
 20
1.090000
 30
0.000000
 42
1.000000
  0
VERTEX
  8
16
 10
1.127500
 20
1.090000
 30
0.000000
  0
SEQEND
  8
0
  0
POLYLINE
  8
16
 66
1
 10
0.000000
 20
0.000000
 30
0.000000
 40
0.010000
 41
0.010000
 70
0
  0
VERTEX
  8
16
 10
1.130000
 20
0.410000
 30
0.000000
  0
VERTEX
  8
16
 10
0.980000
 20
0.000000
 30
0.000000
  0
SEQEND
  8
0
  0
POLYLINE
  8
16
 66
1
 10
0.000000
 20
0.000000
 30
0.000000
 40
0.005000
 41
0.005000
 70
0
  0
VERTEX
  8
16
 10
0.977652
 20
0.000859
 30
0.000000
 42
1.000000
  0
VERTEX
  8
16
 10
0.982348
 20
-0.000859
 30
0.000000
  0
SEQEND
  8
0
  0
POLYLINE
  8
16
 66
1
 10
0.000000
 20
0.000000
 30
0.000000
 40
0.005000
 41
0.005000
 70
0
  0
VERTEX
  8
16
 10
1.132348
 20
0.409141
 30
0.000000
 42
1.000000
  0
VERTEX
  8
16
 10
1.127652
 20
0.410859
 30
0.000000
  0
SEQEND
  8
0
  0
POLYLINE
  8
16
 66
1
 10
0.000000
 20
0.000000
 30
0.000000
 40
0.010000
 41
0.010000
 70
0
  0
VERTEX
  8
16
 10
0.980000
 20
0.000000
 30
0.000000
  0
VERTEX
  8
16
 10
0.150000
 20
0.000000
 30
0.000000
  0
SEQEND
  8
0
  0
POLYLINE
  8
16
 66
1
 10
0.000000
 20
0.000000
 30
0.000000
 40
0.005000
 41
0.005000
 70
0
  0
VERTEX
  8
16
 10
0.150000
 20
0.002500
 30
0.000000
 42
1.000000
  0
VERTEX
  8
16
 10
0.150000
 20
-0.002500
 30
0.000000
  0
SEQEND
  8
0
  0
POLYLINE
  8
16
 66
1
 10
0.000000
 20
0.000000
 30
0.000000
 40
0.005000
 41
0.005000
 70
0
  0
VERTEX
  8
16
 10
0.980000
 20
-0.002500
 30
0.000000
 42
1.000000
  0
VERTEX
  8
16
 10
0.980000
 20
0.002500
 30
0.000000
  0
SEQEND
  8
0
  0
POLYLINE
  8
16
 66
1
 10
0.000000
 20
0.000000
 30
0.000000
 40
0.010000
 41
0.010000
 70
0
  0
VERTEX
  8
16
 10
0.150000
 20
0.000000
 30
0.000000
  0
VERTEX
  8
16
 10
0.000000
 20
0.410000
 30
0.000000
  0
SEQEND
  8
0
  0
POLYLINE
  8
16
 66
1
 10
0.000000
 20
0.000000
 30
0.000000
 40
0.005000
 41
0.005000
 70
0
  0
VERTEX
  8
16
 10
0.002348
 20
0.410859
 30
0.000000
 42
1.000000
  0
VERTEX
  8
16
 10
-0.002348
 20
0.409141
 30
0.000000
  0
SEQEND
  8
0
  0
POLYLINE
  8
16
 66
1
 10
0.000000
 20
0.000000
 30
0.000000
 40
0.005000
 41
0.005000
 70
0
  0
VERTEX
  8
16
 10
0.147652
 20
-0.000859
 30
0.000000
 42
1.000000
  0
VERTEX
  8
16
 10
0.152348
 20
0.000859
 30
0.000000
  0
SEQEND
  8
0
  0
POLYLINE
  8
16
 66
1
 10
0.000000
 20
0.000000
 30
0.000000
 40
0.010000
 41
0.010000
 70
0
  0
VERTEX
  8
16
 10
0.000000
 20
0.410000
 30
0.000000
  0
VERTEX
  8
16
 10
0.000000
 20
1.090000
 30
0.000000
  0
SEQEND
  8
0
  0
POLYLINE
  8
16
 66
1
 10
0.000000
 20
0.000000
 30
0.000000
 40
0.005000
 41
0.005000
 70
0
  0
VERTEX
  8
16
 10
0.002500
 20
1.090000
 30
0.000000
 42
1.000000
  0
VERTEX
  8
16
 10
-0.002500
 20
1.090000
 30
0.000000
  0
SEQEND
  8
0
  0
POLYLINE
  8
16
 66
1
 10
0.000000
 20
0.000000
 30
0.000000
 40
0.005000
 41
0.005000
 70
0
  0
VERTEX
  8
16
 10
-0.002500
 20
0.410000
 30
0.000000
 42
1.000000
  0
VERTEX
  8
16
 10
0.002500
 20
0.410000
 30
0.000000
  0
SEQEND
  8
0
  0
POLYLINE
  8
16
 66
1
 10
0.000000
 20
0.000000
 30
0.000000
 40
0.010000
 41
0.010000
 70
0
  0
VERTEX
  8
16
 10
0.412008
 20
0.079016
 30
0.000000
  0
VERTEX
  8
16
 10
0.400984
 20
0.079016
 30
0.000000
  0
SEQEND
  8
0
  0
POLYLINE
  8
16
 66
1
 10
0.000000
 20
0.000000
 30
0.000000
 40
0.005000
 41
0.005000
 70
0
  0
VERTEX
  8
16
 10
0.400984
 20
0.081516
 30
0.000000
 42
1.000000
  0
VERTEX
  8
16
 10
0.400984
 20
0.076516
 30
0.000000
  0
SEQEND
  8
0
  0
POLYLINE
  8
16
 66
1
 10
0.000000
 20
0.000000
 30
0.000000
 40
0.005000
 41
0.005000
 70
0
  0
VERTEX
  8
16
 10
0.412008
 20
0.076516
 30
0.000000
 42
1.000000
  0
VERTEX
  8
16
 10
0.412008
 20
0.081516
 30
0.000000
  0
SEQEND
  8
0
  0
POLYLINE
  8
16
 66
1
 10
0.000000
 20
0.000000
 30
0.000000
 40
0.010000
 41
0.010000
 70
0
  0
VERTEX
  8
16
 10
0.400984
 20
0.079016
 30
0.000000
  0
VERTEX
  8
16
 10
0.360000
 20
0.120000
 30
0.000000
  0
SEQEND
  8
0
  0
POLYLINE
  8
16
 66
1
 10
0.000000
 20
0.000000
 30
0.000000
 40
0.005000
 41
0.005000
 70
0
  0
VERTEX
  8
16
 10
0.361768
 20
0.121768
 30
0.000000
 42
1.000000
  0
VERTEX
  8
16
 10
0.358232
 20
0.118232
 30
0.000000
  0
SEQEND
  8
0
  0
POLYLINE
  8
16
 66
1
 10
0.000000
 20
0.000000
 30
0.000000
 40
0.005000
 41
0.005000
 70
0
  0
VERTEX
  8
16
 10
0.399216
 20
0.077248
 30
0.000000
 42
1.000000
  0
VERTEX
  8
16
 10
0.402752
 20
0.080784
 30
0.000000
  0
SEQEND
  8
0
  0
POLYLINE
  8
16
 66
1
 10
0.000000
 20
0.000000
 30
0.000000
 40
0.010000
 41
0.010000
 70
0
  0
VERTEX
  8
16
 10
0.360000
 20
0.120000
 30
0.000000
  0
VERTEX
  8
16
 10
0.360000
 20
0.210000
 30
0.000000
  0
SEQEND
  8
0
  0
POLYLINE
  8
16
 66
1
 10
0.000000
 20
0.000000
 30
0.000000
 40
0.005000
 41
0.005000
 70
0
  0
VERTEX
  8
16
 10
0.362500
 20
0.210000
 30
0.000000
 42
1.000000
  0
VERTEX
  8
16
 10
0.357500
 20
0.210000
 30
0.000000
  0
SEQEND
  8
0
  0
POLYLINE
  8
16
 66
1
 10
0.000000
 20
0.000000
 30
0.000000
 40
0.005000
 41
0.005000
 70
0
  0
VERTEX
  8
16
 10
0.357500
 20
0.120000
 30
0.000000
 42
1.000000
  0
VERTEX
  8
16
 10
0.362500
 20
0.120000
 30
0.000000
  0
SEQEND
  8
0
  0
POLYLINE
  8
16
 66
1
 10
0.000000
 20
0.000000
 30
0.000000
 40
0.010000
 41
0.010000
 70
0
  0
VERTEX
  8
16
 10
0.349016
 20
0.417992
 30
0.000000
  0
VERTEX
  8
16
 10
0.349016
 20
0.350984
 30
0.000000
  0
SEQEND
  8
0
  0
POLYLINE
  8
16
 66
1
 10
0.000000
 20
0.000000
 30
0.000000
 40
0.005000
 41
0.005000
 70
0
  0
VERTEX
  8
16
 10
0.346516
 20
0.350984
 30
0.000000
 42
1.000000
  0
VERTEX
  8
16
 10
0.351516
 20
0.350984
 30
0.000000
  0
SEQEND
  8
0
  0
POLYLINE
  8
16
 66
1
 10
0.000000
 20
0.000000
 30
0.000000
 40
0.005000
 41
0.005000
 70
0
  0
VERTEX
  8
16
 10
0.351516
 20
0.417992
 30
0.000000
 42
1.000000
  0
VERTEX
  8
16
 10
0.346516
 20
0.417992
 30
0.000000
  0
SEQEND
  8
0
  0
POLYLINE
  8
16
 66
1
 10
0.000000
 20
0.000000
 30
0.000000
 40
0.010000
 41
0.010000
 70
0
  0
VERTEX
  8
16
 10
0.349016
 20
0.350984
 30
0.000000
  0
VERTEX
  8
16
 10
0.350000
 20
0.350000
 30
0.000000
  0
SEQEND
  8
0
  0
POLYLINE
  8
16
 66
1
 10
0.000000
 20
0.000000
 30
0.000000
 40
0.005000
 41
0.005000
 70
0
  0
VERTEX
  8
16
 10
0.348232
 20
0.348232
 30
0.000000
 42
1.000000
  0
VERTEX
  8
16
 10
0.351768
 20
0.351768
 30
0.000000
  0
SEQEND
  8
0
  0
POLYLINE
  8
16
 66
1
 10
0.000000
 20
0.000000
 30
0.000000
 40
0.005000
 41
0.005000
 70
0
  0
VERTEX
  8
16
 10
0.350784
 20
0.352752
 30
0.000000
 42
1.000000
  0
VERTEX
  8
16
 10
0.347248
 20
0.349216
 30
0.000000
  0
SEQEND
  8
0
  0
POLYLINE
  8
16
 66
1
 10
0.000000
 20
0.000000
 30
0.000000
 40
0.010000
 41
0.010000
 70
0
  0
VERTEX
  8
16
 10
0.349016
 20
0.417992
 30
0.000000
  0
VERTEX
  8
16
 10
0.349016
 20
0.440984
 30
0.000000
  0
SEQEND
  8
0
  0
POLYLINE
  8
16
 66
1
 10
0.000000
 20
0.000000
 30
0.000000
 40
0.005000
 41
0.005000
 70
0
  0
VERTEX
  8
16
 10
0.351516
 20
0.440984
 30
0.000000
 42
1.000000
  0
VERTEX
  8
16
 10
0.346516
 20
0.440984
 30
0.000000
  0
SEQEND
  8
0
  0
POLYLINE
  8
16
 66
1
 10
0.000000
 20
0.000000
 30
0.000000
 40
0.005000
 41
0.005000
 70
0
  0
VERTEX
  8
16
 10
0.346516
 20
0.417992
 30
0.000000
 42
1.000000
  0
VERTEX
  8
16
 10
0.351516
 20
0.417992
 30
0.000000
  0
SEQEND
  8
0
  0
POLYLINE
  8
16
 66
1
 10
0.000000
 20
0.000000
 30
0.000000
 40
0.010000
 41
0.010000
 70
0
  0
VERTEX
  8
16
 10
0.349016
 20
0.440984
 30
0.000000
  0
VERTEX
  8
16
 10
0.300000
 20
0.490000
 30
0.000000
  0
SEQEND
  8
0
  0
POLYLINE
  8
16
 66
1
 10
0.000000
 20
0.000000
 30
0.000000
 40
0.005000
 41
0.005000
 70
0
  0
VERTEX
  8
16
 10
0.301768
 20
0.491768
 30
0.000000
 42
1.000000
  0
VERTEX
  8
16
 10
0.298232
 20
0.488232
 30
0.000000
  0
SEQEND
  8
0
  0
POLYLINE
  8
16
 66
1
 10
0.000000
 20
0.000000
 30
0.000000
 40
0.005000
 41
0.005000
 70
0
  0
VERTEX
  8
16
 10
0.347248
 20
0.439216
 30
0.000000
 42
1.000000
  0
VERTEX
  8
16
 10
0.350784
 20
0.442752
 30
0.000000
  0
SEQEND
  8
0
  0
POLYLINE
  8
16
 66
1
 10
0.000000
 20
0.000000
 30
0.000000
 40
0.010000
 41
0.010000
 70
0
  0
VERTEX
  8
16
 10
0.390000
 20
0.530000
 30
0.000000
  0
VERTEX
  8
16
 10
0.340000
 20
0.530000
 30
0.000000
  0
SEQEND
  8
0
  0
POLYLINE
  8
16
 66
1
 10
0.000000
 20
0.000000
 30
0.000000
 40
0.005000
 41
0.005000
 70
0
  0
VERTEX
  8
16
 10
0.340000
 20
0.532500
 30
0.000000
 42
1.000000
  0
VERTEX
  8
16
 10
0.340000
 20
0.527500
 30
0.000000
  0
SEQEND
  8
0
  0
POLYLINE
  8
16
 66
1
 10
0.000000
 20
0.000000
 30
0.000000
 40
0.005000
 41
0.005000
 70
0
  0
VERTEX
  8
16
 10
0.390000
 20
0.527500
 30
0.000000
 42
1.000000
  0
VERTEX
  8
16
 10
0.390000
 20
0.532500
 30
0.000000
  0
SEQEND
  8
0
  0
POLYLINE
  8
16
 66
1
 10
0.000000
 20
0.000000
 30
0.000000
 40
0.010000
 41
0.010000
 70
0
  0
VERTEX
  8
16
 10
0.340000
 20
0.530000
 30
0.000000
  0
VERTEX
  8
16
 10
0.300000
 20
0.490000
 30
0.000000
  0
SEQEND
  8
0
  0
POLYLINE
  8
16
 66
1
 10
0.000000
 20
0.000000
 30
0.000000
 40
0.005000
 41
0.005000
 70
0
  0
VERTEX
  8
16
 10
0.298232
 20
0.491768
 30
0.000000
 42
1.000000
  0
VERTEX
  8
16
 10
0.301768
 20
0.488232
 30
0.000000
  0
SEQEND
  8
0
  0
POLYLINE
  8
16
 66
1
 10
0.000000
 20
0.000000
 30
0.000000
 40
0.005000
 41
0.005000
 70
0
  0
VERTEX
  8
16
 10
0.341768
 20
0.528232
 30
0.000000
 42
1.000000
  0
VERTEX
  8
16
 10
0.338232
 20
0.531768
 30
0.000000
  0
SEQEND
  8
0
  0
POLYLINE
  8
16
 66
1
 10
0.000000
 20
0.000000
 30
0.000000
 40
0.010000
 41
0.010000
 70
0
  0
VERTEX
  8
16
 10
0.178819
 20
0.427402
 30
0.000000
  0
VERTEX
  8
16
 10
0.178819
 20
0.390000
 30
0.000000
  0
SEQEND
  8
0
  0
POLYLINE
  8
16
 66
1
 10
0.000000
 20
0.000000
 30
0.000000
 40
0.005000
 41
0.005000
 70
0
  0
VERTEX
  8
16
 10
0.176319
 20
0.390000
 30
0.000000
 42
1.000000
  0
VERTEX
  8
16
 10
0.181319
 20
0.390000
 30
0.000000
  0
SEQEND
  8
0
  0
POLYLINE
  8
16
 66
1
 10
0.000000
 20
0.000000
 30
0.000000
 40
0.005000
 41
0.005000
 70
0
  0
VERTEX
  8
16
 10
0.181319
 20
0.427402
 30
0.000000
 42
1.000000
  0
VERTEX
  8
16
 10
0.176319
 20
0.427402
 30
0.000000
  0
SEQEND
  8
0
  0
POLYLINE
  8
16
 66
1
 10
0.000000
 20
0.000000
 30
0.000000
 40
0.010000
 41
0.010000
 70
0
  0
VERTEX
  8
16
 10
0.167992
 20
0.170000
 30
0.000000
  0
VERTEX
  8
16
 10
0.167992
 20
0.122008
 30
0.000000
  0
SEQEND
  8
0
  0
POLYLINE
  8
16
 66
1
 10
0.000000
 20
0.000000
 30
0.000000
 40
0.005000
 41
0.005000
 70
0
  0
VERTEX
  8
16
 10
0.165492
 20
0.122008
 30
0.000000
 42
1.000000
  0
VERTEX
  8
16
 10
0.170492
 20
0.122008
 30
0.000000
  0
SEQEND
  8
0
  0
POLYLINE
  8
16
 66
1
 10
0.000000
 20
0.000000
 30
0.000000
 40
0.005000
 41
0.005000
 70
0
  0
VERTEX
  8
16
 10
0.170492
 20
0.170000
 30
0.000000
 42
1.000000
  0
VERTEX
  8
16
 10
0.165492
 20
0.170000
 30
0.000000
  0
SEQEND
  8
0
  0
POLYLINE
  8
16
 66
1
 10
0.000000
 20
0.000000
 30
0.000000
 40
0.010000
 41
0.010000
 70
0
  0
VERTEX
  8
16
 10
0.167992
 20
0.170000
 30
0.000000
  0
VERTEX
  8
16
 10
0.167992
 20
0.247992
 30
0.000000
  0
SEQEND
  8
0
  0
POLYLINE
  8
16
 66
1
 10
0.000000
 20
0.000000
 30
0.000000
 40
0.005000
 41
0.005000
 70
0
  0
VERTEX
  8
16
 10
0.170492
 20
0.247992
 30
0.000000
 42
1.000000
  0
VERTEX
  8
16
 10
0.165492
 20
0.247992
 30
0.000000
  0
SEQEND
  8
0
  0
POLYLINE
  8
16
 66
1
 10
0.000000
 20
0.000000
 30
0.000000
 40
0.005000
 41
0.005000
 70
0
  0
VERTEX
  8
16
 10
0.165492
 20
0.170000
 30
0.000000
 42
1.000000
  0
VERTEX
  8
16
 10
0.170492
 20
0.170000
 30
0.000000
  0
SEQEND
  8
0
  0
POLYLINE
  8
16
 66
1
 10
0.000000
 20
0.000000
 30
0.000000
 40
0.010000
 41
0.010000
 70
0
  0
VERTEX
  8
16
 10
0.167992
 20
0.247992
 30
0.000000
  0
VERTEX
  8
16
 10
0.180000
 20
0.260000
 30
0.000000
  0
SEQEND
  8
0
  0
POLYLINE
  8
16
 66
1
 10
0.000000
 20
0.000000
 30
0.000000
 40
0.005000
 41
0.005000
 70
0
  0
VERTEX
  8
16
 10
0.181768
 20
0.258232
 30
0.000000
 42
1.000000
  0
VERTEX
  8
16
 10
0.178232
 20
0.261768
 30
0.000000
  0
SEQEND
  8
0
  0
POLYLINE
  8
16
 66
1
 10
0.000000
 20
0.000000
 30
0.000000
 40
0.005000
 41
0.005000
 70
0
  0
VERTEX
  8
16
 10
0.166224
 20
0.249760
 30
0.000000
 42
1.000000
  0
VERTEX
  8
16
 10
0.169760
 20
0.246224
 30
0.000000
  0
SEQEND
  8
0
  0
POLYLINE
  8
16
 66
1
 10
0.000000
 20
0.000000
 30
0.000000
 40
0.010000
 41
0.010000
 70
0
  0
VERTEX
  8
16
 10
0.801000
 20
0.657500
 30
0.000000
  0
VERTEX
  8
16
 10
0.799000
 20
0.655500
 30
0.000000
  0
SEQEND
  8
0
  0
POLYLINE
  8
16
 66
1
 10
0.000000
 20
0.000000
 30
0.000000
 40
0.005000
 41
0.005000
 70
0
  0
VERTEX
  8
16
 10
0.797232
 20
0.657268
 30
0.000000
 42
1.000000
  0
VERTEX
  8
16
 10
0.800768
 20
0.653732
 30
0.000000
  0
SEQEND
  8
0
  0
POLYLINE
  8
16
 66
1
 10
0.000000
 20
0.000000
 30
0.000000
 40
0.005000
 41
0.005000
 70
0
  0
VERTEX
  8
16
 10
0.802768
 20
0.655732
 30
0.000000
 42
1.000000
  0
VERTEX
  8
16
 10
0.799232
 20
0.659268
 30
0.000000
  0
SEQEND
  8
0
  0
POLYLINE
  8
16
 66
1
 10
0.000000
 20
0.000000
 30
0.000000
 40
0.020000
 41
0.020000
 70
0
  0
VERTEX
  8
16
 10
0.178819
 20
0.390000
 30
0.000000
  0
VERTEX
  8
16
 10
0.210000
 20
0.390000
 30
0.000000
  0
SEQEND
  8
0
  0
POLYLINE
  8
16
 66
1
 10
0.000000
 20
0.000000
 30
0.000000
 40
0.010000
 41
0.010000
 70
0
  0
VERTEX
  8
16
 10
0.210000
 20
0.385000
 30
0.000000
 42
1.000000
  0
VERTEX
  8
16
 10
0.210000
 20
0.395000
 30
0.000000
  0
SEQEND
  8
0
  0
POLYLINE
  8
16
 66
1
 10
0.000000
 20
0.000000
 30
0.000000
 40
0.010000
 41
0.010000
 70
0
  0
VERTEX
  8
16
 10
0.178819
 20
0.395000
 30
0.000000
 42
1.000000
  0
VERTEX
  8
16
 10
0.178819
 20
0.385000
 30
0.000000
  0
SEQEND
  8
0
  0
POLYLINE
  8
16
 66
1
 10
0.000000
 20
0.000000
 30
0.000000
 40
0.020000
 41
0.020000
 70
0
  0
VERTEX
  8
16
 10
0.210000
 20
0.390000
 30
0.000000
  0
VERTEX
  8
16
 10
0.229000
 20
0.371000
 30
0.000000
  0
SEQEND
  8
0
  0
POLYLINE
  8
16
 66
1
 10
0.000000
 20
0.000000
 30
0.000000
 40
0.010000
 41
0.010000
 70
0
  0
VERTEX
  8
16
 10
0.225464
 20
0.367464
 30
0.000000
 42
1.000000
  0
VERTEX
  8
16
 10
0.232536
 20
0.374536
 30
0.000000
  0
SEQEND
  8
0
  0
POLYLINE
  8
16
 66
1
 10
0.000000
 20
0.000000
 30
0.000000
 40
0.010000
 41
0.010000
 70
0
  0
VERTEX
  8
16
 10
0.213536
 20
0.393536
 30
0.000000
 42
1.000000
  0
VERTEX
  8
16
 10
0.206464
 20
0.386464
 30
0.000000
  0
SEQEND
  8
0
  0
POLYLINE
  8
16
 66
1
 10
0.000000
 20
0.000000
 30
0.000000
 40
0.010000
 41
0.010000
 70
0
  0
VERTEX
  8
16
 10
0.799000
 20
0.655500
 30
0.000000
  0
VERTEX
  8
16
 10
0.814500
 20
0.640000
 30
0.000000
  0
SEQEND
  8
0
  0
POLYLINE
  8
16
 66
1
 10
0.000000
 20
0.000000
 30
0.000000
 40
0.005000
 41
0.005000
 70
0
  0
VERTEX
  8
16
 10
0.812732
 20
0.638232
 30
0.000000
 42
1.000000
  0
VERTEX
  8
16
 10
0.816268
 20
0.641768
 30
0.000000
  0
SEQEND
  8
0
  0
POLYLINE
  8
16
 66
1
 10
0.000000
 20
0.000000
 30
0.000000
 40
0.005000
 41
0.005000
 70
0
  0
VERTEX
  8
16
 10
0.800768
 20
0.657268
 30
0.000000
 42
1.000000
  0
VERTEX
  8
16
 10
0.797232
 20
0.653732
 30
0.000000
  0
SEQEND
  8
0
  0
POLYLINE
  8
16
 66
1
 10
0.000000
 20
0.000000
 30
0.000000
 40
0.010000
 41
0.010000
 70
0
  0
VERTEX
  8
16
 10
0.814500
 20
0.640000
 30
0.000000
  0
VERTEX
  8
16
 10
0.870000
 20
0.640000
 30
0.000000
  0
SEQEND
  8
0
  0
POLYLINE
  8
16
 66
1
 10
0.000000
 20
0.000000
 30
0.000000
 40
0.005000
 41
0.005000
 70
0
  0
VERTEX
  8
16
 10
0.870000
 20
0.637500
 30
0.000000
 42
1.000000
  0
VERTEX
  8
16
 10
0.870000
 20
0.642500
 30
0.000000
  0
SEQEND
  8
0
  0
POLYLINE
  8
16
 66
1
 10
0.000000
 20
0.000000
 30
0.000000
 40
0.005000
 41
0.005000
 70
0
  0
VERTEX
  8
16
 10
0.814500
 20
0.642500
 30
0.000000
 42
1.000000
  0
VERTEX
  8
16
 10
0.814500
 20
0.637500
 30
0.000000
  0
SEQEND
  8
0
  0
POLYLINE
  8
16
 66
1
 10
0.000000
 20
0.000000
 30
0.000000
 40
0.010000
 41
0.010000
 70
0
  0
VERTEX
  8
16
 10
0.830000
 20
0.310000
 30
0.000000
  0
VERTEX
  8
16
 10
0.830000
 20
0.164000
 30
0.000000
  0
SEQEND
  8
0
  0
POLYLINE
  8
16
 66
1
 10
0.000000
 20
0.000000
 30
0.000000
 40
0.005000
 41
0.005000
 70
0
  0
VERTEX
  8
16
 10
0.827500
 20
0.164000
 30
0.000000
 42
1.000000
  0
VERTEX
  8
16
 10
0.832500
 20
0.164000
 30
0.000000
  0
SEQEND
  8
0
  0
POLYLINE
  8
16
 66
1
 10
0.000000
 20
0.000000
 30
0.000000
 40
0.005000
 41
0.005000
 70
0
  0
VERTEX
  8
16
 10
0.832500
 20
0.310000
 30
0.000000
 42
1.000000
  0
VERTEX
  8
16
 10
0.827500
 20
0.310000
 30
0.000000
  0
SEQEND
  8
0
  0
POLYLINE
  8
16
 66
1
 10
0.000000
 20
0.000000
 30
0.000000
 40
0.010000
 41
0.010000
 70
0
  0
VERTEX
  8
16
 10
0.830000
 20
0.164000
 30
0.000000
  0
VERTEX
  8
16
 10
0.874000
 20
0.120000
 30
0.000000
  0
SEQEND
  8
0
  0
POLYLINE
  8
16
 66
1
 10
0.000000
 20
0.000000
 30
0.000000
 40
0.005000
 41
0.005000
 70
0
  0
VERTEX
  8
16
 10
0.872232
 20
0.118232
 30
0.000000
 42
1.000000
  0
VERTEX
  8
16
 10
0.875768
 20
0.121768
 30
0.000000
  0
SEQEND
  8
0
  0
POLYLINE
  8
16
 66
1
 10
0.000000
 20
0.000000
 30
0.000000
 40
0.005000
 41
0.005000
 70
0
  0
VERTEX
  8
16
 10
0.831768
 20
0.165768
 30
0.000000
 42
1.000000
  0
VERTEX
  8
16
 10
0.828232
 20
0.162232
 30
0.000000
  0
SEQEND
  8
0
  0
POLYLINE
  8
16
 66
1
 10
0.000000
 20
0.000000
 30
0.000000
 40
0.010000
 41
0.010000
 70
0
  0
VERTEX
  8
16
 10
0.874000
 20
0.120000
 30
0.000000
  0
VERTEX
  8
16
 10
0.930000
 20
0.120000
 30
0.000000
  0
SEQEND
  8
0
  0
POLYLINE
  8
16
 66
1
 10
0.000000
 20
0.000000
 30
0.000000
 40
0.005000
 41
0.005000
 70
0
  0
VERTEX
  8
16
 10
0.930000
 20
0.117500
 30
0.000000
 42
1.000000
  0
VERTEX
  8
16
 10
0.930000
 20
0.122500
 30
0.000000
  0
SEQEND
  8
0
  0
POLYLINE
  8
16
 66
1
 10
0.000000
 20
0.000000
 30
0.000000
 40
0.005000
 41
0.005000
 70
0
  0
VERTEX
  8
16
 10
0.874000
 20
0.122500
 30
0.000000
 42
1.000000
  0
VERTEX
  8
16
 10
0.874000
 20
0.117500
 30
0.000000
  0
SEQEND
  8
0
  0
POLYLINE
  8
16
 66
1
 10
0.000000
 20
0.000000
 30
0.000000
 40
0.010000
 41
0.010000
 70
0
  0
VERTEX
  8
16
 10
0.930000
 20
0.120000
 30
0.000000
  0
VERTEX
  8
16
 10
0.980000
 20
0.170000
 30
0.000000
  0
SEQEND
  8
0
  0
POLYLINE
  8
16
 66
1
 10
0.000000
 20
0.000000
 30
0.000000
 40
0.005000
 41
0.005000
 70
0
  0
VERTEX
  8
16
 10
0.981768
 20
0.168232
 30
0.000000
 42
1.000000
  0
VERTEX
  8
16
 10
0.978232
 20
0.171768
 30
0.000000
  0
SEQEND
  8
0
  0
POLYLINE
  8
16
 66
1
 10
0.000000
 20
0.000000
 30
0.000000
 40
0.005000
 41
0.005000
 70
0
  0
VERTEX
  8
16
 10
0.928232
 20
0.121768
 30
0.000000
 42
1.000000
  0
VERTEX
  8
16
 10
0.931768
 20
0.118232
 30
0.000000
  0
SEQEND
  8
0
  0
POLYLINE
  8
16
 66
1
 10
0.000000
 20
0.000000
 30
0.000000
 40
0.020000
 41
0.020000
 70
0
  0
VERTEX
  8
16
 10
0.190000
 20
0.050000
 30
0.000000
  0
VERTEX
  8
16
 10
0.167992
 20
0.072008
 30
0.000000
  0
SEQEND
  8
0
  0
POLYLINE
  8
16
 66
1
 10
0.000000
 20
0.000000
 30
0.000000
 40
0.010000
 41
0.010000
 70
0
  0
VERTEX
  8
16
 10
0.171528
 20
0.075543
 30
0.000000
 42
1.000000
  0
VERTEX
  8
16
 10
0.164457
 20
0.068472
 30
0.000000
  0
SEQEND
  8
0
  0
POLYLINE
  8
16
 66
1
 10
0.000000
 20
0.000000
 30
0.000000
 40
0.010000
 41
0.010000
 70
0
  0
VERTEX
  8
16
 10
0.186464
 20
0.046464
 30
0.000000
 42
1.000000
  0
VERTEX
  8
16
 10
0.193536
 20
0.053536
 30
0.000000
  0
SEQEND
  8
0
  0
POLYLINE
  8
16
 66
1
 10
0.000000
 20
0.000000
 30
0.000000
 40
0.020000
 41
0.020000
 70
0
  0
VERTEX
  8
16
 10
0.167992
 20
0.072008
 30
0.000000
  0
VERTEX
  8
16
 10
0.167992
 20
0.170000
 30
0.000000
  0
SEQEND
  8
0
  0
POLYLINE
  8
16
 66
1
 10
0.000000
 20
0.000000
 30
0.000000
 40
0.010000
 41
0.010000
 70
0
  0
VERTEX
  8
16
 10
0.172992
 20
0.170000
 30
0.000000
 42
1.000000
  0
VERTEX
  8
16
 10
0.162992
 20
0.170000
 30
0.000000
  0
SEQEND
  8
0
  0
POLYLINE
  8
16
 66
1
 10
0.000000
 20
0.000000
 30
0.000000
 40
0.010000
 41
0.010000
 70
0
  0
VERTEX
  8
16
 10
0.162992
 20
0.072008
 30
0.000000
 42
1.000000
  0
VERTEX
  8
16
 10
0.172992
 20
0.072008
 30
0.000000
  0
SEQEND
  8
0
  0
POLYLINE
  8
16
 66
1
 10
0.000000
 20
0.000000
 30
0.000000
 40
0.010000
 41
0.010000
 70
0
  0
VERTEX
  8
16
 10
0.229000
 20
0.371000
 30
0.000000
  0
VERTEX
  8
16
 10
0.229000
 20
0.351000
 30
0.000000
  0
SEQEND
  8
0
  0
POLYLINE
  8
16
 66
1
 10
0.000000
 20
0.000000
 30
0.000000
 40
0.005000
 41
0.005000
 70
0
  0
VERTEX
  8
16
 10
0.226500
 20
0.351000
 30
0.000000
 42
1.000000
  0
VERTEX
  8
16
 10
0.231500
 20
0.351000
 30
0.000000
  0
SEQEND
  8
0
  0
POLYLINE
  8
16
 66
1
 10
0.000000
 20
0.000000
 30
0.000000
 40
0.005000
 41
0.005000
 70
0
  0
VERTEX
  8
16
 10
0.231500
 20
0.371000
 30
0.000000
 42
1.000000
  0
VERTEX
  8
16
 10
0.226500
 20
0.371000
 30
0.000000
  0
SEQEND
  8
0
  0
POLYLINE
  8
16
 66
1
 10
0.000000
 20
0.000000
 30
0.000000
 40
0.010000
 41
0.010000
 70
0
  0
VERTEX
  8
16
 10
0.229000
 20
0.351000
 30
0.000000
  0
VERTEX
  8
16
 10
0.360000
 20
0.220000
 30
0.000000
  0
SEQEND
  8
0
  0
POLYLINE
  8
16
 66
1
 10
0.000000
 20
0.000000
 30
0.000000
 40
0.005000
 41
0.005000
 70
0
  0
VERTEX
  8
16
 10
0.358232
 20
0.218232
 30
0.000000
 42
1.000000
  0
VERTEX
  8
16
 10
0.361768
 20
0.221768
 30
0.000000
  0
SEQEND
  8
0
  0
POLYLINE
  8
16
 66
1
 10
0.000000
 20
0.000000
 30
0.000000
 40
0.005000
 41
0.005000
 70
0
  0
VERTEX
  8
16
 10
0.230768
 20
0.352768
 30
0.000000
 42
1.000000
  0
VERTEX
  8
16
 10
0.227232
 20
0.349232
 30
0.000000
  0
SEQEND
  8
0
  0
POLYLINE
  8
16
 66
1
 10
0.000000
 20
0.000000
 30
0.000000
 40
0.010000
 41
0.010000
 70
0
  0
VERTEX
  8
16
 10
0.360000
 20
0.220000
 30
0.000000
  0
VERTEX
  8
16
 10
0.360000
 20
0.210000
 30
0.000000
  0
SEQEND
  8
0
  0
POLYLINE
  8
16
 66
1
 10
0.000000
 20
0.000000
 30
0.000000
 40
0.005000
 41
0.005000
 70
0
  0
VERTEX
  8
16
 10
0.357500
 20
0.210000
 30
0.000000
 42
1.000000
  0
VERTEX
  8
16
 10
0.362500
 20
0.210000
 30
0.000000
  0
SEQEND
  8
0
  0
POLYLINE
  8
16
 66
1
 10
0.000000
 20
0.000000
 30
0.000000
 40
0.005000
 41
0.005000
 70
0
  0
VERTEX
  8
16
 10
0.362500
 20
0.220000
 30
0.000000
 42
1.000000
  0
VERTEX
  8
16
 10
0.357500
 20
0.220000
 30
0.000000
  0
SEQEND
  8
0
  0
POLYLINE
  8
16
 66
1
 10
0.000000
 20
0.000000
 30
0.000000
 40
0.010000
 41
0.010000
 70
0
  0
VERTEX
  8
16
 10
0.740000
 20
0.331654
 30
0.000000
  0
VERTEX
  8
16
 10
0.808346
 20
0.331654
 30
0.000000
  0
SEQEND
  8
0
  0
POLYLINE
  8
16
 66
1
 10
0.000000
 20
0.000000
 30
0.000000
 40
0.005000
 41
0.005000
 70
0
  0
VERTEX
  8
16
 10
0.808346
 20
0.329154
 30
0.000000
 42
1.000000
  0
VERTEX
  8
16
 10
0.808346
 20
0.334154
 30
0.000000
  0
SEQEND
  8
0
  0
POLYLINE
  8
16
 66
1
 10
0.000000
 20
0.000000
 30
0.000000
 40
0.005000
 41
0.005000
 70
0
  0
VERTEX
  8
16
 10
0.740000
 20
0.334154
 30
0.000000
 42
1.000000
  0
VERTEX
  8
16
 10
0.740000
 20
0.329154
 30
0.000000
  0
SEQEND
  8
0
  0
POLYLINE
  8
16
 66
1
 10
0.000000
 20
0.000000
 30
0.000000
 40
0.010000
 41
0.010000
 70
0
  0
VERTEX
  8
16
 10
0.808346
 20
0.331654
 30
0.000000
  0
VERTEX
  8
16
 10
0.830000
 20
0.310000
 30
0.000000
  0
SEQEND
  8
0
  0
POLYLINE
  8
16
 66
1
 10
0.000000
 20
0.000000
 30
0.000000
 40
0.005000
 41
0.005000
 70
0
  0
VERTEX
  8
16
 10
0.828232
 20
0.308232
 30
0.000000
 42
1.000000
  0
VERTEX
  8
16
 10
0.831768
 20
0.311768
 30
0.000000
  0
SEQEND
  8
0
  0
POLYLINE
  8
16
 66
1
 10
0.000000
 20
0.000000
 30
0.000000
 40
0.005000
 41
0.005000
 70
0
  0
VERTEX
  8
16
 10
0.810114
 20
0.333421
 30
0.000000
 42
1.000000
  0
VERTEX
  8
16
 10
0.806579
 20
0.329886
 30
0.000000
  0
SEQEND
  8
0
  0
POLYLINE
  8
16
 66
1
 10
0.000000
 20
0.000000
 30
0.000000
 40
0.010000
 41
0.010000
 70
0
  0
VERTEX
  8
16
 10
1.047510
 20
0.316834
 30
0.000000
  0
VERTEX
  8
16
 10
1.025000
 20
0.316834
 30
0.000000
  0
SEQEND
  8
0
  0
POLYLINE
  8
16
 66
1
 10
0.000000
 20
0.000000
 30
0.000000
 40
0.005000
 41
0.005000
 70
0
  0
VERTEX
  8
16
 10
1.025000
 20
0.319334
 30
0.000000
 42
1.000000
  0
VERTEX
  8
16
 10
1.025000
 20
0.314334
 30
0.000000
  0
SEQEND
  8
0
  0
POLYLINE
  8
16
 66
1
 10
0.000000
 20
0.000000
 30
0.000000
 40
0.005000
 41
0.005000
 70
0
  0
VERTEX
  8
16
 10
1.047510
 20
0.314334
 30
0.000000
 42
1.000000
  0
VERTEX
  8
16
 10
1.047510
 20
0.319334
 30
0.000000
  0
SEQEND
  8
0
  0
POLYLINE
  8
16
 66
1
 10
0.000000
 20
0.000000
 30
0.000000
 40
0.010000
 41
0.010000
 70
0
  0
VERTEX
  8
16
 10
1.025000
 20
0.316834
 30
0.000000
  0
VERTEX
  8
16
 10
0.987000
 20
0.278834
 30
0.000000
  0
SEQEND
  8
0
  0
POLYLINE
  8
16
 66
1
 10
0.000000
 20
0.000000
 30
0.000000
 40
0.005000
 41
0.005000
 70
0
  0
VERTEX
  8
16
 10
0.985232
 20
0.280601
 30
0.000000
 42
1.000000
  0
VERTEX
  8
16
 10
0.988768
 20
0.277066
 30
0.000000
  0
SEQEND
  8
0
  0
POLYLINE
  8
16
 66
1
 10
0.000000
 20
0.000000
 30
0.000000
 40
0.005000
 41
0.005000
 70
0
  0
VERTEX
  8
16
 10
1.026768
 20
0.315066
 30
0.000000
 42
1.000000
  0
VERTEX
  8
16
 10
1.023232
 20
0.318601
 30
0.000000
  0
SEQEND
  8
0
  0
POLYLINE
  8
16
 66
1
 10
0.000000
 20
0.000000
 30
0.000000
 40
0.010000
 41
0.010000
 70
0
  0
VERTEX
  8
16
 10
0.987000
 20
0.278834
 30
0.000000
  0
VERTEX
  8
16
 10
0.987000
 20
0.260000
 30
0.000000
  0
SEQEND
  8
0
  0
POLYLINE
  8
16
 66
1
 10
0.000000
 20
0.000000
 30
0.000000
 40
0.005000
 41
0.005000
 70
0
  0
VERTEX
  8
16
 10
0.984500
 20
0.260000
 30
0.000000
 42
1.000000
  0
VERTEX
  8
16
 10
0.989500
 20
0.260000
 30
0.000000
  0
SEQEND
  8
0
  0
POLYLINE
  8
16
 66
1
 10
0.000000
 20
0.000000
 30
0.000000
 40
0.005000
 41
0.005000
 70
0
  0
VERTEX
  8
16
 10
0.989500
 20
0.278834
 30
0.000000
 42
1.000000
  0
VERTEX
  8
16
 10
0.984500
 20
0.278834
 30
0.000000
  0
SEQEND
  8
0
  0
POLYLINE
  8
16
 66
1
 10
0.000000
 20
0.000000
 30
0.000000
 40
0.010000
 41
0.010000
 70
0
  0
VERTEX
  8
16
 10
0.960000
 20
0.500000
 30
0.000000
  0
VERTEX
  8
16
 10
0.840000
 20
0.620000
 30
0.000000
  0
SEQEND
  8
0
  0
POLYLINE
  8
16
 66
1
 10
0.000000
 20
0.000000
 30
0.000000
 40
0.005000
 41
0.005000
 70
0
  0
VERTEX
  8
16
 10
0.841768
 20
0.621768
 30
0.000000
 42
1.000000
  0
VERTEX
  8
16
 10
0.838232
 20
0.618232
 30
0.000000
  0
SEQEND
  8
0
  0
POLYLINE
  8
16
 66
1
 10
0.000000
 20
0.000000
 30
0.000000
 40
0.005000
 41
0.005000
 70
0
  0
VERTEX
  8
16
 10
0.958232
 20
0.498232
 30
0.000000
 42
1.000000
  0
VERTEX
  8
16
 10
0.961768
 20
0.501768
 30
0.000000
  0
SEQEND
  8
0
  0
POLYLINE
  8
16
 66
1
 10
0.000000
 20
0.000000
 30
0.000000
 40
0.010000
 41
0.010000
 70
0
  0
VERTEX
  8
16
 10
0.840000
 20
0.620000
 30
0.000000
  0
VERTEX
  8
16
 10
0.750000
 20
0.620000
 30
0.000000
  0
SEQEND
  8
0
  0
POLYLINE
  8
16
 66
1
 10
0.000000
 20
0.000000
 30
0.000000
 40
0.005000
 41
0.005000
 70
0
  0
VERTEX
  8
16
 10
0.750000
 20
0.622500
 30
0.000000
 42
1.000000
  0
VERTEX
  8
16
 10
0.750000
 20
0.617500
 30
0.000000
  0
SEQEND
  8
0
  0
POLYLINE
  8
16
 66
1
 10
0.000000
 20
0.000000
 30
0.000000
 40
0.005000
 41
0.005000
 70
0
  0
VERTEX
  8
16
 10
0.840000
 20
0.617500
 30
0.000000
 42
1.000000
  0
VERTEX
  8
16
 10
0.840000
 20
0.622500
 30
0.000000
  0
SEQEND
  8
0
  0
POLYLINE
  8
16
 66
1
 10
0.000000
 20
0.000000
 30
0.000000
 40
0.010000
 41
0.010000
 70
0
  0
VERTEX
  8
16
 10
0.750000
 20
0.620000
 30
0.000000
  0
VERTEX
  8
16
 10
0.732000
 20
0.638000
 30
0.000000
  0
SEQEND
  8
0
  0
POLYLINE
  8
16
 66
1
 10
0.000000
 20
0.000000
 30
0.000000
 40
0.005000
 41
0.005000
 70
0
  0
VERTEX
  8
16
 10
0.733768
 20
0.639768
 30
0.000000
 42
1.000000
  0
VERTEX
  8
16
 10
0.730232
 20
0.636232
 30
0.000000
  0
SEQEND
  8
0
  0
POLYLINE
  8
16
 66
1
 10
0.000000
 20
0.000000
 30
0.000000
 40
0.005000
 41
0.005000
 70
0
  0
VERTEX
  8
16
 10
0.748232
 20
0.618232
 30
0.000000
 42
1.000000
  0
VERTEX
  8
16
 10
0.751768
 20
0.621768
 30
0.000000
  0
SEQEND
  8
0
  0
POLYLINE
  8
16
 66
1
 10
0.000000
 20
0.000000
 30
0.000000
 40
0.010000
 41
0.010000
 70
0
  0
VERTEX
  8
16
 10
0.732000
 20
0.638000
 30
0.000000
  0
VERTEX
  8
16
 10
0.732000
 20
0.818000
 30
0.000000
  0
SEQEND
  8
0
  0
POLYLINE
  8
16
 66
1
 10
0.000000
 20
0.000000
 30
0.000000
 40
0.005000
 41
0.005000
 70
0
  0
VERTEX
  8
16
 10
0.734500
 20
0.818000
 30
0.000000
 42
1.000000
  0
VERTEX
  8
16
 10
0.729500
 20
0.818000
 30
0.000000
  0
SEQEND
  8
0
  0
POLYLINE
  8
16
 66
1
 10
0.000000
 20
0.000000
 30
0.000000
 40
0.005000
 41
0.005000
 70
0
  0
VERTEX
  8
16
 10
0.729500
 20
0.638000
 30
0.000000
 42
1.000000
  0
VERTEX
  8
16
 10
0.734500
 20
0.638000
 30
0.000000
  0
SEQEND
  8
0
  0
POLYLINE
  8
16
 66
1
 10
0.000000
 20
0.000000
 30
0.000000
 40
0.010000
 41
0.010000
 70
0
  0
VERTEX
  8
16
 10
0.980000
 20
0.370000
 30
0.000000
  0
VERTEX
  8
16
 10
0.960000
 20
0.390000
 30
0.000000
  0
SEQEND
  8
0
  0
POLYLINE
  8
16
 66
1
 10
0.000000
 20
0.000000
 30
0.000000
 40
0.005000
 41
0.005000
 70
0
  0
VERTEX
  8
16
 10
0.961768
 20
0.391768
 30
0.000000
 42
1.000000
  0
VERTEX
  8
16
 10
0.958232
 20
0.388232
 30
0.000000
  0
SEQEND
  8
0
  0
POLYLINE
  8
16
 66
1
 10
0.000000
 20
0.000000
 30
0.000000
 40
0.005000
 41
0.005000
 70
0
  0
VERTEX
  8
16
 10
0.978232
 20
0.368232
 30
0.000000
 42
1.000000
  0
VERTEX
  8
16
 10
0.981768
 20
0.371768
 30
0.000000
  0
SEQEND
  8
0
  0
POLYLINE
  8
16
 66
1
 10
0.000000
 20
0.000000
 30
0.000000
 40
0.010000
 41
0.010000
 70
0
  0
VERTEX
  8
16
 10
0.960000
 20
0.390000
 30
0.000000
  0
VERTEX
  8
16
 10
0.960000
 20
0.500000
 30
0.000000
  0
SEQEND
  8
0
  0
POLYLINE
  8
16
 66
1
 10
0.000000
 20
0.000000
 30
0.000000
 40
0.005000
 41
0.005000
 70
0
  0
VERTEX
  8
16
 10
0.962500
 20
0.500000
 30
0.000000
 42
1.000000
  0
VERTEX
  8
16
 10
0.957500
 20
0.500000
 30
0.000000
  0
SEQEND
  8
0
  0
POLYLINE
  8
16
 66
1
 10
0.000000
 20
0.000000
 30
0.000000
 40
0.005000
 41
0.005000
 70
0
  0
VERTEX
  8
16
 10
0.957500
 20
0.390000
 30
0.000000
 42
1.000000
  0
VERTEX
  8
16
 10
0.962500
 20
0.390000
 30
0.000000
  0
SEQEND
  8
0
  0
POLYLINE
  8
16
 66
1
 10
0.000000
 20
0.000000
 30
0.000000
 40
0.010000
 41
0.010000
 70
0
  0
VERTEX
  8
16
 10
0.980000
 20
0.370000
 30
0.000000
  0
VERTEX
  8
16
 10
0.980000
 20
0.313000
 30
0.000000
  0
SEQEND
  8
0
  0
POLYLINE
  8
16
 66
1
 10
0.000000
 20
0.000000
 30
0.000000
 40
0.005000
 41
0.005000
 70
0
  0
VERTEX
  8
16
 10
0.977500
 20
0.313000
 30
0.000000
 42
1.000000
  0
VERTEX
  8
16
 10
0.982500
 20
0.313000
 30
0.000000
  0
SEQEND
  8
0
  0
POLYLINE
  8
16
 66
1
 10
0.000000
 20
0.000000
 30
0.000000
 40
0.005000
 41
0.005000
 70
0
  0
VERTEX
  8
16
 10
0.982500
 20
0.370000
 30
0.000000
 42
1.000000
  0
VERTEX
  8
16
 10
0.977500
 20
0.370000
 30
0.000000
  0
SEQEND
  8
0
  0
POLYLINE
  8
16
 66
1
 10
0.000000
 20
0.000000
 30
0.000000
 40
0.010000
 41
0.010000
 70
0
  0
VERTEX
  8
16
 10
0.760000
 20
0.570000
 30
0.000000
  0
VERTEX
  8
16
 10
0.770000
 20
0.560000
 30
0.000000
  0
SEQEND
  8
0
  0
POLYLINE
  8
16
 66
1
 10
0.000000
 20
0.000000
 30
0.000000
 40
0.005000
 41
0.005000
 70
0
  0
VERTEX
  8
16
 10
0.768232
 20
0.558232
 30
0.000000
 42
1.000000
  0
VERTEX
  8
16
 10
0.771768
 20
0.561768
 30
0.000000
  0
SEQEND
  8
0
  0
POLYLINE
  8
16
 66
1
 10
0.000000
 20
0.000000
 30
0.000000
 40
0.005000
 41
0.005000
 70
0
  0
VERTEX
  8
16
 10
0.761768
 20
0.571768
 30
0.000000
 42
1.000000
  0
VERTEX
  8
16
 10
0.758232
 20
0.568232
 30
0.000000
  0
SEQEND
  8
0
  0
POLYLINE
  8
16
 66
1
 10
0.000000
 20
0.000000
 30
0.000000
 40
0.010000
 41
0.010000
 70
0
  0
VERTEX
  8
16
 10
0.770000
 20
0.560000
 30
0.000000
  0
VERTEX
  8
16
 10
0.840000
 20
0.560000
 30
0.000000
  0
SEQEND
  8
0
  0
POLYLINE
  8
16
 66
1
 10
0.000000
 20
0.000000
 30
0.000000
 40
0.005000
 41
0.005000
 70
0
  0
VERTEX
  8
16
 10
0.840000
 20
0.557500
 30
0.000000
 42
1.000000
  0
VERTEX
  8
16
 10
0.840000
 20
0.562500
 30
0.000000
  0
SEQEND
  8
0
  0
POLYLINE
  8
16
 66
1
 10
0.000000
 20
0.000000
 30
0.000000
 40
0.005000
 41
0.005000
 70
0
  0
VERTEX
  8
16
 10
0.770000
 20
0.562500
 30
0.000000
 42
1.000000
  0
VERTEX
  8
16
 10
0.770000
 20
0.557500
 30
0.000000
  0
SEQEND
  8
0
  0
POLYLINE
  8
16
 66
1
 10
0.000000
 20
0.000000
 30
0.000000
 40
0.010000
 41
0.010000
 70
0
  0
VERTEX
  8
16
 10
0.840000
 20
0.560000
 30
0.000000
  0
VERTEX
  8
16
 10
0.920000
 20
0.480000
 30
0.000000
  0
SEQEND
  8
0
  0
POLYLINE
  8
16
 66
1
 10
0.000000
 20
0.000000
 30
0.000000
 40
0.005000
 41
0.005000
 70
0
  0
VERTEX
  8
16
 10
0.918232
 20
0.478232
 30
0.000000
 42
1.000000
  0
VERTEX
  8
16
 10
0.921768
 20
0.481768
 30
0.000000
  0
SEQEND
  8
0
  0
POLYLINE
  8
16
 66
1
 10
0.000000
 20
0.000000
 30
0.000000
 40
0.005000
 41
0.005000
 70
0
  0
VERTEX
  8
16
 10
0.841768
 20
0.561768
 30
0.000000
 42
1.000000
  0
VERTEX
  8
16
 10
0.838232
 20
0.558232
 30
0.000000
  0
SEQEND
  8
0
  0
POLYLINE
  8
16
 66
1
 10
0.000000
 20
0.000000
 30
0.000000
 40
0.010000
 41
0.010000
 70
0
  0
VERTEX
  8
16
 10
0.920000
 20
0.480000
 30
0.000000
  0
VERTEX
  8
16
 10
0.920000
 20
0.277000
 30
0.000000
  0
SEQEND
  8
0
  0
POLYLINE
  8
16
 66
1
 10
0.000000
 20
0.000000
 30
0.000000
 40
0.005000
 41
0.005000
 70
0
  0
VERTEX
  8
16
 10
0.917500
 20
0.277000
 30
0.000000
 42
1.000000
  0
VERTEX
  8
16
 10
0.922500
 20
0.277000
 30
0.000000
  0
SEQEND
  8
0
  0
POLYLINE
  8
16
 66
1
 10
0.000000
 20
0.000000
 30
0.000000
 40
0.005000
 41
0.005000
 70
0
  0
VERTEX
  8
16
 10
0.922500
 20
0.480000
 30
0.000000
 42
1.000000
  0
VERTEX
  8
16
 10
0.917500
 20
0.480000
 30
0.000000
  0
SEQEND
  8
0
  0
POLYLINE
  8
16
 66
1
 10
0.000000
 20
0.000000
 30
0.000000
 40
0.010000
 41
0.010000
 70
0
  0
VERTEX
  8
16
 10
0.920000
 20
0.277000
 30
0.000000
  0
VERTEX
  8
16
 10
0.953000
 20
0.244000
 30
0.000000
  0
SEQEND
  8
0
  0
POLYLINE
  8
16
 66
1
 10
0.000000
 20
0.000000
 30
0.000000
 40
0.005000
 41
0.005000
 70
0
  0
VERTEX
  8
16
 10
0.951232
 20
0.242232
 30
0.000000
 42
1.000000
  0
VERTEX
  8
16
 10
0.954768
 20
0.245768
 30
0.000000
  0
SEQEND
  8
0
  0
POLYLINE
  8
16
 66
1
 10
0.000000
 20
0.000000
 30
0.000000
 40
0.005000
 41
0.005000
 70
0
  0
VERTEX
  8
16
 10
0.921768
 20
0.278768
 30
0.000000
 42
1.000000
  0
VERTEX
  8
16
 10
0.918232
 20
0.275232
 30
0.000000
  0
SEQEND
  8
0
  0
POLYLINE
  8
16
 66
1
 10
0.000000
 20
0.000000
 30
0.000000
 40
0.010000
 41
0.010000
 70
0
  0
VERTEX
  8
16
 10
0.830000
 20
0.600000
 30
0.000000
  0
VERTEX
  8
16
 10
0.940000
 20
0.490000
 30
0.000000
  0
SEQEND
  8
0
  0
POLYLINE
  8
16
 66
1
 10
0.000000
 20
0.000000
 30
0.000000
 40
0.005000
 41
0.005000
 70
0
  0
VERTEX
  8
16
 10
0.938232
 20
0.488232
 30
0.000000
 42
1.000000
  0
VERTEX
  8
16
 10
0.941768
 20
0.491768
 30
0.000000
  0
SEQEND
  8
0
  0
POLYLINE
  8
16
 66
1
 10
0.000000
 20
0.000000
 30
0.000000
 40
0.005000
 41
0.005000
 70
0
  0
VERTEX
  8
16
 10
0.831768
 20
0.601768
 30
0.000000
 42
1.000000
  0
VERTEX
  8
16
 10
0.828232
 20
0.598232
 30
0.000000
  0
SEQEND
  8
0
  0
POLYLINE
  8
16
 66
1
 10
0.000000
 20
0.000000
 30
0.000000
 40
0.010000
 41
0.010000
 70
0
  0
VERTEX
  8
16
 10
0.830000
 20
0.600000
 30
0.000000
  0
VERTEX
  8
16
 10
0.710000
 20
0.600000
 30
0.000000
  0
SEQEND
  8
0
  0
POLYLINE
  8
16
 66
1
 10
0.000000
 20
0.000000
 30
0.000000
 40
0.005000
 41
0.005000
 70
0
  0
VERTEX
  8
16
 10
0.710000
 20
0.602500
 30
0.000000
 42
1.000000
  0
VERTEX
  8
16
 10
0.710000
 20
0.597500
 30
0.000000
  0
SEQEND
  8
0
  0
POLYLINE
  8
16
 66
1
 10
0.000000
 20
0.000000
 30
0.000000
 40
0.005000
 41
0.005000
 70
0
  0
VERTEX
  8
16
 10
0.830000
 20
0.597500
 30
0.000000
 42
1.000000
  0
VERTEX
  8
16
 10
0.830000
 20
0.602500
 30
0.000000
  0
SEQEND
  8
0
  0
POLYLINE
  8
16
 66
1
 10
0.000000
 20
0.000000
 30
0.000000
 40
0.010000
 41
0.010000
 70
0
  0
VERTEX
  8
16
 10
0.940000
 20
0.490000
 30
0.000000
  0
VERTEX
  8
16
 10
0.940000
 20
0.370000
 30
0.000000
  0
SEQEND
  8
0
  0
POLYLINE
  8
16
 66
1
 10
0.000000
 20
0.000000
 30
0.000000
 40
0.005000
 41
0.005000
 70
0
  0
VERTEX
  8
16
 10
0.937500
 20
0.370000
 30
0.000000
 42
1.000000
  0
VERTEX
  8
16
 10
0.942500
 20
0.370000
 30
0.000000
  0
SEQEND
  8
0
  0
POLYLINE
  8
16
 66
1
 10
0.000000
 20
0.000000
 30
0.000000
 40
0.005000
 41
0.005000
 70
0
  0
VERTEX
  8
16
 10
0.942500
 20
0.490000
 30
0.000000
 42
1.000000
  0
VERTEX
  8
16
 10
0.937500
 20
0.490000
 30
0.000000
  0
SEQEND
  8
0
  0
POLYLINE
  8
16
 66
1
 10
0.000000
 20
0.000000
 30
0.000000
 40
0.010000
 41
0.010000
 70
0
  0
VERTEX
  8
16
 10
0.940000
 20
0.370000
 30
0.000000
  0
VERTEX
  8
16
 10
0.950000
 20
0.360000
 30
0.000000
  0
SEQEND
  8
0
  0
POLYLINE
  8
16
 66
1
 10
0.000000
 20
0.000000
 30
0.000000
 40
0.005000
 41
0.005000
 70
0
  0
VERTEX
  8
16
 10
0.948232
 20
0.358232
 30
0.000000
 42
1.000000
  0
VERTEX
  8
16
 10
0.951768
 20
0.361768
 30
0.000000
  0
SEQEND
  8
0
  0
POLYLINE
  8
16
 66
1
 10
0.000000
 20
0.000000
 30
0.000000
 40
0.005000
 41
0.005000
 70
0
  0
VERTEX
  8
16
 10
0.941768
 20
0.371768
 30
0.000000
 42
1.000000
  0
VERTEX
  8
16
 10
0.938232
 20
0.368232
 30
0.000000
  0
SEQEND
  8
0
  0
POLYLINE
  8
16
 66
1
 10
0.000000
 20
0.000000
 30
0.000000
 40
0.010000
 41
0.010000
 70
0
  0
VERTEX
  8
16
 10
0.710000
 20
0.600000
 30
0.000000
  0
VERTEX
  8
16
 10
0.690000
 20
0.620000
 30
0.000000
  0
SEQEND
  8
0
  0
POLYLINE
  8
16
 66
1
 10
0.000000
 20
0.000000
 30
0.000000
 40
0.005000
 41
0.005000
 70
0
  0
VERTEX
  8
16
 10
0.691768
 20
0.621768
 30
0.000000
 42
1.000000
  0
VERTEX
  8
16
 10
0.688232
 20
0.618232
 30
0.000000
  0
SEQEND
  8
0
  0
POLYLINE
  8
16
 66
1
 10
0.000000
 20
0.000000
 30
0.000000
 40
0.005000
 41
0.005000
 70
0
  0
VERTEX
  8
16
 10
0.708232
 20
0.598232
 30
0.000000
 42
1.000000
  0
VERTEX
  8
16
 10
0.711768
 20
0.601768
 30
0.000000
  0
SEQEND
  8
0
  0
POLYLINE
  8
16
 66
1
 10
0.000000
 20
0.000000
 30
0.000000
 40
0.010000
 41
0.010000
 70
0
  0
VERTEX
  8
16
 10
0.690000
 20
0.620000
 30
0.000000
  0
VERTEX
  8
16
 10
0.690000
 20
0.670000
 30
0.000000
  0
SEQEND
  8
0
  0
POLYLINE
  8
16
 66
1
 10
0.000000
 20
0.000000
 30
0.000000
 40
0.005000
 41
0.005000
 70
0
  0
VERTEX
  8
16
 10
0.692500
 20
0.670000
 30
0.000000
 42
1.000000
  0
VERTEX
  8
16
 10
0.687500
 20
0.670000
 30
0.000000
  0
SEQEND
  8
0
  0
POLYLINE
  8
16
 66
1
 10
0.000000
 20
0.000000
 30
0.000000
 40
0.005000
 41
0.005000
 70
0
  0
VERTEX
  8
16
 10
0.687500
 20
0.620000
 30
0.000000
 42
1.000000
  0
VERTEX
  8
16
 10
0.692500
 20
0.620000
 30
0.000000
  0
SEQEND
  8
0
  0
POLYLINE
  8
16
 66
1
 10
0.000000
 20
0.000000
 30
0.000000
 40
0.010000
 41
0.010000
 70
0
  0
VERTEX
  8
16
 10
0.690000
 20
0.670000
 30
0.000000
  0
VERTEX
  8
16
 10
0.660000
 20
0.700000
 30
0.000000
  0
SEQEND
  8
0
  0
POLYLINE
  8
16
 66
1
 10
0.000000
 20
0.000000
 30
0.000000
 40
0.005000
 41
0.005000
 70
0
  0
VERTEX
  8
16
 10
0.661768
 20
0.701768
 30
0.000000
 42
1.000000
  0
VERTEX
  8
16
 10
0.658232
 20
0.698232
 30
0.000000
  0
SEQEND
  8
0
  0
POLYLINE
  8
16
 66
1
 10
0.000000
 20
0.000000
 30
0.000000
 40
0.005000
 41
0.005000
 70
0
  0
VERTEX
  8
16
 10
0.688232
 20
0.668232
 30
0.000000
 42
1.000000
  0
VERTEX
  8
16
 10
0.691768
 20
0.671768
 30
0.000000
  0
SEQEND
  8
0
  0
POLYLINE
  8
16
 66
1
 10
0.000000
 20
0.000000
 30
0.000000
 40
0.010000
 41
0.010000
 70
0
  0
VERTEX
  8
16
 10
0.704000
 20
0.465000
 30
0.000000
  0
VERTEX
  8
16
 10
0.595000
 20
0.465000
 30
0.000000
  0
SEQEND
  8
0
  0
POLYLINE
  8
16
 66
1
 10
0.000000
 20
0.000000
 30
0.000000
 40
0.005000
 41
0.005000
 70
0
  0
VERTEX
  8
16
 10
0.595000
 20
0.467500
 30
0.000000
 42
1.000000
  0
VERTEX
  8
16
 10
0.595000
 20
0.462500
 30
0.000000
  0
SEQEND
  8
0
  0
POLYLINE
  8
16
 66
1
 10
0.000000
 20
0.000000
 30
0.000000
 40
0.005000
 41
0.005000
 70
0
  0
VERTEX
  8
16
 10
0.704000
 20
0.462500
 30
0.000000
 42
1.000000
  0
VERTEX
  8
16
 10
0.704000
 20
0.467500
 30
0.000000
  0
SEQEND
  8
0
  0
POLYLINE
  8
16
 66
1
 10
0.000000
 20
0.000000
 30
0.000000
 40
0.010000
 41
0.010000
 70
0
  0
VERTEX
  8
16
 10
0.595000
 20
0.465000
 30
0.000000
  0
VERTEX
  8
16
 10
0.580000
 20
0.450000
 30
0.000000
  0
SEQEND
  8
0
  0
POLYLINE
  8
16
 66
1
 10
0.000000
 20
0.000000
 30
0.000000
 40
0.005000
 41
0.005000
 70
0
  0
VERTEX
  8
16
 10
0.578232
 20
0.451768
 30
0.000000
 42
1.000000
  0
VERTEX
  8
16
 10
0.581768
 20
0.448232
 30
0.000000
  0
SEQEND
  8
0
  0
POLYLINE
  8
16
 66
1
 10
0.000000
 20
0.000000
 30
0.000000
 40
0.005000
 41
0.005000
 70
0
  0
VERTEX
  8
16
 10
0.596768
 20
0.463232
 30
0.000000
 42
1.000000
  0
VERTEX
  8
16
 10
0.593232
 20
0.466768
 30
0.000000
  0
SEQEND
  8
0
  0
POLYLINE
  8
16
 66
1
 10
0.000000
 20
0.000000
 30
0.000000
 40
0.010000
 41
0.010000
 70
0
  0
VERTEX
  8
16
 10
0.610000
 20
0.520000
 30
0.000000
  0
VERTEX
  8
16
 10
0.570000
 20
0.560000
 30
0.000000
  0
SEQEND
  8
0
  0
POLYLINE
  8
16
 66
1
 10
0.000000
 20
0.000000
 30
0.000000
 40
0.005000
 41
0.005000
 70
0
  0
VERTEX
  8
16
 10
0.571768
 20
0.561768
 30
0.000000
 42
1.000000
  0
VERTEX
  8
16
 10
0.568232
 20
0.558232
 30
0.000000
  0
SEQEND
  8
0
  0
POLYLINE
  8
16
 66
1
 10
0.000000
 20
0.000000
 30
0.000000
 40
0.005000
 41
0.005000
 70
0
  0
VERTEX
  8
16
 10
0.608232
 20
0.518232
 30
0.000000
 42
1.000000
  0
VERTEX
  8
16
 10
0.611768
 20
0.521768
 30
0.000000
  0
SEQEND
  8
0
  0
POLYLINE
  8
16
 66
1
 10
0.000000
 20
0.000000
 30
0.000000
 40
0.010000
 41
0.010000
 70
0
  0
VERTEX
  8
16
 10
0.660000
 20
0.080000
 30
0.000000
  0
VERTEX
  8
16
 10
0.870000
 20
0.080000
 30
0.000000
  0
SEQEND
  8
0
  0
POLYLINE
  8
16
 66
1
 10
0.000000
 20
0.000000
 30
0.000000
 40
0.005000
 41
0.005000
 70
0
  0
VERTEX
  8
16
 10
0.870000
 20
0.077500
 30
0.000000
 42
1.000000
  0
VERTEX
  8
16
 10
0.870000
 20
0.082500
 30
0.000000
  0
SEQEND
  8
0
  0
POLYLINE
  8
16
 66
1
 10
0.000000
 20
0.000000
 30
0.000000
 40
0.005000
 41
0.005000
 70
0
  0
VERTEX
  8
16
 10
0.660000
 20
0.082500
 30
0.000000
 42
1.000000
  0
VERTEX
  8
16
 10
0.660000
 20
0.077500
 30
0.000000
  0
SEQEND
  8
0
  0
POLYLINE
  8
16
 66
1
 10
0.000000
 20
0.000000
 30
0.000000
 40
0.010000
 41
0.010000
 70
0
  0
VERTEX
  8
16
 10
0.870000
 20
0.080000
 30
0.000000
  0
VERTEX
  8
16
 10
0.870000
 20
0.110000
 30
0.000000
  0
SEQEND
  8
0
  0
POLYLINE
  8
16
 66
1
 10
0.000000
 20
0.000000
 30
0.000000
 40
0.005000
 41
0.005000
 70
0
  0
VERTEX
  8
16
 10
0.872500
 20
0.110000
 30
0.000000
 42
1.000000
  0
VERTEX
  8
16
 10
0.867500
 20
0.110000
 30
0.000000
  0
SEQEND
  8
0
  0
POLYLINE
  8
16
 66
1
 10
0.000000
 20
0.000000
 30
0.000000
 40
0.005000
 41
0.005000
 70
0
  0
VERTEX
  8
16
 10
0.867500
 20
0.080000
 30
0.000000
 42
1.000000
  0
VERTEX
  8
16
 10
0.872500
 20
0.080000
 30
0.000000
  0
SEQEND
  8
0
  0
POLYLINE
  8
16
 66
1
 10
0.000000
 20
0.000000
 30
0.000000
 40
0.010000
 41
0.010000
 70
0
  0
VERTEX
  8
16
 10
0.870000
 20
0.110000
 30
0.000000
  0
VERTEX
  8
16
 10
0.740000
 20
0.240000
 30
0.000000
  0
SEQEND
  8
0
  0
POLYLINE
  8
16
 66
1
 10
0.000000
 20
0.000000
 30
0.000000
 40
0.005000
 41
0.005000
 70
0
  0
VERTEX
  8
16
 10
0.741768
 20
0.241768
 30
0.000000
 42
1.000000
  0
VERTEX
  8
16
 10
0.738232
 20
0.238232
 30
0.000000
  0
SEQEND
  8
0
  0
POLYLINE
  8
16
 66
1
 10
0.000000
 20
0.000000
 30
0.000000
 40
0.005000
 41
0.005000
 70
0
  0
VERTEX
  8
16
 10
0.868232
 20
0.108232
 30
0.000000
 42
1.000000
  0
VERTEX
  8
16
 10
0.871768
 20
0.111768
 30
0.000000
  0
SEQEND
  8
0
  0
POLYLINE
  8
16
 66
1
 10
0.000000
 20
0.000000
 30
0.000000
 40
0.010000
 41
0.010000
 70
0
  0
VERTEX
  8
16
 10
0.740000
 20
0.240000
 30
0.000000
  0
VERTEX
  8
16
 10
0.700000
 20
0.240000
 30
0.000000
  0
SEQEND
  8
0
  0
POLYLINE
  8
16
 66
1
 10
0.000000
 20
0.000000
 30
0.000000
 40
0.005000
 41
0.005000
 70
0
  0
VERTEX
  8
16
 10
0.700000
 20
0.242500
 30
0.000000
 42
1.000000
  0
VERTEX
  8
16
 10
0.700000
 20
0.237500
 30
0.000000
  0
SEQEND
  8
0
  0
POLYLINE
  8
16
 66
1
 10
0.000000
 20
0.000000
 30
0.000000
 40
0.005000
 41
0.005000
 70
0
  0
VERTEX
  8
16
 10
0.740000
 20
0.237500
 30
0.000000
 42
1.000000
  0
VERTEX
  8
16
 10
0.740000
 20
0.242500
 30
0.000000
  0
SEQEND
  8
0
  0
POLYLINE
  8
16
 66
1
 10
0.000000
 20
0.000000
 30
0.000000
 40
0.010000
 41
0.010000
 70
0
  0
VERTEX
  8
16
 10
0.700000
 20
0.240000
 30
0.000000
  0
VERTEX
  8
16
 10
0.650000
 20
0.190000
 30
0.000000
  0
SEQEND
  8
0
  0
POLYLINE
  8
16
 66
1
 10
0.000000
 20
0.000000
 30
0.000000
 40
0.005000
 41
0.005000
 70
0
  0
VERTEX
  8
16
 10
0.648232
 20
0.191768
 30
0.000000
 42
1.000000
  0
VERTEX
  8
16
 10
0.651768
 20
0.188232
 30
0.000000
  0
SEQEND
  8
0
  0
POLYLINE
  8
16
 66
1
 10
0.000000
 20
0.000000
 30
0.000000
 40
0.005000
 41
0.005000
 70
0
  0
VERTEX
  8
16
 10
0.701768
 20
0.238232
 30
0.000000
 42
1.000000
  0
VERTEX
  8
16
 10
0.698232
 20
0.241768
 30
0.000000
  0
SEQEND
  8
0
  0
POLYLINE
  8
16
 66
1
 10
0.000000
 20
0.000000
 30
0.000000
 40
0.010000
 41
0.010000
 70
0
  0
VERTEX
  8
16
 10
0.650000
 20
0.190000
 30
0.000000
  0
VERTEX
  8
16
 10
0.620000
 20
0.190000
 30
0.000000
  0
SEQEND
  8
0
  0
POLYLINE
  8
16
 66
1
 10
0.000000
 20
0.000000
 30
0.000000
 40
0.005000
 41
0.005000
 70
0
  0
VERTEX
  8
16
 10
0.620000
 20
0.192500
 30
0.000000
 42
1.000000
  0
VERTEX
  8
16
 10
0.620000
 20
0.187500
 30
0.000000
  0
SEQEND
  8
0
  0
POLYLINE
  8
16
 66
1
 10
0.000000
 20
0.000000
 30
0.000000
 40
0.005000
 41
0.005000
 70
0
  0
VERTEX
  8
16
 10
0.650000
 20
0.187500
 30
0.000000
 42
1.000000
  0
VERTEX
  8
16
 10
0.650000
 20
0.192500
 30
0.000000
  0
SEQEND
  8
0
  0
POLYLINE
  8
16
 66
1
 10
0.000000
 20
0.000000
 30
0.000000
 40
0.010000
 41
0.010000
 70
0
  0
VERTEX
  8
16
 10
0.620000
 20
0.190000
 30
0.000000
  0
VERTEX
  8
16
 10
0.480000
 20
0.330000
 30
0.000000
  0
SEQEND
  8
0
  0
POLYLINE
  8
16
 66
1
 10
0.000000
 20
0.000000
 30
0.000000
 40
0.005000
 41
0.005000
 70
0
  0
VERTEX
  8
16
 10
0.481768
 20
0.331768
 30
0.000000
 42
1.000000
  0
VERTEX
  8
16
 10
0.478232
 20
0.328232
 30
0.000000
  0
SEQEND
  8
0
  0
POLYLINE
  8
16
 66
1
 10
0.000000
 20
0.000000
 30
0.000000
 40
0.005000
 41
0.005000
 70
0
  0
VERTEX
  8
16
 10
0.618232
 20
0.188232
 30
0.000000
 42
1.000000
  0
VERTEX
  8
16
 10
0.621768
 20
0.191768
 30
0.000000
  0
SEQEND
  8
0
  0
POLYLINE
  8
16
 66
1
 10
0.000000
 20
0.000000
 30
0.000000
 40
0.010000
 41
0.010000
 70
0
  0
VERTEX
  8
16
 10
0.480000
 20
0.330000
 30
0.000000
  0
VERTEX
  8
16
 10
0.480000
 20
0.450000
 30
0.000000
  0
SEQEND
  8
0
  0
POLYLINE
  8
16
 66
1
 10
0.000000
 20
0.000000
 30
0.000000
 40
0.005000
 41
0.005000
 70
0
  0
VERTEX
  8
16
 10
0.482500
 20
0.450000
 30
0.000000
 42
1.000000
  0
VERTEX
  8
16
 10
0.477500
 20
0.450000
 30
0.000000
  0
SEQEND
  8
0
  0
POLYLINE
  8
16
 66
1
 10
0.000000
 20
0.000000
 30
0.000000
 40
0.005000
 41
0.005000
 70
0
  0
VERTEX
  8
16
 10
0.477500
 20
0.330000
 30
0.000000
 42
1.000000
  0
VERTEX
  8
16
 10
0.482500
 20
0.330000
 30
0.000000
  0
SEQEND
  8
0
  0
POLYLINE
  8
16
 66
1
 10
0.000000
 20
0.000000
 30
0.000000
 40
0.010000
 41
0.010000
 70
0
  0
VERTEX
  8
16
 10
0.480000
 20
0.450000
 30
0.000000
  0
VERTEX
  8
16
 10
0.400000
 20
0.450000
 30
0.000000
  0
SEQEND
  8
0
  0
POLYLINE
  8
16
 66
1
 10
0.000000
 20
0.000000
 30
0.000000
 40
0.005000
 41
0.005000
 70
0
  0
VERTEX
  8
16
 10
0.400000
 20
0.452500
 30
0.000000
 42
1.000000
  0
VERTEX
  8
16
 10
0.400000
 20
0.447500
 30
0.000000
  0
SEQEND
  8
0
  0
POLYLINE
  8
16
 66
1
 10
0.000000
 20
0.000000
 30
0.000000
 40
0.005000
 41
0.005000
 70
0
  0
VERTEX
  8
16
 10
0.480000
 20
0.447500
 30
0.000000
 42
1.000000
  0
VERTEX
  8
16
 10
0.480000
 20
0.452500
 30
0.000000
  0
SEQEND
  8
0
  0
POLYLINE
  8
16
 66
1
 10
0.000000
 20
0.000000
 30
0.000000
 40
0.010000
 41
0.010000
 70
0
  0
VERTEX
  8
16
 10
0.400000
 20
0.450000
 30
0.000000
  0
VERTEX
  8
16
 10
0.400000
 20
0.360000
 30
0.000000
  0
SEQEND
  8
0
  0
POLYLINE
  8
16
 66
1
 10
0.000000
 20
0.000000
 30
0.000000
 40
0.005000
 41
0.005000
 70
0
  0
VERTEX
  8
16
 10
0.397500
 20
0.360000
 30
0.000000
 42
1.000000
  0
VERTEX
  8
16
 10
0.402500
 20
0.360000
 30
0.000000
  0
SEQEND
  8
0
  0
POLYLINE
  8
16
 66
1
 10
0.000000
 20
0.000000
 30
0.000000
 40
0.005000
 41
0.005000
 70
0
  0
VERTEX
  8
16
 10
0.402500
 20
0.450000
 30
0.000000
 42
1.000000
  0
VERTEX
  8
16
 10
0.397500
 20
0.450000
 30
0.000000
  0
SEQEND
  8
0
  0
POLYLINE
  8
16
 66
1
 10
0.000000
 20
0.000000
 30
0.000000
 40
0.010000
 41
0.010000
 70
0
  0
VERTEX
  8
16
 10
0.400000
 20
0.360000
 30
0.000000
  0
VERTEX
  8
16
 10
0.660000
 20
0.100000
 30
0.000000
  0
SEQEND
  8
0
  0
POLYLINE
  8
16
 66
1
 10
0.000000
 20
0.000000
 30
0.000000
 40
0.005000
 41
0.005000
 70
0
  0
VERTEX
  8
16
 10
0.658232
 20
0.098232
 30
0.000000
 42
1.000000
  0
VERTEX
  8
16
 10
0.661768
 20
0.101768
 30
0.000000
  0
SEQEND
  8
0
  0
POLYLINE
  8
16
 66
1
 10
0.000000
 20
0.000000
 30
0.000000
 40
0.005000
 41
0.005000
 70
0
  0
VERTEX
  8
16
 10
0.401768
 20
0.361768
 30
0.000000
 42
1.000000
  0
VERTEX
  8
16
 10
0.398232
 20
0.358232
 30
0.000000
  0
SEQEND
  8
0
  0
POLYLINE
  8
16
 66
1
 10
0.000000
 20
0.000000
 30
0.000000
 40
0.010000
 41
0.010000
 70
0
  0
VERTEX
  8
16
 10
0.660000
 20
0.100000
 30
0.000000
  0
VERTEX
  8
16
 10
0.660000
 20
0.080000
 30
0.000000
  0
SEQEND
  8
0
  0
POLYLINE
  8
16
 66
1
 10
0.000000
 20
0.000000
 30
0.000000
 40
0.005000
 41
0.005000
 70
0
  0
VERTEX
  8
16
 10
0.657500
 20
0.080000
 30
0.000000
 42
1.000000
  0
VERTEX
  8
16
 10
0.662500
 20
0.080000
 30
0.000000
  0
SEQEND
  8
0
  0
POLYLINE
  8
16
 66
1
 10
0.000000
 20
0.000000
 30
0.000000
 40
0.005000
 41
0.005000
 70
0
  0
VERTEX
  8
16
 10
0.662500
 20
0.100000
 30
0.000000
 42
1.000000
  0
VERTEX
  8
16
 10
0.657500
 20
0.100000
 30
0.000000
  0
SEQEND
  8
0
  0
POLYLINE
  8
16
 66
1
 10
0.000000
 20
0.000000
 30
0.000000
 40
0.010000
 41
0.010000
 70
0
  0
VERTEX
  8
16
 10
0.720000
 20
0.214646
 30
0.000000
  0
VERTEX
  8
16
 10
0.704646
 20
0.210000
 30
0.000000
  0
SEQEND
  8
0
  0
POLYLINE
  8
16
 66
1
 10
0.000000
 20
0.000000
 30
0.000000
 40
0.005000
 41
0.005000
 70
0
  0
VERTEX
  8
16
 10
0.703922
 20
0.212393
 30
0.000000
 42
1.000000
  0
VERTEX
  8
16
 10
0.705370
 20
0.207607
 30
0.000000
  0
SEQEND
  8
0
  0
POLYLINE
  8
16
 66
1
 10
0.000000
 20
0.000000
 30
0.000000
 40
0.005000
 41
0.005000
 70
0
  0
VERTEX
  8
16
 10
0.720724
 20
0.212253
 30
0.000000
 42
1.000000
  0
VERTEX
  8
16
 10
0.719276
 20
0.217039
 30
0.000000
  0
SEQEND
  8
0
  0
POLYLINE
  8
16
 66
1
 10
0.000000
 20
0.000000
 30
0.000000
 40
0.010000
 41
0.010000
 70
0
  0
VERTEX
  8
16
 10
0.380000
 20
0.150000
 30
0.000000
  0
VERTEX
  8
16
 10
0.410000
 20
0.150000
 30
0.000000
  0
SEQEND
  8
0
  0
POLYLINE
  8
16
 66
1
 10
0.000000
 20
0.000000
 30
0.000000
 40
0.005000
 41
0.005000
 70
0
  0
VERTEX
  8
16
 10
0.410000
 20
0.147500
 30
0.000000
 42
1.000000
  0
VERTEX
  8
16
 10
0.410000
 20
0.152500
 30
0.000000
  0
SEQEND
  8
0
  0
POLYLINE
  8
16
 66
1
 10
0.000000
 20
0.000000
 30
0.000000
 40
0.005000
 41
0.005000
 70
0
  0
VERTEX
  8
16
 10
0.380000
 20
0.152500
 30
0.000000
 42
1.000000
  0
VERTEX
  8
16
 10
0.380000
 20
0.147500
 30
0.000000
  0
SEQEND
  8
0
  0
POLYLINE
  8
16
 66
1
 10
0.000000
 20
0.000000
 30
0.000000
 40
0.010000
 41
0.010000
 70
0
  0
VERTEX
  8
16
 10
0.410000
 20
0.150000
 30
0.000000
  0
VERTEX
  8
16
 10
0.450000
 20
0.110000
 30
0.000000
  0
SEQEND
  8
0
  0
POLYLINE
  8
16
 66
1
 10
0.000000
 20
0.000000
 30
0.000000
 40
0.005000
 41
0.005000
 70
0
  0
VERTEX
  8
16
 10
0.448232
 20
0.108232
 30
0.000000
 42
1.000000
  0
VERTEX
  8
16
 10
0.451768
 20
0.111768
 30
0.000000
  0
SEQEND
  8
0
  0
POLYLINE
  8
16
 66
1
 10
0.000000
 20
0.000000
 30
0.000000
 40
0.005000
 41
0.005000
 70
0
  0
VERTEX
  8
16
 10
0.411768
 20
0.151768
 30
0.000000
 42
1.000000
  0
VERTEX
  8
16
 10
0.408232
 20
0.148232
 30
0.000000
  0
SEQEND
  8
0
  0
POLYLINE
  8
16
 66
1
 10
0.000000
 20
0.000000
 30
0.000000
 40
0.010000
 41
0.010000
 70
0
  0
VERTEX
  8
16
 10
0.450000
 20
0.110000
 30
0.000000
  0
VERTEX
  8
16
 10
0.450000
 20
0.080000
 30
0.000000
  0
SEQEND
  8
0
  0
POLYLINE
  8
16
 66
1
 10
0.000000
 20
0.000000
 30
0.000000
 40
0.005000
 41
0.005000
 70
0
  0
VERTEX
  8
16
 10
0.447500
 20
0.080000
 30
0.000000
 42
1.000000
  0
VERTEX
  8
16
 10
0.452500
 20
0.080000
 30
0.000000
  0
SEQEND
  8
0
  0
POLYLINE
  8
16
 66
1
 10
0.000000
 20
0.000000
 30
0.000000
 40
0.005000
 41
0.005000
 70
0
  0
VERTEX
  8
16
 10
0.452500
 20
0.110000
 30
0.000000
 42
1.000000
  0
VERTEX
  8
16
 10
0.447500
 20
0.110000
 30
0.000000
  0
SEQEND
  8
0
  0
POLYLINE
  8
16
 66
1
 10
0.000000
 20
0.000000
 30
0.000000
 40
0.010000
 41
0.010000
 70
0
  0
VERTEX
  8
16
 10
0.450000
 20
0.080000
 30
0.000000
  0
VERTEX
  8
16
 10
0.650000
 20
0.080000
 30
0.000000
  0
SEQEND
  8
0
  0
POLYLINE
  8
16
 66
1
 10
0.000000
 20
0.000000
 30
0.000000
 40
0.005000
 41
0.005000
 70
0
  0
VERTEX
  8
16
 10
0.650000
 20
0.077500
 30
0.000000
 42
1.000000
  0
VERTEX
  8
16
 10
0.650000
 20
0.082500
 30
0.000000
  0
SEQEND
  8
0
  0
POLYLINE
  8
16
 66
1
 10
0.000000
 20
0.000000
 30
0.000000
 40
0.005000
 41
0.005000
 70
0
  0
VERTEX
  8
16
 10
0.450000
 20
0.082500
 30
0.000000
 42
1.000000
  0
VERTEX
  8
16
 10
0.450000
 20
0.077500
 30
0.000000
  0
SEQEND
  8
0
  0
POLYLINE
  8
16
 66
1
 10
0.000000
 20
0.000000
 30
0.000000
 40
0.010000
 41
0.010000
 70
0
  0
VERTEX
  8
16
 10
0.650000
 20
0.080000
 30
0.000000
  0
VERTEX
  8
16
 10
0.650000
 20
0.100000
 30
0.000000
  0
SEQEND
  8
0
  0
POLYLINE
  8
16
 66
1
 10
0.000000
 20
0.000000
 30
0.000000
 40
0.005000
 41
0.005000
 70
0
  0
VERTEX
  8
16
 10
0.652500
 20
0.100000
 30
0.000000
 42
1.000000
  0
VERTEX
  8
16
 10
0.647500
 20
0.100000
 30
0.000000
  0
SEQEND
  8
0
  0
POLYLINE
  8
16
 66
1
 10
0.000000
 20
0.000000
 30
0.000000
 40
0.005000
 41
0.005000
 70
0
  0
VERTEX
  8
16
 10
0.647500
 20
0.080000
 30
0.000000
 42
1.000000
  0
VERTEX
  8
16
 10
0.652500
 20
0.080000
 30
0.000000
  0
SEQEND
  8
0
  0
POLYLINE
  8
16
 66
1
 10
0.000000
 20
0.000000
 30
0.000000
 40
0.010000
 41
0.010000
 70
0
  0
VERTEX
  8
16
 10
0.650000
 20
0.100000
 30
0.000000
  0
VERTEX
  8
16
 10
0.510000
 20
0.240000
 30
0.000000
  0
SEQEND
  8
0
  0
POLYLINE
  8
16
 66
1
 10
0.000000
 20
0.000000
 30
0.000000
 40
0.005000
 41
0.005000
 70
0
  0
VERTEX
  8
16
 10
0.511768
 20
0.241768
 30
0.000000
 42
1.000000
  0
VERTEX
  8
16
 10
0.508232
 20
0.238232
 30
0.000000
  0
SEQEND
  8
0
  0
POLYLINE
  8
16
 66
1
 10
0.000000
 20
0.000000
 30
0.000000
 40
0.005000
 41
0.005000
 70
0
  0
VERTEX
  8
16
 10
0.648232
 20
0.098232
 30
0.000000
 42
1.000000
  0
VERTEX
  8
16
 10
0.651768
 20
0.101768
 30
0.000000
  0
SEQEND
  8
0
  0
POLYLINE
  8
16
 66
1
 10
0.000000
 20
0.000000
 30
0.000000
 40
0.010000
 41
0.010000
 70
0
  0
VERTEX
  8
16
 10
0.510000
 20
0.240000
 30
0.000000
  0
VERTEX
  8
16
 10
0.480000
 20
0.240000
 30
0.000000
  0
SEQEND
  8
0
  0
POLYLINE
  8
16
 66
1
 10
0.000000
 20
0.000000
 30
0.000000
 40
0.005000
 41
0.005000
 70
0
  0
VERTEX
  8
16
 10
0.480000
 20
0.242500
 30
0.000000
 42
1.000000
  0
VERTEX
  8
16
 10
0.480000
 20
0.237500
 30
0.000000
  0
SEQEND
  8
0
  0
POLYLINE
  8
16
 66
1
 10
0.000000
 20
0.000000
 30
0.000000
 40
0.005000
 41
0.005000
 70
0
  0
VERTEX
  8
16
 10
0.510000
 20
0.237500
 30
0.000000
 42
1.000000
  0
VERTEX
  8
16
 10
0.510000
 20
0.242500
 30
0.000000
  0
SEQEND
  8
0
  0
POLYLINE
  8
16
 66
1
 10
0.000000
 20
0.000000
 30
0.000000
 40
0.010000
 41
0.010000
 70
0
  0
VERTEX
  8
16
 10
0.480000
 20
0.240000
 30
0.000000
  0
VERTEX
  8
16
 10
0.440000
 20
0.200000
 30
0.000000
  0
SEQEND
  8
0
  0
POLYLINE
  8
16
 66
1
 10
0.000000
 20
0.000000
 30
0.000000
 40
0.005000
 41
0.005000
 70
0
  0
VERTEX
  8
16
 10
0.438232
 20
0.201768
 30
0.000000
 42
1.000000
  0
VERTEX
  8
16
 10
0.441768
 20
0.198232
 30
0.000000
  0
SEQEND
  8
0
  0
POLYLINE
  8
16
 66
1
 10
0.000000
 20
0.000000
 30
0.000000
 40
0.005000
 41
0.005000
 70
0
  0
VERTEX
  8
16
 10
0.481768
 20
0.238232
 30
0.000000
 42
1.000000
  0
VERTEX
  8
16
 10
0.478232
 20
0.241768
 30
0.000000
  0
SEQEND
  8
0
  0
POLYLINE
  8
16
 66
1
 10
0.000000
 20
0.000000
 30
0.000000
 40
0.010000
 41
0.010000
 70
0
  0
VERTEX
  8
16
 10
0.440000
 20
0.200000
 30
0.000000
  0
VERTEX
  8
16
 10
0.380000
 20
0.200000
 30
0.000000
  0
SEQEND
  8
0
  0
POLYLINE
  8
16
 66
1
 10
0.000000
 20
0.000000
 30
0.000000
 40
0.005000
 41
0.005000
 70
0
  0
VERTEX
  8
16
 10
0.380000
 20
0.202500
 30
0.000000
 42
1.000000
  0
VERTEX
  8
16
 10
0.380000
 20
0.197500
 30
0.000000
  0
SEQEND
  8
0
  0
POLYLINE
  8
16
 66
1
 10
0.000000
 20
0.000000
 30
0.000000
 40
0.005000
 41
0.005000
 70
0
  0
VERTEX
  8
16
 10
0.440000
 20
0.197500
 30
0.000000
 42
1.000000
  0
VERTEX
  8
16
 10
0.440000
 20
0.202500
 30
0.000000
  0
SEQEND
  8
0
  0
POLYLINE
  8
16
 66
1
 10
0.000000
 20
0.000000
 30
0.000000
 40
0.010000
 41
0.010000
 70
0
  0
VERTEX
  8
16
 10
0.380000
 20
0.200000
 30
0.000000
  0
VERTEX
  8
16
 10
0.380000
 20
0.150000
 30
0.000000
  0
SEQEND
  8
0
  0
POLYLINE
  8
16
 66
1
 10
0.000000
 20
0.000000
 30
0.000000
 40
0.005000
 41
0.005000
 70
0
  0
VERTEX
  8
16
 10
0.377500
 20
0.150000
 30
0.000000
 42
1.000000
  0
VERTEX
  8
16
 10
0.382500
 20
0.150000
 30
0.000000
  0
SEQEND
  8
0
  0
POLYLINE
  8
16
 66
1
 10
0.000000
 20
0.000000
 30
0.000000
 40
0.005000
 41
0.005000
 70
0
  0
VERTEX
  8
16
 10
0.382500
 20
0.200000
 30
0.000000
 42
1.000000
  0
VERTEX
  8
16
 10
0.377500
 20
0.200000
 30
0.000000
  0
SEQEND
  8
0
  0
POLYLINE
  8
16
 66
1
 10
0.000000
 20
0.000000
 30
0.000000
 40
0.010000
 41
0.010000
 70
0
  0
VERTEX
  8
16
 10
0.900000
 20
0.250000
 30
0.000000
  0
VERTEX
  8
16
 10
0.900000
 20
0.470000
 30
0.000000
  0
SEQEND
  8
0
  0
POLYLINE
  8
16
 66
1
 10
0.000000
 20
0.000000
 30
0.000000
 40
0.005000
 41
0.005000
 70
0
  0
VERTEX
  8
16
 10
0.902500
 20
0.470000
 30
0.000000
 42
1.000000
  0
VERTEX
  8
16
 10
0.897500
 20
0.470000
 30
0.000000
  0
SEQEND
  8
0
  0
POLYLINE
  8
16
 66
1
 10
0.000000
 20
0.000000
 30
0.000000
 40
0.005000
 41
0.005000
 70
0
  0
VERTEX
  8
16
 10
0.897500
 20
0.250000
 30
0.000000
 42
1.000000
  0
VERTEX
  8
16
 10
0.902500
 20
0.250000
 30
0.000000
  0
SEQEND
  8
0
  0
POLYLINE
  8
16
 66
1
 10
0.000000
 20
0.000000
 30
0.000000
 40
0.010000
 41
0.010000
 70
0
  0
VERTEX
  8
16
 10
0.900000
 20
0.470000
 30
0.000000
  0
VERTEX
  8
16
 10
0.830000
 20
0.540000
 30
0.000000
  0
SEQEND
  8
0
  0
POLYLINE
  8
16
 66
1
 10
0.000000
 20
0.000000
 30
0.000000
 40
0.005000
 41
0.005000
 70
0
  0
VERTEX
  8
16
 10
0.831768
 20
0.541768
 30
0.000000
 42
1.000000
  0
VERTEX
  8
16
 10
0.828232
 20
0.538232
 30
0.000000
  0
SEQEND
  8
0
  0
POLYLINE
  8
16
 66
1
 10
0.000000
 20
0.000000
 30
0.000000
 40
0.005000
 41
0.005000
 70
0
  0
VERTEX
  8
16
 10
0.898232
 20
0.468232
 30
0.000000
 42
1.000000
  0
VERTEX
  8
16
 10
0.901768
 20
0.471768
 30
0.000000
  0
SEQEND
  8
0
  0
POLYLINE
  8
16
 66
1
 10
0.000000
 20
0.000000
 30
0.000000
 40
0.010000
 41
0.010000
 70
0
  0
VERTEX
  8
16
 10
0.830000
 20
0.540000
 30
0.000000
  0
VERTEX
  8
16
 10
0.740000
 20
0.540000
 30
0.000000
  0
SEQEND
  8
0
  0
POLYLINE
  8
16
 66
1
 10
0.000000
 20
0.000000
 30
0.000000
 40
0.005000
 41
0.005000
 70
0
  0
VERTEX
  8
16
 10
0.740000
 20
0.542500
 30
0.000000
 42
1.000000
  0
VERTEX
  8
16
 10
0.740000
 20
0.537500
 30
0.000000
  0
SEQEND
  8
0
  0
POLYLINE
  8
16
 66
1
 10
0.000000
 20
0.000000
 30
0.000000
 40
0.005000
 41
0.005000
 70
0
  0
VERTEX
  8
16
 10
0.830000
 20
0.537500
 30
0.000000
 42
1.000000
  0
VERTEX
  8
16
 10
0.830000
 20
0.542500
 30
0.000000
  0
SEQEND
  8
0
  0
POLYLINE
  8
16
 66
1
 10
0.000000
 20
0.000000
 30
0.000000
 40
0.010000
 41
0.010000
 70
0
  0
VERTEX
  8
16
 10
0.740000
 20
0.540000
 30
0.000000
  0
VERTEX
  8
16
 10
0.660000
 20
0.620000
 30
0.000000
  0
SEQEND
  8
0
  0
POLYLINE
  8
16
 66
1
 10
0.000000
 20
0.000000
 30
0.000000
 40
0.005000
 41
0.005000
 70
0
  0
VERTEX
  8
16
 10
0.661768
 20
0.621768
 30
0.000000
 42
1.000000
  0
VERTEX
  8
16
 10
0.658232
 20
0.618232
 30
0.000000
  0
SEQEND
  8
0
  0
POLYLINE
  8
16
 66
1
 10
0.000000
 20
0.000000
 30
0.000000
 40
0.005000
 41
0.005000
 70
0
  0
VERTEX
  8
16
 10
0.738232
 20
0.538232
 30
0.000000
 42
1.000000
  0
VERTEX
  8
16
 10
0.741768
 20
0.541768
 30
0.000000
  0
SEQEND
  8
0
  0
POLYLINE
  8
16
 66
1
 10
0.000000
 20
0.000000
 30
0.000000
 40
0.010000
 41
0.010000
 70
0
  0
VERTEX
  8
16
 10
0.660000
 20
0.620000
 30
0.000000
  0
VERTEX
  8
16
 10
0.660000
 20
0.660000
 30
0.000000
  0
SEQEND
  8
0
  0
POLYLINE
  8
16
 66
1
 10
0.000000
 20
0.000000
 30
0.000000
 40
0.005000
 41
0.005000
 70
0
  0
VERTEX
  8
16
 10
0.662500
 20
0.660000
 30
0.000000
 42
1.000000
  0
VERTEX
  8
16
 10
0.657500
 20
0.660000
 30
0.000000
  0
SEQEND
  8
0
  0
POLYLINE
  8
16
 66
1
 10
0.000000
 20
0.000000
 30
0.000000
 40
0.005000
 41
0.005000
 70
0
  0
VERTEX
  8
16
 10
0.657500
 20
0.620000
 30
0.000000
 42
1.000000
  0
VERTEX
  8
16
 10
0.662500
 20
0.620000
 30
0.000000
  0
SEQEND
  8
0
  0
POLYLINE
  8
16
 66
1
 10
0.000000
 20
0.000000
 30
0.000000
 40
0.010000
 41
0.010000
 70
0
  0
VERTEX
  8
16
 10
0.900000
 20
0.250000
 30
0.000000
  0
VERTEX
  8
16
 10
0.950000
 20
0.200000
 30
0.000000
  0
SEQEND
  8
0
  0
POLYLINE
  8
16
 66
1
 10
0.000000
 20
0.000000
 30
0.000000
 40
0.005000
 41
0.005000
 70
0
  0
VERTEX
  8
16
 10
0.948232
 20
0.198232
 30
0.000000
 42
1.000000
  0
VERTEX
  8
16
 10
0.951768
 20
0.201768
 30
0.000000
  0
SEQEND
  8
0
  0
POLYLINE
  8
16
 66
1
 10
0.000000
 20
0.000000
 30
0.000000
 40
0.005000
 41
0.005000
 70
0
  0
VERTEX
  8
16
 10
0.901768
 20
0.251768
 30
0.000000
 42
1.000000
  0
VERTEX
  8
16
 10
0.898232
 20
0.248232
 30
0.000000
  0
SEQEND
  8
0
  0
POLYLINE
  8
16
 66
1
 10
0.000000
 20
0.000000
 30
0.000000
 40
0.010000
 41
0.010000
 70
0
  0
VERTEX
  8
16
 10
0.880000
 20
0.190000
 30
0.000000
  0
VERTEX
  8
16
 10
0.880000
 20
0.460000
 30
0.000000
  0
SEQEND
  8
0
  0
POLYLINE
  8
16
 66
1
 10
0.000000
 20
0.000000
 30
0.000000
 40
0.005000
 41
0.005000
 70
0
  0
VERTEX
  8
16
 10
0.882500
 20
0.460000
 30
0.000000
 42
1.000000
  0
VERTEX
  8
16
 10
0.877500
 20
0.460000
 30
0.000000
  0
SEQEND
  8
0
  0
POLYLINE
  8
16
 66
1
 10
0.000000
 20
0.000000
 30
0.000000
 40
0.005000
 41
0.005000
 70
0
  0
VERTEX
  8
16
 10
0.877500
 20
0.190000
 30
0.000000
 42
1.000000
  0
VERTEX
  8
16
 10
0.882500
 20
0.190000
 30
0.000000
  0
SEQEND
  8
0
  0
POLYLINE
  8
16
 66
1
 10
0.000000
 20
0.000000
 30
0.000000
 40
0.010000
 41
0.010000
 70
0
  0
VERTEX
  8
16
 10
0.880000
 20
0.460000
 30
0.000000
  0
VERTEX
  8
16
 10
0.820000
 20
0.520000
 30
0.000000
  0
SEQEND
  8
0
  0
POLYLINE
  8
16
 66
1
 10
0.000000
 20
0.000000
 30
0.000000
 40
0.005000
 41
0.005000
 70
0
  0
VERTEX
  8
16
 10
0.821768
 20
0.521768
 30
0.000000
 42
1.000000
  0
VERTEX
  8
16
 10
0.818232
 20
0.518232
 30
0.000000
  0
SEQEND
  8
0
  0
POLYLINE
  8
16
 66
1
 10
0.000000
 20
0.000000
 30
0.000000
 40
0.005000
 41
0.005000
 70
0
  0
VERTEX
  8
16
 10
0.878232
 20
0.458232
 30
0.000000
 42
1.000000
  0
VERTEX
  8
16
 10
0.881768
 20
0.461768
 30
0.000000
  0
SEQEND
  8
0
  0
POLYLINE
  8
16
 66
1
 10
0.000000
 20
0.000000
 30
0.000000
 40
0.010000
 41
0.010000
 70
0
  0
VERTEX
  8
16
 10
0.820000
 20
0.520000
 30
0.000000
  0
VERTEX
  8
16
 10
0.730000
 20
0.520000
 30
0.000000
  0
SEQEND
  8
0
  0
POLYLINE
  8
16
 66
1
 10
0.000000
 20
0.000000
 30
0.000000
 40
0.005000
 41
0.005000
 70
0
  0
VERTEX
  8
16
 10
0.730000
 20
0.522500
 30
0.000000
 42
1.000000
  0
VERTEX
  8
16
 10
0.730000
 20
0.517500
 30
0.000000
  0
SEQEND
  8
0
  0
POLYLINE
  8
16
 66
1
 10
0.000000
 20
0.000000
 30
0.000000
 40
0.005000
 41
0.005000
 70
0
  0
VERTEX
  8
16
 10
0.820000
 20
0.517500
 30
0.000000
 42
1.000000
  0
VERTEX
  8
16
 10
0.820000
 20
0.522500
 30
0.000000
  0
SEQEND
  8
0
  0
POLYLINE
  8
16
 66
1
 10
0.000000
 20
0.000000
 30
0.000000
 40
0.010000
 41
0.010000
 70
0
  0
VERTEX
  8
16
 10
0.880000
 20
0.190000
 30
0.000000
  0
VERTEX
  8
16
 10
0.920000
 20
0.150000
 30
0.000000
  0
SEQEND
  8
0
  0
POLYLINE
  8
16
 66
1
 10
0.000000
 20
0.000000
 30
0.000000
 40
0.005000
 41
0.005000
 70
0
  0
VERTEX
  8
16
 10
0.918232
 20
0.148232
 30
0.000000
 42
1.000000
  0
VERTEX
  8
16
 10
0.921768
 20
0.151768
 30
0.000000
  0
SEQEND
  8
0
  0
POLYLINE
  8
16
 66
1
 10
0.000000
 20
0.000000
 30
0.000000
 40
0.005000
 41
0.005000
 70
0
  0
VERTEX
  8
16
 10
0.881768
 20
0.191768
 30
0.000000
 42
1.000000
  0
VERTEX
  8
16
 10
0.878232
 20
0.188232
 30
0.000000
  0
SEQEND
  8
0
  0
POLYLINE
  8
16
 66
1
 10
0.000000
 20
0.000000
 30
0.000000
 40
0.010000
 41
0.010000
 70
0
  0
VERTEX
  8
16
 10
0.730000
 20
0.520000
 30
0.000000
  0
VERTEX
  8
16
 10
0.630000
 20
0.620000
 30
0.000000
  0
SEQEND
  8
0
  0
POLYLINE
  8
16
 66
1
 10
0.000000
 20
0.000000
 30
0.000000
 40
0.005000
 41
0.005000
 70
0
  0
VERTEX
  8
16
 10
0.631768
 20
0.621768
 30
0.000000
 42
1.000000
  0
VERTEX
  8
16
 10
0.628232
 20
0.618232
 30
0.000000
  0
SEQEND
  8
0
  0
POLYLINE
  8
16
 66
1
 10
0.000000
 20
0.000000
 30
0.000000
 40
0.005000
 41
0.005000
 70
0
  0
VERTEX
  8
16
 10
0.728232
 20
0.518232
 30
0.000000
 42
1.000000
  0
VERTEX
  8
16
 10
0.731768
 20
0.521768
 30
0.000000
  0
SEQEND
  8
0
  0
POLYLINE
  8
16
 66
1
 10
0.000000
 20
0.000000
 30
0.000000
 40
0.010000
 41
0.010000
 70
0
  0
VERTEX
  8
16
 10
0.630000
 20
0.620000
 30
0.000000
  0
VERTEX
  8
16
 10
0.630000
 20
0.630000
 30
0.000000
  0
SEQEND
  8
0
  0
POLYLINE
  8
16
 66
1
 10
0.000000
 20
0.000000
 30
0.000000
 40
0.005000
 41
0.005000
 70
0
  0
VERTEX
  8
16
 10
0.632500
 20
0.630000
 30
0.000000
 42
1.000000
  0
VERTEX
  8
16
 10
0.627500
 20
0.630000
 30
0.000000
  0
SEQEND
  8
0
  0
POLYLINE
  8
16
 66
1
 10
0.000000
 20
0.000000
 30
0.000000
 40
0.005000
 41
0.005000
 70
0
  0
VERTEX
  8
16
 10
0.627500
 20
0.620000
 30
0.000000
 42
1.000000
  0
VERTEX
  8
16
 10
0.632500
 20
0.620000
 30
0.000000
  0
SEQEND
  8
0
  0
POLYLINE
  8
16
 66
1
 10
0.000000
 20
0.000000
 30
0.000000
 40
0.010000
 41
0.010000
 70
0
  0
VERTEX
  8
16
 10
1.080000
 20
0.810000
 30
0.000000
  0
VERTEX
  8
16
 10
0.880000
 20
1.010000
 30
0.000000
  0
SEQEND
  8
0
  0
POLYLINE
  8
16
 66
1
 10
0.000000
 20
0.000000
 30
0.000000
 40
0.005000
 41
0.005000
 70
0
  0
VERTEX
  8
16
 10
0.881768
 20
1.011768
 30
0.000000
 42
1.000000
  0
VERTEX
  8
16
 10
0.878232
 20
1.008232
 30
0.000000
  0
SEQEND
  8
0
  0
POLYLINE
  8
16
 66
1
 10
0.000000
 20
0.000000
 30
0.000000
 40
0.005000
 41
0.005000
 70
0
  0
VERTEX
  8
16
 10
1.078232
 20
0.808232
 30
0.000000
 42
1.000000
  0
VERTEX
  8
16
 10
1.081768
 20
0.811768
 30
0.000000
  0
SEQEND
  8
0
  0
POLYLINE
  8
16
 66
1
 10
0.000000
 20
0.000000
 30
0.000000
 40
0.010000
 41
0.010000
 70
0
  0
VERTEX
  8
16
 10
0.980000
 20
0.550000
 30
0.000000
  0
VERTEX
  8
16
 10
1.080000
 20
0.650000
 30
0.000000
  0
SEQEND
  8
0
  0
POLYLINE
  8
16
 66
1
 10
0.000000
 20
0.000000
 30
0.000000
 40
0.005000
 41
0.005000
 70
0
  0
VERTEX
  8
16
 10
1.081768
 20
0.648232
 30
0.000000
 42
1.000000
  0
VERTEX
  8
16
 10
1.078232
 20
0.651768
 30
0.000000
  0
SEQEND
  8
0
  0
POLYLINE
  8
16
 66
1
 10
0.000000
 20
0.000000
 30
0.000000
 40
0.005000
 41
0.005000
 70
0
  0
VERTEX
  8
16
 10
0.978232
 20
0.551768
 30
0.000000
 42
1.000000
  0
VERTEX
  8
16
 10
0.981768
 20
0.548232
 30
0.000000
  0
SEQEND
  8
0
  0
POLYLINE
  8
16
 66
1
 10
0.000000
 20
0.000000
 30
0.000000
 40
0.010000
 41
0.010000
 70
0
  0
VERTEX
  8
16
 10
1.080000
 20
0.650000
 30
0.000000
  0
VERTEX
  8
16
 10
1.080000
 20
0.810000
 30
0.000000
  0
SEQEND
  8
0
  0
POLYLINE
  8
16
 66
1
 10
0.000000
 20
0.000000
 30
0.000000
 40
0.005000
 41
0.005000
 70
0
  0
VERTEX
  8
16
 10
1.082500
 20
0.810000
 30
0.000000
 42
1.000000
  0
VERTEX
  8
16
 10
1.077500
 20
0.810000
 30
0.000000
  0
SEQEND
  8
0
  0
POLYLINE
  8
16
 66
1
 10
0.000000
 20
0.000000
 30
0.000000
 40
0.005000
 41
0.005000
 70
0
  0
VERTEX
  8
16
 10
1.077500
 20
0.650000
 30
0.000000
 42
1.000000
  0
VERTEX
  8
16
 10
1.082500
 20
0.650000
 30
0.000000
  0
SEQEND
  8
0
  0
POLYLINE
  8
16
 66
1
 10
0.000000
 20
0.000000
 30
0.000000
 40
0.010000
 41
0.010000
 70
0
  0
VERTEX
  8
16
 10
0.190000
 20
1.030000
 30
0.000000
  0
VERTEX
  8
16
 10
0.143000
 20
0.983000
 30
0.000000
  0
SEQEND
  8
0
  0
POLYLINE
  8
16
 66
1
 10
0.000000
 20
0.000000
 30
0.000000
 40
0.005000
 41
0.005000
 70
0
  0
VERTEX
  8
16
 10
0.141232
 20
0.984768
 30
0.000000
 42
1.000000
  0
VERTEX
  8
16
 10
0.144768
 20
0.981232
 30
0.000000
  0
SEQEND
  8
0
  0
POLYLINE
  8
16
 66
1
 10
0.000000
 20
0.000000
 30
0.000000
 40
0.005000
 41
0.005000
 70
0
  0
VERTEX
  8
16
 10
0.191768
 20
1.028232
 30
0.000000
 42
1.000000
  0
VERTEX
  8
16
 10
0.188232
 20
1.031768
 30
0.000000
  0
SEQEND
  8
0
  0
POLYLINE
  8
16
 66
1
 10
0.000000
 20
0.000000
 30
0.000000
 40
0.010000
 41
0.010000
 70
0
  0
VERTEX
  8
16
 10
0.143000
 20
0.983000
 30
0.000000
  0
VERTEX
  8
16
 10
0.143000
 20
0.818000
 30
0.000000
  0
SEQEND
  8
0
  0
POLYLINE
  8
16
 66
1
 10
0.000000
 20
0.000000
 30
0.000000
 40
0.005000
 41
0.005000
 70
0
  0
VERTEX
  8
16
 10
0.140500
 20
0.818000
 30
0.000000
 42
1.000000
  0
VERTEX
  8
16
 10
0.145500
 20
0.818000
 30
0.000000
  0
SEQEND
  8
0
  0
POLYLINE
  8
16
 66
1
 10
0.000000
 20
0.000000
 30
0.000000
 40
0.005000
 41
0.005000
 70
0
  0
VERTEX
  8
16
 10
0.145500
 20
0.983000
 30
0.000000
 42
1.000000
  0
VERTEX
  8
16
 10
0.140500
 20
0.983000
 30
0.000000
  0
SEQEND
  8
0
  0
POLYLINE
  8
16
 66
1
 10
0.000000
 20
0.000000
 30
0.000000
 40
0.010000
 41
0.010000
 70
0
  0
VERTEX
  8
16
 10
1.010000
 20
0.370000
 30
0.000000
  0
VERTEX
  8
16
 10
0.980000
 20
0.400000
 30
0.000000
  0
SEQEND
  8
0
  0
POLYLINE
  8
16
 66
1
 10
0.000000
 20
0.000000
 30
0.000000
 40
0.005000
 41
0.005000
 70
0
  0
VERTEX
  8
16
 10
0.981768
 20
0.401768
 30
0.000000
 42
1.000000
  0
VERTEX
  8
16
 10
0.978232
 20
0.398232
 30
0.000000
  0
SEQEND
  8
0
  0
POLYLINE
  8
16
 66
1
 10
0.000000
 20
0.000000
 30
0.000000
 40
0.005000
 41
0.005000
 70
0
  0
VERTEX
  8
16
 10
1.008232
 20
0.368232
 30
0.000000
 42
1.000000
  0
VERTEX
  8
16
 10
1.011768
 20
0.371768
 30
0.000000
  0
SEQEND
  8
0
  0
POLYLINE
  8
16
 66
1
 10
0.000000
 20
0.000000
 30
0.000000
 40
0.010000
 41
0.010000
 70
0
  0
VERTEX
  8
16
 10
0.980000
 20
0.400000
 30
0.000000
  0
VERTEX
  8
16
 10
0.980000
 20
0.550000
 30
0.000000
  0
SEQEND
  8
0
  0
POLYLINE
  8
16
 66
1
 10
0.000000
 20
0.000000
 30
0.000000
 40
0.005000
 41
0.005000
 70
0
  0
VERTEX
  8
16
 10
0.982500
 20
0.550000
 30
0.000000
 42
1.000000
  0
VERTEX
  8
16
 10
0.977500
 20
0.550000
 30
0.000000
  0
SEQEND
  8
0
  0
POLYLINE
  8
16
 66
1
 10
0.000000
 20
0.000000
 30
0.000000
 40
0.005000
 41
0.005000
 70
0
  0
VERTEX
  8
16
 10
0.977500
 20
0.400000
 30
0.000000
 42
1.000000
  0
VERTEX
  8
16
 10
0.982500
 20
0.400000
 30
0.000000
  0
SEQEND
  8
0
  0
POLYLINE
  8
16
 66
1
 10
0.000000
 20
0.000000
 30
0.000000
 40
0.010000
 41
0.010000
 70
0
  0
VERTEX
  8
16
 10
1.010000
 20
0.370000
 30
0.000000
  0
VERTEX
  8
16
 10
1.010000
 20
0.343000
 30
0.000000
  0
SEQEND
  8
0
  0
POLYLINE
  8
16
 66
1
 10
0.000000
 20
0.000000
 30
0.000000
 40
0.005000
 41
0.005000
 70
0
  0
VERTEX
  8
16
 10
1.007500
 20
0.343000
 30
0.000000
 42
1.000000
  0
VERTEX
  8
16
 10
1.012500
 20
0.343000
 30
0.000000
  0
SEQEND
  8
0
  0
POLYLINE
  8
16
 66
1
 10
0.000000
 20
0.000000
 30
0.000000
 40
0.005000
 41
0.005000
 70
0
  0
VERTEX
  8
16
 10
1.012500
 20
0.370000
 30
0.000000
 42
1.000000
  0
VERTEX
  8
16
 10
1.007500
 20
0.370000
 30
0.000000
  0
SEQEND
  8
0
  0
POLYLINE
  8
16
 66
1
 10
0.000000
 20
0.000000
 30
0.000000
 40
0.010000
 41
0.010000
 70
0
  0
VERTEX
  8
16
 10
0.150000
 20
0.370000
 30
0.000000
  0
VERTEX
  8
16
 10
0.150000
 20
0.320000
 30
0.000000
  0
SEQEND
  8
0
  0
POLYLINE
  8
16
 66
1
 10
0.000000
 20
0.000000
 30
0.000000
 40
0.005000
 41
0.005000
 70
0
  0
VERTEX
  8
16
 10
0.147500
 20
0.320000
 30
0.000000
 42
1.000000
  0
VERTEX
  8
16
 10
0.152500
 20
0.320000
 30
0.000000
  0
SEQEND
  8
0
  0
POLYLINE
  8
16
 66
1
 10
0.000000
 20
0.000000
 30
0.000000
 40
0.005000
 41
0.005000
 70
0
  0
VERTEX
  8
16
 10
0.152500
 20
0.370000
 30
0.000000
 42
1.000000
  0
VERTEX
  8
16
 10
0.147500
 20
0.370000
 30
0.000000
  0
SEQEND
  8
0
  0
POLYLINE
  8
16
 66
1
 10
0.000000
 20
0.000000
 30
0.000000
 40
0.010000
 41
0.010000
 70
0
  0
VERTEX
  8
16
 10
0.150000
 20
0.320000
 30
0.000000
  0
VERTEX
  8
16
 10
0.220000
 20
0.250000
 30
0.000000
  0
SEQEND
  8
0
  0
POLYLINE
  8
16
 66
1
 10
0.000000
 20
0.000000
 30
0.000000
 40
0.005000
 41
0.005000
 70
0
  0
VERTEX
  8
16
 10
0.218232
 20
0.248232
 30
0.000000
 42
1.000000
  0
VERTEX
  8
16
 10
0.221768
 20
0.251768
 30
0.000000
  0
SEQEND
  8
0
  0
POLYLINE
  8
16
 66
1
 10
0.000000
 20
0.000000
 30
0.000000
 40
0.005000
 41
0.005000
 70
0
  0
VERTEX
  8
16
 10
0.151768
 20
0.321768
 30
0.000000
 42
1.000000
  0
VERTEX
  8
16
 10
0.148232
 20
0.318232
 30
0.000000
  0
SEQEND
  8
0
  0
POLYLINE
  8
16
 66
1
 10
0.000000
 20
0.000000
 30
0.000000
 40
0.010000
 41
0.010000
 70
0
  0
VERTEX
  8
16
 10
0.220000
 20
0.250000
 30
0.000000
  0
VERTEX
  8
16
 10
0.220000
 20
0.130000
 30
0.000000
  0
SEQEND
  8
0
  0
POLYLINE
  8
16
 66
1
 10
0.000000
 20
0.000000
 30
0.000000
 40
0.005000
 41
0.005000
 70
0
  0
VERTEX
  8
16
 10
0.217500
 20
0.130000
 30
0.000000
 42
1.000000
  0
VERTEX
  8
16
 10
0.222500
 20
0.130000
 30
0.000000
  0
SEQEND
  8
0
  0
POLYLINE
  8
16
 66
1
 10
0.000000
 20
0.000000
 30
0.000000
 40
0.005000
 41
0.005000
 70
0
  0
VERTEX
  8
16
 10
0.222500
 20
0.250000
 30
0.000000
 42
1.000000
  0
VERTEX
  8
16
 10
0.217500
 20
0.250000
 30
0.000000
  0
SEQEND
  8
0
  0
POLYLINE
  8
16
 66
1
 10
0.000000
 20
0.000000
 30
0.000000
 40
0.010000
 41
0.010000
 70
0
  0
VERTEX
  8
16
 10
0.220000
 20
0.130000
 30
0.000000
  0
VERTEX
  8
16
 10
0.350000
 20
0.000000
 30
0.000000
  0
SEQEND
  8
0
  0
POLYLINE
  8
16
 66
1
 10
0.000000
 20
0.000000
 30
0.000000
 40
0.005000
 41
0.005000
 70
0
  0
VERTEX
  8
16
 10
0.348232
 20
-0.001768
 30
0.000000
 42
1.000000
  0
VERTEX
  8
16
 10
0.351768
 20
0.001768
 30
0.000000
  0
SEQEND
  8
0
  0
POLYLINE
  8
16
 66
1
 10
0.000000
 20
0.000000
 30
0.000000
 40
0.005000
 41
0.005000
 70
0
  0
VERTEX
  8
16
 10
0.221768
 20
0.131768
 30
0.000000
 42
1.000000
  0
VERTEX
  8
16
 10
0.218232
 20
0.128232
 30
0.000000
  0
SEQEND
  8
0
  0
POLYLINE
  8
16
 66
1
 10
0.000000
 20
0.000000
 30
0.000000
 40
0.010000
 41
0.010000
 70
0
  0
VERTEX
  8
16
 10
0.350000
 20
0.000000
 30
0.000000
  0
VERTEX
  8
16
 10
0.970000
 20
0.000000
 30
0.000000
  0
SEQEND
  8
0
  0
POLYLINE
  8
16
 66
1
 10
0.000000
 20
0.000000
 30
0.000000
 40
0.005000
 41
0.005000
 70
0
  0
VERTEX
  8
16
 10
0.970000
 20
-0.002500
 30
0.000000
 42
1.000000
  0
VERTEX
  8
16
 10
0.970000
 20
0.002500
 30
0.000000
  0
SEQEND
  8
0
  0
POLYLINE
  8
16
 66
1
 10
0.000000
 20
0.000000
 30
0.000000
 40
0.005000
 41
0.005000
 70
0
  0
VERTEX
  8
16
 10
0.350000
 20
0.002500
 30
0.000000
 42
1.000000
  0
VERTEX
  8
16
 10
0.350000
 20
-0.002500
 30
0.000000
  0
SEQEND
  8
0
  0
POLYLINE
  8
16
 66
1
 10
0.000000
 20
0.000000
 30
0.000000
 40
0.010000
 41
0.010000
 70
0
  0
VERTEX
  8
16
 10
0.970000
 20
0.000000
 30
0.000000
  0
VERTEX
  8
16
 10
1.000000
 20
0.070000
 30
0.000000
  0
SEQEND
  8
0
  0
POLYLINE
  8
16
 66
1
 10
0.000000
 20
0.000000
 30
0.000000
 40
0.005000
 41
0.005000
 70
0
  0
VERTEX
  8
16
 10
1.002298
 20
0.069015
 30
0.000000
 42
1.000000
  0
VERTEX
  8
16
 10
0.997702
 20
0.070985
 30
0.000000
  0
SEQEND
  8
0
  0
POLYLINE
  8
16
 66
1
 10
0.000000
 20
0.000000
 30
0.000000
 40
0.005000
 41
0.005000
 70
0
  0
VERTEX
  8
16
 10
0.967702
 20
0.000985
 30
0.000000
 42
1.000000
  0
VERTEX
  8
16
 10
0.972298
 20
-0.000985
 30
0.000000
  0
SEQEND
  8
0
  0
POLYLINE
  8
16
 66
1
 10
0.000000
 20
0.000000
 30
0.000000
 40
0.010000
 41
0.010000
 70
0
  0
VERTEX
  8
16
 10
1.000000
 20
0.070000
 30
0.000000
  0
VERTEX
  8
16
 10
0.450000
 20
0.070000
 30
0.000000
  0
SEQEND
  8
0
  0
POLYLINE
  8
16
 66
1
 10
0.000000
 20
0.000000
 30
0.000000
 40
0.005000
 41
0.005000
 70
0
  0
VERTEX
  8
16
 10
0.450000
 20
0.072500
 30
0.000000
 42
1.000000
  0
VERTEX
  8
16
 10
0.450000
 20
0.067500
 30
0.000000
  0
SEQEND
  8
0
  0
POLYLINE
  8
16
 66
1
 10
0.000000
 20
0.000000
 30
0.000000
 40
0.005000
 41
0.005000
 70
0
  0
VERTEX
  8
16
 10
1.000000
 20
0.067500
 30
0.000000
 42
1.000000
  0
VERTEX
  8
16
 10
1.000000
 20
0.072500
 30
0.000000
  0
SEQEND
  8
0
  0
POLYLINE
  8
16
 66
1
 10
0.000000
 20
0.000000
 30
0.000000
 40
0.010000
 41
0.010000
 70
0
  0
VERTEX
  8
16
 10
0.450000
 20
0.070000
 30
0.000000
  0
VERTEX
  8
16
 10
0.450000
 20
0.050000
 30
0.000000
  0
SEQEND
  8
0
  0
POLYLINE
  8
16
 66
1
 10
0.000000
 20
0.000000
 30
0.000000
 40
0.005000
 41
0.005000
 70
0
  0
VERTEX
  8
16
 10
0.447500
 20
0.050000
 30
0.000000
 42
1.000000
  0
VERTEX
  8
16
 10
0.452500
 20
0.050000
 30
0.000000
  0
SEQEND
  8
0
  0
POLYLINE
  8
16
 66
1
 10
0.000000
 20
0.000000
 30
0.000000
 40
0.005000
 41
0.005000
 70
0
  0
VERTEX
  8
16
 10
0.452500
 20
0.070000
 30
0.000000
 42
1.000000
  0
VERTEX
  8
16
 10
0.447500
 20
0.070000
 30
0.000000
  0
SEQEND
  8
0
  0
POLYLINE
  8
16
 66
1
 10
0.000000
 20
0.000000
 30
0.000000
 40
0.010000
 41
0.010000
 70
0
  0
VERTEX
  8
16
 10
0.450000
 20
0.050000
 30
0.000000
  0
VERTEX
  8
16
 10
0.380000
 20
0.050000
 30
0.000000
  0
SEQEND
  8
0
  0
POLYLINE
  8
16
 66
1
 10
0.000000
 20
0.000000
 30
0.000000
 40
0.005000
 41
0.005000
 70
0
  0
VERTEX
  8
16
 10
0.380000
 20
0.052500
 30
0.000000
 42
1.000000
  0
VERTEX
  8
16
 10
0.380000
 20
0.047500
 30
0.000000
  0
SEQEND
  8
0
  0
POLYLINE
  8
16
 66
1
 10
0.000000
 20
0.000000
 30
0.000000
 40
0.005000
 41
0.005000
 70
0
  0
VERTEX
  8
16
 10
0.450000
 20
0.047500
 30
0.000000
 42
1.000000
  0
VERTEX
  8
16
 10
0.450000
 20
0.052500
 30
0.000000
  0
SEQEND
  8
0
  0
POLYLINE
  8
16
 66
1
 10
0.000000
 20
0.000000
 30
0.000000
 40
0.010000
 41
0.010000
 70
0
  0
VERTEX
  8
16
 10
0.380000
 20
0.050000
 30
0.000000
  0
VERTEX
  8
16
 10
0.300000
 20
0.130000
 30
0.000000
  0
SEQEND
  8
0
  0
POLYLINE
  8
16
 66
1
 10
0.000000
 20
0.000000
 30
0.000000
 40
0.005000
 41
0.005000
 70
0
  0
VERTEX
  8
16
 10
0.301768
 20
0.131768
 30
0.000000
 42
1.000000
  0
VERTEX
  8
16
 10
0.298232
 20
0.128232
 30
0.000000
  0
SEQEND
  8
0
  0
POLYLINE
  8
16
 66
1
 10
0.000000
 20
0.000000
 30
0.000000
 40
0.005000
 41
0.005000
 70
0
  0
VERTEX
  8
16
 10
0.378232
 20
0.048232
 30
0.000000
 42
1.000000
  0
VERTEX
  8
16
 10
0.381768
 20
0.051768
 30
0.000000
  0
SEQEND
  8
0
  0
POLYLINE
  8
16
 66
1
 10
0.000000
 20
0.000000
 30
0.000000
 40
0.010000
 41
0.010000
 70
0
  0
VERTEX
  8
16
 10
0.300000
 20
0.130000
 30
0.000000
  0
VERTEX
  8
16
 10
0.300000
 20
0.270000
 30
0.000000
  0
SEQEND
  8
0
  0
POLYLINE
  8
16
 66
1
 10
0.000000
 20
0.000000
 30
0.000000
 40
0.005000
 41
0.005000
 70
0
  0
VERTEX
  8
16
 10
0.302500
 20
0.270000
 30
0.000000
 42
1.000000
  0
VERTEX
  8
16
 10
0.297500
 20
0.270000
 30
0.000000
  0
SEQEND
  8
0
  0
POLYLINE
  8
16
 66
1
 10
0.000000
 20
0.000000
 30
0.000000
 40
0.005000
 41
0.005000
 70
0
  0
VERTEX
  8
16
 10
0.297500
 20
0.130000
 30
0.000000
 42
1.000000
  0
VERTEX
  8
16
 10
0.302500
 20
0.130000
 30
0.000000
  0
SEQEND
  8
0
  0
POLYLINE
  8
16
 66
1
 10
0.000000
 20
0.000000
 30
0.000000
 40
0.010000
 41
0.010000
 70
0
  0
VERTEX
  8
16
 10
0.300000
 20
0.270000
 30
0.000000
  0
VERTEX
  8
16
 10
0.200000
 20
0.370000
 30
0.000000
  0
SEQEND
  8
0
  0
POLYLINE
  8
16
 66
1
 10
0.000000
 20
0.000000
 30
0.000000
 40
0.005000
 41
0.005000
 70
0
  0
VERTEX
  8
16
 10
0.201768
 20
0.371768
 30
0.000000
 42
1.000000
  0
VERTEX
  8
16
 10
0.198232
 20
0.368232
 30
0.000000
  0
SEQEND
  8
0
  0
POLYLINE
  8
16
 66
1
 10
0.000000
 20
0.000000
 30
0.000000
 40
0.005000
 41
0.005000
 70
0
  0
VERTEX
  8
16
 10
0.298232
 20
0.268232
 30
0.000000
 42
1.000000
  0
VERTEX
  8
16
 10
0.301768
 20
0.271768
 30
0.000000
  0
SEQEND
  8
0
  0
POLYLINE
  8
16
 66
1
 10
0.000000
 20
0.000000
 30
0.000000
 40
0.010000
 41
0.010000
 70
0
  0
VERTEX
  8
16
 10
0.200000
 20
0.370000
 30
0.000000
  0
VERTEX
  8
16
 10
0.150000
 20
0.370000
 30
0.000000
  0
SEQEND
  8
0
  0
POLYLINE
  8
16
 66
1
 10
0.000000
 20
0.000000
 30
0.000000
 40
0.005000
 41
0.005000
 70
0
  0
VERTEX
  8
16
 10
0.150000
 20
0.372500
 30
0.000000
 42
1.000000
  0
VERTEX
  8
16
 10
0.150000
 20
0.367500
 30
0.000000
  0
SEQEND
  8
0
  0
POLYLINE
  8
16
 66
1
 10
0.000000
 20
0.000000
 30
0.000000
 40
0.005000
 41
0.005000
 70
0
  0
VERTEX
  8
16
 10
0.200000
 20
0.367500
 30
0.000000
 42
1.000000
  0
VERTEX
  8
16
 10
0.200000
 20
0.372500
 30
0.000000
  0
SEQEND
  8
0
  0
POLYLINE
  8
16
 66
1
 10
0.000000
 20
0.000000
 30
0.000000
 40
0.020000
 41
0.020000
 70
0
  0
VERTEX
  8
16
 10
0.830000
 20
0.045000
 30
0.000000
  0
VERTEX
  8
16
 10
0.720354
 20
0.045000
 30
0.000000
  0
SEQEND
  8
0
  0
POLYLINE
  8
16
 66
1
 10
0.000000
 20
0.000000
 30
0.000000
 40
0.010000
 41
0.010000
 70
0
  0
VERTEX
  8
16
 10
0.720354
 20
0.050000
 30
0.000000
 42
1.000000
  0
VERTEX
  8
16
 10
0.720354
 20
0.040000
 30
0.000000
  0
SEQEND
  8
0
  0
POLYLINE
  8
16
 66
1
 10
0.000000
 20
0.000000
 30
0.000000
 40
0.010000
 41
0.010000
 70
0
  0
VERTEX
  8
16
 10
0.830000
 20
0.040000
 30
0.000000
 42
1.000000
  0
VERTEX
  8
16
 10
0.830000
 20
0.050000
 30
0.000000
  0
SEQEND
  8
0
  0
POLYLINE
  8
16
 66
1
 10
0.000000
 20
0.000000
 30
0.000000
 40
0.020000
 41
0.020000
 70
0
  0
VERTEX
  8
16
 10
0.720354
 20
0.045000
 30
0.000000
  0
VERTEX
  8
16
 10
0.720000
 20
0.045354
 30
0.000000
  0
SEQEND
  8
0
  0
POLYLINE
  8
16
 66
1
 10
0.000000
 20
0.000000
 30
0.000000
 40
0.010000
 41
0.010000
 70
0
  0
VERTEX
  8
16
 10
0.723536
 20
0.048890
 30
0.000000
 42
1.000000
  0
VERTEX
  8
16
 10
0.716464
 20
0.041819
 30
0.000000
  0
SEQEND
  8
0
  0
POLYLINE
  8
16
 66
1
 10
0.000000
 20
0.000000
 30
0.000000
 40
0.010000
 41
0.010000
 70
0
  0
VERTEX
  8
16
 10
0.716819
 20
0.041464
 30
0.000000
 42
1.000000
  0
VERTEX
  8
16
 10
0.723890
 20
0.048536
 30
0.000000
  0
SEQEND
  8
0
  0
POLYLINE
  8
16
 66
1
 10
0.000000
 20
0.000000
 30
0.000000
 40
0.020000
 41
0.020000
 70
0
  0
VERTEX
  8
16
 10
0.610000
 20
0.045000
 30
0.000000
  0
VERTEX
  8
16
 10
0.719646
 20
0.045000
 30
0.000000
  0
SEQEND
  8
0
  0
POLYLINE
  8
16
 66
1
 10
0.000000
 20
0.000000
 30
0.000000
 40
0.010000
 41
0.010000
 70
0
  0
VERTEX
  8
16
 10
0.719646
 20
0.040000
 30
0.000000
 42
1.000000
  0
VERTEX
  8
16
 10
0.719646
 20
0.050000
 30
0.000000
  0
SEQEND
  8
0
  0
POLYLINE
  8
16
 66
1
 10
0.000000
 20
0.000000
 30
0.000000
 40
0.010000
 41
0.010000
 70
0
  0
VERTEX
  8
16
 10
0.610000
 20
0.050000
 30
0.000000
 42
1.000000
  0
VERTEX
  8
16
 10
0.610000
 20
0.040000
 30
0.000000
  0
SEQEND
  8
0
  0
POLYLINE
  8
16
 66
1
 10
0.000000
 20
0.000000
 30
0.000000
 40
0.020000
 41
0.020000
 70
0
  0
VERTEX
  8
16
 10
0.719646
 20
0.045000
 30
0.000000
  0
VERTEX
  8
16
 10
0.720000
 20
0.045354
 30
0.000000
  0
SEQEND
  8
0
  0
POLYLINE
  8
16
 66
1
 10
0.000000
 20
0.000000
 30
0.000000
 40
0.010000
 41
0.010000
 70
0
  0
VERTEX
  8
16
 10
0.723536
 20
0.041819
 30
0.000000
 42
1.000000
  0
VERTEX
  8
16
 10
0.716464
 20
0.048890
 30
0.000000
  0
SEQEND
  8
0
  0
POLYLINE
  8
16
 66
1
 10
0.000000
 20
0.000000
 30
0.000000
 40
0.010000
 41
0.010000
 70
0
  0
VERTEX
  8
16
 10
0.716110
 20
0.048536
 30
0.000000
 42
1.000000
  0
VERTEX
  8
16
 10
0.723181
 20
0.041464
 30
0.000000
  0
SEQEND
  8
0
  0
POLYLINE
  8
16
 66
1
 10
0.000000
 20
0.000000
 30
0.000000
 40
0.020000
 41
0.020000
 70
0
  0
VERTEX
  8
16
 10
0.610000
 20
0.045000
 30
0.000000
  0
VERTEX
  8
16
 10
0.500354
 20
0.045000
 30
0.000000
  0
SEQEND
  8
0
  0
POLYLINE
  8
16
 66
1
 10
0.000000
 20
0.000000
 30
0.000000
 40
0.010000
 41
0.010000
 70
0
  0
VERTEX
  8
16
 10
0.500354
 20
0.050000
 30
0.000000
 42
1.000000
  0
VERTEX
  8
16
 10
0.500354
 20
0.040000
 30
0.000000
  0
SEQEND
  8
0
  0
POLYLINE
  8
16
 66
1
 10
0.000000
 20
0.000000
 30
0.000000
 40
0.010000
 41
0.010000
 70
0
  0
VERTEX
  8
16
 10
0.610000
 20
0.040000
 30
0.000000
 42
1.000000
  0
VERTEX
  8
16
 10
0.610000
 20
0.050000
 30
0.000000
  0
SEQEND
  8
0
  0
POLYLINE
  8
16
 66
1
 10
0.000000
 20
0.000000
 30
0.000000
 40
0.020000
 41
0.020000
 70
0
  0
VERTEX
  8
16
 10
0.500354
 20
0.045000
 30
0.000000
  0
VERTEX
  8
16
 10
0.500000
 20
0.045354
 30
0.000000
  0
SEQEND
  8
0
  0
POLYLINE
  8
16
 66
1
 10
0.000000
 20
0.000000
 30
0.000000
 40
0.010000
 41
0.010000
 70
0
  0
VERTEX
  8
16
 10
0.503536
 20
0.048890
 30
0.000000
 42
1.000000
  0
VERTEX
  8
16
 10
0.496464
 20
0.041819
 30
0.000000
  0
SEQEND
  8
0
  0
POLYLINE
  8
16
 66
1
 10
0.000000
 20
0.000000
 30
0.000000
 40
0.010000
 41
0.010000
 70
0
  0
VERTEX
  8
16
 10
0.496819
 20
0.041464
 30
0.000000
 42
1.000000
  0
VERTEX
  8
16
 10
0.503890
 20
0.048536
 30
0.000000
  0
SEQEND
  8
0
  0
POLYLINE
  8
16
 66
1
 10
0.000000
 20
0.000000
 30
0.000000
 40
0.020000
 41
0.020000
 70
0
  0
VERTEX
  8
16
 10
0.940000
 20
0.050000
 30
0.000000
  0
VERTEX
  8
16
 10
0.890000
 20
0.050000
 30
0.000000
  0
SEQEND
  8
0
  0
POLYLINE
  8
16
 66
1
 10
0.000000
 20
0.000000
 30
0.000000
 40
0.010000
 41
0.010000
 70
0
  0
VERTEX
  8
16
 10
0.890000
 20
0.055000
 30
0.000000
 42
1.000000
  0
VERTEX
  8
16
 10
0.890000
 20
0.045000
 30
0.000000
  0
SEQEND
  8
0
  0
POLYLINE
  8
16
 66
1
 10
0.000000
 20
0.000000
 30
0.000000
 40
0.010000
 41
0.010000
 70
0
  0
VERTEX
  8
16
 10
0.940000
 20
0.045000
 30
0.000000
 42
1.000000
  0
VERTEX
  8
16
 10
0.940000
 20
0.055000
 30
0.000000
  0
SEQEND
  8
0
  0
POLYLINE
  8
16
 66
1
 10
0.000000
 20
0.000000
 30
0.000000
 40
0.020000
 41
0.020000
 70
0
  0
VERTEX
  8
16
 10
0.890000
 20
0.050000
 30
0.000000
  0
VERTEX
  8
16
 10
0.885000
 20
0.045000
 30
0.000000
  0
SEQEND
  8
0
  0
POLYLINE
  8
16
 66
1
 10
0.000000
 20
0.000000
 30
0.000000
 40
0.010000
 41
0.010000
 70
0
  0
VERTEX
  8
16
 10
0.881464
 20
0.048536
 30
0.000000
 42
1.000000
  0
VERTEX
  8
16
 10
0.888536
 20
0.041464
 30
0.000000
  0
SEQEND
  8
0
  0
POLYLINE
  8
16
 66
1
 10
0.000000
 20
0.000000
 30
0.000000
 40
0.010000
 41
0.010000
 70
0
  0
VERTEX
  8
16
 10
0.893536
 20
0.046464
 30
0.000000
 42
1.000000
  0
VERTEX
  8
16
 10
0.886464
 20
0.053536
 30
0.000000
  0
SEQEND
  8
0
  0
POLYLINE
  8
16
 66
1
 10
0.000000
 20
0.000000
 30
0.000000
 40
0.020000
 41
0.020000
 70
0
  0
VERTEX
  8
16
 10
0.885000
 20
0.045000
 30
0.000000
  0
VERTEX
  8
16
 10
0.830000
 20
0.045000
 30
0.000000
  0
SEQEND
  8
0
  0
POLYLINE
  8
16
 66
1
 10
0.000000
 20
0.000000
 30
0.000000
 40
0.010000
 41
0.010000
 70
0
  0
VERTEX
  8
16
 10
0.830000
 20
0.050000
 30
0.000000
 42
1.000000
  0
VERTEX
  8
16
 10
0.830000
 20
0.040000
 30
0.000000
  0
SEQEND
  8
0
  0
POLYLINE
  8
16
 66
1
 10
0.000000
 20
0.000000
 30
0.000000
 40
0.010000
 41
0.010000
 70
0
  0
VERTEX
  8
16
 10
0.885000
 20
0.040000
 30
0.000000
 42
1.000000
  0
VERTEX
  8
16
 10
0.885000
 20
0.050000
 30
0.000000
  0
SEQEND
  8
0
  0
POLYLINE
  8
16
 66
1
 10
0.000000
 20
0.000000
 30
0.000000
 40
0.010000
 41
0.010000
 70
0
  0
VERTEX
  8
16
 10
0.790000
 20
0.180000
 30
0.000000
  0
VERTEX
  8
16
 10
0.890000
 20
0.080000
 30
0.000000
  0
SEQEND
  8
0
  0
POLYLINE
  8
16
 66
1
 10
0.000000
 20
0.000000
 30
0.000000
 40
0.005000
 41
0.005000
 70
0
  0
VERTEX
  8
16
 10
0.888232
 20
0.078232
 30
0.000000
 42
1.000000
  0
VERTEX
  8
16
 10
0.891768
 20
0.081768
 30
0.000000
  0
SEQEND
  8
0
  0
POLYLINE
  8
16
 66
1
 10
0.000000
 20
0.000000
 30
0.000000
 40
0.005000
 41
0.005000
 70
0
  0
VERTEX
  8
16
 10
0.791768
 20
0.181768
 30
0.000000
 42
1.000000
  0
VERTEX
  8
16
 10
0.788232
 20
0.178232
 30
0.000000
  0
SEQEND
  8
0
  0
POLYLINE
  8
16
 66
1
 10
0.000000
 20
0.000000
 30
0.000000
 40
0.010000
 41
0.010000
 70
0
  0
VERTEX
  8
16
 10
0.890000
 20
0.080000
 30
0.000000
  0
VERTEX
  8
16
 10
0.890000
 20
0.050000
 30
0.000000
  0
SEQEND
  8
0
  0
POLYLINE
  8
16
 66
1
 10
0.000000
 20
0.000000
 30
0.000000
 40
0.005000
 41
0.005000
 70
0
  0
VERTEX
  8
16
 10
0.887500
 20
0.050000
 30
0.000000
 42
1.000000
  0
VERTEX
  8
16
 10
0.892500
 20
0.050000
 30
0.000000
  0
SEQEND
  8
0
  0
POLYLINE
  8
16
 66
1
 10
0.000000
 20
0.000000
 30
0.000000
 40
0.005000
 41
0.005000
 70
0
  0
VERTEX
  8
16
 10
0.892500
 20
0.080000
 30
0.000000
 42
1.000000
  0
VERTEX
  8
16
 10
0.887500
 20
0.080000
 30
0.000000
  0
SEQEND
  8
0
  0
POLYLINE
  8
16
 66
1
 10
0.000000
 20
0.000000
 30
0.000000
 40
0.010000
 41
0.010000
 70
0
  0
VERTEX
  8
16
 10
0.790000
 20
0.216535
 30
0.000000
  0
VERTEX
  8
16
 10
0.790000
 20
0.180000
 30
0.000000
  0
SEQEND
  8
0
  0
POLYLINE
  8
16
 66
1
 10
0.000000
 20
0.000000
 30
0.000000
 40
0.005000
 41
0.005000
 70
0
  0
VERTEX
  8
16
 10
0.787500
 20
0.180000
 30
0.000000
 42
1.000000
  0
VERTEX
  8
16
 10
0.792500
 20
0.180000
 30
0.000000
  0
SEQEND
  8
0
  0
POLYLINE
  8
16
 66
1
 10
0.000000
 20
0.000000
 30
0.000000
 40
0.005000
 41
0.005000
 70
0
  0
VERTEX
  8
16
 10
0.792500
 20
0.216535
 30
0.000000
 42
1.000000
  0
VERTEX
  8
16
 10
0.787500
 20
0.216535
 30
0.000000
  0
SEQEND
  8
0
  0
POLYLINE
  8
16
 66
1
 10
0.000000
 20
0.000000
 30
0.000000
 40
0.010000
 41
0.010000
 70
0
  0
VERTEX
  8
16
 10
0.178819
 20
0.352598
 30
0.000000
  0
VERTEX
  8
16
 10
0.210000
 20
0.321417
 30
0.000000
  0
SEQEND
  8
0
  0
POLYLINE
  8
16
 66
1
 10
0.000000
 20
0.000000
 30
0.000000
 40
0.005000
 41
0.005000
 70
0
  0
VERTEX
  8
16
 10
0.208232
 20
0.319650
 30
0.000000
 42
1.000000
  0
VERTEX
  8
16
 10
0.211768
 20
0.323185
 30
0.000000
  0
SEQEND
  8
0
  0
POLYLINE
  8
16
 66
1
 10
0.000000
 20
0.000000
 30
0.000000
 40
0.005000
 41
0.005000
 70
0
  0
VERTEX
  8
16
 10
0.180587
 20
0.354366
 30
0.000000
 42
1.000000
  0
VERTEX
  8
16
 10
0.177051
 20
0.350831
 30
0.000000
  0
SEQEND
  8
0
  0
POLYLINE
  8
16
 66
1
 10
0.000000
 20
0.000000
 30
0.000000
 40
0.010000
 41
0.010000
 70
0
  0
VERTEX
  8
16
 10
0.210000
 20
0.321417
 30
0.000000
  0
VERTEX
  8
16
 10
0.210000
 20
0.320000
 30
0.000000
  0
SEQEND
  8
0
  0
POLYLINE
  8
16
 66
1
 10
0.000000
 20
0.000000
 30
0.000000
 40
0.005000
 41
0.005000
 70
0
  0
VERTEX
  8
16
 10
0.207500
 20
0.320000
 30
0.000000
 42
1.000000
  0
VERTEX
  8
16
 10
0.212500
 20
0.320000
 30
0.000000
  0
SEQEND
  8
0
  0
POLYLINE
  8
16
 66
1
 10
0.000000
 20
0.000000
 30
0.000000
 40
0.005000
 41
0.005000
 70
0
  0
VERTEX
  8
16
 10
0.212500
 20
0.321417
 30
0.000000
 42
1.000000
  0
VERTEX
  8
16
 10
0.207500
 20
0.321417
 30
0.000000
  0
SEQEND
  8
0
  0
POLYLINE
  8
16
 66
1
 10
0.000000
 20
0.000000
 30
0.000000
 40
0.020000
 41
0.020000
 70
0
  0
VERTEX
  8
16
 10
0.240000
 20
0.403780
 30
0.000000
  0
VERTEX
  8
16
 10
0.240000
 20
0.450000
 30
0.000000
  0
SEQEND
  8
0
  0
POLYLINE
  8
16
 66
1
 10
0.000000
 20
0.000000
 30
0.000000
 40
0.010000
 41
0.010000
 70
0
  0
VERTEX
  8
16
 10
0.245000
 20
0.450000
 30
0.000000
 42
1.000000
  0
VERTEX
  8
16
 10
0.235000
 20
0.450000
 30
0.000000
  0
SEQEND
  8
0
  0
POLYLINE
  8
16
 66
1
 10
0.000000
 20
0.000000
 30
0.000000
 40
0.010000
 41
0.010000
 70
0
  0
VERTEX
  8
16
 10
0.235000
 20
0.403780
 30
0.000000
 42
1.000000
  0
VERTEX
  8
16
 10
0.245000
 20
0.403780
 30
0.000000
  0
SEQEND
  8
0
  0
POLYLINE
  8
16
 66
1
 10
0.000000
 20
0.000000
 30
0.000000
 40
0.020000
 41
0.020000
 70
0
  0
VERTEX
  8
16
 10
0.240000
 20
0.450000
 30
0.000000
  0
VERTEX
  8
16
 10
0.230000
 20
0.460000
 30
0.000000
  0
SEQEND
  8
0
  0
POLYLINE
  8
16
 66
1
 10
0.000000
 20
0.000000
 30
0.000000
 40
0.010000
 41
0.010000
 70
0
  0
VERTEX
  8
16
 10
0.233536
 20
0.463536
 30
0.000000
 42
1.000000
  0
VERTEX
  8
16
 10
0.226464
 20
0.456464
 30
0.000000
  0
SEQEND
  8
0
  0
POLYLINE
  8
16
 66
1
 10
0.000000
 20
0.000000
 30
0.000000
 40
0.010000
 41
0.010000
 70
0
  0
VERTEX
  8
16
 10
0.236464
 20
0.446464
 30
0.000000
 42
1.000000
  0
VERTEX
  8
16
 10
0.243536
 20
0.453536
 30
0.000000
  0
SEQEND
  8
0
  0
POLYLINE
  8
16
 66
1
 10
0.000000
 20
0.000000
 30
0.000000
 40
0.020000
 41
0.020000
 70
0
  0
VERTEX
  8
16
 10
0.230000
 20
0.460000
 30
0.000000
  0
VERTEX
  8
16
 10
0.080000
 20
0.610000
 30
0.000000
  0
SEQEND
  8
0
  0
POLYLINE
  8
16
 66
1
 10
0.000000
 20
0.000000
 30
0.000000
 40
0.010000
 41
0.010000
 70
0
  0
VERTEX
  8
16
 10
0.083536
 20
0.613536
 30
0.000000
 42
1.000000
  0
VERTEX
  8
16
 10
0.076464
 20
0.606464
 30
0.000000
  0
SEQEND
  8
0
  0
POLYLINE
  8
16
 66
1
 10
0.000000
 20
0.000000
 30
0.000000
 40
0.010000
 41
0.010000
 70
0
  0
VERTEX
  8
16
 10
0.226464
 20
0.456464
 30
0.000000
 42
1.000000
  0
VERTEX
  8
16
 10
0.233536
 20
0.463536
 30
0.000000
  0
SEQEND
  8
0
  0
POLYLINE
  8
16
 66
1
 10
0.000000
 20
0.000000
 30
0.000000
 40
0.010000
 41
0.010000
 70
0
  0
VERTEX
  8
16
 10
0.799000
 20
0.980500
 30
0.000000
  0
VERTEX
  8
16
 10
0.799500
 20
0.980500
 30
0.000000
  0
SEQEND
  8
0
  0
POLYLINE
  8
16
 66
1
 10
0.000000
 20
0.000000
 30
0.000000
 40
0.005000
 41
0.005000
 70
0
  0
VERTEX
  8
16
 10
0.799500
 20
0.978000
 30
0.000000
 42
1.000000
  0
VERTEX
  8
16
 10
0.799500
 20
0.983000
 30
0.000000
  0
SEQEND
  8
0
  0
POLYLINE
  8
16
 66
1
 10
0.000000
 20
0.000000
 30
0.000000
 40
0.005000
 41
0.005000
 70
0
  0
VERTEX
  8
16
 10
0.799000
 20
0.983000
 30
0.000000
 42
1.000000
  0
VERTEX
  8
16
 10
0.799000
 20
0.978000
 30
0.000000
  0
SEQEND
  8
0
  0
POLYLINE
  8
16
 66
1
 10
0.000000
 20
0.000000
 30
0.000000
 40
0.020000
 41
0.020000
 70
0
  0
VERTEX
  8
16
 10
0.080000
 20
0.610000
 30
0.000000
  0
VERTEX
  8
16
 10
0.080000
 20
0.830000
 30
0.000000
  0
SEQEND
  8
0
  0
POLYLINE
  8
16
 66
1
 10
0.000000
 20
0.000000
 30
0.000000
 40
0.010000
 41
0.010000
 70
0
  0
VERTEX
  8
16
 10
0.085000
 20
0.830000
 30
0.000000
 42
1.000000
  0
VERTEX
  8
16
 10
0.075000
 20
0.830000
 30
0.000000
  0
SEQEND
  8
0
  0
POLYLINE
  8
16
 66
1
 10
0.000000
 20
0.000000
 30
0.000000
 40
0.010000
 41
0.010000
 70
0
  0
VERTEX
  8
16
 10
0.075000
 20
0.610000
 30
0.000000
 42
1.000000
  0
VERTEX
  8
16
 10
0.085000
 20
0.610000
 30
0.000000
  0
SEQEND
  8
0
  0
POLYLINE
  8
16
 66
1
 10
0.000000
 20
0.000000
 30
0.000000
 40
0.020000
 41
0.020000
 70
0
  0
VERTEX
  8
16
 10
0.360000
 20
0.270000
 30
0.000000
  0
VERTEX
  8
16
 10
0.281181
 20
0.348819
 30
0.000000
  0
SEQEND
  8
0
  0
POLYLINE
  8
16
 66
1
 10
0.000000
 20
0.000000
 30
0.000000
 40
0.010000
 41
0.010000
 70
0
  0
VERTEX
  8
16
 10
0.284717
 20
0.352354
 30
0.000000
 42
1.000000
  0
VERTEX
  8
16
 10
0.277646
 20
0.345283
 30
0.000000
  0
SEQEND
  8
0
  0
POLYLINE
  8
16
 66
1
 10
0.000000
 20
0.000000
 30
0.000000
 40
0.010000
 41
0.010000
 70
0
  0
VERTEX
  8
16
 10
0.356464
 20
0.266464
 30
0.000000
 42
1.000000
  0
VERTEX
  8
16
 10
0.363536
 20
0.273536
 30
0.000000
  0
SEQEND
  8
0
  0
POLYLINE
  8
16
 66
1
 10
0.000000
 20
0.000000
 30
0.000000
 40
0.020000
 41
0.020000
 70
0
  0
VERTEX
  8
16
 10
0.281181
 20
0.348819
 30
0.000000
  0
VERTEX
  8
16
 10
0.281181
 20
0.352598
 30
0.000000
  0
SEQEND
  8
0
  0
POLYLINE
  8
16
 66
1
 10
0.000000
 20
0.000000
 30
0.000000
 40
0.010000
 41
0.010000
 70
0
  0
VERTEX
  8
16
 10
0.286181
 20
0.352598
 30
0.000000
 42
1.000000
  0
VERTEX
  8
16
 10
0.276181
 20
0.352598
 30
0.000000
  0
SEQEND
  8
0
  0
POLYLINE
  8
16
 66
1
 10
0.000000
 20
0.000000
 30
0.000000
 40
0.010000
 41
0.010000
 70
0
  0
VERTEX
  8
16
 10
0.276181
 20
0.348819
 30
0.000000
 42
1.000000
  0
VERTEX
  8
16
 10
0.286181
 20
0.348819
 30
0.000000
  0
SEQEND
  8
0
  0
POLYLINE
  8
16
 66
1
 10
0.000000
 20
0.000000
 30
0.000000
 40
0.010000
 41
0.010000
 70
0
  0
VERTEX
  8
16
 10
0.889500
 20
0.890000
 30
0.000000
  0
VERTEX
  8
16
 10
0.890000
 20
0.890000
 30
0.000000
  0
SEQEND
  8
0
  0
POLYLINE
  8
16
 66
1
 10
0.000000
 20
0.000000
 30
0.000000
 40
0.005000
 41
0.005000
 70
0
  0
VERTEX
  8
16
 10
0.890000
 20
0.887500
 30
0.000000
 42
1.000000
  0
VERTEX
  8
16
 10
0.890000
 20
0.892500
 30
0.000000
  0
SEQEND
  8
0
  0
POLYLINE
  8
16
 66
1
 10
0.000000
 20
0.000000
 30
0.000000
 40
0.005000
 41
0.005000
 70
0
  0
VERTEX
  8
16
 10
0.889500
 20
0.892500
 30
0.000000
 42
1.000000
  0
VERTEX
  8
16
 10
0.889500
 20
0.887500
 30
0.000000
  0
SEQEND
  8
0
  0
POLYLINE
  8
16
 66
1
 10
0.000000
 20
0.000000
 30
0.000000
 40
0.020000
 41
0.020000
 70
0
  0
VERTEX
  8
16
 10
0.890000
 20
0.890000
 30
0.000000
  0
VERTEX
  8
16
 10
0.890000
 20
0.700000
 30
0.000000
  0
SEQEND
  8
0
  0
POLYLINE
  8
16
 66
1
 10
0.000000
 20
0.000000
 30
0.000000
 40
0.010000
 41
0.010000
 70
0
  0
VERTEX
  8
16
 10
0.885000
 20
0.700000
 30
0.000000
 42
1.000000
  0
VERTEX
  8
16
 10
0.895000
 20
0.700000
 30
0.000000
  0
SEQEND
  8
0
  0
POLYLINE
  8
16
 66
1
 10
0.000000
 20
0.000000
 30
0.000000
 40
0.010000
 41
0.010000
 70
0
  0
VERTEX
  8
16
 10
0.895000
 20
0.890000
 30
0.000000
 42
1.000000
  0
VERTEX
  8
16
 10
0.885000
 20
0.890000
 30
0.000000
  0
SEQEND
  8
0
  0
POLYLINE
  8
16
 66
1
 10
0.000000
 20
0.000000
 30
0.000000
 40
0.020000
 41
0.020000
 70
0
  0
VERTEX
  8
16
 10
0.790000
 20
0.440000
 30
0.000000
  0
VERTEX
  8
16
 10
0.620000
 20
0.270000
 30
0.000000
  0
SEQEND
  8
0
  0
POLYLINE
  8
16
 66
1
 10
0.000000
 20
0.000000
 30
0.000000
 40
0.010000
 41
0.010000
 70
0
  0
VERTEX
  8
16
 10
0.616464
 20
0.273536
 30
0.000000
 42
1.000000
  0
VERTEX
  8
16
 10
0.623536
 20
0.266464
 30
0.000000
  0
SEQEND
  8
0
  0
POLYLINE
  8
16
 66
1
 10
0.000000
 20
0.000000
 30
0.000000
 40
0.010000
 41
0.010000
 70
0
  0
VERTEX
  8
16
 10
0.793536
 20
0.436464
 30
0.000000
 42
1.000000
  0
VERTEX
  8
16
 10
0.786464
 20
0.443536
 30
0.000000
  0
SEQEND
  8
0
  0
POLYLINE
  8
16
 66
1
 10
0.000000
 20
0.000000
 30
0.000000
 40
0.020000
 41
0.020000
 70
0
  0
VERTEX
  8
16
 10
0.640000
 20
0.200000
 30
0.000000
  0
VERTEX
  8
16
 10
0.620000
 20
0.220000
 30
0.000000
  0
SEQEND
  8
0
  0
POLYLINE
  8
16
 66
1
 10
0.000000
 20
0.000000
 30
0.000000
 40
0.010000
 41
0.010000
 70
0
  0
VERTEX
  8
16
 10
0.623536
 20
0.223536
 30
0.000000
 42
1.000000
  0
VERTEX
  8
16
 10
0.616464
 20
0.216464
 30
0.000000
  0
SEQEND
  8
0
  0
POLYLINE
  8
16
 66
1
 10
0.000000
 20
0.000000
 30
0.000000
 40
0.010000
 41
0.010000
 70
0
  0
VERTEX
  8
16
 10
0.636464
 20
0.196464
 30
0.000000
 42
1.000000
  0
VERTEX
  8
16
 10
0.643536
 20
0.203536
 30
0.000000
  0
SEQEND
  8
0
  0
POLYLINE
  8
16
 66
1
 10
0.000000
 20
0.000000
 30
0.000000
 40
0.020000
 41
0.020000
 70
0
  0
VERTEX
  8
16
 10
0.620000
 20
0.220000
 30
0.000000
  0
VERTEX
  8
16
 10
0.620000
 20
0.270000
 30
0.000000
  0
SEQEND
  8
0
  0
POLYLINE
  8
16
 66
1
 10
0.000000
 20
0.000000
 30
0.000000
 40
0.010000
 41
0.010000
 70
0
  0
VERTEX
  8
16
 10
0.625000
 20
0.270000
 30
0.000000
 42
1.000000
  0
VERTEX
  8
16
 10
0.615000
 20
0.270000
 30
0.000000
  0
SEQEND
  8
0
  0
POLYLINE
  8
16
 66
1
 10
0.000000
 20
0.000000
 30
0.000000
 40
0.010000
 41
0.010000
 70
0
  0
VERTEX
  8
16
 10
0.615000
 20
0.220000
 30
0.000000
 42
1.000000
  0
VERTEX
  8
16
 10
0.625000
 20
0.220000
 30
0.000000
  0
SEQEND
  8
0
  0
POLYLINE
  8
16
 66
1
 10
0.000000
 20
0.000000
 30
0.000000
 40
0.020000
 41
0.020000
 70
0
  0
VERTEX
  8
16
 10
0.210000
 20
0.980500
 30
0.000000
  0
VERTEX
  8
16
 10
0.210500
 20
0.980000
 30
0.000000
  0
SEQEND
  8
0
  0
POLYLINE
  8
16
 66
1
 10
0.000000
 20
0.000000
 30
0.000000
 40
0.010000
 41
0.010000
 70
0
  0
VERTEX
  8
16
 10
0.206964
 20
0.976464
 30
0.000000
 42
1.000000
  0
VERTEX
  8
16
 10
0.214036
 20
0.983536
 30
0.000000
  0
SEQEND
  8
0
  0
POLYLINE
  8
16
 66
1
 10
0.000000
 20
0.000000
 30
0.000000
 40
0.010000
 41
0.010000
 70
0
  0
VERTEX
  8
16
 10
0.213536
 20
0.984036
 30
0.000000
 42
1.000000
  0
VERTEX
  8
16
 10
0.206464
 20
0.976964
 30
0.000000
  0
SEQEND
  8
0
  0
POLYLINE
  8
16
 66
1
 10
0.000000
 20
0.000000
 30
0.000000
 40
0.020000
 41
0.020000
 70
0
  0
VERTEX
  8
16
 10
0.281181
 20
0.352598
 30
0.000000
  0
VERTEX
  8
16
 10
0.281181
 20
0.362598
 30
0.000000
  0
SEQEND
  8
0
  0
POLYLINE
  8
16
 66
1
 10
0.000000
 20
0.000000
 30
0.000000
 40
0.010000
 41
0.010000
 70
0
  0
VERTEX
  8
16
 10
0.286181
 20
0.362598
 30
0.000000
 42
1.000000
  0
VERTEX
  8
16
 10
0.276181
 20
0.362598
 30
0.000000
  0
SEQEND
  8
0
  0
POLYLINE
  8
16
 66
1
 10
0.000000
 20
0.000000
 30
0.000000
 40
0.010000
 41
0.010000
 70
0
  0
VERTEX
  8
16
 10
0.276181
 20
0.352598
 30
0.000000
 42
1.000000
  0
VERTEX
  8
16
 10
0.286181
 20
0.352598
 30
0.000000
  0
SEQEND
  8
0
  0
POLYLINE
  8
16
 66
1
 10
0.000000
 20
0.000000
 30
0.000000
 40
0.020000
 41
0.020000
 70
0
  0
VERTEX
  8
16
 10
0.281181
 20
0.362598
 30
0.000000
  0
VERTEX
  8
16
 10
0.240000
 20
0.403780
 30
0.000000
  0
SEQEND
  8
0
  0
POLYLINE
  8
16
 66
1
 10
0.000000
 20
0.000000
 30
0.000000
 40
0.010000
 41
0.010000
 70
0
  0
VERTEX
  8
16
 10
0.243536
 20
0.407315
 30
0.000000
 42
1.000000
  0
VERTEX
  8
16
 10
0.236464
 20
0.400244
 30
0.000000
  0
SEQEND
  8
0
  0
POLYLINE
  8
16
 66
1
 10
0.000000
 20
0.000000
 30
0.000000
 40
0.010000
 41
0.010000
 70
0
  0
VERTEX
  8
16
 10
0.277646
 20
0.359063
 30
0.000000
 42
1.000000
  0
VERTEX
  8
16
 10
0.284717
 20
0.366134
 30
0.000000
  0
SEQEND
  8
0
  0
POLYLINE
  8
16
 66
1
 10
0.000000
 20
0.000000
 30
0.000000
 40
0.020000
 41
0.020000
 70
0
  0
VERTEX
  8
16
 10
1.050000
 20
0.660000
 30
0.000000
  0
VERTEX
  8
16
 10
0.930000
 20
0.660000
 30
0.000000
  0
SEQEND
  8
0
  0
POLYLINE
  8
16
 66
1
 10
0.000000
 20
0.000000
 30
0.000000
 40
0.010000
 41
0.010000
 70
0
  0
VERTEX
  8
16
 10
0.930000
 20
0.665000
 30
0.000000
 42
1.000000
  0
VERTEX
  8
16
 10
0.930000
 20
0.655000
 30
0.000000
  0
SEQEND
  8
0
  0
POLYLINE
  8
16
 66
1
 10
0.000000
 20
0.000000
 30
0.000000
 40
0.010000
 41
0.010000
 70
0
  0
VERTEX
  8
16
 10
1.050000
 20
0.655000
 30
0.000000
 42
1.000000
  0
VERTEX
  8
16
 10
1.050000
 20
0.665000
 30
0.000000
  0
SEQEND
  8
0
  0
POLYLINE
  8
16
 66
1
 10
0.000000
 20
0.000000
 30
0.000000
 40
0.020000
 41
0.020000
 70
0
  0
VERTEX
  8
16
 10
0.930000
 20
0.660000
 30
0.000000
  0
VERTEX
  8
16
 10
0.890000
 20
0.700000
 30
0.000000
  0
SEQEND
  8
0
  0
POLYLINE
  8
16
 66
1
 10
0.000000
 20
0.000000
 30
0.000000
 40
0.010000
 41
0.010000
 70
0
  0
VERTEX
  8
16
 10
0.893536
 20
0.703536
 30
0.000000
 42
1.000000
  0
VERTEX
  8
16
 10
0.886464
 20
0.696464
 30
0.000000
  0
SEQEND
  8
0
  0
POLYLINE
  8
16
 66
1
 10
0.000000
 20
0.000000
 30
0.000000
 40
0.010000
 41
0.010000
 70
0
  0
VERTEX
  8
16
 10
0.926464
 20
0.656464
 30
0.000000
 42
1.000000
  0
VERTEX
  8
16
 10
0.933536
 20
0.663536
 30
0.000000
  0
SEQEND
  8
0
  0
POLYLINE
  8
16
 66
1
 10
0.000000
 20
0.000000
 30
0.000000
 40
0.020000
 41
0.020000
 70
0
  0
VERTEX
  8
16
 10
0.930000
 20
0.620000
 30
0.000000
  0
VERTEX
  8
16
 10
0.930000
 20
0.660000
 30
0.000000
  0
SEQEND
  8
0
  0
POLYLINE
  8
16
 66
1
 10
0.000000
 20
0.000000
 30
0.000000
 40
0.010000
 41
0.010000
 70
0
  0
VERTEX
  8
16
 10
0.935000
 20
0.660000
 30
0.000000
 42
1.000000
  0
VERTEX
  8
16
 10
0.925000
 20
0.660000
 30
0.000000
  0
SEQEND
  8
0
  0
POLYLINE
  8
16
 66
1
 10
0.000000
 20
0.000000
 30
0.000000
 40
0.010000
 41
0.010000
 70
0
  0
VERTEX
  8
16
 10
0.925000
 20
0.620000
 30
0.000000
 42
1.000000
  0
VERTEX
  8
16
 10
0.935000
 20
0.620000
 30
0.000000
  0
SEQEND
  8
0
  0
POLYLINE
  8
16
 66
1
 10
0.000000
 20
0.000000
 30
0.000000
 40
0.020000
 41
0.020000
 70
0
  0
VERTEX
  8
16
 10
0.889500
 20
0.890000
 30
0.000000
  0
VERTEX
  8
16
 10
0.889500
 20
0.940500
 30
0.000000
  0
SEQEND
  8
0
  0
POLYLINE
  8
16
 66
1
 10
0.000000
 20
0.000000
 30
0.000000
 40
0.010000
 41
0.010000
 70
0
  0
VERTEX
  8
16
 10
0.894500
 20
0.940500
 30
0.000000
 42
1.000000
  0
VERTEX
  8
16
 10
0.884500
 20
0.940500
 30
0.000000
  0
SEQEND
  8
0
  0
POLYLINE
  8
16
 66
1
 10
0.000000
 20
0.000000
 30
0.000000
 40
0.010000
 41
0.010000
 70
0
  0
VERTEX
  8
16
 10
0.884500
 20
0.890000
 30
0.000000
 42
1.000000
  0
VERTEX
  8
16
 10
0.894500
 20
0.890000
 30
0.000000
  0
SEQEND
  8
0
  0
POLYLINE
  8
16
 66
1
 10
0.000000
 20
0.000000
 30
0.000000
 40
0.020000
 41
0.020000
 70
0
  0
VERTEX
  8
16
 10
0.889500
 20
0.940500
 30
0.000000
  0
VERTEX
  8
16
 10
0.849500
 20
0.980500
 30
0.000000
  0
SEQEND
  8
0
  0
POLYLINE
  8
16
 66
1
 10
0.000000
 20
0.000000
 30
0.000000
 40
0.010000
 41
0.010000
 70
0
  0
VERTEX
  8
16
 10
0.853036
 20
0.984036
 30
0.000000
 42
1.000000
  0
VERTEX
  8
16
 10
0.845964
 20
0.976964
 30
0.000000
  0
SEQEND
  8
0
  0
POLYLINE
  8
16
 66
1
 10
0.000000
 20
0.000000
 30
0.000000
 40
0.010000
 41
0.010000
 70
0
  0
VERTEX
  8
16
 10
0.885964
 20
0.936964
 30
0.000000
 42
1.000000
  0
VERTEX
  8
16
 10
0.893036
 20
0.944036
 30
0.000000
  0
SEQEND
  8
0
  0
POLYLINE
  8
16
 66
1
 10
0.000000
 20
0.000000
 30
0.000000
 40
0.020000
 41
0.020000
 70
0
  0
VERTEX
  8
16
 10
0.849500
 20
0.980500
 30
0.000000
  0
VERTEX
  8
16
 10
0.799000
 20
0.980500
 30
0.000000
  0
SEQEND
  8
0
  0
POLYLINE
  8
16
 66
1
 10
0.000000
 20
0.000000
 30
0.000000
 40
0.010000
 41
0.010000
 70
0
  0
VERTEX
  8
16
 10
0.799000
 20
0.985500
 30
0.000000
 42
1.000000
  0
VERTEX
  8
16
 10
0.799000
 20
0.975500
 30
0.000000
  0
SEQEND
  8
0
  0
POLYLINE
  8
16
 66
1
 10
0.000000
 20
0.000000
 30
0.000000
 40
0.010000
 41
0.010000
 70
0
  0
VERTEX
  8
16
 10
0.849500
 20
0.975500
 30
0.000000
 42
1.000000
  0
VERTEX
  8
16
 10
0.849500
 20
0.985500
 30
0.000000
  0
SEQEND
  8
0
  0
POLYLINE
  8
16
 66
1
 10
0.000000
 20
0.000000
 30
0.000000
 40
0.020000
 41
0.020000
 70
0
  0
VERTEX
  8
16
 10
0.210500
 20
0.980000
 30
0.000000
  0
VERTEX
  8
16
 10
0.260000
 20
0.980000
 30
0.000000
  0
SEQEND
  8
0
  0
POLYLINE
  8
16
 66
1
 10
0.000000
 20
0.000000
 30
0.000000
 40
0.010000
 41
0.010000
 70
0
  0
VERTEX
  8
16
 10
0.260000
 20
0.975000
 30
0.000000
 42
1.000000
  0
VERTEX
  8
16
 10
0.260000
 20
0.985000
 30
0.000000
  0
SEQEND
  8
0
  0
POLYLINE
  8
16
 66
1
 10
0.000000
 20
0.000000
 30
0.000000
 40
0.010000
 41
0.010000
 70
0
  0
VERTEX
  8
16
 10
0.210500
 20
0.985000
 30
0.000000
 42
1.000000
  0
VERTEX
  8
16
 10
0.210500
 20
0.975000
 30
0.000000
  0
SEQEND
  8
0
  0
POLYLINE
  8
16
 66
1
 10
0.000000
 20
0.000000
 30
0.000000
 40
0.020000
 41
0.020000
 70
0
  0
VERTEX
  8
16
 10
0.260000
 20
0.980000
 30
0.000000
  0
VERTEX
  8
16
 10
0.270000
 20
0.970000
 30
0.000000
  0
SEQEND
  8
0
  0
POLYLINE
  8
16
 66
1
 10
0.000000
 20
0.000000
 30
0.000000
 40
0.010000
 41
0.010000
 70
0
  0
VERTEX
  8
16
 10
0.266464
 20
0.966464
 30
0.000000
 42
1.000000
  0
VERTEX
  8
16
 10
0.273536
 20
0.973536
 30
0.000000
  0
SEQEND
  8
0
  0
POLYLINE
  8
16
 66
1
 10
0.000000
 20
0.000000
 30
0.000000
 40
0.010000
 41
0.010000
 70
0
  0
VERTEX
  8
16
 10
0.263536
 20
0.983536
 30
0.000000
 42
1.000000
  0
VERTEX
  8
16
 10
0.256464
 20
0.976464
 30
0.000000
  0
SEQEND
  8
0
  0
POLYLINE
  8
16
 66
1
 10
0.000000
 20
0.000000
 30
0.000000
 40
0.010000
 41
0.010000
 70
0
  0
VERTEX
  8
16
 10
0.540000
 20
0.830000
 30
0.000000
  0
VERTEX
  8
16
 10
0.590000
 20
0.880000
 30
0.000000
  0
SEQEND
  8
0
  0
POLYLINE
  8
16
 66
1
 10
0.000000
 20
0.000000
 30
0.000000
 40
0.005000
 41
0.005000
 70
0
  0
VERTEX
  8
16
 10
0.591768
 20
0.878232
 30
0.000000
 42
1.000000
  0
VERTEX
  8
16
 10
0.588232
 20
0.881768
 30
0.000000
  0
SEQEND
  8
0
  0
POLYLINE
  8
16
 66
1
 10
0.000000
 20
0.000000
 30
0.000000
 40
0.005000
 41
0.005000
 70
0
  0
VERTEX
  8
16
 10
0.538232
 20
0.831768
 30
0.000000
 42
1.000000
  0
VERTEX
  8
16
 10
0.541768
 20
0.828232
 30
0.000000
  0
SEQEND
  8
0
  0
POLYLINE
  8
16
 66
1
 10
0.000000
 20
0.000000
 30
0.000000
 40
0.010000
 41
0.010000
 70
0
  0
VERTEX
  8
16
 10
0.590000
 20
0.880000
 30
0.000000
  0
VERTEX
  8
16
 10
0.590000
 20
0.923000
 30
0.000000
  0
SEQEND
  8
0
  0
POLYLINE
  8
16
 66
1
 10
0.000000
 20
0.000000
 30
0.000000
 40
0.005000
 41
0.005000
 70
0
  0
VERTEX
  8
16
 10
0.592500
 20
0.923000
 30
0.000000
 42
1.000000
  0
VERTEX
  8
16
 10
0.587500
 20
0.923000
 30
0.000000
  0
SEQEND
  8
0
  0
POLYLINE
  8
16
 66
1
 10
0.000000
 20
0.000000
 30
0.000000
 40
0.005000
 41
0.005000
 70
0
  0
VERTEX
  8
16
 10
0.587500
 20
0.880000
 30
0.000000
 42
1.000000
  0
VERTEX
  8
16
 10
0.592500
 20
0.880000
 30
0.000000
  0
SEQEND
  8
0
  0
POLYLINE
  8
16
 66
1
 10
0.000000
 20
0.000000
 30
0.000000
 40
0.020000
 41
0.020000
 70
0
  0
VERTEX
  8
16
 10
0.050000
 20
0.450000
 30
0.000000
  0
VERTEX
  8
16
 10
0.060000
 20
0.460000
 30
0.000000
  0
SEQEND
  8
0
  0
POLYLINE
  8
16
 66
1
 10
0.000000
 20
0.000000
 30
0.000000
 40
0.010000
 41
0.010000
 70
0
  0
VERTEX
  8
16
 10
0.063536
 20
0.456464
 30
0.000000
 42
1.000000
  0
VERTEX
  8
16
 10
0.056464
 20
0.463536
 30
0.000000
  0
SEQEND
  8
0
  0
POLYLINE
  8
16
 66
1
 10
0.000000
 20
0.000000
 30
0.000000
 40
0.010000
 41
0.010000
 70
0
  0
VERTEX
  8
16
 10
0.046464
 20
0.453536
 30
0.000000
 42
1.000000
  0
VERTEX
  8
16
 10
0.053536
 20
0.446464
 30
0.000000
  0
SEQEND
  8
0
  0
POLYLINE
  8
16
 66
1
 10
0.000000
 20
0.000000
 30
0.000000
 40
0.020000
 41
0.020000
 70
0
  0
VERTEX
  8
16
 10
0.060000
 20
0.460000
 30
0.000000
  0
VERTEX
  8
16
 10
0.230000
 20
0.460000
 30
0.000000
  0
SEQEND
  8
0
  0
POLYLINE
  8
16
 66
1
 10
0.000000
 20
0.000000
 30
0.000000
 40
0.010000
 41
0.010000
 70
0
  0
VERTEX
  8
16
 10
0.230000
 20
0.455000
 30
0.000000
 42
1.000000
  0
VERTEX
  8
16
 10
0.230000
 20
0.465000
 30
0.000000
  0
SEQEND
  8
0
  0
POLYLINE
  8
16
 66
1
 10
0.000000
 20
0.000000
 30
0.000000
 40
0.010000
 41
0.010000
 70
0
  0
VERTEX
  8
16
 10
0.060000
 20
0.465000
 30
0.000000
 42
1.000000
  0
VERTEX
  8
16
 10
0.060000
 20
0.455000
 30
0.000000
  0
SEQEND
  8
0
  0
POLYLINE
  8
16
 66
1
 10
0.000000
 20
0.000000
 30
0.000000
 40
0.020000
 41
0.020000
 70
0
  0
VERTEX
  8
16
 10
0.855000
 20
0.375000
 30
0.000000
  0
VERTEX
  8
16
 10
0.855000
 20
0.177000
 30
0.000000
  0
SEQEND
  8
0
  0
POLYLINE
  8
16
 66
1
 10
0.000000
 20
0.000000
 30
0.000000
 40
0.010000
 41
0.010000
 70
0
  0
VERTEX
  8
16
 10
0.850000
 20
0.177000
 30
0.000000
 42
1.000000
  0
VERTEX
  8
16
 10
0.860000
 20
0.177000
 30
0.000000
  0
SEQEND
  8
0
  0
POLYLINE
  8
16
 66
1
 10
0.000000
 20
0.000000
 30
0.000000
 40
0.010000
 41
0.010000
 70
0
  0
VERTEX
  8
16
 10
0.860000
 20
0.375000
 30
0.000000
 42
1.000000
  0
VERTEX
  8
16
 10
0.850000
 20
0.375000
 30
0.000000
  0
SEQEND
  8
0
  0
POLYLINE
  8
16
 66
1
 10
0.000000
 20
0.000000
 30
0.000000
 40
0.020000
 41
0.020000
 70
0
  0
VERTEX
  8
16
 10
0.790000
 20
0.440000
 30
0.000000
  0
VERTEX
  8
16
 10
0.790000
 20
0.484000
 30
0.000000
  0
SEQEND
  8
0
  0
POLYLINE
  8
16
 66
1
 10
0.000000
 20
0.000000
 30
0.000000
 40
0.010000
 41
0.010000
 70
0
  0
VERTEX
  8
16
 10
0.795000
 20
0.484000
 30
0.000000
 42
1.000000
  0
VERTEX
  8
16
 10
0.785000
 20
0.484000
 30
0.000000
  0
SEQEND
  8
0
  0
POLYLINE
  8
16
 66
1
 10
0.000000
 20
0.000000
 30
0.000000
 40
0.010000
 41
0.010000
 70
0
  0
VERTEX
  8
16
 10
0.785000
 20
0.440000
 30
0.000000
 42
1.000000
  0
VERTEX
  8
16
 10
0.795000
 20
0.440000
 30
0.000000
  0
SEQEND
  8
0
  0
POLYLINE
  8
16
 66
1
 10
0.000000
 20
0.000000
 30
0.000000
 40
0.020000
 41
0.020000
 70
0
  0
VERTEX
  8
16
 10
0.790000
 20
0.484000
 30
0.000000
  0
VERTEX
  8
16
 10
0.800000
 20
0.494000
 30
0.000000
  0
SEQEND
  8
0
  0
POLYLINE
  8
16
 66
1
 10
0.000000
 20
0.000000
 30
0.000000
 40
0.010000
 41
0.010000
 70
0
  0
VERTEX
  8
16
 10
0.803536
 20
0.490464
 30
0.000000
 42
1.000000
  0
VERTEX
  8
16
 10
0.796464
 20
0.497536
 30
0.000000
  0
SEQEND
  8
0
  0
POLYLINE
  8
16
 66
1
 10
0.000000
 20
0.000000
 30
0.000000
 40
0.010000
 41
0.010000
 70
0
  0
VERTEX
  8
16
 10
0.786464
 20
0.487536
 30
0.000000
 42
1.000000
  0
VERTEX
  8
16
 10
0.793536
 20
0.480464
 30
0.000000
  0
SEQEND
  8
0
  0
POLYLINE
  8
16
 66
1
 10
0.000000
 20
0.000000
 30
0.000000
 40
0.020000
 41
0.020000
 70
0
  0
VERTEX
  8
16
 10
0.855000
 20
0.177000
 30
0.000000
  0
VERTEX
  8
16
 10
0.880000
 20
0.152000
 30
0.000000
  0
SEQEND
  8
0
  0
POLYLINE
  8
16
 66
1
 10
0.000000
 20
0.000000
 30
0.000000
 40
0.010000
 41
0.010000
 70
0
  0
VERTEX
  8
16
 10
0.876464
 20
0.148464
 30
0.000000
 42
1.000000
  0
VERTEX
  8
16
 10
0.883536
 20
0.155536
 30
0.000000
  0
SEQEND
  8
0
  0
POLYLINE
  8
16
 66
1
 10
0.000000
 20
0.000000
 30
0.000000
 40
0.010000
 41
0.010000
 70
0
  0
VERTEX
  8
16
 10
0.858536
 20
0.180536
 30
0.000000
 42
1.000000
  0
VERTEX
  8
16
 10
0.851464
 20
0.173464
 30
0.000000
  0
SEQEND
  8
0
  0
POLYLINE
  8
16
 66
1
 10
0.000000
 20
0.000000
 30
0.000000
 40
0.020000
 41
0.020000
 70
0
  0
VERTEX
  8
16
 10
0.855000
 20
0.375000
 30
0.000000
  0
VERTEX
  8
16
 10
0.790000
 20
0.440000
 30
0.000000
  0
SEQEND
  8
0
  0
POLYLINE
  8
16
 66
1
 10
0.000000
 20
0.000000
 30
0.000000
 40
0.010000
 41
0.010000
 70
0
  0
VERTEX
  8
16
 10
0.793536
 20
0.443536
 30
0.000000
 42
1.000000
  0
VERTEX
  8
16
 10
0.786464
 20
0.436464
 30
0.000000
  0
SEQEND
  8
0
  0
POLYLINE
  8
16
 66
1
 10
0.000000
 20
0.000000
 30
0.000000
 40
0.010000
 41
0.010000
 70
0
  0
VERTEX
  8
16
 10
0.851464
 20
0.371464
 30
0.000000
 42
1.000000
  0
VERTEX
  8
16
 10
0.858536
 20
0.378536
 30
0.000000
  0
SEQEND
  8
0
  0
ENDSEC
  0
EOF
