G75*
%MOIN*%
%OFA0B0*%
%FSLAX25Y25*%
%IPPOS*%
%LPD*%
%AMOC8*
5,1,8,0,0,1.08239X$1,22.5*
%
%ADD10C,0.01000*%
%ADD11C,0.00100*%
%ADD12C,0.00500*%
%ADD13C,0.00400*%
%ADD14C,0.02200*%
%ADD15C,0.00800*%
%ADD16C,0.00700*%
%ADD17R,0.03000X0.01800*%
%ADD18C,0.02601*%
D10*
X0346638Y0046300D02*
X0346638Y0269900D01*
X0388438Y0269900D01*
X0388438Y0046300D01*
X0372538Y0046300D01*
X0372538Y0042800D01*
X0362538Y0042800D01*
X0362538Y0046300D01*
X0346638Y0046300D01*
D11*
X0075937Y0042050D02*
X0075387Y0042050D01*
X0075387Y0042784D01*
X0075387Y0043155D02*
X0075937Y0043155D01*
X0075754Y0043522D01*
X0075754Y0043705D01*
X0075937Y0043889D01*
X0076304Y0043889D01*
X0076488Y0043705D01*
X0076488Y0043338D01*
X0076304Y0043155D01*
X0076304Y0042784D02*
X0076488Y0042600D01*
X0076488Y0042233D01*
X0076304Y0042050D01*
X0075937Y0042050D02*
X0075754Y0042417D01*
X0075754Y0042600D01*
X0075937Y0042784D01*
X0076304Y0042784D01*
X0075387Y0043155D02*
X0075387Y0043889D01*
X0075570Y0044260D02*
X0075387Y0044443D01*
X0075387Y0044810D01*
X0075570Y0044994D01*
X0075754Y0044994D01*
X0076488Y0044260D01*
X0076488Y0044994D01*
X0076304Y0045365D02*
X0076488Y0045548D01*
X0076488Y0045915D01*
X0076304Y0046099D01*
X0075937Y0046099D01*
X0075754Y0045915D01*
X0075754Y0045732D01*
X0075937Y0045365D01*
X0075387Y0045365D01*
X0075387Y0046099D01*
X0075937Y0046470D02*
X0075937Y0047204D01*
X0075570Y0047575D02*
X0075387Y0047758D01*
X0075387Y0048125D01*
X0075570Y0048309D01*
X0075754Y0048309D01*
X0075937Y0048125D01*
X0076121Y0048309D01*
X0076304Y0048309D01*
X0076488Y0048125D01*
X0076488Y0047758D01*
X0076304Y0047575D01*
X0075937Y0047942D02*
X0075937Y0048125D01*
X0076304Y0048680D02*
X0076304Y0048863D01*
X0076488Y0048863D01*
X0076488Y0048680D01*
X0076304Y0048680D01*
X0076304Y0049232D02*
X0076488Y0049416D01*
X0076488Y0049783D01*
X0076304Y0049966D01*
X0076121Y0049966D01*
X0075937Y0049783D01*
X0075937Y0049599D01*
X0075937Y0049783D02*
X0075754Y0049966D01*
X0075570Y0049966D01*
X0075387Y0049783D01*
X0075387Y0049416D01*
X0075570Y0049232D01*
X0075570Y0050337D02*
X0075937Y0050704D01*
X0076488Y0050704D01*
X0075937Y0050704D02*
X0075570Y0051071D01*
X0075387Y0051071D01*
X0075387Y0051442D02*
X0075754Y0051809D01*
X0075387Y0052176D01*
X0076488Y0052176D01*
X0076304Y0052547D02*
X0076488Y0052730D01*
X0076488Y0053097D01*
X0076304Y0053281D01*
X0075937Y0053281D01*
X0075754Y0053097D01*
X0075754Y0052914D01*
X0075937Y0052547D01*
X0075387Y0052547D01*
X0075387Y0053281D01*
X0075937Y0053652D02*
X0075937Y0054386D01*
X0075387Y0054757D02*
X0075387Y0055491D01*
X0075387Y0055124D02*
X0076488Y0055124D01*
X0076488Y0055862D02*
X0075387Y0055862D01*
X0075387Y0056412D01*
X0075570Y0056596D01*
X0075937Y0056596D01*
X0076121Y0056412D01*
X0076121Y0055862D01*
X0076121Y0056229D02*
X0076488Y0056596D01*
X0076121Y0056967D02*
X0075754Y0056967D01*
X0075387Y0057334D01*
X0075754Y0057703D02*
X0075387Y0058070D01*
X0076488Y0058070D01*
X0076488Y0057703D02*
X0076488Y0058437D01*
X0076488Y0058808D02*
X0076121Y0059175D01*
X0075754Y0059175D01*
X0075387Y0058808D01*
X0076488Y0057334D02*
X0076121Y0056967D01*
X0076488Y0051442D02*
X0075387Y0051442D01*
X0075387Y0050337D02*
X0075570Y0050337D01*
X0279518Y0069658D02*
X0279702Y0069475D01*
X0280069Y0069475D01*
X0280252Y0069658D01*
X0280252Y0070025D01*
X0280069Y0070209D01*
X0279885Y0070209D01*
X0279518Y0070025D01*
X0279518Y0070576D01*
X0280252Y0070576D01*
X0280623Y0070392D02*
X0280807Y0070576D01*
X0281174Y0070576D01*
X0281357Y0070392D01*
X0281357Y0070209D01*
X0280623Y0069475D01*
X0281357Y0069475D01*
X0281728Y0069658D02*
X0281912Y0069475D01*
X0282279Y0069475D01*
X0282462Y0069658D01*
X0282462Y0069842D01*
X0282279Y0070025D01*
X0282095Y0070025D01*
X0282279Y0070025D02*
X0282462Y0070209D01*
X0282462Y0070392D01*
X0282279Y0070576D01*
X0281912Y0070576D01*
X0281728Y0070392D01*
X0282833Y0070392D02*
X0282833Y0070209D01*
X0283017Y0070025D01*
X0283384Y0070025D01*
X0283567Y0069842D01*
X0283567Y0069658D01*
X0283384Y0069475D01*
X0283017Y0069475D01*
X0282833Y0069658D01*
X0282833Y0069842D01*
X0283017Y0070025D01*
X0283384Y0070025D02*
X0283567Y0070209D01*
X0283567Y0070392D01*
X0283384Y0070576D01*
X0283017Y0070576D01*
X0282833Y0070392D01*
X0283938Y0070576D02*
X0284489Y0070576D01*
X0284672Y0070392D01*
X0284672Y0070209D01*
X0284489Y0070025D01*
X0283938Y0070025D01*
X0283938Y0069475D02*
X0284489Y0069475D01*
X0284672Y0069658D01*
X0284672Y0069842D01*
X0284489Y0070025D01*
X0285043Y0070025D02*
X0285777Y0070025D01*
X0286148Y0069658D02*
X0286148Y0069475D01*
X0286148Y0069658D02*
X0286882Y0070392D01*
X0286882Y0070576D01*
X0286148Y0070576D01*
X0287253Y0070025D02*
X0287987Y0070025D01*
X0288358Y0070025D02*
X0288725Y0070025D01*
X0288358Y0069475D02*
X0288358Y0070576D01*
X0289092Y0070576D01*
X0283938Y0070576D02*
X0283938Y0069475D01*
X0292170Y0061900D02*
X0292904Y0061900D01*
X0293275Y0061900D02*
X0294009Y0061900D01*
X0294380Y0061533D02*
X0295114Y0062267D01*
X0295114Y0061533D01*
X0294930Y0061350D01*
X0294563Y0061350D01*
X0294380Y0061533D01*
X0294380Y0062267D01*
X0294563Y0062451D01*
X0294930Y0062451D01*
X0295114Y0062267D01*
X0295485Y0062267D02*
X0295668Y0062451D01*
X0296035Y0062451D01*
X0296219Y0062267D01*
X0296219Y0062084D01*
X0296035Y0061900D01*
X0296219Y0061717D01*
X0296219Y0061533D01*
X0296035Y0061350D01*
X0295668Y0061350D01*
X0295485Y0061533D01*
X0295852Y0061900D02*
X0296035Y0061900D01*
X0296590Y0061900D02*
X0297324Y0061900D01*
X0297695Y0061533D02*
X0297695Y0061350D01*
X0297695Y0061533D02*
X0298429Y0062267D01*
X0298429Y0062451D01*
X0297695Y0062451D01*
X0298800Y0061900D02*
X0299534Y0061900D01*
X0299905Y0061900D02*
X0300272Y0061900D01*
X0299905Y0061350D02*
X0299905Y0062451D01*
X0300639Y0062451D01*
X0301010Y0062084D02*
X0301376Y0062451D01*
X0301746Y0062267D02*
X0301930Y0062451D01*
X0302297Y0062451D01*
X0302480Y0062267D01*
X0302480Y0062084D01*
X0301746Y0061350D01*
X0302480Y0061350D01*
X0302851Y0061350D02*
X0303218Y0061717D01*
X0303218Y0062084D01*
X0302851Y0062451D01*
X0301376Y0061350D02*
X0301010Y0061717D01*
X0301010Y0062084D01*
X0293825Y0062451D02*
X0293275Y0061900D01*
X0293825Y0061350D02*
X0293825Y0062451D01*
X0292721Y0062451D02*
X0292170Y0061900D01*
X0292721Y0061350D02*
X0292721Y0062451D01*
X0292195Y0082350D02*
X0292195Y0082533D01*
X0292929Y0083267D01*
X0292929Y0083451D01*
X0292195Y0083451D01*
X0291824Y0082900D02*
X0291090Y0082900D01*
X0290719Y0082350D02*
X0289985Y0082350D01*
X0290352Y0082350D02*
X0290352Y0083451D01*
X0289985Y0083084D01*
X0289614Y0083267D02*
X0288880Y0082533D01*
X0289063Y0082350D01*
X0289430Y0082350D01*
X0289614Y0082533D01*
X0289614Y0083267D01*
X0289430Y0083451D01*
X0289063Y0083451D01*
X0288880Y0083267D01*
X0288880Y0082533D01*
X0288509Y0082900D02*
X0287775Y0082900D01*
X0288325Y0083451D01*
X0288325Y0082350D01*
X0287404Y0082900D02*
X0286670Y0082900D01*
X0287221Y0083451D01*
X0287221Y0082350D01*
X0293300Y0082900D02*
X0294034Y0082900D01*
X0294405Y0082900D02*
X0294772Y0082900D01*
X0294405Y0082350D02*
X0294405Y0083451D01*
X0295139Y0083451D01*
X0295510Y0083084D02*
X0295876Y0083451D01*
X0295510Y0083084D02*
X0295510Y0082717D01*
X0295876Y0082350D01*
X0296246Y0082350D02*
X0296980Y0082350D01*
X0296613Y0082350D02*
X0296613Y0083451D01*
X0296246Y0083084D01*
X0297351Y0083451D02*
X0297718Y0083084D01*
X0297718Y0082717D01*
X0297351Y0082350D01*
X0331170Y0090900D02*
X0331904Y0090900D01*
X0332275Y0090900D02*
X0333009Y0090900D01*
X0333380Y0090533D02*
X0334114Y0091267D01*
X0334114Y0090533D01*
X0333930Y0090350D01*
X0333563Y0090350D01*
X0333380Y0090533D01*
X0333380Y0091267D01*
X0333563Y0091451D01*
X0333930Y0091451D01*
X0334114Y0091267D01*
X0334485Y0091084D02*
X0334852Y0091451D01*
X0334852Y0090350D01*
X0334485Y0090350D02*
X0335219Y0090350D01*
X0335590Y0090900D02*
X0336324Y0090900D01*
X0336695Y0090533D02*
X0336695Y0090350D01*
X0336695Y0090533D02*
X0337429Y0091267D01*
X0337429Y0091451D01*
X0336695Y0091451D01*
X0337800Y0090900D02*
X0338534Y0090900D01*
X0338905Y0090900D02*
X0339272Y0090900D01*
X0338905Y0090350D02*
X0338905Y0091451D01*
X0339639Y0091451D01*
X0340010Y0091084D02*
X0340376Y0091451D01*
X0340746Y0091267D02*
X0340930Y0091451D01*
X0341297Y0091451D01*
X0341480Y0091267D01*
X0341480Y0091084D01*
X0340746Y0090350D01*
X0341480Y0090350D01*
X0341851Y0090350D02*
X0342218Y0090717D01*
X0342218Y0091084D01*
X0341851Y0091451D01*
X0340376Y0090350D02*
X0340010Y0090717D01*
X0340010Y0091084D01*
X0332825Y0091451D02*
X0332275Y0090900D01*
X0332825Y0090350D02*
X0332825Y0091451D01*
X0331721Y0091451D02*
X0331170Y0090900D01*
X0331721Y0090350D02*
X0331721Y0091451D01*
X0330587Y0071179D02*
X0330587Y0070445D01*
X0331688Y0070445D01*
X0331137Y0070445D02*
X0331137Y0070812D01*
X0331137Y0070074D02*
X0331137Y0069340D01*
X0330770Y0068969D02*
X0331504Y0068235D01*
X0331688Y0068235D01*
X0331137Y0067864D02*
X0331137Y0067130D01*
X0330954Y0066759D02*
X0331137Y0066576D01*
X0331321Y0066759D01*
X0331504Y0066759D01*
X0331688Y0066576D01*
X0331688Y0066209D01*
X0331504Y0066025D01*
X0331504Y0065654D02*
X0331688Y0065471D01*
X0331688Y0065104D01*
X0331504Y0064920D01*
X0330770Y0065654D01*
X0331504Y0065654D01*
X0330770Y0065654D02*
X0330587Y0065471D01*
X0330587Y0065104D01*
X0330770Y0064920D01*
X0331504Y0064920D01*
X0331137Y0064549D02*
X0331137Y0063815D01*
X0330587Y0064366D01*
X0331688Y0064366D01*
X0331137Y0063444D02*
X0331137Y0062710D01*
X0330587Y0063261D01*
X0331688Y0063261D01*
X0330770Y0066025D02*
X0330587Y0066209D01*
X0330587Y0066576D01*
X0330770Y0066759D01*
X0330954Y0066759D01*
X0331137Y0066576D02*
X0331137Y0066392D01*
X0330587Y0068235D02*
X0330587Y0068969D01*
X0330770Y0068969D01*
X0342586Y0059885D02*
X0343029Y0058998D01*
X0343915Y0058112D01*
X0343915Y0059441D01*
X0344358Y0059885D01*
X0344801Y0059885D01*
X0345244Y0059441D01*
X0345244Y0058555D01*
X0344801Y0058112D01*
X0343915Y0058112D01*
X0392086Y0058998D02*
X0394744Y0058998D01*
X0394744Y0058112D02*
X0394744Y0059885D01*
X0392972Y0058112D02*
X0392086Y0058998D01*
X0392529Y0146778D02*
X0392972Y0146778D01*
X0393415Y0147221D01*
X0393415Y0148107D01*
X0393858Y0148550D01*
X0394301Y0148550D01*
X0394744Y0148107D01*
X0394744Y0147221D01*
X0394301Y0146778D01*
X0392529Y0146778D02*
X0392086Y0147221D01*
X0392086Y0148107D01*
X0392529Y0148550D01*
X0392086Y0149315D02*
X0392086Y0150644D01*
X0392529Y0151087D01*
X0392972Y0151087D01*
X0393415Y0150644D01*
X0393415Y0149315D01*
X0394744Y0149315D02*
X0394744Y0150644D01*
X0394301Y0151087D01*
X0393858Y0151087D01*
X0393415Y0150644D01*
X0393858Y0151853D02*
X0393858Y0153182D01*
X0393415Y0153625D01*
X0392529Y0153625D01*
X0392086Y0153182D01*
X0392086Y0151853D01*
X0394744Y0151853D01*
X0393858Y0152739D02*
X0394744Y0153625D01*
X0394744Y0154391D02*
X0394744Y0155277D01*
X0394744Y0154834D02*
X0392086Y0154834D01*
X0392086Y0154391D02*
X0392086Y0155277D01*
X0392529Y0156082D02*
X0394301Y0156082D01*
X0394744Y0156525D01*
X0394744Y0157411D01*
X0394301Y0157854D01*
X0392529Y0157854D01*
X0392086Y0157411D01*
X0392086Y0156525D01*
X0392529Y0156082D01*
X0395187Y0158620D02*
X0395187Y0160392D01*
X0394744Y0161157D02*
X0392086Y0161157D01*
X0392972Y0162043D01*
X0392086Y0162930D01*
X0394744Y0162930D01*
X0394744Y0163695D02*
X0394744Y0165467D01*
X0394744Y0166233D02*
X0394744Y0168005D01*
X0394744Y0168770D02*
X0394744Y0170542D01*
X0394744Y0171308D02*
X0392972Y0171308D01*
X0392086Y0172194D01*
X0392972Y0173080D01*
X0394744Y0173080D01*
X0394744Y0173845D02*
X0392086Y0173845D01*
X0394744Y0175618D01*
X0392086Y0175618D01*
X0392086Y0176383D02*
X0392086Y0177269D01*
X0392086Y0176826D02*
X0394744Y0176826D01*
X0394744Y0176383D02*
X0394744Y0177269D01*
X0394744Y0178075D02*
X0392086Y0178075D01*
X0394744Y0179847D01*
X0392086Y0179847D01*
X0392086Y0180612D02*
X0394744Y0180612D01*
X0394744Y0182384D01*
X0393415Y0181498D02*
X0393415Y0180612D01*
X0392086Y0180612D02*
X0392086Y0182384D01*
X0393415Y0173080D02*
X0393415Y0171308D01*
X0392529Y0170542D02*
X0394301Y0168770D01*
X0394744Y0168770D01*
X0392529Y0168005D02*
X0394301Y0166233D01*
X0394744Y0166233D01*
X0393415Y0164581D02*
X0393415Y0163695D01*
X0392086Y0163695D02*
X0394744Y0163695D01*
X0392086Y0163695D02*
X0392086Y0165467D01*
X0392086Y0166233D02*
X0392086Y0168005D01*
X0392529Y0168005D01*
X0392086Y0168770D02*
X0392086Y0170542D01*
X0392529Y0170542D01*
X0392086Y0149315D02*
X0394744Y0149315D01*
X0394744Y0248037D02*
X0392972Y0249809D01*
X0392529Y0249809D01*
X0392086Y0249366D01*
X0392086Y0248480D01*
X0392529Y0248037D01*
X0394744Y0248037D02*
X0394744Y0249809D01*
X0394301Y0250575D02*
X0394744Y0251018D01*
X0394744Y0251904D01*
X0394301Y0252347D01*
X0393858Y0252347D01*
X0393415Y0251904D01*
X0393415Y0251461D01*
X0393415Y0251904D02*
X0392972Y0252347D01*
X0392529Y0252347D01*
X0392086Y0251904D01*
X0392086Y0251018D01*
X0392529Y0250575D01*
X0392086Y0253112D02*
X0393415Y0253112D01*
X0392972Y0253998D01*
X0392972Y0254441D01*
X0393415Y0254885D01*
X0394301Y0254885D01*
X0394744Y0254441D01*
X0394744Y0253555D01*
X0394301Y0253112D01*
X0392086Y0253112D02*
X0392086Y0254885D01*
X0406612Y0285675D02*
X0406112Y0286175D01*
X0406612Y0286676D01*
X0407613Y0286676D01*
X0407363Y0287148D02*
X0407613Y0287398D01*
X0407613Y0287899D01*
X0407363Y0288149D01*
X0407363Y0288622D02*
X0407613Y0288872D01*
X0407613Y0289372D01*
X0407363Y0289622D01*
X0407613Y0290095D02*
X0407613Y0291096D01*
X0407613Y0291568D02*
X0407613Y0292569D01*
X0407613Y0291568D02*
X0406112Y0291568D01*
X0406112Y0291096D02*
X0406112Y0290095D01*
X0407613Y0290095D01*
X0406862Y0290095D02*
X0406862Y0290595D01*
X0406362Y0289622D02*
X0406112Y0289372D01*
X0406112Y0288872D01*
X0406362Y0288622D01*
X0407363Y0288622D01*
X0406362Y0288149D02*
X0406112Y0287899D01*
X0406112Y0287398D01*
X0406362Y0287148D01*
X0407363Y0287148D01*
X0406862Y0286676D02*
X0406862Y0285675D01*
X0406612Y0285675D02*
X0407613Y0285675D01*
X0373363Y0285776D02*
X0373113Y0286026D01*
X0372612Y0286026D01*
X0372612Y0285525D01*
X0372112Y0285025D02*
X0373113Y0285025D01*
X0373363Y0285275D01*
X0373363Y0285776D01*
X0373363Y0286999D02*
X0372612Y0286999D01*
X0372112Y0287499D01*
X0371862Y0287499D01*
X0371862Y0287972D02*
X0371862Y0288722D01*
X0372112Y0288972D01*
X0372612Y0288972D01*
X0372862Y0288722D01*
X0372862Y0287972D01*
X0372862Y0288472D02*
X0373363Y0288972D01*
X0373113Y0289445D02*
X0373363Y0289695D01*
X0373363Y0290195D01*
X0373113Y0290446D01*
X0372112Y0290446D01*
X0371862Y0290195D01*
X0371862Y0289695D01*
X0372112Y0289445D01*
X0373113Y0289445D01*
X0373363Y0287972D02*
X0371862Y0287972D01*
X0372612Y0286999D02*
X0372112Y0286498D01*
X0371862Y0286498D01*
X0372112Y0286026D02*
X0371862Y0285776D01*
X0371862Y0285275D01*
X0372112Y0285025D01*
X0344801Y0254885D02*
X0345244Y0254441D01*
X0345244Y0253555D01*
X0344801Y0253112D01*
X0343029Y0254885D01*
X0344801Y0254885D01*
X0343029Y0254885D02*
X0342586Y0254441D01*
X0342586Y0253555D01*
X0343029Y0253112D01*
X0344801Y0253112D01*
X0343915Y0252347D02*
X0343915Y0250575D01*
X0342586Y0251904D01*
X0345244Y0251904D01*
X0345244Y0249809D02*
X0345244Y0248037D01*
X0343472Y0249809D01*
X0343029Y0249809D01*
X0342586Y0249366D01*
X0342586Y0248480D01*
X0343029Y0248037D01*
X0120188Y0262739D02*
X0120004Y0262555D01*
X0120188Y0262739D02*
X0120188Y0263106D01*
X0120004Y0263289D01*
X0119637Y0263289D01*
X0119454Y0263106D01*
X0119454Y0262922D01*
X0119637Y0262555D01*
X0119087Y0262555D01*
X0119087Y0263289D01*
X0119087Y0263660D02*
X0119637Y0263660D01*
X0119454Y0264027D01*
X0119454Y0264210D01*
X0119637Y0264394D01*
X0120004Y0264394D01*
X0120188Y0264210D01*
X0120188Y0263843D01*
X0120004Y0263660D01*
X0119087Y0263660D02*
X0119087Y0264394D01*
X0119270Y0264765D02*
X0119087Y0264948D01*
X0119087Y0265315D01*
X0119270Y0265499D01*
X0119454Y0265499D01*
X0120188Y0264765D01*
X0120188Y0265499D01*
X0120004Y0265870D02*
X0120188Y0266053D01*
X0120188Y0266420D01*
X0120004Y0266604D01*
X0119637Y0266604D01*
X0119454Y0266420D01*
X0119454Y0266237D01*
X0119637Y0265870D01*
X0119087Y0265870D01*
X0119087Y0266604D01*
X0119637Y0266975D02*
X0119637Y0267709D01*
X0119270Y0268080D02*
X0119087Y0268263D01*
X0119087Y0268630D01*
X0119270Y0268814D01*
X0119454Y0268814D01*
X0119637Y0268630D01*
X0119821Y0268814D01*
X0120004Y0268814D01*
X0120188Y0268630D01*
X0120188Y0268263D01*
X0120004Y0268080D01*
X0119637Y0268447D02*
X0119637Y0268630D01*
X0120004Y0269185D02*
X0120004Y0269368D01*
X0120188Y0269368D01*
X0120188Y0269185D01*
X0120004Y0269185D01*
X0120004Y0269737D02*
X0120188Y0269921D01*
X0120188Y0270288D01*
X0120004Y0270471D01*
X0119821Y0270471D01*
X0119637Y0270288D01*
X0119637Y0270104D01*
X0119637Y0270288D02*
X0119454Y0270471D01*
X0119270Y0270471D01*
X0119087Y0270288D01*
X0119087Y0269921D01*
X0119270Y0269737D01*
X0119270Y0270842D02*
X0119637Y0271209D01*
X0120188Y0271209D01*
X0119637Y0271209D02*
X0119270Y0271576D01*
X0119087Y0271576D01*
X0119087Y0271947D02*
X0119454Y0272314D01*
X0119087Y0272681D01*
X0120188Y0272681D01*
X0120004Y0273052D02*
X0120188Y0273235D01*
X0120188Y0273602D01*
X0120004Y0273786D01*
X0119637Y0273786D01*
X0119454Y0273602D01*
X0119454Y0273419D01*
X0119637Y0273052D01*
X0119087Y0273052D01*
X0119087Y0273786D01*
X0119637Y0274157D02*
X0119637Y0274891D01*
X0119087Y0275262D02*
X0119087Y0275996D01*
X0119087Y0275629D02*
X0120188Y0275629D01*
X0120188Y0276367D02*
X0119087Y0276367D01*
X0119087Y0276917D01*
X0119270Y0277101D01*
X0119637Y0277101D01*
X0119821Y0276917D01*
X0119821Y0276367D01*
X0119821Y0276734D02*
X0120188Y0277101D01*
X0119821Y0277472D02*
X0119454Y0277472D01*
X0119087Y0277839D01*
X0119270Y0278208D02*
X0119087Y0278392D01*
X0119087Y0278759D01*
X0119270Y0278942D01*
X0119454Y0278942D01*
X0119637Y0278759D01*
X0119821Y0278942D01*
X0120004Y0278942D01*
X0120188Y0278759D01*
X0120188Y0278392D01*
X0120004Y0278208D01*
X0120188Y0277839D02*
X0119821Y0277472D01*
X0119637Y0278575D02*
X0119637Y0278759D01*
X0119087Y0279313D02*
X0119454Y0279680D01*
X0119821Y0279680D01*
X0120188Y0279313D01*
X0120188Y0271947D02*
X0119087Y0271947D01*
X0119087Y0270842D02*
X0119270Y0270842D01*
X0029213Y0262784D02*
X0028846Y0263151D01*
X0028475Y0262967D02*
X0028291Y0263151D01*
X0027925Y0263151D01*
X0027741Y0262967D01*
X0027371Y0263151D02*
X0027004Y0262784D01*
X0027004Y0262417D01*
X0027371Y0262050D01*
X0027741Y0262050D02*
X0028475Y0262784D01*
X0028475Y0262967D01*
X0029213Y0262784D02*
X0029213Y0262417D01*
X0028846Y0262050D01*
X0028475Y0262050D02*
X0027741Y0262050D01*
X0026633Y0262050D02*
X0026266Y0262417D01*
X0026450Y0262417D02*
X0025899Y0262417D01*
X0025899Y0262050D02*
X0025899Y0263151D01*
X0026450Y0263151D01*
X0026633Y0262967D01*
X0026633Y0262600D01*
X0026450Y0262417D01*
X0025528Y0263151D02*
X0024795Y0263151D01*
X0025162Y0263151D02*
X0025162Y0262050D01*
X0024424Y0262600D02*
X0023690Y0262600D01*
X0023319Y0262600D02*
X0023319Y0262233D01*
X0023135Y0262050D01*
X0022768Y0262050D01*
X0022585Y0262233D01*
X0022585Y0262600D02*
X0022952Y0262784D01*
X0023135Y0262784D01*
X0023319Y0262600D01*
X0023319Y0263151D02*
X0022585Y0263151D01*
X0022585Y0262600D01*
X0022214Y0262050D02*
X0022214Y0263151D01*
X0021847Y0262784D01*
X0021480Y0263151D01*
X0021480Y0262050D01*
X0020742Y0262050D02*
X0020742Y0262600D01*
X0021109Y0262967D01*
X0021109Y0263151D01*
X0020742Y0262600D02*
X0020375Y0262967D01*
X0020375Y0263151D01*
X0020004Y0262967D02*
X0020004Y0262784D01*
X0019820Y0262600D01*
X0020004Y0262417D01*
X0020004Y0262233D01*
X0019820Y0262050D01*
X0019453Y0262050D01*
X0019270Y0262233D01*
X0018901Y0262233D02*
X0018901Y0262050D01*
X0018717Y0262050D01*
X0018717Y0262233D01*
X0018901Y0262233D01*
X0018346Y0262233D02*
X0018163Y0262050D01*
X0017796Y0262050D01*
X0017612Y0262233D01*
X0017979Y0262600D02*
X0018163Y0262600D01*
X0018346Y0262417D01*
X0018346Y0262233D01*
X0018163Y0262600D02*
X0018346Y0262784D01*
X0018346Y0262967D01*
X0018163Y0263151D01*
X0017796Y0263151D01*
X0017612Y0262967D01*
X0017241Y0262600D02*
X0016508Y0262600D01*
X0016137Y0262600D02*
X0016137Y0262233D01*
X0015953Y0262050D01*
X0015586Y0262050D01*
X0015403Y0262233D01*
X0015403Y0262600D02*
X0015770Y0262784D01*
X0015953Y0262784D01*
X0016137Y0262600D01*
X0016137Y0263151D02*
X0015403Y0263151D01*
X0015403Y0262600D01*
X0015032Y0262784D02*
X0015032Y0262967D01*
X0014848Y0263151D01*
X0014481Y0263151D01*
X0014298Y0262967D01*
X0013927Y0263151D02*
X0013193Y0263151D01*
X0013193Y0262600D01*
X0013560Y0262784D01*
X0013743Y0262784D01*
X0013927Y0262600D01*
X0013927Y0262233D01*
X0013743Y0262050D01*
X0013376Y0262050D01*
X0013193Y0262233D01*
X0012822Y0262233D02*
X0012638Y0262050D01*
X0012271Y0262050D01*
X0012088Y0262233D01*
X0012088Y0262600D02*
X0012455Y0262784D01*
X0012638Y0262784D01*
X0012822Y0262600D01*
X0012822Y0262233D01*
X0012088Y0262600D02*
X0012088Y0263151D01*
X0012822Y0263151D01*
X0014298Y0262050D02*
X0015032Y0262784D01*
X0015032Y0262050D02*
X0014298Y0262050D01*
X0019270Y0262967D02*
X0019453Y0263151D01*
X0019820Y0263151D01*
X0020004Y0262967D01*
X0019820Y0262600D02*
X0019637Y0262600D01*
X0019453Y0289550D02*
X0019270Y0289733D01*
X0019453Y0289550D02*
X0019820Y0289550D01*
X0020004Y0289733D01*
X0020004Y0289917D01*
X0019820Y0290100D01*
X0019637Y0290100D01*
X0019820Y0290100D02*
X0020004Y0290284D01*
X0020004Y0290467D01*
X0019820Y0290651D01*
X0019453Y0290651D01*
X0019270Y0290467D01*
X0018901Y0289733D02*
X0018901Y0289550D01*
X0018717Y0289550D01*
X0018717Y0289733D01*
X0018901Y0289733D01*
X0018346Y0289733D02*
X0018163Y0289550D01*
X0017796Y0289550D01*
X0017612Y0289733D01*
X0017979Y0290100D02*
X0018163Y0290100D01*
X0018346Y0289917D01*
X0018346Y0289733D01*
X0018163Y0290100D02*
X0018346Y0290284D01*
X0018346Y0290467D01*
X0018163Y0290651D01*
X0017796Y0290651D01*
X0017612Y0290467D01*
X0017241Y0290100D02*
X0016508Y0290100D01*
X0016137Y0290100D02*
X0016137Y0289733D01*
X0015953Y0289550D01*
X0015586Y0289550D01*
X0015403Y0289733D01*
X0015403Y0290100D02*
X0015770Y0290284D01*
X0015953Y0290284D01*
X0016137Y0290100D01*
X0016137Y0290651D02*
X0015403Y0290651D01*
X0015403Y0290100D01*
X0015032Y0290284D02*
X0015032Y0290467D01*
X0014848Y0290651D01*
X0014481Y0290651D01*
X0014298Y0290467D01*
X0013927Y0290651D02*
X0013193Y0290651D01*
X0013193Y0290100D01*
X0013560Y0290284D01*
X0013743Y0290284D01*
X0013927Y0290100D01*
X0013927Y0289733D01*
X0013743Y0289550D01*
X0013376Y0289550D01*
X0013193Y0289733D01*
X0012822Y0289733D02*
X0012638Y0289550D01*
X0012271Y0289550D01*
X0012088Y0289733D01*
X0012088Y0290100D02*
X0012455Y0290284D01*
X0012638Y0290284D01*
X0012822Y0290100D01*
X0012822Y0289733D01*
X0012088Y0290100D02*
X0012088Y0290651D01*
X0012822Y0290651D01*
X0014298Y0289550D02*
X0015032Y0290284D01*
X0015032Y0289550D02*
X0014298Y0289550D01*
X0020375Y0290467D02*
X0020742Y0290100D01*
X0020742Y0289550D01*
X0020742Y0290100D02*
X0021109Y0290467D01*
X0021109Y0290651D01*
X0021480Y0290651D02*
X0021847Y0290284D01*
X0022214Y0290651D01*
X0022214Y0289550D01*
X0022585Y0289733D02*
X0022768Y0289550D01*
X0023135Y0289550D01*
X0023319Y0289733D01*
X0023319Y0290100D01*
X0023135Y0290284D01*
X0022952Y0290284D01*
X0022585Y0290100D01*
X0022585Y0290651D01*
X0023319Y0290651D01*
X0023690Y0290100D02*
X0024424Y0290100D01*
X0024795Y0290651D02*
X0025528Y0290651D01*
X0025162Y0290651D02*
X0025162Y0289550D01*
X0025899Y0289550D02*
X0025899Y0290651D01*
X0026450Y0290651D01*
X0026633Y0290467D01*
X0026633Y0290100D01*
X0026450Y0289917D01*
X0025899Y0289917D01*
X0026266Y0289917D02*
X0026633Y0289550D01*
X0027004Y0289917D02*
X0027371Y0289550D01*
X0027004Y0289917D02*
X0027004Y0290284D01*
X0027371Y0290651D01*
X0027741Y0290100D02*
X0028475Y0290100D01*
X0028291Y0289550D02*
X0028291Y0290651D01*
X0027741Y0290100D01*
X0028846Y0289550D02*
X0029213Y0289917D01*
X0029213Y0290284D01*
X0028846Y0290651D01*
X0021480Y0290651D02*
X0021480Y0289550D01*
X0020375Y0290467D02*
X0020375Y0290651D01*
D12*
X0025638Y0288256D02*
X0029538Y0288256D01*
X0025638Y0288256D02*
X0025638Y0282744D01*
X0029738Y0282744D02*
X0033338Y0282744D01*
X0037443Y0282744D02*
X0037443Y0288256D01*
X0033538Y0288256D01*
X0033538Y0260756D02*
X0037443Y0260756D01*
X0037443Y0255244D01*
X0033338Y0255244D02*
X0029738Y0255244D01*
X0025638Y0255244D02*
X0025638Y0260756D01*
X0029538Y0260756D01*
X0110782Y0277094D02*
X0116294Y0277094D01*
X0116294Y0281000D01*
X0116294Y0285000D02*
X0116294Y0288900D01*
X0110782Y0288900D01*
X0110782Y0284800D02*
X0110782Y0281200D01*
X0276538Y0250732D02*
X0276538Y0217268D01*
X0336538Y0217268D01*
X0336538Y0250732D01*
X0276538Y0250732D01*
X0322132Y0098256D02*
X0322132Y0092744D01*
X0326038Y0092744D01*
X0330038Y0092744D02*
X0333938Y0092744D01*
X0333938Y0098256D01*
X0329838Y0098256D02*
X0326238Y0098256D01*
X0306938Y0090256D02*
X0306938Y0084744D01*
X0303038Y0084744D01*
X0299038Y0084744D02*
X0295132Y0084744D01*
X0295132Y0090256D01*
X0299238Y0090256D02*
X0302838Y0090256D01*
X0298313Y0077381D02*
X0298313Y0071869D01*
X0294413Y0071869D01*
X0290413Y0071869D02*
X0286507Y0071869D01*
X0286507Y0077381D01*
X0290613Y0077381D02*
X0294213Y0077381D01*
X0300132Y0069256D02*
X0300132Y0063744D01*
X0304038Y0063744D01*
X0308038Y0063744D02*
X0311938Y0063744D01*
X0311938Y0069256D01*
X0307838Y0069256D02*
X0304238Y0069256D01*
X0323782Y0068594D02*
X0329294Y0068594D01*
X0329294Y0072500D01*
X0329294Y0076500D02*
X0329294Y0080400D01*
X0323782Y0080400D01*
X0323782Y0076300D02*
X0323782Y0072700D01*
X0083294Y0068406D02*
X0077782Y0068406D01*
X0077782Y0064500D01*
X0077782Y0060500D02*
X0077782Y0056600D01*
X0083294Y0056600D01*
X0083294Y0060700D02*
X0083294Y0064300D01*
D13*
X0072338Y0153700D02*
X0072338Y0155235D01*
X0072338Y0154467D02*
X0067734Y0154467D01*
X0067734Y0153700D02*
X0067734Y0155235D01*
X0068501Y0156769D02*
X0071570Y0156769D01*
X0072338Y0157537D01*
X0072338Y0159071D01*
X0071570Y0159839D01*
X0071570Y0161373D02*
X0072338Y0162141D01*
X0072338Y0163675D01*
X0071570Y0164442D01*
X0070803Y0164442D01*
X0070036Y0163675D01*
X0070036Y0162908D01*
X0070036Y0163675D02*
X0069269Y0164442D01*
X0068501Y0164442D01*
X0067734Y0163675D01*
X0067734Y0162141D01*
X0068501Y0161373D01*
X0068501Y0159839D02*
X0067734Y0159071D01*
X0067734Y0157537D01*
X0068501Y0156769D01*
X0068734Y0202700D02*
X0068734Y0204235D01*
X0068734Y0203467D02*
X0073338Y0203467D01*
X0073338Y0202700D02*
X0073338Y0204235D01*
X0072570Y0205769D02*
X0073338Y0206537D01*
X0073338Y0208071D01*
X0072570Y0208839D01*
X0073338Y0210373D02*
X0073338Y0213442D01*
X0073338Y0211908D02*
X0068734Y0211908D01*
X0070269Y0210373D01*
X0069501Y0208839D02*
X0068734Y0208071D01*
X0068734Y0206537D01*
X0069501Y0205769D01*
X0072570Y0205769D01*
X0224738Y0202304D02*
X0226272Y0202304D01*
X0225505Y0202304D02*
X0225505Y0197700D01*
X0224738Y0197700D02*
X0226272Y0197700D01*
X0227807Y0198467D02*
X0227807Y0201537D01*
X0228574Y0202304D01*
X0230109Y0202304D01*
X0230876Y0201537D01*
X0232411Y0201537D02*
X0233178Y0202304D01*
X0234713Y0202304D01*
X0235480Y0201537D01*
X0235480Y0200769D01*
X0232411Y0197700D01*
X0235480Y0197700D01*
X0230876Y0198467D02*
X0230109Y0197700D01*
X0228574Y0197700D01*
X0227807Y0198467D01*
X0290738Y0197467D02*
X0291505Y0196700D01*
X0293040Y0196700D01*
X0293807Y0197467D01*
X0293807Y0198235D01*
X0293040Y0199002D01*
X0292272Y0199002D01*
X0293040Y0199002D02*
X0293807Y0199769D01*
X0293807Y0200537D01*
X0293040Y0201304D01*
X0291505Y0201304D01*
X0290738Y0200537D01*
X0295342Y0197467D02*
X0296109Y0197467D01*
X0296109Y0196700D01*
X0295342Y0196700D01*
X0295342Y0197467D01*
X0297644Y0197467D02*
X0298411Y0196700D01*
X0299946Y0196700D01*
X0300713Y0197467D01*
X0300713Y0198235D01*
X0299946Y0199002D01*
X0299178Y0199002D01*
X0299946Y0199002D02*
X0300713Y0199769D01*
X0300713Y0200537D01*
X0299946Y0201304D01*
X0298411Y0201304D01*
X0297644Y0200537D01*
X0302248Y0201304D02*
X0302248Y0198235D01*
X0303782Y0196700D01*
X0305317Y0198235D01*
X0305317Y0201304D01*
X0311455Y0201304D02*
X0311455Y0196700D01*
X0311455Y0198235D02*
X0313757Y0198235D01*
X0314525Y0199002D01*
X0314525Y0200537D01*
X0313757Y0201304D01*
X0311455Y0201304D01*
X0312990Y0198235D02*
X0314525Y0196700D01*
X0316059Y0196700D02*
X0319129Y0196700D01*
X0320663Y0197467D02*
X0321431Y0196700D01*
X0322965Y0196700D01*
X0323733Y0197467D01*
X0323733Y0199002D01*
X0322198Y0199002D01*
X0323733Y0200537D02*
X0322965Y0201304D01*
X0321431Y0201304D01*
X0320663Y0200537D01*
X0320663Y0197467D01*
X0317594Y0199002D02*
X0316059Y0199002D01*
X0316059Y0201304D02*
X0316059Y0196700D01*
X0316059Y0201304D02*
X0319129Y0201304D01*
X0309921Y0195933D02*
X0306852Y0195933D01*
D14*
X0267658Y0222000D02*
X0267418Y0222000D01*
X0267418Y0234500D02*
X0267658Y0234500D01*
X0267918Y0248000D02*
X0268158Y0248000D01*
X0300038Y0284880D02*
X0300038Y0285120D01*
X0349538Y0296880D02*
X0349538Y0297120D01*
X0349538Y0302380D02*
X0349538Y0302620D01*
X0391663Y0298245D02*
X0391663Y0298005D01*
X0403043Y0301375D02*
X0403283Y0301375D01*
X0107658Y0300000D02*
X0107418Y0300000D01*
X0031538Y0274620D02*
X0031538Y0274380D01*
X0031538Y0247120D02*
X0031538Y0246880D01*
X0351918Y0018000D02*
X0352158Y0018000D01*
D15*
X0112105Y0134157D02*
X0110136Y0134157D01*
X0110136Y0183843D01*
X0112105Y0183843D01*
X0110136Y0183843D02*
X0082971Y0183843D01*
X0082971Y0186157D02*
X0110136Y0186157D01*
X0110136Y0235843D01*
X0112105Y0235843D01*
X0110136Y0235843D02*
X0082971Y0235843D01*
X0110136Y0186157D02*
X0112105Y0186157D01*
X0110136Y0134157D02*
X0082971Y0134157D01*
X0199695Y0218433D02*
X0199695Y0220402D01*
X0249380Y0220402D01*
X0249380Y0218433D01*
X0249380Y0220402D02*
X0249380Y0247567D01*
X0199695Y0247567D02*
X0199695Y0220402D01*
X0385195Y0275594D02*
X0385195Y0278744D01*
X0385195Y0284256D02*
X0385195Y0287406D01*
X0398581Y0281500D02*
X0398583Y0281539D01*
X0398589Y0281578D01*
X0398599Y0281616D01*
X0398612Y0281653D01*
X0398629Y0281688D01*
X0398649Y0281722D01*
X0398673Y0281753D01*
X0398700Y0281782D01*
X0398729Y0281808D01*
X0398761Y0281831D01*
X0398795Y0281851D01*
X0398831Y0281867D01*
X0398868Y0281879D01*
X0398907Y0281888D01*
X0398946Y0281893D01*
X0398985Y0281894D01*
X0399024Y0281891D01*
X0399063Y0281884D01*
X0399100Y0281873D01*
X0399137Y0281859D01*
X0399172Y0281841D01*
X0399205Y0281820D01*
X0399236Y0281795D01*
X0399264Y0281768D01*
X0399289Y0281738D01*
X0399311Y0281705D01*
X0399330Y0281671D01*
X0399345Y0281635D01*
X0399357Y0281597D01*
X0399365Y0281559D01*
X0399369Y0281520D01*
X0399369Y0281480D01*
X0399365Y0281441D01*
X0399357Y0281403D01*
X0399345Y0281365D01*
X0399330Y0281329D01*
X0399311Y0281295D01*
X0399289Y0281262D01*
X0399264Y0281232D01*
X0399236Y0281205D01*
X0399205Y0281180D01*
X0399172Y0281159D01*
X0399137Y0281141D01*
X0399100Y0281127D01*
X0399063Y0281116D01*
X0399024Y0281109D01*
X0398985Y0281106D01*
X0398946Y0281107D01*
X0398907Y0281112D01*
X0398868Y0281121D01*
X0398831Y0281133D01*
X0398795Y0281149D01*
X0398761Y0281169D01*
X0398729Y0281192D01*
X0398700Y0281218D01*
X0398673Y0281247D01*
X0398649Y0281278D01*
X0398629Y0281312D01*
X0398612Y0281347D01*
X0398599Y0281384D01*
X0398589Y0281422D01*
X0398583Y0281461D01*
X0398581Y0281500D01*
X0404880Y0278744D02*
X0404880Y0275594D01*
X0404880Y0284256D02*
X0404880Y0287406D01*
D16*
X0366912Y0287512D02*
X0366912Y0289874D01*
X0364550Y0289874D01*
X0353526Y0289874D02*
X0351164Y0289874D01*
X0351164Y0287512D01*
X0351164Y0276488D02*
X0353526Y0274126D01*
X0364550Y0274126D02*
X0366912Y0274126D01*
X0366912Y0276488D01*
D17*
X0331038Y0308500D03*
D18*
X0204538Y0223000D03*
X0107538Y0191000D03*
X0107538Y0139000D03*
M02*
