G75*
%MOIN*%
%OFA0B0*%
%FSLAX25Y25*%
%IPPOS*%
%LPD*%
%AMOC8*
5,1,8,0,0,1.08239X$1,22.5*
%
%ADD10C,0.00000*%
%ADD11C,0.00039*%
D10*
X0010538Y0001000D02*
X0010538Y0321000D01*
X0410538Y0321000D01*
X0410538Y0001000D01*
X0010538Y0001000D01*
X0025638Y0020500D02*
X0025640Y0020660D01*
X0025646Y0020819D01*
X0025656Y0020978D01*
X0025670Y0021137D01*
X0025688Y0021296D01*
X0025709Y0021454D01*
X0025735Y0021611D01*
X0025765Y0021768D01*
X0025798Y0021924D01*
X0025836Y0022079D01*
X0025877Y0022233D01*
X0025922Y0022386D01*
X0025971Y0022538D01*
X0026024Y0022689D01*
X0026080Y0022838D01*
X0026141Y0022986D01*
X0026204Y0023132D01*
X0026272Y0023277D01*
X0026343Y0023420D01*
X0026417Y0023561D01*
X0026495Y0023700D01*
X0026577Y0023837D01*
X0026662Y0023972D01*
X0026750Y0024105D01*
X0026842Y0024236D01*
X0026936Y0024364D01*
X0027034Y0024490D01*
X0027135Y0024614D01*
X0027239Y0024735D01*
X0027346Y0024853D01*
X0027456Y0024969D01*
X0027569Y0025082D01*
X0027685Y0025192D01*
X0027803Y0025299D01*
X0027924Y0025403D01*
X0028048Y0025504D01*
X0028174Y0025602D01*
X0028302Y0025696D01*
X0028433Y0025788D01*
X0028566Y0025876D01*
X0028701Y0025961D01*
X0028838Y0026043D01*
X0028977Y0026121D01*
X0029118Y0026195D01*
X0029261Y0026266D01*
X0029406Y0026334D01*
X0029552Y0026397D01*
X0029700Y0026458D01*
X0029849Y0026514D01*
X0030000Y0026567D01*
X0030152Y0026616D01*
X0030305Y0026661D01*
X0030459Y0026702D01*
X0030614Y0026740D01*
X0030770Y0026773D01*
X0030927Y0026803D01*
X0031084Y0026829D01*
X0031242Y0026850D01*
X0031401Y0026868D01*
X0031560Y0026882D01*
X0031719Y0026892D01*
X0031878Y0026898D01*
X0032038Y0026900D01*
X0032198Y0026898D01*
X0032357Y0026892D01*
X0032516Y0026882D01*
X0032675Y0026868D01*
X0032834Y0026850D01*
X0032992Y0026829D01*
X0033149Y0026803D01*
X0033306Y0026773D01*
X0033462Y0026740D01*
X0033617Y0026702D01*
X0033771Y0026661D01*
X0033924Y0026616D01*
X0034076Y0026567D01*
X0034227Y0026514D01*
X0034376Y0026458D01*
X0034524Y0026397D01*
X0034670Y0026334D01*
X0034815Y0026266D01*
X0034958Y0026195D01*
X0035099Y0026121D01*
X0035238Y0026043D01*
X0035375Y0025961D01*
X0035510Y0025876D01*
X0035643Y0025788D01*
X0035774Y0025696D01*
X0035902Y0025602D01*
X0036028Y0025504D01*
X0036152Y0025403D01*
X0036273Y0025299D01*
X0036391Y0025192D01*
X0036507Y0025082D01*
X0036620Y0024969D01*
X0036730Y0024853D01*
X0036837Y0024735D01*
X0036941Y0024614D01*
X0037042Y0024490D01*
X0037140Y0024364D01*
X0037234Y0024236D01*
X0037326Y0024105D01*
X0037414Y0023972D01*
X0037499Y0023837D01*
X0037581Y0023700D01*
X0037659Y0023561D01*
X0037733Y0023420D01*
X0037804Y0023277D01*
X0037872Y0023132D01*
X0037935Y0022986D01*
X0037996Y0022838D01*
X0038052Y0022689D01*
X0038105Y0022538D01*
X0038154Y0022386D01*
X0038199Y0022233D01*
X0038240Y0022079D01*
X0038278Y0021924D01*
X0038311Y0021768D01*
X0038341Y0021611D01*
X0038367Y0021454D01*
X0038388Y0021296D01*
X0038406Y0021137D01*
X0038420Y0020978D01*
X0038430Y0020819D01*
X0038436Y0020660D01*
X0038438Y0020500D01*
X0038436Y0020340D01*
X0038430Y0020181D01*
X0038420Y0020022D01*
X0038406Y0019863D01*
X0038388Y0019704D01*
X0038367Y0019546D01*
X0038341Y0019389D01*
X0038311Y0019232D01*
X0038278Y0019076D01*
X0038240Y0018921D01*
X0038199Y0018767D01*
X0038154Y0018614D01*
X0038105Y0018462D01*
X0038052Y0018311D01*
X0037996Y0018162D01*
X0037935Y0018014D01*
X0037872Y0017868D01*
X0037804Y0017723D01*
X0037733Y0017580D01*
X0037659Y0017439D01*
X0037581Y0017300D01*
X0037499Y0017163D01*
X0037414Y0017028D01*
X0037326Y0016895D01*
X0037234Y0016764D01*
X0037140Y0016636D01*
X0037042Y0016510D01*
X0036941Y0016386D01*
X0036837Y0016265D01*
X0036730Y0016147D01*
X0036620Y0016031D01*
X0036507Y0015918D01*
X0036391Y0015808D01*
X0036273Y0015701D01*
X0036152Y0015597D01*
X0036028Y0015496D01*
X0035902Y0015398D01*
X0035774Y0015304D01*
X0035643Y0015212D01*
X0035510Y0015124D01*
X0035375Y0015039D01*
X0035238Y0014957D01*
X0035099Y0014879D01*
X0034958Y0014805D01*
X0034815Y0014734D01*
X0034670Y0014666D01*
X0034524Y0014603D01*
X0034376Y0014542D01*
X0034227Y0014486D01*
X0034076Y0014433D01*
X0033924Y0014384D01*
X0033771Y0014339D01*
X0033617Y0014298D01*
X0033462Y0014260D01*
X0033306Y0014227D01*
X0033149Y0014197D01*
X0032992Y0014171D01*
X0032834Y0014150D01*
X0032675Y0014132D01*
X0032516Y0014118D01*
X0032357Y0014108D01*
X0032198Y0014102D01*
X0032038Y0014100D01*
X0031878Y0014102D01*
X0031719Y0014108D01*
X0031560Y0014118D01*
X0031401Y0014132D01*
X0031242Y0014150D01*
X0031084Y0014171D01*
X0030927Y0014197D01*
X0030770Y0014227D01*
X0030614Y0014260D01*
X0030459Y0014298D01*
X0030305Y0014339D01*
X0030152Y0014384D01*
X0030000Y0014433D01*
X0029849Y0014486D01*
X0029700Y0014542D01*
X0029552Y0014603D01*
X0029406Y0014666D01*
X0029261Y0014734D01*
X0029118Y0014805D01*
X0028977Y0014879D01*
X0028838Y0014957D01*
X0028701Y0015039D01*
X0028566Y0015124D01*
X0028433Y0015212D01*
X0028302Y0015304D01*
X0028174Y0015398D01*
X0028048Y0015496D01*
X0027924Y0015597D01*
X0027803Y0015701D01*
X0027685Y0015808D01*
X0027569Y0015918D01*
X0027456Y0016031D01*
X0027346Y0016147D01*
X0027239Y0016265D01*
X0027135Y0016386D01*
X0027034Y0016510D01*
X0026936Y0016636D01*
X0026842Y0016764D01*
X0026750Y0016895D01*
X0026662Y0017028D01*
X0026577Y0017163D01*
X0026495Y0017300D01*
X0026417Y0017439D01*
X0026343Y0017580D01*
X0026272Y0017723D01*
X0026204Y0017868D01*
X0026141Y0018014D01*
X0026080Y0018162D01*
X0026024Y0018311D01*
X0025971Y0018462D01*
X0025922Y0018614D01*
X0025877Y0018767D01*
X0025836Y0018921D01*
X0025798Y0019076D01*
X0025765Y0019232D01*
X0025735Y0019389D01*
X0025709Y0019546D01*
X0025688Y0019704D01*
X0025670Y0019863D01*
X0025656Y0020022D01*
X0025646Y0020181D01*
X0025640Y0020340D01*
X0025638Y0020500D01*
X0025638Y0065500D02*
X0025640Y0065660D01*
X0025646Y0065819D01*
X0025656Y0065978D01*
X0025670Y0066137D01*
X0025688Y0066296D01*
X0025709Y0066454D01*
X0025735Y0066611D01*
X0025765Y0066768D01*
X0025798Y0066924D01*
X0025836Y0067079D01*
X0025877Y0067233D01*
X0025922Y0067386D01*
X0025971Y0067538D01*
X0026024Y0067689D01*
X0026080Y0067838D01*
X0026141Y0067986D01*
X0026204Y0068132D01*
X0026272Y0068277D01*
X0026343Y0068420D01*
X0026417Y0068561D01*
X0026495Y0068700D01*
X0026577Y0068837D01*
X0026662Y0068972D01*
X0026750Y0069105D01*
X0026842Y0069236D01*
X0026936Y0069364D01*
X0027034Y0069490D01*
X0027135Y0069614D01*
X0027239Y0069735D01*
X0027346Y0069853D01*
X0027456Y0069969D01*
X0027569Y0070082D01*
X0027685Y0070192D01*
X0027803Y0070299D01*
X0027924Y0070403D01*
X0028048Y0070504D01*
X0028174Y0070602D01*
X0028302Y0070696D01*
X0028433Y0070788D01*
X0028566Y0070876D01*
X0028701Y0070961D01*
X0028838Y0071043D01*
X0028977Y0071121D01*
X0029118Y0071195D01*
X0029261Y0071266D01*
X0029406Y0071334D01*
X0029552Y0071397D01*
X0029700Y0071458D01*
X0029849Y0071514D01*
X0030000Y0071567D01*
X0030152Y0071616D01*
X0030305Y0071661D01*
X0030459Y0071702D01*
X0030614Y0071740D01*
X0030770Y0071773D01*
X0030927Y0071803D01*
X0031084Y0071829D01*
X0031242Y0071850D01*
X0031401Y0071868D01*
X0031560Y0071882D01*
X0031719Y0071892D01*
X0031878Y0071898D01*
X0032038Y0071900D01*
X0032198Y0071898D01*
X0032357Y0071892D01*
X0032516Y0071882D01*
X0032675Y0071868D01*
X0032834Y0071850D01*
X0032992Y0071829D01*
X0033149Y0071803D01*
X0033306Y0071773D01*
X0033462Y0071740D01*
X0033617Y0071702D01*
X0033771Y0071661D01*
X0033924Y0071616D01*
X0034076Y0071567D01*
X0034227Y0071514D01*
X0034376Y0071458D01*
X0034524Y0071397D01*
X0034670Y0071334D01*
X0034815Y0071266D01*
X0034958Y0071195D01*
X0035099Y0071121D01*
X0035238Y0071043D01*
X0035375Y0070961D01*
X0035510Y0070876D01*
X0035643Y0070788D01*
X0035774Y0070696D01*
X0035902Y0070602D01*
X0036028Y0070504D01*
X0036152Y0070403D01*
X0036273Y0070299D01*
X0036391Y0070192D01*
X0036507Y0070082D01*
X0036620Y0069969D01*
X0036730Y0069853D01*
X0036837Y0069735D01*
X0036941Y0069614D01*
X0037042Y0069490D01*
X0037140Y0069364D01*
X0037234Y0069236D01*
X0037326Y0069105D01*
X0037414Y0068972D01*
X0037499Y0068837D01*
X0037581Y0068700D01*
X0037659Y0068561D01*
X0037733Y0068420D01*
X0037804Y0068277D01*
X0037872Y0068132D01*
X0037935Y0067986D01*
X0037996Y0067838D01*
X0038052Y0067689D01*
X0038105Y0067538D01*
X0038154Y0067386D01*
X0038199Y0067233D01*
X0038240Y0067079D01*
X0038278Y0066924D01*
X0038311Y0066768D01*
X0038341Y0066611D01*
X0038367Y0066454D01*
X0038388Y0066296D01*
X0038406Y0066137D01*
X0038420Y0065978D01*
X0038430Y0065819D01*
X0038436Y0065660D01*
X0038438Y0065500D01*
X0038436Y0065340D01*
X0038430Y0065181D01*
X0038420Y0065022D01*
X0038406Y0064863D01*
X0038388Y0064704D01*
X0038367Y0064546D01*
X0038341Y0064389D01*
X0038311Y0064232D01*
X0038278Y0064076D01*
X0038240Y0063921D01*
X0038199Y0063767D01*
X0038154Y0063614D01*
X0038105Y0063462D01*
X0038052Y0063311D01*
X0037996Y0063162D01*
X0037935Y0063014D01*
X0037872Y0062868D01*
X0037804Y0062723D01*
X0037733Y0062580D01*
X0037659Y0062439D01*
X0037581Y0062300D01*
X0037499Y0062163D01*
X0037414Y0062028D01*
X0037326Y0061895D01*
X0037234Y0061764D01*
X0037140Y0061636D01*
X0037042Y0061510D01*
X0036941Y0061386D01*
X0036837Y0061265D01*
X0036730Y0061147D01*
X0036620Y0061031D01*
X0036507Y0060918D01*
X0036391Y0060808D01*
X0036273Y0060701D01*
X0036152Y0060597D01*
X0036028Y0060496D01*
X0035902Y0060398D01*
X0035774Y0060304D01*
X0035643Y0060212D01*
X0035510Y0060124D01*
X0035375Y0060039D01*
X0035238Y0059957D01*
X0035099Y0059879D01*
X0034958Y0059805D01*
X0034815Y0059734D01*
X0034670Y0059666D01*
X0034524Y0059603D01*
X0034376Y0059542D01*
X0034227Y0059486D01*
X0034076Y0059433D01*
X0033924Y0059384D01*
X0033771Y0059339D01*
X0033617Y0059298D01*
X0033462Y0059260D01*
X0033306Y0059227D01*
X0033149Y0059197D01*
X0032992Y0059171D01*
X0032834Y0059150D01*
X0032675Y0059132D01*
X0032516Y0059118D01*
X0032357Y0059108D01*
X0032198Y0059102D01*
X0032038Y0059100D01*
X0031878Y0059102D01*
X0031719Y0059108D01*
X0031560Y0059118D01*
X0031401Y0059132D01*
X0031242Y0059150D01*
X0031084Y0059171D01*
X0030927Y0059197D01*
X0030770Y0059227D01*
X0030614Y0059260D01*
X0030459Y0059298D01*
X0030305Y0059339D01*
X0030152Y0059384D01*
X0030000Y0059433D01*
X0029849Y0059486D01*
X0029700Y0059542D01*
X0029552Y0059603D01*
X0029406Y0059666D01*
X0029261Y0059734D01*
X0029118Y0059805D01*
X0028977Y0059879D01*
X0028838Y0059957D01*
X0028701Y0060039D01*
X0028566Y0060124D01*
X0028433Y0060212D01*
X0028302Y0060304D01*
X0028174Y0060398D01*
X0028048Y0060496D01*
X0027924Y0060597D01*
X0027803Y0060701D01*
X0027685Y0060808D01*
X0027569Y0060918D01*
X0027456Y0061031D01*
X0027346Y0061147D01*
X0027239Y0061265D01*
X0027135Y0061386D01*
X0027034Y0061510D01*
X0026936Y0061636D01*
X0026842Y0061764D01*
X0026750Y0061895D01*
X0026662Y0062028D01*
X0026577Y0062163D01*
X0026495Y0062300D01*
X0026417Y0062439D01*
X0026343Y0062580D01*
X0026272Y0062723D01*
X0026204Y0062868D01*
X0026141Y0063014D01*
X0026080Y0063162D01*
X0026024Y0063311D01*
X0025971Y0063462D01*
X0025922Y0063614D01*
X0025877Y0063767D01*
X0025836Y0063921D01*
X0025798Y0064076D01*
X0025765Y0064232D01*
X0025735Y0064389D01*
X0025709Y0064546D01*
X0025688Y0064704D01*
X0025670Y0064863D01*
X0025656Y0065022D01*
X0025646Y0065181D01*
X0025640Y0065340D01*
X0025638Y0065500D01*
X0146648Y0166496D02*
X0146650Y0166649D01*
X0146656Y0166803D01*
X0146666Y0166956D01*
X0146680Y0167108D01*
X0146698Y0167261D01*
X0146720Y0167412D01*
X0146745Y0167563D01*
X0146775Y0167714D01*
X0146809Y0167864D01*
X0146846Y0168012D01*
X0146887Y0168160D01*
X0146932Y0168306D01*
X0146981Y0168452D01*
X0147034Y0168596D01*
X0147090Y0168738D01*
X0147150Y0168879D01*
X0147214Y0169019D01*
X0147281Y0169157D01*
X0147352Y0169293D01*
X0147427Y0169427D01*
X0147504Y0169559D01*
X0147586Y0169689D01*
X0147670Y0169817D01*
X0147758Y0169943D01*
X0147849Y0170066D01*
X0147943Y0170187D01*
X0148041Y0170305D01*
X0148141Y0170421D01*
X0148245Y0170534D01*
X0148351Y0170645D01*
X0148460Y0170753D01*
X0148572Y0170858D01*
X0148686Y0170959D01*
X0148804Y0171058D01*
X0148923Y0171154D01*
X0149045Y0171247D01*
X0149170Y0171336D01*
X0149297Y0171423D01*
X0149426Y0171505D01*
X0149557Y0171585D01*
X0149690Y0171661D01*
X0149825Y0171734D01*
X0149962Y0171803D01*
X0150101Y0171868D01*
X0150241Y0171930D01*
X0150383Y0171988D01*
X0150526Y0172043D01*
X0150671Y0172094D01*
X0150817Y0172141D01*
X0150964Y0172184D01*
X0151112Y0172223D01*
X0151261Y0172259D01*
X0151411Y0172290D01*
X0151562Y0172318D01*
X0151713Y0172342D01*
X0151866Y0172362D01*
X0152018Y0172378D01*
X0152171Y0172390D01*
X0152324Y0172398D01*
X0152477Y0172402D01*
X0152631Y0172402D01*
X0152784Y0172398D01*
X0152937Y0172390D01*
X0153090Y0172378D01*
X0153242Y0172362D01*
X0153395Y0172342D01*
X0153546Y0172318D01*
X0153697Y0172290D01*
X0153847Y0172259D01*
X0153996Y0172223D01*
X0154144Y0172184D01*
X0154291Y0172141D01*
X0154437Y0172094D01*
X0154582Y0172043D01*
X0154725Y0171988D01*
X0154867Y0171930D01*
X0155007Y0171868D01*
X0155146Y0171803D01*
X0155283Y0171734D01*
X0155418Y0171661D01*
X0155551Y0171585D01*
X0155682Y0171505D01*
X0155811Y0171423D01*
X0155938Y0171336D01*
X0156063Y0171247D01*
X0156185Y0171154D01*
X0156304Y0171058D01*
X0156422Y0170959D01*
X0156536Y0170858D01*
X0156648Y0170753D01*
X0156757Y0170645D01*
X0156863Y0170534D01*
X0156967Y0170421D01*
X0157067Y0170305D01*
X0157165Y0170187D01*
X0157259Y0170066D01*
X0157350Y0169943D01*
X0157438Y0169817D01*
X0157522Y0169689D01*
X0157604Y0169559D01*
X0157681Y0169427D01*
X0157756Y0169293D01*
X0157827Y0169157D01*
X0157894Y0169019D01*
X0157958Y0168879D01*
X0158018Y0168738D01*
X0158074Y0168596D01*
X0158127Y0168452D01*
X0158176Y0168306D01*
X0158221Y0168160D01*
X0158262Y0168012D01*
X0158299Y0167864D01*
X0158333Y0167714D01*
X0158363Y0167563D01*
X0158388Y0167412D01*
X0158410Y0167261D01*
X0158428Y0167108D01*
X0158442Y0166956D01*
X0158452Y0166803D01*
X0158458Y0166649D01*
X0158460Y0166496D01*
X0158458Y0166343D01*
X0158452Y0166189D01*
X0158442Y0166036D01*
X0158428Y0165884D01*
X0158410Y0165731D01*
X0158388Y0165580D01*
X0158363Y0165429D01*
X0158333Y0165278D01*
X0158299Y0165128D01*
X0158262Y0164980D01*
X0158221Y0164832D01*
X0158176Y0164686D01*
X0158127Y0164540D01*
X0158074Y0164396D01*
X0158018Y0164254D01*
X0157958Y0164113D01*
X0157894Y0163973D01*
X0157827Y0163835D01*
X0157756Y0163699D01*
X0157681Y0163565D01*
X0157604Y0163433D01*
X0157522Y0163303D01*
X0157438Y0163175D01*
X0157350Y0163049D01*
X0157259Y0162926D01*
X0157165Y0162805D01*
X0157067Y0162687D01*
X0156967Y0162571D01*
X0156863Y0162458D01*
X0156757Y0162347D01*
X0156648Y0162239D01*
X0156536Y0162134D01*
X0156422Y0162033D01*
X0156304Y0161934D01*
X0156185Y0161838D01*
X0156063Y0161745D01*
X0155938Y0161656D01*
X0155811Y0161569D01*
X0155682Y0161487D01*
X0155551Y0161407D01*
X0155418Y0161331D01*
X0155283Y0161258D01*
X0155146Y0161189D01*
X0155007Y0161124D01*
X0154867Y0161062D01*
X0154725Y0161004D01*
X0154582Y0160949D01*
X0154437Y0160898D01*
X0154291Y0160851D01*
X0154144Y0160808D01*
X0153996Y0160769D01*
X0153847Y0160733D01*
X0153697Y0160702D01*
X0153546Y0160674D01*
X0153395Y0160650D01*
X0153242Y0160630D01*
X0153090Y0160614D01*
X0152937Y0160602D01*
X0152784Y0160594D01*
X0152631Y0160590D01*
X0152477Y0160590D01*
X0152324Y0160594D01*
X0152171Y0160602D01*
X0152018Y0160614D01*
X0151866Y0160630D01*
X0151713Y0160650D01*
X0151562Y0160674D01*
X0151411Y0160702D01*
X0151261Y0160733D01*
X0151112Y0160769D01*
X0150964Y0160808D01*
X0150817Y0160851D01*
X0150671Y0160898D01*
X0150526Y0160949D01*
X0150383Y0161004D01*
X0150241Y0161062D01*
X0150101Y0161124D01*
X0149962Y0161189D01*
X0149825Y0161258D01*
X0149690Y0161331D01*
X0149557Y0161407D01*
X0149426Y0161487D01*
X0149297Y0161569D01*
X0149170Y0161656D01*
X0149045Y0161745D01*
X0148923Y0161838D01*
X0148804Y0161934D01*
X0148686Y0162033D01*
X0148572Y0162134D01*
X0148460Y0162239D01*
X0148351Y0162347D01*
X0148245Y0162458D01*
X0148141Y0162571D01*
X0148041Y0162687D01*
X0147943Y0162805D01*
X0147849Y0162926D01*
X0147758Y0163049D01*
X0147670Y0163175D01*
X0147586Y0163303D01*
X0147504Y0163433D01*
X0147427Y0163565D01*
X0147352Y0163699D01*
X0147281Y0163835D01*
X0147214Y0163973D01*
X0147150Y0164113D01*
X0147090Y0164254D01*
X0147034Y0164396D01*
X0146981Y0164540D01*
X0146932Y0164686D01*
X0146887Y0164832D01*
X0146846Y0164980D01*
X0146809Y0165128D01*
X0146775Y0165278D01*
X0146745Y0165429D01*
X0146720Y0165580D01*
X0146698Y0165731D01*
X0146680Y0165884D01*
X0146666Y0166036D01*
X0146656Y0166189D01*
X0146650Y0166343D01*
X0146648Y0166496D01*
X0146648Y0203504D02*
X0146650Y0203657D01*
X0146656Y0203811D01*
X0146666Y0203964D01*
X0146680Y0204116D01*
X0146698Y0204269D01*
X0146720Y0204420D01*
X0146745Y0204571D01*
X0146775Y0204722D01*
X0146809Y0204872D01*
X0146846Y0205020D01*
X0146887Y0205168D01*
X0146932Y0205314D01*
X0146981Y0205460D01*
X0147034Y0205604D01*
X0147090Y0205746D01*
X0147150Y0205887D01*
X0147214Y0206027D01*
X0147281Y0206165D01*
X0147352Y0206301D01*
X0147427Y0206435D01*
X0147504Y0206567D01*
X0147586Y0206697D01*
X0147670Y0206825D01*
X0147758Y0206951D01*
X0147849Y0207074D01*
X0147943Y0207195D01*
X0148041Y0207313D01*
X0148141Y0207429D01*
X0148245Y0207542D01*
X0148351Y0207653D01*
X0148460Y0207761D01*
X0148572Y0207866D01*
X0148686Y0207967D01*
X0148804Y0208066D01*
X0148923Y0208162D01*
X0149045Y0208255D01*
X0149170Y0208344D01*
X0149297Y0208431D01*
X0149426Y0208513D01*
X0149557Y0208593D01*
X0149690Y0208669D01*
X0149825Y0208742D01*
X0149962Y0208811D01*
X0150101Y0208876D01*
X0150241Y0208938D01*
X0150383Y0208996D01*
X0150526Y0209051D01*
X0150671Y0209102D01*
X0150817Y0209149D01*
X0150964Y0209192D01*
X0151112Y0209231D01*
X0151261Y0209267D01*
X0151411Y0209298D01*
X0151562Y0209326D01*
X0151713Y0209350D01*
X0151866Y0209370D01*
X0152018Y0209386D01*
X0152171Y0209398D01*
X0152324Y0209406D01*
X0152477Y0209410D01*
X0152631Y0209410D01*
X0152784Y0209406D01*
X0152937Y0209398D01*
X0153090Y0209386D01*
X0153242Y0209370D01*
X0153395Y0209350D01*
X0153546Y0209326D01*
X0153697Y0209298D01*
X0153847Y0209267D01*
X0153996Y0209231D01*
X0154144Y0209192D01*
X0154291Y0209149D01*
X0154437Y0209102D01*
X0154582Y0209051D01*
X0154725Y0208996D01*
X0154867Y0208938D01*
X0155007Y0208876D01*
X0155146Y0208811D01*
X0155283Y0208742D01*
X0155418Y0208669D01*
X0155551Y0208593D01*
X0155682Y0208513D01*
X0155811Y0208431D01*
X0155938Y0208344D01*
X0156063Y0208255D01*
X0156185Y0208162D01*
X0156304Y0208066D01*
X0156422Y0207967D01*
X0156536Y0207866D01*
X0156648Y0207761D01*
X0156757Y0207653D01*
X0156863Y0207542D01*
X0156967Y0207429D01*
X0157067Y0207313D01*
X0157165Y0207195D01*
X0157259Y0207074D01*
X0157350Y0206951D01*
X0157438Y0206825D01*
X0157522Y0206697D01*
X0157604Y0206567D01*
X0157681Y0206435D01*
X0157756Y0206301D01*
X0157827Y0206165D01*
X0157894Y0206027D01*
X0157958Y0205887D01*
X0158018Y0205746D01*
X0158074Y0205604D01*
X0158127Y0205460D01*
X0158176Y0205314D01*
X0158221Y0205168D01*
X0158262Y0205020D01*
X0158299Y0204872D01*
X0158333Y0204722D01*
X0158363Y0204571D01*
X0158388Y0204420D01*
X0158410Y0204269D01*
X0158428Y0204116D01*
X0158442Y0203964D01*
X0158452Y0203811D01*
X0158458Y0203657D01*
X0158460Y0203504D01*
X0158458Y0203351D01*
X0158452Y0203197D01*
X0158442Y0203044D01*
X0158428Y0202892D01*
X0158410Y0202739D01*
X0158388Y0202588D01*
X0158363Y0202437D01*
X0158333Y0202286D01*
X0158299Y0202136D01*
X0158262Y0201988D01*
X0158221Y0201840D01*
X0158176Y0201694D01*
X0158127Y0201548D01*
X0158074Y0201404D01*
X0158018Y0201262D01*
X0157958Y0201121D01*
X0157894Y0200981D01*
X0157827Y0200843D01*
X0157756Y0200707D01*
X0157681Y0200573D01*
X0157604Y0200441D01*
X0157522Y0200311D01*
X0157438Y0200183D01*
X0157350Y0200057D01*
X0157259Y0199934D01*
X0157165Y0199813D01*
X0157067Y0199695D01*
X0156967Y0199579D01*
X0156863Y0199466D01*
X0156757Y0199355D01*
X0156648Y0199247D01*
X0156536Y0199142D01*
X0156422Y0199041D01*
X0156304Y0198942D01*
X0156185Y0198846D01*
X0156063Y0198753D01*
X0155938Y0198664D01*
X0155811Y0198577D01*
X0155682Y0198495D01*
X0155551Y0198415D01*
X0155418Y0198339D01*
X0155283Y0198266D01*
X0155146Y0198197D01*
X0155007Y0198132D01*
X0154867Y0198070D01*
X0154725Y0198012D01*
X0154582Y0197957D01*
X0154437Y0197906D01*
X0154291Y0197859D01*
X0154144Y0197816D01*
X0153996Y0197777D01*
X0153847Y0197741D01*
X0153697Y0197710D01*
X0153546Y0197682D01*
X0153395Y0197658D01*
X0153242Y0197638D01*
X0153090Y0197622D01*
X0152937Y0197610D01*
X0152784Y0197602D01*
X0152631Y0197598D01*
X0152477Y0197598D01*
X0152324Y0197602D01*
X0152171Y0197610D01*
X0152018Y0197622D01*
X0151866Y0197638D01*
X0151713Y0197658D01*
X0151562Y0197682D01*
X0151411Y0197710D01*
X0151261Y0197741D01*
X0151112Y0197777D01*
X0150964Y0197816D01*
X0150817Y0197859D01*
X0150671Y0197906D01*
X0150526Y0197957D01*
X0150383Y0198012D01*
X0150241Y0198070D01*
X0150101Y0198132D01*
X0149962Y0198197D01*
X0149825Y0198266D01*
X0149690Y0198339D01*
X0149557Y0198415D01*
X0149426Y0198495D01*
X0149297Y0198577D01*
X0149170Y0198664D01*
X0149045Y0198753D01*
X0148923Y0198846D01*
X0148804Y0198942D01*
X0148686Y0199041D01*
X0148572Y0199142D01*
X0148460Y0199247D01*
X0148351Y0199355D01*
X0148245Y0199466D01*
X0148141Y0199579D01*
X0148041Y0199695D01*
X0147943Y0199813D01*
X0147849Y0199934D01*
X0147758Y0200057D01*
X0147670Y0200183D01*
X0147586Y0200311D01*
X0147504Y0200441D01*
X0147427Y0200573D01*
X0147352Y0200707D01*
X0147281Y0200843D01*
X0147214Y0200981D01*
X0147150Y0201121D01*
X0147090Y0201262D01*
X0147034Y0201404D01*
X0146981Y0201548D01*
X0146932Y0201694D01*
X0146887Y0201840D01*
X0146846Y0201988D01*
X0146809Y0202136D01*
X0146775Y0202286D01*
X0146745Y0202437D01*
X0146720Y0202588D01*
X0146698Y0202739D01*
X0146680Y0202892D01*
X0146666Y0203044D01*
X0146656Y0203197D01*
X0146650Y0203351D01*
X0146648Y0203504D01*
X0353038Y0265150D02*
X0353040Y0265249D01*
X0353046Y0265349D01*
X0353056Y0265448D01*
X0353070Y0265546D01*
X0353087Y0265644D01*
X0353109Y0265741D01*
X0353134Y0265837D01*
X0353163Y0265932D01*
X0353196Y0266026D01*
X0353233Y0266118D01*
X0353273Y0266209D01*
X0353317Y0266298D01*
X0353365Y0266386D01*
X0353416Y0266471D01*
X0353470Y0266554D01*
X0353527Y0266636D01*
X0353588Y0266714D01*
X0353652Y0266791D01*
X0353718Y0266864D01*
X0353788Y0266935D01*
X0353860Y0267003D01*
X0353935Y0267069D01*
X0354013Y0267131D01*
X0354093Y0267190D01*
X0354175Y0267246D01*
X0354259Y0267298D01*
X0354346Y0267347D01*
X0354434Y0267393D01*
X0354524Y0267435D01*
X0354616Y0267474D01*
X0354709Y0267509D01*
X0354803Y0267540D01*
X0354899Y0267567D01*
X0354996Y0267590D01*
X0355093Y0267610D01*
X0355191Y0267626D01*
X0355290Y0267638D01*
X0355389Y0267646D01*
X0355488Y0267650D01*
X0355588Y0267650D01*
X0355687Y0267646D01*
X0355786Y0267638D01*
X0355885Y0267626D01*
X0355983Y0267610D01*
X0356080Y0267590D01*
X0356177Y0267567D01*
X0356273Y0267540D01*
X0356367Y0267509D01*
X0356460Y0267474D01*
X0356552Y0267435D01*
X0356642Y0267393D01*
X0356730Y0267347D01*
X0356817Y0267298D01*
X0356901Y0267246D01*
X0356983Y0267190D01*
X0357063Y0267131D01*
X0357141Y0267069D01*
X0357216Y0267003D01*
X0357288Y0266935D01*
X0357358Y0266864D01*
X0357424Y0266791D01*
X0357488Y0266714D01*
X0357549Y0266636D01*
X0357606Y0266554D01*
X0357660Y0266471D01*
X0357711Y0266386D01*
X0357759Y0266298D01*
X0357803Y0266209D01*
X0357843Y0266118D01*
X0357880Y0266026D01*
X0357913Y0265932D01*
X0357942Y0265837D01*
X0357967Y0265741D01*
X0357989Y0265644D01*
X0358006Y0265546D01*
X0358020Y0265448D01*
X0358030Y0265349D01*
X0358036Y0265249D01*
X0358038Y0265150D01*
X0358036Y0265051D01*
X0358030Y0264951D01*
X0358020Y0264852D01*
X0358006Y0264754D01*
X0357989Y0264656D01*
X0357967Y0264559D01*
X0357942Y0264463D01*
X0357913Y0264368D01*
X0357880Y0264274D01*
X0357843Y0264182D01*
X0357803Y0264091D01*
X0357759Y0264002D01*
X0357711Y0263914D01*
X0357660Y0263829D01*
X0357606Y0263746D01*
X0357549Y0263664D01*
X0357488Y0263586D01*
X0357424Y0263509D01*
X0357358Y0263436D01*
X0357288Y0263365D01*
X0357216Y0263297D01*
X0357141Y0263231D01*
X0357063Y0263169D01*
X0356983Y0263110D01*
X0356901Y0263054D01*
X0356817Y0263002D01*
X0356730Y0262953D01*
X0356642Y0262907D01*
X0356552Y0262865D01*
X0356460Y0262826D01*
X0356367Y0262791D01*
X0356273Y0262760D01*
X0356177Y0262733D01*
X0356080Y0262710D01*
X0355983Y0262690D01*
X0355885Y0262674D01*
X0355786Y0262662D01*
X0355687Y0262654D01*
X0355588Y0262650D01*
X0355488Y0262650D01*
X0355389Y0262654D01*
X0355290Y0262662D01*
X0355191Y0262674D01*
X0355093Y0262690D01*
X0354996Y0262710D01*
X0354899Y0262733D01*
X0354803Y0262760D01*
X0354709Y0262791D01*
X0354616Y0262826D01*
X0354524Y0262865D01*
X0354434Y0262907D01*
X0354346Y0262953D01*
X0354259Y0263002D01*
X0354175Y0263054D01*
X0354093Y0263110D01*
X0354013Y0263169D01*
X0353935Y0263231D01*
X0353860Y0263297D01*
X0353788Y0263365D01*
X0353718Y0263436D01*
X0353652Y0263509D01*
X0353588Y0263586D01*
X0353527Y0263664D01*
X0353470Y0263746D01*
X0353416Y0263829D01*
X0353365Y0263914D01*
X0353317Y0264002D01*
X0353273Y0264091D01*
X0353233Y0264182D01*
X0353196Y0264274D01*
X0353163Y0264368D01*
X0353134Y0264463D01*
X0353109Y0264559D01*
X0353087Y0264656D01*
X0353070Y0264754D01*
X0353056Y0264852D01*
X0353046Y0264951D01*
X0353040Y0265051D01*
X0353038Y0265150D01*
X0365038Y0051050D02*
X0365040Y0051149D01*
X0365046Y0051249D01*
X0365056Y0051348D01*
X0365070Y0051446D01*
X0365087Y0051544D01*
X0365109Y0051641D01*
X0365134Y0051737D01*
X0365163Y0051832D01*
X0365196Y0051926D01*
X0365233Y0052018D01*
X0365273Y0052109D01*
X0365317Y0052198D01*
X0365365Y0052286D01*
X0365416Y0052371D01*
X0365470Y0052454D01*
X0365527Y0052536D01*
X0365588Y0052614D01*
X0365652Y0052691D01*
X0365718Y0052764D01*
X0365788Y0052835D01*
X0365860Y0052903D01*
X0365935Y0052969D01*
X0366013Y0053031D01*
X0366093Y0053090D01*
X0366175Y0053146D01*
X0366259Y0053198D01*
X0366346Y0053247D01*
X0366434Y0053293D01*
X0366524Y0053335D01*
X0366616Y0053374D01*
X0366709Y0053409D01*
X0366803Y0053440D01*
X0366899Y0053467D01*
X0366996Y0053490D01*
X0367093Y0053510D01*
X0367191Y0053526D01*
X0367290Y0053538D01*
X0367389Y0053546D01*
X0367488Y0053550D01*
X0367588Y0053550D01*
X0367687Y0053546D01*
X0367786Y0053538D01*
X0367885Y0053526D01*
X0367983Y0053510D01*
X0368080Y0053490D01*
X0368177Y0053467D01*
X0368273Y0053440D01*
X0368367Y0053409D01*
X0368460Y0053374D01*
X0368552Y0053335D01*
X0368642Y0053293D01*
X0368730Y0053247D01*
X0368817Y0053198D01*
X0368901Y0053146D01*
X0368983Y0053090D01*
X0369063Y0053031D01*
X0369141Y0052969D01*
X0369216Y0052903D01*
X0369288Y0052835D01*
X0369358Y0052764D01*
X0369424Y0052691D01*
X0369488Y0052614D01*
X0369549Y0052536D01*
X0369606Y0052454D01*
X0369660Y0052371D01*
X0369711Y0052286D01*
X0369759Y0052198D01*
X0369803Y0052109D01*
X0369843Y0052018D01*
X0369880Y0051926D01*
X0369913Y0051832D01*
X0369942Y0051737D01*
X0369967Y0051641D01*
X0369989Y0051544D01*
X0370006Y0051446D01*
X0370020Y0051348D01*
X0370030Y0051249D01*
X0370036Y0051149D01*
X0370038Y0051050D01*
X0370036Y0050951D01*
X0370030Y0050851D01*
X0370020Y0050752D01*
X0370006Y0050654D01*
X0369989Y0050556D01*
X0369967Y0050459D01*
X0369942Y0050363D01*
X0369913Y0050268D01*
X0369880Y0050174D01*
X0369843Y0050082D01*
X0369803Y0049991D01*
X0369759Y0049902D01*
X0369711Y0049814D01*
X0369660Y0049729D01*
X0369606Y0049646D01*
X0369549Y0049564D01*
X0369488Y0049486D01*
X0369424Y0049409D01*
X0369358Y0049336D01*
X0369288Y0049265D01*
X0369216Y0049197D01*
X0369141Y0049131D01*
X0369063Y0049069D01*
X0368983Y0049010D01*
X0368901Y0048954D01*
X0368817Y0048902D01*
X0368730Y0048853D01*
X0368642Y0048807D01*
X0368552Y0048765D01*
X0368460Y0048726D01*
X0368367Y0048691D01*
X0368273Y0048660D01*
X0368177Y0048633D01*
X0368080Y0048610D01*
X0367983Y0048590D01*
X0367885Y0048574D01*
X0367786Y0048562D01*
X0367687Y0048554D01*
X0367588Y0048550D01*
X0367488Y0048550D01*
X0367389Y0048554D01*
X0367290Y0048562D01*
X0367191Y0048574D01*
X0367093Y0048590D01*
X0366996Y0048610D01*
X0366899Y0048633D01*
X0366803Y0048660D01*
X0366709Y0048691D01*
X0366616Y0048726D01*
X0366524Y0048765D01*
X0366434Y0048807D01*
X0366346Y0048853D01*
X0366259Y0048902D01*
X0366175Y0048954D01*
X0366093Y0049010D01*
X0366013Y0049069D01*
X0365935Y0049131D01*
X0365860Y0049197D01*
X0365788Y0049265D01*
X0365718Y0049336D01*
X0365652Y0049409D01*
X0365588Y0049486D01*
X0365527Y0049564D01*
X0365470Y0049646D01*
X0365416Y0049729D01*
X0365365Y0049814D01*
X0365317Y0049902D01*
X0365273Y0049991D01*
X0365233Y0050082D01*
X0365196Y0050174D01*
X0365163Y0050268D01*
X0365134Y0050363D01*
X0365109Y0050459D01*
X0365087Y0050556D01*
X0365070Y0050654D01*
X0365056Y0050752D01*
X0365046Y0050851D01*
X0365040Y0050951D01*
X0365038Y0051050D01*
D11*
X0010338Y0076250D02*
X0010338Y0009750D01*
M02*
