G75*
%MOIN*%
%OFA0B0*%
%FSLAX24Y24*%
%IPPOS*%
%LPD*%
%AMOC8*
5,1,8,0,0,1.08239X$1,22.5*
%
%ADD10C,0.0100*%
%ADD11C,0.0010*%
%ADD12C,0.0080*%
%ADD13C,0.0220*%
%ADD14C,0.0070*%
%ADD15C,0.0050*%
%ADD16C,0.0060*%
%ADD17C,0.0020*%
%ADD18R,0.0236X0.0118*%
%ADD19R,0.0118X0.0236*%
D10*
X028127Y005152D02*
X028127Y027512D01*
X032307Y027512D01*
X032307Y005152D01*
X030717Y005152D01*
X030717Y004802D01*
X029717Y004802D01*
X029717Y005152D01*
X028127Y005152D01*
D11*
X027943Y006333D02*
X027987Y006378D01*
X027987Y006466D01*
X027943Y006510D01*
X027899Y006510D01*
X027854Y006466D01*
X027854Y006333D01*
X027943Y006333D01*
X027854Y006333D02*
X027766Y006422D01*
X027721Y006510D01*
X032671Y006422D02*
X032937Y006422D01*
X032937Y006510D02*
X032937Y006333D01*
X032760Y006333D02*
X032671Y006422D01*
X032671Y015576D02*
X032893Y015576D01*
X032937Y015620D01*
X032937Y015709D01*
X032893Y015753D01*
X032671Y015753D01*
X032716Y015830D02*
X032671Y015874D01*
X032671Y015962D01*
X032716Y016007D01*
X032716Y016083D02*
X032671Y016128D01*
X032671Y016216D01*
X032716Y016260D01*
X032760Y016260D01*
X032804Y016216D01*
X032849Y016260D01*
X032893Y016260D01*
X032937Y016216D01*
X032937Y016128D01*
X032893Y016083D01*
X032893Y016007D02*
X032849Y016007D01*
X032804Y015962D01*
X032804Y015874D01*
X032760Y015830D01*
X032716Y015830D01*
X032627Y015918D02*
X032982Y015918D01*
X032937Y015874D02*
X032937Y015962D01*
X032893Y016007D01*
X032937Y015874D02*
X032893Y015830D01*
X032804Y016172D02*
X032804Y016216D01*
X026785Y017025D02*
X026766Y017007D01*
X026730Y017007D01*
X026711Y017025D01*
X026711Y017044D01*
X026730Y017062D01*
X026766Y017062D01*
X026785Y017044D01*
X026785Y017025D01*
X026766Y017062D02*
X026785Y017080D01*
X026785Y017099D01*
X026766Y017117D01*
X026730Y017117D01*
X026711Y017099D01*
X026711Y017080D01*
X026730Y017062D01*
X026674Y017099D02*
X026674Y017025D01*
X026656Y017007D01*
X026619Y017007D01*
X026601Y017025D01*
X026601Y017099D01*
X026619Y017117D01*
X026656Y017117D01*
X026674Y017099D01*
X026637Y017044D02*
X026674Y017007D01*
X026693Y019327D02*
X026712Y019345D01*
X026712Y019382D01*
X026693Y019400D01*
X026602Y019400D01*
X026620Y019438D02*
X026602Y019456D01*
X026602Y019493D01*
X026620Y019511D01*
X026657Y019493D02*
X026657Y019456D01*
X026638Y019438D01*
X026620Y019438D01*
X026583Y019474D02*
X026730Y019474D01*
X026712Y019456D02*
X026712Y019493D01*
X026693Y019511D01*
X026675Y019511D01*
X026657Y019493D01*
X026638Y019548D02*
X026602Y019585D01*
X026712Y019585D01*
X026712Y019621D02*
X026712Y019548D01*
X026712Y019456D02*
X026693Y019438D01*
X026693Y019327D02*
X026602Y019327D01*
X026602Y019659D02*
X026657Y019659D01*
X026638Y019695D01*
X026638Y019714D01*
X026657Y019732D01*
X026693Y019732D01*
X026712Y019714D01*
X026712Y019677D01*
X026693Y019659D01*
X026602Y019659D02*
X026602Y019732D01*
X027766Y025326D02*
X027721Y025370D01*
X027721Y025459D01*
X027766Y025503D01*
X027810Y025503D01*
X027987Y025326D01*
X027987Y025503D01*
X027854Y025580D02*
X027854Y025757D01*
X027766Y025833D02*
X027721Y025878D01*
X027721Y025966D01*
X027766Y026010D01*
X027943Y025833D01*
X027987Y025878D01*
X027987Y025966D01*
X027943Y026010D01*
X027766Y026010D01*
X027766Y025833D02*
X027943Y025833D01*
X027987Y025712D02*
X027721Y025712D01*
X027854Y025580D01*
X028462Y028237D02*
X028587Y028237D01*
X028612Y028262D01*
X028612Y028312D01*
X028587Y028337D01*
X028462Y028337D01*
X028487Y028384D02*
X028462Y028409D01*
X028462Y028459D01*
X028487Y028484D01*
X028512Y028484D01*
X028537Y028459D01*
X028562Y028484D01*
X028587Y028484D01*
X028612Y028459D01*
X028612Y028409D01*
X028587Y028384D01*
X028537Y028434D02*
X028537Y028459D01*
X028294Y030527D02*
X028319Y030552D01*
X028319Y030577D01*
X028294Y030602D01*
X028219Y030602D01*
X028219Y030552D01*
X028244Y030527D01*
X028294Y030527D01*
X028219Y030602D02*
X028269Y030652D01*
X028319Y030677D01*
X028172Y030652D02*
X028147Y030677D01*
X028097Y030677D01*
X028072Y030652D01*
X028072Y030552D01*
X028097Y030527D01*
X028147Y030527D01*
X028172Y030552D01*
X028147Y031077D02*
X028097Y031077D01*
X028072Y031102D01*
X028072Y031202D01*
X028097Y031227D01*
X028147Y031227D01*
X028172Y031202D01*
X028219Y031227D02*
X028219Y031152D01*
X028269Y031177D01*
X028294Y031177D01*
X028319Y031152D01*
X028319Y031102D01*
X028294Y031077D01*
X028244Y031077D01*
X028219Y031102D01*
X028172Y031102D02*
X028147Y031077D01*
X028219Y031227D02*
X028319Y031227D01*
X032362Y030799D02*
X032387Y030824D01*
X032412Y030824D01*
X032437Y030799D01*
X032437Y030749D01*
X032412Y030724D01*
X032387Y030724D01*
X032362Y030749D01*
X032362Y030799D01*
X032437Y030799D02*
X032462Y030824D01*
X032487Y030824D01*
X032512Y030799D01*
X032512Y030749D01*
X032487Y030724D01*
X032462Y030724D01*
X032437Y030749D01*
X032487Y030677D02*
X032512Y030652D01*
X032512Y030602D01*
X032487Y030577D01*
X032387Y030577D01*
X032362Y030602D01*
X032362Y030652D01*
X032387Y030677D01*
X033922Y031052D02*
X033947Y031027D01*
X033997Y031027D01*
X034022Y031052D01*
X034022Y031177D01*
X034069Y031152D02*
X034094Y031177D01*
X034144Y031177D01*
X034169Y031152D01*
X034169Y031127D01*
X034069Y031027D01*
X034169Y031027D01*
X033922Y031052D02*
X033922Y031177D01*
X036162Y030824D02*
X036162Y030724D01*
X036187Y030677D02*
X036162Y030652D01*
X036162Y030602D01*
X036187Y030577D01*
X036287Y030577D01*
X036312Y030602D01*
X036312Y030652D01*
X036287Y030677D01*
X036287Y030724D02*
X036312Y030724D01*
X036287Y030724D02*
X036187Y030824D01*
X036162Y030824D01*
X038052Y029453D02*
X038107Y029398D01*
X038107Y029471D01*
X038162Y029453D02*
X038052Y029453D01*
X038052Y029324D02*
X038162Y029324D01*
X038162Y029288D02*
X038162Y029361D01*
X038088Y029288D02*
X038052Y029324D01*
X038070Y029250D02*
X038143Y029250D01*
X038162Y029232D01*
X038162Y029195D01*
X038143Y029177D01*
X038070Y029177D01*
X038052Y029195D01*
X038052Y029232D01*
X038070Y029250D01*
X038125Y029214D02*
X038162Y029250D01*
X038070Y028171D02*
X038143Y028098D01*
X038162Y028098D01*
X038162Y028061D02*
X038162Y027988D01*
X038162Y028024D02*
X038052Y028024D01*
X038088Y027988D01*
X038070Y027950D02*
X038143Y027950D01*
X038162Y027932D01*
X038162Y027895D01*
X038143Y027877D01*
X038070Y027877D01*
X038052Y027895D01*
X038052Y027932D01*
X038070Y027950D01*
X038125Y027914D02*
X038162Y027950D01*
X038052Y028098D02*
X038052Y028171D01*
X038070Y028171D01*
X038052Y026871D02*
X038070Y026835D01*
X038107Y026798D01*
X038107Y026853D01*
X038125Y026871D01*
X038143Y026871D01*
X038162Y026853D01*
X038162Y026816D01*
X038143Y026798D01*
X038107Y026798D01*
X038162Y026761D02*
X038162Y026688D01*
X038162Y026724D02*
X038052Y026724D01*
X038088Y026688D01*
X038070Y026650D02*
X038143Y026650D01*
X038162Y026632D01*
X038162Y026595D01*
X038143Y026577D01*
X038070Y026577D01*
X038052Y026595D01*
X038052Y026632D01*
X038070Y026650D01*
X038125Y026614D02*
X038162Y026650D01*
X038143Y025571D02*
X038162Y025553D01*
X038162Y025516D01*
X038143Y025498D01*
X038107Y025498D02*
X038088Y025535D01*
X038088Y025553D01*
X038107Y025571D01*
X038143Y025571D01*
X038107Y025498D02*
X038052Y025498D01*
X038052Y025571D01*
X038052Y025424D02*
X038162Y025424D01*
X038162Y025388D02*
X038162Y025461D01*
X038088Y025388D02*
X038052Y025424D01*
X038070Y025350D02*
X038143Y025350D01*
X038162Y025332D01*
X038162Y025295D01*
X038143Y025277D01*
X038070Y025277D01*
X038052Y025295D01*
X038052Y025332D01*
X038070Y025350D01*
X038125Y025314D02*
X038162Y025350D01*
X032937Y025326D02*
X032760Y025503D01*
X032716Y025503D01*
X032671Y025459D01*
X032671Y025370D01*
X032716Y025326D01*
X032937Y025326D02*
X032937Y025503D01*
X032893Y025580D02*
X032937Y025624D01*
X032937Y025712D01*
X032893Y025757D01*
X032849Y025757D01*
X032804Y025712D01*
X032804Y025668D01*
X032804Y025712D02*
X032760Y025757D01*
X032716Y025757D01*
X032671Y025712D01*
X032671Y025624D01*
X032716Y025580D01*
X032671Y025833D02*
X032804Y025833D01*
X032760Y025922D01*
X032760Y025966D01*
X032804Y026010D01*
X032893Y026010D01*
X032937Y025966D01*
X032937Y025878D01*
X032893Y025833D01*
X032671Y025833D02*
X032671Y026010D01*
D12*
X033732Y029581D02*
X033732Y029896D01*
X033732Y030448D02*
X033732Y030763D01*
X035071Y030172D02*
X035073Y030184D01*
X035078Y030195D01*
X035087Y030204D01*
X035098Y030209D01*
X035110Y030211D01*
X035122Y030209D01*
X035133Y030204D01*
X035142Y030195D01*
X035147Y030184D01*
X035149Y030172D01*
X035147Y030160D01*
X035142Y030149D01*
X035133Y030140D01*
X035122Y030135D01*
X035110Y030133D01*
X035098Y030135D01*
X035087Y030140D01*
X035078Y030149D01*
X035073Y030160D01*
X035071Y030172D01*
X035701Y029896D02*
X035701Y029581D01*
X035701Y030448D02*
X035701Y030763D01*
D13*
X036605Y030922D02*
X036629Y030922D01*
X032829Y030922D02*
X032805Y030922D01*
X028417Y030784D02*
X028417Y030760D01*
X028417Y030234D02*
X028417Y030210D01*
D14*
X028829Y029509D02*
X028829Y029273D01*
X028829Y029509D02*
X029065Y029509D01*
X030168Y029509D02*
X030404Y029509D01*
X030404Y029273D01*
X030404Y028171D02*
X030404Y027935D01*
X030168Y027935D01*
X029065Y027935D02*
X028829Y028171D01*
D15*
X027592Y020413D02*
X027041Y020413D01*
X027041Y020022D01*
X027592Y020002D02*
X027592Y019642D01*
X027592Y019232D02*
X027041Y019232D01*
X027041Y019622D01*
X026907Y017998D02*
X026907Y017446D01*
X026517Y017446D01*
X026117Y017446D02*
X025726Y017446D01*
X025726Y017998D01*
X026137Y017998D02*
X026497Y017998D01*
X038491Y025182D02*
X038491Y025572D01*
X038491Y025972D02*
X038491Y026363D01*
X039042Y026363D01*
X039042Y026482D02*
X038491Y026482D01*
X038491Y026872D01*
X038491Y027272D02*
X038491Y027663D01*
X039042Y027663D01*
X039042Y027782D02*
X038491Y027782D01*
X038491Y028172D01*
X038491Y028572D02*
X038491Y028963D01*
X039042Y028963D01*
X039042Y029082D02*
X038491Y029082D01*
X038491Y029472D01*
X038491Y029872D02*
X038491Y030263D01*
X039042Y030263D01*
X039042Y029852D02*
X039042Y029492D01*
X039042Y028552D02*
X039042Y028192D01*
X039042Y027252D02*
X039042Y026892D01*
X039042Y025952D02*
X039042Y025592D01*
X039042Y025182D02*
X038491Y025182D01*
D16*
X038013Y025134D02*
X037820Y025134D01*
X037820Y025310D02*
X038013Y025310D01*
X038013Y026434D02*
X037820Y026434D01*
X037820Y026610D02*
X038013Y026610D01*
X038013Y027734D02*
X037820Y027734D01*
X037820Y027910D02*
X038013Y027910D01*
X038013Y029034D02*
X037820Y029034D01*
X037820Y029210D02*
X038013Y029210D01*
X039728Y028869D02*
X039728Y028676D01*
X039905Y028676D02*
X039905Y028869D01*
X039905Y027819D02*
X039905Y027626D01*
X039728Y027626D02*
X039728Y027819D01*
X039728Y026769D02*
X039728Y026576D01*
X039905Y026576D02*
X039905Y026769D01*
X039905Y025719D02*
X039905Y025526D01*
X039728Y025526D02*
X039728Y025719D01*
X027805Y018819D02*
X027805Y018626D01*
X027628Y018626D02*
X027628Y018819D01*
X026805Y018926D02*
X026805Y019119D01*
X026628Y019119D02*
X026628Y018926D01*
X026113Y016410D02*
X025920Y016410D01*
X025920Y016234D02*
X026113Y016234D01*
X026578Y008419D02*
X026578Y008226D01*
X026755Y008226D02*
X026755Y008419D01*
X029028Y002419D02*
X029028Y002226D01*
X029205Y002226D02*
X029205Y002419D01*
X023855Y002419D02*
X023855Y002226D01*
X023678Y002226D02*
X023678Y002419D01*
X036870Y015834D02*
X037063Y015834D01*
X037063Y016010D02*
X036870Y016010D01*
X024705Y026126D02*
X024705Y026319D01*
X024528Y026319D02*
X024528Y026126D01*
X022705Y026126D02*
X022705Y026319D01*
X022528Y026319D02*
X022528Y026126D01*
X020755Y026126D02*
X020755Y026319D01*
X020578Y026319D02*
X020578Y026126D01*
D17*
X023377Y002002D02*
X023377Y001882D01*
X023557Y001882D01*
X023467Y001882D02*
X023467Y001942D01*
X023437Y002066D02*
X023467Y002096D01*
X023467Y002186D01*
X023527Y002186D02*
X023407Y002186D01*
X023377Y002156D01*
X023377Y002096D01*
X023407Y002066D01*
X023437Y002066D01*
X023527Y002066D02*
X023557Y002096D01*
X023557Y002156D01*
X023527Y002186D01*
X029327Y002230D02*
X029327Y002350D01*
X029387Y002414D02*
X029327Y002474D01*
X029507Y002474D01*
X029507Y002414D02*
X029507Y002534D01*
X029477Y002598D02*
X029507Y002628D01*
X029507Y002688D01*
X029477Y002718D01*
X029447Y002718D01*
X029417Y002688D01*
X029417Y002598D01*
X029477Y002598D01*
X029417Y002598D02*
X029357Y002658D01*
X029327Y002718D01*
X029417Y002290D02*
X029417Y002230D01*
X029507Y002230D02*
X029327Y002230D01*
X026457Y007882D02*
X026277Y007882D01*
X026277Y007972D01*
X026307Y008002D01*
X026367Y008002D01*
X026397Y007972D01*
X026397Y007882D01*
X026397Y007942D02*
X026457Y008002D01*
X026457Y008066D02*
X026457Y008186D01*
X026457Y008126D02*
X026277Y008126D01*
X026337Y008066D01*
X026307Y008250D02*
X026277Y008280D01*
X026277Y008340D01*
X026307Y008370D01*
X026337Y008370D01*
X026367Y008340D01*
X026397Y008370D01*
X026427Y008370D01*
X026457Y008340D01*
X026457Y008280D01*
X026427Y008250D01*
X026367Y008310D02*
X026367Y008340D01*
X026035Y016532D02*
X025975Y016532D01*
X025945Y016562D01*
X025945Y016592D01*
X025975Y016622D01*
X026035Y016622D01*
X026065Y016592D01*
X026065Y016562D01*
X026035Y016532D01*
X026035Y016622D02*
X026065Y016652D01*
X026065Y016682D01*
X026035Y016712D01*
X025975Y016712D01*
X025945Y016682D01*
X025945Y016652D01*
X025975Y016622D01*
X025881Y016532D02*
X025761Y016532D01*
X025821Y016532D02*
X025821Y016712D01*
X025761Y016652D01*
X025697Y016712D02*
X025577Y016712D01*
X025577Y016532D01*
X025577Y016622D02*
X025637Y016622D01*
X027327Y018282D02*
X027327Y018372D01*
X027357Y018402D01*
X027417Y018402D01*
X027447Y018372D01*
X027447Y018282D01*
X027507Y018282D02*
X027327Y018282D01*
X027447Y018342D02*
X027507Y018402D01*
X027507Y018466D02*
X027507Y018586D01*
X027507Y018526D02*
X027327Y018526D01*
X027387Y018466D01*
X027417Y018650D02*
X027387Y018710D01*
X027387Y018740D01*
X027417Y018770D01*
X027477Y018770D01*
X027507Y018740D01*
X027507Y018680D01*
X027477Y018650D01*
X027417Y018650D02*
X027327Y018650D01*
X027327Y018770D01*
X027107Y018930D02*
X026927Y018930D01*
X026927Y019020D01*
X026957Y019050D01*
X027017Y019050D01*
X027047Y019020D01*
X027047Y018930D01*
X027047Y018990D02*
X027107Y019050D01*
X027107Y019114D02*
X027107Y019234D01*
X027107Y019174D02*
X026927Y019174D01*
X026987Y019114D01*
X026957Y019298D02*
X026927Y019328D01*
X026927Y019388D01*
X026957Y019418D01*
X026987Y019418D01*
X027107Y019298D01*
X027107Y019418D01*
X025007Y026314D02*
X024827Y026314D01*
X024827Y026434D01*
X024827Y026498D02*
X024917Y026498D01*
X024887Y026558D01*
X024887Y026588D01*
X024917Y026618D01*
X024977Y026618D01*
X025007Y026588D01*
X025007Y026528D01*
X024977Y026498D01*
X024917Y026374D02*
X024917Y026314D01*
X024827Y026498D02*
X024827Y026618D01*
X023007Y026588D02*
X022827Y026588D01*
X022917Y026498D01*
X022917Y026618D01*
X022827Y026434D02*
X022827Y026314D01*
X023007Y026314D01*
X022917Y026314D02*
X022917Y026374D01*
X021057Y026314D02*
X020877Y026314D01*
X020877Y026434D01*
X020907Y026498D02*
X020877Y026528D01*
X020877Y026588D01*
X020907Y026618D01*
X020937Y026618D01*
X020967Y026588D01*
X020997Y026618D01*
X021027Y026618D01*
X021057Y026588D01*
X021057Y026528D01*
X021027Y026498D01*
X020967Y026558D02*
X020967Y026588D01*
X020967Y026374D02*
X020967Y026314D01*
X036874Y015712D02*
X036994Y015712D01*
X037058Y015652D02*
X037118Y015712D01*
X037118Y015532D01*
X037058Y015532D02*
X037178Y015532D01*
X037243Y015562D02*
X037363Y015682D01*
X037363Y015562D01*
X037333Y015532D01*
X037273Y015532D01*
X037243Y015562D01*
X037243Y015682D01*
X037273Y015712D01*
X037333Y015712D01*
X037363Y015682D01*
X036934Y015622D02*
X036874Y015622D01*
X036874Y015532D02*
X036874Y015712D01*
X037477Y025432D02*
X037477Y025612D01*
X037567Y025612D01*
X037597Y025582D01*
X037597Y025522D01*
X037567Y025492D01*
X037477Y025492D01*
X037537Y025492D02*
X037597Y025432D01*
X037661Y025432D02*
X037781Y025552D01*
X037781Y025582D01*
X037751Y025612D01*
X037691Y025612D01*
X037661Y025582D01*
X037661Y025432D02*
X037781Y025432D01*
X037845Y025462D02*
X037875Y025432D01*
X037935Y025432D01*
X037965Y025462D01*
X037965Y025582D01*
X037935Y025612D01*
X037875Y025612D01*
X037845Y025582D01*
X037845Y025552D01*
X037875Y025522D01*
X037965Y025522D01*
X037965Y026732D02*
X037845Y026732D01*
X037905Y026732D02*
X037905Y026912D01*
X037845Y026852D01*
X037781Y026852D02*
X037751Y026822D01*
X037781Y026792D01*
X037781Y026762D01*
X037751Y026732D01*
X037691Y026732D01*
X037661Y026762D01*
X037597Y026732D02*
X037537Y026792D01*
X037567Y026792D02*
X037477Y026792D01*
X037477Y026732D02*
X037477Y026912D01*
X037567Y026912D01*
X037597Y026882D01*
X037597Y026822D01*
X037567Y026792D01*
X037661Y026882D02*
X037691Y026912D01*
X037751Y026912D01*
X037781Y026882D01*
X037781Y026852D01*
X037751Y026822D02*
X037721Y026822D01*
X037751Y028032D02*
X037691Y028032D01*
X037661Y028062D01*
X037597Y028032D02*
X037537Y028092D01*
X037567Y028092D02*
X037477Y028092D01*
X037477Y028032D02*
X037477Y028212D01*
X037567Y028212D01*
X037597Y028182D01*
X037597Y028122D01*
X037567Y028092D01*
X037661Y028182D02*
X037691Y028212D01*
X037751Y028212D01*
X037781Y028182D01*
X037781Y028152D01*
X037751Y028122D01*
X037781Y028092D01*
X037781Y028062D01*
X037751Y028032D01*
X037751Y028122D02*
X037721Y028122D01*
X037845Y028062D02*
X037875Y028032D01*
X037935Y028032D01*
X037965Y028062D01*
X037965Y028092D01*
X037935Y028122D01*
X037905Y028122D01*
X037935Y028122D02*
X037965Y028152D01*
X037965Y028182D01*
X037935Y028212D01*
X037875Y028212D01*
X037845Y028182D01*
X037845Y029332D02*
X037845Y029362D01*
X037965Y029482D01*
X037965Y029512D01*
X037845Y029512D01*
X037781Y029482D02*
X037751Y029512D01*
X037691Y029512D01*
X037661Y029482D01*
X037597Y029482D02*
X037597Y029422D01*
X037567Y029392D01*
X037477Y029392D01*
X037537Y029392D02*
X037597Y029332D01*
X037661Y029332D02*
X037781Y029452D01*
X037781Y029482D01*
X037781Y029332D02*
X037661Y029332D01*
X037597Y029482D02*
X037567Y029512D01*
X037477Y029512D01*
X037477Y029332D01*
X039427Y028820D02*
X039457Y028760D01*
X039517Y028700D01*
X039517Y028790D01*
X039547Y028820D01*
X039577Y028820D01*
X039607Y028790D01*
X039607Y028730D01*
X039577Y028700D01*
X039517Y028700D01*
X039487Y028636D02*
X039457Y028636D01*
X039427Y028606D01*
X039427Y028546D01*
X039457Y028516D01*
X039457Y028452D02*
X039517Y028452D01*
X039547Y028422D01*
X039547Y028332D01*
X039607Y028332D02*
X039427Y028332D01*
X039427Y028422D01*
X039457Y028452D01*
X039547Y028392D02*
X039607Y028452D01*
X039607Y028516D02*
X039487Y028636D01*
X039607Y028636D02*
X039607Y028516D01*
X039607Y027770D02*
X039607Y027650D01*
X039487Y027770D01*
X039457Y027770D01*
X039427Y027740D01*
X039427Y027680D01*
X039457Y027650D01*
X039457Y027586D02*
X039487Y027586D01*
X039517Y027556D01*
X039547Y027586D01*
X039577Y027586D01*
X039607Y027556D01*
X039607Y027496D01*
X039577Y027466D01*
X039607Y027402D02*
X039547Y027342D01*
X039547Y027372D02*
X039547Y027282D01*
X039607Y027282D02*
X039427Y027282D01*
X039427Y027372D01*
X039457Y027402D01*
X039517Y027402D01*
X039547Y027372D01*
X039457Y027466D02*
X039427Y027496D01*
X039427Y027556D01*
X039457Y027586D01*
X039517Y027556D02*
X039517Y027526D01*
X039577Y026720D02*
X039607Y026690D01*
X039607Y026630D01*
X039577Y026600D01*
X039457Y026720D01*
X039577Y026720D01*
X039577Y026600D02*
X039457Y026600D01*
X039427Y026630D01*
X039427Y026690D01*
X039457Y026720D01*
X039457Y026536D02*
X039487Y026536D01*
X039517Y026506D01*
X039547Y026536D01*
X039577Y026536D01*
X039607Y026506D01*
X039607Y026446D01*
X039577Y026416D01*
X039607Y026352D02*
X039547Y026292D01*
X039547Y026322D02*
X039547Y026232D01*
X039607Y026232D02*
X039427Y026232D01*
X039427Y026322D01*
X039457Y026352D01*
X039517Y026352D01*
X039547Y026322D01*
X039457Y026416D02*
X039427Y026446D01*
X039427Y026506D01*
X039457Y026536D01*
X039517Y026506D02*
X039517Y026476D01*
X040027Y025988D02*
X040057Y026018D01*
X040087Y026018D01*
X040117Y025988D01*
X040117Y025928D01*
X040087Y025898D01*
X040057Y025898D01*
X040027Y025928D01*
X040027Y025988D01*
X040117Y025988D02*
X040147Y026018D01*
X040177Y026018D01*
X040207Y025988D01*
X040207Y025928D01*
X040177Y025898D01*
X040147Y025898D01*
X040117Y025928D01*
X040087Y025834D02*
X040057Y025834D01*
X040027Y025804D01*
X040027Y025744D01*
X040057Y025714D01*
X040057Y025650D02*
X040117Y025650D01*
X040147Y025620D01*
X040147Y025530D01*
X040147Y025590D02*
X040207Y025650D01*
X040207Y025714D02*
X040087Y025834D01*
X040207Y025834D02*
X040207Y025714D01*
X040057Y025650D02*
X040027Y025620D01*
X040027Y025530D01*
X040207Y025530D01*
D18*
X039815Y025461D03*
X039815Y025781D03*
X039819Y026513D03*
X039819Y026833D03*
X039819Y027563D03*
X039819Y027883D03*
X039819Y028613D03*
X039819Y028933D03*
X027719Y018883D03*
X027719Y018563D03*
X026715Y018861D03*
X026715Y019181D03*
X024615Y026061D03*
X024615Y026381D03*
X022615Y026381D03*
X022615Y026061D03*
X020665Y026061D03*
X020665Y026381D03*
X026669Y008483D03*
X026669Y008163D03*
X029115Y002481D03*
X029115Y002161D03*
X023769Y002163D03*
X023769Y002483D03*
D19*
X036806Y015924D03*
X037126Y015924D03*
X026178Y016320D03*
X025858Y016320D03*
X037758Y025220D03*
X038078Y025220D03*
X038078Y026520D03*
X037758Y026520D03*
X037758Y027820D03*
X038078Y027820D03*
X038078Y029120D03*
X037758Y029120D03*
M02*
