%
M48
M72
T01C0.0150
T02C0.0250
T03C0.0315
T04C0.0380
T05C0.0394
T06C0.0433
T07C0.0500
T08C0.1250
%
T01
X16717Y6022
X17117Y5622
X22367Y6922
X25367Y11672
X25367Y12272
X28117Y14332
X28127Y16082
X28117Y16582
X28117Y17582
X28117Y18082
X28367Y18872
X28267Y19582
X28241Y20196
X28117Y20532
X28117Y21572
X27847Y22072
X28117Y22372
X28317Y22972
X27967Y23072
X28417Y23532
X27967Y24072
X27967Y24472
X28267Y24722
X28567Y24982
X29489Y26572
X29967Y27172
X30767Y26872
X30817Y28172
X30817Y28594
X30817Y29022
X28267Y28872
X28267Y29772
X32817Y31972
X33367Y30605
X36067Y30605
X36267Y29972
X35504Y28722
X35189Y28422
X37967Y28372
X37967Y27072
X37967Y25772
X33917Y25022
X33917Y24522
X32367Y23472
X32367Y23022
X31967Y24032
X32057Y21482
X33417Y21422
X27417Y22472
X26917Y22972
X23417Y19472
X25943Y18998
X27167Y17972
X23117Y16772
X23467Y15872
X21597Y13242
X21467Y21372
X21117Y21722
X20767Y22072
X18817Y22072
X15217Y24872
X14717Y24972
X13117Y23472
X12567Y22222
X11467Y24322
X8317Y24372
X5417Y24772
X31917Y15832
X33117Y15572
X31917Y14832
X31917Y14332
X33117Y13322
X32467Y12822
X32517Y12172
X34217Y13722
X34217Y14072
X34217Y14422
X34567Y15672
X34517Y16322
X36717Y15322
X36717Y12322
X36717Y9322
X36717Y6322
X32867Y6772
X32867Y10022
X37967Y29672
T02
X25817Y22872
X23817Y20872
T03
X23554Y15059
X22767Y15059
X22767Y14272
X21980Y14272
X21980Y15059
X21192Y15059
X21192Y14272
X20405Y14272
X20405Y15059
X19617Y15059
X18830Y15059
X18043Y15059
X18043Y14272
X18830Y14272
X19617Y14272
X17255Y14272
X16468Y14272
X16468Y15059
X17255Y15059
X15680Y15059
X15680Y14272
X14893Y14272
X14106Y14272
X14106Y15059
X14893Y15059
X13318Y15059
X13318Y14272
X12531Y14272
X11743Y14272
X10956Y14272
X10169Y14272
X10169Y15059
X10956Y15059
X11743Y15059
X12531Y15059
X9381Y15059
X9381Y14272
X8594Y14272
X8594Y15059
X7806Y15059
X7806Y14272
X7019Y14272
X7019Y15059
X7019Y8659
X7019Y7872
X7806Y7872
X7806Y8659
X8594Y8659
X8594Y7872
X9381Y7872
X9381Y8659
X10169Y8659
X10169Y7872
X10956Y7872
X11743Y7872
X12531Y7872
X13318Y7872
X13318Y8659
X12531Y8659
X11743Y8659
X10956Y8659
X14106Y8659
X14106Y7872
X14893Y7872
X15680Y7872
X15680Y8659
X14893Y8659
X16468Y8659
X16468Y7872
X17255Y7872
X17255Y8659
X18043Y8659
X18830Y8659
X18830Y7872
X18043Y7872
X19617Y7872
X19617Y8659
X20405Y8659
X20405Y7872
X21192Y7872
X21192Y8659
X21980Y8659
X21980Y7872
X22767Y7872
X22767Y8659
X23554Y8659
X23554Y7872
X24342Y7872
X25129Y7872
X25129Y8659
X24342Y8659
X25917Y8659
X25917Y7872
X25917Y14272
X25917Y15059
X25129Y15059
X24342Y15059
X24342Y14272
X25129Y14272
X23554Y14272
T04
X23766Y1422
X22979Y1422
X22191Y1422
X21404Y1422
X20617Y1422
X19829Y1422
X19042Y1422
X18254Y1422
X12916Y1422
X12129Y1422
X11341Y1422
X10554Y1422
X9767Y1422
X8979Y1422
X8192Y1422
X7404Y1422
X29104Y1422
X29892Y1422
X30679Y1422
X31467Y1422
X32254Y1422
X33041Y1422
X33829Y1422
X34616Y1422
X40517Y3360
X40517Y4147
X40517Y4935
X40517Y5722
X40517Y6509
X40517Y7297
X40517Y8084
X40517Y8872
X40517Y14210
X40517Y14997
X40517Y15785
X40517Y16572
X40517Y17359
X40517Y18147
X40517Y18934
X40517Y19722
X40517Y25060
X40517Y25847
X40517Y26635
X40517Y27422
X40517Y28209
X40517Y28997
X40517Y29784
X40517Y30572
T05
X12867Y20572
X12867Y19572
X12867Y18572
T06
X13056Y28004
X15025Y28004
X14041Y29972
X12072Y29972
X10104Y29972
X8135Y29972
X6167Y29972
X7151Y28004
X9119Y28004
X11088Y28004
X17717Y29972
X19685Y29972
X21654Y29972
X23622Y29972
X25591Y29972
X26575Y28004
X24606Y28004
X22638Y28004
X20669Y28004
X18701Y28004
T07
X29017Y27037
X3267Y9872
X2267Y9872
X2267Y8872
X3267Y8872
X3267Y7872
X2267Y7872
X2267Y6872
X3267Y6872
X3267Y5872
X2267Y5872
X30217Y5627
T08
X2627Y1832
X2627Y30822
X30867Y30822
M30
