G75*
%MOIN*%
%OFA0B0*%
%FSLAX24Y24*%
%IPPOS*%
%LPD*%
%AMOC8*
5,1,8,0,0,1.08239X$1,22.5*
%
%ADD10R,0.0595X0.0595*%
%ADD11C,0.0595*%
%ADD12R,0.0830X0.0830*%
%ADD13C,0.0830*%
%ADD14C,0.0580*%
%ADD15R,0.0674X0.0674*%
%ADD16C,0.0674*%
%ADD17R,0.0395X0.0434*%
%ADD18R,0.0660X0.0660*%
%ADD19C,0.0660*%
%ADD20R,0.0434X0.0395*%
%ADD21R,0.0730X0.0730*%
%ADD22C,0.0730*%
%ADD23R,0.0356X0.0434*%
%ADD24R,0.0946X0.0316*%
%ADD25R,0.0474X0.0513*%
%ADD26R,0.0474X0.1080*%
%ADD27R,0.0513X0.0474*%
%ADD28R,0.0434X0.0356*%
%ADD29C,0.1730*%
%ADD30C,0.0330*%
%ADD31C,0.0455*%
D10*
X025917Y007872D03*
X025917Y014272D03*
D11*
X025917Y015059D03*
X025129Y015059D03*
X024342Y015059D03*
X024342Y014272D03*
X025129Y014272D03*
X023554Y014272D03*
X022767Y014272D03*
X021980Y014272D03*
X021980Y015059D03*
X022767Y015059D03*
X023554Y015059D03*
X021192Y015059D03*
X021192Y014272D03*
X020405Y014272D03*
X020405Y015059D03*
X019617Y015059D03*
X018830Y015059D03*
X018043Y015059D03*
X018043Y014272D03*
X018830Y014272D03*
X019617Y014272D03*
X017255Y014272D03*
X016468Y014272D03*
X016468Y015059D03*
X017255Y015059D03*
X015680Y015059D03*
X015680Y014272D03*
X014893Y014272D03*
X014106Y014272D03*
X014106Y015059D03*
X014893Y015059D03*
X013318Y015059D03*
X013318Y014272D03*
X012531Y014272D03*
X011743Y014272D03*
X010956Y014272D03*
X010169Y014272D03*
X010169Y015059D03*
X010956Y015059D03*
X011743Y015059D03*
X012531Y015059D03*
X009381Y015059D03*
X009381Y014272D03*
X008594Y014272D03*
X008594Y015059D03*
X007806Y015059D03*
X007806Y014272D03*
X007019Y014272D03*
X007019Y015059D03*
X007019Y008659D03*
X007019Y007872D03*
X007806Y007872D03*
X007806Y008659D03*
X008594Y008659D03*
X008594Y007872D03*
X009381Y007872D03*
X009381Y008659D03*
X010169Y008659D03*
X010169Y007872D03*
X010956Y007872D03*
X011743Y007872D03*
X012531Y007872D03*
X013318Y007872D03*
X013318Y008659D03*
X012531Y008659D03*
X011743Y008659D03*
X010956Y008659D03*
X014106Y008659D03*
X014106Y007872D03*
X014893Y007872D03*
X015680Y007872D03*
X015680Y008659D03*
X014893Y008659D03*
X016468Y008659D03*
X016468Y007872D03*
X017255Y007872D03*
X017255Y008659D03*
X018043Y008659D03*
X018830Y008659D03*
X018830Y007872D03*
X018043Y007872D03*
X019617Y007872D03*
X019617Y008659D03*
X020405Y008659D03*
X020405Y007872D03*
X021192Y007872D03*
X021192Y008659D03*
X021980Y008659D03*
X021980Y007872D03*
X022767Y007872D03*
X022767Y008659D03*
X023554Y008659D03*
X023554Y007872D03*
X024342Y007872D03*
X025129Y007872D03*
X025129Y008659D03*
X024342Y008659D03*
X025917Y008659D03*
D12*
X003267Y009872D03*
D13*
X002267Y009872D03*
X002267Y008872D03*
X003267Y008872D03*
X003267Y007872D03*
X002267Y007872D03*
X002267Y006872D03*
X003267Y006872D03*
X003267Y005872D03*
X002267Y005872D03*
D14*
X029017Y027037D03*
X030217Y005627D03*
D15*
X012867Y018572D03*
D16*
X012867Y019572D03*
X012867Y020572D03*
D17*
X010591Y023028D03*
X009843Y023028D03*
X010217Y023816D03*
X009491Y025178D03*
X008743Y025178D03*
X009117Y025966D03*
X007511Y025178D03*
X006763Y025178D03*
X007137Y025966D03*
X004853Y024766D03*
X004105Y024766D03*
X004479Y025553D03*
X007843Y023028D03*
X008591Y023028D03*
X008217Y023816D03*
X012693Y025178D03*
X013441Y025178D03*
X013067Y025966D03*
X018343Y025178D03*
X019091Y025178D03*
X018717Y025966D03*
X024593Y025528D03*
X025341Y025528D03*
X024967Y026316D03*
X026517Y025166D03*
X026891Y024378D03*
X026143Y024378D03*
X027317Y012366D03*
X027691Y011578D03*
X026943Y011578D03*
X012991Y005766D03*
X012243Y005766D03*
X012617Y004978D03*
X009841Y005766D03*
X009093Y005766D03*
X009467Y004978D03*
D18*
X009767Y001422D03*
X020617Y001422D03*
X031467Y001422D03*
X040517Y005722D03*
X040517Y016572D03*
X040517Y027422D03*
D19*
X040517Y026635D03*
X040517Y025847D03*
X040517Y025060D03*
X040517Y028209D03*
X040517Y028997D03*
X040517Y029784D03*
X040517Y030572D03*
X040517Y019722D03*
X040517Y018934D03*
X040517Y018147D03*
X040517Y017359D03*
X040517Y015785D03*
X040517Y014997D03*
X040517Y014210D03*
X040517Y008872D03*
X040517Y008084D03*
X040517Y007297D03*
X040517Y006509D03*
X040517Y004935D03*
X040517Y004147D03*
X040517Y003360D03*
X034616Y001422D03*
X033829Y001422D03*
X033041Y001422D03*
X032254Y001422D03*
X030679Y001422D03*
X029892Y001422D03*
X029104Y001422D03*
X023766Y001422D03*
X022979Y001422D03*
X022191Y001422D03*
X021404Y001422D03*
X019829Y001422D03*
X019042Y001422D03*
X018254Y001422D03*
X012916Y001422D03*
X012129Y001422D03*
X011341Y001422D03*
X010554Y001422D03*
X008979Y001422D03*
X008192Y001422D03*
X007404Y001422D03*
D20*
X026223Y010048D03*
X026223Y010796D03*
X027010Y010422D03*
X029760Y015198D03*
X028973Y015572D03*
X029760Y015946D03*
X034473Y017598D03*
X034473Y018346D03*
X035260Y017972D03*
X036473Y018196D03*
X036473Y017448D03*
X037260Y017822D03*
X036473Y018948D03*
X037260Y019322D03*
X036473Y019696D03*
X036473Y020448D03*
X036473Y021196D03*
X036473Y021948D03*
X037260Y022322D03*
X036473Y022696D03*
X035260Y022472D03*
X034473Y022098D03*
X034473Y022846D03*
X034473Y021346D03*
X035260Y020972D03*
X034473Y020598D03*
X034473Y019846D03*
X034473Y019098D03*
X035260Y019472D03*
X037260Y020822D03*
X017360Y022498D03*
X017360Y023246D03*
X016573Y022872D03*
X014910Y023648D03*
X014910Y024396D03*
X014123Y024022D03*
D21*
X018701Y028004D03*
X017717Y029972D03*
X007151Y028004D03*
X006167Y029972D03*
D22*
X008135Y029972D03*
X010104Y029972D03*
X012072Y029972D03*
X014041Y029972D03*
X015025Y028004D03*
X013056Y028004D03*
X011088Y028004D03*
X009119Y028004D03*
X019685Y029972D03*
X021654Y029972D03*
X023622Y029972D03*
X025591Y029972D03*
X026575Y028004D03*
X024606Y028004D03*
X022638Y028004D03*
X020669Y028004D03*
D23*
X019073Y024622D03*
X018561Y024622D03*
X016073Y024422D03*
X015561Y024422D03*
X015561Y023622D03*
X016073Y023622D03*
X026011Y025722D03*
X026523Y025722D03*
X026573Y026272D03*
X026061Y026272D03*
X033411Y022072D03*
X033923Y022072D03*
X033923Y020572D03*
X033411Y020572D03*
X033411Y019072D03*
X033923Y019072D03*
X033923Y017572D03*
X033411Y017572D03*
X034611Y017022D03*
X035123Y017022D03*
X012273Y006572D03*
X011761Y006572D03*
X011511Y004672D03*
X012023Y004672D03*
X010573Y004672D03*
X010061Y004672D03*
X009123Y006572D03*
X008611Y006572D03*
D24*
X033843Y006322D03*
X033843Y006822D03*
X033843Y007322D03*
X033843Y008822D03*
X033843Y009322D03*
X033843Y009822D03*
X033843Y010322D03*
X033843Y011822D03*
X033843Y012322D03*
X033843Y012822D03*
X033843Y013322D03*
X033843Y014822D03*
X033843Y015322D03*
X033843Y015822D03*
X033843Y016322D03*
X035890Y016322D03*
X035890Y015822D03*
X035890Y015322D03*
X035890Y014822D03*
X035890Y013322D03*
X035890Y012822D03*
X035890Y012322D03*
X035890Y011822D03*
X035890Y010322D03*
X035890Y009822D03*
X035890Y009322D03*
X035890Y008822D03*
X035890Y007322D03*
X035890Y006822D03*
X035890Y006322D03*
X035890Y005822D03*
X033843Y005822D03*
D25*
X037367Y005737D03*
X037367Y006407D03*
X037367Y008737D03*
X037367Y009407D03*
X037367Y011737D03*
X037367Y012407D03*
X037367Y014737D03*
X037367Y015407D03*
X027467Y030137D03*
X027467Y030807D03*
X011867Y020707D03*
X011867Y020037D03*
X011067Y019907D03*
X011067Y019237D03*
X011867Y019107D03*
X011867Y018437D03*
X004067Y019237D03*
X004067Y019907D03*
D26*
X005567Y021972D03*
X009567Y021972D03*
X009567Y017172D03*
X008567Y017172D03*
X006567Y017172D03*
X005567Y017172D03*
D27*
X028082Y030222D03*
X028082Y030772D03*
X028751Y030772D03*
X028751Y030222D03*
D28*
X026917Y023928D03*
X026917Y023416D03*
X035867Y022478D03*
X035867Y021966D03*
X035867Y020978D03*
X035867Y020466D03*
X035867Y019478D03*
X035867Y018966D03*
X035867Y017978D03*
X035867Y017466D03*
X037867Y017316D03*
X037867Y017828D03*
X037867Y018816D03*
X037867Y019328D03*
X037867Y020316D03*
X037867Y020828D03*
X037867Y021816D03*
X037867Y022328D03*
X036867Y024566D03*
X036867Y025078D03*
X030367Y015178D03*
X030367Y014666D03*
X026117Y012928D03*
X026117Y012416D03*
X025367Y011278D03*
X025367Y010766D03*
X027717Y010928D03*
X027717Y010416D03*
X013417Y024016D03*
X013417Y024528D03*
X012117Y025916D03*
X012117Y026428D03*
X010917Y024478D03*
X010917Y023966D03*
X009517Y023966D03*
X009517Y024478D03*
X008917Y024478D03*
X008917Y023966D03*
X007517Y024066D03*
X007517Y024578D03*
X008167Y025916D03*
X008167Y026428D03*
X006167Y026428D03*
X006167Y025916D03*
D29*
X002627Y001832D03*
X002627Y030822D03*
X030867Y030822D03*
D30*
X032817Y031972D03*
X033367Y030605D03*
X036067Y030605D03*
X036267Y029972D03*
X035504Y028722D03*
X035189Y028422D03*
X037967Y028372D03*
X037967Y027072D03*
X037967Y025772D03*
X033917Y025022D03*
X033917Y024522D03*
X032367Y023472D03*
X032367Y023022D03*
X031967Y024032D03*
X032057Y021482D03*
X033417Y021422D03*
X028567Y024982D03*
X028267Y024722D03*
X027967Y024472D03*
X027967Y024072D03*
X028417Y023532D03*
X028317Y022972D03*
X027967Y023072D03*
X028117Y022372D03*
X027847Y022072D03*
X027417Y022472D03*
X026917Y022972D03*
X028117Y021572D03*
X028117Y020532D03*
X028241Y020196D03*
X028267Y019582D03*
X028367Y018872D03*
X028117Y018082D03*
X028117Y017582D03*
X028117Y016582D03*
X028127Y016082D03*
X027167Y017972D03*
X025943Y018998D03*
X023417Y019472D03*
X021467Y021372D03*
X021117Y021722D03*
X020767Y022072D03*
X018817Y022072D03*
X015217Y024872D03*
X014717Y024972D03*
X013117Y023472D03*
X012567Y022222D03*
X011467Y024322D03*
X008317Y024372D03*
X005417Y024772D03*
X021597Y013242D03*
X023467Y015872D03*
X023117Y016772D03*
X028117Y014332D03*
X025367Y012272D03*
X025367Y011672D03*
X022367Y006922D03*
X017117Y005622D03*
X016717Y006022D03*
X031917Y014332D03*
X031917Y014832D03*
X033117Y015572D03*
X031917Y015832D03*
X034217Y014422D03*
X034217Y014072D03*
X034217Y013722D03*
X033117Y013322D03*
X032467Y012822D03*
X032517Y012172D03*
X032867Y010022D03*
X036717Y009322D03*
X036717Y006322D03*
X032867Y006772D03*
X036717Y012322D03*
X036717Y015322D03*
X034567Y015672D03*
X034517Y016322D03*
X030767Y026872D03*
X029967Y027172D03*
X029489Y026572D03*
X030817Y028172D03*
X030817Y028594D03*
X030817Y029022D03*
X028267Y028872D03*
X028267Y029772D03*
X037967Y029672D03*
D31*
X025817Y022872D03*
X023817Y020872D03*
M02*
