G75*
%MOIN*%
%OFA0B0*%
%FSLAX24Y24*%
%IPPOS*%
%LPD*%
%AMOC8*
5,1,8,0,0,1.08239X$1,22.5*
%
%ADD10C,0.0250*%
%ADD11R,0.0197X0.0472*%
%ADD12R,0.0472X0.0197*%
%ADD13R,0.0394X0.0433*%
%ADD14R,0.0157X0.0394*%
%ADD15R,0.0394X0.0157*%
%ADD16R,0.0433X0.0394*%
%ADD17R,0.0354X0.0315*%
%ADD18R,0.0354X0.0276*%
%ADD19R,0.0276X0.0354*%
%ADD20R,0.0315X0.0354*%
D10*
X028967Y006582D03*
X029467Y006582D03*
X029967Y006582D03*
X030467Y006582D03*
X030967Y006582D03*
X030967Y007082D03*
X030467Y007082D03*
X029967Y007082D03*
X029467Y007082D03*
X028967Y007082D03*
X028967Y007582D03*
X029467Y007582D03*
X029967Y007582D03*
X030467Y007582D03*
X030967Y007582D03*
X030967Y008082D03*
X030467Y008082D03*
X029967Y008082D03*
X029467Y008082D03*
X028967Y008082D03*
X028967Y008582D03*
X029467Y008582D03*
X029967Y008582D03*
X030467Y008582D03*
X030967Y008582D03*
X030967Y009082D03*
X030467Y009082D03*
X029967Y009082D03*
X029467Y009082D03*
X028967Y009082D03*
X028967Y009582D03*
X029467Y009582D03*
X029967Y009582D03*
X030467Y009582D03*
X030967Y009582D03*
X030967Y010082D03*
X030467Y010082D03*
X029967Y010082D03*
X029467Y010082D03*
X028967Y010082D03*
X028967Y010582D03*
X029467Y010582D03*
X029967Y010582D03*
X030467Y010582D03*
X030967Y010582D03*
X030967Y011082D03*
X030467Y011082D03*
X029967Y011082D03*
X029467Y011082D03*
X028967Y011082D03*
X028967Y011582D03*
X029467Y011582D03*
X029967Y011582D03*
X030467Y011582D03*
X030967Y011582D03*
X030967Y012082D03*
X030467Y012082D03*
X029967Y012082D03*
X029467Y012082D03*
X028967Y012082D03*
X028967Y012582D03*
X029467Y012582D03*
X029967Y012582D03*
X030467Y012582D03*
X030967Y012582D03*
X030967Y013082D03*
X030467Y013082D03*
X029967Y013082D03*
X029467Y013082D03*
X028967Y013082D03*
X028967Y013582D03*
X029467Y013582D03*
X029967Y013582D03*
X030467Y013582D03*
X030967Y013582D03*
X030967Y014082D03*
X030467Y014082D03*
X029967Y014082D03*
X029467Y014082D03*
X028967Y014082D03*
X028967Y014582D03*
X029467Y014582D03*
X029967Y014582D03*
X030467Y014582D03*
X030967Y014582D03*
X031467Y014582D03*
X031467Y014082D03*
X031467Y013582D03*
X031467Y013082D03*
X031467Y012582D03*
X031467Y012082D03*
X031467Y011582D03*
X031467Y011082D03*
X031467Y010582D03*
X031467Y010082D03*
X031467Y009582D03*
X031467Y009082D03*
X031467Y008582D03*
X031467Y008082D03*
X031467Y007582D03*
X031467Y007082D03*
X031467Y006582D03*
X031467Y015082D03*
X031467Y015582D03*
X031467Y016082D03*
X031467Y016582D03*
X031467Y017082D03*
X031467Y017582D03*
X031467Y018082D03*
X031467Y018582D03*
X031467Y019082D03*
X031467Y019582D03*
X031467Y020082D03*
X031467Y020582D03*
X031467Y021082D03*
X031467Y021582D03*
X031467Y022082D03*
X031467Y022582D03*
X031467Y023082D03*
X031467Y023582D03*
X031467Y024082D03*
X031467Y024582D03*
X031467Y025082D03*
X031467Y025582D03*
X031467Y026082D03*
X030967Y026082D03*
X030967Y025582D03*
X030467Y025582D03*
X030467Y026082D03*
X029967Y026082D03*
X029967Y025582D03*
X029467Y025582D03*
X029467Y026082D03*
X028967Y026082D03*
X028967Y025582D03*
X028967Y025082D03*
X029467Y025082D03*
X029967Y025082D03*
X030467Y025082D03*
X030967Y025082D03*
X030967Y024582D03*
X030467Y024582D03*
X029967Y024582D03*
X029467Y024582D03*
X028967Y024582D03*
X028967Y024082D03*
X029467Y024082D03*
X029967Y024082D03*
X030467Y024082D03*
X030967Y024082D03*
X030967Y023582D03*
X030967Y023082D03*
X030467Y023082D03*
X030467Y023582D03*
X029967Y023582D03*
X029967Y023082D03*
X029467Y023082D03*
X029467Y023582D03*
X028967Y023582D03*
X028967Y023082D03*
X028967Y022582D03*
X029467Y022582D03*
X029967Y022582D03*
X030467Y022582D03*
X030967Y022582D03*
X030967Y022082D03*
X030467Y022082D03*
X029967Y022082D03*
X029467Y022082D03*
X028967Y022082D03*
X028967Y021582D03*
X029467Y021582D03*
X029967Y021582D03*
X030467Y021582D03*
X030967Y021582D03*
X030967Y021082D03*
X030467Y021082D03*
X029967Y021082D03*
X029467Y021082D03*
X028967Y021082D03*
X028967Y020582D03*
X029467Y020582D03*
X029967Y020582D03*
X030467Y020582D03*
X030967Y020582D03*
X030967Y020082D03*
X030467Y020082D03*
X029967Y020082D03*
X029467Y020082D03*
X028967Y020082D03*
X028967Y019582D03*
X029467Y019582D03*
X029967Y019582D03*
X030467Y019582D03*
X030967Y019582D03*
X030967Y019082D03*
X030467Y019082D03*
X029967Y019082D03*
X029467Y019082D03*
X028967Y019082D03*
X028967Y018582D03*
X029467Y018582D03*
X029967Y018582D03*
X030467Y018582D03*
X030967Y018582D03*
X030967Y018082D03*
X030467Y018082D03*
X029967Y018082D03*
X029467Y018082D03*
X028967Y018082D03*
X028967Y017582D03*
X029467Y017582D03*
X029967Y017582D03*
X030467Y017582D03*
X030967Y017582D03*
X030967Y017082D03*
X030467Y017082D03*
X029967Y017082D03*
X029467Y017082D03*
X028967Y017082D03*
X028967Y016582D03*
X029467Y016582D03*
X029967Y016582D03*
X030467Y016582D03*
X030967Y016582D03*
X030967Y016082D03*
X030467Y016082D03*
X029967Y016082D03*
X029467Y016082D03*
X028967Y016082D03*
X028967Y015582D03*
X029467Y015582D03*
X029967Y015582D03*
X030467Y015582D03*
X030967Y015582D03*
X030967Y015082D03*
X030467Y015082D03*
X029967Y015082D03*
X029467Y015082D03*
X028967Y015082D03*
D11*
X033929Y029739D03*
X034244Y029739D03*
X034559Y029739D03*
X034874Y029739D03*
X035189Y029739D03*
X035504Y029739D03*
X035504Y030605D03*
X035189Y030605D03*
X034874Y030605D03*
X034559Y030605D03*
X034244Y030605D03*
X033929Y030605D03*
D12*
X033890Y030172D03*
X035543Y030172D03*
D13*
X036617Y030587D03*
X036617Y031257D03*
X032817Y031257D03*
X032817Y030587D03*
D14*
X030001Y029450D03*
X029745Y029450D03*
X029489Y029450D03*
X029233Y029450D03*
X029233Y027994D03*
X029489Y027994D03*
X029745Y027994D03*
X030001Y027994D03*
D15*
X030345Y028338D03*
X030345Y028594D03*
X030345Y028850D03*
X030345Y029106D03*
X028888Y029106D03*
X028888Y028850D03*
X028888Y028594D03*
X028888Y028338D03*
D16*
X028751Y030222D03*
X028751Y030772D03*
X028082Y030772D03*
X028082Y030222D03*
D17*
X038373Y029672D03*
X039160Y029298D03*
X039160Y028746D03*
X039160Y027998D03*
X039160Y027446D03*
X039160Y026698D03*
X039160Y026146D03*
X039160Y025398D03*
X038373Y025772D03*
X038373Y027072D03*
X038373Y028372D03*
X039160Y030046D03*
X027710Y020196D03*
X027710Y019448D03*
X026923Y019822D03*
D18*
X023767Y002066D03*
X023767Y002578D03*
X029117Y002578D03*
X029117Y002066D03*
X026667Y008066D03*
X026667Y008578D03*
X027717Y018466D03*
X027717Y018978D03*
X026717Y018766D03*
X026717Y019278D03*
X024617Y025966D03*
X024617Y026478D03*
X022617Y026478D03*
X022617Y025966D03*
X020667Y025966D03*
X020667Y026478D03*
X039817Y026416D03*
X039817Y026928D03*
X039817Y027466D03*
X039817Y027978D03*
X039817Y028516D03*
X039817Y029028D03*
X039817Y025878D03*
X039817Y025366D03*
D19*
X038173Y025222D03*
X037661Y025222D03*
X037661Y026522D03*
X038173Y026522D03*
X038173Y027822D03*
X037661Y027822D03*
X037661Y029122D03*
X038173Y029122D03*
X026273Y016322D03*
X025761Y016322D03*
X036711Y015922D03*
X037223Y015922D03*
D20*
X026691Y018116D03*
X025943Y018116D03*
X026317Y017328D03*
M02*
