G75*
%MOIN*%
%OFA0B0*%
%FSLAX24Y24*%
%IPPOS*%
%LPD*%
%AMOC8*
5,1,8,0,0,1.08239X$1,22.5*
%
%ADD10C,0.0000*%
%ADD11R,0.0515X0.0515*%
%ADD12C,0.0515*%
%ADD13R,0.0750X0.0750*%
%ADD14C,0.0750*%
%ADD15C,0.0250*%
%ADD16R,0.0594X0.0594*%
%ADD17C,0.0594*%
%ADD18R,0.0580X0.0580*%
%ADD19C,0.0580*%
%ADD20R,0.0650X0.0650*%
%ADD21C,0.0650*%
%ADD22R,0.0197X0.0472*%
%ADD23R,0.0472X0.0197*%
%ADD24R,0.0394X0.0433*%
%ADD25R,0.0157X0.0394*%
%ADD26R,0.0394X0.0157*%
%ADD27R,0.0433X0.0394*%
%ADD28R,0.0354X0.0315*%
%ADD29R,0.0354X0.0276*%
%ADD30R,0.0276X0.0354*%
%ADD31R,0.0315X0.0354*%
%ADD32C,0.0350*%
%ADD33C,0.0160*%
%ADD34C,0.0100*%
%ADD35C,0.1650*%
%ADD36C,0.0375*%
%ADD37C,0.0380*%
%ADD38C,0.0250*%
%ADD39C,0.0280*%
%ADD40C,0.0080*%
%ADD41C,0.0060*%
%ADD42C,0.0240*%
D10*
X001367Y000572D02*
X001367Y032572D01*
X041367Y032572D01*
X041367Y000572D01*
X001367Y000572D01*
X029967Y005627D02*
X029969Y005658D01*
X029975Y005689D01*
X029985Y005719D01*
X029998Y005747D01*
X030015Y005774D01*
X030035Y005798D01*
X030058Y005820D01*
X030083Y005838D01*
X030111Y005853D01*
X030140Y005865D01*
X030170Y005873D01*
X030201Y005877D01*
X030233Y005877D01*
X030264Y005873D01*
X030294Y005865D01*
X030323Y005853D01*
X030351Y005838D01*
X030376Y005820D01*
X030399Y005798D01*
X030419Y005774D01*
X030436Y005747D01*
X030449Y005719D01*
X030459Y005689D01*
X030465Y005658D01*
X030467Y005627D01*
X030465Y005596D01*
X030459Y005565D01*
X030449Y005535D01*
X030436Y005507D01*
X030419Y005480D01*
X030399Y005456D01*
X030376Y005434D01*
X030351Y005416D01*
X030323Y005401D01*
X030294Y005389D01*
X030264Y005381D01*
X030233Y005377D01*
X030201Y005377D01*
X030170Y005381D01*
X030140Y005389D01*
X030111Y005401D01*
X030083Y005416D01*
X030058Y005434D01*
X030035Y005456D01*
X030015Y005480D01*
X029998Y005507D01*
X029985Y005535D01*
X029975Y005565D01*
X029969Y005596D01*
X029967Y005627D01*
X028767Y027037D02*
X028769Y027068D01*
X028775Y027099D01*
X028785Y027129D01*
X028798Y027157D01*
X028815Y027184D01*
X028835Y027208D01*
X028858Y027230D01*
X028883Y027248D01*
X028911Y027263D01*
X028940Y027275D01*
X028970Y027283D01*
X029001Y027287D01*
X029033Y027287D01*
X029064Y027283D01*
X029094Y027275D01*
X029123Y027263D01*
X029151Y027248D01*
X029176Y027230D01*
X029199Y027208D01*
X029219Y027184D01*
X029236Y027157D01*
X029249Y027129D01*
X029259Y027099D01*
X029265Y027068D01*
X029267Y027037D01*
X029265Y027006D01*
X029259Y026975D01*
X029249Y026945D01*
X029236Y026917D01*
X029219Y026890D01*
X029199Y026866D01*
X029176Y026844D01*
X029151Y026826D01*
X029123Y026811D01*
X029094Y026799D01*
X029064Y026791D01*
X029033Y026787D01*
X029001Y026787D01*
X028970Y026791D01*
X028940Y026799D01*
X028911Y026811D01*
X028883Y026826D01*
X028858Y026844D01*
X028835Y026866D01*
X028815Y026890D01*
X028798Y026917D01*
X028785Y026945D01*
X028775Y026975D01*
X028769Y027006D01*
X028767Y027037D01*
D11*
X025917Y014272D03*
X025917Y007872D03*
D12*
X025917Y008659D03*
X025129Y008659D03*
X024342Y008659D03*
X024342Y007872D03*
X025129Y007872D03*
X023554Y007872D03*
X022767Y007872D03*
X021980Y007872D03*
X021980Y008659D03*
X022767Y008659D03*
X023554Y008659D03*
X021192Y008659D03*
X021192Y007872D03*
X020405Y007872D03*
X020405Y008659D03*
X019617Y008659D03*
X018830Y008659D03*
X018043Y008659D03*
X018043Y007872D03*
X018830Y007872D03*
X019617Y007872D03*
X017255Y007872D03*
X016468Y007872D03*
X016468Y008659D03*
X017255Y008659D03*
X015680Y008659D03*
X015680Y007872D03*
X014893Y007872D03*
X014106Y007872D03*
X014106Y008659D03*
X014893Y008659D03*
X013318Y008659D03*
X013318Y007872D03*
X012531Y007872D03*
X011743Y007872D03*
X010956Y007872D03*
X010169Y007872D03*
X010169Y008659D03*
X010956Y008659D03*
X011743Y008659D03*
X012531Y008659D03*
X009381Y008659D03*
X009381Y007872D03*
X008594Y007872D03*
X008594Y008659D03*
X007806Y008659D03*
X007806Y007872D03*
X007019Y007872D03*
X007019Y008659D03*
X007019Y014272D03*
X007806Y014272D03*
X007806Y015059D03*
X007019Y015059D03*
X008594Y015059D03*
X008594Y014272D03*
X009381Y014272D03*
X009381Y015059D03*
X010169Y015059D03*
X010169Y014272D03*
X010956Y014272D03*
X011743Y014272D03*
X012531Y014272D03*
X013318Y014272D03*
X013318Y015059D03*
X012531Y015059D03*
X011743Y015059D03*
X010956Y015059D03*
X014106Y015059D03*
X014106Y014272D03*
X014893Y014272D03*
X015680Y014272D03*
X015680Y015059D03*
X014893Y015059D03*
X016468Y015059D03*
X016468Y014272D03*
X017255Y014272D03*
X017255Y015059D03*
X018043Y015059D03*
X018830Y015059D03*
X018830Y014272D03*
X018043Y014272D03*
X019617Y014272D03*
X019617Y015059D03*
X020405Y015059D03*
X020405Y014272D03*
X021192Y014272D03*
X021192Y015059D03*
X021980Y015059D03*
X021980Y014272D03*
X022767Y014272D03*
X022767Y015059D03*
X023554Y015059D03*
X023554Y014272D03*
X024342Y014272D03*
X025129Y014272D03*
X025129Y015059D03*
X024342Y015059D03*
X025917Y015059D03*
D13*
X003267Y009872D03*
D14*
X002267Y009872D03*
X002267Y008872D03*
X003267Y008872D03*
X003267Y007872D03*
X002267Y007872D03*
X002267Y006872D03*
X003267Y006872D03*
X003267Y005872D03*
X002267Y005872D03*
D15*
X016717Y006022D03*
X017117Y005622D03*
X022367Y006922D03*
X025367Y011672D03*
X025367Y012272D03*
X028117Y014332D03*
X028967Y014082D03*
X029467Y014082D03*
X029967Y014082D03*
X030467Y014082D03*
X030967Y014082D03*
X030967Y013582D03*
X030467Y013582D03*
X029967Y013582D03*
X029467Y013582D03*
X028967Y013582D03*
X028967Y013082D03*
X029467Y013082D03*
X029967Y013082D03*
X030467Y013082D03*
X030967Y013082D03*
X030967Y012582D03*
X030467Y012582D03*
X029967Y012582D03*
X029467Y012582D03*
X028967Y012582D03*
X028967Y012082D03*
X029467Y012082D03*
X029967Y012082D03*
X030467Y012082D03*
X030967Y012082D03*
X030967Y011582D03*
X030467Y011582D03*
X029967Y011582D03*
X029467Y011582D03*
X028967Y011582D03*
X028967Y011082D03*
X029467Y011082D03*
X029967Y011082D03*
X030467Y011082D03*
X030967Y011082D03*
X030967Y010582D03*
X030467Y010582D03*
X029967Y010582D03*
X029467Y010582D03*
X028967Y010582D03*
X028967Y010082D03*
X029467Y010082D03*
X029967Y010082D03*
X030467Y010082D03*
X030967Y010082D03*
X030967Y009582D03*
X030467Y009582D03*
X029967Y009582D03*
X029467Y009582D03*
X028967Y009582D03*
X028967Y009082D03*
X029467Y009082D03*
X029967Y009082D03*
X030467Y009082D03*
X030967Y009082D03*
X030967Y008582D03*
X030467Y008582D03*
X029967Y008582D03*
X029467Y008582D03*
X028967Y008582D03*
X028967Y008082D03*
X029467Y008082D03*
X029967Y008082D03*
X030467Y008082D03*
X030967Y008082D03*
X030967Y007582D03*
X030467Y007582D03*
X029967Y007582D03*
X029467Y007582D03*
X028967Y007582D03*
X028967Y007082D03*
X029467Y007082D03*
X029967Y007082D03*
X030467Y007082D03*
X030967Y007082D03*
X030967Y006582D03*
X030467Y006582D03*
X029967Y006582D03*
X029467Y006582D03*
X028967Y006582D03*
X031467Y006582D03*
X031467Y007082D03*
X031467Y007582D03*
X031467Y008082D03*
X031467Y008582D03*
X031467Y009082D03*
X031467Y009582D03*
X031467Y010082D03*
X031467Y010582D03*
X031467Y011082D03*
X031467Y011582D03*
X031467Y012082D03*
X031467Y012582D03*
X031467Y013082D03*
X031467Y013582D03*
X031467Y014082D03*
X031917Y014332D03*
X031467Y014582D03*
X031917Y014832D03*
X031467Y015082D03*
X031467Y015582D03*
X031917Y015832D03*
X031467Y016082D03*
X031467Y016582D03*
X031467Y017082D03*
X031467Y017582D03*
X031467Y018082D03*
X031467Y018582D03*
X031467Y019082D03*
X031467Y019582D03*
X031467Y020082D03*
X031467Y020582D03*
X031467Y021082D03*
X031467Y021582D03*
X032057Y021482D03*
X031467Y022082D03*
X031467Y022582D03*
X031467Y023082D03*
X031467Y023582D03*
X031467Y024082D03*
X031967Y024032D03*
X032367Y023472D03*
X032367Y023022D03*
X030967Y023082D03*
X030967Y023582D03*
X030467Y023582D03*
X030467Y023082D03*
X029967Y023082D03*
X029967Y023582D03*
X029467Y023582D03*
X029467Y023082D03*
X028967Y023082D03*
X028967Y023582D03*
X028967Y024082D03*
X029467Y024082D03*
X029967Y024082D03*
X030467Y024082D03*
X030967Y024082D03*
X030967Y024582D03*
X030967Y025082D03*
X030467Y025082D03*
X030467Y024582D03*
X029967Y024582D03*
X029967Y025082D03*
X029467Y025082D03*
X029467Y024582D03*
X028967Y024582D03*
X028967Y025082D03*
X028567Y024982D03*
X028267Y024722D03*
X027967Y024472D03*
X027967Y024072D03*
X028417Y023532D03*
X028317Y022972D03*
X027967Y023072D03*
X028117Y022372D03*
X027847Y022072D03*
X027417Y022472D03*
X026917Y022972D03*
X028117Y021572D03*
X028967Y021582D03*
X029467Y021582D03*
X029967Y021582D03*
X030467Y021582D03*
X030967Y021582D03*
X030967Y021082D03*
X030467Y021082D03*
X029967Y021082D03*
X029467Y021082D03*
X028967Y021082D03*
X028967Y020582D03*
X029467Y020582D03*
X029967Y020582D03*
X030467Y020582D03*
X030967Y020582D03*
X030967Y020082D03*
X030467Y020082D03*
X029967Y020082D03*
X029467Y020082D03*
X028967Y020082D03*
X028967Y019582D03*
X029467Y019582D03*
X029967Y019582D03*
X030467Y019582D03*
X030967Y019582D03*
X030967Y019082D03*
X030467Y019082D03*
X029967Y019082D03*
X029467Y019082D03*
X028967Y019082D03*
X028967Y018582D03*
X029467Y018582D03*
X029967Y018582D03*
X030467Y018582D03*
X030967Y018582D03*
X030967Y018082D03*
X030467Y018082D03*
X029967Y018082D03*
X029467Y018082D03*
X028967Y018082D03*
X028967Y017582D03*
X029467Y017582D03*
X029967Y017582D03*
X030467Y017582D03*
X030967Y017582D03*
X030967Y017082D03*
X030467Y017082D03*
X029967Y017082D03*
X029467Y017082D03*
X028967Y017082D03*
X028967Y016582D03*
X029467Y016582D03*
X029967Y016582D03*
X030467Y016582D03*
X030967Y016582D03*
X030967Y016082D03*
X030467Y016082D03*
X029967Y016082D03*
X029467Y016082D03*
X028967Y016082D03*
X028967Y015582D03*
X029467Y015582D03*
X029967Y015582D03*
X030467Y015582D03*
X030967Y015582D03*
X030967Y015082D03*
X030467Y015082D03*
X029967Y015082D03*
X029467Y015082D03*
X028967Y015082D03*
X028967Y014582D03*
X029467Y014582D03*
X029967Y014582D03*
X030467Y014582D03*
X030967Y014582D03*
X032467Y012822D03*
X033117Y013322D03*
X034217Y013722D03*
X034217Y014072D03*
X034217Y014422D03*
X034567Y015672D03*
X034517Y016322D03*
X033117Y015572D03*
X036717Y015322D03*
X036717Y012322D03*
X036717Y009322D03*
X036717Y006322D03*
X032867Y006772D03*
X032867Y010022D03*
X032517Y012172D03*
X028127Y016082D03*
X028117Y016582D03*
X028117Y017582D03*
X028117Y018082D03*
X028367Y018872D03*
X028267Y019582D03*
X028241Y020196D03*
X028117Y020532D03*
X028967Y022082D03*
X029467Y022082D03*
X029967Y022082D03*
X030467Y022082D03*
X030967Y022082D03*
X030967Y022582D03*
X030467Y022582D03*
X029967Y022582D03*
X029467Y022582D03*
X028967Y022582D03*
X031467Y024582D03*
X031467Y025082D03*
X031467Y025582D03*
X031467Y026082D03*
X030967Y026082D03*
X030967Y025582D03*
X030467Y025582D03*
X030467Y026082D03*
X029967Y026082D03*
X029967Y025582D03*
X029467Y025582D03*
X029467Y026082D03*
X028967Y026082D03*
X028967Y025582D03*
X029489Y026572D03*
X029967Y027172D03*
X030767Y026872D03*
X030817Y028172D03*
X030817Y028594D03*
X030817Y029022D03*
X028267Y028872D03*
X028267Y029772D03*
X032817Y031972D03*
X033367Y030605D03*
X036067Y030605D03*
X036267Y029972D03*
X035504Y028722D03*
X035189Y028422D03*
X037967Y028372D03*
X037967Y027072D03*
X037967Y025772D03*
X033917Y025022D03*
X033917Y024522D03*
X033417Y021422D03*
X027167Y017972D03*
X025943Y018998D03*
X023417Y019472D03*
X021467Y021372D03*
X021117Y021722D03*
X020767Y022072D03*
X018817Y022072D03*
X015217Y024872D03*
X014717Y024972D03*
X013117Y023472D03*
X012567Y022222D03*
X011467Y024322D03*
X008317Y024372D03*
X005417Y024772D03*
X021597Y013242D03*
X023467Y015872D03*
X023117Y016772D03*
X037967Y029672D03*
D16*
X012867Y018572D03*
D17*
X012867Y019572D03*
X012867Y020572D03*
D18*
X009767Y001422D03*
X020617Y001422D03*
X031467Y001422D03*
X040517Y005722D03*
X040517Y016572D03*
X040517Y027422D03*
D19*
X040517Y026635D03*
X040517Y025847D03*
X040517Y025060D03*
X040517Y028209D03*
X040517Y028997D03*
X040517Y029784D03*
X040517Y030572D03*
X040517Y019722D03*
X040517Y018934D03*
X040517Y018147D03*
X040517Y017359D03*
X040517Y015785D03*
X040517Y014997D03*
X040517Y014210D03*
X040517Y008872D03*
X040517Y008084D03*
X040517Y007297D03*
X040517Y006509D03*
X040517Y004935D03*
X040517Y004147D03*
X040517Y003360D03*
X034616Y001422D03*
X033829Y001422D03*
X033041Y001422D03*
X032254Y001422D03*
X030679Y001422D03*
X029892Y001422D03*
X029104Y001422D03*
X023766Y001422D03*
X022979Y001422D03*
X022191Y001422D03*
X021404Y001422D03*
X019829Y001422D03*
X019042Y001422D03*
X018254Y001422D03*
X012916Y001422D03*
X012129Y001422D03*
X011341Y001422D03*
X010554Y001422D03*
X008979Y001422D03*
X008192Y001422D03*
X007404Y001422D03*
D20*
X007151Y028004D03*
X006167Y029972D03*
X017717Y029972D03*
X018701Y028004D03*
D21*
X020669Y028004D03*
X022638Y028004D03*
X024606Y028004D03*
X026575Y028004D03*
X025591Y029972D03*
X023622Y029972D03*
X021654Y029972D03*
X019685Y029972D03*
X015025Y028004D03*
X013056Y028004D03*
X011088Y028004D03*
X009119Y028004D03*
X008135Y029972D03*
X010104Y029972D03*
X012072Y029972D03*
X014041Y029972D03*
D22*
X033929Y029739D03*
X034244Y029739D03*
X034559Y029739D03*
X034874Y029739D03*
X035189Y029739D03*
X035504Y029739D03*
X035504Y030605D03*
X035189Y030605D03*
X034874Y030605D03*
X034559Y030605D03*
X034244Y030605D03*
X033929Y030605D03*
D23*
X033890Y030172D03*
X035543Y030172D03*
D24*
X036617Y030587D03*
X036617Y031257D03*
X032817Y031257D03*
X032817Y030587D03*
D25*
X030001Y029450D03*
X029745Y029450D03*
X029489Y029450D03*
X029233Y029450D03*
X029233Y027994D03*
X029489Y027994D03*
X029745Y027994D03*
X030001Y027994D03*
D26*
X030345Y028338D03*
X030345Y028594D03*
X030345Y028850D03*
X030345Y029106D03*
X028888Y029106D03*
X028888Y028850D03*
X028888Y028594D03*
X028888Y028338D03*
D27*
X028751Y030222D03*
X028751Y030772D03*
X028082Y030772D03*
X028082Y030222D03*
D28*
X038373Y029672D03*
X039160Y029298D03*
X039160Y028746D03*
X039160Y027998D03*
X039160Y027446D03*
X039160Y026698D03*
X039160Y026146D03*
X039160Y025398D03*
X038373Y025772D03*
X038373Y027072D03*
X038373Y028372D03*
X039160Y030046D03*
X027710Y020196D03*
X027710Y019448D03*
X026923Y019822D03*
D29*
X026717Y019278D03*
X026717Y018766D03*
X027717Y018978D03*
X027717Y018466D03*
X024617Y025966D03*
X024617Y026478D03*
X022617Y026478D03*
X022617Y025966D03*
X020667Y025966D03*
X020667Y026478D03*
X039817Y026416D03*
X039817Y026928D03*
X039817Y027466D03*
X039817Y027978D03*
X039817Y028516D03*
X039817Y029028D03*
X039817Y025878D03*
X039817Y025366D03*
X026667Y008578D03*
X026667Y008066D03*
X029117Y002578D03*
X029117Y002066D03*
X023767Y002066D03*
X023767Y002578D03*
D30*
X036711Y015922D03*
X037223Y015922D03*
X026273Y016322D03*
X025761Y016322D03*
X037661Y025222D03*
X038173Y025222D03*
X038173Y026522D03*
X037661Y026522D03*
X037661Y027822D03*
X038173Y027822D03*
X038173Y029122D03*
X037661Y029122D03*
D31*
X026691Y018116D03*
X025943Y018116D03*
X026317Y017328D03*
D32*
X036317Y015528D02*
X036711Y015922D01*
X036317Y015528D02*
X036317Y007122D01*
X031773Y002578D01*
X029117Y002578D01*
X023767Y002578D01*
X006911Y002578D01*
X004717Y004772D01*
X004717Y015522D01*
X009767Y020572D01*
X012867Y020572D01*
D33*
X012417Y021722D02*
X011467Y022672D01*
X011467Y024322D01*
X012417Y021722D02*
X021117Y021722D01*
X021467Y021372D02*
X011317Y021372D01*
X008317Y024372D01*
X014717Y024972D02*
X014717Y027695D01*
X015025Y028004D01*
X020667Y028001D02*
X020669Y028004D01*
X022617Y027982D02*
X022638Y028004D01*
X024606Y028004D02*
X024617Y027993D01*
X024617Y025966D02*
X024606Y025956D01*
X024606Y022662D01*
X020017Y018072D01*
X020017Y015372D01*
X020405Y015059D02*
X020807Y014658D01*
X020807Y014522D01*
X021192Y014272D02*
X021980Y014272D01*
X022767Y014272D01*
X023554Y014272D01*
X023554Y015059D02*
X023817Y015322D01*
X023817Y017372D01*
X026617Y020172D01*
X027167Y020172D01*
X027507Y019832D01*
X028047Y019832D01*
X028267Y019582D02*
X028967Y019582D01*
X028967Y019082D02*
X028967Y019072D01*
X028567Y019072D01*
X028367Y018872D01*
X028117Y018082D02*
X028967Y018082D01*
X028967Y017582D02*
X028117Y017582D01*
X028117Y016582D02*
X028967Y016582D01*
X028967Y016082D02*
X028127Y016082D01*
X027167Y016122D02*
X028207Y015082D01*
X028967Y015082D01*
X028967Y014582D02*
X028367Y014582D01*
X028117Y014332D01*
X027507Y013722D01*
X025679Y013722D01*
X025129Y014272D01*
X024342Y014272D02*
X025242Y013372D01*
X028757Y013372D01*
X028967Y013582D01*
X031817Y013722D02*
X032217Y014122D01*
X032217Y015972D01*
X031857Y016332D01*
X031667Y016332D01*
X032517Y016722D02*
X031857Y017332D01*
X031667Y017332D01*
X032517Y016722D02*
X032517Y014022D01*
X032117Y013622D01*
X032117Y010772D01*
X032867Y010022D01*
X032517Y012172D02*
X032817Y012472D01*
X032817Y013472D01*
X033467Y014122D01*
X033467Y015672D01*
X034567Y015672D01*
X034867Y015522D02*
X033917Y014572D01*
X033917Y014122D01*
X033117Y013322D01*
X032817Y013922D02*
X032467Y013572D01*
X032467Y012822D01*
X031817Y013722D02*
X031817Y007822D01*
X032867Y006772D01*
X026667Y008066D02*
X026111Y008066D01*
X025917Y007872D01*
X025998Y008578D02*
X025917Y008659D01*
X025998Y008578D02*
X026667Y008578D01*
X024342Y008659D02*
X023947Y008264D01*
X023947Y008122D01*
X023947Y007622D02*
X023947Y006902D01*
X022667Y005622D01*
X017117Y005622D01*
X016717Y006022D02*
X022017Y006022D01*
X023167Y007172D01*
X023167Y007622D01*
X023167Y008122D02*
X023167Y008272D01*
X023554Y008659D01*
X023554Y010284D01*
X020017Y013822D01*
X020017Y013972D01*
X020807Y013972D02*
X020807Y013532D01*
X022667Y011672D01*
X025367Y011672D01*
X025367Y012272D02*
X022567Y012272D01*
X021597Y013242D01*
X021980Y015059D02*
X021980Y017535D01*
X028277Y023832D01*
X028397Y023832D01*
X027977Y024082D02*
X027967Y024072D01*
X027977Y024082D02*
X028967Y024082D01*
X028567Y024982D02*
X028667Y025082D01*
X028967Y025082D01*
X028767Y025332D02*
X028227Y025332D01*
X026617Y023722D01*
X026617Y023172D01*
X021192Y017748D01*
X021192Y015059D01*
X020405Y015059D02*
X020405Y017960D01*
X028277Y025832D01*
X028767Y025832D01*
X029489Y026572D02*
X029489Y027994D01*
X029745Y027994D02*
X029745Y027394D01*
X029967Y027172D01*
X030001Y027638D02*
X030767Y026872D01*
X030467Y026082D02*
X031917Y027532D01*
X031917Y029872D01*
X030917Y030872D01*
X030867Y030822D01*
X030067Y030022D01*
X028951Y030022D01*
X028751Y030222D01*
X028301Y029772D01*
X028267Y029772D01*
X027917Y030057D02*
X027917Y029222D01*
X027867Y029272D01*
X027072Y029272D01*
X027917Y029222D02*
X027917Y028572D01*
X028151Y028338D01*
X028888Y028338D01*
X029233Y027994D01*
X028888Y028338D02*
X028883Y028338D01*
X028917Y028372D01*
X028917Y028566D01*
X028888Y028594D01*
X028883Y028338D02*
X028867Y028322D01*
X028888Y028850D02*
X028267Y028850D01*
X028267Y028872D01*
X028888Y029106D02*
X029233Y029450D01*
X029489Y029450D01*
X029745Y029450D01*
X030001Y029450D01*
X030345Y029106D01*
X030345Y028850D02*
X030645Y028850D01*
X030817Y029022D01*
X030817Y028594D02*
X030345Y028594D01*
X030345Y028338D02*
X030651Y028338D01*
X030817Y028172D01*
X030001Y027994D02*
X030001Y027638D01*
X030001Y029450D02*
X030001Y029956D01*
X030067Y030022D01*
X030917Y030872D02*
X031301Y031257D01*
X032817Y031257D01*
X034244Y031257D01*
X034244Y030605D01*
X033929Y030605D02*
X033367Y030605D01*
X032834Y030605D01*
X032817Y030587D01*
X033617Y030072D02*
X033717Y030172D01*
X033890Y030172D01*
X033617Y030072D02*
X033617Y021722D01*
X035217Y020122D01*
X035217Y015422D01*
X034217Y014422D01*
X034217Y014072D02*
X034317Y014072D01*
X035567Y015322D01*
X035567Y020272D01*
X035189Y020650D01*
X035189Y028074D01*
X035187Y028072D01*
X035189Y028074D02*
X035189Y028422D01*
X035189Y029739D01*
X035504Y029739D02*
X035504Y028722D01*
X035504Y020835D01*
X035917Y020422D01*
X035917Y015222D01*
X034417Y013722D01*
X034217Y013722D01*
X032817Y013922D02*
X032817Y017422D01*
X031907Y018332D01*
X031667Y018332D01*
X031667Y018832D02*
X032207Y018832D01*
X033117Y017922D01*
X033117Y015572D01*
X033467Y015672D02*
X033467Y018272D01*
X032407Y019332D01*
X031667Y019332D01*
X032807Y020332D02*
X033092Y020047D01*
X034517Y018622D01*
X034517Y016322D01*
X034867Y015522D02*
X034867Y019972D01*
X033417Y021422D01*
X032367Y021322D02*
X031877Y020832D01*
X031667Y020832D01*
X031667Y020332D02*
X032807Y020332D01*
X032367Y021322D02*
X032367Y023022D01*
X032367Y023472D02*
X031917Y023022D01*
X031917Y022022D01*
X031727Y021832D01*
X031667Y021832D01*
X031667Y021332D02*
X031907Y021332D01*
X032057Y021482D01*
X028967Y021082D02*
X027027Y021082D01*
X023467Y017522D01*
X023467Y015872D01*
X023117Y016772D02*
X023117Y017672D01*
X026867Y021422D01*
X027417Y022472D02*
X023042Y018097D01*
X022867Y017922D01*
X022767Y017822D01*
X022767Y015059D01*
X024342Y015059D02*
X025604Y016322D01*
X025761Y016322D01*
X027167Y016122D02*
X027167Y017972D01*
X026691Y018116D02*
X026691Y018202D01*
X025943Y018116D02*
X025943Y018998D01*
X027710Y020196D02*
X028241Y020196D01*
X028117Y020532D02*
X028167Y020582D01*
X028967Y020582D01*
X026917Y022972D02*
X023417Y019472D01*
X021817Y020872D02*
X021817Y021472D01*
X020667Y022622D01*
X020667Y025966D01*
X022617Y025966D02*
X022638Y025945D01*
X022638Y021193D01*
X019217Y017772D01*
X019217Y015372D01*
X018436Y015372D02*
X018436Y017492D01*
X018536Y017592D01*
X018592Y017647D01*
X021817Y020872D01*
X020767Y022072D02*
X018817Y022072D01*
X018043Y015059D02*
X017255Y015059D01*
X016468Y015059D01*
X015680Y015059D01*
X014893Y015059D01*
X014106Y015059D01*
X013318Y015059D01*
X012531Y015059D01*
X011743Y015059D01*
X010956Y015059D01*
X010169Y015059D01*
X009381Y015059D01*
X008594Y015059D01*
X007806Y015059D01*
X007019Y015059D01*
X006167Y014207D01*
X006167Y008724D01*
X007019Y007872D01*
X007806Y007872D01*
X008594Y007872D01*
X009381Y007872D01*
X010169Y007872D01*
X010956Y007872D01*
X011743Y007872D01*
X012531Y007872D01*
X013318Y007872D01*
X014106Y007872D01*
X014893Y007872D01*
X015680Y007872D01*
X016468Y007872D01*
X016468Y008659D01*
X017647Y008422D02*
X017647Y008268D01*
X018043Y007872D01*
X019217Y008273D02*
X019217Y008422D01*
X019217Y008273D02*
X019617Y007872D01*
X020017Y008260D02*
X020017Y008422D01*
X020017Y008260D02*
X020405Y007872D01*
X021192Y008659D02*
X021192Y010946D01*
X018436Y013702D01*
X018436Y013972D01*
X018043Y014272D02*
X017255Y014272D01*
X017255Y015059D01*
X017255Y014272D02*
X016468Y014272D01*
X015680Y014272D01*
X014893Y014272D01*
X014106Y014272D01*
X014168Y013422D02*
X014268Y013422D01*
X019217Y013722D02*
X019217Y013972D01*
X019217Y013722D02*
X021980Y010959D01*
X021980Y008659D01*
X022367Y008272D01*
X022367Y008072D01*
X021980Y007872D02*
X021580Y008272D01*
X021467Y008272D01*
X022367Y007622D02*
X022367Y006922D01*
X008742Y000872D02*
X008192Y001422D01*
X008742Y000872D02*
X038817Y000872D01*
X041067Y003122D01*
X041067Y015235D01*
X040517Y015785D01*
X040717Y024522D02*
X038167Y024522D01*
X037661Y025028D01*
X037661Y025222D01*
X037661Y026522D01*
X037661Y027822D01*
X037661Y029122D01*
X038173Y029122D02*
X038373Y029322D01*
X038373Y029672D01*
X037967Y029672D01*
X038767Y030372D02*
X038801Y030406D01*
X038767Y030372D02*
X038767Y028722D01*
X038791Y028746D01*
X039160Y028746D01*
X038767Y028722D02*
X038767Y027422D01*
X038791Y027446D01*
X039160Y027446D01*
X038767Y027422D02*
X038767Y026322D01*
X038967Y026122D01*
X039136Y026122D01*
X039160Y026146D01*
X038373Y025772D02*
X037967Y025772D01*
X038367Y025766D02*
X038367Y025416D01*
X038173Y025222D01*
X038173Y026522D02*
X038373Y026722D01*
X038373Y027072D01*
X037967Y027072D01*
X038173Y027822D02*
X038373Y028022D01*
X038373Y028372D01*
X037967Y028372D01*
X036267Y029972D02*
X036067Y030172D01*
X035543Y030172D01*
X035504Y030605D02*
X036067Y030605D01*
X036267Y030605D01*
X036599Y030605D01*
X036617Y030587D01*
X036617Y031257D02*
X039832Y031257D01*
X040517Y030572D01*
X041067Y030022D01*
X041067Y024872D01*
X040717Y024522D01*
X034244Y024850D02*
X034244Y029739D01*
X033929Y029739D02*
X033929Y025035D01*
X033917Y025022D01*
X034244Y024850D02*
X033917Y024522D01*
X028082Y030222D02*
X027917Y030057D01*
X028082Y030222D02*
X028082Y030772D01*
X028082Y031037D01*
X029017Y031972D01*
X032817Y031972D01*
X034244Y031257D02*
X034559Y031257D01*
X034559Y030605D01*
X035189Y030605D02*
X035189Y031257D01*
X034559Y031257D01*
X035189Y031257D02*
X036617Y031257D01*
X036782Y031257D01*
X028751Y030772D02*
X028751Y030222D01*
X004217Y010022D02*
X003717Y010522D01*
X002767Y010522D01*
X002267Y010022D01*
X002267Y009872D01*
X003267Y008872D02*
X002267Y007872D01*
X003267Y007872D02*
X003867Y007272D01*
X003867Y005622D01*
X003517Y005272D01*
X002867Y005272D01*
X002267Y005872D01*
X004217Y004610D02*
X004217Y010022D01*
X004217Y004610D02*
X007404Y001422D01*
X002627Y001832D02*
X001667Y002792D01*
X001667Y029862D01*
X002627Y030822D01*
D34*
X001517Y030812D02*
X027715Y030812D01*
X027715Y030910D02*
X001517Y030910D01*
X001517Y031009D02*
X027715Y031009D01*
X027715Y031031D02*
X027715Y030513D01*
X027732Y030497D01*
X027715Y030481D01*
X027715Y030181D01*
X027687Y030152D01*
X027687Y029502D01*
X027222Y029502D01*
X027126Y029542D01*
X025793Y029542D01*
X025860Y029570D01*
X025993Y029703D01*
X026065Y029878D01*
X026065Y030066D01*
X025993Y030241D01*
X025860Y030375D01*
X025685Y030447D01*
X025496Y030447D01*
X025322Y030375D01*
X025188Y030241D01*
X025116Y030066D01*
X025116Y029878D01*
X025188Y029703D01*
X025322Y029570D01*
X025388Y029542D01*
X023825Y029542D01*
X023891Y029570D01*
X024025Y029703D01*
X024097Y029878D01*
X024097Y030066D01*
X024025Y030241D01*
X023891Y030375D01*
X023717Y030447D01*
X023528Y030447D01*
X023353Y030375D01*
X023220Y030241D01*
X023147Y030066D01*
X023147Y029878D01*
X023220Y029703D01*
X023353Y029570D01*
X023420Y029542D01*
X021856Y029542D01*
X021923Y029570D01*
X022056Y029703D01*
X022128Y029878D01*
X022128Y030066D01*
X022056Y030241D01*
X021923Y030375D01*
X021748Y030447D01*
X021559Y030447D01*
X021385Y030375D01*
X021251Y030241D01*
X021179Y030066D01*
X021179Y029878D01*
X021251Y029703D01*
X021385Y029570D01*
X021451Y029542D01*
X019888Y029542D01*
X019954Y029570D01*
X020088Y029703D01*
X020160Y029878D01*
X020160Y030066D01*
X020088Y030241D01*
X019954Y030375D01*
X019780Y030447D01*
X019591Y030447D01*
X019416Y030375D01*
X019283Y030241D01*
X019210Y030066D01*
X019210Y029878D01*
X019283Y029703D01*
X019416Y029570D01*
X019483Y029542D01*
X018583Y029542D01*
X018571Y029547D01*
X018462Y029547D01*
X018361Y029505D01*
X015534Y026678D01*
X015492Y026577D01*
X015492Y025557D01*
X014971Y025036D01*
X013392Y023457D01*
X013392Y023475D01*
X013392Y023527D01*
X013391Y023529D01*
X013391Y023532D01*
X013370Y023580D01*
X013350Y023628D01*
X013348Y023630D01*
X013347Y023632D01*
X013309Y023668D01*
X013272Y023705D01*
X013270Y023706D01*
X011959Y024968D01*
X011922Y025005D01*
X011920Y025006D01*
X011918Y025008D01*
X011870Y025027D01*
X011821Y025047D01*
X011819Y025047D01*
X011816Y025048D01*
X011764Y025047D01*
X005362Y025047D01*
X005261Y025005D01*
X005184Y024928D01*
X005142Y024827D01*
X005142Y024717D01*
X005184Y024616D01*
X005261Y024539D01*
X005362Y024497D01*
X005587Y024497D01*
X005587Y016852D01*
X004533Y015798D01*
X004533Y015798D01*
X004441Y015706D01*
X004392Y015587D01*
X004392Y010752D01*
X002671Y010752D01*
X002316Y010397D01*
X002162Y010397D01*
X001969Y010317D01*
X001822Y010169D01*
X001742Y009976D01*
X001742Y009768D01*
X001822Y009575D01*
X001969Y009427D01*
X002102Y009372D01*
X001969Y009317D01*
X001822Y009169D01*
X001742Y008976D01*
X001742Y008768D01*
X001822Y008575D01*
X001969Y008427D01*
X002102Y008372D01*
X001969Y008317D01*
X001822Y008169D01*
X001742Y007976D01*
X001742Y007768D01*
X001822Y007575D01*
X001969Y007427D01*
X002102Y007372D01*
X001969Y007317D01*
X001822Y007169D01*
X001742Y006976D01*
X001742Y006768D01*
X001822Y006575D01*
X001969Y006427D01*
X002102Y006372D01*
X001969Y006317D01*
X001822Y006169D01*
X001742Y005976D01*
X001742Y005768D01*
X001822Y005575D01*
X001969Y005427D01*
X002162Y005347D01*
X002371Y005347D01*
X002438Y005375D01*
X002771Y005042D01*
X003612Y005042D01*
X003747Y005177D01*
X003987Y005417D01*
X003987Y004515D01*
X004121Y004380D01*
X006972Y001529D01*
X006964Y001510D01*
X006964Y001335D01*
X007031Y001173D01*
X007155Y001049D01*
X007317Y000982D01*
X007492Y000982D01*
X007654Y001049D01*
X007777Y001173D01*
X007798Y001223D01*
X007819Y001173D01*
X007943Y001049D01*
X008104Y000982D01*
X008279Y000982D01*
X008299Y000990D01*
X008567Y000722D01*
X001517Y000722D01*
X001517Y032422D01*
X041217Y032422D01*
X041217Y023652D01*
X035734Y023652D01*
X035734Y028563D01*
X035737Y028566D01*
X035779Y028667D01*
X035779Y028777D01*
X035737Y028878D01*
X035734Y028881D01*
X035734Y029422D01*
X035752Y029441D01*
X035752Y029924D01*
X035842Y029924D01*
X035860Y029942D01*
X035971Y029942D01*
X035992Y029922D01*
X035992Y029917D01*
X036034Y029816D01*
X036111Y029739D01*
X036212Y029697D01*
X036321Y029697D01*
X036422Y029739D01*
X036500Y029816D01*
X036542Y029917D01*
X036542Y030027D01*
X036500Y030128D01*
X036422Y030205D01*
X036385Y030221D01*
X038537Y030221D01*
X038537Y030281D02*
X038537Y029980D01*
X038134Y029980D01*
X038078Y029924D01*
X038021Y029947D01*
X037912Y029947D01*
X037811Y029905D01*
X037734Y029828D01*
X037692Y029727D01*
X037692Y029617D01*
X037734Y029516D01*
X037801Y029449D01*
X037680Y029449D01*
X037680Y029141D01*
X037642Y029141D01*
X037642Y029449D01*
X037503Y029449D01*
X037465Y029439D01*
X037431Y029419D01*
X037403Y029391D01*
X037383Y029357D01*
X037373Y029319D01*
X037373Y029141D01*
X037642Y029141D01*
X037642Y029103D01*
X037680Y029103D01*
X037680Y028795D01*
X037818Y028795D01*
X037856Y028805D01*
X037891Y028825D01*
X037917Y028851D01*
X037973Y028795D01*
X038372Y028795D01*
X038460Y028883D01*
X038460Y029085D01*
X038537Y029161D01*
X038537Y028680D01*
X038134Y028680D01*
X038078Y028624D01*
X038021Y028647D01*
X037912Y028647D01*
X037811Y028605D01*
X037734Y028528D01*
X037692Y028427D01*
X037692Y028317D01*
X037734Y028216D01*
X037801Y028149D01*
X037680Y028149D01*
X037680Y027841D01*
X037642Y027841D01*
X037642Y028149D01*
X037503Y028149D01*
X037465Y028139D01*
X037431Y028119D01*
X037403Y028091D01*
X037383Y028057D01*
X037373Y028019D01*
X037373Y027841D01*
X037642Y027841D01*
X037642Y027803D01*
X037680Y027803D01*
X037680Y027495D01*
X037818Y027495D01*
X037856Y027505D01*
X037891Y027525D01*
X037917Y027551D01*
X037973Y027495D01*
X038372Y027495D01*
X038460Y027583D01*
X038460Y027785D01*
X038537Y027861D01*
X038537Y027380D01*
X038134Y027380D01*
X038078Y027324D01*
X038021Y027347D01*
X037912Y027347D01*
X037811Y027305D01*
X037734Y027228D01*
X037692Y027127D01*
X037692Y027017D01*
X037734Y026916D01*
X037801Y026849D01*
X037680Y026849D01*
X037680Y026541D01*
X037642Y026541D01*
X037642Y026849D01*
X037503Y026849D01*
X037465Y026839D01*
X037431Y026819D01*
X037403Y026791D01*
X037383Y026757D01*
X037373Y026719D01*
X037373Y026541D01*
X037642Y026541D01*
X037642Y026503D01*
X037680Y026503D01*
X037680Y026195D01*
X037737Y026195D01*
X037737Y025931D01*
X037734Y025928D01*
X037692Y025827D01*
X037692Y025717D01*
X037734Y025616D01*
X037801Y025549D01*
X037680Y025549D01*
X037680Y025241D01*
X037642Y025241D01*
X037642Y025549D01*
X037503Y025549D01*
X037465Y025539D01*
X037431Y025519D01*
X037403Y025491D01*
X037383Y025457D01*
X037373Y025419D01*
X037373Y025241D01*
X037642Y025241D01*
X037642Y025203D01*
X037680Y025203D01*
X037680Y024895D01*
X037818Y024895D01*
X037856Y024905D01*
X037891Y024925D01*
X037917Y024951D01*
X037973Y024895D01*
X038372Y024895D01*
X038460Y024983D01*
X038460Y025042D01*
X039262Y025042D01*
X039296Y025076D01*
X039874Y025076D01*
X039880Y025078D01*
X040056Y025078D01*
X040077Y025099D01*
X040077Y024972D01*
X040144Y024811D01*
X040267Y024687D01*
X040429Y024620D01*
X040604Y024620D01*
X040766Y024687D01*
X040890Y024811D01*
X040957Y024972D01*
X040957Y025147D01*
X040890Y025309D01*
X040766Y025433D01*
X040716Y025454D01*
X040766Y025474D01*
X040890Y025598D01*
X040957Y025760D01*
X040957Y025935D01*
X040890Y026096D01*
X040766Y026220D01*
X040716Y026241D01*
X040766Y026262D01*
X040890Y026385D01*
X040957Y026547D01*
X040957Y026722D01*
X040890Y026884D01*
X040792Y026982D01*
X040869Y026982D01*
X040957Y027070D01*
X040957Y027774D01*
X040869Y027862D01*
X040792Y027862D01*
X040890Y027960D01*
X040957Y028122D01*
X040957Y028297D01*
X040890Y028459D01*
X040766Y028582D01*
X040716Y028603D01*
X040766Y028624D01*
X040890Y028748D01*
X040957Y028909D01*
X040957Y029084D01*
X040890Y029246D01*
X040766Y029370D01*
X040716Y029391D01*
X040766Y029411D01*
X040890Y029535D01*
X040957Y029697D01*
X040957Y029872D01*
X040890Y030033D01*
X040766Y030157D01*
X040714Y030179D01*
X040747Y030195D01*
X040803Y030236D01*
X040852Y030285D01*
X040893Y030341D01*
X040924Y030403D01*
X040946Y030469D01*
X040955Y030527D01*
X040562Y030527D01*
X040562Y030617D01*
X040472Y030617D01*
X040472Y031010D01*
X040414Y031001D01*
X040348Y030979D01*
X040286Y030948D01*
X040230Y030907D01*
X040181Y030858D01*
X040140Y030802D01*
X040109Y030741D01*
X040088Y030675D01*
X040078Y030617D01*
X040472Y030617D01*
X040472Y030527D01*
X040078Y030527D01*
X040088Y030469D01*
X040109Y030403D01*
X040140Y030341D01*
X040181Y030285D01*
X040230Y030236D01*
X040286Y030195D01*
X040319Y030179D01*
X040267Y030157D01*
X040144Y030033D01*
X040077Y029872D01*
X040077Y029697D01*
X040144Y029535D01*
X040267Y029411D01*
X040317Y029391D01*
X040267Y029370D01*
X040144Y029246D01*
X040138Y029233D01*
X040056Y029316D01*
X039939Y029316D01*
X039711Y029544D01*
X039604Y029588D01*
X039417Y029588D01*
X039400Y029606D01*
X038997Y029606D01*
X038997Y029739D01*
X039400Y029739D01*
X039488Y029826D01*
X039488Y030266D01*
X039400Y030354D01*
X039242Y030354D01*
X038956Y030639D01*
X038852Y030743D01*
X038852Y030743D01*
X038775Y030821D01*
X038674Y030862D01*
X036964Y030862D01*
X036964Y030866D01*
X036908Y030922D01*
X036934Y030948D01*
X036953Y030982D01*
X036964Y031020D01*
X036964Y031208D01*
X036665Y031208D01*
X036665Y031305D01*
X036964Y031305D01*
X036964Y031493D01*
X036953Y031531D01*
X036934Y031565D01*
X036906Y031593D01*
X036871Y031613D01*
X036833Y031623D01*
X036665Y031623D01*
X036665Y031305D01*
X036568Y031305D01*
X036568Y031208D01*
X036270Y031208D01*
X036270Y031020D01*
X036280Y030982D01*
X036300Y030948D01*
X036326Y030922D01*
X036270Y030866D01*
X036270Y030835D01*
X036226Y030835D01*
X036222Y030838D01*
X036121Y030880D01*
X036012Y030880D01*
X035911Y030838D01*
X035908Y030835D01*
X035752Y030835D01*
X035752Y030903D01*
X035665Y030991D01*
X035344Y030991D01*
X035336Y030984D01*
X035307Y030991D01*
X035189Y030991D01*
X035071Y030991D01*
X035042Y030984D01*
X035035Y030991D01*
X034714Y030991D01*
X034706Y030984D01*
X034677Y030991D01*
X034559Y030991D01*
X034441Y030991D01*
X034403Y030981D01*
X034402Y030980D01*
X034401Y030981D01*
X034362Y030991D01*
X034244Y030991D01*
X034126Y030991D01*
X034097Y030984D01*
X034090Y030991D01*
X033769Y030991D01*
X033681Y030903D01*
X033681Y030835D01*
X033526Y030835D01*
X033522Y030838D01*
X033421Y030880D01*
X033312Y030880D01*
X033211Y030838D01*
X033208Y030835D01*
X033164Y030835D01*
X033164Y030866D01*
X033108Y030922D01*
X033134Y030948D01*
X033153Y030982D01*
X033164Y031020D01*
X033164Y031208D01*
X032865Y031208D01*
X032865Y031305D01*
X033164Y031305D01*
X033164Y031493D01*
X033153Y031531D01*
X033134Y031565D01*
X033106Y031593D01*
X033071Y031613D01*
X033033Y031623D01*
X032865Y031623D01*
X032865Y031305D01*
X032768Y031305D01*
X032768Y031208D01*
X032470Y031208D01*
X032470Y031020D01*
X032480Y030982D01*
X032500Y030948D01*
X032526Y030922D01*
X032470Y030866D01*
X032470Y030309D01*
X032558Y030221D01*
X033076Y030221D01*
X033164Y030309D01*
X033164Y030375D01*
X033208Y030375D01*
X033211Y030372D01*
X033312Y030330D01*
X033421Y030330D01*
X033522Y030372D01*
X033526Y030375D01*
X033546Y030375D01*
X033504Y030333D01*
X033504Y030284D01*
X033487Y030267D01*
X033387Y030167D01*
X033387Y026452D01*
X031471Y026452D01*
X031441Y026422D01*
X029724Y026422D01*
X029764Y026517D01*
X029764Y026627D01*
X029722Y026728D01*
X029719Y026731D01*
X029719Y027052D01*
X029734Y027016D01*
X029811Y026939D01*
X029912Y026897D01*
X030021Y026897D01*
X030122Y026939D01*
X030200Y027016D01*
X030228Y027085D01*
X030492Y026822D01*
X030492Y026817D01*
X030534Y026716D01*
X030611Y026639D01*
X030712Y026597D01*
X030821Y026597D01*
X030922Y026639D01*
X031000Y026716D01*
X031042Y026817D01*
X031042Y026927D01*
X031000Y027028D01*
X030922Y027105D01*
X030821Y027147D01*
X030817Y027147D01*
X030231Y027733D01*
X030231Y028089D01*
X030229Y028090D01*
X030229Y028109D01*
X030248Y028109D01*
X030250Y028108D01*
X030545Y028108D01*
X030584Y028016D01*
X030661Y027939D01*
X030762Y027897D01*
X030871Y027897D01*
X030972Y027939D01*
X031050Y028016D01*
X031092Y028117D01*
X031092Y028227D01*
X031050Y028328D01*
X030995Y028383D01*
X031050Y028438D01*
X031092Y028539D01*
X031092Y028649D01*
X031050Y028750D01*
X030992Y028808D01*
X031050Y028866D01*
X031092Y028967D01*
X031092Y029077D01*
X031050Y029178D01*
X030972Y029255D01*
X030871Y029297D01*
X030762Y029297D01*
X030672Y029260D01*
X030662Y029277D01*
X030634Y029305D01*
X030600Y029324D01*
X030562Y029335D01*
X030345Y029335D01*
X030229Y029335D01*
X030229Y029450D01*
X030001Y029450D01*
X030001Y029450D01*
X030229Y029450D01*
X030229Y029667D01*
X030219Y029705D01*
X030199Y029739D01*
X030171Y029767D01*
X030137Y029787D01*
X030099Y029797D01*
X030001Y029797D01*
X030001Y029450D01*
X030001Y029450D01*
X029745Y029450D01*
X029745Y029450D01*
X029973Y029450D01*
X030001Y029450D01*
X030001Y029450D01*
X030001Y029797D01*
X029902Y029797D01*
X029873Y029789D01*
X029843Y029797D01*
X029745Y029797D01*
X029745Y029450D01*
X029489Y029450D01*
X029489Y029450D01*
X029516Y029450D01*
X029745Y029450D01*
X029745Y029450D01*
X029745Y029450D01*
X029745Y029797D01*
X029646Y029797D01*
X029617Y029789D01*
X029587Y029797D01*
X029489Y029797D01*
X029489Y029450D01*
X029233Y029450D01*
X029233Y029450D01*
X029004Y029450D01*
X029004Y029335D01*
X028888Y029335D01*
X028672Y029335D01*
X028634Y029324D01*
X028599Y029305D01*
X028571Y029277D01*
X028552Y029243D01*
X028541Y029204D01*
X028541Y029106D01*
X028888Y029106D01*
X028888Y029106D01*
X028541Y029106D01*
X028541Y029080D01*
X028448Y029080D01*
X028422Y029105D01*
X028321Y029147D01*
X028212Y029147D01*
X028147Y029120D01*
X028147Y029875D01*
X028361Y029875D01*
X028417Y029931D01*
X028443Y029905D01*
X028477Y029885D01*
X028515Y029875D01*
X028703Y029875D01*
X028703Y030174D01*
X028800Y030174D01*
X028800Y030270D01*
X029118Y030270D01*
X029118Y030439D01*
X029108Y030477D01*
X029096Y030497D01*
X029108Y030517D01*
X029118Y030555D01*
X029118Y030724D01*
X028800Y030724D01*
X028800Y030820D01*
X029118Y030820D01*
X029118Y030989D01*
X029108Y031027D01*
X029088Y031061D01*
X029060Y031089D01*
X029026Y031109D01*
X028988Y031119D01*
X028800Y031119D01*
X028800Y030820D01*
X028703Y030820D01*
X028703Y031119D01*
X028515Y031119D01*
X028479Y031109D01*
X029112Y031742D01*
X032658Y031742D01*
X032661Y031739D01*
X032762Y031697D01*
X032871Y031697D01*
X032972Y031739D01*
X033050Y031816D01*
X033092Y031917D01*
X033092Y032027D01*
X033050Y032128D01*
X032972Y032205D01*
X032871Y032247D01*
X032762Y032247D01*
X032661Y032205D01*
X032658Y032202D01*
X028921Y032202D01*
X028787Y032067D01*
X027852Y031133D01*
X027852Y031119D01*
X027803Y031119D01*
X027715Y031031D01*
X027792Y031107D02*
X001517Y031107D01*
X001517Y031206D02*
X027925Y031206D01*
X028023Y031304D02*
X001517Y031304D01*
X001517Y031403D02*
X028122Y031403D01*
X028220Y031501D02*
X001517Y031501D01*
X001517Y031600D02*
X028319Y031600D01*
X028417Y031698D02*
X001517Y031698D01*
X001517Y031797D02*
X028516Y031797D01*
X028614Y031895D02*
X001517Y031895D01*
X001517Y031994D02*
X028713Y031994D01*
X028811Y032092D02*
X001517Y032092D01*
X001517Y032191D02*
X028910Y032191D01*
X029068Y031698D02*
X032759Y031698D01*
X032768Y031623D02*
X032600Y031623D01*
X032562Y031613D01*
X032528Y031593D01*
X032500Y031565D01*
X032480Y031531D01*
X032470Y031493D01*
X032470Y031305D01*
X032768Y031305D01*
X032768Y031623D01*
X032768Y031600D02*
X032865Y031600D01*
X032874Y031698D02*
X041217Y031698D01*
X041217Y031600D02*
X036895Y031600D01*
X036961Y031501D02*
X041217Y031501D01*
X041217Y031403D02*
X036964Y031403D01*
X036964Y031206D02*
X041217Y031206D01*
X041217Y031304D02*
X036665Y031304D01*
X036568Y031304D02*
X032865Y031304D01*
X032768Y031304D02*
X028674Y031304D01*
X028576Y031206D02*
X032470Y031206D01*
X032470Y031107D02*
X029028Y031107D01*
X029112Y031009D02*
X032473Y031009D01*
X032514Y030910D02*
X029118Y030910D01*
X029118Y030713D02*
X032470Y030713D01*
X032470Y030615D02*
X029118Y030615D01*
X029107Y030516D02*
X032470Y030516D01*
X032470Y030418D02*
X029118Y030418D01*
X029118Y030319D02*
X032470Y030319D01*
X032470Y030812D02*
X028800Y030812D01*
X028800Y030724D02*
X028800Y030425D01*
X028800Y030270D01*
X028703Y030270D01*
X028703Y030724D01*
X028800Y030724D01*
X028800Y030713D02*
X028703Y030713D01*
X028703Y030615D02*
X028800Y030615D01*
X028800Y030516D02*
X028703Y030516D01*
X028703Y030418D02*
X028800Y030418D01*
X028800Y030319D02*
X028703Y030319D01*
X028800Y030221D02*
X033440Y030221D01*
X033387Y030122D02*
X029118Y030122D01*
X029118Y030174D02*
X029118Y030005D01*
X029108Y029967D01*
X029088Y029933D01*
X029060Y029905D01*
X029026Y029885D01*
X028988Y029875D01*
X028800Y029875D01*
X028800Y030174D01*
X029118Y030174D01*
X029118Y030024D02*
X033387Y030024D01*
X033387Y029925D02*
X029080Y029925D01*
X029134Y029797D02*
X029096Y029787D01*
X029062Y029767D01*
X029034Y029739D01*
X029014Y029705D01*
X029004Y029667D01*
X029004Y029450D01*
X029233Y029450D01*
X029233Y029450D01*
X029462Y029450D01*
X029489Y029450D01*
X029489Y029450D01*
X029489Y029450D01*
X029489Y029797D01*
X029390Y029797D01*
X029361Y029789D01*
X029331Y029797D01*
X029233Y029797D01*
X029233Y029450D01*
X029233Y029450D01*
X029233Y029797D01*
X029134Y029797D01*
X029233Y029728D02*
X029233Y029728D01*
X029233Y029630D02*
X029233Y029630D01*
X029233Y029531D02*
X029233Y029531D01*
X029004Y029531D02*
X028147Y029531D01*
X028147Y029433D02*
X029004Y029433D01*
X028888Y029335D02*
X028888Y029106D01*
X028888Y029335D01*
X028888Y029334D02*
X028888Y029334D01*
X028888Y029236D02*
X028888Y029236D01*
X028888Y029137D02*
X028888Y029137D01*
X028888Y029106D02*
X028888Y029106D01*
X028670Y029334D02*
X028147Y029334D01*
X028147Y029236D02*
X028550Y029236D01*
X028541Y029137D02*
X028345Y029137D01*
X028188Y029137D02*
X028147Y029137D01*
X028147Y029630D02*
X029004Y029630D01*
X029028Y029728D02*
X028147Y029728D01*
X028147Y029827D02*
X033387Y029827D01*
X033387Y029728D02*
X030206Y029728D01*
X030229Y029630D02*
X033387Y029630D01*
X033387Y029531D02*
X030229Y029531D01*
X030229Y029433D02*
X033387Y029433D01*
X033387Y029334D02*
X030564Y029334D01*
X030345Y029334D02*
X030345Y029334D01*
X030345Y029335D02*
X030345Y029106D01*
X030345Y029335D01*
X030345Y029236D02*
X030345Y029236D01*
X030345Y029137D02*
X030345Y029137D01*
X030345Y029106D02*
X030345Y029106D01*
X030992Y029236D02*
X033387Y029236D01*
X033387Y029137D02*
X031067Y029137D01*
X031092Y029039D02*
X033387Y029039D01*
X033387Y028940D02*
X031080Y028940D01*
X031025Y028842D02*
X033387Y028842D01*
X033387Y028743D02*
X031053Y028743D01*
X031092Y028645D02*
X033387Y028645D01*
X033387Y028546D02*
X031092Y028546D01*
X031054Y028448D02*
X033387Y028448D01*
X033387Y028349D02*
X031029Y028349D01*
X031082Y028251D02*
X033387Y028251D01*
X033387Y028152D02*
X031092Y028152D01*
X031065Y028054D02*
X033387Y028054D01*
X033387Y027955D02*
X030989Y027955D01*
X030645Y027955D02*
X030231Y027955D01*
X030231Y027857D02*
X033387Y027857D01*
X033387Y027758D02*
X030231Y027758D01*
X030304Y027660D02*
X033387Y027660D01*
X033387Y027561D02*
X030403Y027561D01*
X030501Y027463D02*
X033387Y027463D01*
X033387Y027364D02*
X030600Y027364D01*
X030698Y027266D02*
X033387Y027266D01*
X033387Y027167D02*
X030797Y027167D01*
X030959Y027069D02*
X033387Y027069D01*
X033387Y026970D02*
X031024Y026970D01*
X031042Y026872D02*
X033387Y026872D01*
X033387Y026773D02*
X031023Y026773D01*
X030958Y026675D02*
X033387Y026675D01*
X033387Y026576D02*
X029764Y026576D01*
X029747Y026478D02*
X033387Y026478D01*
X035734Y026478D02*
X037373Y026478D01*
X037373Y026503D02*
X037373Y026325D01*
X037383Y026287D01*
X037403Y026253D01*
X037431Y026225D01*
X037465Y026205D01*
X037503Y026195D01*
X037642Y026195D01*
X037642Y026503D01*
X037373Y026503D01*
X037373Y026576D02*
X035734Y026576D01*
X035734Y026675D02*
X037373Y026675D01*
X037392Y026773D02*
X035734Y026773D01*
X035734Y026872D02*
X037778Y026872D01*
X037711Y026970D02*
X035734Y026970D01*
X035734Y027069D02*
X037692Y027069D01*
X037708Y027167D02*
X035734Y027167D01*
X035734Y027266D02*
X037771Y027266D01*
X037642Y027495D02*
X037642Y027803D01*
X037373Y027803D01*
X037373Y027625D01*
X037383Y027587D01*
X037403Y027553D01*
X037431Y027525D01*
X037465Y027505D01*
X037503Y027495D01*
X037642Y027495D01*
X037642Y027561D02*
X037680Y027561D01*
X037680Y027660D02*
X037642Y027660D01*
X037642Y027758D02*
X037680Y027758D01*
X037680Y027857D02*
X037642Y027857D01*
X037642Y027955D02*
X037680Y027955D01*
X037680Y028054D02*
X037642Y028054D01*
X037798Y028152D02*
X035734Y028152D01*
X035734Y028054D02*
X037382Y028054D01*
X037373Y027955D02*
X035734Y027955D01*
X035734Y027857D02*
X037373Y027857D01*
X037373Y027758D02*
X035734Y027758D01*
X035734Y027660D02*
X037373Y027660D01*
X037398Y027561D02*
X035734Y027561D01*
X035734Y027463D02*
X038537Y027463D01*
X038537Y027561D02*
X038439Y027561D01*
X038460Y027660D02*
X038537Y027660D01*
X038537Y027758D02*
X038460Y027758D01*
X038532Y027857D02*
X038537Y027857D01*
X038118Y027364D02*
X035734Y027364D01*
X035734Y028251D02*
X037719Y028251D01*
X037692Y028349D02*
X035734Y028349D01*
X035734Y028448D02*
X037700Y028448D01*
X037752Y028546D02*
X035734Y028546D01*
X035770Y028645D02*
X037906Y028645D01*
X038027Y028645D02*
X038099Y028645D01*
X037926Y028842D02*
X037907Y028842D01*
X037680Y028842D02*
X037642Y028842D01*
X037642Y028795D02*
X037642Y029103D01*
X037373Y029103D01*
X037373Y028925D01*
X037383Y028887D01*
X037403Y028853D01*
X037431Y028825D01*
X037465Y028805D01*
X037503Y028795D01*
X037642Y028795D01*
X037642Y028940D02*
X037680Y028940D01*
X037680Y029039D02*
X037642Y029039D01*
X037642Y029137D02*
X035734Y029137D01*
X035734Y029039D02*
X037373Y029039D01*
X037373Y028940D02*
X035734Y028940D01*
X035752Y028842D02*
X037414Y028842D01*
X037373Y029236D02*
X035734Y029236D01*
X035734Y029334D02*
X037377Y029334D01*
X037454Y029433D02*
X035744Y029433D01*
X035752Y029531D02*
X037727Y029531D01*
X037692Y029630D02*
X035752Y029630D01*
X035752Y029728D02*
X036137Y029728D01*
X036029Y029827D02*
X035752Y029827D01*
X035843Y029925D02*
X035988Y029925D01*
X036396Y029728D02*
X037692Y029728D01*
X037733Y029827D02*
X036504Y029827D01*
X036542Y029925D02*
X037859Y029925D01*
X038074Y029925D02*
X038079Y029925D01*
X038537Y030024D02*
X036542Y030024D01*
X036502Y030122D02*
X038537Y030122D01*
X038537Y030281D02*
X038505Y030312D01*
X036964Y030312D01*
X036964Y030309D01*
X036876Y030221D01*
X036385Y030221D01*
X036314Y030910D02*
X035746Y030910D01*
X036273Y031009D02*
X033160Y031009D01*
X033164Y031107D02*
X036270Y031107D01*
X036270Y031206D02*
X033164Y031206D01*
X033164Y031403D02*
X036270Y031403D01*
X036270Y031493D02*
X036270Y031305D01*
X036568Y031305D01*
X036568Y031623D01*
X036400Y031623D01*
X036362Y031613D01*
X036328Y031593D01*
X036300Y031565D01*
X036280Y031531D01*
X036270Y031493D01*
X036272Y031501D02*
X033161Y031501D01*
X033095Y031600D02*
X036339Y031600D01*
X036568Y031600D02*
X036665Y031600D01*
X036665Y031501D02*
X036568Y031501D01*
X036568Y031403D02*
X036665Y031403D01*
X036964Y031107D02*
X041217Y031107D01*
X041217Y031009D02*
X040570Y031009D01*
X040562Y031009D02*
X040472Y031009D01*
X040463Y031009D02*
X036960Y031009D01*
X036919Y030910D02*
X040234Y030910D01*
X040147Y030812D02*
X038784Y030812D01*
X038882Y030713D02*
X040100Y030713D01*
X040080Y030516D02*
X039079Y030516D01*
X038981Y030615D02*
X040472Y030615D01*
X040562Y030615D02*
X041217Y030615D01*
X041217Y030713D02*
X040933Y030713D01*
X040924Y030741D02*
X040893Y030802D01*
X040852Y030858D01*
X040803Y030907D01*
X040747Y030948D01*
X040686Y030979D01*
X040620Y031001D01*
X040562Y031010D01*
X040562Y030617D01*
X040955Y030617D01*
X040946Y030675D01*
X040924Y030741D01*
X040886Y030812D02*
X041217Y030812D01*
X041217Y030910D02*
X040799Y030910D01*
X040562Y030910D02*
X040472Y030910D01*
X040472Y030812D02*
X040562Y030812D01*
X040562Y030713D02*
X040472Y030713D01*
X040104Y030418D02*
X039178Y030418D01*
X039434Y030319D02*
X040156Y030319D01*
X040251Y030221D02*
X039488Y030221D01*
X039488Y030122D02*
X040232Y030122D01*
X040140Y030024D02*
X039488Y030024D01*
X039488Y029925D02*
X040099Y029925D01*
X040077Y029827D02*
X039488Y029827D01*
X039724Y029531D02*
X040148Y029531D01*
X040104Y029630D02*
X038997Y029630D01*
X038997Y029728D02*
X040077Y029728D01*
X040246Y029433D02*
X039822Y029433D01*
X039921Y029334D02*
X040232Y029334D01*
X040139Y029236D02*
X040136Y029236D01*
X040802Y029334D02*
X041217Y029334D01*
X041217Y029236D02*
X040894Y029236D01*
X040935Y029137D02*
X041217Y029137D01*
X041217Y029039D02*
X040957Y029039D01*
X040957Y028940D02*
X041217Y028940D01*
X041217Y028842D02*
X040929Y028842D01*
X040885Y028743D02*
X041217Y028743D01*
X041217Y028645D02*
X040787Y028645D01*
X040802Y028546D02*
X041217Y028546D01*
X041217Y028448D02*
X040894Y028448D01*
X040935Y028349D02*
X041217Y028349D01*
X041217Y028251D02*
X040957Y028251D01*
X040957Y028152D02*
X041217Y028152D01*
X041217Y028054D02*
X040928Y028054D01*
X040885Y027955D02*
X041217Y027955D01*
X041217Y027857D02*
X040874Y027857D01*
X040957Y027758D02*
X041217Y027758D01*
X041217Y027660D02*
X040957Y027660D01*
X040957Y027561D02*
X041217Y027561D01*
X041217Y027463D02*
X040957Y027463D01*
X040957Y027364D02*
X041217Y027364D01*
X041217Y027266D02*
X040957Y027266D01*
X040957Y027167D02*
X041217Y027167D01*
X041217Y027069D02*
X040955Y027069D01*
X040803Y026970D02*
X041217Y026970D01*
X041217Y026872D02*
X040895Y026872D01*
X040936Y026773D02*
X041217Y026773D01*
X041217Y026675D02*
X040957Y026675D01*
X040957Y026576D02*
X041217Y026576D01*
X041217Y026478D02*
X040928Y026478D01*
X040883Y026379D02*
X041217Y026379D01*
X041217Y026281D02*
X040785Y026281D01*
X040804Y026182D02*
X041217Y026182D01*
X041217Y026084D02*
X040895Y026084D01*
X040936Y025985D02*
X041217Y025985D01*
X041217Y025887D02*
X040957Y025887D01*
X040957Y025788D02*
X041217Y025788D01*
X041217Y025690D02*
X040928Y025690D01*
X040883Y025591D02*
X041217Y025591D01*
X041217Y025493D02*
X040784Y025493D01*
X040805Y025394D02*
X041217Y025394D01*
X041217Y025296D02*
X040895Y025296D01*
X040936Y025197D02*
X041217Y025197D01*
X041217Y025099D02*
X040957Y025099D01*
X040957Y025000D02*
X041217Y025000D01*
X041217Y024902D02*
X040927Y024902D01*
X040882Y024803D02*
X041217Y024803D01*
X041217Y024705D02*
X040784Y024705D01*
X041217Y024606D02*
X035734Y024606D01*
X035734Y024508D02*
X041217Y024508D01*
X041217Y024409D02*
X035734Y024409D01*
X035734Y024311D02*
X041217Y024311D01*
X041217Y024212D02*
X035734Y024212D01*
X035734Y024114D02*
X041217Y024114D01*
X041217Y024015D02*
X035734Y024015D01*
X035734Y023917D02*
X041217Y023917D01*
X041217Y023818D02*
X035734Y023818D01*
X035734Y023720D02*
X041217Y023720D01*
X040250Y024705D02*
X035734Y024705D01*
X035734Y024803D02*
X040151Y024803D01*
X040106Y024902D02*
X038379Y024902D01*
X038460Y025000D02*
X040077Y025000D01*
X040076Y025099D02*
X040077Y025099D01*
X037966Y024902D02*
X037843Y024902D01*
X037680Y024902D02*
X037642Y024902D01*
X037642Y024895D02*
X037642Y025203D01*
X037373Y025203D01*
X037373Y025025D01*
X037383Y024987D01*
X037403Y024953D01*
X037431Y024925D01*
X037465Y024905D01*
X037503Y024895D01*
X037642Y024895D01*
X037642Y025000D02*
X037680Y025000D01*
X037680Y025099D02*
X037642Y025099D01*
X037642Y025197D02*
X037680Y025197D01*
X037680Y025296D02*
X037642Y025296D01*
X037642Y025394D02*
X037680Y025394D01*
X037680Y025493D02*
X037642Y025493D01*
X037759Y025591D02*
X035734Y025591D01*
X035734Y025493D02*
X037404Y025493D01*
X037373Y025394D02*
X035734Y025394D01*
X035734Y025296D02*
X037373Y025296D01*
X037373Y025197D02*
X035734Y025197D01*
X035734Y025099D02*
X037373Y025099D01*
X037380Y025000D02*
X035734Y025000D01*
X035734Y024902D02*
X037478Y024902D01*
X037703Y025690D02*
X035734Y025690D01*
X035734Y025788D02*
X037692Y025788D01*
X037716Y025887D02*
X035734Y025887D01*
X035734Y025985D02*
X037737Y025985D01*
X037737Y026084D02*
X035734Y026084D01*
X035734Y026182D02*
X037737Y026182D01*
X037680Y026281D02*
X037642Y026281D01*
X037642Y026379D02*
X037680Y026379D01*
X037680Y026478D02*
X037642Y026478D01*
X037642Y026576D02*
X037680Y026576D01*
X037680Y026675D02*
X037642Y026675D01*
X037642Y026773D02*
X037680Y026773D01*
X037373Y026379D02*
X035734Y026379D01*
X035734Y026281D02*
X037387Y026281D01*
X038537Y028743D02*
X035779Y028743D01*
X037642Y029236D02*
X037680Y029236D01*
X037680Y029334D02*
X037642Y029334D01*
X037642Y029433D02*
X037680Y029433D01*
X038460Y029039D02*
X038537Y029039D01*
X038537Y029137D02*
X038513Y029137D01*
X038537Y028940D02*
X038460Y028940D01*
X038419Y028842D02*
X038537Y028842D01*
X038956Y030639D02*
X038956Y030639D01*
X040782Y030221D02*
X041217Y030221D01*
X041217Y030319D02*
X040877Y030319D01*
X040929Y030418D02*
X041217Y030418D01*
X041217Y030516D02*
X040953Y030516D01*
X040801Y030122D02*
X041217Y030122D01*
X041217Y030024D02*
X040894Y030024D01*
X040935Y029925D02*
X041217Y029925D01*
X041217Y029827D02*
X040957Y029827D01*
X040957Y029728D02*
X041217Y029728D01*
X041217Y029630D02*
X040929Y029630D01*
X040886Y029531D02*
X041217Y029531D01*
X041217Y029433D02*
X040787Y029433D01*
X041217Y031797D02*
X033030Y031797D01*
X033082Y031895D02*
X041217Y031895D01*
X041217Y031994D02*
X033092Y031994D01*
X033065Y032092D02*
X041217Y032092D01*
X041217Y032191D02*
X032987Y032191D01*
X032865Y031501D02*
X032768Y031501D01*
X032768Y031403D02*
X032865Y031403D01*
X032539Y031600D02*
X028970Y031600D01*
X028871Y031501D02*
X032472Y031501D01*
X032470Y031403D02*
X028773Y031403D01*
X028800Y031107D02*
X028703Y031107D01*
X028703Y031009D02*
X028800Y031009D01*
X028800Y030910D02*
X028703Y030910D01*
X027715Y030713D02*
X001517Y030713D01*
X001517Y030615D02*
X027715Y030615D01*
X027715Y030516D02*
X001517Y030516D01*
X001517Y030418D02*
X005751Y030418D01*
X005780Y030447D02*
X005692Y030359D01*
X005692Y029585D01*
X005780Y029497D01*
X006554Y029497D01*
X006641Y029585D01*
X006641Y030359D01*
X006554Y030447D01*
X005780Y030447D01*
X005692Y030319D02*
X001517Y030319D01*
X001517Y030221D02*
X005692Y030221D01*
X005692Y030122D02*
X001517Y030122D01*
X001517Y030024D02*
X005692Y030024D01*
X005692Y029925D02*
X001517Y029925D01*
X001517Y029827D02*
X005692Y029827D01*
X005692Y029728D02*
X001517Y029728D01*
X001517Y029630D02*
X005692Y029630D01*
X005746Y029531D02*
X001517Y029531D01*
X001517Y029433D02*
X018288Y029433D01*
X018190Y029334D02*
X001517Y029334D01*
X001517Y029236D02*
X018091Y029236D01*
X017993Y029137D02*
X001517Y029137D01*
X001517Y029039D02*
X017894Y029039D01*
X017796Y028940D02*
X001517Y028940D01*
X001517Y028842D02*
X017697Y028842D01*
X017599Y028743D02*
X001517Y028743D01*
X001517Y028645D02*
X017500Y028645D01*
X017402Y028546D02*
X001517Y028546D01*
X001517Y028448D02*
X006733Y028448D01*
X006764Y028478D02*
X006676Y028390D01*
X006676Y027617D01*
X006764Y027529D01*
X007538Y027529D01*
X007626Y027617D01*
X007626Y028390D01*
X007538Y028478D01*
X006764Y028478D01*
X006676Y028349D02*
X001517Y028349D01*
X001517Y028251D02*
X006676Y028251D01*
X006676Y028152D02*
X001517Y028152D01*
X001517Y028054D02*
X006676Y028054D01*
X006676Y027955D02*
X001517Y027955D01*
X001517Y027857D02*
X006676Y027857D01*
X006676Y027758D02*
X001517Y027758D01*
X001517Y027660D02*
X006676Y027660D01*
X006732Y027561D02*
X001517Y027561D01*
X001517Y027463D02*
X016318Y027463D01*
X016417Y027561D02*
X015200Y027561D01*
X015207Y027564D02*
X015274Y027597D01*
X015334Y027641D01*
X015387Y027694D01*
X015431Y027755D01*
X015465Y027821D01*
X015488Y027892D01*
X015498Y027954D01*
X015075Y027954D01*
X015075Y028054D01*
X014975Y028054D01*
X014975Y028476D01*
X014914Y028467D01*
X014843Y028444D01*
X014776Y028410D01*
X014716Y028366D01*
X014663Y028313D01*
X014619Y028252D01*
X014585Y028186D01*
X014562Y028115D01*
X014552Y028054D01*
X013531Y028054D01*
X013531Y028098D02*
X013459Y028272D01*
X013325Y028406D01*
X013151Y028478D01*
X012962Y028478D01*
X012787Y028406D01*
X012654Y028272D01*
X012582Y028098D01*
X012582Y027909D01*
X012654Y027735D01*
X012787Y027601D01*
X012962Y027529D01*
X013151Y027529D01*
X013325Y027601D01*
X013459Y027735D01*
X013531Y027909D01*
X013531Y028098D01*
X013509Y028152D02*
X014574Y028152D01*
X014552Y028054D02*
X014975Y028054D01*
X015075Y028054D01*
X015075Y028476D01*
X015136Y028467D01*
X015207Y028444D01*
X015274Y028410D01*
X015334Y028366D01*
X015387Y028313D01*
X015431Y028252D01*
X015465Y028186D01*
X015488Y028115D01*
X015498Y028054D01*
X016909Y028054D01*
X017008Y028152D02*
X015476Y028152D01*
X015498Y028054D02*
X015075Y028054D01*
X015075Y028152D02*
X014975Y028152D01*
X014975Y028054D02*
X014975Y027954D01*
X014552Y027954D01*
X014562Y027892D01*
X014585Y027821D01*
X014619Y027755D01*
X014663Y027694D01*
X014716Y027641D01*
X014776Y027597D01*
X014843Y027564D01*
X014914Y027540D01*
X014975Y027531D01*
X014975Y027954D01*
X015075Y027954D01*
X015075Y027531D01*
X015136Y027540D01*
X015207Y027564D01*
X015075Y027561D02*
X014975Y027561D01*
X014975Y027660D02*
X015075Y027660D01*
X015075Y027758D02*
X014975Y027758D01*
X014975Y027857D02*
X015075Y027857D01*
X015075Y027955D02*
X016811Y027955D01*
X016712Y027857D02*
X015476Y027857D01*
X015433Y027758D02*
X016614Y027758D01*
X016515Y027660D02*
X015352Y027660D01*
X014975Y027955D02*
X013531Y027955D01*
X013509Y027857D02*
X014573Y027857D01*
X014617Y027758D02*
X013469Y027758D01*
X013384Y027660D02*
X014697Y027660D01*
X014850Y027561D02*
X013229Y027561D01*
X012884Y027561D02*
X011261Y027561D01*
X011182Y027529D02*
X011357Y027601D01*
X011490Y027735D01*
X011563Y027909D01*
X011563Y028098D01*
X011490Y028272D01*
X011357Y028406D01*
X011182Y028478D01*
X010993Y028478D01*
X010819Y028406D01*
X010685Y028272D01*
X010613Y028098D01*
X010613Y027909D01*
X010685Y027735D01*
X010819Y027601D01*
X010993Y027529D01*
X011182Y027529D01*
X011415Y027660D02*
X012729Y027660D01*
X012644Y027758D02*
X011500Y027758D01*
X011541Y027857D02*
X012603Y027857D01*
X012582Y027955D02*
X011563Y027955D01*
X011563Y028054D02*
X012582Y028054D01*
X012604Y028152D02*
X011540Y028152D01*
X011500Y028251D02*
X012645Y028251D01*
X012731Y028349D02*
X011414Y028349D01*
X011257Y028448D02*
X012888Y028448D01*
X013225Y028448D02*
X014855Y028448D01*
X014975Y028448D02*
X015075Y028448D01*
X015075Y028349D02*
X014975Y028349D01*
X014975Y028251D02*
X015075Y028251D01*
X015195Y028448D02*
X017303Y028448D01*
X017205Y028349D02*
X015351Y028349D01*
X015432Y028251D02*
X017106Y028251D01*
X016220Y027364D02*
X001517Y027364D01*
X001517Y027266D02*
X016121Y027266D01*
X016023Y027167D02*
X001517Y027167D01*
X001517Y027069D02*
X015924Y027069D01*
X015826Y026970D02*
X001517Y026970D01*
X001517Y026872D02*
X015727Y026872D01*
X015629Y026773D02*
X001517Y026773D01*
X001517Y026675D02*
X015532Y026675D01*
X015492Y026576D02*
X001517Y026576D01*
X001517Y026478D02*
X015492Y026478D01*
X015492Y026379D02*
X001517Y026379D01*
X001517Y026281D02*
X015492Y026281D01*
X015492Y026182D02*
X001517Y026182D01*
X001517Y026084D02*
X015492Y026084D01*
X015492Y025985D02*
X001517Y025985D01*
X001517Y025887D02*
X015492Y025887D01*
X015492Y025788D02*
X001517Y025788D01*
X001517Y025690D02*
X015492Y025690D01*
X015492Y025591D02*
X001517Y025591D01*
X001517Y025493D02*
X015427Y025493D01*
X015329Y025394D02*
X001517Y025394D01*
X001517Y025296D02*
X015230Y025296D01*
X015132Y025197D02*
X001517Y025197D01*
X001517Y025099D02*
X015033Y025099D01*
X014935Y025000D02*
X011928Y025000D01*
X012029Y024902D02*
X014836Y024902D01*
X014738Y024803D02*
X012131Y024803D01*
X012233Y024705D02*
X014639Y024705D01*
X014541Y024606D02*
X012335Y024606D01*
X012438Y024508D02*
X014442Y024508D01*
X014344Y024409D02*
X012540Y024409D01*
X012642Y024311D02*
X014245Y024311D01*
X014147Y024212D02*
X012745Y024212D01*
X012847Y024114D02*
X014048Y024114D01*
X013950Y024015D02*
X012949Y024015D01*
X013051Y023917D02*
X013851Y023917D01*
X013753Y023818D02*
X013154Y023818D01*
X013256Y023720D02*
X013654Y023720D01*
X013556Y023621D02*
X013353Y023621D01*
X013392Y023523D02*
X013457Y023523D01*
X013762Y021142D02*
X021308Y021142D01*
X021311Y021139D01*
X021412Y021097D01*
X021521Y021097D01*
X021587Y021124D01*
X021587Y020967D01*
X018496Y017877D01*
X018306Y017687D01*
X018206Y017587D01*
X018206Y015433D01*
X018199Y015437D01*
X018138Y015457D01*
X018075Y015467D01*
X018071Y015467D01*
X018071Y015088D01*
X018014Y015088D01*
X018014Y015031D01*
X017284Y015031D01*
X017284Y015088D01*
X017635Y015088D01*
X018014Y015088D01*
X018014Y015467D01*
X018011Y015467D01*
X017947Y015457D01*
X017886Y015437D01*
X017829Y015408D01*
X017777Y015370D01*
X017732Y015325D01*
X017694Y015273D01*
X017665Y015216D01*
X017649Y015166D01*
X017633Y015216D01*
X017604Y015273D01*
X017566Y015325D01*
X017521Y015370D01*
X017469Y015408D01*
X017412Y015437D01*
X017351Y015457D01*
X017287Y015467D01*
X017284Y015467D01*
X017284Y015088D01*
X017227Y015088D01*
X017227Y015467D01*
X017223Y015467D01*
X017160Y015457D01*
X017099Y015437D01*
X017042Y015408D01*
X016990Y015370D01*
X016944Y015325D01*
X016907Y015273D01*
X016878Y015216D01*
X016862Y015166D01*
X016845Y015216D01*
X016816Y015273D01*
X016779Y015325D01*
X016733Y015370D01*
X016681Y015408D01*
X016624Y015437D01*
X016563Y015457D01*
X016500Y015467D01*
X016497Y015467D01*
X016497Y015088D01*
X016875Y015088D01*
X017226Y015088D01*
X017226Y015031D01*
X016497Y015031D01*
X016497Y015088D01*
X016439Y015088D01*
X016439Y015031D01*
X015709Y015031D01*
X015709Y015088D01*
X016088Y015088D01*
X016439Y015088D01*
X016439Y015467D01*
X016436Y015467D01*
X016372Y015457D01*
X016311Y015437D01*
X016254Y015408D01*
X016202Y015370D01*
X016157Y015325D01*
X016119Y015273D01*
X016090Y015216D01*
X016074Y015166D01*
X016058Y015216D01*
X016029Y015273D01*
X015991Y015325D01*
X015946Y015370D01*
X015894Y015408D01*
X015837Y015437D01*
X015776Y015457D01*
X015713Y015467D01*
X015709Y015467D01*
X015709Y015088D01*
X015652Y015088D01*
X015652Y015467D01*
X015648Y015467D01*
X015585Y015457D01*
X015524Y015437D01*
X015467Y015408D01*
X015415Y015370D01*
X015370Y015325D01*
X015332Y015273D01*
X015303Y015216D01*
X015287Y015166D01*
X015271Y015216D01*
X015242Y015273D01*
X015204Y015325D01*
X015158Y015370D01*
X015107Y015408D01*
X015049Y015437D01*
X014988Y015457D01*
X014925Y015467D01*
X014922Y015467D01*
X014922Y015088D01*
X015273Y015088D01*
X015652Y015088D01*
X015652Y015031D01*
X015709Y015031D01*
X015709Y014652D01*
X015709Y014301D01*
X015652Y014301D01*
X015652Y015031D01*
X014922Y015031D01*
X014922Y015088D01*
X014864Y015088D01*
X014864Y015031D01*
X014134Y015031D01*
X014134Y014652D01*
X014134Y014301D01*
X014077Y014301D01*
X014077Y015031D01*
X013347Y015031D01*
X013347Y015088D01*
X013726Y015088D01*
X014077Y015088D01*
X014077Y015031D01*
X014134Y015031D01*
X014134Y015088D01*
X014077Y015088D01*
X014077Y015467D01*
X014074Y015467D01*
X014010Y015457D01*
X013949Y015437D01*
X013892Y015408D01*
X013840Y015370D01*
X013795Y015325D01*
X013757Y015273D01*
X013728Y015216D01*
X013712Y015166D01*
X013696Y015216D01*
X013667Y015273D01*
X013629Y015325D01*
X013584Y015370D01*
X013532Y015408D01*
X013475Y015437D01*
X013414Y015457D01*
X013350Y015467D01*
X013347Y015467D01*
X013347Y015088D01*
X013289Y015088D01*
X013289Y015031D01*
X012560Y015031D01*
X012560Y015088D01*
X012938Y015088D01*
X013289Y015088D01*
X013289Y015467D01*
X013286Y015467D01*
X013223Y015457D01*
X013162Y015437D01*
X013105Y015408D01*
X013053Y015370D01*
X013007Y015325D01*
X012970Y015273D01*
X012941Y015216D01*
X012925Y015166D01*
X012908Y015216D01*
X012879Y015273D01*
X012842Y015325D01*
X012796Y015370D01*
X012744Y015408D01*
X012687Y015437D01*
X012626Y015457D01*
X012563Y015467D01*
X012560Y015467D01*
X012560Y015088D01*
X012502Y015088D01*
X012502Y015031D01*
X011772Y015031D01*
X011772Y015088D01*
X012151Y015088D01*
X012502Y015088D01*
X012502Y015467D01*
X012499Y015467D01*
X012435Y015457D01*
X012374Y015437D01*
X012317Y015408D01*
X012265Y015370D01*
X012220Y015325D01*
X012182Y015273D01*
X012153Y015216D01*
X012137Y015166D01*
X012121Y015216D01*
X012092Y015273D01*
X012054Y015325D01*
X012009Y015370D01*
X011957Y015408D01*
X011900Y015437D01*
X011839Y015457D01*
X011776Y015467D01*
X011772Y015467D01*
X011772Y015088D01*
X011715Y015088D01*
X011715Y015467D01*
X011711Y015467D01*
X011648Y015457D01*
X011587Y015437D01*
X011530Y015408D01*
X011478Y015370D01*
X011433Y015325D01*
X011395Y015273D01*
X011366Y015216D01*
X011350Y015166D01*
X011334Y015216D01*
X011305Y015273D01*
X011267Y015325D01*
X011221Y015370D01*
X011170Y015408D01*
X011112Y015437D01*
X011051Y015457D01*
X010988Y015467D01*
X010985Y015467D01*
X010985Y015088D01*
X011364Y015088D01*
X011715Y015088D01*
X011715Y015031D01*
X010985Y015031D01*
X010985Y015088D01*
X010927Y015088D01*
X010927Y015031D01*
X010197Y015031D01*
X010197Y015088D01*
X010140Y015088D01*
X010140Y015031D01*
X009410Y015031D01*
X009410Y015088D01*
X009789Y015088D01*
X010140Y015088D01*
X010140Y015467D01*
X010137Y015467D01*
X010073Y015457D01*
X010012Y015437D01*
X009955Y015408D01*
X009903Y015370D01*
X009858Y015325D01*
X009820Y015273D01*
X009791Y015216D01*
X009775Y015166D01*
X009759Y015216D01*
X009730Y015273D01*
X009692Y015325D01*
X009647Y015370D01*
X009595Y015408D01*
X009538Y015437D01*
X009477Y015457D01*
X009413Y015467D01*
X009410Y015467D01*
X009410Y015088D01*
X009352Y015088D01*
X009352Y015031D01*
X008623Y015031D01*
X008623Y015088D01*
X009001Y015088D01*
X009352Y015088D01*
X009352Y015467D01*
X009349Y015467D01*
X009286Y015457D01*
X009225Y015437D01*
X009168Y015408D01*
X009116Y015370D01*
X009070Y015325D01*
X009033Y015273D01*
X009004Y015216D01*
X008988Y015166D01*
X008971Y015216D01*
X008942Y015273D01*
X008905Y015325D01*
X008859Y015370D01*
X008807Y015408D01*
X008750Y015437D01*
X008689Y015457D01*
X008626Y015467D01*
X008623Y015467D01*
X008623Y015088D01*
X008565Y015088D01*
X008565Y015031D01*
X007835Y015031D01*
X007835Y015088D01*
X008214Y015088D01*
X008565Y015088D01*
X008565Y015467D01*
X008562Y015467D01*
X008498Y015457D01*
X008437Y015437D01*
X008380Y015408D01*
X008328Y015370D01*
X008283Y015325D01*
X008245Y015273D01*
X008216Y015216D01*
X008200Y015166D01*
X008184Y015216D01*
X008155Y015273D01*
X008117Y015325D01*
X008072Y015370D01*
X008020Y015408D01*
X007963Y015437D01*
X007902Y015457D01*
X007838Y015467D01*
X007835Y015467D01*
X007835Y015088D01*
X007778Y015088D01*
X007778Y015467D01*
X007774Y015467D01*
X007711Y015457D01*
X007650Y015437D01*
X007593Y015408D01*
X007541Y015370D01*
X007496Y015325D01*
X007458Y015273D01*
X007429Y015216D01*
X007413Y015166D01*
X007397Y015216D01*
X007368Y015273D01*
X007330Y015325D01*
X007284Y015370D01*
X007233Y015408D01*
X007175Y015437D01*
X007114Y015457D01*
X007051Y015467D01*
X007048Y015467D01*
X007048Y015088D01*
X007427Y015088D01*
X007778Y015088D01*
X007778Y015031D01*
X007048Y015031D01*
X007048Y015088D01*
X006990Y015088D01*
X006990Y015031D01*
X006612Y015031D01*
X006612Y015027D01*
X006622Y014964D01*
X006641Y014903D01*
X006671Y014846D01*
X006708Y014794D01*
X006754Y014749D01*
X006805Y014711D01*
X006863Y014682D01*
X006908Y014667D01*
X006788Y014617D01*
X006674Y014503D01*
X006612Y014353D01*
X006612Y014191D01*
X006674Y014041D01*
X006788Y013927D01*
X006938Y013865D01*
X007038Y013865D01*
X010436Y010466D01*
X010513Y010389D01*
X010614Y010347D01*
X011242Y010347D01*
X012522Y009067D01*
X012450Y009067D01*
X012300Y009005D01*
X012185Y008890D01*
X012137Y008774D01*
X012089Y008890D01*
X011974Y009005D01*
X011824Y009067D01*
X011662Y009067D01*
X011513Y009005D01*
X011398Y008890D01*
X011350Y008774D01*
X011301Y008890D01*
X011187Y009005D01*
X011037Y009067D01*
X010875Y009067D01*
X010725Y009005D01*
X010611Y008890D01*
X010562Y008774D01*
X010514Y008890D01*
X010399Y009005D01*
X010250Y009067D01*
X010088Y009067D01*
X009938Y009005D01*
X009823Y008890D01*
X009775Y008774D01*
X009727Y008890D01*
X009612Y009005D01*
X009462Y009067D01*
X009300Y009067D01*
X009150Y009005D01*
X009036Y008890D01*
X008988Y008774D01*
X008939Y008890D01*
X008825Y009005D01*
X008675Y009067D01*
X008513Y009067D01*
X008363Y009005D01*
X008248Y008890D01*
X008200Y008774D01*
X008152Y008890D01*
X008037Y009005D01*
X007887Y009067D01*
X007725Y009067D01*
X007576Y009005D01*
X007461Y008890D01*
X007413Y008774D01*
X007364Y008890D01*
X007250Y009005D01*
X007100Y009067D01*
X006938Y009067D01*
X006788Y009005D01*
X006674Y008890D01*
X006612Y008741D01*
X006612Y008578D01*
X006674Y008429D01*
X006788Y008314D01*
X006908Y008264D01*
X006863Y008250D01*
X006805Y008221D01*
X006754Y008183D01*
X006708Y008138D01*
X006671Y008086D01*
X006641Y008028D01*
X006622Y007967D01*
X006612Y007904D01*
X006612Y007901D01*
X006990Y007901D01*
X006990Y007843D01*
X007048Y007843D01*
X007048Y007465D01*
X007051Y007465D01*
X007114Y007475D01*
X007175Y007494D01*
X007233Y007524D01*
X007284Y007561D01*
X007330Y007607D01*
X007368Y007658D01*
X007397Y007716D01*
X007413Y007765D01*
X007429Y007716D01*
X007458Y007658D01*
X007496Y007607D01*
X007541Y007561D01*
X007593Y007524D01*
X007650Y007494D01*
X007711Y007475D01*
X007774Y007465D01*
X007778Y007465D01*
X007778Y007843D01*
X007835Y007843D01*
X007835Y007465D01*
X007838Y007465D01*
X007902Y007475D01*
X007963Y007494D01*
X008020Y007524D01*
X008072Y007561D01*
X008117Y007607D01*
X008155Y007658D01*
X008184Y007716D01*
X008200Y007765D01*
X008216Y007716D01*
X008245Y007658D01*
X008283Y007607D01*
X008328Y007561D01*
X008380Y007524D01*
X008437Y007494D01*
X008498Y007475D01*
X008562Y007465D01*
X008565Y007465D01*
X008565Y007843D01*
X008623Y007843D01*
X008623Y007901D01*
X008974Y007901D01*
X009352Y007901D01*
X009352Y007843D01*
X008623Y007843D01*
X008623Y007465D01*
X008626Y007465D01*
X008689Y007475D01*
X008750Y007494D01*
X008807Y007524D01*
X008859Y007561D01*
X008905Y007607D01*
X008942Y007658D01*
X008971Y007716D01*
X008988Y007765D01*
X009004Y007716D01*
X009033Y007658D01*
X009070Y007607D01*
X009116Y007561D01*
X009168Y007524D01*
X009225Y007494D01*
X009286Y007475D01*
X009349Y007465D01*
X009352Y007465D01*
X009352Y007843D01*
X009410Y007843D01*
X009410Y007465D01*
X009413Y007465D01*
X009477Y007475D01*
X009538Y007494D01*
X009595Y007524D01*
X009647Y007561D01*
X009692Y007607D01*
X009730Y007658D01*
X009759Y007716D01*
X009775Y007765D01*
X009791Y007716D01*
X009820Y007658D01*
X009858Y007607D01*
X009903Y007561D01*
X009955Y007524D01*
X010012Y007494D01*
X010073Y007475D01*
X010137Y007465D01*
X010140Y007465D01*
X010140Y007843D01*
X010197Y007843D01*
X010197Y007465D01*
X010201Y007465D01*
X010264Y007475D01*
X010325Y007494D01*
X010382Y007524D01*
X010434Y007561D01*
X010479Y007607D01*
X010517Y007658D01*
X010546Y007716D01*
X010562Y007765D01*
X010578Y007716D01*
X010608Y007658D01*
X010645Y007607D01*
X010691Y007561D01*
X010742Y007524D01*
X010800Y007494D01*
X010861Y007475D01*
X010924Y007465D01*
X010927Y007465D01*
X010927Y007843D01*
X010985Y007843D01*
X010985Y007465D01*
X010988Y007465D01*
X011051Y007475D01*
X011112Y007494D01*
X011170Y007524D01*
X011221Y007561D01*
X011267Y007607D01*
X011305Y007658D01*
X011334Y007716D01*
X011350Y007765D01*
X011366Y007716D01*
X011395Y007658D01*
X011433Y007607D01*
X011478Y007561D01*
X011530Y007524D01*
X011587Y007494D01*
X011648Y007475D01*
X011711Y007465D01*
X011715Y007465D01*
X011715Y007843D01*
X011772Y007843D01*
X011772Y007465D01*
X011776Y007465D01*
X011839Y007475D01*
X011900Y007494D01*
X011957Y007524D01*
X012009Y007561D01*
X012054Y007607D01*
X012092Y007658D01*
X012121Y007716D01*
X012137Y007765D01*
X012153Y007716D01*
X012182Y007658D01*
X012220Y007607D01*
X012265Y007561D01*
X012317Y007524D01*
X012374Y007494D01*
X012435Y007475D01*
X012499Y007465D01*
X012502Y007465D01*
X012502Y007843D01*
X012560Y007843D01*
X012560Y007901D01*
X012938Y007901D01*
X013289Y007901D01*
X013289Y007843D01*
X012560Y007843D01*
X012560Y007465D01*
X012563Y007465D01*
X012626Y007475D01*
X012687Y007494D01*
X012744Y007524D01*
X012796Y007561D01*
X012842Y007607D01*
X012879Y007658D01*
X012908Y007716D01*
X012925Y007765D01*
X012941Y007716D01*
X012970Y007658D01*
X013007Y007607D01*
X013053Y007561D01*
X013105Y007524D01*
X013162Y007494D01*
X013223Y007475D01*
X013286Y007465D01*
X013289Y007465D01*
X013289Y007843D01*
X013347Y007843D01*
X013347Y007465D01*
X013350Y007465D01*
X013414Y007475D01*
X013475Y007494D01*
X013532Y007524D01*
X013584Y007561D01*
X013629Y007607D01*
X013667Y007658D01*
X013696Y007716D01*
X013712Y007765D01*
X013728Y007716D01*
X013757Y007658D01*
X013795Y007607D01*
X013840Y007561D01*
X013892Y007524D01*
X013949Y007494D01*
X014010Y007475D01*
X014074Y007465D01*
X014077Y007465D01*
X014077Y007843D01*
X014134Y007843D01*
X014134Y007465D01*
X014138Y007465D01*
X014201Y007475D01*
X014262Y007494D01*
X014319Y007524D01*
X014371Y007561D01*
X014416Y007607D01*
X014454Y007658D01*
X014483Y007716D01*
X014499Y007765D01*
X014515Y007716D01*
X014545Y007658D01*
X014582Y007607D01*
X014628Y007561D01*
X014679Y007524D01*
X014737Y007494D01*
X014798Y007475D01*
X014861Y007465D01*
X014864Y007465D01*
X014864Y007843D01*
X014922Y007843D01*
X014922Y007465D01*
X014925Y007465D01*
X014988Y007475D01*
X015049Y007494D01*
X015107Y007524D01*
X015158Y007561D01*
X015204Y007607D01*
X015242Y007658D01*
X015271Y007716D01*
X015287Y007765D01*
X015303Y007716D01*
X015332Y007658D01*
X015370Y007607D01*
X015415Y007561D01*
X015467Y007524D01*
X015524Y007494D01*
X015585Y007475D01*
X015648Y007465D01*
X015652Y007465D01*
X015652Y007843D01*
X015709Y007843D01*
X015709Y007465D01*
X015713Y007465D01*
X015776Y007475D01*
X015837Y007494D01*
X015894Y007524D01*
X015946Y007561D01*
X015991Y007607D01*
X016029Y007658D01*
X016058Y007716D01*
X016074Y007765D01*
X016090Y007716D01*
X016119Y007658D01*
X016157Y007607D01*
X016202Y007561D01*
X016254Y007524D01*
X016311Y007494D01*
X016372Y007475D01*
X016436Y007465D01*
X016439Y007465D01*
X016439Y007843D01*
X016497Y007843D01*
X016497Y007465D01*
X016500Y007465D01*
X016563Y007475D01*
X016624Y007494D01*
X016681Y007524D01*
X016733Y007561D01*
X016779Y007607D01*
X016816Y007658D01*
X016845Y007716D01*
X016860Y007761D01*
X016910Y007641D01*
X017024Y007527D01*
X017174Y007465D01*
X017336Y007465D01*
X017486Y007527D01*
X017601Y007641D01*
X017649Y007758D01*
X017697Y007641D01*
X017812Y007527D01*
X017962Y007465D01*
X018124Y007465D01*
X018273Y007527D01*
X018388Y007641D01*
X018438Y007761D01*
X018452Y007716D01*
X018482Y007658D01*
X018519Y007607D01*
X018565Y007561D01*
X018616Y007524D01*
X018674Y007494D01*
X018735Y007475D01*
X018798Y007465D01*
X018801Y007465D01*
X018801Y007843D01*
X018859Y007843D01*
X018859Y007465D01*
X018862Y007465D01*
X018925Y007475D01*
X018986Y007494D01*
X019044Y007524D01*
X019096Y007561D01*
X019141Y007607D01*
X019179Y007658D01*
X019208Y007716D01*
X019222Y007761D01*
X019272Y007641D01*
X019387Y007527D01*
X019536Y007465D01*
X019699Y007465D01*
X019848Y007527D01*
X019963Y007641D01*
X020011Y007758D01*
X020059Y007641D01*
X020174Y007527D01*
X020324Y007465D01*
X020486Y007465D01*
X020636Y007527D01*
X020750Y007641D01*
X020800Y007761D01*
X020815Y007716D01*
X020844Y007658D01*
X020881Y007607D01*
X020927Y007561D01*
X020979Y007524D01*
X021036Y007494D01*
X021097Y007475D01*
X021160Y007465D01*
X021164Y007465D01*
X021164Y007843D01*
X021221Y007843D01*
X021221Y007465D01*
X021224Y007465D01*
X021288Y007475D01*
X021349Y007494D01*
X021406Y007524D01*
X021458Y007561D01*
X021503Y007607D01*
X021541Y007658D01*
X021570Y007716D01*
X021585Y007761D01*
X021634Y007641D01*
X021749Y007527D01*
X021899Y007465D01*
X022061Y007465D01*
X022137Y007496D01*
X022137Y007081D01*
X022134Y007078D01*
X022092Y006977D01*
X022092Y006867D01*
X022134Y006766D01*
X022211Y006689D01*
X022312Y006647D01*
X022316Y006647D01*
X021921Y006252D01*
X016876Y006252D01*
X016872Y006255D01*
X016771Y006297D01*
X016662Y006297D01*
X016561Y006255D01*
X016484Y006178D01*
X016442Y006077D01*
X016442Y005967D01*
X016484Y005866D01*
X016561Y005789D01*
X016662Y005747D01*
X016771Y005747D01*
X016872Y005789D01*
X016876Y005792D01*
X016898Y005792D01*
X016884Y005778D01*
X016842Y005677D01*
X016842Y005567D01*
X016884Y005466D01*
X016961Y005389D01*
X017062Y005347D01*
X017171Y005347D01*
X017272Y005389D01*
X017276Y005392D01*
X022762Y005392D01*
X022897Y005527D01*
X024042Y006672D01*
X024177Y006807D01*
X024177Y007499D01*
X024261Y007465D01*
X024423Y007465D01*
X024573Y007527D01*
X024687Y007641D01*
X024736Y007758D01*
X024784Y007641D01*
X024898Y007527D01*
X025048Y007465D01*
X025210Y007465D01*
X025360Y007527D01*
X025475Y007641D01*
X025509Y007724D01*
X025509Y007595D01*
X025519Y007557D01*
X025539Y007522D01*
X025567Y007495D01*
X025601Y007475D01*
X025639Y007465D01*
X025888Y007465D01*
X025888Y007843D01*
X025945Y007843D01*
X025945Y007465D01*
X026194Y007465D01*
X026232Y007475D01*
X026266Y007495D01*
X026294Y007522D01*
X026314Y007557D01*
X026324Y007595D01*
X026324Y007843D01*
X025945Y007843D01*
X025945Y007901D01*
X026324Y007901D01*
X026324Y008149D01*
X026314Y008187D01*
X026294Y008222D01*
X026266Y008250D01*
X026232Y008269D01*
X026194Y008280D01*
X026064Y008280D01*
X026147Y008314D01*
X026181Y008348D01*
X026370Y008348D01*
X026395Y008322D01*
X026369Y008296D01*
X026350Y008262D01*
X026340Y008224D01*
X026340Y008085D01*
X026648Y008085D01*
X026648Y008047D01*
X026686Y008047D01*
X026686Y008085D01*
X026994Y008085D01*
X026994Y008224D01*
X026984Y008262D01*
X026964Y008296D01*
X026938Y008322D01*
X026994Y008378D01*
X026994Y008778D01*
X026906Y008866D01*
X026427Y008866D01*
X026370Y008808D01*
X026296Y008808D01*
X026262Y008890D01*
X026147Y009005D01*
X025998Y009067D01*
X025836Y009067D01*
X025686Y009005D01*
X025571Y008890D01*
X025522Y008771D01*
X025507Y008816D01*
X025478Y008873D01*
X025440Y008925D01*
X025395Y008970D01*
X025343Y009008D01*
X025286Y009037D01*
X025225Y009057D01*
X025161Y009067D01*
X025158Y009067D01*
X025158Y008688D01*
X025101Y008688D01*
X025101Y009067D01*
X025097Y009067D01*
X025034Y009057D01*
X024973Y009037D01*
X024916Y009008D01*
X024864Y008970D01*
X024818Y008925D01*
X024781Y008873D01*
X024752Y008816D01*
X024737Y008771D01*
X024687Y008890D01*
X024573Y009005D01*
X024423Y009067D01*
X024261Y009067D01*
X024111Y009005D01*
X023996Y008890D01*
X023948Y008774D01*
X023900Y008890D01*
X023785Y009005D01*
X023784Y009005D01*
X023784Y010380D01*
X022722Y011442D01*
X025208Y011442D01*
X025211Y011439D01*
X025312Y011397D01*
X025421Y011397D01*
X025522Y011439D01*
X025526Y011442D01*
X025562Y011442D01*
X025697Y011577D01*
X025697Y012317D01*
X025609Y012405D01*
X025600Y012428D01*
X025522Y012505D01*
X025421Y012547D01*
X025312Y012547D01*
X025211Y012505D01*
X025208Y012502D01*
X022662Y012502D01*
X021872Y013292D01*
X021872Y013297D01*
X021830Y013398D01*
X021752Y013475D01*
X021651Y013517D01*
X021542Y013517D01*
X021441Y013475D01*
X021364Y013398D01*
X021335Y013329D01*
X021037Y013627D01*
X021037Y013894D01*
X021097Y013875D01*
X021160Y013865D01*
X021164Y013865D01*
X021164Y014243D01*
X021221Y014243D01*
X021221Y013865D01*
X021224Y013865D01*
X021288Y013875D01*
X021349Y013894D01*
X021406Y013924D01*
X021458Y013961D01*
X021503Y014007D01*
X021541Y014058D01*
X021570Y014116D01*
X021586Y014165D01*
X021586Y014165D01*
X021602Y014116D01*
X021631Y014058D01*
X021669Y014007D01*
X021714Y013961D01*
X021766Y013924D01*
X021823Y013894D01*
X021884Y013875D01*
X021948Y013865D01*
X021951Y013865D01*
X021951Y014243D01*
X022008Y014243D01*
X022008Y013865D01*
X022012Y013865D01*
X022075Y013875D01*
X022136Y013894D01*
X022193Y013924D01*
X022245Y013961D01*
X022290Y014007D01*
X022328Y014058D01*
X022357Y014116D01*
X022373Y014165D01*
X022373Y014165D01*
X022389Y014116D01*
X022419Y014058D01*
X022456Y014007D01*
X022502Y013961D01*
X022553Y013924D01*
X022611Y013894D01*
X022672Y013875D01*
X022735Y013865D01*
X022738Y013865D01*
X022738Y014243D01*
X022796Y014243D01*
X022796Y013865D01*
X022799Y013865D01*
X022862Y013875D01*
X022923Y013894D01*
X022981Y013924D01*
X023033Y013961D01*
X023078Y014007D01*
X023116Y014058D01*
X023145Y014116D01*
X023161Y014165D01*
X023161Y014165D01*
X023177Y014116D01*
X023206Y014058D01*
X023244Y014007D01*
X023289Y013961D01*
X023341Y013924D01*
X023398Y013894D01*
X023459Y013875D01*
X023522Y013865D01*
X023526Y013865D01*
X023526Y014243D01*
X023583Y014243D01*
X023583Y013865D01*
X023587Y013865D01*
X023650Y013875D01*
X023711Y013894D01*
X023768Y013924D01*
X023820Y013961D01*
X023865Y014007D01*
X023903Y014058D01*
X023932Y014116D01*
X023947Y014161D01*
X023996Y014041D01*
X024111Y013927D01*
X024261Y013865D01*
X024423Y013865D01*
X024424Y013865D01*
X025147Y013142D01*
X028617Y013142D01*
X028617Y006547D01*
X024972Y002903D01*
X007045Y002903D01*
X005042Y004907D01*
X005042Y015387D01*
X009901Y020247D01*
X012560Y020247D01*
X012614Y020193D01*
X012778Y020125D01*
X012956Y020125D01*
X013120Y020193D01*
X013245Y020319D01*
X013314Y020483D01*
X013314Y020661D01*
X013304Y020684D01*
X013762Y021142D01*
X013680Y021060D02*
X021587Y021060D01*
X021581Y020962D02*
X013581Y020962D01*
X013483Y020863D02*
X021482Y020863D01*
X021384Y020765D02*
X013384Y020765D01*
X013311Y020666D02*
X021285Y020666D01*
X021187Y020568D02*
X013314Y020568D01*
X013308Y020469D02*
X021088Y020469D01*
X020990Y020371D02*
X013267Y020371D01*
X013199Y020272D02*
X020891Y020272D01*
X020793Y020174D02*
X013072Y020174D01*
X013038Y019986D02*
X012971Y020008D01*
X012915Y020017D01*
X012915Y019620D01*
X013311Y019620D01*
X013303Y019677D01*
X013281Y019744D01*
X013249Y019806D01*
X013208Y019863D01*
X013158Y019913D01*
X013101Y019954D01*
X013038Y019986D01*
X013057Y019977D02*
X020596Y019977D01*
X020694Y020075D02*
X009729Y020075D01*
X009631Y019977D02*
X012676Y019977D01*
X012695Y019986D02*
X012632Y019954D01*
X012576Y019913D01*
X012526Y019863D01*
X012484Y019806D01*
X012453Y019744D01*
X012431Y019677D01*
X012422Y019620D01*
X012818Y019620D01*
X012818Y019524D01*
X012422Y019524D01*
X012431Y019467D01*
X012453Y019401D01*
X012484Y019338D01*
X012526Y019281D01*
X012576Y019231D01*
X012632Y019190D01*
X012695Y019158D01*
X012762Y019136D01*
X012818Y019127D01*
X012818Y019524D01*
X012915Y019524D01*
X012915Y019620D01*
X012818Y019620D01*
X012818Y020017D01*
X012762Y020008D01*
X012695Y019986D01*
X012818Y019977D02*
X012915Y019977D01*
X012915Y019878D02*
X012818Y019878D01*
X012818Y019780D02*
X012915Y019780D01*
X012915Y019681D02*
X012818Y019681D01*
X012818Y019583D02*
X009237Y019583D01*
X009335Y019681D02*
X012432Y019681D01*
X012471Y019780D02*
X009434Y019780D01*
X009532Y019878D02*
X012541Y019878D01*
X012661Y020174D02*
X009828Y020174D01*
X009138Y019484D02*
X012428Y019484D01*
X012460Y019386D02*
X009040Y019386D01*
X008941Y019287D02*
X012521Y019287D01*
X012635Y019189D02*
X008843Y019189D01*
X008744Y019090D02*
X019709Y019090D01*
X019611Y018992D02*
X013253Y018992D01*
X013226Y019019D02*
X013314Y018931D01*
X013314Y018213D01*
X013226Y018125D01*
X012508Y018125D01*
X012420Y018213D01*
X012420Y018931D01*
X012508Y019019D01*
X013226Y019019D01*
X013314Y018893D02*
X019512Y018893D01*
X019414Y018795D02*
X013314Y018795D01*
X013314Y018696D02*
X019315Y018696D01*
X019217Y018598D02*
X013314Y018598D01*
X013314Y018499D02*
X019118Y018499D01*
X019020Y018401D02*
X013314Y018401D01*
X013314Y018302D02*
X018921Y018302D01*
X018823Y018204D02*
X013304Y018204D01*
X012429Y018204D02*
X007858Y018204D01*
X007956Y018302D02*
X012420Y018302D01*
X012420Y018401D02*
X008055Y018401D01*
X008153Y018499D02*
X012420Y018499D01*
X012420Y018598D02*
X008252Y018598D01*
X008350Y018696D02*
X012420Y018696D01*
X012420Y018795D02*
X008449Y018795D01*
X008547Y018893D02*
X012420Y018893D01*
X012480Y018992D02*
X008646Y018992D01*
X007759Y018105D02*
X018724Y018105D01*
X018626Y018007D02*
X007661Y018007D01*
X007562Y017908D02*
X018527Y017908D01*
X018496Y017877D02*
X018496Y017877D01*
X018429Y017810D02*
X007464Y017810D01*
X007365Y017711D02*
X018330Y017711D01*
X018306Y017687D02*
X018306Y017687D01*
X018232Y017613D02*
X007267Y017613D01*
X007168Y017514D02*
X018206Y017514D01*
X018206Y017416D02*
X007070Y017416D01*
X006971Y017317D02*
X018206Y017317D01*
X018206Y017219D02*
X006873Y017219D01*
X006774Y017120D02*
X018206Y017120D01*
X018206Y017022D02*
X006676Y017022D01*
X006577Y016923D02*
X018206Y016923D01*
X018206Y016825D02*
X006479Y016825D01*
X006380Y016726D02*
X018206Y016726D01*
X018206Y016628D02*
X006282Y016628D01*
X006183Y016529D02*
X018206Y016529D01*
X018206Y016431D02*
X006085Y016431D01*
X005986Y016332D02*
X018206Y016332D01*
X018206Y016234D02*
X005888Y016234D01*
X005789Y016135D02*
X018206Y016135D01*
X018206Y016037D02*
X005691Y016037D01*
X005592Y015938D02*
X018206Y015938D01*
X018206Y015840D02*
X005494Y015840D01*
X005395Y015741D02*
X018206Y015741D01*
X018206Y015643D02*
X005297Y015643D01*
X005198Y015544D02*
X018206Y015544D01*
X018206Y015446D02*
X018173Y015446D01*
X018071Y015446D02*
X018014Y015446D01*
X018014Y015347D02*
X018071Y015347D01*
X018071Y015249D02*
X018014Y015249D01*
X018014Y015150D02*
X018071Y015150D01*
X018014Y015052D02*
X017284Y015052D01*
X017284Y015031D02*
X017284Y014652D01*
X017284Y014301D01*
X017227Y014301D01*
X017227Y015031D01*
X017284Y015031D01*
X017226Y015052D02*
X016497Y015052D01*
X016497Y015031D02*
X016497Y014652D01*
X016497Y014301D01*
X016875Y014301D01*
X017226Y014301D01*
X017226Y014243D01*
X016497Y014243D01*
X016497Y014301D01*
X016439Y014301D01*
X016439Y015031D01*
X016497Y015031D01*
X016439Y015052D02*
X015709Y015052D01*
X015652Y015052D02*
X014922Y015052D01*
X014922Y015031D02*
X014922Y014680D01*
X014922Y014301D01*
X015301Y014301D01*
X015652Y014301D01*
X015652Y014243D01*
X015709Y014243D01*
X015709Y013865D01*
X015713Y013865D01*
X015776Y013875D01*
X015837Y013894D01*
X015894Y013924D01*
X015946Y013961D01*
X015991Y014007D01*
X016029Y014058D01*
X016058Y014116D01*
X016074Y014165D01*
X016074Y014165D01*
X016090Y014116D01*
X016119Y014058D01*
X016157Y014007D01*
X016202Y013961D01*
X016254Y013924D01*
X016311Y013894D01*
X016372Y013875D01*
X016436Y013865D01*
X016439Y013865D01*
X016439Y014243D01*
X016497Y014243D01*
X016497Y013865D01*
X016500Y013865D01*
X016563Y013875D01*
X016624Y013894D01*
X016681Y013924D01*
X016733Y013961D01*
X016779Y014007D01*
X016816Y014058D01*
X016845Y014116D01*
X016862Y014165D01*
X016862Y014165D01*
X016878Y014116D01*
X016907Y014058D01*
X016944Y014007D01*
X016990Y013961D01*
X017042Y013924D01*
X017099Y013894D01*
X017160Y013875D01*
X017223Y013865D01*
X017227Y013865D01*
X017227Y014243D01*
X017284Y014243D01*
X017284Y013865D01*
X017287Y013865D01*
X017351Y013875D01*
X017412Y013894D01*
X017469Y013924D01*
X017521Y013961D01*
X017566Y014007D01*
X017604Y014058D01*
X017633Y014116D01*
X017649Y014165D01*
X017649Y014165D01*
X017665Y014116D01*
X017694Y014058D01*
X017732Y014007D01*
X017777Y013961D01*
X017829Y013924D01*
X017886Y013894D01*
X017947Y013875D01*
X018011Y013865D01*
X018014Y013865D01*
X018014Y014243D01*
X018071Y014243D01*
X018071Y013865D01*
X018075Y013865D01*
X018138Y013875D01*
X018199Y013894D01*
X018206Y013898D01*
X018206Y013652D01*
X017026Y013652D01*
X017022Y013655D01*
X016921Y013697D01*
X014282Y013697D01*
X014077Y013902D01*
X014077Y014243D01*
X014134Y014243D01*
X014134Y013865D01*
X014138Y013865D01*
X014201Y013875D01*
X014262Y013894D01*
X014319Y013924D01*
X014371Y013961D01*
X014416Y014007D01*
X014454Y014058D01*
X014483Y014116D01*
X014499Y014165D01*
X014499Y014165D01*
X014515Y014116D01*
X014545Y014058D01*
X014582Y014007D01*
X014628Y013961D01*
X014679Y013924D01*
X014737Y013894D01*
X014798Y013875D01*
X014861Y013865D01*
X014864Y013865D01*
X014864Y014243D01*
X014922Y014243D01*
X014922Y013865D01*
X014925Y013865D01*
X014988Y013875D01*
X015049Y013894D01*
X015107Y013924D01*
X015158Y013961D01*
X015204Y014007D01*
X015242Y014058D01*
X015271Y014116D01*
X015287Y014165D01*
X015287Y014165D01*
X015303Y014116D01*
X015332Y014058D01*
X015370Y014007D01*
X015415Y013961D01*
X015467Y013924D01*
X015524Y013894D01*
X015585Y013875D01*
X015648Y013865D01*
X015652Y013865D01*
X015652Y014243D01*
X014922Y014243D01*
X014922Y014301D01*
X014864Y014301D01*
X014864Y014243D01*
X014134Y014243D01*
X014134Y014301D01*
X014486Y014301D01*
X014864Y014301D01*
X014864Y015031D01*
X014922Y015031D01*
X014864Y015052D02*
X014134Y015052D01*
X014134Y015088D02*
X014486Y015088D01*
X014864Y015088D01*
X014864Y015467D01*
X014861Y015467D01*
X014798Y015457D01*
X014737Y015437D01*
X014679Y015408D01*
X014628Y015370D01*
X014582Y015325D01*
X014545Y015273D01*
X014515Y015216D01*
X014499Y015166D01*
X014483Y015216D01*
X014454Y015273D01*
X014416Y015325D01*
X014371Y015370D01*
X014319Y015408D01*
X014262Y015437D01*
X014201Y015457D01*
X014138Y015467D01*
X014134Y015467D01*
X014134Y015088D01*
X014134Y015150D02*
X014077Y015150D01*
X014077Y015052D02*
X013347Y015052D01*
X013289Y015052D02*
X012560Y015052D01*
X012502Y015052D02*
X011772Y015052D01*
X011715Y015052D02*
X010985Y015052D01*
X010927Y015052D02*
X010197Y015052D01*
X010197Y015088D02*
X010549Y015088D01*
X010927Y015088D01*
X010927Y015467D01*
X010924Y015467D01*
X010861Y015457D01*
X010800Y015437D01*
X010742Y015408D01*
X010691Y015370D01*
X010645Y015325D01*
X010608Y015273D01*
X010578Y015216D01*
X010562Y015166D01*
X010546Y015216D01*
X010517Y015273D01*
X010479Y015325D01*
X010434Y015370D01*
X010382Y015408D01*
X010325Y015437D01*
X010264Y015457D01*
X010201Y015467D01*
X010197Y015467D01*
X010197Y015088D01*
X010197Y015150D02*
X010140Y015150D01*
X010140Y015052D02*
X009410Y015052D01*
X009352Y015052D02*
X008623Y015052D01*
X008565Y015052D02*
X007835Y015052D01*
X007778Y015052D02*
X007048Y015052D01*
X006990Y015052D02*
X005042Y015052D01*
X005042Y015150D02*
X006621Y015150D01*
X006622Y015155D02*
X006612Y015092D01*
X006612Y015088D01*
X006990Y015088D01*
X006990Y015467D01*
X006987Y015467D01*
X006924Y015457D01*
X006863Y015437D01*
X006805Y015408D01*
X006754Y015370D01*
X006708Y015325D01*
X006671Y015273D01*
X006641Y015216D01*
X006622Y015155D01*
X006658Y015249D02*
X005042Y015249D01*
X005042Y015347D02*
X006730Y015347D01*
X006889Y015446D02*
X005100Y015446D01*
X004673Y015938D02*
X001517Y015938D01*
X001517Y015840D02*
X004575Y015840D01*
X004476Y015741D02*
X001517Y015741D01*
X001517Y015643D02*
X004415Y015643D01*
X004392Y015544D02*
X001517Y015544D01*
X001517Y015446D02*
X004392Y015446D01*
X004392Y015347D02*
X001517Y015347D01*
X001517Y015249D02*
X004392Y015249D01*
X004392Y015150D02*
X001517Y015150D01*
X001517Y015052D02*
X004392Y015052D01*
X004392Y014953D02*
X001517Y014953D01*
X001517Y014855D02*
X004392Y014855D01*
X004392Y014756D02*
X001517Y014756D01*
X001517Y014658D02*
X004392Y014658D01*
X004392Y014559D02*
X001517Y014559D01*
X001517Y014461D02*
X004392Y014461D01*
X004392Y014362D02*
X001517Y014362D01*
X001517Y014264D02*
X004392Y014264D01*
X004392Y014165D02*
X001517Y014165D01*
X001517Y014067D02*
X004392Y014067D01*
X004392Y013968D02*
X001517Y013968D01*
X001517Y013870D02*
X004392Y013870D01*
X004392Y013771D02*
X001517Y013771D01*
X001517Y013673D02*
X004392Y013673D01*
X004392Y013574D02*
X001517Y013574D01*
X001517Y013476D02*
X004392Y013476D01*
X004392Y013377D02*
X001517Y013377D01*
X001517Y013279D02*
X004392Y013279D01*
X004392Y013180D02*
X001517Y013180D01*
X001517Y013082D02*
X004392Y013082D01*
X004392Y012983D02*
X001517Y012983D01*
X001517Y012885D02*
X004392Y012885D01*
X004392Y012786D02*
X001517Y012786D01*
X001517Y012688D02*
X004392Y012688D01*
X004392Y012589D02*
X001517Y012589D01*
X001517Y012491D02*
X004392Y012491D01*
X004392Y012392D02*
X001517Y012392D01*
X001517Y012294D02*
X004392Y012294D01*
X004392Y012195D02*
X001517Y012195D01*
X001517Y012097D02*
X004392Y012097D01*
X004392Y011998D02*
X001517Y011998D01*
X001517Y011900D02*
X004392Y011900D01*
X004392Y011801D02*
X001517Y011801D01*
X001517Y011703D02*
X004392Y011703D01*
X004392Y011604D02*
X001517Y011604D01*
X001517Y011506D02*
X004392Y011506D01*
X004392Y011407D02*
X001517Y011407D01*
X001517Y011309D02*
X004392Y011309D01*
X004392Y011210D02*
X001517Y011210D01*
X001517Y011112D02*
X004392Y011112D01*
X004392Y011013D02*
X001517Y011013D01*
X001517Y010915D02*
X004392Y010915D01*
X004392Y010816D02*
X001517Y010816D01*
X001517Y010718D02*
X002637Y010718D01*
X002538Y010619D02*
X001517Y010619D01*
X001517Y010521D02*
X002440Y010521D01*
X002341Y010422D02*
X001517Y010422D01*
X001517Y010324D02*
X001985Y010324D01*
X001877Y010225D02*
X001517Y010225D01*
X001517Y010127D02*
X001804Y010127D01*
X001763Y010028D02*
X001517Y010028D01*
X001517Y009930D02*
X001742Y009930D01*
X001742Y009831D02*
X001517Y009831D01*
X001517Y009733D02*
X001756Y009733D01*
X001797Y009634D02*
X001517Y009634D01*
X001517Y009536D02*
X001861Y009536D01*
X001959Y009437D02*
X001517Y009437D01*
X001517Y009339D02*
X002021Y009339D01*
X001892Y009240D02*
X001517Y009240D01*
X001517Y009142D02*
X001810Y009142D01*
X001769Y009043D02*
X001517Y009043D01*
X001517Y008945D02*
X001742Y008945D01*
X001742Y008846D02*
X001517Y008846D01*
X001517Y008748D02*
X001750Y008748D01*
X001791Y008649D02*
X001517Y008649D01*
X001517Y008551D02*
X001846Y008551D01*
X001944Y008452D02*
X001517Y008452D01*
X001517Y008354D02*
X002057Y008354D01*
X001907Y008255D02*
X001517Y008255D01*
X001517Y008157D02*
X001816Y008157D01*
X001775Y008058D02*
X001517Y008058D01*
X001517Y007960D02*
X001742Y007960D01*
X001742Y007861D02*
X001517Y007861D01*
X001517Y007763D02*
X001744Y007763D01*
X001785Y007664D02*
X001517Y007664D01*
X001517Y007566D02*
X001831Y007566D01*
X001929Y007467D02*
X001517Y007467D01*
X001517Y007369D02*
X002093Y007369D01*
X001922Y007270D02*
X001517Y007270D01*
X001517Y007172D02*
X001824Y007172D01*
X001782Y007073D02*
X001517Y007073D01*
X001517Y006975D02*
X001742Y006975D01*
X001742Y006876D02*
X001517Y006876D01*
X001517Y006778D02*
X001742Y006778D01*
X001778Y006679D02*
X001517Y006679D01*
X001517Y006581D02*
X001819Y006581D01*
X001914Y006482D02*
X001517Y006482D01*
X001517Y006384D02*
X002074Y006384D01*
X001937Y006285D02*
X001517Y006285D01*
X001517Y006187D02*
X001839Y006187D01*
X001788Y006088D02*
X001517Y006088D01*
X001517Y005990D02*
X001747Y005990D01*
X001742Y005891D02*
X001517Y005891D01*
X001517Y005793D02*
X001742Y005793D01*
X001772Y005694D02*
X001517Y005694D01*
X001517Y005596D02*
X001813Y005596D01*
X001899Y005497D02*
X001517Y005497D01*
X001517Y005399D02*
X002038Y005399D01*
X002513Y005300D02*
X001517Y005300D01*
X001517Y005202D02*
X002612Y005202D01*
X002710Y005103D02*
X001517Y005103D01*
X001517Y005005D02*
X003987Y005005D01*
X003987Y005103D02*
X003673Y005103D01*
X003771Y005202D02*
X003987Y005202D01*
X003987Y005300D02*
X003870Y005300D01*
X003968Y005399D02*
X003987Y005399D01*
X003987Y004906D02*
X001517Y004906D01*
X001517Y004808D02*
X003987Y004808D01*
X003987Y004709D02*
X001517Y004709D01*
X001517Y004611D02*
X003987Y004611D01*
X003989Y004512D02*
X001517Y004512D01*
X001517Y004414D02*
X004088Y004414D01*
X004186Y004315D02*
X001517Y004315D01*
X001517Y004217D02*
X004285Y004217D01*
X004383Y004118D02*
X001517Y004118D01*
X001517Y004020D02*
X004482Y004020D01*
X004580Y003921D02*
X001517Y003921D01*
X001517Y003823D02*
X004679Y003823D01*
X004777Y003724D02*
X001517Y003724D01*
X001517Y003626D02*
X004876Y003626D01*
X004974Y003527D02*
X001517Y003527D01*
X001517Y003429D02*
X005073Y003429D01*
X005171Y003330D02*
X001517Y003330D01*
X001517Y003232D02*
X005270Y003232D01*
X005368Y003133D02*
X001517Y003133D01*
X001517Y003035D02*
X005467Y003035D01*
X005565Y002936D02*
X001517Y002936D01*
X001517Y002838D02*
X005664Y002838D01*
X005762Y002739D02*
X001517Y002739D01*
X001517Y002641D02*
X005861Y002641D01*
X005959Y002542D02*
X001517Y002542D01*
X001517Y002444D02*
X006058Y002444D01*
X006156Y002345D02*
X001517Y002345D01*
X001517Y002247D02*
X006255Y002247D01*
X006353Y002148D02*
X001517Y002148D01*
X001517Y002050D02*
X006452Y002050D01*
X006550Y001951D02*
X001517Y001951D01*
X001517Y001853D02*
X006649Y001853D01*
X006747Y001754D02*
X001517Y001754D01*
X001517Y001656D02*
X006846Y001656D01*
X006944Y001557D02*
X001517Y001557D01*
X001517Y001459D02*
X006964Y001459D01*
X006964Y001360D02*
X001517Y001360D01*
X001517Y001262D02*
X006995Y001262D01*
X007041Y001163D02*
X001517Y001163D01*
X001517Y001065D02*
X007140Y001065D01*
X007669Y001065D02*
X007927Y001065D01*
X007829Y001163D02*
X007768Y001163D01*
X008323Y000966D02*
X001517Y000966D01*
X001517Y000868D02*
X008421Y000868D01*
X008520Y000769D02*
X001517Y000769D01*
X005732Y004217D02*
X026286Y004217D01*
X026384Y004315D02*
X005633Y004315D01*
X005535Y004414D02*
X026483Y004414D01*
X026581Y004512D02*
X005436Y004512D01*
X005338Y004611D02*
X026680Y004611D01*
X026778Y004709D02*
X005239Y004709D01*
X005141Y004808D02*
X026877Y004808D01*
X026975Y004906D02*
X005042Y004906D01*
X005042Y005005D02*
X027074Y005005D01*
X027172Y005103D02*
X005042Y005103D01*
X005042Y005202D02*
X027271Y005202D01*
X027369Y005300D02*
X005042Y005300D01*
X005042Y005399D02*
X016951Y005399D01*
X016871Y005497D02*
X005042Y005497D01*
X005042Y005596D02*
X016842Y005596D01*
X016849Y005694D02*
X005042Y005694D01*
X005042Y005793D02*
X016557Y005793D01*
X016473Y005891D02*
X005042Y005891D01*
X005042Y005990D02*
X016442Y005990D01*
X016446Y006088D02*
X005042Y006088D01*
X005042Y006187D02*
X016492Y006187D01*
X016633Y006285D02*
X005042Y006285D01*
X005042Y006384D02*
X022053Y006384D01*
X022151Y006482D02*
X005042Y006482D01*
X005042Y006581D02*
X022250Y006581D01*
X022235Y006679D02*
X005042Y006679D01*
X005042Y006778D02*
X022129Y006778D01*
X022092Y006876D02*
X005042Y006876D01*
X005042Y006975D02*
X022092Y006975D01*
X022132Y007073D02*
X005042Y007073D01*
X005042Y007172D02*
X022137Y007172D01*
X022137Y007270D02*
X005042Y007270D01*
X005042Y007369D02*
X022137Y007369D01*
X022137Y007467D02*
X022067Y007467D01*
X021893Y007467D02*
X021240Y007467D01*
X021221Y007467D02*
X021164Y007467D01*
X021144Y007467D02*
X020492Y007467D01*
X020318Y007467D02*
X019705Y007467D01*
X019530Y007467D02*
X018878Y007467D01*
X018859Y007467D02*
X018801Y007467D01*
X018782Y007467D02*
X018130Y007467D01*
X017956Y007467D02*
X017342Y007467D01*
X017168Y007467D02*
X016516Y007467D01*
X016497Y007467D02*
X016439Y007467D01*
X016420Y007467D02*
X015728Y007467D01*
X015709Y007467D02*
X015652Y007467D01*
X015633Y007467D02*
X014941Y007467D01*
X014922Y007467D02*
X014864Y007467D01*
X014845Y007467D02*
X014153Y007467D01*
X014134Y007467D02*
X014077Y007467D01*
X014058Y007467D02*
X013366Y007467D01*
X013347Y007467D02*
X013289Y007467D01*
X013270Y007467D02*
X012579Y007467D01*
X012560Y007467D02*
X012502Y007467D01*
X012483Y007467D02*
X011791Y007467D01*
X011772Y007467D02*
X011715Y007467D01*
X011696Y007467D02*
X011004Y007467D01*
X010985Y007467D02*
X010927Y007467D01*
X010908Y007467D02*
X010216Y007467D01*
X010197Y007467D02*
X010140Y007467D01*
X010121Y007467D02*
X009429Y007467D01*
X009410Y007467D02*
X009352Y007467D01*
X009333Y007467D02*
X008642Y007467D01*
X008623Y007467D02*
X008565Y007467D01*
X008546Y007467D02*
X007854Y007467D01*
X007835Y007467D02*
X007778Y007467D01*
X007759Y007467D02*
X007067Y007467D01*
X007048Y007467D02*
X006990Y007467D01*
X006990Y007465D02*
X006990Y007843D01*
X006612Y007843D01*
X006612Y007840D01*
X006622Y007777D01*
X006641Y007716D01*
X006671Y007658D01*
X006708Y007607D01*
X006754Y007561D01*
X006805Y007524D01*
X006863Y007494D01*
X006924Y007475D01*
X006987Y007465D01*
X006990Y007465D01*
X006971Y007467D02*
X005042Y007467D01*
X005042Y007566D02*
X006749Y007566D01*
X006668Y007664D02*
X005042Y007664D01*
X005042Y007763D02*
X006626Y007763D01*
X006620Y007960D02*
X005042Y007960D01*
X005042Y008058D02*
X006656Y008058D01*
X006727Y008157D02*
X005042Y008157D01*
X005042Y008255D02*
X006879Y008255D01*
X006749Y008354D02*
X005042Y008354D01*
X005042Y008452D02*
X006664Y008452D01*
X006623Y008551D02*
X005042Y008551D01*
X005042Y008649D02*
X006612Y008649D01*
X006614Y008748D02*
X005042Y008748D01*
X005042Y008846D02*
X006655Y008846D01*
X006728Y008945D02*
X005042Y008945D01*
X005042Y009043D02*
X006880Y009043D01*
X007158Y009043D02*
X007668Y009043D01*
X007515Y008945D02*
X007310Y008945D01*
X007383Y008846D02*
X007443Y008846D01*
X007945Y009043D02*
X008455Y009043D01*
X008303Y008945D02*
X008098Y008945D01*
X008170Y008846D02*
X008230Y008846D01*
X008732Y009043D02*
X009243Y009043D01*
X009090Y008945D02*
X008885Y008945D01*
X008958Y008846D02*
X009017Y008846D01*
X009520Y009043D02*
X010030Y009043D01*
X009877Y008945D02*
X009672Y008945D01*
X009745Y008846D02*
X009805Y008846D01*
X010307Y009043D02*
X010817Y009043D01*
X010665Y008945D02*
X010460Y008945D01*
X010532Y008846D02*
X010592Y008846D01*
X011095Y009043D02*
X011605Y009043D01*
X011452Y008945D02*
X011247Y008945D01*
X011320Y008846D02*
X011380Y008846D01*
X011882Y009043D02*
X012392Y009043D01*
X012447Y009142D02*
X005042Y009142D01*
X005042Y009240D02*
X012349Y009240D01*
X012250Y009339D02*
X005042Y009339D01*
X005042Y009437D02*
X012152Y009437D01*
X012053Y009536D02*
X005042Y009536D01*
X005042Y009634D02*
X011955Y009634D01*
X011856Y009733D02*
X005042Y009733D01*
X005042Y009831D02*
X011758Y009831D01*
X011659Y009930D02*
X005042Y009930D01*
X005042Y010028D02*
X011561Y010028D01*
X011462Y010127D02*
X005042Y010127D01*
X005042Y010225D02*
X011364Y010225D01*
X011265Y010324D02*
X005042Y010324D01*
X005042Y010422D02*
X010480Y010422D01*
X010382Y010521D02*
X005042Y010521D01*
X005042Y010619D02*
X010283Y010619D01*
X010185Y010718D02*
X005042Y010718D01*
X005042Y010816D02*
X010086Y010816D01*
X009988Y010915D02*
X005042Y010915D01*
X005042Y011013D02*
X009889Y011013D01*
X009791Y011112D02*
X005042Y011112D01*
X005042Y011210D02*
X009692Y011210D01*
X009594Y011309D02*
X005042Y011309D01*
X005042Y011407D02*
X009495Y011407D01*
X009397Y011506D02*
X005042Y011506D01*
X005042Y011604D02*
X009298Y011604D01*
X009200Y011703D02*
X005042Y011703D01*
X005042Y011801D02*
X009101Y011801D01*
X009003Y011900D02*
X005042Y011900D01*
X005042Y011998D02*
X008904Y011998D01*
X008806Y012097D02*
X005042Y012097D01*
X005042Y012195D02*
X008707Y012195D01*
X008609Y012294D02*
X005042Y012294D01*
X005042Y012392D02*
X008510Y012392D01*
X008412Y012491D02*
X005042Y012491D01*
X005042Y012589D02*
X008313Y012589D01*
X008215Y012688D02*
X005042Y012688D01*
X005042Y012786D02*
X008116Y012786D01*
X008018Y012885D02*
X005042Y012885D01*
X005042Y012983D02*
X007919Y012983D01*
X007821Y013082D02*
X005042Y013082D01*
X005042Y013180D02*
X007722Y013180D01*
X007624Y013279D02*
X005042Y013279D01*
X005042Y013377D02*
X007525Y013377D01*
X007427Y013476D02*
X005042Y013476D01*
X005042Y013574D02*
X007328Y013574D01*
X007230Y013673D02*
X005042Y013673D01*
X005042Y013771D02*
X007131Y013771D01*
X006926Y013870D02*
X005042Y013870D01*
X005042Y013968D02*
X006747Y013968D01*
X006663Y014067D02*
X005042Y014067D01*
X005042Y014165D02*
X006622Y014165D01*
X006612Y014264D02*
X005042Y014264D01*
X005042Y014362D02*
X006615Y014362D01*
X006656Y014461D02*
X005042Y014461D01*
X005042Y014559D02*
X006730Y014559D01*
X006885Y014658D02*
X005042Y014658D01*
X005042Y014756D02*
X006746Y014756D01*
X006666Y014855D02*
X005042Y014855D01*
X005042Y014953D02*
X006625Y014953D01*
X006990Y015150D02*
X007048Y015150D01*
X007048Y015249D02*
X006990Y015249D01*
X006990Y015347D02*
X007048Y015347D01*
X007048Y015446D02*
X006990Y015446D01*
X007149Y015446D02*
X007676Y015446D01*
X007778Y015446D02*
X007835Y015446D01*
X007835Y015347D02*
X007778Y015347D01*
X007778Y015249D02*
X007835Y015249D01*
X007835Y015150D02*
X007778Y015150D01*
X007518Y015347D02*
X007308Y015347D01*
X007380Y015249D02*
X007445Y015249D01*
X007937Y015446D02*
X008464Y015446D01*
X008565Y015446D02*
X008623Y015446D01*
X008623Y015347D02*
X008565Y015347D01*
X008565Y015249D02*
X008623Y015249D01*
X008623Y015150D02*
X008565Y015150D01*
X008305Y015347D02*
X008095Y015347D01*
X008167Y015249D02*
X008233Y015249D01*
X008724Y015446D02*
X009251Y015446D01*
X009352Y015446D02*
X009410Y015446D01*
X009410Y015347D02*
X009352Y015347D01*
X009352Y015249D02*
X009410Y015249D01*
X009410Y015150D02*
X009352Y015150D01*
X009093Y015347D02*
X008882Y015347D01*
X008955Y015249D02*
X009020Y015249D01*
X009511Y015446D02*
X010038Y015446D01*
X010140Y015446D02*
X010197Y015446D01*
X010197Y015347D02*
X010140Y015347D01*
X010140Y015249D02*
X010197Y015249D01*
X010299Y015446D02*
X010826Y015446D01*
X010927Y015446D02*
X010985Y015446D01*
X010985Y015347D02*
X010927Y015347D01*
X010927Y015249D02*
X010985Y015249D01*
X010985Y015150D02*
X010927Y015150D01*
X010667Y015347D02*
X010457Y015347D01*
X010530Y015249D02*
X010595Y015249D01*
X011086Y015446D02*
X011613Y015446D01*
X011715Y015446D02*
X011772Y015446D01*
X011772Y015347D02*
X011715Y015347D01*
X011715Y015249D02*
X011772Y015249D01*
X011772Y015150D02*
X011715Y015150D01*
X011455Y015347D02*
X011245Y015347D01*
X011317Y015249D02*
X011382Y015249D01*
X011874Y015446D02*
X012401Y015446D01*
X012502Y015446D02*
X012560Y015446D01*
X012560Y015347D02*
X012502Y015347D01*
X012502Y015249D02*
X012560Y015249D01*
X012560Y015150D02*
X012502Y015150D01*
X012242Y015347D02*
X012032Y015347D01*
X012104Y015249D02*
X012170Y015249D01*
X012661Y015446D02*
X013188Y015446D01*
X013289Y015446D02*
X013347Y015446D01*
X013347Y015347D02*
X013289Y015347D01*
X013289Y015249D02*
X013347Y015249D01*
X013347Y015150D02*
X013289Y015150D01*
X013030Y015347D02*
X012819Y015347D01*
X012892Y015249D02*
X012957Y015249D01*
X013448Y015446D02*
X013975Y015446D01*
X014077Y015446D02*
X014134Y015446D01*
X014134Y015347D02*
X014077Y015347D01*
X014077Y015249D02*
X014134Y015249D01*
X014236Y015446D02*
X014763Y015446D01*
X014864Y015446D02*
X014922Y015446D01*
X014922Y015347D02*
X014864Y015347D01*
X014864Y015249D02*
X014922Y015249D01*
X014922Y015150D02*
X014864Y015150D01*
X014864Y014953D02*
X014922Y014953D01*
X014922Y014855D02*
X014864Y014855D01*
X014864Y014756D02*
X014922Y014756D01*
X014922Y014658D02*
X014864Y014658D01*
X014864Y014559D02*
X014922Y014559D01*
X014922Y014461D02*
X014864Y014461D01*
X014864Y014362D02*
X014922Y014362D01*
X014922Y014264D02*
X015652Y014264D01*
X015709Y014264D02*
X016439Y014264D01*
X016439Y014243D02*
X015709Y014243D01*
X015709Y014301D01*
X016088Y014301D01*
X016439Y014301D01*
X016439Y014243D01*
X016497Y014264D02*
X017226Y014264D01*
X017284Y014264D02*
X018014Y014264D01*
X018014Y014243D02*
X017284Y014243D01*
X017284Y014301D01*
X017635Y014301D01*
X018014Y014301D01*
X018014Y015031D01*
X018071Y015031D01*
X018071Y014652D01*
X018071Y014301D01*
X018014Y014301D01*
X018014Y014243D01*
X018014Y014165D02*
X018071Y014165D01*
X018071Y014067D02*
X018014Y014067D01*
X018014Y013968D02*
X018071Y013968D01*
X018071Y013870D02*
X018014Y013870D01*
X017979Y013870D02*
X017319Y013870D01*
X017284Y013870D02*
X017227Y013870D01*
X017192Y013870D02*
X016532Y013870D01*
X016497Y013870D02*
X016439Y013870D01*
X016404Y013870D02*
X015744Y013870D01*
X015709Y013870D02*
X015652Y013870D01*
X015617Y013870D02*
X014957Y013870D01*
X014922Y013870D02*
X014864Y013870D01*
X014829Y013870D02*
X014169Y013870D01*
X014134Y013870D02*
X014110Y013870D01*
X014134Y013968D02*
X014077Y013968D01*
X014077Y014067D02*
X014134Y014067D01*
X014134Y014165D02*
X014077Y014165D01*
X014134Y014264D02*
X014864Y014264D01*
X014864Y014165D02*
X014922Y014165D01*
X014922Y014067D02*
X014864Y014067D01*
X014864Y013968D02*
X014922Y013968D01*
X015165Y013968D02*
X015408Y013968D01*
X015328Y014067D02*
X015246Y014067D01*
X015652Y014067D02*
X015709Y014067D01*
X015709Y014165D02*
X015652Y014165D01*
X015652Y013968D02*
X015709Y013968D01*
X015953Y013968D02*
X016196Y013968D01*
X016115Y014067D02*
X016033Y014067D01*
X016439Y014067D02*
X016497Y014067D01*
X016497Y014165D02*
X016439Y014165D01*
X016439Y013968D02*
X016497Y013968D01*
X016740Y013968D02*
X016983Y013968D01*
X016903Y014067D02*
X016820Y014067D01*
X017227Y014067D02*
X017284Y014067D01*
X017284Y014165D02*
X017227Y014165D01*
X017227Y013968D02*
X017284Y013968D01*
X017528Y013968D02*
X017770Y013968D01*
X017690Y014067D02*
X017608Y014067D01*
X017284Y014362D02*
X017227Y014362D01*
X017227Y014461D02*
X017284Y014461D01*
X017284Y014559D02*
X017227Y014559D01*
X017227Y014658D02*
X017284Y014658D01*
X017284Y014756D02*
X017227Y014756D01*
X017227Y014855D02*
X017284Y014855D01*
X017284Y014953D02*
X017227Y014953D01*
X017227Y015150D02*
X017284Y015150D01*
X017284Y015249D02*
X017227Y015249D01*
X017227Y015347D02*
X017284Y015347D01*
X017284Y015446D02*
X017227Y015446D01*
X017125Y015446D02*
X016598Y015446D01*
X016497Y015446D02*
X016439Y015446D01*
X016439Y015347D02*
X016497Y015347D01*
X016497Y015249D02*
X016439Y015249D01*
X016439Y015150D02*
X016497Y015150D01*
X016497Y014953D02*
X016439Y014953D01*
X016439Y014855D02*
X016497Y014855D01*
X016497Y014756D02*
X016439Y014756D01*
X016439Y014658D02*
X016497Y014658D01*
X016497Y014559D02*
X016439Y014559D01*
X016439Y014461D02*
X016497Y014461D01*
X016497Y014362D02*
X016439Y014362D01*
X015709Y014362D02*
X015652Y014362D01*
X015652Y014461D02*
X015709Y014461D01*
X015709Y014559D02*
X015652Y014559D01*
X015652Y014658D02*
X015709Y014658D01*
X015709Y014756D02*
X015652Y014756D01*
X015652Y014855D02*
X015709Y014855D01*
X015709Y014953D02*
X015652Y014953D01*
X015652Y015150D02*
X015709Y015150D01*
X015709Y015249D02*
X015652Y015249D01*
X015652Y015347D02*
X015709Y015347D01*
X015709Y015446D02*
X015652Y015446D01*
X015550Y015446D02*
X015023Y015446D01*
X015182Y015347D02*
X015392Y015347D01*
X015319Y015249D02*
X015254Y015249D01*
X015811Y015446D02*
X016338Y015446D01*
X016179Y015347D02*
X015969Y015347D01*
X016041Y015249D02*
X016107Y015249D01*
X016756Y015347D02*
X016967Y015347D01*
X016894Y015249D02*
X016829Y015249D01*
X017385Y015446D02*
X017912Y015446D01*
X017754Y015347D02*
X017544Y015347D01*
X017616Y015249D02*
X017682Y015249D01*
X018014Y014953D02*
X018071Y014953D01*
X018071Y014855D02*
X018014Y014855D01*
X018014Y014756D02*
X018071Y014756D01*
X018071Y014658D02*
X018014Y014658D01*
X018014Y014559D02*
X018071Y014559D01*
X018071Y014461D02*
X018014Y014461D01*
X018014Y014362D02*
X018071Y014362D01*
X018106Y013870D02*
X018206Y013870D01*
X018206Y013771D02*
X014208Y013771D01*
X014378Y013968D02*
X014621Y013968D01*
X014540Y014067D02*
X014458Y014067D01*
X014134Y014362D02*
X014077Y014362D01*
X014077Y014461D02*
X014134Y014461D01*
X014134Y014559D02*
X014077Y014559D01*
X014077Y014658D02*
X014134Y014658D01*
X014134Y014756D02*
X014077Y014756D01*
X014077Y014855D02*
X014134Y014855D01*
X014134Y014953D02*
X014077Y014953D01*
X013745Y015249D02*
X013679Y015249D01*
X013607Y015347D02*
X013817Y015347D01*
X014394Y015347D02*
X014604Y015347D01*
X014532Y015249D02*
X014467Y015249D01*
X016980Y013673D02*
X018206Y013673D01*
X019447Y013817D02*
X019447Y013902D01*
X019461Y013894D01*
X019522Y013875D01*
X019585Y013865D01*
X019589Y013865D01*
X019589Y014243D01*
X019646Y014243D01*
X019646Y013865D01*
X019650Y013865D01*
X019713Y013875D01*
X019774Y013894D01*
X019787Y013901D01*
X019787Y013727D01*
X023324Y010189D01*
X023324Y009005D01*
X023209Y008890D01*
X023159Y008771D01*
X023145Y008816D01*
X023116Y008873D01*
X023078Y008925D01*
X023033Y008970D01*
X022981Y009008D01*
X022923Y009037D01*
X022862Y009057D01*
X022799Y009067D01*
X022796Y009067D01*
X022796Y008688D01*
X022738Y008688D01*
X022738Y009067D01*
X022735Y009067D01*
X022672Y009057D01*
X022611Y009037D01*
X022553Y009008D01*
X022502Y008970D01*
X022456Y008925D01*
X022419Y008873D01*
X022389Y008816D01*
X022375Y008771D01*
X022325Y008890D01*
X022210Y009005D01*
X022210Y011054D01*
X019447Y013817D01*
X019447Y013870D02*
X019554Y013870D01*
X019589Y013870D02*
X019646Y013870D01*
X019681Y013870D02*
X019787Y013870D01*
X019787Y013771D02*
X019493Y013771D01*
X019591Y013673D02*
X019841Y013673D01*
X019939Y013574D02*
X019690Y013574D01*
X019788Y013476D02*
X020038Y013476D01*
X020136Y013377D02*
X019887Y013377D01*
X019985Y013279D02*
X020235Y013279D01*
X020333Y013180D02*
X020084Y013180D01*
X020182Y013082D02*
X020432Y013082D01*
X020530Y012983D02*
X020281Y012983D01*
X020379Y012885D02*
X020629Y012885D01*
X020727Y012786D02*
X020478Y012786D01*
X020576Y012688D02*
X020826Y012688D01*
X020924Y012589D02*
X020675Y012589D01*
X020773Y012491D02*
X021023Y012491D01*
X021121Y012392D02*
X020872Y012392D01*
X020970Y012294D02*
X021220Y012294D01*
X021318Y012195D02*
X021069Y012195D01*
X021167Y012097D02*
X021417Y012097D01*
X021515Y011998D02*
X021266Y011998D01*
X021364Y011900D02*
X021614Y011900D01*
X021712Y011801D02*
X021463Y011801D01*
X021561Y011703D02*
X021811Y011703D01*
X021909Y011604D02*
X021660Y011604D01*
X021758Y011506D02*
X022008Y011506D01*
X022106Y011407D02*
X021857Y011407D01*
X021955Y011309D02*
X022205Y011309D01*
X022303Y011210D02*
X022054Y011210D01*
X022152Y011112D02*
X022402Y011112D01*
X022500Y011013D02*
X022210Y011013D01*
X022210Y010915D02*
X022599Y010915D01*
X022697Y010816D02*
X022210Y010816D01*
X022210Y010718D02*
X022796Y010718D01*
X022894Y010619D02*
X022210Y010619D01*
X022210Y010521D02*
X022993Y010521D01*
X023091Y010422D02*
X022210Y010422D01*
X022210Y010324D02*
X023190Y010324D01*
X023288Y010225D02*
X022210Y010225D01*
X022210Y010127D02*
X023324Y010127D01*
X023324Y010028D02*
X022210Y010028D01*
X022210Y009930D02*
X023324Y009930D01*
X023324Y009831D02*
X022210Y009831D01*
X022210Y009733D02*
X023324Y009733D01*
X023324Y009634D02*
X022210Y009634D01*
X022210Y009536D02*
X023324Y009536D01*
X023324Y009437D02*
X022210Y009437D01*
X022210Y009339D02*
X023324Y009339D01*
X023324Y009240D02*
X022210Y009240D01*
X022210Y009142D02*
X023324Y009142D01*
X023324Y009043D02*
X022905Y009043D01*
X022796Y009043D02*
X022738Y009043D01*
X022738Y008945D02*
X022796Y008945D01*
X022796Y008846D02*
X022738Y008846D01*
X022738Y008748D02*
X022796Y008748D01*
X023058Y008945D02*
X023263Y008945D01*
X023324Y009005D02*
X023324Y009005D01*
X023191Y008846D02*
X023129Y008846D01*
X023784Y009043D02*
X024203Y009043D01*
X024051Y008945D02*
X023846Y008945D01*
X023918Y008846D02*
X023978Y008846D01*
X023784Y009142D02*
X028617Y009142D01*
X028617Y009240D02*
X023784Y009240D01*
X023784Y009339D02*
X028617Y009339D01*
X028617Y009437D02*
X023784Y009437D01*
X023784Y009536D02*
X028617Y009536D01*
X028617Y009634D02*
X023784Y009634D01*
X023784Y009733D02*
X028617Y009733D01*
X028617Y009831D02*
X023784Y009831D01*
X023784Y009930D02*
X028617Y009930D01*
X028617Y010028D02*
X023784Y010028D01*
X023784Y010127D02*
X028617Y010127D01*
X028617Y010225D02*
X023784Y010225D01*
X023784Y010324D02*
X028617Y010324D01*
X028617Y010422D02*
X023742Y010422D01*
X023643Y010521D02*
X028617Y010521D01*
X028617Y010619D02*
X023545Y010619D01*
X023446Y010718D02*
X028617Y010718D01*
X028617Y010816D02*
X023348Y010816D01*
X023249Y010915D02*
X028617Y010915D01*
X028617Y011013D02*
X023151Y011013D01*
X023052Y011112D02*
X028617Y011112D01*
X028617Y011210D02*
X022954Y011210D01*
X022855Y011309D02*
X028617Y011309D01*
X028617Y011407D02*
X025446Y011407D01*
X025288Y011407D02*
X022757Y011407D01*
X022575Y012589D02*
X028617Y012589D01*
X028617Y012491D02*
X025537Y012491D01*
X025622Y012392D02*
X028617Y012392D01*
X028617Y012294D02*
X025697Y012294D01*
X025697Y012195D02*
X028617Y012195D01*
X028617Y012097D02*
X025697Y012097D01*
X025697Y011998D02*
X028617Y011998D01*
X028617Y011900D02*
X025697Y011900D01*
X025697Y011801D02*
X028617Y011801D01*
X028617Y011703D02*
X025697Y011703D01*
X025697Y011604D02*
X028617Y011604D01*
X028617Y011506D02*
X025625Y011506D01*
X025109Y013180D02*
X021984Y013180D01*
X022082Y013082D02*
X028617Y013082D01*
X028617Y012983D02*
X022181Y012983D01*
X022279Y012885D02*
X028617Y012885D01*
X028617Y012786D02*
X022378Y012786D01*
X022476Y012688D02*
X028617Y012688D01*
X025010Y013279D02*
X021885Y013279D01*
X021838Y013377D02*
X024912Y013377D01*
X024813Y013476D02*
X021751Y013476D01*
X021442Y013476D02*
X021188Y013476D01*
X021090Y013574D02*
X024715Y013574D01*
X024616Y013673D02*
X021037Y013673D01*
X021037Y013771D02*
X024518Y013771D01*
X024249Y013870D02*
X023618Y013870D01*
X023583Y013870D02*
X023526Y013870D01*
X023491Y013870D02*
X022831Y013870D01*
X022796Y013870D02*
X022738Y013870D01*
X022703Y013870D02*
X022043Y013870D01*
X022008Y013870D02*
X021951Y013870D01*
X021916Y013870D02*
X021256Y013870D01*
X021221Y013870D02*
X021164Y013870D01*
X021129Y013870D02*
X021037Y013870D01*
X021164Y013968D02*
X021221Y013968D01*
X021221Y014067D02*
X021164Y014067D01*
X021164Y014165D02*
X021221Y014165D01*
X021221Y014243D02*
X021221Y014301D01*
X021600Y014301D01*
X021951Y014301D01*
X021951Y014243D01*
X021221Y014243D01*
X021221Y014264D02*
X021951Y014264D01*
X022008Y014264D02*
X022738Y014264D01*
X022738Y014243D02*
X022008Y014243D01*
X022008Y014301D01*
X022387Y014301D01*
X022738Y014301D01*
X022738Y014243D01*
X022796Y014243D02*
X022796Y014301D01*
X023175Y014301D01*
X023526Y014301D01*
X023526Y014243D01*
X022796Y014243D01*
X022796Y014264D02*
X023526Y014264D01*
X023526Y014165D02*
X023583Y014165D01*
X023583Y014067D02*
X023526Y014067D01*
X023526Y013968D02*
X023583Y013968D01*
X023827Y013968D02*
X024070Y013968D01*
X023986Y014067D02*
X023907Y014067D01*
X023282Y013968D02*
X023039Y013968D01*
X023120Y014067D02*
X023202Y014067D01*
X022796Y014067D02*
X022738Y014067D01*
X022738Y014165D02*
X022796Y014165D01*
X022796Y013968D02*
X022738Y013968D01*
X022495Y013968D02*
X022252Y013968D01*
X022332Y014067D02*
X022414Y014067D01*
X022008Y014067D02*
X021951Y014067D01*
X021951Y014165D02*
X022008Y014165D01*
X022008Y013968D02*
X021951Y013968D01*
X021707Y013968D02*
X021465Y013968D01*
X021545Y014067D02*
X021627Y014067D01*
X021355Y013377D02*
X021287Y013377D01*
X019646Y013968D02*
X019589Y013968D01*
X019589Y014067D02*
X019646Y014067D01*
X019646Y014165D02*
X019589Y014165D01*
X019808Y019189D02*
X013098Y019189D01*
X013101Y019190D02*
X013158Y019231D01*
X013208Y019281D01*
X013249Y019338D01*
X013281Y019401D01*
X013303Y019467D01*
X013311Y019524D01*
X012915Y019524D01*
X012915Y019127D01*
X012971Y019136D01*
X013038Y019158D01*
X013101Y019190D01*
X013212Y019287D02*
X019906Y019287D01*
X020005Y019386D02*
X013273Y019386D01*
X013305Y019484D02*
X020103Y019484D01*
X020202Y019583D02*
X012915Y019583D01*
X012915Y019484D02*
X012818Y019484D01*
X012818Y019386D02*
X012915Y019386D01*
X012915Y019287D02*
X012818Y019287D01*
X012818Y019189D02*
X012915Y019189D01*
X013301Y019681D02*
X020300Y019681D01*
X020399Y019780D02*
X013262Y019780D01*
X013193Y019878D02*
X020497Y019878D01*
X026672Y020402D02*
X027122Y020852D01*
X028617Y020852D01*
X028617Y020812D01*
X028071Y020812D01*
X028066Y020807D01*
X028062Y020807D01*
X027961Y020765D01*
X027884Y020688D01*
X027842Y020587D01*
X027842Y020504D01*
X027739Y020504D01*
X027739Y020225D01*
X027682Y020225D01*
X027682Y020504D01*
X027513Y020504D01*
X027475Y020493D01*
X027441Y020474D01*
X027413Y020446D01*
X027393Y020411D01*
X027383Y020373D01*
X027383Y020281D01*
X027262Y020402D01*
X026672Y020402D01*
X026739Y020469D02*
X027437Y020469D01*
X027383Y020371D02*
X027293Y020371D01*
X027682Y020371D02*
X027739Y020371D01*
X027739Y020469D02*
X027682Y020469D01*
X027842Y020568D02*
X026837Y020568D01*
X026936Y020666D02*
X027875Y020666D01*
X027960Y020765D02*
X027034Y020765D01*
X027682Y020272D02*
X027739Y020272D01*
X027739Y020225D02*
X028038Y020225D01*
X028038Y020267D01*
X028062Y020257D01*
X028171Y020257D01*
X028272Y020299D01*
X028326Y020352D01*
X028617Y020352D01*
X028617Y020022D01*
X028182Y020022D01*
X028142Y020062D01*
X028038Y020062D01*
X028038Y020167D01*
X027739Y020167D01*
X027739Y020225D01*
X027739Y020174D02*
X028617Y020174D01*
X028617Y020272D02*
X028208Y020272D01*
X028038Y020075D02*
X028617Y020075D01*
X029744Y026675D02*
X030575Y026675D01*
X030510Y026773D02*
X029719Y026773D01*
X029719Y026872D02*
X030442Y026872D01*
X030343Y026970D02*
X030154Y026970D01*
X030221Y027069D02*
X030245Y027069D01*
X029780Y026970D02*
X029719Y026970D01*
X030231Y028054D02*
X030568Y028054D01*
X030001Y029531D02*
X030001Y029531D01*
X030001Y029630D02*
X030001Y029630D01*
X030001Y029728D02*
X030001Y029728D01*
X029745Y029728D02*
X029745Y029728D01*
X029745Y029630D02*
X029745Y029630D01*
X029745Y029531D02*
X029745Y029531D01*
X029489Y029531D02*
X029489Y029531D01*
X029489Y029630D02*
X029489Y029630D01*
X029489Y029728D02*
X029489Y029728D01*
X028800Y029925D02*
X028703Y029925D01*
X028703Y030024D02*
X028800Y030024D01*
X028800Y030122D02*
X028703Y030122D01*
X028423Y029925D02*
X028411Y029925D01*
X027687Y029925D02*
X026065Y029925D01*
X026065Y030024D02*
X027687Y030024D01*
X027687Y030122D02*
X026042Y030122D01*
X026002Y030221D02*
X027715Y030221D01*
X027715Y030319D02*
X025915Y030319D01*
X025756Y030418D02*
X027715Y030418D01*
X027687Y029827D02*
X026044Y029827D01*
X026004Y029728D02*
X027687Y029728D01*
X027687Y029630D02*
X025920Y029630D01*
X025262Y029630D02*
X023951Y029630D01*
X024035Y029728D02*
X025178Y029728D01*
X025137Y029827D02*
X024076Y029827D01*
X024097Y029925D02*
X025116Y029925D01*
X025116Y030024D02*
X024097Y030024D01*
X024074Y030122D02*
X025139Y030122D01*
X025180Y030221D02*
X024033Y030221D01*
X023947Y030319D02*
X025266Y030319D01*
X025426Y030418D02*
X023787Y030418D01*
X023457Y030418D02*
X021819Y030418D01*
X021978Y030319D02*
X023298Y030319D01*
X023211Y030221D02*
X022065Y030221D01*
X022105Y030122D02*
X023170Y030122D01*
X023147Y030024D02*
X022128Y030024D01*
X022128Y029925D02*
X023147Y029925D01*
X023168Y029827D02*
X022107Y029827D01*
X022067Y029728D02*
X023209Y029728D01*
X023293Y029630D02*
X021983Y029630D01*
X021325Y029630D02*
X020014Y029630D01*
X020098Y029728D02*
X021241Y029728D01*
X021200Y029827D02*
X020139Y029827D01*
X020160Y029925D02*
X021179Y029925D01*
X021179Y030024D02*
X020160Y030024D01*
X020137Y030122D02*
X021202Y030122D01*
X021243Y030221D02*
X020096Y030221D01*
X020010Y030319D02*
X021329Y030319D01*
X021489Y030418D02*
X019850Y030418D01*
X019520Y030418D02*
X018133Y030418D01*
X018104Y030447D02*
X017330Y030447D01*
X017242Y030359D01*
X017242Y029585D01*
X017330Y029497D01*
X018104Y029497D01*
X018191Y029585D01*
X018191Y030359D01*
X018104Y030447D01*
X018191Y030319D02*
X019361Y030319D01*
X019274Y030221D02*
X018191Y030221D01*
X018191Y030122D02*
X019233Y030122D01*
X019210Y030024D02*
X018191Y030024D01*
X018191Y029925D02*
X019210Y029925D01*
X019231Y029827D02*
X018191Y029827D01*
X018191Y029728D02*
X019272Y029728D01*
X019356Y029630D02*
X018191Y029630D01*
X018137Y029531D02*
X018424Y029531D01*
X017296Y029531D02*
X014220Y029531D01*
X014223Y029532D02*
X014290Y029566D01*
X014350Y029610D01*
X014403Y029663D01*
X014447Y029723D01*
X014481Y029790D01*
X014504Y029861D01*
X014513Y029922D01*
X014091Y029922D01*
X014091Y030022D01*
X014513Y030022D01*
X014504Y030083D01*
X014481Y030154D01*
X014447Y030221D01*
X014403Y030281D01*
X014350Y030334D01*
X014290Y030378D01*
X014223Y030412D01*
X014152Y030435D01*
X014091Y030445D01*
X014091Y030022D01*
X013991Y030022D01*
X013991Y030445D01*
X013929Y030435D01*
X013858Y030412D01*
X013792Y030378D01*
X013731Y030334D01*
X013679Y030281D01*
X013635Y030221D01*
X013601Y030154D01*
X013578Y030083D01*
X013568Y030022D01*
X013991Y030022D01*
X013991Y029922D01*
X014091Y029922D01*
X014091Y029499D01*
X014152Y029509D01*
X014223Y029532D01*
X014091Y029531D02*
X013991Y029531D01*
X013991Y029499D02*
X013991Y029922D01*
X013568Y029922D01*
X013578Y029861D01*
X013601Y029790D01*
X013635Y029723D01*
X013679Y029663D01*
X013731Y029610D01*
X013792Y029566D01*
X013858Y029532D01*
X013929Y029509D01*
X013991Y029499D01*
X013991Y029630D02*
X014091Y029630D01*
X014091Y029728D02*
X013991Y029728D01*
X013991Y029827D02*
X014091Y029827D01*
X014091Y029925D02*
X017242Y029925D01*
X017242Y029827D02*
X014493Y029827D01*
X014449Y029728D02*
X017242Y029728D01*
X017242Y029630D02*
X014370Y029630D01*
X014513Y030024D02*
X017242Y030024D01*
X017242Y030122D02*
X014491Y030122D01*
X014447Y030221D02*
X017242Y030221D01*
X017242Y030319D02*
X014365Y030319D01*
X014206Y030418D02*
X017301Y030418D01*
X014699Y028349D02*
X013382Y028349D01*
X013468Y028251D02*
X014618Y028251D01*
X013861Y029531D02*
X012248Y029531D01*
X012167Y029497D02*
X012341Y029570D01*
X012475Y029703D01*
X012547Y029878D01*
X012547Y030066D01*
X012475Y030241D01*
X012341Y030375D01*
X012167Y030447D01*
X011978Y030447D01*
X011803Y030375D01*
X011670Y030241D01*
X011597Y030066D01*
X011597Y029878D01*
X011670Y029703D01*
X011803Y029570D01*
X011978Y029497D01*
X012167Y029497D01*
X012401Y029630D02*
X013712Y029630D01*
X013632Y029728D02*
X012485Y029728D01*
X012526Y029827D02*
X013589Y029827D01*
X013568Y030024D02*
X012547Y030024D01*
X012547Y029925D02*
X013991Y029925D01*
X013991Y030024D02*
X014091Y030024D01*
X014091Y030122D02*
X013991Y030122D01*
X013991Y030221D02*
X014091Y030221D01*
X014091Y030319D02*
X013991Y030319D01*
X013991Y030418D02*
X014091Y030418D01*
X013876Y030418D02*
X012237Y030418D01*
X012397Y030319D02*
X013716Y030319D01*
X013634Y030221D02*
X012483Y030221D01*
X012524Y030122D02*
X013590Y030122D01*
X011907Y030418D02*
X010269Y030418D01*
X010198Y030447D02*
X010009Y030447D01*
X009835Y030375D01*
X009701Y030241D01*
X009629Y030066D01*
X009629Y029878D01*
X009701Y029703D01*
X009835Y029570D01*
X010009Y029497D01*
X010198Y029497D01*
X010373Y029570D01*
X010506Y029703D01*
X010578Y029878D01*
X010578Y030066D01*
X010506Y030241D01*
X010373Y030375D01*
X010198Y030447D01*
X009939Y030418D02*
X008300Y030418D01*
X008230Y030447D02*
X008041Y030447D01*
X007866Y030375D01*
X007733Y030241D01*
X007660Y030066D01*
X007660Y029878D01*
X007733Y029703D01*
X007866Y029570D01*
X008041Y029497D01*
X008230Y029497D01*
X008404Y029570D01*
X008538Y029703D01*
X008610Y029878D01*
X008610Y030066D01*
X008538Y030241D01*
X008404Y030375D01*
X008230Y030447D01*
X007970Y030418D02*
X006583Y030418D01*
X006641Y030319D02*
X007811Y030319D01*
X007724Y030221D02*
X006641Y030221D01*
X006641Y030122D02*
X007683Y030122D01*
X007660Y030024D02*
X006641Y030024D01*
X006641Y029925D02*
X007660Y029925D01*
X007681Y029827D02*
X006641Y029827D01*
X006641Y029728D02*
X007722Y029728D01*
X007806Y029630D02*
X006641Y029630D01*
X006587Y029531D02*
X007959Y029531D01*
X008311Y029531D02*
X009927Y029531D01*
X009775Y029630D02*
X008464Y029630D01*
X008548Y029728D02*
X009691Y029728D01*
X009650Y029827D02*
X008589Y029827D01*
X008610Y029925D02*
X009629Y029925D01*
X009629Y030024D02*
X008610Y030024D01*
X008587Y030122D02*
X009652Y030122D01*
X009693Y030221D02*
X008546Y030221D01*
X008460Y030319D02*
X009779Y030319D01*
X010428Y030319D02*
X011748Y030319D01*
X011661Y030221D02*
X010515Y030221D01*
X010555Y030122D02*
X011620Y030122D01*
X011597Y030024D02*
X010578Y030024D01*
X010578Y029925D02*
X011597Y029925D01*
X011618Y029827D02*
X010557Y029827D01*
X010517Y029728D02*
X011659Y029728D01*
X011743Y029630D02*
X010433Y029630D01*
X010280Y029531D02*
X011896Y029531D01*
X010919Y028448D02*
X009288Y028448D01*
X009214Y028478D02*
X009388Y028406D01*
X009522Y028272D01*
X009594Y028098D01*
X009594Y027909D01*
X009522Y027735D01*
X009388Y027601D01*
X009214Y027529D01*
X009025Y027529D01*
X008850Y027601D01*
X008717Y027735D01*
X008645Y027909D01*
X008645Y028098D01*
X008717Y028272D01*
X008850Y028406D01*
X009025Y028478D01*
X009214Y028478D01*
X009445Y028349D02*
X010762Y028349D01*
X010676Y028251D02*
X009531Y028251D01*
X009572Y028152D02*
X010636Y028152D01*
X010613Y028054D02*
X009594Y028054D01*
X009594Y027955D02*
X010613Y027955D01*
X010635Y027857D02*
X009572Y027857D01*
X009532Y027758D02*
X010676Y027758D01*
X010760Y027660D02*
X009447Y027660D01*
X009292Y027561D02*
X010915Y027561D01*
X008947Y027561D02*
X007570Y027561D01*
X007626Y027660D02*
X008792Y027660D01*
X008707Y027758D02*
X007626Y027758D01*
X007626Y027857D02*
X008666Y027857D01*
X008645Y027955D02*
X007626Y027955D01*
X007626Y028054D02*
X008645Y028054D01*
X008667Y028152D02*
X007626Y028152D01*
X007626Y028251D02*
X008708Y028251D01*
X008794Y028349D02*
X007626Y028349D01*
X007569Y028448D02*
X008951Y028448D01*
X005256Y025000D02*
X001517Y025000D01*
X001517Y024902D02*
X005173Y024902D01*
X005142Y024803D02*
X001517Y024803D01*
X001517Y024705D02*
X005147Y024705D01*
X005194Y024606D02*
X001517Y024606D01*
X001517Y024508D02*
X005336Y024508D01*
X005587Y024409D02*
X001517Y024409D01*
X001517Y024311D02*
X005587Y024311D01*
X005587Y024212D02*
X001517Y024212D01*
X001517Y024114D02*
X005587Y024114D01*
X005587Y024015D02*
X001517Y024015D01*
X001517Y023917D02*
X005587Y023917D01*
X005587Y023818D02*
X001517Y023818D01*
X001517Y023720D02*
X005587Y023720D01*
X005587Y023621D02*
X001517Y023621D01*
X001517Y023523D02*
X005587Y023523D01*
X005587Y023424D02*
X001517Y023424D01*
X001517Y023326D02*
X005587Y023326D01*
X005587Y023227D02*
X001517Y023227D01*
X001517Y023129D02*
X005587Y023129D01*
X005587Y023030D02*
X001517Y023030D01*
X001517Y022932D02*
X005587Y022932D01*
X005587Y022833D02*
X001517Y022833D01*
X001517Y022735D02*
X005587Y022735D01*
X005587Y022636D02*
X001517Y022636D01*
X001517Y022538D02*
X005587Y022538D01*
X005587Y022439D02*
X001517Y022439D01*
X001517Y022341D02*
X005587Y022341D01*
X005587Y022242D02*
X001517Y022242D01*
X001517Y022144D02*
X005587Y022144D01*
X005587Y022045D02*
X001517Y022045D01*
X001517Y021947D02*
X005587Y021947D01*
X005587Y021848D02*
X001517Y021848D01*
X001517Y021750D02*
X005587Y021750D01*
X005587Y021651D02*
X001517Y021651D01*
X001517Y021553D02*
X005587Y021553D01*
X005587Y021454D02*
X001517Y021454D01*
X001517Y021356D02*
X005587Y021356D01*
X005587Y021257D02*
X001517Y021257D01*
X001517Y021159D02*
X005587Y021159D01*
X005587Y021060D02*
X001517Y021060D01*
X001517Y020962D02*
X005587Y020962D01*
X005587Y020863D02*
X001517Y020863D01*
X001517Y020765D02*
X005587Y020765D01*
X005587Y020666D02*
X001517Y020666D01*
X001517Y020568D02*
X005587Y020568D01*
X005587Y020469D02*
X001517Y020469D01*
X001517Y020371D02*
X005587Y020371D01*
X005587Y020272D02*
X001517Y020272D01*
X001517Y020174D02*
X005587Y020174D01*
X005587Y020075D02*
X001517Y020075D01*
X001517Y019977D02*
X005587Y019977D01*
X005587Y019878D02*
X001517Y019878D01*
X001517Y019780D02*
X005587Y019780D01*
X005587Y019681D02*
X001517Y019681D01*
X001517Y019583D02*
X005587Y019583D01*
X005587Y019484D02*
X001517Y019484D01*
X001517Y019386D02*
X005587Y019386D01*
X005587Y019287D02*
X001517Y019287D01*
X001517Y019189D02*
X005587Y019189D01*
X005587Y019090D02*
X001517Y019090D01*
X001517Y018992D02*
X005587Y018992D01*
X005587Y018893D02*
X001517Y018893D01*
X001517Y018795D02*
X005587Y018795D01*
X005587Y018696D02*
X001517Y018696D01*
X001517Y018598D02*
X005587Y018598D01*
X005587Y018499D02*
X001517Y018499D01*
X001517Y018401D02*
X005587Y018401D01*
X005587Y018302D02*
X001517Y018302D01*
X001517Y018204D02*
X005587Y018204D01*
X005587Y018105D02*
X001517Y018105D01*
X001517Y018007D02*
X005587Y018007D01*
X005587Y017908D02*
X001517Y017908D01*
X001517Y017810D02*
X005587Y017810D01*
X005587Y017711D02*
X001517Y017711D01*
X001517Y017613D02*
X005587Y017613D01*
X005587Y017514D02*
X001517Y017514D01*
X001517Y017416D02*
X005587Y017416D01*
X005587Y017317D02*
X001517Y017317D01*
X001517Y017219D02*
X005587Y017219D01*
X005587Y017120D02*
X001517Y017120D01*
X001517Y017022D02*
X005587Y017022D01*
X005587Y016923D02*
X001517Y016923D01*
X001517Y016825D02*
X005560Y016825D01*
X005461Y016726D02*
X001517Y016726D01*
X001517Y016628D02*
X005363Y016628D01*
X005264Y016529D02*
X001517Y016529D01*
X001517Y016431D02*
X005166Y016431D01*
X005067Y016332D02*
X001517Y016332D01*
X001517Y016234D02*
X004969Y016234D01*
X004870Y016135D02*
X001517Y016135D01*
X001517Y016037D02*
X004772Y016037D01*
X009670Y015347D02*
X009880Y015347D01*
X009808Y015249D02*
X009742Y015249D01*
X012035Y008945D02*
X012240Y008945D01*
X012167Y008846D02*
X012107Y008846D01*
X012151Y007901D02*
X011772Y007901D01*
X011772Y007843D01*
X012502Y007843D01*
X012502Y007901D01*
X012151Y007901D01*
X012136Y007763D02*
X012138Y007763D01*
X012095Y007664D02*
X012179Y007664D01*
X012261Y007566D02*
X012013Y007566D01*
X011772Y007566D02*
X011715Y007566D01*
X011715Y007664D02*
X011772Y007664D01*
X011772Y007763D02*
X011715Y007763D01*
X011715Y007843D02*
X010985Y007843D01*
X010985Y007901D01*
X011364Y007901D01*
X011715Y007901D01*
X011715Y007843D01*
X011715Y007861D02*
X010985Y007861D01*
X010927Y007861D02*
X010197Y007861D01*
X010197Y007843D02*
X010197Y007901D01*
X010576Y007901D01*
X010927Y007901D01*
X010927Y007843D01*
X010197Y007843D01*
X010140Y007843D02*
X009410Y007843D01*
X009410Y007901D01*
X009789Y007901D01*
X010140Y007901D01*
X010140Y007843D01*
X010140Y007861D02*
X009410Y007861D01*
X009352Y007861D02*
X008623Y007861D01*
X008565Y007861D02*
X007835Y007861D01*
X007835Y007843D02*
X007835Y007901D01*
X008214Y007901D01*
X008565Y007901D01*
X008565Y007843D01*
X007835Y007843D01*
X007778Y007843D02*
X007048Y007843D01*
X007048Y007901D01*
X007427Y007901D01*
X007778Y007901D01*
X007778Y007843D01*
X007778Y007861D02*
X007048Y007861D01*
X006990Y007861D02*
X005042Y007861D01*
X006990Y007763D02*
X007048Y007763D01*
X007048Y007664D02*
X006990Y007664D01*
X006990Y007566D02*
X007048Y007566D01*
X007289Y007566D02*
X007537Y007566D01*
X007455Y007664D02*
X007370Y007664D01*
X007412Y007763D02*
X007414Y007763D01*
X007778Y007763D02*
X007835Y007763D01*
X007835Y007664D02*
X007778Y007664D01*
X007778Y007566D02*
X007835Y007566D01*
X008076Y007566D02*
X008324Y007566D01*
X008242Y007664D02*
X008158Y007664D01*
X008199Y007763D02*
X008201Y007763D01*
X008565Y007763D02*
X008623Y007763D01*
X008623Y007664D02*
X008565Y007664D01*
X008565Y007566D02*
X008623Y007566D01*
X008864Y007566D02*
X009111Y007566D01*
X009030Y007664D02*
X008945Y007664D01*
X008987Y007763D02*
X008988Y007763D01*
X009352Y007763D02*
X009410Y007763D01*
X009410Y007664D02*
X009352Y007664D01*
X009352Y007566D02*
X009410Y007566D01*
X009651Y007566D02*
X009899Y007566D01*
X009817Y007664D02*
X009733Y007664D01*
X009774Y007763D02*
X009776Y007763D01*
X010140Y007763D02*
X010197Y007763D01*
X010197Y007664D02*
X010140Y007664D01*
X010140Y007566D02*
X010197Y007566D01*
X010438Y007566D02*
X010686Y007566D01*
X010605Y007664D02*
X010520Y007664D01*
X010562Y007763D02*
X010563Y007763D01*
X010927Y007763D02*
X010985Y007763D01*
X010985Y007664D02*
X010927Y007664D01*
X010927Y007566D02*
X010985Y007566D01*
X011226Y007566D02*
X011474Y007566D01*
X011392Y007664D02*
X011307Y007664D01*
X011349Y007763D02*
X011351Y007763D01*
X011772Y007861D02*
X012502Y007861D01*
X012560Y007861D02*
X013289Y007861D01*
X013347Y007861D02*
X014077Y007861D01*
X014077Y007843D02*
X013347Y007843D01*
X013347Y007901D01*
X013698Y007901D01*
X014077Y007901D01*
X014077Y007843D01*
X014134Y007843D02*
X014134Y007901D01*
X014513Y007901D01*
X014864Y007901D01*
X014864Y007843D01*
X014134Y007843D01*
X014134Y007861D02*
X014864Y007861D01*
X014922Y007861D02*
X015652Y007861D01*
X015652Y007843D02*
X014922Y007843D01*
X014922Y007901D01*
X015301Y007901D01*
X015652Y007901D01*
X015652Y007843D01*
X015709Y007843D02*
X015709Y007901D01*
X016088Y007901D01*
X016439Y007901D01*
X016439Y007843D01*
X015709Y007843D01*
X015709Y007861D02*
X016439Y007861D01*
X016439Y007763D02*
X016497Y007763D01*
X016497Y007664D02*
X016439Y007664D01*
X016439Y007566D02*
X016497Y007566D01*
X016738Y007566D02*
X016985Y007566D01*
X016900Y007664D02*
X016819Y007664D01*
X017525Y007566D02*
X017773Y007566D01*
X017688Y007664D02*
X017610Y007664D01*
X018312Y007566D02*
X018560Y007566D01*
X018479Y007664D02*
X018398Y007664D01*
X018801Y007664D02*
X018859Y007664D01*
X018859Y007566D02*
X018801Y007566D01*
X018801Y007763D02*
X018859Y007763D01*
X019100Y007566D02*
X019348Y007566D01*
X019263Y007664D02*
X019181Y007664D01*
X019887Y007566D02*
X020135Y007566D01*
X020050Y007664D02*
X019972Y007664D01*
X020675Y007566D02*
X020922Y007566D01*
X020841Y007664D02*
X020760Y007664D01*
X021164Y007664D02*
X021221Y007664D01*
X021221Y007566D02*
X021164Y007566D01*
X021164Y007763D02*
X021221Y007763D01*
X021462Y007566D02*
X021710Y007566D01*
X021625Y007664D02*
X021544Y007664D01*
X022343Y008846D02*
X022405Y008846D01*
X022476Y008945D02*
X022271Y008945D01*
X022210Y009005D02*
X022210Y009005D01*
X022210Y009043D02*
X022629Y009043D01*
X024481Y009043D02*
X024991Y009043D01*
X025101Y009043D02*
X025158Y009043D01*
X025158Y008945D02*
X025101Y008945D01*
X025101Y008846D02*
X025158Y008846D01*
X025158Y008748D02*
X025101Y008748D01*
X024838Y008945D02*
X024633Y008945D01*
X024706Y008846D02*
X024767Y008846D01*
X025267Y009043D02*
X025778Y009043D01*
X025626Y008945D02*
X025420Y008945D01*
X025492Y008846D02*
X025553Y008846D01*
X026055Y009043D02*
X028617Y009043D01*
X028617Y008945D02*
X026208Y008945D01*
X026280Y008846D02*
X026408Y008846D01*
X026348Y008255D02*
X026257Y008255D01*
X026322Y008157D02*
X026340Y008157D01*
X026324Y008058D02*
X026648Y008058D01*
X026648Y008047D02*
X026340Y008047D01*
X026340Y007909D01*
X026350Y007870D01*
X026369Y007836D01*
X026397Y007808D01*
X026432Y007789D01*
X026470Y007778D01*
X026648Y007778D01*
X026648Y008047D01*
X026686Y008047D02*
X026686Y007778D01*
X026864Y007778D01*
X026902Y007789D01*
X026936Y007808D01*
X026964Y007836D01*
X026984Y007870D01*
X026994Y007909D01*
X026994Y008047D01*
X026686Y008047D01*
X026686Y008058D02*
X028617Y008058D01*
X028617Y007960D02*
X026994Y007960D01*
X026978Y007861D02*
X028617Y007861D01*
X028617Y007763D02*
X026324Y007763D01*
X026324Y007664D02*
X028617Y007664D01*
X028617Y007566D02*
X026316Y007566D01*
X026203Y007467D02*
X028617Y007467D01*
X028617Y007369D02*
X024177Y007369D01*
X024177Y007467D02*
X024255Y007467D01*
X024429Y007467D02*
X025042Y007467D01*
X025216Y007467D02*
X025630Y007467D01*
X025517Y007566D02*
X025399Y007566D01*
X025484Y007664D02*
X025509Y007664D01*
X025888Y007664D02*
X025945Y007664D01*
X025945Y007566D02*
X025888Y007566D01*
X025888Y007467D02*
X025945Y007467D01*
X025945Y007763D02*
X025888Y007763D01*
X025945Y007861D02*
X026355Y007861D01*
X026340Y007960D02*
X026324Y007960D01*
X026648Y007960D02*
X026686Y007960D01*
X026686Y007861D02*
X026648Y007861D01*
X026994Y008157D02*
X028617Y008157D01*
X028617Y008255D02*
X026985Y008255D01*
X026969Y008354D02*
X028617Y008354D01*
X028617Y008452D02*
X026994Y008452D01*
X026994Y008551D02*
X028617Y008551D01*
X028617Y008649D02*
X026994Y008649D01*
X026994Y008748D02*
X028617Y008748D01*
X028617Y008846D02*
X026926Y008846D01*
X028617Y007270D02*
X024177Y007270D01*
X024177Y007172D02*
X028617Y007172D01*
X028617Y007073D02*
X024177Y007073D01*
X024177Y006975D02*
X028617Y006975D01*
X028617Y006876D02*
X024177Y006876D01*
X024147Y006778D02*
X028617Y006778D01*
X028617Y006679D02*
X024049Y006679D01*
X023950Y006581D02*
X028617Y006581D01*
X028551Y006482D02*
X023852Y006482D01*
X023753Y006384D02*
X028453Y006384D01*
X028354Y006285D02*
X023655Y006285D01*
X023556Y006187D02*
X028256Y006187D01*
X028157Y006088D02*
X023458Y006088D01*
X023359Y005990D02*
X028059Y005990D01*
X027960Y005891D02*
X023261Y005891D01*
X023162Y005793D02*
X027862Y005793D01*
X027763Y005694D02*
X023064Y005694D01*
X022965Y005596D02*
X027665Y005596D01*
X027566Y005497D02*
X022867Y005497D01*
X022897Y005527D02*
X022897Y005527D01*
X022768Y005399D02*
X027468Y005399D01*
X026187Y004118D02*
X005830Y004118D01*
X005929Y004020D02*
X026089Y004020D01*
X025990Y003921D02*
X006027Y003921D01*
X006126Y003823D02*
X025892Y003823D01*
X025793Y003724D02*
X006224Y003724D01*
X006323Y003626D02*
X025695Y003626D01*
X025596Y003527D02*
X006421Y003527D01*
X006520Y003429D02*
X025498Y003429D01*
X025399Y003330D02*
X006618Y003330D01*
X006717Y003232D02*
X025301Y003232D01*
X025202Y003133D02*
X006815Y003133D01*
X006914Y003035D02*
X025104Y003035D01*
X025005Y002936D02*
X007012Y002936D01*
X012502Y007566D02*
X012560Y007566D01*
X012560Y007664D02*
X012502Y007664D01*
X012502Y007763D02*
X012560Y007763D01*
X012801Y007566D02*
X013048Y007566D01*
X012967Y007664D02*
X012882Y007664D01*
X012924Y007763D02*
X012925Y007763D01*
X013289Y007763D02*
X013347Y007763D01*
X013347Y007664D02*
X013289Y007664D01*
X013289Y007566D02*
X013347Y007566D01*
X013588Y007566D02*
X013836Y007566D01*
X013754Y007664D02*
X013670Y007664D01*
X013711Y007763D02*
X013713Y007763D01*
X014077Y007763D02*
X014134Y007763D01*
X014134Y007664D02*
X014077Y007664D01*
X014077Y007566D02*
X014134Y007566D01*
X014375Y007566D02*
X014623Y007566D01*
X014542Y007664D02*
X014457Y007664D01*
X014499Y007763D02*
X014500Y007763D01*
X014864Y007763D02*
X014922Y007763D01*
X014922Y007664D02*
X014864Y007664D01*
X014864Y007566D02*
X014922Y007566D01*
X015163Y007566D02*
X015411Y007566D01*
X015329Y007664D02*
X015244Y007664D01*
X015286Y007763D02*
X015288Y007763D01*
X015652Y007763D02*
X015709Y007763D01*
X015709Y007664D02*
X015652Y007664D01*
X015652Y007566D02*
X015709Y007566D01*
X015950Y007566D02*
X016198Y007566D01*
X016116Y007664D02*
X016032Y007664D01*
X016073Y007763D02*
X016075Y007763D01*
X016800Y006285D02*
X021954Y006285D01*
X024612Y007566D02*
X024859Y007566D01*
X024774Y007664D02*
X024697Y007664D01*
X032497Y002842D02*
X032497Y001798D01*
X032503Y001795D01*
X032627Y001671D01*
X032648Y001620D01*
X032665Y001653D01*
X032706Y001709D01*
X032755Y001758D01*
X032811Y001798D01*
X032873Y001830D01*
X032938Y001851D01*
X032996Y001860D01*
X032996Y001467D01*
X033086Y001467D01*
X033086Y001860D01*
X033145Y001851D01*
X033210Y001830D01*
X033272Y001798D01*
X033328Y001758D01*
X033377Y001709D01*
X033418Y001653D01*
X033435Y001620D01*
X033456Y001671D01*
X033580Y001795D01*
X033741Y001862D01*
X033916Y001862D01*
X034078Y001795D01*
X034202Y001671D01*
X034223Y001621D01*
X034243Y001671D01*
X034367Y001795D01*
X034529Y001862D01*
X034704Y001862D01*
X034866Y001795D01*
X034989Y001671D01*
X035056Y001510D01*
X035056Y001335D01*
X034989Y001173D01*
X034919Y001102D01*
X038721Y001102D01*
X040562Y002942D01*
X040562Y003315D01*
X040472Y003315D01*
X040472Y002921D01*
X040414Y002931D01*
X040348Y002952D01*
X040286Y002984D01*
X040230Y003024D01*
X040181Y003073D01*
X040140Y003129D01*
X040109Y003191D01*
X040088Y003257D01*
X040078Y003315D01*
X040472Y003315D01*
X040472Y003405D01*
X040472Y003798D01*
X040472Y004102D01*
X040562Y004102D01*
X040562Y003405D01*
X040472Y003405D01*
X040078Y003405D01*
X040088Y003463D01*
X040109Y003529D01*
X040140Y003590D01*
X040181Y003646D01*
X040230Y003695D01*
X040286Y003736D01*
X040320Y003754D01*
X040286Y003771D01*
X040230Y003812D01*
X040181Y003861D01*
X040140Y003917D01*
X040109Y003978D01*
X040088Y004044D01*
X040078Y004102D01*
X040472Y004102D01*
X040472Y004192D01*
X040472Y004586D01*
X040472Y004890D01*
X040078Y004890D01*
X040088Y004832D01*
X040109Y004766D01*
X040140Y004704D01*
X040181Y004648D01*
X040230Y004599D01*
X040286Y004558D01*
X040320Y004541D01*
X040286Y004524D01*
X040230Y004483D01*
X040181Y004434D01*
X040140Y004378D01*
X040109Y004316D01*
X040088Y004250D01*
X040078Y004192D01*
X040472Y004192D01*
X040562Y004192D01*
X040562Y004890D01*
X040472Y004890D01*
X040472Y004980D01*
X040472Y005373D01*
X040472Y005677D01*
X040562Y005677D01*
X040562Y004980D01*
X040472Y004980D01*
X040078Y004980D01*
X040088Y005038D01*
X040109Y005104D01*
X040140Y005165D01*
X040181Y005221D01*
X040230Y005270D01*
X040246Y005282D01*
X040207Y005282D01*
X040169Y005292D01*
X040135Y005312D01*
X040107Y005340D01*
X040087Y005374D01*
X040077Y005412D01*
X040077Y005677D01*
X040472Y005677D01*
X040472Y005767D01*
X040077Y005767D01*
X040077Y006032D01*
X040087Y006070D01*
X040107Y006104D01*
X040135Y006132D01*
X040169Y006152D01*
X040207Y006162D01*
X040242Y006162D01*
X040184Y006219D01*
X037024Y006219D01*
X036881Y006076D01*
X036774Y006032D01*
X036659Y006032D01*
X036552Y006076D01*
X036537Y006092D01*
X035746Y006092D01*
X032497Y002842D01*
X032497Y002838D02*
X040457Y002838D01*
X040472Y002936D02*
X040555Y002936D01*
X040562Y003035D02*
X040472Y003035D01*
X040472Y003133D02*
X040562Y003133D01*
X040562Y003232D02*
X040472Y003232D01*
X040472Y003330D02*
X032984Y003330D01*
X032886Y003232D02*
X040096Y003232D01*
X040138Y003133D02*
X032787Y003133D01*
X032689Y003035D02*
X040220Y003035D01*
X040397Y002936D02*
X032590Y002936D01*
X032497Y002739D02*
X040358Y002739D01*
X040260Y002641D02*
X032497Y002641D01*
X032497Y002542D02*
X040161Y002542D01*
X040063Y002444D02*
X032497Y002444D01*
X032497Y002345D02*
X039964Y002345D01*
X039866Y002247D02*
X032497Y002247D01*
X032497Y002148D02*
X039767Y002148D01*
X039669Y002050D02*
X032497Y002050D01*
X032497Y001951D02*
X039570Y001951D01*
X039472Y001853D02*
X034727Y001853D01*
X034907Y001754D02*
X039373Y001754D01*
X039275Y001656D02*
X034996Y001656D01*
X035037Y001557D02*
X039176Y001557D01*
X039078Y001459D02*
X035056Y001459D01*
X035056Y001360D02*
X038979Y001360D01*
X038881Y001262D02*
X035026Y001262D01*
X034980Y001163D02*
X038782Y001163D01*
X040082Y003429D02*
X033083Y003429D01*
X033181Y003527D02*
X040108Y003527D01*
X040166Y003626D02*
X033280Y003626D01*
X033378Y003724D02*
X040269Y003724D01*
X040219Y003823D02*
X033477Y003823D01*
X033575Y003921D02*
X040138Y003921D01*
X040096Y004020D02*
X033674Y004020D01*
X033772Y004118D02*
X040472Y004118D01*
X040472Y004020D02*
X040562Y004020D01*
X040562Y003921D02*
X040472Y003921D01*
X040472Y003823D02*
X040562Y003823D01*
X040562Y003724D02*
X040472Y003724D01*
X040472Y003626D02*
X040562Y003626D01*
X040562Y003527D02*
X040472Y003527D01*
X040472Y003429D02*
X040562Y003429D01*
X040562Y004217D02*
X040472Y004217D01*
X040472Y004315D02*
X040562Y004315D01*
X040562Y004414D02*
X040472Y004414D01*
X040472Y004512D02*
X040562Y004512D01*
X040562Y004611D02*
X040472Y004611D01*
X040472Y004709D02*
X040562Y004709D01*
X040562Y004808D02*
X040472Y004808D01*
X040472Y004906D02*
X034560Y004906D01*
X034462Y004808D02*
X040095Y004808D01*
X040138Y004709D02*
X034363Y004709D01*
X034265Y004611D02*
X040218Y004611D01*
X040270Y004512D02*
X034166Y004512D01*
X034068Y004414D02*
X040166Y004414D01*
X040109Y004315D02*
X033969Y004315D01*
X033871Y004217D02*
X040082Y004217D01*
X040082Y005005D02*
X034659Y005005D01*
X034757Y005103D02*
X040109Y005103D01*
X040167Y005202D02*
X034856Y005202D01*
X034954Y005300D02*
X040155Y005300D01*
X040080Y005399D02*
X035053Y005399D01*
X035151Y005497D02*
X040077Y005497D01*
X040077Y005596D02*
X035250Y005596D01*
X035348Y005694D02*
X040472Y005694D01*
X040472Y005596D02*
X040562Y005596D01*
X040562Y005497D02*
X040472Y005497D01*
X040472Y005399D02*
X040562Y005399D01*
X040562Y005300D02*
X040472Y005300D01*
X040472Y005202D02*
X040562Y005202D01*
X040562Y005103D02*
X040472Y005103D01*
X040472Y005005D02*
X040562Y005005D01*
X040077Y005793D02*
X035447Y005793D01*
X035545Y005891D02*
X040077Y005891D01*
X040077Y005990D02*
X035644Y005990D01*
X035742Y006088D02*
X036541Y006088D01*
X036893Y006088D02*
X040097Y006088D01*
X040217Y006187D02*
X036991Y006187D01*
X034506Y001853D02*
X033939Y001853D01*
X034119Y001754D02*
X034326Y001754D01*
X034237Y001656D02*
X034208Y001656D01*
X033718Y001853D02*
X033136Y001853D01*
X033086Y001853D02*
X032996Y001853D01*
X032947Y001853D02*
X032497Y001853D01*
X032544Y001754D02*
X032751Y001754D01*
X032667Y001656D02*
X032634Y001656D01*
X032996Y001656D02*
X033086Y001656D01*
X033086Y001754D02*
X032996Y001754D01*
X032996Y001557D02*
X033086Y001557D01*
X033332Y001754D02*
X033539Y001754D01*
X033449Y001656D02*
X033416Y001656D01*
X027687Y029531D02*
X027152Y029531D01*
X033119Y030910D02*
X033687Y030910D01*
X034244Y030910D02*
X034244Y030910D01*
X034244Y030991D02*
X034244Y030605D01*
X034244Y030991D01*
X034244Y030812D02*
X034244Y030812D01*
X034244Y030713D02*
X034244Y030713D01*
X034244Y030615D02*
X034244Y030615D01*
X034244Y030605D02*
X034244Y030605D01*
X034244Y030605D01*
X034311Y030605D01*
X034559Y030605D01*
X034559Y030605D01*
X034244Y030605D01*
X034559Y030605D02*
X034559Y030991D01*
X034559Y030605D01*
X034559Y030605D01*
X034559Y030615D02*
X034559Y030615D01*
X034559Y030713D02*
X034559Y030713D01*
X034559Y030812D02*
X034559Y030812D01*
X034559Y030910D02*
X034559Y030910D01*
X035189Y030910D02*
X035189Y030910D01*
X035189Y030991D02*
X035189Y030605D01*
X035189Y030991D01*
X035189Y030812D02*
X035189Y030812D01*
X035189Y030713D02*
X035189Y030713D01*
X035189Y030615D02*
X035189Y030615D01*
X035189Y030605D02*
X035189Y030605D01*
X033504Y030319D02*
X033164Y030319D01*
X041217Y032289D02*
X001517Y032289D01*
X001517Y032388D02*
X041217Y032388D01*
D35*
X030867Y030822D03*
X002627Y030822D03*
X002627Y001832D03*
D36*
X023817Y020872D03*
X025817Y022872D03*
D37*
X023817Y020872D01*
D38*
X015767Y025422D02*
X015767Y026522D01*
X018517Y029272D01*
X013117Y023472D02*
X011767Y024772D01*
X005417Y024772D01*
X007019Y014272D02*
X010669Y010622D01*
X011067Y010622D01*
X011356Y010622D01*
X013318Y008659D01*
X014106Y008659D02*
X011793Y010972D01*
X011467Y010972D01*
X011106Y010972D01*
X007806Y014272D01*
X008594Y014272D02*
X011544Y011322D01*
X012017Y011322D01*
X012230Y011322D01*
X014893Y008659D01*
X015680Y008659D02*
X012668Y011672D01*
X012367Y011672D01*
X011981Y011672D01*
X009381Y014272D01*
X010169Y014272D02*
X012419Y012022D01*
X012967Y012022D01*
X014317Y012022D01*
X016867Y009472D01*
X016867Y008922D01*
X017647Y008922D02*
X017647Y009492D01*
X014767Y012372D01*
X013067Y012372D01*
X012856Y012372D01*
X010956Y014272D01*
X011743Y014272D02*
X013293Y012722D01*
X013567Y012722D01*
X013393Y012722D01*
X013567Y012722D02*
X015967Y012722D01*
X019217Y009472D01*
X019217Y008922D01*
X020017Y008922D02*
X020017Y009472D01*
X016417Y013072D01*
X014017Y013072D01*
X013731Y013072D01*
X012531Y014272D01*
X013318Y014272D02*
X014168Y013422D01*
X014268Y013422D02*
X016867Y013422D01*
X020805Y009484D01*
X020805Y008922D01*
X014017Y013072D02*
X013831Y013072D01*
X013067Y012372D02*
X012956Y012372D01*
X012967Y012022D02*
X012519Y012022D01*
X012367Y011672D02*
X012081Y011672D01*
X012017Y011322D02*
X011644Y011322D01*
X011467Y010972D02*
X011206Y010972D01*
X011067Y010622D02*
X010769Y010622D01*
X036617Y030587D02*
X038619Y030587D01*
X038801Y030406D01*
X039160Y030046D01*
D39*
X039160Y029298D02*
X039547Y029298D01*
X039817Y029028D01*
X039817Y028516D02*
X040210Y028516D01*
X040517Y028209D01*
X039817Y027978D02*
X039180Y027978D01*
X039160Y027998D01*
X039817Y027466D02*
X040473Y027466D01*
X040517Y027422D01*
X040517Y026635D02*
X040298Y026416D01*
X039817Y026416D01*
X039390Y026928D02*
X039160Y026698D01*
X039390Y026928D02*
X039817Y026928D01*
X039817Y025878D02*
X040486Y025878D01*
X040517Y025847D01*
X039817Y025366D02*
X039192Y025366D01*
X039160Y025398D01*
X038373Y025772D02*
X038367Y025766D01*
X027717Y019442D02*
X027717Y018978D01*
X027717Y019442D02*
X027710Y019448D01*
X026923Y019822D02*
X026717Y019616D01*
X026717Y019278D01*
X026717Y018766D02*
X026717Y018142D01*
X026691Y018116D01*
X026317Y017328D02*
X026273Y017284D01*
X026273Y016322D01*
X025761Y016322D02*
X025704Y016322D01*
X036717Y015322D02*
X040517Y011522D01*
X040517Y008872D01*
X040517Y008084D02*
X036717Y011884D01*
X036717Y012322D01*
X038935Y014210D02*
X037223Y015922D01*
X038935Y014210D02*
X040517Y014210D01*
X038491Y009322D02*
X036717Y009322D01*
X038491Y009322D02*
X040517Y007297D01*
X040517Y006509D02*
X036904Y006509D01*
X036717Y006322D01*
X029117Y002066D02*
X029104Y002054D01*
X029104Y001422D01*
X023766Y001422D02*
X023766Y002066D01*
X023767Y002066D01*
X012567Y022222D02*
X015217Y024872D01*
X015767Y025422D01*
X020667Y026478D02*
X020667Y028001D01*
X022617Y027982D02*
X022617Y026478D01*
X024617Y026478D02*
X024617Y027993D01*
D40*
X028767Y025832D02*
X030217Y025832D01*
X030467Y025582D01*
X030217Y025332D02*
X030467Y025082D01*
X030217Y025332D02*
X028767Y025332D01*
X028827Y024832D02*
X028717Y024722D01*
X028267Y024722D01*
X027967Y024472D02*
X028107Y024332D01*
X029067Y024332D01*
X029317Y024082D01*
X029467Y024082D01*
X029467Y024582D02*
X029217Y024832D01*
X028827Y024832D01*
X028397Y023832D02*
X030217Y023832D01*
X030467Y024082D01*
X030717Y023832D02*
X030467Y023582D01*
X030717Y023832D02*
X031767Y023832D01*
X031967Y024032D01*
X030467Y022582D02*
X030217Y022332D01*
X028477Y022332D01*
X028217Y022072D01*
X027847Y022072D01*
X028117Y022372D02*
X028327Y022582D01*
X028967Y022582D01*
X029217Y022832D02*
X028457Y022832D01*
X028317Y022972D01*
X028117Y023222D02*
X027967Y023072D01*
X028117Y023222D02*
X028617Y023222D01*
X028727Y023332D01*
X029217Y023332D01*
X029467Y023082D01*
X029217Y022832D02*
X029467Y022582D01*
X028967Y022082D02*
X028627Y022082D01*
X028367Y021822D01*
X027267Y021822D01*
X026867Y021422D01*
X028117Y021572D02*
X028517Y021572D01*
X028777Y021832D01*
X030217Y021832D01*
X030467Y022082D01*
X030717Y021722D02*
X030827Y021832D01*
X031667Y021832D01*
X031667Y021332D02*
X030827Y021332D01*
X030577Y021082D01*
X030467Y021082D01*
X030577Y021332D02*
X030717Y021472D01*
X030717Y021722D01*
X030577Y021332D02*
X029717Y021332D01*
X029467Y021582D01*
X029467Y021082D02*
X029717Y020832D01*
X031667Y020832D01*
X031667Y020332D02*
X030717Y020332D01*
X030467Y020582D01*
X029467Y020082D02*
X029217Y019832D01*
X028047Y019832D01*
X028427Y019332D02*
X028117Y019022D01*
X028117Y018722D01*
X027861Y018466D01*
X027717Y018466D01*
X028427Y019332D02*
X028767Y019332D01*
X029217Y019332D01*
X029467Y019582D01*
X030467Y019582D02*
X030717Y019332D01*
X031667Y019332D01*
X031667Y018832D02*
X030717Y018832D01*
X030467Y019082D01*
X030717Y018332D02*
X030467Y018082D01*
X030717Y018332D02*
X031667Y018332D01*
X031667Y017332D02*
X030717Y017332D01*
X030467Y017582D01*
X030467Y016582D02*
X030717Y016332D01*
X031667Y016332D01*
X031917Y015832D02*
X030717Y015832D01*
X030467Y016082D01*
X030467Y015082D02*
X030717Y014832D01*
X031917Y014832D01*
X031917Y014332D02*
X030717Y014332D01*
X030467Y014582D01*
X023947Y008122D02*
X023947Y007622D01*
X023167Y007622D02*
X023167Y008122D01*
X022367Y008072D02*
X022367Y007622D01*
X022367Y007472D01*
X021467Y008272D02*
X020955Y008272D01*
X020805Y008422D01*
X020805Y008922D01*
X020017Y008922D02*
X020017Y008422D01*
X019217Y008422D02*
X019217Y008922D01*
X017647Y008922D02*
X017647Y008422D01*
X017255Y007872D02*
X016867Y008261D01*
X016867Y008922D01*
X018436Y013972D02*
X018436Y015372D01*
X019217Y015372D02*
X019217Y013972D01*
X020017Y013972D02*
X020017Y015372D01*
X020807Y014522D02*
X020807Y013972D01*
X028417Y023532D02*
X028467Y023582D01*
X028967Y023582D01*
D41*
X030402Y022082D02*
X030467Y022082D01*
D42*
X027072Y029272D02*
X018517Y029272D01*
M02*
