%
M48
M72
T01C0.0236
T02C0.0300
T03C0.0433
T04C0.0472
T05C0.0512
T06C0.0780
T07C0.1250
%
T01
X23600Y17500
X21200Y18700
X21000Y22100
X20500Y23200
X27800Y19700
X30400Y20500
X28200Y22600
T02
X38300Y18100
T03
X37831Y16521
X39800Y15537
X37831Y14553
X39800Y13569
X37831Y12584
X39800Y11600
X4769Y15647
X2800Y16631
X4769Y17616
X2800Y18600
T04
X8300Y19600
X14300Y19600
X32300Y17600
X32300Y23600
T05
X33206Y13576
X33206Y10624
X27300Y10624
X25331Y10624
X23363Y10624
X23363Y13576
X25331Y13576
X27300Y13576
T06
X19300Y12100
X19300Y5600
X23300Y5600
X40300Y5600
X2300Y5600
X2300Y12100
T07
X1550Y1350
X1552Y23350
X40800Y1350
X41300Y23350
M30
