G75*
%MOIN*%
%OFA0B0*%
%FSLAX24Y24*%
%IPPOS*%
%LPD*%
%AMOC8*
5,1,8,0,0,1.08239X$1,22.5*
%
%ADD10R,0.0100X0.0050*%
%ADD11R,0.0500X0.0050*%
%ADD12R,0.2000X0.0050*%
%ADD13R,0.4300X0.0050*%
%ADD14R,0.0550X0.0050*%
%ADD15R,0.6550X0.0050*%
%ADD16R,0.8800X0.0050*%
%ADD17R,1.1100X0.0050*%
%ADD18R,1.3350X0.0050*%
%ADD19R,1.5650X0.0050*%
%ADD20R,1.7900X0.0050*%
%ADD21R,2.0150X0.0050*%
%ADD22R,2.2400X0.0050*%
%ADD23R,0.0600X0.0050*%
%ADD24R,0.0650X0.0050*%
%ADD25R,1.4900X0.0050*%
%ADD26R,1.4850X0.0050*%
%ADD27R,0.0950X0.0050*%
%ADD28R,0.6250X0.0050*%
%ADD29R,0.1500X0.0050*%
%ADD30R,0.2700X0.0050*%
%ADD31R,0.1900X0.0050*%
%ADD32R,0.1050X0.0050*%
%ADD33R,0.0850X0.0050*%
%ADD34R,0.1150X0.0050*%
%ADD35R,0.1300X0.0050*%
%ADD36R,0.0900X0.0050*%
%ADD37R,0.0800X0.0050*%
%ADD38R,0.1200X0.0050*%
%ADD39R,0.0050X0.0050*%
%ADD40R,0.0750X0.0050*%
%ADD41R,0.1000X0.0050*%
%ADD42R,0.0700X0.0050*%
%ADD43R,0.1250X0.0050*%
%ADD44R,0.1350X0.0050*%
%ADD45R,0.1400X0.0050*%
%ADD46R,0.0300X0.0050*%
%ADD47R,0.1450X0.0050*%
%ADD48R,0.1750X0.0050*%
%ADD49R,1.1950X0.0050*%
%ADD50R,0.0350X0.0050*%
%ADD51R,0.1600X0.0050*%
%ADD52R,0.1650X0.0050*%
%ADD53R,0.1700X0.0050*%
%ADD54R,0.1100X0.0050*%
%ADD55R,0.2050X0.0050*%
%ADD56R,1.2000X0.0050*%
%ADD57R,0.2100X0.0050*%
%ADD58R,0.2150X0.0050*%
%ADD59R,0.0150X0.0050*%
%ADD60R,0.0400X0.0050*%
%ADD61R,0.0450X0.0050*%
%ADD62R,0.0250X0.0050*%
%ADD63R,0.0200X0.0050*%
%ADD64R,0.1950X0.0050*%
%ADD65R,0.1850X0.0050*%
%ADD66R,0.2200X0.0050*%
%ADD67R,0.1550X0.0050*%
%ADD68C,0.0010*%
%ADD69C,0.0060*%
D10*
X015875Y017250D03*
X015525Y018750D03*
X015525Y018800D03*
X015525Y018850D03*
X015525Y018900D03*
X015525Y018950D03*
X015475Y019050D03*
X015475Y019100D03*
X015475Y019150D03*
X015475Y019200D03*
X016475Y019200D03*
X016475Y019150D03*
X016475Y019100D03*
X016475Y019050D03*
X017475Y019200D03*
X017525Y018800D03*
X017525Y018750D03*
X019275Y018850D03*
X019325Y018800D03*
X019275Y019100D03*
X019275Y019150D03*
X019275Y019200D03*
X020275Y019200D03*
X020275Y019150D03*
X020275Y019100D03*
X020325Y019000D03*
X020325Y018950D03*
X020325Y018900D03*
X020325Y018850D03*
X020325Y018800D03*
X021925Y018800D03*
X021925Y018750D03*
X021875Y019200D03*
X023625Y019300D03*
X023625Y019350D03*
X023625Y019400D03*
X023675Y019150D03*
X023675Y019100D03*
X023675Y019050D03*
X023675Y019000D03*
X023675Y018950D03*
X023675Y018900D03*
X023675Y018850D03*
X026175Y019300D03*
X026175Y019350D03*
X026175Y019400D03*
X026275Y018750D03*
X026275Y018700D03*
X026275Y018650D03*
X026275Y018600D03*
X027325Y018600D03*
X027325Y018650D03*
X027325Y018700D03*
X028325Y018750D03*
X028325Y018800D03*
X030225Y020300D03*
X030225Y020450D03*
X030175Y020550D03*
X030275Y021300D03*
X034225Y021450D03*
X034225Y021500D03*
X034275Y021200D03*
X034275Y021150D03*
X034275Y021100D03*
X034275Y021050D03*
X039825Y020500D03*
D11*
X041175Y020250D03*
X038075Y021150D03*
X031125Y020250D03*
X029725Y020250D03*
X029625Y021250D03*
X029625Y021300D03*
X029575Y021350D03*
X030225Y021600D03*
X030225Y021650D03*
X017275Y017300D03*
X017175Y017350D03*
X017075Y017400D03*
X016425Y017700D03*
X016325Y017750D03*
X016225Y017800D03*
X015875Y017350D03*
X015975Y017300D03*
X015225Y017650D03*
X015125Y017700D03*
X015025Y017750D03*
X014925Y017800D03*
D12*
X015275Y020000D03*
X015175Y021850D03*
X015125Y021950D03*
X019225Y017350D03*
X024925Y020700D03*
D13*
X020275Y017400D03*
D14*
X018800Y018700D03*
X018800Y018750D03*
X018750Y019150D03*
X019800Y019050D03*
X019800Y019000D03*
X019800Y018950D03*
X019800Y018900D03*
X022450Y018800D03*
X022450Y018750D03*
X023200Y018750D03*
X023200Y018700D03*
X023150Y019050D03*
X023150Y019100D03*
X023150Y019150D03*
X023150Y019200D03*
X024200Y018700D03*
X024200Y018650D03*
X026800Y018600D03*
X027800Y018750D03*
X027800Y018800D03*
X027850Y018650D03*
X031100Y020300D03*
X031100Y020350D03*
X031100Y020400D03*
X031100Y020450D03*
X031100Y020500D03*
X029650Y021200D03*
X038050Y021200D03*
X038050Y021250D03*
X038050Y021300D03*
X016950Y017450D03*
X016850Y017500D03*
X016750Y017550D03*
X016650Y017600D03*
X016550Y017650D03*
X015750Y017400D03*
X015650Y017450D03*
X015550Y017500D03*
X015450Y017550D03*
X015350Y017600D03*
X016000Y019000D03*
X016000Y019050D03*
X016000Y019100D03*
X015950Y019200D03*
X015950Y019250D03*
D15*
X021300Y017450D03*
D16*
X022325Y017500D03*
D17*
X023325Y017550D03*
D18*
X024350Y017600D03*
D19*
X025400Y017650D03*
D20*
X026425Y017700D03*
D21*
X027450Y017750D03*
D22*
X028475Y017800D03*
D23*
X027875Y018600D03*
X027825Y018700D03*
X027775Y018850D03*
X026775Y018850D03*
X026775Y018900D03*
X026775Y018950D03*
X026775Y019000D03*
X026775Y018800D03*
X026775Y018750D03*
X026775Y018700D03*
X026775Y018650D03*
X024175Y018600D03*
X023225Y018650D03*
X023175Y018800D03*
X023175Y018850D03*
X023175Y018900D03*
X023175Y018950D03*
X023175Y019000D03*
X023125Y019250D03*
X023125Y019300D03*
X023125Y019350D03*
X023125Y019400D03*
X022375Y019300D03*
X022375Y019250D03*
X022375Y019200D03*
X022375Y019150D03*
X022375Y019100D03*
X022375Y019050D03*
X022425Y018700D03*
X022425Y018650D03*
X019875Y018650D03*
X019875Y018600D03*
X019825Y018700D03*
X019825Y018750D03*
X019825Y018800D03*
X019825Y018850D03*
X019775Y019100D03*
X019775Y019150D03*
X019775Y019200D03*
X019775Y019250D03*
X019775Y019300D03*
X019775Y019350D03*
X018775Y019100D03*
X018775Y019050D03*
X018775Y018950D03*
X018775Y018900D03*
X018775Y018850D03*
X018775Y018800D03*
X018825Y018650D03*
X018725Y019200D03*
X018725Y019250D03*
X017975Y019250D03*
X017975Y019300D03*
X017975Y019200D03*
X017975Y019150D03*
X017975Y019100D03*
X017975Y019050D03*
X018025Y018800D03*
X018025Y018750D03*
X018025Y018700D03*
X018025Y018650D03*
X017075Y018600D03*
X017025Y018650D03*
X017025Y018700D03*
X017025Y018750D03*
X017025Y018800D03*
X017025Y018850D03*
X017025Y018900D03*
X017025Y018950D03*
X016975Y019200D03*
X016975Y019250D03*
X016975Y019300D03*
X016975Y019350D03*
X015975Y019300D03*
X015975Y019150D03*
X016025Y018950D03*
X029675Y021150D03*
X030225Y021700D03*
X031525Y021750D03*
X031225Y019600D03*
X031225Y019550D03*
X031225Y019500D03*
X031225Y019450D03*
X031225Y019400D03*
X031275Y019200D03*
X031275Y019150D03*
X031275Y019100D03*
X031275Y019050D03*
X031275Y019000D03*
X030675Y018650D03*
X030675Y018600D03*
X030675Y018550D03*
X030675Y018500D03*
X030675Y018450D03*
X030625Y018900D03*
X029925Y019150D03*
X029925Y019200D03*
X029925Y019250D03*
X029925Y019300D03*
X029925Y019350D03*
X029875Y019550D03*
X029875Y019600D03*
X031975Y018900D03*
X031975Y018850D03*
X031975Y018800D03*
X031975Y018750D03*
X032025Y018550D03*
X032025Y018500D03*
X032025Y018450D03*
X032025Y018400D03*
X032025Y018350D03*
X032625Y019000D03*
X032625Y019050D03*
X032625Y019100D03*
X032575Y019300D03*
X032575Y019350D03*
X032575Y019400D03*
X032575Y019450D03*
X032575Y019500D03*
X033325Y018800D03*
X033325Y018750D03*
X033325Y018700D03*
X033325Y018650D03*
X033325Y018600D03*
X033375Y018400D03*
X033375Y018350D03*
X033925Y019150D03*
X033925Y019200D03*
X033925Y019250D03*
X033925Y019300D03*
X033925Y019350D03*
X033875Y019550D03*
X033875Y019600D03*
X034625Y018900D03*
X034675Y018700D03*
X034675Y018650D03*
X034675Y018600D03*
X034675Y018550D03*
X034675Y018500D03*
X035275Y019000D03*
X035275Y019050D03*
X035275Y019100D03*
X035275Y019150D03*
X035275Y019200D03*
X035275Y019250D03*
X035225Y019450D03*
X035225Y019500D03*
X035225Y019550D03*
X035225Y019600D03*
X035975Y018900D03*
X035975Y018850D03*
X035975Y018800D03*
X035975Y018750D03*
X036025Y018550D03*
X036025Y018500D03*
X036025Y018450D03*
X036025Y018400D03*
X036025Y018350D03*
X036625Y019000D03*
X036625Y019050D03*
X036625Y019100D03*
X036575Y019300D03*
X036575Y019350D03*
X036575Y019400D03*
X036575Y019450D03*
X036575Y019500D03*
X037325Y018850D03*
X037325Y018800D03*
X037325Y018750D03*
X037325Y018700D03*
X037325Y018650D03*
X037375Y018450D03*
X037375Y018400D03*
X037375Y018350D03*
X037925Y019150D03*
X037925Y019200D03*
X037925Y019250D03*
X037925Y019300D03*
X037925Y019350D03*
X037875Y019550D03*
X037875Y019600D03*
X038625Y018900D03*
X038675Y018700D03*
X038675Y018650D03*
X038675Y018600D03*
X038675Y018550D03*
X038675Y018500D03*
X039275Y019000D03*
X039275Y019050D03*
X039275Y019100D03*
X039275Y019150D03*
X039275Y019200D03*
X039225Y019450D03*
X039225Y019500D03*
X039225Y019550D03*
X039225Y019600D03*
X039975Y018900D03*
X039975Y018850D03*
X039975Y018800D03*
X039975Y018750D03*
X040025Y018550D03*
X040025Y018500D03*
X040025Y018450D03*
X040025Y018400D03*
X040025Y018350D03*
X040625Y019000D03*
X040625Y019050D03*
X040625Y019100D03*
X040575Y019300D03*
X040575Y019350D03*
X040575Y019400D03*
X040575Y019450D03*
X040575Y019500D03*
X041325Y018850D03*
X041325Y018800D03*
X041325Y018750D03*
X041325Y018700D03*
X041325Y018650D03*
X041325Y018600D03*
X041375Y018400D03*
X041375Y018350D03*
X039075Y020650D03*
X039475Y021550D03*
X039475Y021600D03*
X038075Y021500D03*
X038075Y021450D03*
X038075Y021400D03*
X038075Y021350D03*
D24*
X038100Y021550D03*
X039450Y021650D03*
X039100Y020600D03*
X039100Y020550D03*
X039250Y019400D03*
X039250Y019350D03*
X039250Y019300D03*
X039250Y019250D03*
X038650Y018850D03*
X038650Y018800D03*
X038650Y018750D03*
X038700Y018450D03*
X038700Y018400D03*
X038700Y018350D03*
X037950Y019000D03*
X037950Y019050D03*
X037950Y019100D03*
X037900Y019400D03*
X037900Y019450D03*
X037900Y019500D03*
X037300Y018900D03*
X037350Y018600D03*
X037350Y018550D03*
X037350Y018500D03*
X036600Y019150D03*
X036600Y019200D03*
X036600Y019250D03*
X036550Y019550D03*
X036550Y019600D03*
X035250Y019400D03*
X035250Y019350D03*
X035250Y019300D03*
X034650Y018850D03*
X034650Y018800D03*
X034650Y018750D03*
X034700Y018450D03*
X034700Y018400D03*
X034700Y018350D03*
X033950Y019000D03*
X033950Y019050D03*
X033950Y019100D03*
X033900Y019400D03*
X033900Y019450D03*
X033900Y019500D03*
X033300Y018900D03*
X033300Y018850D03*
X033350Y018550D03*
X033350Y018500D03*
X033350Y018450D03*
X032600Y019150D03*
X032600Y019200D03*
X032600Y019250D03*
X032550Y019550D03*
X032550Y019600D03*
X031250Y019350D03*
X031250Y019300D03*
X031250Y019250D03*
X030650Y018850D03*
X030650Y018800D03*
X030650Y018750D03*
X030650Y018700D03*
X030700Y018400D03*
X030700Y018350D03*
X029950Y019000D03*
X029950Y019050D03*
X029950Y019100D03*
X029900Y019400D03*
X029900Y019450D03*
X029900Y019500D03*
X027800Y018950D03*
X027800Y018900D03*
X027700Y019200D03*
X027700Y019250D03*
X027700Y019300D03*
X026750Y019050D03*
X023250Y018600D03*
X022450Y018600D03*
X022350Y019350D03*
X019800Y019400D03*
X018750Y019350D03*
X018750Y019300D03*
X018800Y019000D03*
X018850Y018600D03*
X018000Y018600D03*
X017050Y019000D03*
X017000Y019400D03*
X015950Y019350D03*
X016050Y018900D03*
X017950Y019350D03*
X029700Y021050D03*
X029700Y021100D03*
X030200Y021750D03*
X032000Y018700D03*
X032000Y018650D03*
X032000Y018600D03*
X036000Y018600D03*
X036000Y018650D03*
X036000Y018700D03*
X040000Y018700D03*
X040000Y018650D03*
X040000Y018600D03*
X040600Y019150D03*
X040600Y019200D03*
X040600Y019250D03*
X040550Y019550D03*
X040550Y019600D03*
X041300Y018900D03*
X041350Y018550D03*
X041350Y018500D03*
X041350Y018450D03*
D25*
X021925Y018400D03*
X021925Y018350D03*
X021775Y019500D03*
X021775Y019550D03*
X021775Y019600D03*
D26*
X021800Y019450D03*
X021900Y018500D03*
X021900Y018450D03*
D27*
X024750Y021950D03*
X028800Y018900D03*
X028850Y018550D03*
X031450Y021200D03*
X031450Y021250D03*
X040050Y020850D03*
X014850Y019400D03*
D28*
X025150Y018550D03*
D29*
X021125Y018550D03*
D30*
X018975Y018550D03*
D31*
X016525Y018550D03*
X015225Y019950D03*
X015075Y022050D03*
X024925Y020800D03*
X028125Y020900D03*
D32*
X031400Y021000D03*
X031400Y021050D03*
X034800Y020600D03*
X034800Y020550D03*
X034800Y020500D03*
X034800Y020450D03*
X039950Y021100D03*
X039950Y021150D03*
X040000Y021000D03*
X024750Y021850D03*
X018550Y022150D03*
X017600Y020000D03*
X017600Y019950D03*
X015000Y018550D03*
D33*
X014900Y018650D03*
X014900Y018700D03*
X014850Y018850D03*
X014850Y018900D03*
X014850Y018950D03*
X014850Y019000D03*
X014850Y019050D03*
X016150Y018800D03*
X016150Y018750D03*
X016150Y018700D03*
X016150Y018650D03*
X017100Y019150D03*
X017800Y020300D03*
X017800Y020350D03*
X017850Y020400D03*
X017850Y020450D03*
X017850Y020500D03*
X017900Y020550D03*
X017900Y020600D03*
X017900Y020650D03*
X017950Y020700D03*
X017950Y020750D03*
X018000Y020850D03*
X018000Y020900D03*
X018050Y021000D03*
X018050Y021050D03*
X018100Y021150D03*
X018100Y021200D03*
X018150Y021300D03*
X018150Y021350D03*
X018200Y021450D03*
X018200Y021500D03*
X018250Y021600D03*
X018250Y021650D03*
X018300Y021750D03*
X018300Y021800D03*
X014650Y020250D03*
X022600Y020250D03*
X024150Y019950D03*
X024150Y019900D03*
X024200Y020100D03*
X024200Y020150D03*
X024250Y020300D03*
X024300Y020450D03*
X024300Y020500D03*
X024400Y020900D03*
X024450Y021100D03*
X024500Y021250D03*
X024500Y021300D03*
X024550Y021450D03*
X024550Y021500D03*
X024600Y021650D03*
X027250Y021250D03*
X027450Y020400D03*
X027400Y020250D03*
X027400Y020200D03*
X027350Y020100D03*
X027350Y020050D03*
X027300Y019950D03*
X027300Y019900D03*
X027850Y019150D03*
X027850Y019100D03*
X028800Y019400D03*
X028850Y019050D03*
X028850Y019000D03*
X028900Y018600D03*
X031450Y021300D03*
X031450Y021350D03*
X039150Y020300D03*
X040100Y020650D03*
X040100Y020700D03*
D34*
X039900Y021250D03*
X039900Y021300D03*
X039800Y021500D03*
X034750Y020300D03*
X031400Y020550D03*
X031400Y020600D03*
X031400Y020650D03*
X025400Y019200D03*
X025400Y019150D03*
X025400Y019100D03*
X025400Y019050D03*
X025400Y019000D03*
X025400Y018950D03*
X025400Y018900D03*
X025450Y018800D03*
X025450Y018750D03*
X025450Y018700D03*
X025450Y018650D03*
X025450Y018600D03*
X025350Y019300D03*
X025350Y019350D03*
X025350Y019400D03*
X018500Y021850D03*
X018500Y021900D03*
X018500Y021950D03*
X017600Y020200D03*
X017600Y020150D03*
X017600Y020100D03*
D35*
X021175Y019050D03*
X021125Y018600D03*
D36*
X016125Y018600D03*
X014925Y018600D03*
X014875Y018750D03*
X014875Y018800D03*
X014825Y019100D03*
X014825Y019150D03*
X014825Y019200D03*
X014825Y019250D03*
X014825Y019300D03*
X014825Y019350D03*
X024725Y022000D03*
X024725Y022050D03*
X028825Y018950D03*
X039125Y020250D03*
X040075Y020750D03*
X040075Y020800D03*
D37*
X040125Y020600D03*
X040125Y020550D03*
X039125Y020400D03*
X039125Y020350D03*
X036325Y020250D03*
X036275Y020450D03*
X036275Y020500D03*
X031475Y021400D03*
X031475Y021450D03*
X029825Y020800D03*
X029825Y020750D03*
X029825Y020700D03*
X029825Y020650D03*
X029825Y020600D03*
X028725Y020500D03*
X028725Y020450D03*
X028725Y020400D03*
X028725Y020350D03*
X028775Y020100D03*
X028775Y020050D03*
X028775Y020000D03*
X028775Y019950D03*
X028825Y019350D03*
X028825Y019300D03*
X028875Y019200D03*
X028875Y019150D03*
X028875Y019100D03*
X028925Y018800D03*
X028925Y018750D03*
X028925Y018700D03*
X028925Y018650D03*
X027825Y019050D03*
X027725Y019400D03*
X027325Y020000D03*
X027375Y020150D03*
X027425Y020300D03*
X027425Y020350D03*
X027475Y020450D03*
X027475Y020500D03*
X027475Y020550D03*
X027525Y020600D03*
X027525Y020650D03*
X027525Y020700D03*
X027575Y020800D03*
X027575Y020850D03*
X027225Y021300D03*
X027175Y021500D03*
X027175Y021550D03*
X027175Y021600D03*
X027175Y021650D03*
X028575Y021650D03*
X028575Y021700D03*
X028575Y021600D03*
X028575Y021550D03*
X028625Y021300D03*
X028625Y021250D03*
X028675Y020850D03*
X028675Y020800D03*
X024725Y022100D03*
X024725Y022150D03*
X024575Y021600D03*
X024575Y021550D03*
X024525Y021400D03*
X024525Y021350D03*
X024475Y021200D03*
X024475Y021150D03*
X024425Y021050D03*
X024425Y021000D03*
X024425Y020950D03*
X024275Y020400D03*
X024275Y020350D03*
X024225Y020250D03*
X024225Y020200D03*
X024175Y020050D03*
X024175Y020000D03*
X024225Y019400D03*
X024225Y019350D03*
X024275Y019050D03*
X024275Y019000D03*
X024275Y018950D03*
X022325Y018900D03*
X022325Y018850D03*
X020275Y019900D03*
X020275Y019950D03*
X020275Y020000D03*
X020275Y020050D03*
X020225Y020300D03*
X020225Y020350D03*
X020225Y020400D03*
X020225Y020450D03*
X020175Y020700D03*
X020175Y020750D03*
X020175Y020800D03*
X020175Y020850D03*
X020125Y021100D03*
X020125Y021150D03*
X020125Y021200D03*
X020125Y021250D03*
X020075Y021550D03*
X020075Y021600D03*
X020075Y021650D03*
X020075Y021700D03*
X020025Y021950D03*
X020025Y022000D03*
X020025Y022050D03*
X020025Y022100D03*
X018275Y021700D03*
X018225Y021550D03*
X018175Y021400D03*
X018125Y021250D03*
X018075Y021100D03*
X018025Y020950D03*
X017975Y020800D03*
X015975Y020750D03*
X015975Y020700D03*
X015925Y021100D03*
X015925Y021150D03*
X015875Y021500D03*
X015875Y021550D03*
X015875Y021600D03*
X014575Y020750D03*
X014575Y020700D03*
X014575Y020650D03*
X014575Y020600D03*
X014625Y020350D03*
X014625Y020300D03*
X015975Y020250D03*
X017075Y019100D03*
X017925Y018900D03*
X017925Y018850D03*
X016125Y018850D03*
X022575Y021050D03*
X022575Y021100D03*
X022575Y021150D03*
X022525Y021450D03*
X022525Y021500D03*
X022525Y021550D03*
X022525Y021600D03*
X022475Y021800D03*
X022625Y020750D03*
X022625Y020700D03*
X022625Y020650D03*
X022675Y020350D03*
D38*
X021075Y019300D03*
X021075Y019250D03*
X021075Y019200D03*
X021125Y018950D03*
X021125Y018900D03*
X021125Y018850D03*
X021125Y018800D03*
X021125Y018750D03*
X021125Y018700D03*
X021125Y018650D03*
X017625Y020250D03*
X014775Y020950D03*
X014725Y021050D03*
X014725Y021100D03*
X014725Y021150D03*
X014725Y021200D03*
X024775Y021700D03*
X025375Y019250D03*
X025425Y018850D03*
X031375Y020700D03*
X031375Y020750D03*
X031375Y020800D03*
X031375Y020850D03*
X039825Y021450D03*
X039875Y021400D03*
X039875Y021350D03*
D39*
X039000Y021300D03*
X039000Y021250D03*
X039850Y020450D03*
X039850Y020400D03*
X039900Y020350D03*
X039900Y020300D03*
X039900Y020250D03*
X030250Y020350D03*
X030250Y020400D03*
X030200Y020500D03*
X030250Y021250D03*
X028250Y019250D03*
X028250Y019200D03*
X027300Y018750D03*
X026300Y018800D03*
X026300Y018850D03*
X026150Y019050D03*
X026150Y019100D03*
X026150Y019150D03*
X026150Y019200D03*
X026150Y019250D03*
X023700Y018800D03*
X023700Y018750D03*
X023650Y019200D03*
X023650Y019250D03*
X021850Y019250D03*
X020300Y019050D03*
X020350Y018750D03*
X019350Y018750D03*
X019300Y018900D03*
X017450Y019250D03*
X016500Y019250D03*
X015500Y019000D03*
D40*
X015950Y019400D03*
X016000Y020300D03*
X016000Y020350D03*
X016000Y020400D03*
X016000Y020450D03*
X016000Y020500D03*
X016000Y020550D03*
X016000Y020600D03*
X016000Y020650D03*
X015950Y020800D03*
X015950Y020850D03*
X015950Y020900D03*
X015950Y020950D03*
X015950Y021000D03*
X015950Y021050D03*
X015900Y021200D03*
X015900Y021250D03*
X015900Y021300D03*
X015900Y021350D03*
X015900Y021400D03*
X015900Y021450D03*
X015850Y021650D03*
X015850Y021700D03*
X015850Y021750D03*
X015800Y021800D03*
X014550Y020900D03*
X014550Y020850D03*
X014550Y020800D03*
X014600Y020550D03*
X014600Y020500D03*
X014600Y020450D03*
X014600Y020400D03*
X017050Y019050D03*
X017950Y018950D03*
X020250Y020100D03*
X020250Y020150D03*
X020250Y020200D03*
X020250Y020250D03*
X020200Y020500D03*
X020200Y020550D03*
X020200Y020600D03*
X020200Y020650D03*
X020150Y020900D03*
X020150Y020950D03*
X020150Y021000D03*
X020150Y021050D03*
X020100Y021300D03*
X020100Y021350D03*
X020100Y021400D03*
X020100Y021450D03*
X020100Y021500D03*
X020050Y021750D03*
X020050Y021800D03*
X020050Y021850D03*
X020050Y021900D03*
X020000Y022150D03*
X022500Y021750D03*
X022500Y021700D03*
X022500Y021650D03*
X022550Y021400D03*
X022550Y021350D03*
X022550Y021300D03*
X022550Y021250D03*
X022550Y021200D03*
X022600Y021000D03*
X022600Y020950D03*
X022600Y020900D03*
X022600Y020850D03*
X022600Y020800D03*
X022650Y020600D03*
X022650Y020550D03*
X022650Y020500D03*
X022650Y020450D03*
X022650Y020400D03*
X022650Y020300D03*
X024250Y019300D03*
X024250Y019250D03*
X024250Y019200D03*
X024250Y019150D03*
X024250Y019100D03*
X024300Y018900D03*
X024300Y018850D03*
X024300Y018800D03*
X024300Y018750D03*
X022350Y018950D03*
X027200Y021350D03*
X027200Y021400D03*
X027200Y021450D03*
X027150Y021700D03*
X027150Y021750D03*
X027150Y021800D03*
X027550Y020750D03*
X028700Y020750D03*
X028700Y020700D03*
X028700Y020650D03*
X028700Y020600D03*
X028700Y020550D03*
X028750Y020300D03*
X028750Y020250D03*
X028750Y020200D03*
X028750Y020150D03*
X028800Y019900D03*
X027700Y019350D03*
X028850Y019250D03*
X029800Y020850D03*
X029750Y020950D03*
X028600Y021350D03*
X028600Y021400D03*
X028600Y021450D03*
X028600Y021500D03*
X028550Y021750D03*
X028550Y021800D03*
X031500Y021550D03*
X031500Y021500D03*
X036300Y020400D03*
X036300Y020350D03*
X036300Y020300D03*
X038100Y021700D03*
X038100Y021750D03*
X039100Y020450D03*
D41*
X040025Y020900D03*
X040025Y020950D03*
X039975Y021050D03*
X034775Y020750D03*
X034775Y020700D03*
X034775Y020650D03*
X031425Y021100D03*
X031425Y021150D03*
X028775Y018850D03*
X024775Y021900D03*
D42*
X026775Y019400D03*
X026775Y019350D03*
X026775Y019300D03*
X026775Y019250D03*
X026775Y019200D03*
X026775Y019150D03*
X026775Y019100D03*
X027825Y019000D03*
X029775Y020900D03*
X029725Y021000D03*
X031525Y021600D03*
X031525Y021650D03*
X031525Y021700D03*
X038075Y021650D03*
X038075Y021600D03*
X039425Y021700D03*
X039425Y021750D03*
X039125Y020500D03*
X022375Y019000D03*
X022325Y019400D03*
X018775Y019400D03*
X017925Y019400D03*
X017975Y019000D03*
D43*
X021050Y019350D03*
X021150Y019000D03*
X014750Y021000D03*
X034700Y020250D03*
D44*
X021200Y019100D03*
X021050Y019400D03*
D45*
X021225Y019150D03*
X036525Y020950D03*
X036525Y021000D03*
X036525Y021050D03*
X036525Y021100D03*
X036525Y021150D03*
X036525Y021200D03*
X036475Y021350D03*
X036475Y021400D03*
X036475Y021450D03*
X036475Y021500D03*
X036475Y021550D03*
X036475Y021600D03*
X036425Y021750D03*
X036575Y020800D03*
X036575Y020750D03*
X036575Y020700D03*
X036575Y020650D03*
X036575Y020600D03*
X036575Y020550D03*
D46*
X035075Y021100D03*
X035075Y021150D03*
X035075Y021200D03*
X035025Y021500D03*
X034175Y021700D03*
X033375Y021500D03*
X034425Y020800D03*
X033525Y020550D03*
X032775Y020300D03*
X030225Y021450D03*
X029475Y021650D03*
X029425Y021750D03*
X026225Y019900D03*
X026075Y020150D03*
X026025Y020250D03*
X025875Y020500D03*
X025625Y020950D03*
X025575Y021050D03*
X025425Y021300D03*
X025375Y021400D03*
X025325Y021500D03*
X025275Y021600D03*
X025225Y021650D03*
X019175Y020000D03*
X019175Y019950D03*
X019125Y020150D03*
X019125Y020200D03*
X019125Y020250D03*
X019125Y020300D03*
X019125Y020350D03*
X019125Y020400D03*
X019125Y020450D03*
X019075Y020550D03*
X019075Y020600D03*
X019075Y020650D03*
X019075Y020700D03*
X019075Y020750D03*
X019075Y020800D03*
X019075Y020850D03*
X019025Y020950D03*
X019025Y021000D03*
X019025Y021050D03*
X019025Y021100D03*
X019025Y021150D03*
X019025Y021200D03*
X019025Y021250D03*
X018975Y021350D03*
X018975Y021400D03*
X018975Y021450D03*
X018975Y021500D03*
X018975Y021550D03*
X018975Y021600D03*
X018975Y021650D03*
X018925Y021750D03*
X018925Y021800D03*
X017075Y021200D03*
X017075Y021150D03*
X017075Y021100D03*
X017075Y021050D03*
X017075Y021000D03*
X017125Y020800D03*
X017125Y020750D03*
X017125Y020700D03*
X017125Y020650D03*
X017125Y020600D03*
X017175Y020400D03*
X017175Y020350D03*
X017175Y020300D03*
X017025Y021450D03*
X017025Y021500D03*
X017025Y021550D03*
X017025Y021600D03*
X016975Y021850D03*
X016975Y021900D03*
X016975Y021950D03*
X016975Y022000D03*
X038025Y020700D03*
X038025Y020650D03*
X038025Y020600D03*
X038025Y020550D03*
X039025Y020950D03*
X039025Y021000D03*
X041175Y021250D03*
X041175Y021300D03*
X041175Y021350D03*
X041125Y021550D03*
X041125Y021600D03*
X041225Y020950D03*
X041225Y020900D03*
X041225Y020850D03*
X041275Y020550D03*
X041275Y020500D03*
X041275Y020450D03*
D47*
X036550Y020850D03*
X036550Y020900D03*
X036500Y021250D03*
X036500Y021300D03*
X036450Y021650D03*
X036450Y021700D03*
X022000Y019900D03*
X021800Y022150D03*
D48*
X021950Y021900D03*
X021950Y021850D03*
X022150Y020200D03*
X022150Y020150D03*
X015150Y019900D03*
X015000Y022150D03*
D49*
X035200Y022200D03*
X035250Y022100D03*
X035250Y022050D03*
X035250Y022000D03*
X035250Y021950D03*
X035250Y021900D03*
X035250Y021850D03*
X035250Y021800D03*
X035450Y020200D03*
X035500Y020100D03*
X035500Y020050D03*
X035500Y020000D03*
X035500Y019950D03*
D50*
X035050Y021250D03*
X035050Y021300D03*
X035050Y021350D03*
X035050Y021400D03*
X035050Y021450D03*
X033450Y021050D03*
X033500Y020650D03*
X033400Y021450D03*
X032600Y021750D03*
X030250Y021500D03*
X029500Y021550D03*
X029500Y021600D03*
X026200Y019950D03*
X026150Y020000D03*
X026150Y020050D03*
X026100Y020100D03*
X026050Y020200D03*
X026000Y020300D03*
X025950Y020350D03*
X025950Y020400D03*
X025900Y020450D03*
X025650Y020900D03*
X025600Y021000D03*
X025550Y021100D03*
X025500Y021150D03*
X025500Y021200D03*
X025450Y021250D03*
X025400Y021350D03*
X025350Y021450D03*
X025300Y021550D03*
X019050Y020900D03*
X019000Y021300D03*
X018950Y021700D03*
X017050Y021400D03*
X017050Y021350D03*
X017050Y021300D03*
X017050Y021250D03*
X017100Y020950D03*
X017100Y020900D03*
X017100Y020850D03*
X017150Y020550D03*
X017150Y020500D03*
X017150Y020450D03*
X019100Y020500D03*
X019150Y020100D03*
X019150Y020050D03*
X017000Y021650D03*
X017000Y021700D03*
X017000Y021750D03*
X017000Y021800D03*
X016950Y022050D03*
X016950Y022100D03*
X016950Y022150D03*
X038050Y020750D03*
X041100Y021650D03*
X041250Y020400D03*
X041250Y020350D03*
D51*
X022075Y019950D03*
X021875Y022050D03*
D52*
X021900Y022000D03*
X022100Y020000D03*
D53*
X022125Y020050D03*
X022125Y020100D03*
X021925Y021950D03*
D54*
X024775Y021800D03*
X024775Y021750D03*
X018525Y022000D03*
X018525Y022050D03*
X018525Y022100D03*
X017575Y020050D03*
X031375Y020900D03*
X031375Y020950D03*
X034775Y020400D03*
X034775Y020350D03*
X039925Y021200D03*
D55*
X028000Y020950D03*
X027900Y022100D03*
X024950Y020650D03*
X024950Y020600D03*
X015300Y020100D03*
X015300Y020050D03*
X015150Y021900D03*
D56*
X035225Y022150D03*
X035475Y020150D03*
D57*
X027975Y021000D03*
X027875Y022000D03*
X027875Y022050D03*
X024975Y020550D03*
X015325Y020150D03*
D58*
X015300Y020200D03*
X027850Y021850D03*
X027850Y021900D03*
X027850Y021950D03*
X027950Y021100D03*
X027950Y021050D03*
D59*
X030200Y020250D03*
X030250Y021350D03*
X032550Y021350D03*
X032550Y021400D03*
X032550Y021450D03*
X032550Y021500D03*
X032550Y021550D03*
X032550Y021300D03*
X032550Y021250D03*
X032600Y021100D03*
X032600Y021050D03*
X032600Y021000D03*
X032600Y020950D03*
X032600Y020900D03*
X032600Y020850D03*
X032650Y020700D03*
X032650Y020650D03*
X032650Y020600D03*
X032650Y020550D03*
X034300Y020950D03*
X034300Y021000D03*
X034250Y021250D03*
X034250Y021300D03*
X034250Y021350D03*
X034250Y021400D03*
X034200Y021550D03*
X034200Y021600D03*
X038000Y020300D03*
X038000Y020250D03*
X039000Y021150D03*
X039000Y021200D03*
D60*
X038025Y020900D03*
X038025Y020850D03*
X038025Y020800D03*
X041075Y021700D03*
X041225Y020300D03*
X033525Y020600D03*
X033475Y020700D03*
X033475Y020750D03*
X033475Y020800D03*
X033475Y020850D03*
X033475Y020900D03*
X033475Y020950D03*
X033475Y021000D03*
X033425Y021100D03*
X033425Y021150D03*
X033425Y021200D03*
X033425Y021250D03*
X033425Y021300D03*
X033425Y021350D03*
X033425Y021400D03*
X032825Y020250D03*
X030225Y021550D03*
X029525Y021500D03*
X029675Y020500D03*
X029675Y020450D03*
X029675Y020400D03*
X029675Y020350D03*
D61*
X029700Y020300D03*
X029650Y020550D03*
X029550Y021400D03*
X029550Y021450D03*
X034200Y021750D03*
X038050Y021100D03*
X038050Y021050D03*
X038050Y021000D03*
X038050Y020950D03*
X041050Y021750D03*
D62*
X041150Y021500D03*
X041150Y021450D03*
X041150Y021400D03*
X041200Y021200D03*
X041200Y021150D03*
X041200Y021100D03*
X041200Y021050D03*
X041200Y021000D03*
X041250Y020800D03*
X041250Y020750D03*
X041250Y020700D03*
X041250Y020650D03*
X041250Y020600D03*
X039000Y021050D03*
X038000Y020500D03*
X038000Y020450D03*
X038000Y020400D03*
X038000Y020350D03*
X034350Y020850D03*
X034200Y021650D03*
X032550Y021650D03*
X032550Y021700D03*
X032700Y020400D03*
X032700Y020350D03*
X030250Y021400D03*
X029450Y021700D03*
D63*
X032525Y021600D03*
X032575Y021200D03*
X032575Y021150D03*
X032625Y020800D03*
X032625Y020750D03*
X032675Y020500D03*
X032675Y020450D03*
X034325Y020900D03*
X039025Y021100D03*
D64*
X027950Y022150D03*
X024950Y020750D03*
X015100Y022000D03*
D65*
X015050Y022100D03*
X024900Y020850D03*
D66*
X027925Y021150D03*
X027925Y021200D03*
D67*
X021850Y022100D03*
D68*
X029376Y017110D02*
X029376Y017095D01*
X029376Y017065D02*
X029376Y017005D01*
X029391Y017005D02*
X029361Y017005D01*
X029330Y017005D02*
X029330Y017065D01*
X029285Y017065D01*
X029270Y017050D01*
X029270Y017005D01*
X029238Y017005D02*
X029223Y017005D01*
X029223Y017020D01*
X029238Y017020D01*
X029238Y017005D01*
X029192Y017005D02*
X029147Y017005D01*
X029132Y017020D01*
X029132Y017050D01*
X029147Y017065D01*
X029192Y017065D01*
X029192Y017095D02*
X029192Y017005D01*
X029100Y017005D02*
X029100Y017065D01*
X029085Y017065D01*
X029070Y017050D01*
X029055Y017065D01*
X029040Y017050D01*
X029040Y017005D01*
X029070Y017005D02*
X029070Y017050D01*
X029008Y017065D02*
X028963Y017065D01*
X028947Y017050D01*
X028947Y017020D01*
X028963Y017005D01*
X029008Y017005D01*
X029008Y016975D02*
X029008Y017065D01*
X029376Y017065D02*
X029391Y017065D01*
X029423Y017065D02*
X029438Y017050D01*
X029423Y017035D01*
X029423Y017020D01*
X029438Y017005D01*
X029468Y017005D01*
X029483Y017020D01*
X029453Y017050D02*
X029438Y017050D01*
X029423Y017065D02*
X029423Y017080D01*
X029438Y017095D01*
X029468Y017095D01*
X029483Y017080D01*
X029515Y017050D02*
X029575Y017050D01*
X029607Y017035D02*
X029607Y017020D01*
X029622Y017005D01*
X029667Y017005D01*
X029667Y017095D01*
X029622Y017095D01*
X029607Y017080D01*
X029607Y017065D01*
X029622Y017050D01*
X029667Y017050D01*
X029699Y017020D02*
X029714Y017005D01*
X029745Y017005D01*
X029760Y017020D01*
X029760Y017080D01*
X029745Y017095D01*
X029714Y017095D01*
X029699Y017080D01*
X029622Y017050D02*
X029607Y017035D01*
X029792Y017050D02*
X029807Y017035D01*
X029852Y017035D01*
X029852Y017005D02*
X029852Y017095D01*
X029807Y017095D01*
X029792Y017080D01*
X029792Y017050D01*
X029884Y017050D02*
X029944Y017050D01*
X029975Y017005D02*
X030005Y017005D01*
X029990Y017005D02*
X029990Y017095D01*
X030005Y017095D01*
X030037Y017050D02*
X030037Y017005D01*
X030082Y017005D01*
X030097Y017020D01*
X030082Y017035D01*
X030037Y017035D01*
X030037Y017050D02*
X030052Y017065D01*
X030082Y017065D01*
X030129Y017050D02*
X030129Y017005D01*
X030129Y017050D02*
X030144Y017065D01*
X030189Y017065D01*
X030189Y017005D01*
X030221Y017005D02*
X030251Y017005D01*
X030236Y017005D02*
X030236Y017065D01*
X030251Y017065D01*
X030236Y017095D02*
X030236Y017110D01*
X030283Y017095D02*
X030343Y017095D01*
X030343Y017005D01*
X030343Y017050D02*
X030313Y017050D01*
X030375Y017050D02*
X030435Y017050D01*
X030467Y017005D02*
X030467Y017095D01*
X030527Y017095D02*
X030527Y017005D01*
X030497Y017035D01*
X030467Y017005D01*
X030559Y017020D02*
X030574Y017005D01*
X030619Y017005D01*
X030619Y017095D01*
X030574Y017095D01*
X030559Y017080D01*
X030559Y017065D01*
X030574Y017050D01*
X030619Y017050D01*
X030651Y017050D02*
X030711Y017050D01*
X030743Y017020D02*
X030743Y017080D01*
X030758Y017095D01*
X030788Y017095D01*
X030803Y017080D01*
X030803Y017020D01*
X030788Y017005D01*
X030758Y017005D01*
X030743Y017020D01*
X030835Y017005D02*
X030895Y017005D01*
X030895Y017095D01*
X030927Y017080D02*
X030942Y017095D01*
X030972Y017095D01*
X030987Y017080D01*
X030987Y017065D01*
X030972Y017050D01*
X030942Y017050D01*
X030927Y017035D01*
X030927Y017020D01*
X030942Y017005D01*
X030972Y017005D01*
X030987Y017020D01*
X031019Y017005D02*
X031064Y017005D01*
X031079Y017020D01*
X031079Y017050D01*
X031064Y017065D01*
X031019Y017065D01*
X031019Y016990D01*
X031034Y016975D01*
X031049Y016975D01*
X031111Y017005D02*
X031111Y017050D01*
X031126Y017065D01*
X031171Y017065D01*
X031171Y017005D01*
X031203Y017005D02*
X031233Y017005D01*
X031218Y017005D02*
X031218Y017065D01*
X031233Y017065D01*
X031265Y017065D02*
X031310Y017065D01*
X031325Y017050D01*
X031325Y017020D01*
X031310Y017005D01*
X031265Y017005D01*
X031357Y017005D02*
X031402Y017005D01*
X031417Y017020D01*
X031402Y017035D01*
X031357Y017035D01*
X031357Y017050D02*
X031357Y017005D01*
X031357Y017050D02*
X031372Y017065D01*
X031402Y017065D01*
X031449Y017050D02*
X031464Y017035D01*
X031509Y017035D01*
X031509Y017005D02*
X031509Y017095D01*
X031464Y017095D01*
X031449Y017080D01*
X031449Y017050D01*
X031479Y017035D02*
X031449Y017005D01*
X031541Y017050D02*
X031556Y017035D01*
X031601Y017035D01*
X031601Y017005D02*
X031601Y017095D01*
X031556Y017095D01*
X031541Y017080D01*
X031541Y017050D01*
X031633Y017020D02*
X031648Y017005D01*
X031678Y017005D01*
X031693Y017020D01*
X031693Y017080D01*
X031678Y017095D01*
X031648Y017095D01*
X031633Y017080D01*
X031725Y017095D02*
X031785Y017005D01*
X031817Y017020D02*
X031817Y017050D01*
X031832Y017065D01*
X031862Y017065D01*
X031877Y017050D01*
X031877Y017020D01*
X031862Y017005D01*
X031832Y017005D01*
X031817Y017020D01*
X031909Y017005D02*
X031954Y017005D01*
X031969Y017020D01*
X031969Y017050D01*
X031954Y017065D01*
X031909Y017065D01*
X031909Y016990D01*
X031924Y016975D01*
X031939Y016975D01*
X032001Y017020D02*
X032001Y017050D01*
X032016Y017065D01*
X032046Y017065D01*
X032061Y017050D01*
X032061Y017020D01*
X032046Y017005D01*
X032016Y017005D01*
X032001Y017020D01*
X032093Y017005D02*
X032154Y017005D01*
X032154Y017095D01*
X032278Y017065D02*
X032323Y017065D01*
X032338Y017050D01*
X032338Y017020D01*
X032323Y017005D01*
X032278Y017005D01*
X032278Y016990D02*
X032278Y017065D01*
X032278Y016990D02*
X032293Y016975D01*
X032308Y016975D01*
X032370Y017005D02*
X032370Y017050D01*
X032385Y017065D01*
X032430Y017065D01*
X032430Y017005D01*
X032461Y017005D02*
X032491Y017005D01*
X032476Y017005D02*
X032476Y017065D01*
X032491Y017065D01*
X032523Y017065D02*
X032568Y017065D01*
X032583Y017050D01*
X032583Y017020D01*
X032568Y017005D01*
X032523Y017005D01*
X032615Y017005D02*
X032660Y017005D01*
X032675Y017020D01*
X032660Y017035D01*
X032615Y017035D01*
X032615Y017050D02*
X032615Y017005D01*
X032615Y017050D02*
X032630Y017065D01*
X032660Y017065D01*
X032707Y017050D02*
X032722Y017035D01*
X032767Y017035D01*
X032737Y017035D02*
X032707Y017005D01*
X032707Y017050D02*
X032707Y017080D01*
X032722Y017095D01*
X032767Y017095D01*
X032767Y017005D01*
X032892Y017005D02*
X032937Y017005D01*
X032952Y017020D01*
X032952Y017065D01*
X032998Y017095D02*
X032998Y017005D01*
X033013Y017005D02*
X032983Y017005D01*
X033045Y017020D02*
X033045Y017050D01*
X033060Y017065D01*
X033090Y017065D01*
X033105Y017050D01*
X033105Y017020D01*
X033090Y017005D01*
X033060Y017005D01*
X033045Y017020D01*
X033013Y017095D02*
X032998Y017095D01*
X032892Y017065D02*
X032892Y016990D01*
X032907Y016975D01*
X032922Y016975D01*
X033137Y017050D02*
X033152Y017035D01*
X033197Y017035D01*
X033197Y017005D02*
X033197Y017095D01*
X033152Y017095D01*
X033137Y017080D01*
X033137Y017050D01*
X033321Y017005D02*
X033351Y017005D01*
X033336Y017005D02*
X033336Y017095D01*
X033351Y017095D01*
X033383Y017050D02*
X033383Y017005D01*
X033428Y017005D01*
X033443Y017020D01*
X033428Y017035D01*
X033383Y017035D01*
X033383Y017050D02*
X033398Y017065D01*
X033428Y017065D01*
X033475Y017080D02*
X033490Y017095D01*
X033520Y017095D01*
X033535Y017080D01*
X033535Y017020D01*
X033520Y017005D01*
X033490Y017005D01*
X033475Y017020D01*
X033659Y017020D02*
X033674Y017005D01*
X033704Y017005D01*
X033719Y017020D01*
X033719Y017050D02*
X033689Y017065D01*
X033674Y017065D01*
X033659Y017050D01*
X033659Y017020D01*
X033719Y017050D02*
X033719Y017095D01*
X033659Y017095D01*
X033781Y017095D02*
X033781Y017005D01*
X033811Y017005D02*
X033751Y017005D01*
X033811Y017065D02*
X033781Y017095D01*
X033843Y017080D02*
X033903Y017020D01*
X033888Y017005D01*
X033858Y017005D01*
X033843Y017020D01*
X033843Y017080D01*
X033858Y017095D01*
X033888Y017095D01*
X033903Y017080D01*
X033903Y017020D01*
X033935Y017005D02*
X033995Y017005D01*
X033935Y017065D01*
X033935Y017080D01*
X033950Y017095D01*
X033980Y017095D01*
X033995Y017080D01*
X034027Y017095D02*
X034087Y017005D01*
X034119Y017020D02*
X034134Y017035D01*
X034164Y017035D01*
X034179Y017050D01*
X034164Y017065D01*
X034119Y017065D01*
X034119Y017020D02*
X034134Y017005D01*
X034179Y017005D01*
X034211Y017020D02*
X034211Y017050D01*
X034226Y017065D01*
X034256Y017065D01*
X034271Y017050D01*
X034271Y017020D01*
X034256Y017005D01*
X034226Y017005D01*
X034211Y017020D01*
X034303Y017005D02*
X034348Y017005D01*
X034363Y017020D01*
X034363Y017050D01*
X034348Y017065D01*
X034303Y017065D01*
X034303Y016990D01*
X034318Y016975D01*
X034333Y016975D01*
X034395Y017020D02*
X034395Y017050D01*
X034410Y017065D01*
X034440Y017065D01*
X034455Y017050D01*
X034455Y017020D01*
X034440Y017005D01*
X034410Y017005D01*
X034395Y017020D01*
X034488Y017005D02*
X034548Y017005D01*
X034548Y017095D01*
X034580Y017095D02*
X034640Y017005D01*
X034672Y017020D02*
X034687Y017035D01*
X034717Y017035D01*
X034732Y017050D01*
X034717Y017065D01*
X034672Y017065D01*
X034672Y017020D02*
X034687Y017005D01*
X034732Y017005D01*
X034764Y017005D02*
X034764Y017050D01*
X034779Y017065D01*
X034824Y017065D01*
X034824Y017005D01*
X034856Y017020D02*
X034856Y017050D01*
X034871Y017065D01*
X034901Y017065D01*
X034916Y017050D01*
X034916Y017020D01*
X034901Y017005D01*
X034871Y017005D01*
X034856Y017020D01*
X034947Y017005D02*
X034977Y017005D01*
X034962Y017005D02*
X034962Y017065D01*
X034977Y017065D01*
X035009Y017065D02*
X035039Y017065D01*
X035024Y017080D02*
X035024Y017020D01*
X035009Y017005D01*
X035071Y017020D02*
X035071Y017050D01*
X035086Y017065D01*
X035116Y017065D01*
X035131Y017050D01*
X035131Y017020D01*
X035116Y017005D01*
X035086Y017005D01*
X035071Y017020D01*
X035163Y017005D02*
X035163Y017050D01*
X035178Y017065D01*
X035193Y017050D01*
X035193Y017005D01*
X035223Y017005D02*
X035223Y017065D01*
X035208Y017065D01*
X035193Y017050D01*
X035255Y017050D02*
X035270Y017065D01*
X035300Y017065D01*
X035315Y017050D01*
X035315Y017020D01*
X035300Y017005D01*
X035270Y017005D01*
X035255Y017020D01*
X035255Y017050D01*
X035347Y017065D02*
X035362Y017065D01*
X035392Y017035D01*
X035392Y017005D02*
X035392Y017065D01*
X035424Y017050D02*
X035439Y017035D01*
X035484Y017035D01*
X035484Y017005D02*
X035484Y017095D01*
X035439Y017095D01*
X035424Y017080D01*
X035424Y017050D01*
X035608Y017065D02*
X035653Y017065D01*
X035668Y017050D01*
X035668Y017020D01*
X035653Y017005D01*
X035608Y017005D01*
X035608Y017095D01*
X035700Y017050D02*
X035700Y017005D01*
X035700Y017050D02*
X035715Y017065D01*
X035760Y017065D01*
X035760Y017005D01*
X035792Y017005D02*
X035837Y017005D01*
X035852Y017020D01*
X035837Y017035D01*
X035792Y017035D01*
X035792Y017050D02*
X035792Y017005D01*
X035792Y017050D02*
X035807Y017065D01*
X035837Y017065D01*
X035976Y017065D02*
X036021Y017065D01*
X036036Y017050D01*
X036021Y017035D01*
X035991Y017035D01*
X035976Y017020D01*
X035991Y017005D01*
X036036Y017005D01*
X036068Y017020D02*
X036083Y017005D01*
X036128Y017005D01*
X036128Y016975D02*
X036128Y017065D01*
X036083Y017065D01*
X036068Y017050D01*
X036068Y017020D01*
X036160Y017005D02*
X036190Y017005D01*
X036175Y017005D02*
X036175Y017065D01*
X036190Y017065D01*
X036175Y017095D02*
X036175Y017110D01*
X036222Y017050D02*
X036222Y017005D01*
X036222Y017050D02*
X036237Y017065D01*
X036267Y017065D01*
X036282Y017050D01*
X036314Y017065D02*
X036359Y017065D01*
X036374Y017050D01*
X036359Y017035D01*
X036329Y017035D01*
X036314Y017020D01*
X036329Y017005D01*
X036374Y017005D01*
X036405Y017065D02*
X036420Y017065D01*
X036451Y017035D01*
X036451Y017005D02*
X036451Y017065D01*
X036483Y017050D02*
X036498Y017065D01*
X036528Y017065D01*
X036543Y017050D01*
X036543Y017020D01*
X036528Y017005D01*
X036498Y017005D01*
X036483Y017020D01*
X036483Y017050D01*
X036575Y017065D02*
X036620Y017065D01*
X036635Y017050D01*
X036620Y017035D01*
X036590Y017035D01*
X036575Y017020D01*
X036590Y017005D01*
X036635Y017005D01*
X036667Y017005D02*
X036667Y017050D01*
X036682Y017065D01*
X036727Y017065D01*
X036727Y017005D01*
X036759Y017020D02*
X036759Y017050D01*
X036774Y017065D01*
X036804Y017065D01*
X036819Y017050D01*
X036819Y017020D01*
X036804Y017005D01*
X036774Y017005D01*
X036759Y017020D01*
X036851Y017020D02*
X036866Y017005D01*
X036911Y017005D01*
X036911Y016975D02*
X036911Y017065D01*
X036866Y017065D01*
X036851Y017050D01*
X036851Y017020D01*
X036943Y017020D02*
X036958Y017005D01*
X036988Y017005D01*
X037003Y017020D01*
X036988Y017050D02*
X036958Y017050D01*
X036943Y017035D01*
X036943Y017020D01*
X036988Y017050D02*
X037003Y017065D01*
X037003Y017080D01*
X036988Y017095D01*
X036958Y017095D01*
X036943Y017080D01*
X037035Y017095D02*
X037095Y017005D01*
X037126Y017005D02*
X037156Y017005D01*
X037141Y017005D02*
X037141Y017095D01*
X037156Y017095D01*
X037188Y017050D02*
X037188Y017005D01*
X037234Y017005D01*
X037249Y017020D01*
X037234Y017035D01*
X037188Y017035D01*
X037188Y017050D02*
X037203Y017065D01*
X037234Y017065D01*
X037280Y017065D02*
X037295Y017065D01*
X037325Y017035D01*
X037325Y017005D02*
X037325Y017065D01*
X037357Y017050D02*
X037357Y017035D01*
X037417Y017035D01*
X037417Y017020D02*
X037417Y017050D01*
X037402Y017065D01*
X037372Y017065D01*
X037357Y017050D01*
X037372Y017005D02*
X037402Y017005D01*
X037417Y017020D01*
X037449Y017005D02*
X037449Y017050D01*
X037464Y017065D01*
X037509Y017065D01*
X037509Y017005D01*
X037541Y017035D02*
X037601Y017035D01*
X037601Y017020D02*
X037601Y017050D01*
X037586Y017065D01*
X037556Y017065D01*
X037541Y017050D01*
X037541Y017035D01*
X037556Y017005D02*
X037586Y017005D01*
X037601Y017020D01*
X037634Y017020D02*
X037634Y017050D01*
X037664Y017050D01*
X037694Y017020D02*
X037679Y017005D01*
X037649Y017005D01*
X037634Y017020D01*
X037694Y017020D02*
X037694Y017080D01*
X037679Y017095D01*
X037649Y017095D01*
X037634Y017080D01*
X037818Y017095D02*
X037878Y017095D01*
X037878Y017005D01*
X037818Y017005D01*
X037848Y017050D02*
X037878Y017050D01*
X037910Y017050D02*
X037970Y017050D01*
X037970Y017065D02*
X037940Y017095D01*
X037910Y017065D01*
X037910Y017005D01*
X037970Y017005D02*
X037970Y017065D01*
X038002Y017080D02*
X038017Y017095D01*
X038047Y017095D01*
X038062Y017080D01*
X038062Y017065D01*
X038047Y017050D01*
X038017Y017050D01*
X038002Y017035D01*
X038002Y017020D01*
X038017Y017005D01*
X038047Y017005D01*
X038062Y017020D01*
X038186Y017005D02*
X038231Y017005D01*
X038246Y017020D01*
X038246Y017065D01*
X038292Y017095D02*
X038292Y017005D01*
X038307Y017005D02*
X038277Y017005D01*
X038339Y017020D02*
X038339Y017050D01*
X038354Y017065D01*
X038384Y017065D01*
X038400Y017050D01*
X038400Y017020D01*
X038384Y017005D01*
X038354Y017005D01*
X038339Y017020D01*
X038307Y017095D02*
X038292Y017095D01*
X038186Y017065D02*
X038186Y016990D01*
X038201Y016975D01*
X038216Y016975D01*
X038432Y017050D02*
X038447Y017035D01*
X038492Y017035D01*
X038492Y017005D02*
X038492Y017095D01*
X038447Y017095D01*
X038432Y017080D01*
X038432Y017050D01*
X038615Y017005D02*
X038645Y017005D01*
X038630Y017005D02*
X038630Y017095D01*
X038645Y017095D01*
X038677Y017050D02*
X038677Y017005D01*
X038722Y017005D01*
X038737Y017020D01*
X038722Y017035D01*
X038677Y017035D01*
X038677Y017050D02*
X038692Y017065D01*
X038722Y017065D01*
X038769Y017080D02*
X038784Y017095D01*
X038814Y017095D01*
X038829Y017080D01*
X038829Y017020D01*
X038814Y017005D01*
X038784Y017005D01*
X038769Y017020D01*
X038861Y017095D02*
X038921Y017005D01*
X038953Y017035D02*
X039013Y017035D01*
X039013Y017020D02*
X039013Y017050D01*
X038998Y017065D01*
X038968Y017065D01*
X038953Y017050D01*
X038953Y017035D01*
X038968Y017005D02*
X038998Y017005D01*
X039013Y017020D01*
X039045Y017065D02*
X039075Y017005D01*
X039105Y017065D01*
X039152Y017065D02*
X039152Y017005D01*
X039167Y017005D02*
X039137Y017005D01*
X039152Y017065D02*
X039167Y017065D01*
X039199Y017065D02*
X039214Y017065D01*
X039244Y017035D01*
X039244Y017005D02*
X039244Y017065D01*
X039276Y017080D02*
X039291Y017095D01*
X039336Y017095D01*
X039336Y017005D01*
X039291Y017005D01*
X039276Y017020D01*
X039276Y017080D01*
X039152Y017095D02*
X039152Y017110D01*
X039460Y017050D02*
X039460Y017035D01*
X039520Y017035D01*
X039520Y017020D02*
X039520Y017050D01*
X039505Y017065D01*
X039475Y017065D01*
X039460Y017050D01*
X039475Y017005D02*
X039505Y017005D01*
X039520Y017020D01*
X039551Y017005D02*
X039581Y017005D01*
X039566Y017005D02*
X039566Y017095D01*
X039581Y017095D01*
X039613Y017065D02*
X039658Y017065D01*
X039673Y017050D01*
X039673Y017020D01*
X039658Y017005D01*
X039613Y017005D01*
X039613Y016990D02*
X039613Y017065D01*
X039613Y016990D02*
X039628Y016975D01*
X039643Y016975D01*
X039705Y017020D02*
X039705Y017050D01*
X039720Y017065D01*
X039750Y017065D01*
X039765Y017050D01*
X039765Y017020D01*
X039750Y017005D01*
X039720Y017005D01*
X039705Y017020D01*
X039797Y017020D02*
X039797Y017050D01*
X039812Y017065D01*
X039842Y017065D01*
X039857Y017050D01*
X039857Y017020D01*
X039842Y017005D01*
X039812Y017005D01*
X039797Y017020D01*
X039889Y017020D02*
X039889Y017050D01*
X039919Y017050D01*
X039889Y017020D02*
X039904Y017005D01*
X039934Y017005D01*
X039949Y017020D01*
X039949Y017080D01*
X039934Y017095D01*
X039904Y017095D01*
X039889Y017080D01*
X039982Y017095D02*
X040042Y017005D01*
X040074Y017005D02*
X040074Y017050D01*
X040089Y017065D01*
X040134Y017065D01*
X040134Y017005D01*
X040166Y017020D02*
X040166Y017050D01*
X040181Y017065D01*
X040211Y017065D01*
X040226Y017050D01*
X040226Y017020D01*
X040211Y017005D01*
X040181Y017005D01*
X040166Y017020D01*
X040258Y017020D02*
X040273Y017035D01*
X040303Y017035D01*
X040318Y017050D01*
X040303Y017065D01*
X040258Y017065D01*
X040258Y017020D02*
X040273Y017005D01*
X040318Y017005D01*
X040349Y017005D02*
X040379Y017005D01*
X040364Y017005D02*
X040364Y017095D01*
X040379Y017095D01*
X040426Y017095D02*
X040426Y017005D01*
X040441Y017005D02*
X040411Y017005D01*
X040472Y017005D02*
X040502Y017005D01*
X040487Y017005D02*
X040487Y017065D01*
X040502Y017065D01*
X040534Y017065D02*
X040534Y017020D01*
X040549Y017005D01*
X040564Y017020D01*
X040579Y017005D01*
X040594Y017020D01*
X040594Y017065D01*
X040626Y017065D02*
X040671Y017065D01*
X040686Y017050D01*
X040671Y017035D01*
X040641Y017035D01*
X040626Y017020D01*
X040641Y017005D01*
X040686Y017005D01*
X040718Y017005D02*
X040763Y017005D01*
X040778Y017020D01*
X040763Y017035D01*
X040718Y017035D01*
X040718Y017050D02*
X040718Y017005D01*
X040718Y017050D02*
X040733Y017065D01*
X040763Y017065D01*
X040810Y017050D02*
X040810Y017005D01*
X040840Y017005D02*
X040840Y017050D01*
X040825Y017065D01*
X040810Y017050D01*
X040840Y017050D02*
X040855Y017065D01*
X040870Y017065D01*
X040870Y017005D01*
X040902Y017020D02*
X040902Y017050D01*
X040917Y017065D01*
X040947Y017065D01*
X040962Y017050D01*
X040962Y017020D01*
X040947Y017005D01*
X040917Y017005D01*
X040902Y017020D01*
X040994Y017005D02*
X040994Y017050D01*
X041009Y017065D01*
X041039Y017065D01*
X041054Y017050D01*
X041086Y017065D02*
X041116Y017065D01*
X041101Y017080D02*
X041101Y017020D01*
X041086Y017005D01*
X041054Y017005D02*
X041054Y017095D01*
X041148Y017095D02*
X041208Y017005D01*
X041240Y017020D02*
X041255Y017035D01*
X041285Y017035D01*
X041300Y017050D01*
X041285Y017065D01*
X041240Y017065D01*
X041240Y017020D02*
X041255Y017005D01*
X041300Y017005D01*
X041332Y017065D02*
X041347Y017065D01*
X041377Y017035D01*
X041377Y017005D02*
X041377Y017065D01*
X041409Y017050D02*
X041409Y017035D01*
X041469Y017035D01*
X041469Y017020D02*
X041469Y017050D01*
X041454Y017065D01*
X041424Y017065D01*
X041409Y017050D01*
X041424Y017005D02*
X041454Y017005D01*
X041469Y017020D01*
X041501Y017020D02*
X041516Y017035D01*
X041546Y017035D01*
X041561Y017050D01*
X041546Y017065D01*
X041501Y017065D01*
X041501Y017020D02*
X041516Y017005D01*
X041561Y017005D01*
X041593Y017020D02*
X041593Y017095D01*
X041653Y017095D02*
X041653Y017020D01*
X041638Y017005D01*
X041608Y017005D01*
X041593Y017020D01*
X041685Y017095D02*
X041745Y017005D01*
X040487Y017095D02*
X040487Y017110D01*
X040441Y017095D02*
X040426Y017095D01*
X036282Y017095D02*
X036282Y017005D01*
X034962Y017095D02*
X034962Y017110D01*
X032476Y017110D02*
X032476Y017095D01*
X031218Y017110D02*
X031218Y017095D01*
X030574Y017050D02*
X030559Y017035D01*
X030559Y017020D01*
X038332Y013977D02*
X038332Y013958D01*
X038350Y013940D01*
X038387Y013940D01*
X038406Y013958D01*
X038406Y013977D01*
X038387Y013995D01*
X038350Y013995D01*
X038332Y013977D01*
X038350Y013940D02*
X038332Y013922D01*
X038332Y013903D01*
X038350Y013885D01*
X038387Y013885D01*
X038406Y013903D01*
X038406Y013922D01*
X038387Y013940D01*
X038443Y013940D02*
X038516Y013940D01*
X038461Y013995D01*
X038461Y013885D01*
X038461Y013795D02*
X038516Y013795D01*
X038516Y013685D01*
X038461Y013685D01*
X038443Y013703D01*
X038443Y013777D01*
X038461Y013795D01*
X038405Y013777D02*
X038387Y013795D01*
X038350Y013795D01*
X038332Y013777D01*
X038332Y013758D01*
X038405Y013685D01*
X038332Y013685D01*
X038571Y013885D02*
X038571Y013995D01*
X038626Y013940D01*
X038553Y013940D01*
X038664Y013940D02*
X038737Y013940D01*
X038682Y013995D01*
X038682Y013885D01*
X038774Y013903D02*
X038774Y013977D01*
X038792Y013995D01*
X038847Y013995D01*
X038847Y013885D01*
X038792Y013885D01*
X038774Y013903D01*
X038885Y013903D02*
X038903Y013885D01*
X038958Y013885D01*
X038958Y013995D01*
X038903Y013995D01*
X038885Y013977D01*
X038885Y013958D01*
X038903Y013940D01*
X038958Y013940D01*
X038903Y013940D02*
X038885Y013922D01*
X038885Y013903D01*
X038995Y013885D02*
X038995Y013995D01*
X039032Y013958D01*
X039068Y013995D01*
X039068Y013885D01*
X039106Y013885D02*
X039106Y013995D01*
X039142Y013958D01*
X039179Y013995D01*
X039179Y013885D01*
X039216Y013867D02*
X039289Y013867D01*
X039327Y013885D02*
X039400Y013885D01*
X039400Y013995D01*
X039327Y013995D01*
X039363Y013940D02*
X039400Y013940D01*
X039437Y013903D02*
X039437Y013977D01*
X039455Y013995D01*
X039510Y013995D01*
X039510Y013885D01*
X039455Y013885D01*
X039437Y013903D01*
X039548Y013903D02*
X039548Y013977D01*
X039566Y013995D01*
X039603Y013995D01*
X039621Y013977D01*
X039621Y013903D01*
X039603Y013885D01*
X039566Y013885D01*
X039548Y013903D01*
X039658Y013885D02*
X039695Y013885D01*
X039676Y013885D02*
X039676Y013995D01*
X039658Y013995D02*
X039695Y013995D01*
X039732Y013977D02*
X039750Y013995D01*
X039805Y013995D01*
X039805Y013885D01*
X039750Y013885D01*
X039732Y013903D01*
X039732Y013977D01*
X036305Y011495D02*
X036250Y011495D01*
X036232Y011477D01*
X036232Y011403D01*
X036250Y011385D01*
X036305Y011385D01*
X036305Y011495D01*
X036195Y011495D02*
X036158Y011495D01*
X036176Y011495D02*
X036176Y011385D01*
X036158Y011385D02*
X036195Y011385D01*
X036121Y011403D02*
X036103Y011385D01*
X036066Y011385D01*
X036048Y011403D01*
X036048Y011477D01*
X036066Y011495D01*
X036103Y011495D01*
X036121Y011477D01*
X036121Y011403D01*
X036010Y011385D02*
X036010Y011495D01*
X035955Y011495D01*
X035937Y011477D01*
X035937Y011403D01*
X035955Y011385D01*
X036010Y011385D01*
X035900Y011385D02*
X035827Y011385D01*
X035789Y011367D02*
X035716Y011367D01*
X035679Y011385D02*
X035679Y011495D01*
X035642Y011458D01*
X035606Y011495D01*
X035606Y011385D01*
X035568Y011385D02*
X035568Y011495D01*
X035532Y011458D01*
X035495Y011495D01*
X035495Y011385D01*
X035458Y011385D02*
X035403Y011385D01*
X035385Y011403D01*
X035385Y011422D01*
X035403Y011440D01*
X035458Y011440D01*
X035458Y011385D02*
X035458Y011495D01*
X035403Y011495D01*
X035385Y011477D01*
X035385Y011458D01*
X035403Y011440D01*
X035347Y011385D02*
X035292Y011385D01*
X035274Y011403D01*
X035274Y011477D01*
X035292Y011495D01*
X035347Y011495D01*
X035347Y011385D01*
X035237Y011440D02*
X035164Y011440D01*
X035126Y011440D02*
X035053Y011440D01*
X035016Y011440D02*
X034943Y011440D01*
X034906Y011422D02*
X034887Y011440D01*
X034850Y011440D01*
X034832Y011422D01*
X034832Y011403D01*
X034850Y011385D01*
X034887Y011385D01*
X034906Y011403D01*
X034906Y011422D01*
X034887Y011440D02*
X034906Y011458D01*
X034906Y011477D01*
X034887Y011495D01*
X034850Y011495D01*
X034832Y011477D01*
X034832Y011458D01*
X034850Y011440D01*
X034961Y011385D02*
X034961Y011495D01*
X035016Y011440D01*
X035071Y011385D02*
X035071Y011495D01*
X035126Y011440D01*
X035182Y011385D02*
X035182Y011495D01*
X035237Y011440D01*
X035016Y011295D02*
X034961Y011295D01*
X034943Y011277D01*
X034943Y011203D01*
X034961Y011185D01*
X035016Y011185D01*
X035016Y011295D01*
X034905Y011258D02*
X034869Y011295D01*
X034869Y011185D01*
X034905Y011185D02*
X034832Y011185D01*
X035827Y011495D02*
X035900Y011495D01*
X035900Y011385D01*
X035900Y011440D02*
X035863Y011440D01*
D69*
X025506Y014130D02*
X025506Y014450D01*
X025613Y014557D01*
X025719Y014450D01*
X025719Y014130D01*
X025933Y014130D02*
X025933Y014557D01*
X025826Y014557D01*
X025719Y014450D01*
X026150Y014450D02*
X026150Y014237D01*
X026257Y014130D01*
X026471Y014130D01*
X026578Y014237D01*
X026578Y014450D01*
X026471Y014557D01*
X026257Y014557D01*
X026150Y014450D01*
X026795Y014557D02*
X027115Y014557D01*
X027222Y014450D01*
X027222Y014237D01*
X027115Y014130D01*
X026795Y014130D01*
X027438Y014130D02*
X027544Y014130D01*
X027544Y014237D01*
X027438Y014237D01*
X027438Y014130D01*
X027762Y014344D02*
X027762Y014450D01*
X027869Y014557D01*
X028082Y014557D01*
X028189Y014450D01*
X028189Y014237D01*
X028082Y014130D01*
X027869Y014130D01*
X027762Y014344D02*
X028189Y014344D01*
X028406Y014450D02*
X028406Y014130D01*
X028620Y014130D02*
X028620Y014450D01*
X028513Y014557D01*
X028406Y014450D01*
X028620Y014450D02*
X028727Y014557D01*
X028833Y014557D01*
X028833Y014130D01*
X029051Y014237D02*
X029158Y014130D01*
X029371Y014130D01*
X029478Y014237D01*
X029478Y014664D01*
X029371Y014771D01*
X029158Y014771D01*
X029051Y014664D01*
X029051Y014450D01*
X029158Y014344D01*
X029158Y014557D01*
X029371Y014557D01*
X029371Y014344D01*
X029158Y014344D01*
X029695Y014450D02*
X029695Y014130D01*
X029695Y014450D02*
X029802Y014557D01*
X030123Y014557D01*
X030123Y014130D01*
X030340Y014237D02*
X030340Y014450D01*
X030447Y014557D01*
X030660Y014557D01*
X030767Y014450D01*
X030767Y014237D01*
X030660Y014130D01*
X030447Y014130D01*
X030340Y014237D01*
X030985Y014237D02*
X031091Y014344D01*
X031305Y014344D01*
X031412Y014450D01*
X031305Y014557D01*
X030985Y014557D01*
X030985Y014237D02*
X031091Y014130D01*
X031412Y014130D01*
X031628Y014130D02*
X031841Y014130D01*
X031735Y014130D02*
X031735Y014771D01*
X031841Y014771D01*
X032164Y014771D02*
X032164Y014130D01*
X032058Y014130D02*
X032271Y014130D01*
X032487Y014130D02*
X032701Y014130D01*
X032594Y014130D02*
X032594Y014557D01*
X032701Y014557D01*
X032918Y014557D02*
X032918Y014237D01*
X033025Y014130D01*
X033132Y014237D01*
X033239Y014130D01*
X033345Y014237D01*
X033345Y014557D01*
X033561Y014237D02*
X033561Y014130D01*
X033668Y014130D01*
X033668Y014237D01*
X033561Y014237D01*
X033885Y014237D02*
X033992Y014344D01*
X034205Y014344D01*
X034312Y014450D01*
X034205Y014557D01*
X033885Y014557D01*
X033885Y014237D02*
X033992Y014130D01*
X034312Y014130D01*
X034530Y014130D02*
X034530Y014450D01*
X034636Y014557D01*
X034850Y014557D01*
X034850Y014344D02*
X034530Y014344D01*
X034530Y014130D02*
X034850Y014130D01*
X034957Y014237D01*
X034850Y014344D01*
X035174Y014450D02*
X035174Y014130D01*
X035388Y014130D02*
X035388Y014450D01*
X035281Y014557D01*
X035174Y014450D01*
X035388Y014450D02*
X035494Y014557D01*
X035601Y014557D01*
X035601Y014130D01*
X035819Y014237D02*
X035819Y014450D01*
X035925Y014557D01*
X036139Y014557D01*
X036246Y014450D01*
X036246Y014237D01*
X036139Y014130D01*
X035925Y014130D01*
X035819Y014237D01*
X036463Y014130D02*
X036463Y014450D01*
X036570Y014557D01*
X036784Y014557D01*
X036890Y014450D01*
X037106Y014557D02*
X037320Y014557D01*
X037213Y014664D02*
X037213Y014237D01*
X037106Y014130D01*
X036890Y014130D02*
X036890Y014771D01*
X037000Y015180D02*
X036893Y015287D01*
X036893Y015714D01*
X037000Y015821D01*
X037320Y015821D01*
X037320Y015180D01*
X037000Y015180D01*
X036675Y015287D02*
X036675Y015500D01*
X036569Y015607D01*
X036355Y015607D01*
X036248Y015500D01*
X036248Y015394D01*
X036675Y015394D01*
X036675Y015287D02*
X036569Y015180D01*
X036355Y015180D01*
X036031Y015180D02*
X035711Y015180D01*
X035604Y015287D01*
X035711Y015394D01*
X035924Y015394D01*
X036031Y015500D01*
X035924Y015607D01*
X035604Y015607D01*
X035386Y015607D02*
X035280Y015607D01*
X035280Y015180D01*
X035386Y015180D02*
X035173Y015180D01*
X034957Y015287D02*
X034850Y015180D01*
X034530Y015180D01*
X034530Y015073D02*
X034530Y015607D01*
X034850Y015607D01*
X034957Y015500D01*
X034957Y015287D01*
X034743Y014966D02*
X034636Y014966D01*
X034530Y015073D01*
X034312Y015180D02*
X034312Y015607D01*
X033992Y015607D01*
X033885Y015500D01*
X033885Y015180D01*
X033668Y015287D02*
X033668Y015500D01*
X033561Y015607D01*
X033347Y015607D01*
X033241Y015500D01*
X033241Y015394D01*
X033668Y015394D01*
X033668Y015287D02*
X033561Y015180D01*
X033347Y015180D01*
X033023Y015287D02*
X033023Y015500D01*
X032916Y015607D01*
X032596Y015607D01*
X032596Y015821D02*
X032596Y015180D01*
X032916Y015180D01*
X033023Y015287D01*
X032594Y014877D02*
X032594Y014771D01*
X032271Y014771D02*
X032164Y014771D01*
X031734Y015180D02*
X031414Y015180D01*
X031307Y015287D01*
X031307Y015394D01*
X031414Y015500D01*
X031734Y015500D01*
X031734Y015180D02*
X031734Y015821D01*
X031414Y015821D01*
X031307Y015714D01*
X031307Y015607D01*
X031414Y015500D01*
X031089Y015607D02*
X031089Y015287D01*
X030983Y015180D01*
X030662Y015180D01*
X030662Y015073D02*
X030769Y014966D01*
X030876Y014966D01*
X030662Y015073D02*
X030662Y015607D01*
X030445Y015607D02*
X030445Y015500D01*
X030338Y015500D01*
X030338Y015607D01*
X030445Y015607D01*
X030445Y015287D02*
X030445Y015180D01*
X030338Y015180D01*
X030338Y015287D01*
X030445Y015287D01*
X029478Y015821D02*
X029051Y015821D01*
X029264Y015821D02*
X029264Y015180D01*
X028833Y015180D02*
X028833Y015821D01*
X028727Y015607D02*
X028513Y015607D01*
X028406Y015500D01*
X028406Y015180D01*
X028189Y015287D02*
X028082Y015180D01*
X027869Y015180D01*
X027762Y015287D01*
X027762Y015500D01*
X027869Y015607D01*
X028082Y015607D01*
X028189Y015500D01*
X028189Y015287D01*
X028727Y015607D02*
X028833Y015500D01*
X028942Y016230D02*
X029156Y016230D01*
X029049Y016230D02*
X029049Y016657D01*
X029156Y016657D01*
X029373Y016657D02*
X029479Y016657D01*
X029693Y016444D01*
X029693Y016657D02*
X029693Y016230D01*
X029909Y016230D02*
X030016Y016337D01*
X030016Y016764D01*
X030123Y016657D02*
X029909Y016657D01*
X030340Y016657D02*
X030660Y016657D01*
X030767Y016550D01*
X030767Y016337D01*
X030660Y016230D01*
X030340Y016230D01*
X030985Y016444D02*
X031412Y016444D01*
X031412Y016550D02*
X031305Y016657D01*
X031091Y016657D01*
X030985Y016550D01*
X030985Y016444D01*
X031091Y016230D02*
X031305Y016230D01*
X031412Y016337D01*
X031412Y016550D01*
X031628Y016230D02*
X031841Y016230D01*
X031735Y016230D02*
X031735Y016871D01*
X031841Y016871D01*
X032059Y016871D02*
X032486Y016871D01*
X032486Y016230D01*
X032059Y016230D01*
X032272Y016550D02*
X032486Y016550D01*
X033348Y016550D02*
X033348Y016230D01*
X033668Y016230D01*
X033775Y016337D01*
X033668Y016444D01*
X033348Y016444D01*
X033348Y016550D02*
X033455Y016657D01*
X033668Y016657D01*
X034098Y016871D02*
X034098Y016230D01*
X034205Y016230D02*
X033991Y016230D01*
X034422Y016230D02*
X034422Y016657D01*
X034205Y016871D02*
X034098Y016871D01*
X034849Y016657D02*
X034849Y016337D01*
X034742Y016230D01*
X034422Y016230D01*
X035067Y016230D02*
X035067Y016550D01*
X035174Y016657D01*
X035280Y016550D01*
X035280Y016230D01*
X035494Y016230D02*
X035494Y016657D01*
X035387Y016657D01*
X035280Y016550D01*
X035711Y016657D02*
X035817Y016657D01*
X036031Y016444D01*
X036031Y016657D02*
X036031Y016230D01*
X036248Y016337D02*
X036248Y016550D01*
X036355Y016657D01*
X036569Y016657D01*
X036675Y016550D01*
X036675Y016337D01*
X036569Y016230D01*
X036355Y016230D01*
X036248Y016337D01*
X037106Y016550D02*
X037320Y016550D01*
X037320Y016230D02*
X037320Y016871D01*
X036893Y016871D01*
X035280Y015927D02*
X035280Y015821D01*
X029049Y016871D02*
X029049Y016977D01*
X028726Y016550D02*
X028619Y016657D01*
X028299Y016657D01*
X028726Y016550D02*
X028726Y016337D01*
X028619Y016230D01*
X028299Y016230D01*
X027437Y016230D02*
X027010Y016657D01*
X027010Y016764D01*
X027117Y016871D01*
X027330Y016871D01*
X027437Y016764D01*
X027437Y016230D02*
X027010Y016230D01*
X026792Y016337D02*
X026365Y016764D01*
X026365Y016337D01*
X026472Y016230D01*
X026686Y016230D01*
X026792Y016337D01*
X026792Y016764D01*
X026686Y016871D01*
X026472Y016871D01*
X026365Y016764D01*
X026148Y016657D02*
X025934Y016871D01*
X025934Y016230D01*
X025721Y016230D02*
X026148Y016230D01*
X025503Y016337D02*
X025396Y016230D01*
X025183Y016230D01*
X025076Y016337D01*
X025076Y016550D01*
X025183Y016657D01*
X025290Y016657D01*
X025503Y016550D01*
X025503Y016871D01*
X025076Y016871D01*
X024859Y016657D02*
X024859Y016550D01*
X024752Y016550D01*
X024752Y016657D01*
X024859Y016657D01*
X024859Y016337D02*
X024859Y016230D01*
X024752Y016230D01*
X024752Y016337D01*
X024859Y016337D01*
X024966Y015821D02*
X024966Y015180D01*
X024753Y015394D01*
X024539Y015180D01*
X024539Y015821D01*
X024322Y015607D02*
X024215Y015607D01*
X024215Y015180D01*
X024322Y015180D02*
X024108Y015180D01*
X023892Y015180D02*
X023678Y015180D01*
X023785Y015180D02*
X023785Y015821D01*
X023892Y015821D01*
X024215Y015821D02*
X024215Y015927D01*
X023892Y016230D02*
X023892Y016871D01*
X023465Y016871D02*
X023465Y016230D01*
X023247Y016444D02*
X023034Y016230D01*
X022820Y016444D01*
X022820Y016871D01*
X023247Y016871D02*
X023247Y016444D01*
X023465Y016550D02*
X023892Y016550D01*
X023462Y015821D02*
X023355Y015821D01*
X023355Y015180D01*
X023249Y015180D02*
X023462Y015180D01*
X023032Y015180D02*
X022712Y015180D01*
X022605Y015287D01*
X022712Y015394D01*
X022926Y015394D01*
X023032Y015500D01*
X022926Y015607D01*
X022605Y015607D01*
X022388Y015500D02*
X022388Y015287D01*
X022281Y015180D01*
X022068Y015180D01*
X021961Y015287D01*
X021961Y015500D01*
X022068Y015607D01*
X022281Y015607D01*
X022388Y015500D01*
X021743Y015607D02*
X021743Y015180D01*
X021316Y015180D02*
X021316Y015500D01*
X021423Y015607D01*
X021743Y015607D01*
X021638Y016230D02*
X021958Y016230D01*
X021958Y016871D01*
X021638Y016871D01*
X021531Y016764D01*
X021531Y016657D01*
X021638Y016550D01*
X021958Y016550D01*
X021638Y016550D02*
X021531Y016444D01*
X021531Y016337D01*
X021638Y016230D01*
X021314Y016337D02*
X021207Y016230D01*
X020993Y016230D01*
X020887Y016337D01*
X020887Y016550D01*
X020993Y016657D01*
X021207Y016657D01*
X021314Y016550D01*
X021314Y016337D01*
X020669Y016337D02*
X020562Y016444D01*
X020242Y016444D01*
X020242Y016550D02*
X020242Y016230D01*
X020562Y016230D01*
X020669Y016337D01*
X020349Y016657D02*
X020242Y016550D01*
X020349Y016657D02*
X020562Y016657D01*
X020025Y016657D02*
X020025Y016230D01*
X020025Y016444D02*
X019811Y016657D01*
X019704Y016657D01*
X019487Y016550D02*
X019381Y016657D01*
X019060Y016657D01*
X019060Y016871D02*
X019060Y016230D01*
X019381Y016230D01*
X019487Y016337D01*
X019487Y016550D01*
X025828Y015607D02*
X026148Y015607D01*
X026255Y015500D01*
X026148Y015394D01*
X025935Y015394D01*
X025828Y015287D01*
X025935Y015180D01*
X026255Y015180D01*
X026473Y015180D02*
X026473Y015500D01*
X026580Y015607D01*
X026793Y015607D01*
X026793Y015394D02*
X026473Y015394D01*
X026473Y015180D02*
X026793Y015180D01*
X026900Y015287D01*
X026793Y015394D01*
X027117Y015500D02*
X027117Y015180D01*
X027331Y015180D02*
X027331Y015500D01*
X027224Y015607D01*
X027117Y015500D01*
X027331Y015500D02*
X027438Y015607D01*
X027544Y015607D01*
X027544Y015180D01*
M02*
