G75*
%MOIN*%
%OFA0B0*%
%FSLAX24Y24*%
%IPPOS*%
%LPD*%
%AMOC8*
5,1,8,0,0,1.08239X$1,22.5*
%
%ADD10R,0.0375X0.0414*%
%ADD11R,0.0710X0.0710*%
%ADD12C,0.0710*%
%ADD13C,0.1560*%
%ADD14C,0.0828*%
%ADD15C,0.1060*%
%ADD16C,0.0800*%
%ADD17C,0.1710*%
%ADD18C,0.0436*%
%ADD19C,0.0510*%
D10*
X034926Y012494D03*
X035674Y012494D03*
X035300Y011706D03*
X038800Y014206D03*
X038426Y014994D03*
X039174Y014994D03*
D11*
X037831Y012584D03*
X039800Y011600D03*
X004769Y017616D03*
X002800Y018600D03*
D12*
X002800Y016631D03*
X004769Y015647D03*
X037831Y016521D03*
X039800Y015537D03*
X037831Y014553D03*
X039800Y013569D03*
D13*
X040300Y005600D03*
X023300Y005600D03*
X019300Y005600D03*
X019300Y012100D03*
X002300Y012100D03*
X002300Y005600D03*
D14*
X033206Y010624D03*
X033206Y013576D03*
D15*
X027300Y013576D03*
X025331Y013576D03*
X023363Y013576D03*
X023363Y010624D03*
X025331Y010624D03*
X027300Y010624D03*
D16*
X032300Y017600D03*
X032300Y023600D03*
X014300Y019600D03*
X008300Y019600D03*
D17*
X001550Y001350D03*
X001552Y023350D03*
X040800Y001350D03*
X041300Y023350D03*
D18*
X030400Y020500D03*
X027800Y019700D03*
X023600Y017500D03*
X021200Y018700D03*
X021000Y022100D03*
X020500Y023200D03*
X028200Y022600D03*
D19*
X038300Y018100D03*
M02*
