G75*
%MOIN*%
%OFA0B0*%
%FSLAX24Y24*%
%IPPOS*%
%LPD*%
%AMOC8*
5,1,8,0,0,1.08239X$1,22.5*
%
%ADD10R,0.0710X0.0710*%
%ADD11C,0.0710*%
%ADD12C,0.1560*%
%ADD13C,0.0828*%
%ADD14C,0.1060*%
%ADD15R,0.0572X0.0651*%
%ADD16R,0.0800X0.0658*%
%ADD17R,0.0540X0.0304*%
%ADD18C,0.0800*%
%ADD19R,0.2186X0.2501*%
%ADD20R,0.0454X0.0690*%
%ADD21R,0.0414X0.0375*%
%ADD22R,0.0414X0.0336*%
%ADD23R,0.0336X0.0414*%
%ADD24R,0.0926X0.0296*%
%ADD25R,0.0493X0.0454*%
%ADD26R,0.0454X0.0493*%
%ADD27R,0.1005X0.1005*%
%ADD28C,0.1710*%
%ADD29C,0.0436*%
%ADD30C,0.0510*%
D10*
X004769Y017616D03*
X002800Y018600D03*
X037831Y012584D03*
X039800Y011600D03*
D11*
X039800Y013569D03*
X037831Y014553D03*
X039800Y015537D03*
X037831Y016521D03*
X004769Y015647D03*
X002800Y016631D03*
D12*
X002300Y012100D03*
X002300Y005600D03*
X019300Y005600D03*
X023300Y005600D03*
X019300Y012100D03*
X040300Y005600D03*
D13*
X033206Y010624D03*
X033206Y013576D03*
D14*
X027300Y013576D03*
X025331Y013576D03*
X023363Y013576D03*
X023363Y010624D03*
X025331Y010624D03*
X027300Y010624D03*
D15*
X023674Y019600D03*
X022926Y019600D03*
D16*
X020469Y019537D03*
X020469Y018537D03*
X020469Y020537D03*
X016690Y020537D03*
X016690Y019537D03*
X016690Y018537D03*
D17*
X029024Y021155D03*
X029024Y021529D03*
X029024Y021903D03*
X030166Y021903D03*
X030166Y021529D03*
X030166Y021155D03*
D18*
X032300Y023600D03*
X032300Y017600D03*
X014300Y019600D03*
X008300Y019600D03*
D19*
X035800Y020584D03*
D20*
X034902Y017710D03*
X036698Y017710D03*
D21*
X030694Y018100D03*
X029906Y017726D03*
X029906Y018474D03*
D22*
X029900Y019244D03*
X029900Y019756D03*
D23*
X039044Y018100D03*
X039556Y018100D03*
D24*
X025324Y020850D03*
X025324Y021350D03*
X025324Y021850D03*
X025324Y022350D03*
X023276Y022350D03*
X023276Y021850D03*
X023276Y021350D03*
X023276Y020850D03*
D25*
X024965Y019600D03*
X025635Y019600D03*
X026965Y021100D03*
X027635Y021100D03*
X027635Y022600D03*
X026965Y022600D03*
X021635Y022600D03*
X020965Y022600D03*
X020135Y022600D03*
X019465Y022600D03*
D26*
X027300Y019635D03*
X027300Y018965D03*
D27*
X013166Y016600D03*
X011434Y016600D03*
D28*
X001550Y001350D03*
X001552Y023350D03*
X040800Y001350D03*
X041300Y023350D03*
D29*
X030400Y020500D03*
X027800Y019700D03*
X023600Y017500D03*
X021200Y018700D03*
X021000Y022100D03*
X020500Y023200D03*
X028200Y022600D03*
D30*
X038300Y018100D03*
M02*
