G75*
%MOIN*%
%OFA0B0*%
%FSLAX24Y24*%
%IPPOS*%
%LPD*%
%AMOC8*
5,1,8,0,0,1.08239X$1,22.5*
%
%ADD10C,0.0000*%
%ADD11R,0.0591X0.0413*%
%ADD12R,0.0591X0.0945*%
%ADD13R,0.0531X0.0591*%
%ADD14R,0.0591X0.0512*%
%ADD15R,0.0512X0.0591*%
%ADD16R,0.2165X0.0925*%
%ADD17R,0.0315X0.0472*%
%ADD18R,0.0433X0.0394*%
%ADD19R,0.0925X0.2165*%
%ADD20R,0.0740X0.0740*%
%ADD21C,0.0740*%
%ADD22R,0.0394X0.0433*%
%ADD23R,0.0472X0.0315*%
%ADD24R,0.0472X0.0276*%
%ADD25R,0.0551X0.0551*%
%ADD26R,0.0394X0.0709*%
%ADD27R,0.0500X0.0858*%
%ADD28R,0.0220X0.0470*%
%ADD29R,0.0470X0.0220*%
%ADD30R,0.0260X0.0800*%
%ADD31R,0.0394X0.0551*%
%ADD32C,0.0030*%
%ADD33R,0.0472X0.0630*%
%ADD34R,0.0472X0.0472*%
%ADD35R,0.0760X0.2100*%
%ADD36R,0.0394X0.1000*%
%ADD37R,0.0110X0.0490*%
%ADD38R,0.2030X0.2030*%
%ADD39C,0.0270*%
%ADD40R,0.0217X0.0472*%
%ADD41R,0.0098X0.0591*%
%ADD42R,0.1654X0.1181*%
%ADD43R,0.0630X0.0220*%
%ADD44R,0.0120X0.0590*%
%ADD45R,0.0710X0.0870*%
%ADD46R,0.0250X0.0500*%
%ADD47R,0.1280X0.0984*%
%ADD48R,0.0315X0.0384*%
%ADD49R,0.0709X0.0394*%
%ADD50C,0.0160*%
%ADD51C,0.0340*%
%ADD52C,0.0400*%
%ADD53C,0.0120*%
%ADD54C,0.0200*%
%ADD55C,0.0180*%
%ADD56C,0.0100*%
%ADD57C,0.0060*%
%ADD58C,0.1650*%
%ADD59C,0.0150*%
%ADD60C,0.1400*%
%ADD61C,0.0600*%
%ADD62C,0.0300*%
%ADD63C,0.0250*%
%ADD64C,0.0220*%
%ADD65C,0.0075*%
D10*
X000800Y005519D02*
X000800Y037519D01*
X050800Y037519D01*
X050800Y005519D01*
X000800Y005519D01*
D11*
X006030Y012564D03*
D12*
X006030Y013499D03*
D13*
X008213Y008649D03*
X009847Y008649D03*
D14*
X035530Y008525D03*
X035530Y009273D03*
X044030Y021525D03*
X044030Y022273D03*
X041030Y025025D03*
X041030Y025773D03*
X039280Y025773D03*
X039280Y025025D03*
D15*
X036464Y026779D03*
X035716Y026779D03*
X031904Y028899D03*
X031156Y028899D03*
X031156Y030899D03*
X031904Y030899D03*
X040416Y016879D03*
X041164Y016879D03*
X042906Y012149D03*
X043654Y012149D03*
X043654Y010649D03*
X042906Y010649D03*
X041654Y011149D03*
X040906Y011149D03*
X036714Y011659D03*
X035966Y011659D03*
X035926Y010569D03*
X036674Y010569D03*
D16*
X016530Y018297D03*
X016530Y020501D03*
X016280Y022797D03*
X016280Y025001D03*
X006530Y020251D03*
X006530Y018047D03*
D17*
X024676Y014399D03*
X025384Y014399D03*
X038586Y017639D03*
X039294Y017639D03*
D18*
X025365Y016399D03*
X024695Y016399D03*
X024695Y015399D03*
X025365Y015399D03*
X019365Y023399D03*
X018695Y023399D03*
X018115Y026899D03*
X017445Y026899D03*
X016365Y026899D03*
X015695Y026899D03*
X014615Y026899D03*
X013945Y026899D03*
X012865Y026899D03*
X012195Y026899D03*
X012945Y029399D03*
X013615Y029399D03*
X014445Y029399D03*
X015115Y029399D03*
X015945Y029399D03*
X016615Y029399D03*
X017445Y029399D03*
X018115Y029399D03*
D19*
X020928Y014899D03*
X023132Y014899D03*
D20*
X037840Y006229D03*
X013030Y034899D03*
D21*
X014030Y034899D03*
X015030Y034899D03*
X016030Y034899D03*
X017030Y034899D03*
X018030Y034899D03*
X019030Y034899D03*
X020030Y034899D03*
X044160Y035139D03*
X044160Y034139D03*
X045490Y034059D03*
X045490Y033059D03*
X045490Y032059D03*
X045490Y031059D03*
X044030Y030649D03*
X044030Y029649D03*
X044030Y028649D03*
X044030Y027649D03*
X044030Y031649D03*
X045490Y035059D03*
X044160Y036139D03*
X043840Y006229D03*
X042840Y006229D03*
X041840Y006229D03*
X040840Y006229D03*
X039840Y006229D03*
X038840Y006229D03*
X044840Y006229D03*
X015800Y006469D03*
D22*
X011530Y011064D03*
X011530Y011734D03*
X010530Y011734D03*
X010530Y011064D03*
X009530Y011064D03*
X009530Y011734D03*
X008530Y011734D03*
X008530Y011064D03*
X008530Y016064D03*
X008530Y016734D03*
X007530Y016734D03*
X007530Y016064D03*
X009530Y016064D03*
X009530Y016734D03*
X010530Y016734D03*
X010530Y016064D03*
X021030Y024564D03*
X021030Y025234D03*
D23*
X006030Y015253D03*
X006030Y014545D03*
X009530Y006753D03*
X009530Y006045D03*
X010530Y006045D03*
X010530Y006753D03*
X011530Y006753D03*
X011530Y006045D03*
X012530Y006045D03*
X012530Y006753D03*
D24*
X035322Y025779D03*
X036778Y025779D03*
D25*
X019280Y020397D03*
X019280Y018901D03*
D26*
X042729Y009149D03*
X043831Y009149D03*
D27*
X031540Y033408D03*
X030540Y033408D03*
X029540Y033408D03*
X029540Y035810D03*
X030540Y035810D03*
X031540Y035810D03*
D28*
X035418Y033954D03*
X035733Y033954D03*
X036048Y033954D03*
X036363Y033954D03*
X036678Y033954D03*
X036993Y033954D03*
X037308Y033954D03*
X037623Y033954D03*
X037937Y033954D03*
X038252Y033954D03*
X038567Y033954D03*
X038882Y033954D03*
X039197Y033954D03*
X039512Y033954D03*
X039827Y033954D03*
X040142Y033954D03*
X040142Y027844D03*
X039827Y027844D03*
X039512Y027844D03*
X039197Y027844D03*
X038882Y027844D03*
X038567Y027844D03*
X038252Y027844D03*
X037937Y027844D03*
X037623Y027844D03*
X037308Y027844D03*
X036993Y027844D03*
X036678Y027844D03*
X036363Y027844D03*
X036048Y027844D03*
X035733Y027844D03*
X035418Y027844D03*
D29*
X034725Y028537D03*
X034725Y028852D03*
X034725Y029167D03*
X034725Y029482D03*
X034725Y029797D03*
X034725Y030112D03*
X034725Y030427D03*
X034725Y030742D03*
X034725Y031056D03*
X034725Y031371D03*
X034725Y031686D03*
X034725Y032001D03*
X034725Y032316D03*
X034725Y032631D03*
X034725Y032946D03*
X034725Y033261D03*
X040835Y033261D03*
X040835Y032946D03*
X040835Y032631D03*
X040835Y032316D03*
X040835Y032001D03*
X040835Y031686D03*
X040835Y031371D03*
X040835Y031056D03*
X040835Y030742D03*
X040835Y030427D03*
X040835Y030112D03*
X040835Y029797D03*
X040835Y029482D03*
X040835Y029167D03*
X040835Y028852D03*
X040835Y028537D03*
D30*
X042780Y026109D03*
X043280Y026109D03*
X043780Y026109D03*
X044280Y026109D03*
X044280Y023689D03*
X043780Y023689D03*
X043280Y023689D03*
X042780Y023689D03*
D31*
X043780Y020582D03*
X043406Y019716D03*
X044154Y019716D03*
D32*
X043503Y016356D02*
X043383Y016356D01*
X043503Y016356D02*
X043503Y015796D01*
X043383Y015796D01*
X043383Y016356D01*
X043383Y015825D02*
X043503Y015825D01*
X043503Y015854D02*
X043383Y015854D01*
X043383Y015883D02*
X043503Y015883D01*
X043503Y015912D02*
X043383Y015912D01*
X043383Y015941D02*
X043503Y015941D01*
X043503Y015970D02*
X043383Y015970D01*
X043383Y015999D02*
X043503Y015999D01*
X043503Y016028D02*
X043383Y016028D01*
X043383Y016057D02*
X043503Y016057D01*
X043503Y016086D02*
X043383Y016086D01*
X043383Y016115D02*
X043503Y016115D01*
X043503Y016144D02*
X043383Y016144D01*
X043383Y016173D02*
X043503Y016173D01*
X043503Y016202D02*
X043383Y016202D01*
X043383Y016231D02*
X043503Y016231D01*
X043503Y016260D02*
X043383Y016260D01*
X043383Y016289D02*
X043503Y016289D01*
X043503Y016318D02*
X043383Y016318D01*
X043383Y016347D02*
X043503Y016347D01*
X043247Y016356D02*
X043127Y016356D01*
X043247Y016356D02*
X043247Y015796D01*
X043127Y015796D01*
X043127Y016356D01*
X043127Y015825D02*
X043247Y015825D01*
X043247Y015854D02*
X043127Y015854D01*
X043127Y015883D02*
X043247Y015883D01*
X043247Y015912D02*
X043127Y015912D01*
X043127Y015941D02*
X043247Y015941D01*
X043247Y015970D02*
X043127Y015970D01*
X043127Y015999D02*
X043247Y015999D01*
X043247Y016028D02*
X043127Y016028D01*
X043127Y016057D02*
X043247Y016057D01*
X043247Y016086D02*
X043127Y016086D01*
X043127Y016115D02*
X043247Y016115D01*
X043247Y016144D02*
X043127Y016144D01*
X043127Y016173D02*
X043247Y016173D01*
X043247Y016202D02*
X043127Y016202D01*
X043127Y016231D02*
X043247Y016231D01*
X043247Y016260D02*
X043127Y016260D01*
X043127Y016289D02*
X043247Y016289D01*
X043247Y016318D02*
X043127Y016318D01*
X043127Y016347D02*
X043247Y016347D01*
X042992Y016356D02*
X042872Y016356D01*
X042992Y016356D02*
X042992Y015796D01*
X042872Y015796D01*
X042872Y016356D01*
X042872Y015825D02*
X042992Y015825D01*
X042992Y015854D02*
X042872Y015854D01*
X042872Y015883D02*
X042992Y015883D01*
X042992Y015912D02*
X042872Y015912D01*
X042872Y015941D02*
X042992Y015941D01*
X042992Y015970D02*
X042872Y015970D01*
X042872Y015999D02*
X042992Y015999D01*
X042992Y016028D02*
X042872Y016028D01*
X042872Y016057D02*
X042992Y016057D01*
X042992Y016086D02*
X042872Y016086D01*
X042872Y016115D02*
X042992Y016115D01*
X042992Y016144D02*
X042872Y016144D01*
X042872Y016173D02*
X042992Y016173D01*
X042992Y016202D02*
X042872Y016202D01*
X042872Y016231D02*
X042992Y016231D01*
X042992Y016260D02*
X042872Y016260D01*
X042872Y016289D02*
X042992Y016289D01*
X042992Y016318D02*
X042872Y016318D01*
X042872Y016347D02*
X042992Y016347D01*
X042736Y016356D02*
X042616Y016356D01*
X042736Y016356D02*
X042736Y015796D01*
X042616Y015796D01*
X042616Y016356D01*
X042616Y015825D02*
X042736Y015825D01*
X042736Y015854D02*
X042616Y015854D01*
X042616Y015883D02*
X042736Y015883D01*
X042736Y015912D02*
X042616Y015912D01*
X042616Y015941D02*
X042736Y015941D01*
X042736Y015970D02*
X042616Y015970D01*
X042616Y015999D02*
X042736Y015999D01*
X042736Y016028D02*
X042616Y016028D01*
X042616Y016057D02*
X042736Y016057D01*
X042736Y016086D02*
X042616Y016086D01*
X042616Y016115D02*
X042736Y016115D01*
X042736Y016144D02*
X042616Y016144D01*
X042616Y016173D02*
X042736Y016173D01*
X042736Y016202D02*
X042616Y016202D01*
X042616Y016231D02*
X042736Y016231D01*
X042736Y016260D02*
X042616Y016260D01*
X042616Y016289D02*
X042736Y016289D01*
X042736Y016318D02*
X042616Y016318D01*
X042616Y016347D02*
X042736Y016347D01*
X042480Y016356D02*
X042360Y016356D01*
X042480Y016356D02*
X042480Y015796D01*
X042360Y015796D01*
X042360Y016356D01*
X042360Y015825D02*
X042480Y015825D01*
X042480Y015854D02*
X042360Y015854D01*
X042360Y015883D02*
X042480Y015883D01*
X042480Y015912D02*
X042360Y015912D01*
X042360Y015941D02*
X042480Y015941D01*
X042480Y015970D02*
X042360Y015970D01*
X042360Y015999D02*
X042480Y015999D01*
X042480Y016028D02*
X042360Y016028D01*
X042360Y016057D02*
X042480Y016057D01*
X042480Y016086D02*
X042360Y016086D01*
X042360Y016115D02*
X042480Y016115D01*
X042480Y016144D02*
X042360Y016144D01*
X042360Y016173D02*
X042480Y016173D01*
X042480Y016202D02*
X042360Y016202D01*
X042360Y016231D02*
X042480Y016231D01*
X042480Y016260D02*
X042360Y016260D01*
X042360Y016289D02*
X042480Y016289D01*
X042480Y016318D02*
X042360Y016318D01*
X042360Y016347D02*
X042480Y016347D01*
X042224Y016356D02*
X042104Y016356D01*
X042224Y016356D02*
X042224Y015796D01*
X042104Y015796D01*
X042104Y016356D01*
X042104Y015825D02*
X042224Y015825D01*
X042224Y015854D02*
X042104Y015854D01*
X042104Y015883D02*
X042224Y015883D01*
X042224Y015912D02*
X042104Y015912D01*
X042104Y015941D02*
X042224Y015941D01*
X042224Y015970D02*
X042104Y015970D01*
X042104Y015999D02*
X042224Y015999D01*
X042224Y016028D02*
X042104Y016028D01*
X042104Y016057D02*
X042224Y016057D01*
X042224Y016086D02*
X042104Y016086D01*
X042104Y016115D02*
X042224Y016115D01*
X042224Y016144D02*
X042104Y016144D01*
X042104Y016173D02*
X042224Y016173D01*
X042224Y016202D02*
X042104Y016202D01*
X042104Y016231D02*
X042224Y016231D01*
X042224Y016260D02*
X042104Y016260D01*
X042104Y016289D02*
X042224Y016289D01*
X042224Y016318D02*
X042104Y016318D01*
X042104Y016347D02*
X042224Y016347D01*
X041968Y016356D02*
X041848Y016356D01*
X041968Y016356D02*
X041968Y015796D01*
X041848Y015796D01*
X041848Y016356D01*
X041848Y015825D02*
X041968Y015825D01*
X041968Y015854D02*
X041848Y015854D01*
X041848Y015883D02*
X041968Y015883D01*
X041968Y015912D02*
X041848Y015912D01*
X041848Y015941D02*
X041968Y015941D01*
X041968Y015970D02*
X041848Y015970D01*
X041848Y015999D02*
X041968Y015999D01*
X041968Y016028D02*
X041848Y016028D01*
X041848Y016057D02*
X041968Y016057D01*
X041968Y016086D02*
X041848Y016086D01*
X041848Y016115D02*
X041968Y016115D01*
X041968Y016144D02*
X041848Y016144D01*
X041848Y016173D02*
X041968Y016173D01*
X041968Y016202D02*
X041848Y016202D01*
X041848Y016231D02*
X041968Y016231D01*
X041968Y016260D02*
X041848Y016260D01*
X041848Y016289D02*
X041968Y016289D01*
X041968Y016318D02*
X041848Y016318D01*
X041848Y016347D02*
X041968Y016347D01*
X041712Y016356D02*
X041592Y016356D01*
X041712Y016356D02*
X041712Y015796D01*
X041592Y015796D01*
X041592Y016356D01*
X041592Y015825D02*
X041712Y015825D01*
X041712Y015854D02*
X041592Y015854D01*
X041592Y015883D02*
X041712Y015883D01*
X041712Y015912D02*
X041592Y015912D01*
X041592Y015941D02*
X041712Y015941D01*
X041712Y015970D02*
X041592Y015970D01*
X041592Y015999D02*
X041712Y015999D01*
X041712Y016028D02*
X041592Y016028D01*
X041592Y016057D02*
X041712Y016057D01*
X041712Y016086D02*
X041592Y016086D01*
X041592Y016115D02*
X041712Y016115D01*
X041712Y016144D02*
X041592Y016144D01*
X041592Y016173D02*
X041712Y016173D01*
X041712Y016202D02*
X041592Y016202D01*
X041592Y016231D02*
X041712Y016231D01*
X041712Y016260D02*
X041592Y016260D01*
X041592Y016289D02*
X041712Y016289D01*
X041712Y016318D02*
X041592Y016318D01*
X041592Y016347D02*
X041712Y016347D01*
X041456Y016356D02*
X041336Y016356D01*
X041456Y016356D02*
X041456Y015796D01*
X041336Y015796D01*
X041336Y016356D01*
X041336Y015825D02*
X041456Y015825D01*
X041456Y015854D02*
X041336Y015854D01*
X041336Y015883D02*
X041456Y015883D01*
X041456Y015912D02*
X041336Y015912D01*
X041336Y015941D02*
X041456Y015941D01*
X041456Y015970D02*
X041336Y015970D01*
X041336Y015999D02*
X041456Y015999D01*
X041456Y016028D02*
X041336Y016028D01*
X041336Y016057D02*
X041456Y016057D01*
X041456Y016086D02*
X041336Y016086D01*
X041336Y016115D02*
X041456Y016115D01*
X041456Y016144D02*
X041336Y016144D01*
X041336Y016173D02*
X041456Y016173D01*
X041456Y016202D02*
X041336Y016202D01*
X041336Y016231D02*
X041456Y016231D01*
X041456Y016260D02*
X041336Y016260D01*
X041336Y016289D02*
X041456Y016289D01*
X041456Y016318D02*
X041336Y016318D01*
X041336Y016347D02*
X041456Y016347D01*
X041200Y016356D02*
X041080Y016356D01*
X041200Y016356D02*
X041200Y015796D01*
X041080Y015796D01*
X041080Y016356D01*
X041080Y015825D02*
X041200Y015825D01*
X041200Y015854D02*
X041080Y015854D01*
X041080Y015883D02*
X041200Y015883D01*
X041200Y015912D02*
X041080Y015912D01*
X041080Y015941D02*
X041200Y015941D01*
X041200Y015970D02*
X041080Y015970D01*
X041080Y015999D02*
X041200Y015999D01*
X041200Y016028D02*
X041080Y016028D01*
X041080Y016057D02*
X041200Y016057D01*
X041200Y016086D02*
X041080Y016086D01*
X041080Y016115D02*
X041200Y016115D01*
X041200Y016144D02*
X041080Y016144D01*
X041080Y016173D02*
X041200Y016173D01*
X041200Y016202D02*
X041080Y016202D01*
X041080Y016231D02*
X041200Y016231D01*
X041200Y016260D02*
X041080Y016260D01*
X041080Y016289D02*
X041200Y016289D01*
X041200Y016318D02*
X041080Y016318D01*
X041080Y016347D02*
X041200Y016347D01*
X040944Y016356D02*
X040824Y016356D01*
X040944Y016356D02*
X040944Y015796D01*
X040824Y015796D01*
X040824Y016356D01*
X040824Y015825D02*
X040944Y015825D01*
X040944Y015854D02*
X040824Y015854D01*
X040824Y015883D02*
X040944Y015883D01*
X040944Y015912D02*
X040824Y015912D01*
X040824Y015941D02*
X040944Y015941D01*
X040944Y015970D02*
X040824Y015970D01*
X040824Y015999D02*
X040944Y015999D01*
X040944Y016028D02*
X040824Y016028D01*
X040824Y016057D02*
X040944Y016057D01*
X040944Y016086D02*
X040824Y016086D01*
X040824Y016115D02*
X040944Y016115D01*
X040944Y016144D02*
X040824Y016144D01*
X040824Y016173D02*
X040944Y016173D01*
X040944Y016202D02*
X040824Y016202D01*
X040824Y016231D02*
X040944Y016231D01*
X040944Y016260D02*
X040824Y016260D01*
X040824Y016289D02*
X040944Y016289D01*
X040944Y016318D02*
X040824Y016318D01*
X040824Y016347D02*
X040944Y016347D01*
X040688Y016356D02*
X040568Y016356D01*
X040688Y016356D02*
X040688Y015796D01*
X040568Y015796D01*
X040568Y016356D01*
X040568Y015825D02*
X040688Y015825D01*
X040688Y015854D02*
X040568Y015854D01*
X040568Y015883D02*
X040688Y015883D01*
X040688Y015912D02*
X040568Y015912D01*
X040568Y015941D02*
X040688Y015941D01*
X040688Y015970D02*
X040568Y015970D01*
X040568Y015999D02*
X040688Y015999D01*
X040688Y016028D02*
X040568Y016028D01*
X040568Y016057D02*
X040688Y016057D01*
X040688Y016086D02*
X040568Y016086D01*
X040568Y016115D02*
X040688Y016115D01*
X040688Y016144D02*
X040568Y016144D01*
X040568Y016173D02*
X040688Y016173D01*
X040688Y016202D02*
X040568Y016202D01*
X040568Y016231D02*
X040688Y016231D01*
X040688Y016260D02*
X040568Y016260D01*
X040568Y016289D02*
X040688Y016289D01*
X040688Y016318D02*
X040568Y016318D01*
X040568Y016347D02*
X040688Y016347D01*
X040433Y016356D02*
X040313Y016356D01*
X040433Y016356D02*
X040433Y015796D01*
X040313Y015796D01*
X040313Y016356D01*
X040313Y015825D02*
X040433Y015825D01*
X040433Y015854D02*
X040313Y015854D01*
X040313Y015883D02*
X040433Y015883D01*
X040433Y015912D02*
X040313Y015912D01*
X040313Y015941D02*
X040433Y015941D01*
X040433Y015970D02*
X040313Y015970D01*
X040313Y015999D02*
X040433Y015999D01*
X040433Y016028D02*
X040313Y016028D01*
X040313Y016057D02*
X040433Y016057D01*
X040433Y016086D02*
X040313Y016086D01*
X040313Y016115D02*
X040433Y016115D01*
X040433Y016144D02*
X040313Y016144D01*
X040313Y016173D02*
X040433Y016173D01*
X040433Y016202D02*
X040313Y016202D01*
X040313Y016231D02*
X040433Y016231D01*
X040433Y016260D02*
X040313Y016260D01*
X040313Y016289D02*
X040433Y016289D01*
X040433Y016318D02*
X040313Y016318D01*
X040313Y016347D02*
X040433Y016347D01*
X040177Y016356D02*
X040057Y016356D01*
X040177Y016356D02*
X040177Y015796D01*
X040057Y015796D01*
X040057Y016356D01*
X040057Y015825D02*
X040177Y015825D01*
X040177Y015854D02*
X040057Y015854D01*
X040057Y015883D02*
X040177Y015883D01*
X040177Y015912D02*
X040057Y015912D01*
X040057Y015941D02*
X040177Y015941D01*
X040177Y015970D02*
X040057Y015970D01*
X040057Y015999D02*
X040177Y015999D01*
X040177Y016028D02*
X040057Y016028D01*
X040057Y016057D02*
X040177Y016057D01*
X040177Y016086D02*
X040057Y016086D01*
X040057Y016115D02*
X040177Y016115D01*
X040177Y016144D02*
X040057Y016144D01*
X040057Y016173D02*
X040177Y016173D01*
X040177Y016202D02*
X040057Y016202D01*
X040057Y016231D02*
X040177Y016231D01*
X040177Y016260D02*
X040057Y016260D01*
X040057Y016289D02*
X040177Y016289D01*
X040177Y016318D02*
X040057Y016318D01*
X040057Y016347D02*
X040177Y016347D01*
X040177Y013502D02*
X040057Y013502D01*
X040177Y013502D02*
X040177Y012942D01*
X040057Y012942D01*
X040057Y013502D01*
X040057Y012971D02*
X040177Y012971D01*
X040177Y013000D02*
X040057Y013000D01*
X040057Y013029D02*
X040177Y013029D01*
X040177Y013058D02*
X040057Y013058D01*
X040057Y013087D02*
X040177Y013087D01*
X040177Y013116D02*
X040057Y013116D01*
X040057Y013145D02*
X040177Y013145D01*
X040177Y013174D02*
X040057Y013174D01*
X040057Y013203D02*
X040177Y013203D01*
X040177Y013232D02*
X040057Y013232D01*
X040057Y013261D02*
X040177Y013261D01*
X040177Y013290D02*
X040057Y013290D01*
X040057Y013319D02*
X040177Y013319D01*
X040177Y013348D02*
X040057Y013348D01*
X040057Y013377D02*
X040177Y013377D01*
X040177Y013406D02*
X040057Y013406D01*
X040057Y013435D02*
X040177Y013435D01*
X040177Y013464D02*
X040057Y013464D01*
X040057Y013493D02*
X040177Y013493D01*
X040313Y013502D02*
X040433Y013502D01*
X040433Y012942D01*
X040313Y012942D01*
X040313Y013502D01*
X040313Y012971D02*
X040433Y012971D01*
X040433Y013000D02*
X040313Y013000D01*
X040313Y013029D02*
X040433Y013029D01*
X040433Y013058D02*
X040313Y013058D01*
X040313Y013087D02*
X040433Y013087D01*
X040433Y013116D02*
X040313Y013116D01*
X040313Y013145D02*
X040433Y013145D01*
X040433Y013174D02*
X040313Y013174D01*
X040313Y013203D02*
X040433Y013203D01*
X040433Y013232D02*
X040313Y013232D01*
X040313Y013261D02*
X040433Y013261D01*
X040433Y013290D02*
X040313Y013290D01*
X040313Y013319D02*
X040433Y013319D01*
X040433Y013348D02*
X040313Y013348D01*
X040313Y013377D02*
X040433Y013377D01*
X040433Y013406D02*
X040313Y013406D01*
X040313Y013435D02*
X040433Y013435D01*
X040433Y013464D02*
X040313Y013464D01*
X040313Y013493D02*
X040433Y013493D01*
X040568Y013502D02*
X040688Y013502D01*
X040688Y012942D01*
X040568Y012942D01*
X040568Y013502D01*
X040568Y012971D02*
X040688Y012971D01*
X040688Y013000D02*
X040568Y013000D01*
X040568Y013029D02*
X040688Y013029D01*
X040688Y013058D02*
X040568Y013058D01*
X040568Y013087D02*
X040688Y013087D01*
X040688Y013116D02*
X040568Y013116D01*
X040568Y013145D02*
X040688Y013145D01*
X040688Y013174D02*
X040568Y013174D01*
X040568Y013203D02*
X040688Y013203D01*
X040688Y013232D02*
X040568Y013232D01*
X040568Y013261D02*
X040688Y013261D01*
X040688Y013290D02*
X040568Y013290D01*
X040568Y013319D02*
X040688Y013319D01*
X040688Y013348D02*
X040568Y013348D01*
X040568Y013377D02*
X040688Y013377D01*
X040688Y013406D02*
X040568Y013406D01*
X040568Y013435D02*
X040688Y013435D01*
X040688Y013464D02*
X040568Y013464D01*
X040568Y013493D02*
X040688Y013493D01*
X040824Y013502D02*
X040944Y013502D01*
X040944Y012942D01*
X040824Y012942D01*
X040824Y013502D01*
X040824Y012971D02*
X040944Y012971D01*
X040944Y013000D02*
X040824Y013000D01*
X040824Y013029D02*
X040944Y013029D01*
X040944Y013058D02*
X040824Y013058D01*
X040824Y013087D02*
X040944Y013087D01*
X040944Y013116D02*
X040824Y013116D01*
X040824Y013145D02*
X040944Y013145D01*
X040944Y013174D02*
X040824Y013174D01*
X040824Y013203D02*
X040944Y013203D01*
X040944Y013232D02*
X040824Y013232D01*
X040824Y013261D02*
X040944Y013261D01*
X040944Y013290D02*
X040824Y013290D01*
X040824Y013319D02*
X040944Y013319D01*
X040944Y013348D02*
X040824Y013348D01*
X040824Y013377D02*
X040944Y013377D01*
X040944Y013406D02*
X040824Y013406D01*
X040824Y013435D02*
X040944Y013435D01*
X040944Y013464D02*
X040824Y013464D01*
X040824Y013493D02*
X040944Y013493D01*
X041080Y013502D02*
X041200Y013502D01*
X041200Y012942D01*
X041080Y012942D01*
X041080Y013502D01*
X041080Y012971D02*
X041200Y012971D01*
X041200Y013000D02*
X041080Y013000D01*
X041080Y013029D02*
X041200Y013029D01*
X041200Y013058D02*
X041080Y013058D01*
X041080Y013087D02*
X041200Y013087D01*
X041200Y013116D02*
X041080Y013116D01*
X041080Y013145D02*
X041200Y013145D01*
X041200Y013174D02*
X041080Y013174D01*
X041080Y013203D02*
X041200Y013203D01*
X041200Y013232D02*
X041080Y013232D01*
X041080Y013261D02*
X041200Y013261D01*
X041200Y013290D02*
X041080Y013290D01*
X041080Y013319D02*
X041200Y013319D01*
X041200Y013348D02*
X041080Y013348D01*
X041080Y013377D02*
X041200Y013377D01*
X041200Y013406D02*
X041080Y013406D01*
X041080Y013435D02*
X041200Y013435D01*
X041200Y013464D02*
X041080Y013464D01*
X041080Y013493D02*
X041200Y013493D01*
X041336Y013502D02*
X041456Y013502D01*
X041456Y012942D01*
X041336Y012942D01*
X041336Y013502D01*
X041336Y012971D02*
X041456Y012971D01*
X041456Y013000D02*
X041336Y013000D01*
X041336Y013029D02*
X041456Y013029D01*
X041456Y013058D02*
X041336Y013058D01*
X041336Y013087D02*
X041456Y013087D01*
X041456Y013116D02*
X041336Y013116D01*
X041336Y013145D02*
X041456Y013145D01*
X041456Y013174D02*
X041336Y013174D01*
X041336Y013203D02*
X041456Y013203D01*
X041456Y013232D02*
X041336Y013232D01*
X041336Y013261D02*
X041456Y013261D01*
X041456Y013290D02*
X041336Y013290D01*
X041336Y013319D02*
X041456Y013319D01*
X041456Y013348D02*
X041336Y013348D01*
X041336Y013377D02*
X041456Y013377D01*
X041456Y013406D02*
X041336Y013406D01*
X041336Y013435D02*
X041456Y013435D01*
X041456Y013464D02*
X041336Y013464D01*
X041336Y013493D02*
X041456Y013493D01*
X041592Y013502D02*
X041712Y013502D01*
X041712Y012942D01*
X041592Y012942D01*
X041592Y013502D01*
X041592Y012971D02*
X041712Y012971D01*
X041712Y013000D02*
X041592Y013000D01*
X041592Y013029D02*
X041712Y013029D01*
X041712Y013058D02*
X041592Y013058D01*
X041592Y013087D02*
X041712Y013087D01*
X041712Y013116D02*
X041592Y013116D01*
X041592Y013145D02*
X041712Y013145D01*
X041712Y013174D02*
X041592Y013174D01*
X041592Y013203D02*
X041712Y013203D01*
X041712Y013232D02*
X041592Y013232D01*
X041592Y013261D02*
X041712Y013261D01*
X041712Y013290D02*
X041592Y013290D01*
X041592Y013319D02*
X041712Y013319D01*
X041712Y013348D02*
X041592Y013348D01*
X041592Y013377D02*
X041712Y013377D01*
X041712Y013406D02*
X041592Y013406D01*
X041592Y013435D02*
X041712Y013435D01*
X041712Y013464D02*
X041592Y013464D01*
X041592Y013493D02*
X041712Y013493D01*
X041848Y013502D02*
X041968Y013502D01*
X041968Y012942D01*
X041848Y012942D01*
X041848Y013502D01*
X041848Y012971D02*
X041968Y012971D01*
X041968Y013000D02*
X041848Y013000D01*
X041848Y013029D02*
X041968Y013029D01*
X041968Y013058D02*
X041848Y013058D01*
X041848Y013087D02*
X041968Y013087D01*
X041968Y013116D02*
X041848Y013116D01*
X041848Y013145D02*
X041968Y013145D01*
X041968Y013174D02*
X041848Y013174D01*
X041848Y013203D02*
X041968Y013203D01*
X041968Y013232D02*
X041848Y013232D01*
X041848Y013261D02*
X041968Y013261D01*
X041968Y013290D02*
X041848Y013290D01*
X041848Y013319D02*
X041968Y013319D01*
X041968Y013348D02*
X041848Y013348D01*
X041848Y013377D02*
X041968Y013377D01*
X041968Y013406D02*
X041848Y013406D01*
X041848Y013435D02*
X041968Y013435D01*
X041968Y013464D02*
X041848Y013464D01*
X041848Y013493D02*
X041968Y013493D01*
X042104Y013502D02*
X042224Y013502D01*
X042224Y012942D01*
X042104Y012942D01*
X042104Y013502D01*
X042104Y012971D02*
X042224Y012971D01*
X042224Y013000D02*
X042104Y013000D01*
X042104Y013029D02*
X042224Y013029D01*
X042224Y013058D02*
X042104Y013058D01*
X042104Y013087D02*
X042224Y013087D01*
X042224Y013116D02*
X042104Y013116D01*
X042104Y013145D02*
X042224Y013145D01*
X042224Y013174D02*
X042104Y013174D01*
X042104Y013203D02*
X042224Y013203D01*
X042224Y013232D02*
X042104Y013232D01*
X042104Y013261D02*
X042224Y013261D01*
X042224Y013290D02*
X042104Y013290D01*
X042104Y013319D02*
X042224Y013319D01*
X042224Y013348D02*
X042104Y013348D01*
X042104Y013377D02*
X042224Y013377D01*
X042224Y013406D02*
X042104Y013406D01*
X042104Y013435D02*
X042224Y013435D01*
X042224Y013464D02*
X042104Y013464D01*
X042104Y013493D02*
X042224Y013493D01*
X042360Y013502D02*
X042480Y013502D01*
X042480Y012942D01*
X042360Y012942D01*
X042360Y013502D01*
X042360Y012971D02*
X042480Y012971D01*
X042480Y013000D02*
X042360Y013000D01*
X042360Y013029D02*
X042480Y013029D01*
X042480Y013058D02*
X042360Y013058D01*
X042360Y013087D02*
X042480Y013087D01*
X042480Y013116D02*
X042360Y013116D01*
X042360Y013145D02*
X042480Y013145D01*
X042480Y013174D02*
X042360Y013174D01*
X042360Y013203D02*
X042480Y013203D01*
X042480Y013232D02*
X042360Y013232D01*
X042360Y013261D02*
X042480Y013261D01*
X042480Y013290D02*
X042360Y013290D01*
X042360Y013319D02*
X042480Y013319D01*
X042480Y013348D02*
X042360Y013348D01*
X042360Y013377D02*
X042480Y013377D01*
X042480Y013406D02*
X042360Y013406D01*
X042360Y013435D02*
X042480Y013435D01*
X042480Y013464D02*
X042360Y013464D01*
X042360Y013493D02*
X042480Y013493D01*
X042616Y013502D02*
X042736Y013502D01*
X042736Y012942D01*
X042616Y012942D01*
X042616Y013502D01*
X042616Y012971D02*
X042736Y012971D01*
X042736Y013000D02*
X042616Y013000D01*
X042616Y013029D02*
X042736Y013029D01*
X042736Y013058D02*
X042616Y013058D01*
X042616Y013087D02*
X042736Y013087D01*
X042736Y013116D02*
X042616Y013116D01*
X042616Y013145D02*
X042736Y013145D01*
X042736Y013174D02*
X042616Y013174D01*
X042616Y013203D02*
X042736Y013203D01*
X042736Y013232D02*
X042616Y013232D01*
X042616Y013261D02*
X042736Y013261D01*
X042736Y013290D02*
X042616Y013290D01*
X042616Y013319D02*
X042736Y013319D01*
X042736Y013348D02*
X042616Y013348D01*
X042616Y013377D02*
X042736Y013377D01*
X042736Y013406D02*
X042616Y013406D01*
X042616Y013435D02*
X042736Y013435D01*
X042736Y013464D02*
X042616Y013464D01*
X042616Y013493D02*
X042736Y013493D01*
X042872Y013502D02*
X042992Y013502D01*
X042992Y012942D01*
X042872Y012942D01*
X042872Y013502D01*
X042872Y012971D02*
X042992Y012971D01*
X042992Y013000D02*
X042872Y013000D01*
X042872Y013029D02*
X042992Y013029D01*
X042992Y013058D02*
X042872Y013058D01*
X042872Y013087D02*
X042992Y013087D01*
X042992Y013116D02*
X042872Y013116D01*
X042872Y013145D02*
X042992Y013145D01*
X042992Y013174D02*
X042872Y013174D01*
X042872Y013203D02*
X042992Y013203D01*
X042992Y013232D02*
X042872Y013232D01*
X042872Y013261D02*
X042992Y013261D01*
X042992Y013290D02*
X042872Y013290D01*
X042872Y013319D02*
X042992Y013319D01*
X042992Y013348D02*
X042872Y013348D01*
X042872Y013377D02*
X042992Y013377D01*
X042992Y013406D02*
X042872Y013406D01*
X042872Y013435D02*
X042992Y013435D01*
X042992Y013464D02*
X042872Y013464D01*
X042872Y013493D02*
X042992Y013493D01*
X043127Y013502D02*
X043247Y013502D01*
X043247Y012942D01*
X043127Y012942D01*
X043127Y013502D01*
X043127Y012971D02*
X043247Y012971D01*
X043247Y013000D02*
X043127Y013000D01*
X043127Y013029D02*
X043247Y013029D01*
X043247Y013058D02*
X043127Y013058D01*
X043127Y013087D02*
X043247Y013087D01*
X043247Y013116D02*
X043127Y013116D01*
X043127Y013145D02*
X043247Y013145D01*
X043247Y013174D02*
X043127Y013174D01*
X043127Y013203D02*
X043247Y013203D01*
X043247Y013232D02*
X043127Y013232D01*
X043127Y013261D02*
X043247Y013261D01*
X043247Y013290D02*
X043127Y013290D01*
X043127Y013319D02*
X043247Y013319D01*
X043247Y013348D02*
X043127Y013348D01*
X043127Y013377D02*
X043247Y013377D01*
X043247Y013406D02*
X043127Y013406D01*
X043127Y013435D02*
X043247Y013435D01*
X043247Y013464D02*
X043127Y013464D01*
X043127Y013493D02*
X043247Y013493D01*
X043383Y013502D02*
X043503Y013502D01*
X043503Y012942D01*
X043383Y012942D01*
X043383Y013502D01*
X043383Y012971D02*
X043503Y012971D01*
X043503Y013000D02*
X043383Y013000D01*
X043383Y013029D02*
X043503Y013029D01*
X043503Y013058D02*
X043383Y013058D01*
X043383Y013087D02*
X043503Y013087D01*
X043503Y013116D02*
X043383Y013116D01*
X043383Y013145D02*
X043503Y013145D01*
X043503Y013174D02*
X043383Y013174D01*
X043383Y013203D02*
X043503Y013203D01*
X043503Y013232D02*
X043383Y013232D01*
X043383Y013261D02*
X043503Y013261D01*
X043503Y013290D02*
X043383Y013290D01*
X043383Y013319D02*
X043503Y013319D01*
X043503Y013348D02*
X043383Y013348D01*
X043383Y013377D02*
X043503Y013377D01*
X043503Y013406D02*
X043383Y013406D01*
X043383Y013435D02*
X043503Y013435D01*
X043503Y013464D02*
X043383Y013464D01*
X043383Y013493D02*
X043503Y013493D01*
D33*
X035621Y035899D03*
X034439Y035899D03*
D34*
X038117Y013149D03*
X038943Y013149D03*
X038943Y011399D03*
X038117Y011399D03*
X041280Y009312D03*
X041280Y008486D03*
D35*
X041500Y019249D03*
X041500Y023049D03*
D36*
X013530Y022799D03*
X009530Y022799D03*
X009530Y017999D03*
X010530Y017999D03*
X012530Y017999D03*
X013530Y017999D03*
D37*
G36*
X033675Y023079D02*
X033753Y023001D01*
X033407Y022655D01*
X033329Y022733D01*
X033675Y023079D01*
G37*
G36*
X033753Y023257D02*
X033675Y023179D01*
X033329Y023525D01*
X033407Y023603D01*
X033753Y023257D01*
G37*
G36*
X033887Y023391D02*
X033809Y023313D01*
X033463Y023659D01*
X033541Y023737D01*
X033887Y023391D01*
G37*
G36*
X034029Y023532D02*
X033951Y023454D01*
X033605Y023800D01*
X033683Y023878D01*
X034029Y023532D01*
G37*
G36*
X034170Y023674D02*
X034092Y023596D01*
X033746Y023942D01*
X033824Y024020D01*
X034170Y023674D01*
G37*
G36*
X034305Y023808D02*
X034227Y023730D01*
X033881Y024076D01*
X033959Y024154D01*
X034305Y023808D01*
G37*
G36*
X034446Y023950D02*
X034368Y023872D01*
X034022Y024218D01*
X034100Y024296D01*
X034446Y023950D01*
G37*
G36*
X034587Y024091D02*
X034509Y024013D01*
X034163Y024359D01*
X034241Y024437D01*
X034587Y024091D01*
G37*
G36*
X034729Y024232D02*
X034651Y024154D01*
X034305Y024500D01*
X034383Y024578D01*
X034729Y024232D01*
G37*
G36*
X034863Y024367D02*
X034785Y024289D01*
X034439Y024635D01*
X034517Y024713D01*
X034863Y024367D01*
G37*
G36*
X035005Y024508D02*
X034927Y024430D01*
X034581Y024776D01*
X034659Y024854D01*
X035005Y024508D01*
G37*
G36*
X035146Y024650D02*
X035068Y024572D01*
X034722Y024918D01*
X034800Y024996D01*
X035146Y024650D01*
G37*
G36*
X035280Y024784D02*
X035202Y024706D01*
X034856Y025052D01*
X034934Y025130D01*
X035280Y024784D01*
G37*
G36*
X035726Y025130D02*
X035804Y025052D01*
X035458Y024706D01*
X035380Y024784D01*
X035726Y025130D01*
G37*
G36*
X035860Y024996D02*
X035938Y024918D01*
X035592Y024572D01*
X035514Y024650D01*
X035860Y024996D01*
G37*
G36*
X036001Y024854D02*
X036079Y024776D01*
X035733Y024430D01*
X035655Y024508D01*
X036001Y024854D01*
G37*
G36*
X036143Y024713D02*
X036221Y024635D01*
X035875Y024289D01*
X035797Y024367D01*
X036143Y024713D01*
G37*
G36*
X036277Y024578D02*
X036355Y024500D01*
X036009Y024154D01*
X035931Y024232D01*
X036277Y024578D01*
G37*
G36*
X036419Y024437D02*
X036497Y024359D01*
X036151Y024013D01*
X036073Y024091D01*
X036419Y024437D01*
G37*
G36*
X036560Y024296D02*
X036638Y024218D01*
X036292Y023872D01*
X036214Y023950D01*
X036560Y024296D01*
G37*
G36*
X036701Y024154D02*
X036779Y024076D01*
X036433Y023730D01*
X036355Y023808D01*
X036701Y024154D01*
G37*
G36*
X036836Y024020D02*
X036914Y023942D01*
X036568Y023596D01*
X036490Y023674D01*
X036836Y024020D01*
G37*
G36*
X036977Y023878D02*
X037055Y023800D01*
X036709Y023454D01*
X036631Y023532D01*
X036977Y023878D01*
G37*
G36*
X037119Y023737D02*
X037197Y023659D01*
X036851Y023313D01*
X036773Y023391D01*
X037119Y023737D01*
G37*
G36*
X037253Y023603D02*
X037331Y023525D01*
X036985Y023179D01*
X036907Y023257D01*
X037253Y023603D01*
G37*
G36*
X037331Y022733D02*
X037253Y022655D01*
X036907Y023001D01*
X036985Y023079D01*
X037331Y022733D01*
G37*
G36*
X037197Y022599D02*
X037119Y022521D01*
X036773Y022867D01*
X036851Y022945D01*
X037197Y022599D01*
G37*
G36*
X037055Y022458D02*
X036977Y022380D01*
X036631Y022726D01*
X036709Y022804D01*
X037055Y022458D01*
G37*
G36*
X036914Y022316D02*
X036836Y022238D01*
X036490Y022584D01*
X036568Y022662D01*
X036914Y022316D01*
G37*
G36*
X036779Y022182D02*
X036701Y022104D01*
X036355Y022450D01*
X036433Y022528D01*
X036779Y022182D01*
G37*
G36*
X036638Y022040D02*
X036560Y021962D01*
X036214Y022308D01*
X036292Y022386D01*
X036638Y022040D01*
G37*
G36*
X036497Y021899D02*
X036419Y021821D01*
X036073Y022167D01*
X036151Y022245D01*
X036497Y021899D01*
G37*
G36*
X036355Y021758D02*
X036277Y021680D01*
X035931Y022026D01*
X036009Y022104D01*
X036355Y021758D01*
G37*
G36*
X036221Y021623D02*
X036143Y021545D01*
X035797Y021891D01*
X035875Y021969D01*
X036221Y021623D01*
G37*
G36*
X036079Y021482D02*
X036001Y021404D01*
X035655Y021750D01*
X035733Y021828D01*
X036079Y021482D01*
G37*
G36*
X035938Y021340D02*
X035860Y021262D01*
X035514Y021608D01*
X035592Y021686D01*
X035938Y021340D01*
G37*
G36*
X035804Y021206D02*
X035726Y021128D01*
X035380Y021474D01*
X035458Y021552D01*
X035804Y021206D01*
G37*
G36*
X035202Y021552D02*
X035280Y021474D01*
X034934Y021128D01*
X034856Y021206D01*
X035202Y021552D01*
G37*
G36*
X035068Y021686D02*
X035146Y021608D01*
X034800Y021262D01*
X034722Y021340D01*
X035068Y021686D01*
G37*
G36*
X034927Y021828D02*
X035005Y021750D01*
X034659Y021404D01*
X034581Y021482D01*
X034927Y021828D01*
G37*
G36*
X034785Y021969D02*
X034863Y021891D01*
X034517Y021545D01*
X034439Y021623D01*
X034785Y021969D01*
G37*
G36*
X034651Y022104D02*
X034729Y022026D01*
X034383Y021680D01*
X034305Y021758D01*
X034651Y022104D01*
G37*
G36*
X034509Y022245D02*
X034587Y022167D01*
X034241Y021821D01*
X034163Y021899D01*
X034509Y022245D01*
G37*
G36*
X034368Y022386D02*
X034446Y022308D01*
X034100Y021962D01*
X034022Y022040D01*
X034368Y022386D01*
G37*
G36*
X034227Y022528D02*
X034305Y022450D01*
X033959Y022104D01*
X033881Y022182D01*
X034227Y022528D01*
G37*
G36*
X034092Y022662D02*
X034170Y022584D01*
X033824Y022238D01*
X033746Y022316D01*
X034092Y022662D01*
G37*
G36*
X033951Y022804D02*
X034029Y022726D01*
X033683Y022380D01*
X033605Y022458D01*
X033951Y022804D01*
G37*
G36*
X033809Y022945D02*
X033887Y022867D01*
X033541Y022521D01*
X033463Y022599D01*
X033809Y022945D01*
G37*
D38*
G36*
X033895Y023129D02*
X035330Y024564D01*
X036765Y023129D01*
X035330Y021694D01*
X033895Y023129D01*
G37*
D39*
X034199Y023129D03*
X034764Y023695D03*
X035401Y023058D03*
X035966Y023624D03*
X036461Y023129D03*
X035896Y022563D03*
X035330Y021998D03*
X034835Y022493D03*
X037030Y024129D03*
X036950Y024459D03*
X036610Y024529D03*
X036110Y025169D03*
X035330Y024260D03*
X034420Y025059D03*
X033960Y024589D03*
X032360Y023759D03*
X030460Y025929D03*
X030440Y026699D03*
X030370Y027269D03*
X031410Y028139D03*
X031770Y028379D03*
X034200Y028769D03*
X034000Y030759D03*
X033450Y031669D03*
X032620Y032479D03*
X031490Y032619D03*
X029540Y032529D03*
X027560Y030899D03*
X028260Y028719D03*
X027730Y025649D03*
X026780Y021339D03*
X024150Y020419D03*
X022410Y019679D03*
X021780Y019619D03*
X020140Y018069D03*
X025030Y014899D03*
X026790Y016339D03*
X027720Y017639D03*
X028530Y017199D03*
X029790Y018149D03*
X036940Y018849D03*
X037580Y019099D03*
X038860Y019949D03*
X041930Y016599D03*
X043400Y018189D03*
X044160Y018209D03*
X044440Y020279D03*
X043780Y021059D03*
X043780Y022919D03*
X040830Y024499D03*
X039230Y024499D03*
X037370Y024029D03*
X037800Y026099D03*
X037290Y026259D03*
X037030Y027299D03*
X035710Y026269D03*
X039670Y027289D03*
X043830Y026759D03*
X044290Y026789D03*
X044660Y031679D03*
X040020Y034589D03*
X039400Y034589D03*
X038830Y034499D03*
X039660Y033509D03*
X040530Y035709D03*
X040050Y035939D03*
X038960Y036049D03*
X036690Y036279D03*
X036650Y035939D03*
X036150Y035419D03*
X035730Y034499D03*
X035060Y035129D03*
X018730Y030024D03*
X017280Y030024D03*
X015730Y030049D03*
X014230Y030049D03*
X015030Y027399D03*
X016780Y027399D03*
X018530Y027399D03*
X019030Y023799D03*
X020510Y022859D03*
X013530Y023999D03*
X013280Y027399D03*
X006930Y015249D03*
X007930Y014299D03*
X007930Y013899D03*
X007930Y013499D03*
X008530Y013499D03*
X008530Y013899D03*
X008530Y014299D03*
X009130Y014299D03*
X009130Y013899D03*
X009130Y013499D03*
X011520Y012799D03*
X014020Y011029D03*
X011530Y010399D03*
X012710Y008739D03*
X012030Y006799D03*
X011030Y006799D03*
X010030Y006799D03*
X014000Y006039D03*
X008520Y010559D03*
X007760Y011419D03*
X006310Y011419D03*
X005180Y013179D03*
X035530Y007529D03*
X039010Y008759D03*
X040750Y007559D03*
X040930Y009799D03*
X040930Y010399D03*
X042170Y011589D03*
X041920Y012159D03*
X041630Y012699D03*
X040930Y012699D03*
X039560Y012139D03*
X039410Y011339D03*
X039200Y010439D03*
X042630Y009949D03*
X042930Y010149D03*
X042930Y012699D03*
X039430Y016399D03*
D40*
X019404Y024387D03*
X019030Y024387D03*
X018656Y024387D03*
X018656Y025411D03*
X019404Y025411D03*
D41*
X009682Y015001D03*
X009426Y015001D03*
X009170Y015001D03*
X008914Y015001D03*
X008658Y015001D03*
X008402Y015001D03*
X008146Y015001D03*
X007890Y015001D03*
X007634Y015001D03*
X007378Y015001D03*
X007378Y012797D03*
X007634Y012797D03*
X007890Y012797D03*
X008146Y012797D03*
X008402Y012797D03*
X008658Y012797D03*
X008914Y012797D03*
X009170Y012797D03*
X009426Y012797D03*
X009682Y012797D03*
D42*
X008530Y013899D03*
D43*
X021030Y017899D03*
X021030Y018399D03*
X021030Y018899D03*
X021030Y019399D03*
X021030Y019899D03*
X021030Y020399D03*
X021030Y020899D03*
X023030Y020899D03*
X023030Y020399D03*
X023030Y019899D03*
X023030Y019399D03*
X023030Y018899D03*
X023030Y018399D03*
X023030Y017899D03*
D44*
X031540Y020449D03*
X031740Y020449D03*
X031940Y020449D03*
X032130Y020449D03*
X032330Y020449D03*
X032530Y020449D03*
X032720Y020449D03*
X032920Y020449D03*
X033120Y020449D03*
X033310Y020449D03*
X033510Y020449D03*
X033710Y020449D03*
X033900Y020449D03*
X034100Y020449D03*
X034300Y020449D03*
X034490Y020449D03*
X034690Y020449D03*
X034890Y020449D03*
X035080Y020449D03*
X035280Y020449D03*
X035480Y020449D03*
X035680Y020449D03*
X035870Y020449D03*
X036070Y020449D03*
X036270Y020449D03*
X036460Y020449D03*
X036660Y020449D03*
X036860Y020449D03*
X037050Y020449D03*
X037250Y020449D03*
X037450Y020449D03*
X037640Y020449D03*
X037840Y020449D03*
X038040Y020449D03*
X038230Y020449D03*
X038430Y020449D03*
X038630Y020449D03*
X038820Y020449D03*
X039020Y020449D03*
X039220Y020449D03*
D45*
X039960Y019169D03*
X030800Y019169D03*
D46*
X038603Y016399D03*
X038957Y016399D03*
D47*
X007030Y023218D03*
X007030Y025580D03*
D48*
X012156Y027755D03*
X012904Y027755D03*
X013906Y027755D03*
X014654Y027755D03*
X014280Y028543D03*
X015656Y027755D03*
X016404Y027755D03*
X016030Y028543D03*
X017406Y027755D03*
X018154Y027755D03*
X017780Y028543D03*
X017404Y030505D03*
X016656Y030505D03*
X015904Y030505D03*
X015156Y030505D03*
X014404Y030505D03*
X013656Y030505D03*
X014030Y031293D03*
X015530Y031293D03*
X017030Y031293D03*
X018156Y030505D03*
X018904Y030505D03*
X018530Y031293D03*
X012530Y028543D03*
D49*
X014030Y032348D03*
X014030Y033450D03*
X015530Y033450D03*
X015530Y032348D03*
X017030Y032348D03*
X018530Y032348D03*
X018530Y033450D03*
X017030Y033450D03*
D50*
X016620Y032973D02*
X017440Y032973D01*
X017543Y033016D01*
X017622Y033095D01*
X017664Y033198D01*
X017664Y033703D01*
X017657Y033720D01*
X017896Y033482D01*
X017896Y033198D01*
X017938Y033095D01*
X018017Y033016D01*
X018120Y032973D01*
X018940Y032973D01*
X019043Y033016D01*
X019122Y033095D01*
X019164Y033198D01*
X019164Y033703D01*
X019122Y033806D01*
X019043Y033884D01*
X018940Y033927D01*
X018554Y033927D01*
X018210Y034270D01*
X018210Y034270D01*
X018304Y034176D01*
X018418Y034129D01*
X020312Y034129D01*
X020426Y034176D01*
X020513Y034263D01*
X020513Y034263D01*
X022418Y036169D01*
X029010Y036169D01*
X029010Y035325D01*
X029018Y035305D01*
X028045Y034331D01*
X027938Y034224D01*
X027880Y034085D01*
X027880Y028886D01*
X027845Y028802D01*
X027845Y028636D01*
X027908Y028484D01*
X027943Y028449D01*
X018217Y028449D01*
X018217Y028791D01*
X018175Y028893D01*
X018146Y028922D01*
X018387Y028922D01*
X018490Y028965D01*
X018569Y029044D01*
X018611Y029146D01*
X018611Y029624D01*
X018647Y029609D01*
X018813Y029609D01*
X018965Y029672D01*
X019082Y029789D01*
X019107Y029849D01*
X019235Y029977D01*
X019294Y030120D01*
X019294Y030150D01*
X019299Y030155D01*
X019341Y030257D01*
X019341Y030753D01*
X019299Y030856D01*
X019220Y030935D01*
X019117Y030977D01*
X018940Y030977D01*
X018967Y031045D01*
X018967Y031541D01*
X018925Y031643D01*
X018920Y031648D01*
X018920Y031871D01*
X018940Y031871D01*
X019043Y031914D01*
X019122Y031992D01*
X019164Y032095D01*
X019164Y032600D01*
X019122Y032703D01*
X019043Y032782D01*
X018940Y032825D01*
X018120Y032825D01*
X018017Y032782D01*
X017938Y032703D01*
X017896Y032600D01*
X017896Y032095D01*
X017938Y031992D01*
X018017Y031914D01*
X018120Y031871D01*
X018140Y031871D01*
X018140Y031648D01*
X018135Y031643D01*
X018093Y031541D01*
X018093Y031045D01*
X018120Y030977D01*
X017943Y030977D01*
X017840Y030935D01*
X017780Y030875D01*
X017720Y030935D01*
X017617Y030977D01*
X017440Y030977D01*
X017467Y031045D01*
X017467Y031541D01*
X017425Y031643D01*
X017420Y031648D01*
X017420Y031871D01*
X017440Y031871D01*
X017543Y031914D01*
X017622Y031992D01*
X017664Y032095D01*
X017664Y032600D01*
X017622Y032703D01*
X017543Y032782D01*
X017440Y032825D01*
X016620Y032825D01*
X016517Y032782D01*
X016438Y032703D01*
X016396Y032600D01*
X016396Y032095D01*
X016438Y031992D01*
X016517Y031914D01*
X016620Y031871D01*
X016640Y031871D01*
X016640Y031648D01*
X016635Y031643D01*
X016593Y031541D01*
X016593Y031045D01*
X016620Y030977D01*
X016443Y030977D01*
X016340Y030935D01*
X016280Y030875D01*
X016220Y030935D01*
X016117Y030977D01*
X015940Y030977D01*
X015967Y031045D01*
X015967Y031541D01*
X015925Y031643D01*
X015920Y031648D01*
X015920Y031871D01*
X015940Y031871D01*
X016043Y031914D01*
X016122Y031992D01*
X016164Y032095D01*
X016164Y032600D01*
X016122Y032703D01*
X016043Y032782D01*
X015940Y032825D01*
X015120Y032825D01*
X015017Y032782D01*
X014938Y032703D01*
X014896Y032600D01*
X014896Y032095D01*
X014938Y031992D01*
X015017Y031914D01*
X015120Y031871D01*
X015140Y031871D01*
X015140Y031648D01*
X015135Y031643D01*
X015093Y031541D01*
X015093Y031045D01*
X015120Y030977D01*
X014943Y030977D01*
X014840Y030935D01*
X014780Y030875D01*
X014720Y030935D01*
X014617Y030977D01*
X014440Y030977D01*
X014467Y031045D01*
X014467Y031541D01*
X014425Y031643D01*
X014420Y031648D01*
X014420Y031871D01*
X014440Y031871D01*
X014543Y031914D01*
X014622Y031992D01*
X014664Y032095D01*
X014664Y032600D01*
X014622Y032703D01*
X014543Y032782D01*
X014440Y032825D01*
X013620Y032825D01*
X013517Y032782D01*
X013438Y032703D01*
X013396Y032600D01*
X013396Y032095D01*
X013438Y031992D01*
X013517Y031914D01*
X013620Y031871D01*
X013640Y031871D01*
X013640Y031648D01*
X013635Y031643D01*
X013593Y031541D01*
X013593Y031045D01*
X013620Y030977D01*
X013443Y030977D01*
X013340Y030935D01*
X013261Y030856D01*
X013219Y030753D01*
X013219Y030257D01*
X013225Y030243D01*
X013225Y029873D01*
X013218Y029876D01*
X012673Y029876D01*
X012570Y029833D01*
X012491Y029754D01*
X012449Y029652D01*
X012449Y029146D01*
X012488Y029052D01*
X012451Y029015D01*
X012317Y029015D01*
X012214Y028972D01*
X012135Y028893D01*
X012093Y028791D01*
X012093Y028295D01*
X012120Y028227D01*
X011943Y028227D01*
X011840Y028185D01*
X011761Y028106D01*
X011719Y028003D01*
X011719Y027507D01*
X011761Y027405D01*
X011805Y027360D01*
X011805Y027318D01*
X011741Y027254D01*
X011699Y027152D01*
X011699Y026646D01*
X011741Y026544D01*
X011820Y026465D01*
X011923Y026422D01*
X012468Y026422D01*
X012530Y026448D01*
X012592Y026422D01*
X013137Y026422D01*
X013240Y026465D01*
X013313Y026538D01*
X013597Y026253D01*
X013684Y026166D01*
X013798Y026119D01*
X015102Y026119D01*
X015050Y025994D01*
X015050Y025804D01*
X015084Y025720D01*
X015039Y025701D01*
X014960Y025623D01*
X014917Y025520D01*
X014917Y024483D01*
X014960Y024380D01*
X015039Y024301D01*
X015142Y024259D01*
X017418Y024259D01*
X017521Y024301D01*
X017600Y024380D01*
X017643Y024483D01*
X017643Y025520D01*
X017600Y025623D01*
X017521Y025701D01*
X017476Y025720D01*
X017510Y025804D01*
X017510Y025994D01*
X017458Y026119D01*
X018317Y026119D01*
X018309Y026101D01*
X018281Y026042D01*
X018280Y026031D01*
X018276Y026021D01*
X018276Y025956D01*
X018272Y025892D01*
X018276Y025881D01*
X018276Y025723D01*
X018268Y025703D01*
X018268Y025119D01*
X018310Y025016D01*
X018389Y024937D01*
X018492Y024895D01*
X018820Y024895D01*
X018923Y024937D01*
X019002Y025016D01*
X019030Y025085D01*
X019058Y025016D01*
X019137Y024937D01*
X019240Y024895D01*
X019568Y024895D01*
X019671Y024937D01*
X019750Y025016D01*
X019792Y025119D01*
X019792Y025703D01*
X019750Y025806D01*
X019746Y025809D01*
X020558Y025809D01*
X020620Y025764D01*
X020620Y025633D01*
X020596Y025609D01*
X020553Y025506D01*
X020553Y024961D01*
X020577Y024904D01*
X020462Y024904D01*
X020337Y024853D01*
X019692Y024207D01*
X019692Y024387D01*
X019418Y024387D01*
X019418Y024387D01*
X019692Y024387D01*
X019692Y024647D01*
X019680Y024693D01*
X019656Y024734D01*
X019623Y024767D01*
X019582Y024791D01*
X019536Y024803D01*
X019404Y024803D01*
X019354Y024803D01*
X019297Y024861D01*
X019194Y024903D01*
X018866Y024903D01*
X018763Y024861D01*
X018706Y024803D01*
X018656Y024803D01*
X018524Y024803D01*
X018478Y024791D01*
X018437Y024767D01*
X018404Y024734D01*
X018380Y024693D01*
X018368Y024647D01*
X018368Y024387D01*
X018368Y024127D01*
X018380Y024082D01*
X018404Y024040D01*
X018437Y024007D01*
X018478Y023983D01*
X018524Y023971D01*
X018652Y023971D01*
X018615Y023882D01*
X018615Y023776D01*
X018455Y023776D01*
X018409Y023764D01*
X018368Y023740D01*
X018335Y023706D01*
X018311Y023665D01*
X018299Y023620D01*
X018299Y023417D01*
X018677Y023417D01*
X018677Y023381D01*
X018299Y023381D01*
X018299Y023178D01*
X018311Y023133D01*
X018335Y023092D01*
X018368Y023058D01*
X018409Y023034D01*
X018455Y023022D01*
X018677Y023022D01*
X018677Y023381D01*
X018714Y023381D01*
X018714Y023022D01*
X018932Y023022D01*
X018990Y022965D01*
X019092Y022922D01*
X019637Y022922D01*
X019740Y022965D01*
X019819Y023044D01*
X019861Y023146D01*
X019861Y023415D01*
X020616Y024169D01*
X020675Y024110D01*
X020777Y024068D01*
X021283Y024068D01*
X021385Y024110D01*
X021464Y024189D01*
X021507Y024292D01*
X021507Y024837D01*
X021498Y024859D01*
X021943Y024859D01*
X022650Y024152D01*
X022650Y021285D01*
X022556Y021246D01*
X022478Y021168D01*
X022435Y021065D01*
X022435Y021009D01*
X022178Y021009D01*
X021893Y021295D01*
X021806Y021382D01*
X021692Y021429D01*
X020608Y021429D01*
X020494Y021382D01*
X020434Y021322D01*
X020410Y021297D01*
X020410Y022292D01*
X020562Y022444D01*
X020593Y022444D01*
X020745Y022507D01*
X020862Y022624D01*
X020925Y022776D01*
X020925Y022942D01*
X020862Y023094D01*
X020745Y023211D01*
X020593Y023274D01*
X020427Y023274D01*
X020275Y023211D01*
X020158Y023094D01*
X020095Y022942D01*
X020095Y022911D01*
X019800Y022616D01*
X019750Y022495D01*
X019750Y020874D01*
X019714Y020910D01*
X019611Y020953D01*
X018949Y020953D01*
X018897Y020931D01*
X017893Y020931D01*
X017893Y021020D01*
X017850Y021123D01*
X017771Y021201D01*
X017668Y021244D01*
X015693Y021244D01*
X014007Y022930D01*
X014007Y023355D01*
X013964Y023458D01*
X013920Y023502D01*
X013920Y023856D01*
X013945Y023916D01*
X013945Y024082D01*
X013882Y024234D01*
X013765Y024351D01*
X013613Y024414D01*
X013447Y024414D01*
X013295Y024351D01*
X013178Y024234D01*
X013115Y024082D01*
X013115Y023916D01*
X013140Y023856D01*
X013140Y023502D01*
X013096Y023458D01*
X013053Y023355D01*
X013053Y022243D01*
X013096Y022140D01*
X013175Y022062D01*
X013277Y022019D01*
X013702Y022019D01*
X015167Y020554D01*
X015167Y019983D01*
X015210Y019880D01*
X015289Y019801D01*
X015392Y019759D01*
X015691Y019759D01*
X014007Y018074D01*
X014007Y018555D01*
X013964Y018658D01*
X013885Y018736D01*
X013783Y018779D01*
X013277Y018779D01*
X013175Y018736D01*
X013096Y018658D01*
X013053Y018555D01*
X013053Y017443D01*
X013096Y017340D01*
X013175Y017262D01*
X013188Y017256D01*
X012622Y016689D01*
X011010Y016689D01*
X011010Y017519D01*
X012053Y017519D01*
X012053Y017443D01*
X012096Y017340D01*
X012175Y017262D01*
X012277Y017219D01*
X012783Y017219D01*
X012885Y017262D01*
X012964Y017340D01*
X013007Y017443D01*
X013007Y017896D01*
X013010Y017904D01*
X013010Y018094D01*
X013007Y018102D01*
X013007Y018555D01*
X012964Y018658D01*
X012885Y018736D01*
X012783Y018779D01*
X012277Y018779D01*
X012175Y018736D01*
X012096Y018658D01*
X012053Y018555D01*
X012053Y018479D01*
X011007Y018479D01*
X011007Y018555D01*
X010964Y018658D01*
X010885Y018736D01*
X010783Y018779D01*
X010277Y018779D01*
X010175Y018736D01*
X010096Y018658D01*
X010053Y018555D01*
X010053Y018102D01*
X010050Y018094D01*
X010050Y017214D01*
X009822Y017214D01*
X009796Y017225D01*
X009885Y017262D01*
X009964Y017340D01*
X010007Y017443D01*
X010007Y018555D01*
X009964Y018658D01*
X009885Y018736D01*
X009783Y018779D01*
X009277Y018779D01*
X009175Y018736D01*
X009096Y018658D01*
X009053Y018555D01*
X009053Y017443D01*
X009096Y017340D01*
X009175Y017262D01*
X009264Y017225D01*
X009175Y017188D01*
X009096Y017109D01*
X009053Y017006D01*
X009053Y016837D01*
X009050Y016829D01*
X009050Y016689D01*
X009007Y016689D01*
X009007Y017006D01*
X008964Y017109D01*
X008885Y017188D01*
X008783Y017230D01*
X008277Y017230D01*
X008175Y017188D01*
X008096Y017109D01*
X008072Y017051D01*
X007988Y017051D01*
X007964Y017109D01*
X007885Y017188D01*
X007783Y017230D01*
X007401Y017230D01*
X007364Y017304D01*
X007668Y017304D01*
X007771Y017347D01*
X007850Y017425D01*
X007893Y017528D01*
X007893Y018565D01*
X007850Y018668D01*
X007771Y018747D01*
X007668Y018789D01*
X005392Y018789D01*
X005289Y018747D01*
X005210Y018668D01*
X005167Y018565D01*
X005167Y017528D01*
X005210Y017425D01*
X005289Y017347D01*
X005392Y017304D01*
X005696Y017304D01*
X005658Y017228D01*
X005644Y017038D01*
X005705Y016857D01*
X005830Y016712D01*
X006001Y016627D01*
X006191Y016613D01*
X006333Y016661D01*
X006435Y016619D01*
X006625Y016619D01*
X006727Y016661D01*
X006869Y016613D01*
X007053Y016627D01*
X007053Y016461D01*
X007079Y016399D01*
X007053Y016337D01*
X007053Y016125D01*
X006615Y015687D01*
X006562Y015633D01*
X006440Y015633D01*
X006425Y015648D01*
X006322Y015691D01*
X005738Y015691D01*
X005635Y015648D01*
X005556Y015569D01*
X005514Y015467D01*
X005514Y015040D01*
X005556Y014937D01*
X005595Y014899D01*
X005556Y014861D01*
X005514Y014758D01*
X005514Y014332D01*
X005556Y014229D01*
X005576Y014209D01*
X005497Y014130D01*
X005455Y014028D01*
X005455Y013879D01*
X005425Y013879D01*
X005285Y013822D01*
X005029Y013566D01*
X004945Y013531D01*
X004828Y013414D01*
X004765Y013262D01*
X004765Y013096D01*
X004828Y012944D01*
X004945Y012827D01*
X005097Y012764D01*
X005263Y012764D01*
X005415Y012827D01*
X005483Y012895D01*
X005455Y012827D01*
X005455Y012302D01*
X005497Y012199D01*
X005576Y012120D01*
X005650Y012090D01*
X005650Y011623D01*
X005708Y011484D01*
X005923Y011268D01*
X005958Y011184D01*
X006075Y011067D01*
X006227Y011004D01*
X006393Y011004D01*
X006545Y011067D01*
X006662Y011184D01*
X006725Y011336D01*
X006725Y011502D01*
X006662Y011654D01*
X006545Y011771D01*
X006461Y011806D01*
X006410Y011856D01*
X006410Y012090D01*
X006484Y012120D01*
X006563Y012199D01*
X006605Y012302D01*
X006605Y012827D01*
X006575Y012899D01*
X006605Y012971D01*
X006605Y014028D01*
X006563Y014130D01*
X006484Y014209D01*
X006504Y014229D01*
X006546Y014332D01*
X006546Y014758D01*
X006504Y014861D01*
X006491Y014873D01*
X006752Y014873D01*
X006847Y014834D01*
X007013Y014834D01*
X007049Y014849D01*
X007049Y014650D01*
X007068Y014604D01*
X007068Y014569D01*
X007116Y014455D01*
X007167Y014403D01*
X007254Y014316D01*
X007368Y014269D01*
X007423Y014269D01*
X007423Y013372D01*
X007274Y013372D01*
X007171Y013329D01*
X007092Y013251D01*
X007049Y013148D01*
X007049Y012446D01*
X007092Y012343D01*
X007137Y012298D01*
X007093Y012254D01*
X007000Y012161D01*
X006950Y012040D01*
X006950Y009583D01*
X007000Y009462D01*
X007667Y008795D01*
X007667Y008298D01*
X007710Y008195D01*
X007789Y008116D01*
X007808Y008108D01*
X007808Y006385D01*
X007870Y006237D01*
X007984Y006123D01*
X008307Y005799D01*
X002580Y005799D01*
X002728Y005885D01*
X002934Y006091D01*
X003080Y006343D01*
X003155Y006624D01*
X003155Y006914D01*
X003080Y007196D01*
X002934Y007448D01*
X002728Y007653D01*
X002477Y007799D01*
X002195Y007874D01*
X001905Y007874D01*
X001623Y007799D01*
X001372Y007653D01*
X001166Y007448D01*
X001080Y007299D01*
X001080Y035739D01*
X001166Y035591D01*
X001372Y035385D01*
X001623Y035239D01*
X001905Y035164D01*
X002195Y035164D01*
X002477Y035239D01*
X002728Y035385D01*
X002934Y035591D01*
X003080Y035843D01*
X003155Y036124D01*
X003155Y036414D01*
X003080Y036696D01*
X002934Y036948D01*
X002728Y037153D01*
X002580Y037239D01*
X049020Y037239D01*
X048872Y037153D01*
X048666Y036948D01*
X048520Y036696D01*
X048445Y036414D01*
X048445Y036124D01*
X048520Y035843D01*
X048666Y035591D01*
X048872Y035385D01*
X049123Y035239D01*
X049405Y035164D01*
X049695Y035164D01*
X049977Y035239D01*
X050228Y035385D01*
X050434Y035591D01*
X050520Y035739D01*
X050520Y007299D01*
X050434Y007448D01*
X050228Y007653D01*
X049977Y007799D01*
X049695Y007874D01*
X049405Y007874D01*
X049123Y007799D01*
X048872Y007653D01*
X048666Y007448D01*
X048520Y007196D01*
X048445Y006914D01*
X048445Y006624D01*
X048520Y006343D01*
X048666Y006091D01*
X048872Y005885D01*
X049020Y005799D01*
X045329Y005799D01*
X045391Y005861D01*
X045490Y006100D01*
X045490Y006358D01*
X045391Y006597D01*
X045208Y006780D01*
X044969Y006879D01*
X044727Y006879D01*
X043110Y008497D01*
X043110Y008583D01*
X043163Y008636D01*
X043206Y008739D01*
X043206Y009559D01*
X043163Y009662D01*
X043084Y009741D01*
X043057Y009752D01*
X043165Y009797D01*
X043282Y009914D01*
X043345Y010066D01*
X043345Y010141D01*
X043378Y010174D01*
X043606Y010174D01*
X043606Y010601D01*
X043702Y010601D01*
X043702Y010174D01*
X043934Y010174D01*
X043979Y010186D01*
X044020Y010210D01*
X044054Y010243D01*
X044078Y010284D01*
X044090Y010330D01*
X044090Y010601D01*
X043702Y010601D01*
X043702Y010697D01*
X043606Y010697D01*
X043606Y011124D01*
X043378Y011124D01*
X043320Y011182D01*
X043276Y011200D01*
X043276Y011598D01*
X043320Y011616D01*
X043378Y011674D01*
X043606Y011674D01*
X043606Y012101D01*
X043702Y012101D01*
X043702Y011674D01*
X043934Y011674D01*
X043979Y011686D01*
X044020Y011710D01*
X044054Y011743D01*
X044078Y011784D01*
X044090Y011830D01*
X044090Y012101D01*
X043702Y012101D01*
X043702Y012197D01*
X043606Y012197D01*
X043606Y012624D01*
X043378Y012624D01*
X043355Y012647D01*
X043562Y012647D01*
X043670Y012692D01*
X043753Y012775D01*
X043798Y012883D01*
X043798Y013561D01*
X043753Y013669D01*
X043670Y013752D01*
X043562Y013797D01*
X043325Y013797D01*
X043315Y013793D01*
X043306Y013797D01*
X043069Y013797D01*
X043060Y013793D01*
X043050Y013797D01*
X042813Y013797D01*
X042804Y013793D01*
X042794Y013797D01*
X042557Y013797D01*
X042548Y013793D01*
X042538Y013797D01*
X042301Y013797D01*
X042292Y013793D01*
X042283Y013797D01*
X042045Y013797D01*
X042036Y013793D01*
X042027Y013797D01*
X041789Y013797D01*
X041780Y013793D01*
X041771Y013797D01*
X041533Y013797D01*
X041425Y013752D01*
X041370Y013697D01*
X041310Y013697D01*
X041268Y013686D01*
X041226Y013697D01*
X041167Y013697D01*
X041111Y013752D01*
X041003Y013797D01*
X040766Y013797D01*
X040756Y013793D01*
X040747Y013797D01*
X040510Y013797D01*
X040500Y013793D01*
X040491Y013797D01*
X040254Y013797D01*
X040245Y013793D01*
X040235Y013797D01*
X039998Y013797D01*
X039890Y013752D01*
X039807Y013669D01*
X039762Y013561D01*
X039762Y012883D01*
X039790Y012815D01*
X039790Y012493D01*
X039790Y012493D01*
X039643Y012554D01*
X039612Y012554D01*
X039414Y012751D01*
X039417Y012754D01*
X039460Y012857D01*
X039460Y013441D01*
X039417Y013544D01*
X039338Y013623D01*
X039235Y013665D01*
X038651Y013665D01*
X038549Y013623D01*
X038530Y013604D01*
X038511Y013623D01*
X038409Y013665D01*
X037825Y013665D01*
X037722Y013623D01*
X037643Y013544D01*
X037600Y013441D01*
X037600Y013206D01*
X036629Y012234D01*
X036402Y012234D01*
X036300Y012192D01*
X036242Y012134D01*
X036014Y012134D01*
X036014Y011707D01*
X035918Y011707D01*
X035918Y012134D01*
X035686Y012134D01*
X035641Y012122D01*
X035600Y012098D01*
X035566Y012065D01*
X035542Y012024D01*
X035530Y011978D01*
X035530Y011707D01*
X035918Y011707D01*
X035918Y011611D01*
X036014Y011611D01*
X036014Y011184D01*
X036242Y011184D01*
X036300Y011126D01*
X036309Y011122D01*
X036260Y011102D01*
X036202Y011044D01*
X035974Y011044D01*
X035974Y010617D01*
X035878Y010617D01*
X035878Y011044D01*
X035646Y011044D01*
X035601Y011032D01*
X035560Y011008D01*
X035526Y010975D01*
X035502Y010934D01*
X035490Y010888D01*
X035490Y010617D01*
X035878Y010617D01*
X035878Y010521D01*
X035974Y010521D01*
X035974Y010094D01*
X036202Y010094D01*
X036260Y010036D01*
X036362Y009994D01*
X036986Y009994D01*
X037089Y010036D01*
X037167Y010115D01*
X037188Y010164D01*
X037367Y010164D01*
X037516Y010226D01*
X038173Y010883D01*
X038409Y010883D01*
X038511Y010925D01*
X038530Y010944D01*
X038549Y010925D01*
X038651Y010883D01*
X039235Y010883D01*
X039335Y010924D01*
X039370Y010924D01*
X039370Y010818D01*
X039283Y010854D01*
X039117Y010854D01*
X038965Y010791D01*
X038848Y010674D01*
X038785Y010522D01*
X038785Y010356D01*
X038848Y010204D01*
X038870Y010182D01*
X038870Y009433D01*
X038920Y009312D01*
X039013Y009219D01*
X039058Y009174D01*
X038927Y009174D01*
X038775Y009111D01*
X038658Y008994D01*
X038595Y008842D01*
X038595Y008676D01*
X038658Y008524D01*
X038775Y008407D01*
X038927Y008344D01*
X039093Y008344D01*
X039140Y008364D01*
X039140Y006808D01*
X038969Y006879D01*
X038711Y006879D01*
X038472Y006780D01*
X038371Y006680D01*
X038354Y006710D01*
X038321Y006743D01*
X038279Y006767D01*
X038234Y006779D01*
X037860Y006779D01*
X037860Y006249D01*
X037820Y006249D01*
X037820Y006209D01*
X037290Y006209D01*
X037290Y005835D01*
X037300Y005799D01*
X014347Y005799D01*
X014352Y005804D01*
X014362Y005828D01*
X014598Y006064D01*
X015286Y006064D01*
X015432Y005918D01*
X015671Y005819D01*
X015929Y005819D01*
X016168Y005918D01*
X016351Y006101D01*
X016450Y006340D01*
X016450Y006598D01*
X016351Y006837D01*
X016168Y007020D01*
X015929Y007119D01*
X015671Y007119D01*
X015432Y007020D01*
X015286Y006874D01*
X014349Y006874D01*
X014201Y006812D01*
X014087Y006698D01*
X013832Y006444D01*
X013006Y006444D01*
X013046Y006540D01*
X013046Y006967D01*
X013004Y007069D01*
X012925Y007148D01*
X012822Y007191D01*
X012238Y007191D01*
X012203Y007176D01*
X012113Y007214D01*
X011947Y007214D01*
X011857Y007176D01*
X011822Y007191D01*
X011238Y007191D01*
X011203Y007176D01*
X011113Y007214D01*
X010947Y007214D01*
X010857Y007176D01*
X010822Y007191D01*
X010238Y007191D01*
X010203Y007176D01*
X010113Y007214D01*
X009947Y007214D01*
X009857Y007176D01*
X009822Y007191D01*
X009238Y007191D01*
X009135Y007148D01*
X009056Y007069D01*
X009014Y006967D01*
X009014Y006540D01*
X009056Y006437D01*
X009095Y006399D01*
X009056Y006361D01*
X009033Y006304D01*
X008948Y006304D01*
X008618Y006634D01*
X008618Y008108D01*
X008637Y008116D01*
X008716Y008195D01*
X008759Y008298D01*
X008759Y009000D01*
X008731Y009066D01*
X009301Y008603D01*
X009301Y008298D01*
X009344Y008195D01*
X009423Y008116D01*
X009525Y008074D01*
X010168Y008074D01*
X010271Y008116D01*
X010350Y008195D01*
X010393Y008298D01*
X010393Y009000D01*
X010350Y009103D01*
X010271Y009182D01*
X010168Y009224D01*
X009742Y009224D01*
X009102Y009745D01*
X008673Y010173D01*
X008755Y010207D01*
X008872Y010324D01*
X008935Y010476D01*
X008935Y010642D01*
X008930Y010655D01*
X008959Y010684D01*
X009101Y010684D01*
X009175Y010610D01*
X009277Y010568D01*
X009783Y010568D01*
X009885Y010610D01*
X009959Y010684D01*
X010101Y010684D01*
X010150Y010635D01*
X010150Y010193D01*
X010208Y010054D01*
X011058Y009204D01*
X011165Y009097D01*
X011304Y009039D01*
X012423Y009039D01*
X012358Y008974D01*
X012295Y008822D01*
X012295Y008656D01*
X012358Y008504D01*
X012475Y008387D01*
X012627Y008324D01*
X012793Y008324D01*
X012945Y008387D01*
X013062Y008504D01*
X013097Y008588D01*
X013137Y008629D01*
X028956Y008629D01*
X029095Y008687D01*
X029202Y008794D01*
X038148Y017740D01*
X038148Y017347D01*
X038191Y017244D01*
X038223Y017212D01*
X038223Y016765D01*
X038198Y016705D01*
X038198Y016093D01*
X038240Y015990D01*
X038319Y015912D01*
X038422Y015869D01*
X039138Y015869D01*
X039241Y015912D01*
X039320Y015990D01*
X039321Y015995D01*
X039347Y015984D01*
X039513Y015984D01*
X039665Y016047D01*
X039762Y016144D01*
X039762Y015738D01*
X039807Y015629D01*
X039890Y015546D01*
X039998Y015501D01*
X040235Y015501D01*
X040245Y015505D01*
X040254Y015501D01*
X040491Y015501D01*
X040500Y015505D01*
X040510Y015501D01*
X040747Y015501D01*
X040756Y015505D01*
X040766Y015501D01*
X041003Y015501D01*
X041012Y015505D01*
X041022Y015501D01*
X041259Y015501D01*
X041268Y015505D01*
X041277Y015501D01*
X041515Y015501D01*
X041524Y015505D01*
X041533Y015501D01*
X041771Y015501D01*
X041780Y015505D01*
X041789Y015501D01*
X042027Y015501D01*
X042036Y015505D01*
X042045Y015501D01*
X042283Y015501D01*
X042292Y015505D01*
X042301Y015501D01*
X042538Y015501D01*
X042647Y015546D01*
X042676Y015575D01*
X042704Y015546D01*
X042813Y015501D01*
X043050Y015501D01*
X043060Y015505D01*
X043069Y015501D01*
X043306Y015501D01*
X043315Y015505D01*
X043325Y015501D01*
X043562Y015501D01*
X043670Y015546D01*
X043753Y015629D01*
X043798Y015738D01*
X043798Y016415D01*
X043780Y016459D01*
X043780Y017811D01*
X043876Y017906D01*
X043925Y017857D01*
X044077Y017794D01*
X044243Y017794D01*
X044395Y017857D01*
X044512Y017974D01*
X044575Y018126D01*
X044575Y018292D01*
X044540Y018376D01*
X044540Y019234D01*
X044588Y019282D01*
X044631Y019385D01*
X044631Y019909D01*
X044675Y019927D01*
X044792Y020044D01*
X044855Y020196D01*
X044855Y020362D01*
X044792Y020514D01*
X044783Y020523D01*
X044783Y020523D01*
X044806Y020579D01*
X044829Y020633D01*
X044829Y020635D01*
X044830Y020637D01*
X044830Y020697D01*
X044957Y030673D01*
X045122Y030508D01*
X045361Y030409D01*
X045619Y030409D01*
X045858Y030508D01*
X046041Y030691D01*
X046140Y030930D01*
X046140Y031188D01*
X046041Y031427D01*
X045909Y031559D01*
X046041Y031691D01*
X046140Y031930D01*
X046140Y032188D01*
X046041Y032427D01*
X045909Y032559D01*
X046041Y032691D01*
X046140Y032930D01*
X046140Y033188D01*
X046041Y033427D01*
X045909Y033559D01*
X046041Y033691D01*
X046140Y033930D01*
X046140Y034188D01*
X046041Y034427D01*
X045909Y034559D01*
X046041Y034691D01*
X046140Y034930D01*
X046140Y035188D01*
X046041Y035427D01*
X045858Y035610D01*
X045619Y035709D01*
X045361Y035709D01*
X045122Y035610D01*
X044939Y035427D01*
X044840Y035188D01*
X044840Y035136D01*
X044810Y035106D01*
X044810Y035268D01*
X044711Y035507D01*
X044579Y035639D01*
X044711Y035771D01*
X044810Y036010D01*
X044810Y036268D01*
X048445Y036268D01*
X048449Y036110D02*
X044810Y036110D01*
X044810Y036268D02*
X044711Y036507D01*
X044528Y036690D01*
X044289Y036789D01*
X044031Y036789D01*
X043792Y036690D01*
X043609Y036507D01*
X043593Y036469D01*
X041244Y036469D01*
X041123Y036419D01*
X040765Y036061D01*
X040613Y036124D01*
X040447Y036124D01*
X040426Y036115D01*
X040402Y036174D01*
X040285Y036291D01*
X040134Y036353D01*
X039713Y036775D01*
X039626Y036862D01*
X039512Y036909D01*
X020668Y036909D01*
X020554Y036862D01*
X019217Y035525D01*
X019159Y035549D01*
X018901Y035549D01*
X018662Y035450D01*
X018530Y035318D01*
X018398Y035450D01*
X018159Y035549D01*
X017901Y035549D01*
X017662Y035450D01*
X017530Y035318D01*
X017398Y035450D01*
X017159Y035549D01*
X016901Y035549D01*
X016662Y035450D01*
X016530Y035318D01*
X016398Y035450D01*
X016159Y035549D01*
X015901Y035549D01*
X015662Y035450D01*
X015530Y035318D01*
X015398Y035450D01*
X015159Y035549D01*
X014901Y035549D01*
X014662Y035450D01*
X014530Y035318D01*
X014398Y035450D01*
X014159Y035549D01*
X013901Y035549D01*
X013662Y035450D01*
X013561Y035350D01*
X013544Y035380D01*
X013511Y035413D01*
X013469Y035437D01*
X013424Y035449D01*
X013050Y035449D01*
X013050Y034919D01*
X013010Y034919D01*
X013010Y034879D01*
X013050Y034879D01*
X013050Y034349D01*
X013424Y034349D01*
X013469Y034361D01*
X013511Y034385D01*
X013544Y034418D01*
X013561Y034448D01*
X013640Y034370D01*
X013640Y033927D01*
X013620Y033927D01*
X013517Y033884D01*
X013438Y033806D01*
X013396Y033703D01*
X013396Y033198D01*
X013438Y033095D01*
X013517Y033016D01*
X013620Y032973D01*
X014440Y032973D01*
X014543Y033016D01*
X014622Y033095D01*
X014664Y033198D01*
X014664Y033703D01*
X014622Y033806D01*
X014543Y033884D01*
X014440Y033927D01*
X014420Y033927D01*
X014420Y034370D01*
X014530Y034480D01*
X014662Y034348D01*
X014901Y034249D01*
X015128Y034249D01*
X015140Y034237D01*
X015140Y033927D01*
X015120Y033927D01*
X015017Y033884D01*
X014938Y033806D01*
X014896Y033703D01*
X014896Y033198D01*
X014938Y033095D01*
X015017Y033016D01*
X015120Y032973D01*
X015940Y032973D01*
X016043Y033016D01*
X016122Y033095D01*
X016164Y033198D01*
X016164Y033703D01*
X016122Y033806D01*
X016043Y033884D01*
X015940Y033927D01*
X015920Y033927D01*
X015920Y034249D01*
X016128Y034249D01*
X016505Y033872D01*
X016438Y033806D01*
X016396Y033703D01*
X016396Y033198D01*
X016438Y033095D01*
X016517Y033016D01*
X016620Y032973D01*
X016516Y032781D02*
X016044Y032781D01*
X016155Y032623D02*
X016405Y032623D01*
X016396Y032464D02*
X016164Y032464D01*
X016164Y032306D02*
X016396Y032306D01*
X016396Y032147D02*
X016164Y032147D01*
X016118Y031989D02*
X016442Y031989D01*
X016640Y031830D02*
X015920Y031830D01*
X015920Y031672D02*
X016640Y031672D01*
X016593Y031513D02*
X015967Y031513D01*
X015967Y031355D02*
X016593Y031355D01*
X016593Y031196D02*
X015967Y031196D01*
X015964Y031038D02*
X016596Y031038D01*
X016284Y030879D02*
X016276Y030879D01*
X015096Y031038D02*
X014464Y031038D01*
X014467Y031196D02*
X015093Y031196D01*
X015093Y031355D02*
X014467Y031355D01*
X014467Y031513D02*
X015093Y031513D01*
X015140Y031672D02*
X014420Y031672D01*
X014420Y031830D02*
X015140Y031830D01*
X014942Y031989D02*
X014618Y031989D01*
X014664Y032147D02*
X014896Y032147D01*
X014896Y032306D02*
X014664Y032306D01*
X014664Y032464D02*
X014896Y032464D01*
X014905Y032623D02*
X014655Y032623D01*
X014544Y032781D02*
X015016Y032781D01*
X014937Y033098D02*
X014623Y033098D01*
X014664Y033257D02*
X014896Y033257D01*
X014896Y033415D02*
X014664Y033415D01*
X014664Y033574D02*
X014896Y033574D01*
X014908Y033732D02*
X014652Y033732D01*
X014528Y033891D02*
X015032Y033891D01*
X015140Y034049D02*
X014420Y034049D01*
X014420Y034208D02*
X015140Y034208D01*
X014644Y034366D02*
X014420Y034366D01*
X013640Y034366D02*
X013478Y034366D01*
X013640Y034208D02*
X001080Y034208D01*
X001080Y034366D02*
X012582Y034366D01*
X012591Y034361D02*
X012636Y034349D01*
X013010Y034349D01*
X013010Y034879D01*
X012480Y034879D01*
X012480Y034505D01*
X012492Y034460D01*
X012516Y034418D01*
X012549Y034385D01*
X012591Y034361D01*
X012480Y034525D02*
X001080Y034525D01*
X001080Y034683D02*
X012480Y034683D01*
X012480Y034842D02*
X001080Y034842D01*
X001080Y035000D02*
X012480Y035000D01*
X012480Y034919D02*
X013010Y034919D01*
X013010Y035449D01*
X012636Y035449D01*
X012591Y035437D01*
X012549Y035413D01*
X012516Y035380D01*
X012492Y035338D01*
X012480Y035293D01*
X012480Y034919D01*
X012480Y035159D02*
X001080Y035159D01*
X001080Y035317D02*
X001489Y035317D01*
X001281Y035476D02*
X001080Y035476D01*
X001080Y035634D02*
X001141Y035634D01*
X002611Y035317D02*
X012487Y035317D01*
X013010Y035317D02*
X013050Y035317D01*
X013050Y035159D02*
X013010Y035159D01*
X013010Y035000D02*
X013050Y035000D01*
X013050Y034842D02*
X013010Y034842D01*
X013010Y034683D02*
X013050Y034683D01*
X013050Y034525D02*
X013010Y034525D01*
X013010Y034366D02*
X013050Y034366D01*
X013640Y034049D02*
X001080Y034049D01*
X001080Y033891D02*
X013532Y033891D01*
X013408Y033732D02*
X001080Y033732D01*
X001080Y033574D02*
X013396Y033574D01*
X013396Y033415D02*
X001080Y033415D01*
X001080Y033257D02*
X013396Y033257D01*
X013437Y033098D02*
X001080Y033098D01*
X001080Y032940D02*
X027880Y032940D01*
X027880Y033098D02*
X019123Y033098D01*
X019164Y033257D02*
X027880Y033257D01*
X027880Y033415D02*
X019164Y033415D01*
X019164Y033574D02*
X027880Y033574D01*
X027880Y033732D02*
X019152Y033732D01*
X019028Y033891D02*
X027880Y033891D01*
X027880Y034049D02*
X018431Y034049D01*
X018273Y034208D02*
X018273Y034208D01*
X017804Y033574D02*
X017664Y033574D01*
X017664Y033415D02*
X017896Y033415D01*
X017896Y033257D02*
X017664Y033257D01*
X017623Y033098D02*
X017937Y033098D01*
X018016Y032781D02*
X017544Y032781D01*
X017655Y032623D02*
X017905Y032623D01*
X017896Y032464D02*
X017664Y032464D01*
X017664Y032306D02*
X017896Y032306D01*
X017896Y032147D02*
X017664Y032147D01*
X017618Y031989D02*
X017942Y031989D01*
X018140Y031830D02*
X017420Y031830D01*
X017420Y031672D02*
X018140Y031672D01*
X018093Y031513D02*
X017467Y031513D01*
X017467Y031355D02*
X018093Y031355D01*
X018093Y031196D02*
X017467Y031196D01*
X017464Y031038D02*
X018096Y031038D01*
X017784Y030879D02*
X017776Y030879D01*
X018964Y031038D02*
X027880Y031038D01*
X027880Y031196D02*
X018967Y031196D01*
X018967Y031355D02*
X027880Y031355D01*
X027880Y031513D02*
X018967Y031513D01*
X018920Y031672D02*
X027880Y031672D01*
X027880Y031830D02*
X018920Y031830D01*
X019118Y031989D02*
X027880Y031989D01*
X027880Y032147D02*
X019164Y032147D01*
X019164Y032306D02*
X027880Y032306D01*
X027880Y032464D02*
X019164Y032464D01*
X019155Y032623D02*
X027880Y032623D01*
X027880Y032781D02*
X019044Y032781D01*
X020457Y034208D02*
X027931Y034208D01*
X028080Y034366D02*
X020615Y034366D01*
X020774Y034525D02*
X028238Y034525D01*
X028397Y034683D02*
X020932Y034683D01*
X021091Y034842D02*
X028555Y034842D01*
X028714Y035000D02*
X021249Y035000D01*
X021408Y035159D02*
X028872Y035159D01*
X029013Y035317D02*
X021566Y035317D01*
X021725Y035476D02*
X029010Y035476D01*
X029010Y035634D02*
X021883Y035634D01*
X022042Y035793D02*
X029010Y035793D01*
X029010Y035951D02*
X022200Y035951D01*
X022359Y036110D02*
X029010Y036110D01*
X031210Y035111D02*
X031210Y034527D01*
X031163Y034413D01*
X030861Y034111D01*
X030949Y034075D01*
X031027Y033996D01*
X031070Y033893D01*
X031070Y032923D01*
X031027Y032820D01*
X031007Y032800D01*
X032115Y031691D01*
X032187Y031619D01*
X032293Y031619D01*
X032764Y032089D01*
X032703Y032064D01*
X032537Y032064D01*
X032385Y032127D01*
X032268Y032244D01*
X032205Y032396D01*
X032205Y032562D01*
X032240Y032646D01*
X032240Y034390D01*
X031641Y035101D01*
X031234Y035101D01*
X031210Y035111D01*
X031210Y035000D02*
X031726Y035000D01*
X031859Y034842D02*
X031210Y034842D01*
X031210Y034683D02*
X031993Y034683D01*
X032127Y034525D02*
X031209Y034525D01*
X031115Y034366D02*
X032240Y034366D01*
X032240Y034208D02*
X030957Y034208D01*
X030974Y034049D02*
X032240Y034049D01*
X032240Y033891D02*
X031962Y033891D01*
X031958Y033907D02*
X031934Y033948D01*
X031901Y033981D01*
X031859Y034005D01*
X031814Y034017D01*
X031585Y034017D01*
X031585Y033453D01*
X031970Y033453D01*
X031970Y033861D01*
X031958Y033907D01*
X031970Y033732D02*
X032240Y033732D01*
X032240Y033574D02*
X031970Y033574D01*
X031970Y033363D02*
X031585Y033363D01*
X031585Y032799D01*
X031814Y032799D01*
X031859Y032811D01*
X031901Y032835D01*
X031934Y032869D01*
X031958Y032910D01*
X031970Y032955D01*
X031970Y033363D01*
X031970Y033257D02*
X032240Y033257D01*
X032240Y033415D02*
X031585Y033415D01*
X031585Y033453D02*
X031585Y033363D01*
X031495Y033363D01*
X031495Y032799D01*
X031266Y032799D01*
X031221Y032811D01*
X031179Y032835D01*
X031146Y032869D01*
X031122Y032910D01*
X031110Y032955D01*
X031110Y033363D01*
X031495Y033363D01*
X031495Y033453D01*
X031110Y033453D01*
X031110Y033861D01*
X031122Y033907D01*
X031146Y033948D01*
X031179Y033981D01*
X031221Y034005D01*
X031266Y034017D01*
X031495Y034017D01*
X031495Y033453D01*
X031585Y033453D01*
X031495Y033415D02*
X031070Y033415D01*
X031070Y033257D02*
X031110Y033257D01*
X031110Y033098D02*
X031070Y033098D01*
X031070Y032940D02*
X031114Y032940D01*
X031025Y032781D02*
X032240Y032781D01*
X032240Y032940D02*
X031966Y032940D01*
X031970Y033098D02*
X032240Y033098D01*
X032230Y032623D02*
X031184Y032623D01*
X031342Y032464D02*
X032205Y032464D01*
X032243Y032306D02*
X031501Y032306D01*
X031659Y032147D02*
X032365Y032147D01*
X032663Y031989D02*
X031818Y031989D01*
X031976Y031830D02*
X032504Y031830D01*
X032346Y031672D02*
X032135Y031672D01*
X031585Y032940D02*
X031495Y032940D01*
X031495Y033098D02*
X031585Y033098D01*
X031585Y033257D02*
X031495Y033257D01*
X031495Y033574D02*
X031585Y033574D01*
X031585Y033732D02*
X031495Y033732D01*
X031495Y033891D02*
X031585Y033891D01*
X031118Y033891D02*
X031070Y033891D01*
X031070Y033732D02*
X031110Y033732D01*
X031110Y033574D02*
X031070Y033574D01*
X034780Y035006D02*
X034780Y035324D01*
X034834Y035347D01*
X034913Y035425D01*
X034956Y035528D01*
X034956Y036019D01*
X035204Y036019D01*
X035204Y035937D01*
X035582Y035937D01*
X035582Y035861D01*
X035204Y035861D01*
X035204Y035560D01*
X035217Y035515D01*
X035240Y035474D01*
X035274Y035440D01*
X035315Y035416D01*
X035361Y035404D01*
X035582Y035404D01*
X035582Y035861D01*
X035659Y035861D01*
X035659Y035404D01*
X035880Y035404D01*
X035926Y035416D01*
X035967Y035440D01*
X036001Y035474D01*
X036025Y035515D01*
X036037Y035560D01*
X036037Y035734D01*
X036247Y035523D01*
X036248Y035523D01*
X036291Y035479D01*
X036334Y035436D01*
X036335Y035436D01*
X036392Y035412D01*
X036448Y035389D01*
X036449Y035389D01*
X036510Y035389D01*
X036563Y035389D01*
X036343Y035169D01*
X036250Y035076D01*
X036200Y034955D01*
X036200Y034556D01*
X036173Y034529D01*
X036145Y034501D01*
X036145Y034582D01*
X036082Y034734D01*
X035965Y034851D01*
X035813Y034914D01*
X035647Y034914D01*
X035495Y034851D01*
X035378Y034734D01*
X035315Y034582D01*
X035315Y034471D01*
X034780Y035006D01*
X034786Y035000D02*
X036219Y035000D01*
X036200Y034842D02*
X035974Y034842D01*
X036103Y034683D02*
X036200Y034683D01*
X036169Y034525D02*
X036145Y034525D01*
X036333Y035159D02*
X034780Y035159D01*
X034780Y035317D02*
X036491Y035317D01*
X036449Y035389D02*
X036449Y035389D01*
X036335Y035436D02*
X036335Y035436D01*
X036295Y035476D02*
X036002Y035476D01*
X036037Y035634D02*
X036137Y035634D01*
X035659Y035634D02*
X035582Y035634D01*
X035582Y035476D02*
X035659Y035476D01*
X035659Y035793D02*
X035582Y035793D01*
X035204Y035793D02*
X034956Y035793D01*
X034956Y035951D02*
X035204Y035951D01*
X035204Y035634D02*
X034956Y035634D01*
X034934Y035476D02*
X035239Y035476D01*
X035486Y034842D02*
X034944Y034842D01*
X035103Y034683D02*
X035357Y034683D01*
X035315Y034525D02*
X035261Y034525D01*
X035231Y033448D02*
X035252Y033439D01*
X039048Y033439D01*
X039151Y033482D01*
X039197Y033528D01*
X039244Y033482D01*
X039245Y033481D01*
X039245Y033426D01*
X039308Y033274D01*
X039425Y033157D01*
X039577Y033094D01*
X039743Y033094D01*
X039895Y033157D01*
X040012Y033274D01*
X040075Y033426D01*
X040075Y033439D01*
X040308Y033439D01*
X040329Y033448D01*
X040320Y033427D01*
X040320Y028371D01*
X040329Y028350D01*
X040308Y028359D01*
X036827Y028359D01*
X036724Y028316D01*
X036678Y028270D01*
X036631Y028316D01*
X036528Y028359D01*
X035252Y028359D01*
X035231Y028350D01*
X035240Y028371D01*
X035240Y030907D01*
X035240Y031206D01*
X035240Y033427D01*
X035231Y033448D01*
X035240Y033415D02*
X039250Y033415D01*
X039326Y033257D02*
X035240Y033257D01*
X035240Y033098D02*
X039568Y033098D01*
X039752Y033098D02*
X040320Y033098D01*
X040320Y032940D02*
X035240Y032940D01*
X035240Y032781D02*
X040320Y032781D01*
X040320Y032623D02*
X035240Y032623D01*
X035240Y032464D02*
X040320Y032464D01*
X040320Y032306D02*
X035240Y032306D01*
X035240Y032147D02*
X040320Y032147D01*
X040320Y031989D02*
X035240Y031989D01*
X035240Y031830D02*
X040320Y031830D01*
X040320Y031672D02*
X035240Y031672D01*
X035240Y031513D02*
X040320Y031513D01*
X040320Y031355D02*
X035240Y031355D01*
X035240Y031196D02*
X040320Y031196D01*
X040320Y031038D02*
X035240Y031038D01*
X035240Y030879D02*
X040320Y030879D01*
X040320Y030721D02*
X035240Y030721D01*
X035240Y030562D02*
X040320Y030562D01*
X040320Y030404D02*
X035240Y030404D01*
X035240Y030245D02*
X040320Y030245D01*
X040320Y030087D02*
X035240Y030087D01*
X035240Y029928D02*
X040320Y029928D01*
X040320Y029770D02*
X035240Y029770D01*
X035240Y029611D02*
X040320Y029611D01*
X040320Y029453D02*
X035240Y029453D01*
X035240Y029294D02*
X040320Y029294D01*
X040320Y029136D02*
X035240Y029136D01*
X035240Y028977D02*
X040320Y028977D01*
X040320Y028819D02*
X035240Y028819D01*
X035240Y028660D02*
X040320Y028660D01*
X040320Y028502D02*
X035240Y028502D01*
X036567Y028343D02*
X036788Y028343D01*
X036900Y026904D02*
X036947Y026884D01*
X037113Y026884D01*
X037265Y026947D01*
X037290Y026972D01*
X037748Y026514D01*
X037717Y026514D01*
X037646Y026484D01*
X037642Y026494D01*
X037525Y026611D01*
X037373Y026674D01*
X037207Y026674D01*
X037055Y026611D01*
X036938Y026494D01*
X036875Y026342D01*
X036875Y026176D01*
X036908Y026097D01*
X036778Y026097D01*
X036518Y026097D01*
X036473Y026085D01*
X036432Y026061D01*
X036398Y026027D01*
X036374Y025986D01*
X036362Y025941D01*
X036362Y025779D01*
X036362Y025618D01*
X036374Y025572D01*
X036398Y025531D01*
X036432Y025497D01*
X036473Y025473D01*
X036518Y025461D01*
X036778Y025461D01*
X036778Y025779D01*
X036362Y025779D01*
X036778Y025779D01*
X036778Y025779D01*
X036778Y026097D01*
X036778Y025779D01*
X036778Y025779D01*
X036778Y025779D01*
X036778Y025461D01*
X037038Y025461D01*
X037084Y025473D01*
X037125Y025497D01*
X037159Y025531D01*
X037182Y025572D01*
X037195Y025618D01*
X037195Y025779D01*
X037195Y025849D01*
X037207Y025844D01*
X037238Y025844D01*
X037410Y025672D01*
X037410Y024777D01*
X037253Y024935D01*
X037166Y025022D01*
X037052Y025069D01*
X036518Y025069D01*
X036525Y025086D01*
X036525Y025252D01*
X036462Y025404D01*
X036345Y025521D01*
X036193Y025584D01*
X036027Y025584D01*
X035875Y025521D01*
X035764Y025410D01*
X035723Y025410D01*
X035795Y025483D01*
X035838Y025586D01*
X035838Y025829D01*
X035903Y025894D01*
X035913Y025904D01*
X035945Y025917D01*
X036062Y026034D01*
X036125Y026186D01*
X036125Y026244D01*
X036130Y026246D01*
X036188Y026304D01*
X036416Y026304D01*
X036416Y026731D01*
X036512Y026731D01*
X036512Y026304D01*
X036744Y026304D01*
X036789Y026316D01*
X036830Y026340D01*
X036864Y026373D01*
X036888Y026414D01*
X036900Y026460D01*
X036900Y026731D01*
X036512Y026731D01*
X036512Y026827D01*
X036900Y026827D01*
X036900Y026904D01*
X037191Y026917D02*
X037346Y026917D01*
X037504Y026758D02*
X036512Y026758D01*
X036512Y026600D02*
X036416Y026600D01*
X036416Y026441D02*
X036512Y026441D01*
X036167Y026283D02*
X036875Y026283D01*
X036895Y026441D02*
X036916Y026441D01*
X036900Y026600D02*
X037044Y026600D01*
X037536Y026600D02*
X037663Y026600D01*
X036897Y026124D02*
X036099Y026124D01*
X035993Y025966D02*
X036369Y025966D01*
X036362Y025807D02*
X035838Y025807D01*
X035838Y025649D02*
X036362Y025649D01*
X036376Y025490D02*
X036444Y025490D01*
X036492Y025332D02*
X037410Y025332D01*
X037410Y025490D02*
X037113Y025490D01*
X037195Y025649D02*
X037410Y025649D01*
X037275Y025807D02*
X037195Y025807D01*
X037195Y025779D02*
X036778Y025779D01*
X036778Y025779D01*
X037195Y025779D01*
X036778Y025807D02*
X036778Y025807D01*
X036778Y025649D02*
X036778Y025649D01*
X036778Y025490D02*
X036778Y025490D01*
X036525Y025173D02*
X037410Y025173D01*
X037410Y025015D02*
X037173Y025015D01*
X037253Y024935D02*
X037253Y024935D01*
X037331Y024856D02*
X037410Y024856D01*
X038530Y024856D02*
X038705Y024856D01*
X038705Y024713D02*
X038747Y024610D01*
X038815Y024543D01*
X038815Y024416D01*
X038878Y024264D01*
X038995Y024147D01*
X039147Y024084D01*
X039313Y024084D01*
X039465Y024147D01*
X039582Y024264D01*
X039645Y024416D01*
X039645Y024437D01*
X039660Y024473D01*
X039660Y024501D01*
X039734Y024532D01*
X039813Y024610D01*
X039855Y024713D01*
X039855Y025337D01*
X039829Y025399D01*
X039855Y025461D01*
X039855Y026085D01*
X039813Y026188D01*
X039734Y026266D01*
X039631Y026309D01*
X038929Y026309D01*
X038899Y026297D01*
X038707Y026489D01*
X040583Y026489D01*
X040690Y026382D01*
X040690Y026309D01*
X040679Y026309D01*
X040576Y026266D01*
X040497Y026188D01*
X040455Y026085D01*
X040455Y025790D01*
X040290Y025626D01*
X040240Y025505D01*
X040240Y023902D01*
X040236Y023890D01*
X040240Y023837D01*
X040240Y023783D01*
X040245Y023772D01*
X040246Y023759D01*
X040270Y023711D01*
X040290Y023662D01*
X040299Y023653D01*
X040305Y023642D01*
X040345Y023607D01*
X040383Y023569D01*
X040395Y023564D01*
X040840Y023181D01*
X040840Y021943D01*
X040883Y021840D01*
X040961Y021762D01*
X041064Y021719D01*
X041936Y021719D01*
X042039Y021762D01*
X042117Y021840D01*
X042160Y021943D01*
X042160Y024155D01*
X042117Y024258D01*
X042039Y024336D01*
X041936Y024379D01*
X041229Y024379D01*
X041245Y024416D01*
X041245Y024489D01*
X041381Y024489D01*
X041484Y024532D01*
X041563Y024610D01*
X041605Y024713D01*
X041605Y025337D01*
X041579Y025399D01*
X041605Y025461D01*
X041605Y026085D01*
X041563Y026188D01*
X041484Y026266D01*
X041381Y026309D01*
X041350Y026309D01*
X041350Y026585D01*
X041300Y026706D01*
X041207Y026799D01*
X040947Y027059D01*
X041363Y027059D01*
X042370Y026052D01*
X042370Y025653D01*
X042413Y025550D01*
X042491Y025472D01*
X042594Y025429D01*
X042966Y025429D01*
X043069Y025472D01*
X043126Y025529D01*
X043126Y025529D01*
X043280Y025529D01*
X043434Y025529D01*
X043491Y025472D01*
X043594Y025429D01*
X043966Y025429D01*
X044030Y025456D01*
X044094Y025429D01*
X044270Y025429D01*
X044257Y024369D01*
X044094Y024369D01*
X044030Y024342D01*
X043966Y024369D01*
X043594Y024369D01*
X043530Y024342D01*
X043466Y024369D01*
X043094Y024369D01*
X043030Y024342D01*
X042966Y024369D01*
X042594Y024369D01*
X042491Y024326D01*
X042413Y024248D01*
X042370Y024145D01*
X042370Y023233D01*
X042413Y023130D01*
X042491Y023052D01*
X042594Y023009D01*
X042950Y023009D01*
X042950Y022776D01*
X042620Y022446D01*
X042570Y022325D01*
X042570Y020423D01*
X042620Y020302D01*
X042713Y020209D01*
X042929Y019993D01*
X042929Y019385D01*
X042972Y019282D01*
X043020Y019234D01*
X043020Y018356D01*
X042985Y018272D01*
X042985Y018106D01*
X043048Y017954D01*
X043160Y017842D01*
X043160Y017056D01*
X042657Y017559D01*
X042536Y017609D01*
X041671Y017609D01*
X041622Y017614D01*
X041606Y017609D01*
X041588Y017609D01*
X041543Y017590D01*
X041496Y017576D01*
X041483Y017565D01*
X041467Y017559D01*
X041432Y017524D01*
X041347Y017454D01*
X041080Y017454D01*
X041080Y017919D01*
X041936Y017919D01*
X042039Y017962D01*
X042117Y018040D01*
X042160Y018143D01*
X042160Y020355D01*
X042117Y020458D01*
X042039Y020536D01*
X041936Y020579D01*
X041064Y020579D01*
X041045Y020571D01*
X039950Y021666D01*
X039950Y023115D01*
X039900Y023236D01*
X038530Y024606D01*
X038530Y025732D01*
X038676Y025586D01*
X038705Y025558D01*
X038705Y025461D01*
X038731Y025399D01*
X038705Y025337D01*
X038705Y024713D01*
X038711Y024698D02*
X038530Y024698D01*
X038597Y024539D02*
X038815Y024539D01*
X038830Y024381D02*
X038755Y024381D01*
X038914Y024222D02*
X038920Y024222D01*
X039072Y024064D02*
X040240Y024064D01*
X040240Y024222D02*
X039540Y024222D01*
X039630Y024381D02*
X040240Y024381D01*
X040240Y024539D02*
X039741Y024539D01*
X039849Y024698D02*
X040240Y024698D01*
X040240Y024856D02*
X039855Y024856D01*
X039855Y025015D02*
X040240Y025015D01*
X040240Y025173D02*
X039855Y025173D01*
X039855Y025332D02*
X040240Y025332D01*
X040240Y025490D02*
X039855Y025490D01*
X039855Y025649D02*
X040313Y025649D01*
X040455Y025807D02*
X039855Y025807D01*
X039855Y025966D02*
X040455Y025966D01*
X040471Y026124D02*
X039839Y026124D01*
X039695Y026283D02*
X040615Y026283D01*
X040631Y026441D02*
X038755Y026441D01*
X038614Y025649D02*
X038530Y025649D01*
X038530Y025490D02*
X038705Y025490D01*
X038705Y025332D02*
X038530Y025332D01*
X038530Y025173D02*
X038705Y025173D01*
X038705Y025015D02*
X038530Y025015D01*
X039231Y023905D02*
X040240Y023905D01*
X040252Y023747D02*
X039389Y023747D01*
X039548Y023588D02*
X040364Y023588D01*
X040552Y023430D02*
X039706Y023430D01*
X039865Y023271D02*
X040736Y023271D01*
X040840Y023113D02*
X039950Y023113D01*
X039950Y022954D02*
X040840Y022954D01*
X040840Y022796D02*
X039950Y022796D01*
X039950Y022637D02*
X040840Y022637D01*
X040840Y022479D02*
X039950Y022479D01*
X039950Y022320D02*
X040840Y022320D01*
X040840Y022162D02*
X039950Y022162D01*
X039950Y022003D02*
X040840Y022003D01*
X040881Y021845D02*
X039950Y021845D01*
X039950Y021686D02*
X042570Y021686D01*
X042570Y021528D02*
X040088Y021528D01*
X040247Y021369D02*
X042570Y021369D01*
X042570Y021211D02*
X040405Y021211D01*
X040564Y021052D02*
X042570Y021052D01*
X042570Y020894D02*
X040722Y020894D01*
X040881Y020735D02*
X042570Y020735D01*
X042570Y020577D02*
X041942Y020577D01*
X042134Y020418D02*
X042572Y020418D01*
X042663Y020260D02*
X042160Y020260D01*
X042160Y020101D02*
X042821Y020101D01*
X042929Y019943D02*
X042160Y019943D01*
X042160Y019784D02*
X042929Y019784D01*
X042929Y019626D02*
X042160Y019626D01*
X042160Y019467D02*
X042929Y019467D01*
X042961Y019309D02*
X042160Y019309D01*
X042160Y019150D02*
X043020Y019150D01*
X043020Y018992D02*
X042160Y018992D01*
X042160Y018833D02*
X043020Y018833D01*
X043020Y018675D02*
X042160Y018675D01*
X042160Y018516D02*
X043020Y018516D01*
X043020Y018358D02*
X042160Y018358D01*
X042160Y018199D02*
X042985Y018199D01*
X043012Y018041D02*
X042117Y018041D01*
X042642Y017565D02*
X043160Y017565D01*
X043160Y017407D02*
X042809Y017407D01*
X042968Y017248D02*
X043160Y017248D01*
X043160Y017090D02*
X043126Y017090D01*
X043780Y017090D02*
X050520Y017090D01*
X050520Y017248D02*
X043780Y017248D01*
X043780Y017407D02*
X050520Y017407D01*
X050520Y017565D02*
X043780Y017565D01*
X043780Y017724D02*
X050520Y017724D01*
X050520Y017882D02*
X044420Y017882D01*
X044539Y018041D02*
X050520Y018041D01*
X050520Y018199D02*
X044575Y018199D01*
X044548Y018358D02*
X050520Y018358D01*
X050520Y018516D02*
X044540Y018516D01*
X044540Y018675D02*
X050520Y018675D01*
X050520Y018833D02*
X044540Y018833D01*
X044540Y018992D02*
X050520Y018992D01*
X050520Y019150D02*
X044540Y019150D01*
X044599Y019309D02*
X050520Y019309D01*
X050520Y019467D02*
X044631Y019467D01*
X044631Y019626D02*
X050520Y019626D01*
X050520Y019784D02*
X044631Y019784D01*
X044690Y019943D02*
X050520Y019943D01*
X050520Y020101D02*
X044815Y020101D01*
X044855Y020260D02*
X050520Y020260D01*
X050520Y020418D02*
X044832Y020418D01*
X044805Y020577D02*
X050520Y020577D01*
X050520Y020735D02*
X044830Y020735D01*
X044833Y020894D02*
X050520Y020894D01*
X050520Y021052D02*
X044835Y021052D01*
X044837Y021211D02*
X050520Y021211D01*
X050520Y021369D02*
X044839Y021369D01*
X044841Y021528D02*
X050520Y021528D01*
X050520Y021686D02*
X044843Y021686D01*
X044845Y021845D02*
X050520Y021845D01*
X050520Y022003D02*
X044847Y022003D01*
X044849Y022162D02*
X050520Y022162D01*
X050520Y022320D02*
X044851Y022320D01*
X044853Y022479D02*
X050520Y022479D01*
X050520Y022637D02*
X044855Y022637D01*
X044857Y022796D02*
X050520Y022796D01*
X050520Y022954D02*
X044859Y022954D01*
X044861Y023113D02*
X050520Y023113D01*
X050520Y023271D02*
X044863Y023271D01*
X044865Y023430D02*
X050520Y023430D01*
X050520Y023588D02*
X044867Y023588D01*
X044869Y023747D02*
X050520Y023747D01*
X050520Y023905D02*
X044871Y023905D01*
X044873Y024064D02*
X050520Y024064D01*
X050520Y024222D02*
X044875Y024222D01*
X044877Y024381D02*
X050520Y024381D01*
X050520Y024539D02*
X044879Y024539D01*
X044881Y024698D02*
X050520Y024698D01*
X050520Y024856D02*
X044883Y024856D01*
X044885Y025015D02*
X050520Y025015D01*
X050520Y025173D02*
X044887Y025173D01*
X044889Y025332D02*
X050520Y025332D01*
X050520Y025490D02*
X044891Y025490D01*
X044893Y025649D02*
X050520Y025649D01*
X050520Y025807D02*
X044895Y025807D01*
X044897Y025966D02*
X050520Y025966D01*
X050520Y026124D02*
X044899Y026124D01*
X044901Y026283D02*
X050520Y026283D01*
X050520Y026441D02*
X044903Y026441D01*
X044905Y026600D02*
X050520Y026600D01*
X050520Y026758D02*
X044907Y026758D01*
X044909Y026917D02*
X050520Y026917D01*
X050520Y027075D02*
X044911Y027075D01*
X044913Y027234D02*
X050520Y027234D01*
X050520Y027392D02*
X044915Y027392D01*
X044917Y027551D02*
X050520Y027551D01*
X050520Y027709D02*
X044919Y027709D01*
X044921Y027868D02*
X050520Y027868D01*
X050520Y028026D02*
X044923Y028026D01*
X044925Y028185D02*
X050520Y028185D01*
X050520Y028343D02*
X044927Y028343D01*
X044930Y028502D02*
X050520Y028502D01*
X050520Y028660D02*
X044932Y028660D01*
X044934Y028819D02*
X050520Y028819D01*
X050520Y028977D02*
X044936Y028977D01*
X044938Y029136D02*
X050520Y029136D01*
X050520Y029294D02*
X044940Y029294D01*
X044942Y029453D02*
X050520Y029453D01*
X050520Y029611D02*
X044944Y029611D01*
X044946Y029770D02*
X050520Y029770D01*
X050520Y029928D02*
X044948Y029928D01*
X044950Y030087D02*
X050520Y030087D01*
X050520Y030245D02*
X044952Y030245D01*
X044954Y030404D02*
X050520Y030404D01*
X050520Y030562D02*
X045912Y030562D01*
X046053Y030721D02*
X050520Y030721D01*
X050520Y030879D02*
X046119Y030879D01*
X046140Y031038D02*
X050520Y031038D01*
X050520Y031196D02*
X046137Y031196D01*
X046071Y031355D02*
X050520Y031355D01*
X050520Y031513D02*
X045955Y031513D01*
X046022Y031672D02*
X050520Y031672D01*
X050520Y031830D02*
X046099Y031830D01*
X046140Y031989D02*
X050520Y031989D01*
X050520Y032147D02*
X046140Y032147D01*
X046091Y032306D02*
X050520Y032306D01*
X050520Y032464D02*
X046004Y032464D01*
X045973Y032623D02*
X050520Y032623D01*
X050520Y032781D02*
X046078Y032781D01*
X046140Y032940D02*
X050520Y032940D01*
X050520Y033098D02*
X046140Y033098D01*
X046112Y033257D02*
X050520Y033257D01*
X050520Y033415D02*
X046046Y033415D01*
X045924Y033574D02*
X050520Y033574D01*
X050520Y033732D02*
X046058Y033732D01*
X046124Y033891D02*
X050520Y033891D01*
X050520Y034049D02*
X046140Y034049D01*
X046132Y034208D02*
X050520Y034208D01*
X050520Y034366D02*
X046066Y034366D01*
X045944Y034525D02*
X050520Y034525D01*
X050520Y034683D02*
X046033Y034683D01*
X046103Y034842D02*
X050520Y034842D01*
X050520Y035000D02*
X046140Y035000D01*
X046140Y035159D02*
X050520Y035159D01*
X050520Y035317D02*
X050111Y035317D01*
X050319Y035476D02*
X050520Y035476D01*
X050520Y035634D02*
X050459Y035634D01*
X048989Y035317D02*
X046087Y035317D01*
X045993Y035476D02*
X048781Y035476D01*
X048641Y035634D02*
X045800Y035634D01*
X045180Y035634D02*
X044584Y035634D01*
X044720Y035793D02*
X048549Y035793D01*
X048491Y035951D02*
X044786Y035951D01*
X044724Y035476D02*
X044987Y035476D01*
X044893Y035317D02*
X044790Y035317D01*
X044810Y035159D02*
X044840Y035159D01*
X044744Y036427D02*
X048448Y036427D01*
X048491Y036585D02*
X044633Y036585D01*
X044399Y036744D02*
X048548Y036744D01*
X048640Y036902D02*
X039528Y036902D01*
X039744Y036744D02*
X043921Y036744D01*
X043687Y036585D02*
X039902Y036585D01*
X040061Y036427D02*
X041142Y036427D01*
X040972Y036268D02*
X040308Y036268D01*
X040647Y036110D02*
X040814Y036110D01*
X040765Y036061D02*
X040765Y036061D01*
X039594Y036017D02*
X037008Y036010D01*
X037042Y036044D01*
X037105Y036196D01*
X037105Y036289D01*
X039322Y036289D01*
X039594Y036017D01*
X039501Y036110D02*
X037069Y036110D01*
X037105Y036268D02*
X039343Y036268D01*
X039238Y034599D02*
X039592Y034599D01*
X039577Y034585D01*
X039530Y034471D01*
X039530Y034469D01*
X039347Y034469D01*
X039252Y034430D01*
X039252Y034520D01*
X039245Y034538D01*
X039245Y034582D01*
X039238Y034599D01*
X039251Y034525D02*
X039552Y034525D01*
X040070Y033415D02*
X040320Y033415D01*
X040320Y033257D02*
X039994Y033257D01*
X044956Y030562D02*
X045068Y030562D01*
X042711Y028502D02*
X041350Y028502D01*
X041350Y028371D02*
X041350Y028837D01*
X042376Y028837D01*
X043396Y027817D01*
X043380Y027778D01*
X043380Y027520D01*
X043479Y027281D01*
X043633Y027127D01*
X043595Y027111D01*
X043478Y026994D01*
X043415Y026842D01*
X043415Y026740D01*
X043413Y026735D01*
X043412Y026729D01*
X043410Y026723D01*
X043410Y026689D01*
X043280Y026689D01*
X043280Y026109D01*
X043280Y025529D01*
X043280Y026109D01*
X043280Y026109D01*
X043280Y026689D01*
X043126Y026689D01*
X043069Y026746D01*
X042966Y026789D01*
X042594Y026789D01*
X042575Y026781D01*
X041687Y027669D01*
X041566Y027719D01*
X041434Y027719D01*
X040532Y027719D01*
X040532Y028135D01*
X040524Y028155D01*
X040544Y028147D01*
X041126Y028147D01*
X041229Y028189D01*
X041307Y028268D01*
X041350Y028371D01*
X041338Y028343D02*
X042869Y028343D01*
X043028Y028185D02*
X041217Y028185D01*
X041350Y028660D02*
X042552Y028660D01*
X042394Y028819D02*
X041350Y028819D01*
X040532Y028026D02*
X043186Y028026D01*
X043345Y027868D02*
X040532Y027868D01*
X041590Y027709D02*
X043380Y027709D01*
X043380Y027551D02*
X041805Y027551D01*
X041964Y027392D02*
X043433Y027392D01*
X043526Y027234D02*
X042122Y027234D01*
X042281Y027075D02*
X043559Y027075D01*
X043446Y026917D02*
X042439Y026917D01*
X043040Y026758D02*
X043415Y026758D01*
X043280Y026600D02*
X043280Y026600D01*
X043280Y026441D02*
X043280Y026441D01*
X043280Y026283D02*
X043280Y026283D01*
X043280Y026124D02*
X043280Y026124D01*
X043280Y026109D02*
X043280Y026109D01*
X043280Y025966D02*
X043280Y025966D01*
X043280Y025807D02*
X043280Y025807D01*
X043280Y025649D02*
X043280Y025649D01*
X043434Y025529D02*
X043434Y025529D01*
X043473Y025490D02*
X043087Y025490D01*
X042473Y025490D02*
X041605Y025490D01*
X041605Y025332D02*
X044269Y025332D01*
X044267Y025173D02*
X041605Y025173D01*
X041605Y025015D02*
X044265Y025015D01*
X044263Y024856D02*
X041605Y024856D01*
X041599Y024698D02*
X044261Y024698D01*
X044259Y024539D02*
X041491Y024539D01*
X041230Y024381D02*
X044257Y024381D01*
X042402Y024222D02*
X042132Y024222D01*
X042160Y024064D02*
X042370Y024064D01*
X042370Y023905D02*
X042160Y023905D01*
X042160Y023747D02*
X042370Y023747D01*
X042370Y023588D02*
X042160Y023588D01*
X042160Y023430D02*
X042370Y023430D01*
X042370Y023271D02*
X042160Y023271D01*
X042160Y023113D02*
X042430Y023113D01*
X042160Y022954D02*
X042950Y022954D01*
X042950Y022796D02*
X042160Y022796D01*
X042160Y022637D02*
X042811Y022637D01*
X042653Y022479D02*
X042160Y022479D01*
X042160Y022320D02*
X042570Y022320D01*
X042570Y022162D02*
X042160Y022162D01*
X042160Y022003D02*
X042570Y022003D01*
X042570Y021845D02*
X042119Y021845D01*
X041058Y020577D02*
X041039Y020577D01*
X041080Y017882D02*
X043120Y017882D01*
X043160Y017724D02*
X041080Y017724D01*
X041080Y017565D02*
X041482Y017565D01*
X039762Y016139D02*
X039756Y016139D01*
X039762Y015980D02*
X039309Y015980D01*
X039430Y016399D02*
X038957Y016399D01*
X038198Y016456D02*
X036864Y016456D01*
X037022Y016614D02*
X038198Y016614D01*
X038223Y016773D02*
X037181Y016773D01*
X037339Y016931D02*
X038223Y016931D01*
X038223Y017090D02*
X037498Y017090D01*
X037656Y017248D02*
X038189Y017248D01*
X038148Y017407D02*
X037815Y017407D01*
X037973Y017565D02*
X038148Y017565D01*
X038132Y017724D02*
X038148Y017724D01*
X038198Y016297D02*
X036705Y016297D01*
X036547Y016139D02*
X038198Y016139D01*
X038251Y015980D02*
X036388Y015980D01*
X036230Y015822D02*
X039762Y015822D01*
X039792Y015663D02*
X036071Y015663D01*
X035913Y015505D02*
X039990Y015505D01*
X040243Y015505D02*
X040246Y015505D01*
X040499Y015505D02*
X040502Y015505D01*
X040755Y015505D02*
X040758Y015505D01*
X041011Y015505D02*
X041013Y015505D01*
X041267Y015505D02*
X041269Y015505D01*
X041523Y015505D02*
X041525Y015505D01*
X041779Y015505D02*
X041781Y015505D01*
X042035Y015505D02*
X042037Y015505D01*
X042291Y015505D02*
X042293Y015505D01*
X042547Y015505D02*
X042805Y015505D01*
X043058Y015505D02*
X043061Y015505D01*
X043314Y015505D02*
X043317Y015505D01*
X043570Y015505D02*
X050520Y015505D01*
X050520Y015663D02*
X043768Y015663D01*
X043798Y015822D02*
X050520Y015822D01*
X050520Y015980D02*
X043798Y015980D01*
X043798Y016139D02*
X050520Y016139D01*
X050520Y016297D02*
X043798Y016297D01*
X043782Y016456D02*
X050520Y016456D01*
X050520Y016614D02*
X043780Y016614D01*
X043780Y016773D02*
X050520Y016773D01*
X050520Y016931D02*
X043780Y016931D01*
X043851Y017882D02*
X043900Y017882D01*
X043649Y013761D02*
X050520Y013761D01*
X050520Y013603D02*
X043781Y013603D01*
X043798Y013444D02*
X050520Y013444D01*
X050520Y013286D02*
X043798Y013286D01*
X043798Y013127D02*
X050520Y013127D01*
X050520Y012969D02*
X043798Y012969D01*
X043768Y012810D02*
X050520Y012810D01*
X050520Y012652D02*
X043573Y012652D01*
X043702Y012624D02*
X043702Y012197D01*
X044090Y012197D01*
X044090Y012468D01*
X044078Y012514D01*
X044054Y012555D01*
X044020Y012588D01*
X043979Y012612D01*
X043934Y012624D01*
X043702Y012624D01*
X043702Y012493D02*
X043606Y012493D01*
X043606Y012335D02*
X043702Y012335D01*
X043702Y012176D02*
X050520Y012176D01*
X050520Y012018D02*
X044090Y012018D01*
X044090Y011859D02*
X050520Y011859D01*
X050520Y011701D02*
X044005Y011701D01*
X043702Y011701D02*
X043606Y011701D01*
X043606Y011859D02*
X043702Y011859D01*
X043702Y012018D02*
X043606Y012018D01*
X044090Y012335D02*
X050520Y012335D01*
X050520Y012493D02*
X044083Y012493D01*
X043276Y011542D02*
X050520Y011542D01*
X050520Y011384D02*
X043276Y011384D01*
X043276Y011225D02*
X050520Y011225D01*
X050520Y011067D02*
X044042Y011067D01*
X044054Y011055D02*
X044020Y011088D01*
X043979Y011112D01*
X043934Y011124D01*
X043702Y011124D01*
X043702Y010697D01*
X044090Y010697D01*
X044090Y010968D01*
X044078Y011014D01*
X044054Y011055D01*
X044090Y010908D02*
X050520Y010908D01*
X050520Y010750D02*
X044090Y010750D01*
X044090Y010591D02*
X050520Y010591D01*
X050520Y010433D02*
X044090Y010433D01*
X044072Y010274D02*
X050520Y010274D01*
X050520Y010116D02*
X043345Y010116D01*
X043300Y009957D02*
X050520Y009957D01*
X050520Y009799D02*
X043166Y009799D01*
X043172Y009640D02*
X043516Y009640D01*
X043524Y009647D02*
X043490Y009614D01*
X043467Y009573D01*
X043454Y009527D01*
X043454Y009167D01*
X043813Y009167D01*
X043813Y009131D01*
X043454Y009131D01*
X043454Y008771D01*
X043467Y008725D01*
X043490Y008684D01*
X043524Y008651D01*
X043565Y008627D01*
X043611Y008615D01*
X043813Y008615D01*
X043813Y009131D01*
X043850Y009131D01*
X043850Y009167D01*
X044208Y009167D01*
X044208Y009527D01*
X044196Y009573D01*
X044172Y009614D01*
X044139Y009647D01*
X044098Y009671D01*
X044052Y009683D01*
X043850Y009683D01*
X043850Y009167D01*
X043813Y009167D01*
X043813Y009683D01*
X043611Y009683D01*
X043565Y009671D01*
X043524Y009647D01*
X043454Y009482D02*
X043206Y009482D01*
X043206Y009323D02*
X043454Y009323D01*
X043206Y009165D02*
X043813Y009165D01*
X043850Y009165D02*
X050520Y009165D01*
X050520Y009323D02*
X044208Y009323D01*
X044208Y009482D02*
X050520Y009482D01*
X050520Y009640D02*
X044146Y009640D01*
X043850Y009640D02*
X043813Y009640D01*
X043813Y009482D02*
X043850Y009482D01*
X043850Y009323D02*
X043813Y009323D01*
X043850Y009131D02*
X044208Y009131D01*
X044208Y008771D01*
X044196Y008725D01*
X044172Y008684D01*
X044139Y008651D01*
X044098Y008627D01*
X044052Y008615D01*
X043850Y008615D01*
X043850Y009131D01*
X043850Y009006D02*
X043813Y009006D01*
X043813Y008848D02*
X043850Y008848D01*
X043850Y008689D02*
X043813Y008689D01*
X043487Y008689D02*
X043185Y008689D01*
X043206Y008848D02*
X043454Y008848D01*
X043454Y009006D02*
X043206Y009006D01*
X043110Y008531D02*
X050520Y008531D01*
X050520Y008689D02*
X044175Y008689D01*
X044208Y008848D02*
X050520Y008848D01*
X050520Y009006D02*
X044208Y009006D01*
X043393Y008214D02*
X050520Y008214D01*
X050520Y008372D02*
X043234Y008372D01*
X043551Y008055D02*
X050520Y008055D01*
X050520Y007897D02*
X043710Y007897D01*
X043868Y007738D02*
X049018Y007738D01*
X048798Y007580D02*
X044027Y007580D01*
X044185Y007421D02*
X048650Y007421D01*
X048559Y007263D02*
X044344Y007263D01*
X044502Y007104D02*
X048496Y007104D01*
X048453Y006946D02*
X044661Y006946D01*
X045191Y006787D02*
X048445Y006787D01*
X048445Y006629D02*
X045360Y006629D01*
X045444Y006470D02*
X048486Y006470D01*
X048538Y006312D02*
X045490Y006312D01*
X045490Y006153D02*
X048630Y006153D01*
X048762Y005995D02*
X045446Y005995D01*
X045366Y005836D02*
X048956Y005836D01*
X050450Y007421D02*
X050520Y007421D01*
X050520Y007580D02*
X050302Y007580D01*
X050520Y007738D02*
X050082Y007738D01*
X043702Y010274D02*
X043606Y010274D01*
X043606Y010433D02*
X043702Y010433D01*
X043702Y010591D02*
X043606Y010591D01*
X043606Y010750D02*
X043702Y010750D01*
X043702Y010908D02*
X043606Y010908D01*
X043606Y011067D02*
X043702Y011067D01*
X041447Y013761D02*
X041089Y013761D01*
X039911Y013761D02*
X034169Y013761D01*
X034011Y013603D02*
X037702Y013603D01*
X037602Y013444D02*
X033852Y013444D01*
X033694Y013286D02*
X037600Y013286D01*
X037522Y013127D02*
X033535Y013127D01*
X033377Y012969D02*
X037363Y012969D01*
X037205Y012810D02*
X033218Y012810D01*
X033060Y012652D02*
X037046Y012652D01*
X036888Y012493D02*
X032901Y012493D01*
X032743Y012335D02*
X036729Y012335D01*
X036284Y012176D02*
X032584Y012176D01*
X032426Y012018D02*
X035541Y012018D01*
X035530Y011859D02*
X032267Y011859D01*
X032109Y011701D02*
X035918Y011701D01*
X035918Y011611D02*
X035530Y011611D01*
X035530Y011340D01*
X035542Y011294D01*
X035566Y011253D01*
X035600Y011220D01*
X035641Y011196D01*
X035686Y011184D01*
X035918Y011184D01*
X035918Y011611D01*
X035918Y011542D02*
X036014Y011542D01*
X036014Y011384D02*
X035918Y011384D01*
X035918Y011225D02*
X036014Y011225D01*
X036224Y011067D02*
X031475Y011067D01*
X031633Y011225D02*
X035594Y011225D01*
X035530Y011384D02*
X031792Y011384D01*
X031950Y011542D02*
X035530Y011542D01*
X035918Y011859D02*
X036014Y011859D01*
X036014Y012018D02*
X035918Y012018D01*
X035878Y010908D02*
X035974Y010908D01*
X035974Y010750D02*
X035878Y010750D01*
X035878Y010591D02*
X030999Y010591D01*
X030841Y010433D02*
X035490Y010433D01*
X035490Y010521D02*
X035490Y010250D01*
X035502Y010204D01*
X035526Y010163D01*
X035560Y010130D01*
X035601Y010106D01*
X035646Y010094D01*
X035878Y010094D01*
X035878Y010521D01*
X035490Y010521D01*
X035490Y010750D02*
X031158Y010750D01*
X031316Y010908D02*
X035495Y010908D01*
X035878Y010433D02*
X035974Y010433D01*
X035974Y010274D02*
X035878Y010274D01*
X035878Y010116D02*
X035974Y010116D01*
X035584Y010116D02*
X030524Y010116D01*
X030682Y010274D02*
X035490Y010274D01*
X035482Y009709D02*
X035211Y009709D01*
X035165Y009697D01*
X035124Y009673D01*
X035091Y009639D01*
X035067Y009598D01*
X035055Y009553D01*
X035055Y009321D01*
X035482Y009321D01*
X035482Y009225D01*
X035055Y009225D01*
X035055Y008997D01*
X034997Y008940D01*
X034955Y008837D01*
X034955Y008213D01*
X034997Y008110D01*
X035076Y008032D01*
X035179Y007989D01*
X035200Y007989D01*
X035200Y007786D01*
X035178Y007764D01*
X035115Y007612D01*
X035115Y007446D01*
X035178Y007294D01*
X035295Y007177D01*
X035447Y007114D01*
X035613Y007114D01*
X035765Y007177D01*
X035882Y007294D01*
X035945Y007446D01*
X035945Y007612D01*
X035882Y007764D01*
X035860Y007786D01*
X035860Y007989D01*
X035881Y007989D01*
X035984Y008032D01*
X036063Y008110D01*
X036105Y008213D01*
X036105Y008837D01*
X036063Y008940D01*
X036005Y008997D01*
X036005Y009225D01*
X035578Y009225D01*
X035578Y009321D01*
X036005Y009321D01*
X036005Y009553D01*
X035993Y009598D01*
X035969Y009639D01*
X035936Y009673D01*
X035895Y009697D01*
X035849Y009709D01*
X035578Y009709D01*
X035578Y009321D01*
X035482Y009321D01*
X035482Y009709D01*
X035482Y009640D02*
X035578Y009640D01*
X035578Y009482D02*
X035482Y009482D01*
X035482Y009323D02*
X035578Y009323D01*
X036005Y009323D02*
X038916Y009323D01*
X038905Y009165D02*
X036005Y009165D01*
X036005Y009006D02*
X038670Y009006D01*
X038597Y008848D02*
X036101Y008848D01*
X036105Y008689D02*
X038595Y008689D01*
X038655Y008531D02*
X036105Y008531D01*
X036105Y008372D02*
X038860Y008372D01*
X039140Y008214D02*
X036105Y008214D01*
X036007Y008055D02*
X039140Y008055D01*
X039140Y007897D02*
X035860Y007897D01*
X035893Y007738D02*
X039140Y007738D01*
X039140Y007580D02*
X035945Y007580D01*
X035934Y007421D02*
X039140Y007421D01*
X039140Y007263D02*
X035850Y007263D01*
X035210Y007263D02*
X008618Y007263D01*
X008618Y007421D02*
X035126Y007421D01*
X035115Y007580D02*
X008618Y007580D01*
X008618Y007738D02*
X035167Y007738D01*
X035200Y007897D02*
X008618Y007897D01*
X008618Y008055D02*
X035053Y008055D01*
X034955Y008214D02*
X010358Y008214D01*
X010393Y008372D02*
X012512Y008372D01*
X012347Y008531D02*
X010393Y008531D01*
X010393Y008689D02*
X012295Y008689D01*
X012306Y008848D02*
X010393Y008848D01*
X010390Y009006D02*
X012390Y009006D01*
X013073Y008531D02*
X034955Y008531D01*
X034955Y008689D02*
X029097Y008689D01*
X029256Y008848D02*
X034959Y008848D01*
X035055Y009006D02*
X029414Y009006D01*
X029573Y009165D02*
X035055Y009165D01*
X035055Y009323D02*
X029731Y009323D01*
X029890Y009482D02*
X035055Y009482D01*
X035091Y009640D02*
X030048Y009640D01*
X030207Y009799D02*
X038870Y009799D01*
X038870Y009957D02*
X030365Y009957D01*
X034955Y008372D02*
X012908Y008372D01*
X012969Y007104D02*
X015635Y007104D01*
X015357Y006946D02*
X013046Y006946D01*
X013046Y006787D02*
X014175Y006787D01*
X014087Y006698D02*
X014087Y006698D01*
X014017Y006629D02*
X013046Y006629D01*
X013017Y006470D02*
X013858Y006470D01*
X014370Y005836D02*
X015630Y005836D01*
X015355Y005995D02*
X014528Y005995D01*
X015970Y005836D02*
X037290Y005836D01*
X037290Y005995D02*
X016245Y005995D01*
X016373Y006153D02*
X037290Y006153D01*
X037290Y006249D02*
X037820Y006249D01*
X037820Y006779D01*
X037446Y006779D01*
X037401Y006767D01*
X037359Y006743D01*
X037326Y006710D01*
X037302Y006668D01*
X037290Y006623D01*
X037290Y006249D01*
X037290Y006312D02*
X016438Y006312D01*
X016450Y006470D02*
X037290Y006470D01*
X037292Y006629D02*
X016437Y006629D01*
X016372Y006787D02*
X038489Y006787D01*
X037860Y006629D02*
X037820Y006629D01*
X037820Y006470D02*
X037860Y006470D01*
X037860Y006312D02*
X037820Y006312D01*
X039140Y006946D02*
X016243Y006946D01*
X015965Y007104D02*
X039140Y007104D01*
X038870Y009482D02*
X036005Y009482D01*
X035969Y009640D02*
X038870Y009640D01*
X038870Y010116D02*
X037167Y010116D01*
X037564Y010274D02*
X038819Y010274D01*
X038785Y010433D02*
X037723Y010433D01*
X037881Y010591D02*
X038814Y010591D01*
X038924Y010750D02*
X038040Y010750D01*
X038469Y010908D02*
X038591Y010908D01*
X039296Y010908D02*
X039370Y010908D01*
X039514Y012652D02*
X039790Y012652D01*
X039790Y012810D02*
X039440Y012810D01*
X039460Y012969D02*
X039762Y012969D01*
X039762Y013127D02*
X039460Y013127D01*
X039460Y013286D02*
X039762Y013286D01*
X039762Y013444D02*
X039458Y013444D01*
X039358Y013603D02*
X039779Y013603D01*
X035754Y015346D02*
X050520Y015346D01*
X050520Y015188D02*
X035596Y015188D01*
X035437Y015029D02*
X050520Y015029D01*
X050520Y014871D02*
X035279Y014871D01*
X035120Y014712D02*
X050520Y014712D01*
X050520Y014554D02*
X034962Y014554D01*
X034803Y014395D02*
X050520Y014395D01*
X050520Y014237D02*
X034645Y014237D01*
X034486Y014078D02*
X050520Y014078D01*
X050520Y013920D02*
X034328Y013920D01*
X022650Y021369D02*
X021818Y021369D01*
X021977Y021211D02*
X022521Y021211D01*
X022435Y021052D02*
X022135Y021052D01*
X022650Y021528D02*
X020410Y021528D01*
X020410Y021686D02*
X022650Y021686D01*
X022650Y021845D02*
X020410Y021845D01*
X020410Y022003D02*
X022650Y022003D01*
X022650Y022162D02*
X020410Y022162D01*
X020438Y022320D02*
X022650Y022320D01*
X022650Y022479D02*
X020676Y022479D01*
X020867Y022637D02*
X022650Y022637D01*
X022650Y022796D02*
X020925Y022796D01*
X020920Y022954D02*
X022650Y022954D01*
X022650Y023113D02*
X020843Y023113D01*
X020600Y023271D02*
X022650Y023271D01*
X022650Y023430D02*
X019876Y023430D01*
X019861Y023271D02*
X020420Y023271D01*
X020177Y023113D02*
X019847Y023113D01*
X019714Y022954D02*
X020100Y022954D01*
X019980Y022796D02*
X016360Y022796D01*
X016360Y022717D02*
X016360Y022877D01*
X016200Y022877D01*
X016200Y023439D01*
X015174Y023439D01*
X015128Y023427D01*
X015087Y023403D01*
X015053Y023370D01*
X015030Y023329D01*
X015017Y023283D01*
X015017Y022877D01*
X016200Y022877D01*
X016200Y022717D01*
X015017Y022717D01*
X015017Y022310D01*
X015030Y022265D01*
X015053Y022224D01*
X015087Y022190D01*
X015128Y022166D01*
X015174Y022154D01*
X016200Y022154D01*
X016200Y022717D01*
X016360Y022717D01*
X017543Y022717D01*
X017543Y022310D01*
X017530Y022265D01*
X017507Y022224D01*
X017473Y022190D01*
X017432Y022166D01*
X017386Y022154D01*
X016360Y022154D01*
X016360Y022717D01*
X016360Y022637D02*
X016200Y022637D01*
X016200Y022479D02*
X016360Y022479D01*
X016360Y022320D02*
X016200Y022320D01*
X016200Y022162D02*
X016360Y022162D01*
X016200Y022796D02*
X014142Y022796D01*
X014007Y022954D02*
X015017Y022954D01*
X015017Y023113D02*
X014007Y023113D01*
X014007Y023271D02*
X015017Y023271D01*
X015137Y023430D02*
X013976Y023430D01*
X013920Y023588D02*
X018299Y023588D01*
X018299Y023430D02*
X017423Y023430D01*
X017432Y023427D02*
X017386Y023439D01*
X016360Y023439D01*
X016360Y022877D01*
X017543Y022877D01*
X017543Y023283D01*
X017530Y023329D01*
X017507Y023370D01*
X017473Y023403D01*
X017432Y023427D01*
X017543Y023271D02*
X018299Y023271D01*
X018323Y023113D02*
X017543Y023113D01*
X017543Y022954D02*
X019015Y022954D01*
X018714Y023113D02*
X018677Y023113D01*
X018677Y023271D02*
X018714Y023271D01*
X018380Y023747D02*
X013920Y023747D01*
X013940Y023905D02*
X018625Y023905D01*
X018390Y024064D02*
X013945Y024064D01*
X013887Y024222D02*
X018368Y024222D01*
X018368Y024381D02*
X017600Y024381D01*
X017643Y024539D02*
X018368Y024539D01*
X018368Y024387D02*
X018642Y024387D01*
X018368Y024387D01*
X018642Y024387D02*
X018642Y024387D01*
X018656Y024714D02*
X018656Y024803D01*
X018656Y024714D01*
X018656Y024714D01*
X018758Y024856D02*
X017643Y024856D01*
X017643Y024698D02*
X018383Y024698D01*
X018312Y025015D02*
X017643Y025015D01*
X017643Y025173D02*
X018268Y025173D01*
X018268Y025332D02*
X017643Y025332D01*
X017643Y025490D02*
X018268Y025490D01*
X018268Y025649D02*
X017574Y025649D01*
X017510Y025807D02*
X018276Y025807D01*
X018276Y025966D02*
X017510Y025966D01*
X019000Y025015D02*
X019060Y025015D01*
X019302Y024856D02*
X020346Y024856D01*
X020182Y024698D02*
X019677Y024698D01*
X019692Y024539D02*
X020024Y024539D01*
X019865Y024381D02*
X019692Y024381D01*
X019692Y024222D02*
X019707Y024222D01*
X019404Y024714D02*
X019404Y024714D01*
X019404Y024803D01*
X019404Y024714D01*
X019748Y025015D02*
X020553Y025015D01*
X020553Y025173D02*
X019792Y025173D01*
X019792Y025332D02*
X020553Y025332D01*
X020553Y025490D02*
X019792Y025490D01*
X019792Y025649D02*
X020620Y025649D01*
X020560Y025807D02*
X019748Y025807D01*
X021348Y026119D02*
X029152Y026119D01*
X029242Y026029D01*
X027897Y026029D01*
X027813Y026064D01*
X027647Y026064D01*
X027495Y026001D01*
X027378Y025884D01*
X027315Y025732D01*
X027315Y025566D01*
X027378Y025414D01*
X027495Y025297D01*
X027647Y025234D01*
X027813Y025234D01*
X027897Y025269D01*
X029433Y025269D01*
X029878Y024824D01*
X029878Y024824D01*
X029985Y024717D01*
X030124Y024659D01*
X031656Y024659D01*
X031795Y024717D01*
X032437Y025359D01*
X032582Y025359D01*
X032551Y025323D01*
X031666Y024269D01*
X023410Y024269D01*
X023410Y024385D01*
X023352Y024524D01*
X022422Y025454D01*
X022315Y025561D01*
X022176Y025619D01*
X021454Y025619D01*
X021385Y025688D01*
X021380Y025690D01*
X021380Y025915D01*
X021387Y025946D01*
X021380Y025990D01*
X021380Y026035D01*
X021368Y026064D01*
X021363Y026095D01*
X021348Y026119D01*
X021384Y025966D02*
X027460Y025966D01*
X027346Y025807D02*
X021380Y025807D01*
X021424Y025649D02*
X027315Y025649D01*
X027347Y025490D02*
X022386Y025490D01*
X022545Y025332D02*
X027461Y025332D01*
X029529Y025173D02*
X022703Y025173D01*
X022862Y025015D02*
X029687Y025015D01*
X029846Y024856D02*
X023020Y024856D01*
X023179Y024698D02*
X030031Y024698D01*
X031749Y024698D02*
X032026Y024698D01*
X031934Y024856D02*
X032159Y024856D01*
X032093Y025015D02*
X032292Y025015D01*
X032251Y025173D02*
X032426Y025173D01*
X032410Y025332D02*
X032559Y025332D01*
X032551Y025323D02*
X032551Y025323D01*
X031893Y024539D02*
X023337Y024539D01*
X023410Y024381D02*
X031760Y024381D01*
X035798Y025490D02*
X035844Y025490D01*
X036778Y025966D02*
X036778Y025966D01*
X041089Y026917D02*
X041506Y026917D01*
X041664Y026758D02*
X041248Y026758D01*
X041344Y026600D02*
X041823Y026600D01*
X041981Y026441D02*
X041350Y026441D01*
X041445Y026283D02*
X042140Y026283D01*
X042298Y026124D02*
X041589Y026124D01*
X041605Y025966D02*
X042370Y025966D01*
X042370Y025807D02*
X041605Y025807D01*
X041605Y025649D02*
X042372Y025649D01*
X043126Y026689D02*
X043126Y026689D01*
X048779Y037061D02*
X002821Y037061D01*
X002960Y036902D02*
X020652Y036902D01*
X020436Y036744D02*
X003052Y036744D01*
X003109Y036585D02*
X020278Y036585D01*
X020119Y036427D02*
X003152Y036427D01*
X003155Y036268D02*
X019961Y036268D01*
X019802Y036110D02*
X003151Y036110D01*
X003109Y035951D02*
X019644Y035951D01*
X019485Y035793D02*
X003051Y035793D01*
X002959Y035634D02*
X019327Y035634D01*
X018723Y035476D02*
X018337Y035476D01*
X017723Y035476D02*
X017337Y035476D01*
X016723Y035476D02*
X016337Y035476D01*
X015723Y035476D02*
X015337Y035476D01*
X014723Y035476D02*
X014337Y035476D01*
X013723Y035476D02*
X002819Y035476D01*
X002614Y037219D02*
X048986Y037219D01*
X027880Y030879D02*
X019276Y030879D01*
X019341Y030721D02*
X027880Y030721D01*
X027880Y030562D02*
X019341Y030562D01*
X019341Y030404D02*
X027880Y030404D01*
X027880Y030245D02*
X019336Y030245D01*
X019280Y030087D02*
X027880Y030087D01*
X027880Y029928D02*
X019186Y029928D01*
X019062Y029770D02*
X027880Y029770D01*
X027880Y029611D02*
X018817Y029611D01*
X018643Y029611D02*
X018611Y029611D01*
X018611Y029453D02*
X027880Y029453D01*
X027880Y029294D02*
X018611Y029294D01*
X018607Y029136D02*
X027880Y029136D01*
X027880Y028977D02*
X018502Y028977D01*
X018206Y028819D02*
X027852Y028819D01*
X027845Y028660D02*
X018217Y028660D01*
X018217Y028502D02*
X027901Y028502D01*
X022580Y024222D02*
X021478Y024222D01*
X021507Y024381D02*
X022421Y024381D01*
X022263Y024539D02*
X021507Y024539D01*
X021507Y024698D02*
X022104Y024698D01*
X021946Y024856D02*
X021499Y024856D01*
X020510Y024064D02*
X022650Y024064D01*
X022650Y023905D02*
X020352Y023905D01*
X020193Y023747D02*
X022650Y023747D01*
X022650Y023588D02*
X020035Y023588D01*
X019821Y022637D02*
X017543Y022637D01*
X017543Y022479D02*
X019750Y022479D01*
X019750Y022320D02*
X017543Y022320D01*
X017414Y022162D02*
X019750Y022162D01*
X019750Y022003D02*
X014934Y022003D01*
X014776Y022162D02*
X015146Y022162D01*
X015017Y022320D02*
X014617Y022320D01*
X014459Y022479D02*
X015017Y022479D01*
X015017Y022637D02*
X014300Y022637D01*
X013718Y022003D02*
X007460Y022003D01*
X007460Y021845D02*
X013876Y021845D01*
X014035Y021686D02*
X007460Y021686D01*
X007460Y021528D02*
X014193Y021528D01*
X014352Y021369D02*
X007460Y021369D01*
X007460Y021211D02*
X014510Y021211D01*
X014669Y021052D02*
X007460Y021052D01*
X007460Y020994D02*
X007460Y022446D01*
X007725Y022446D01*
X007828Y022488D01*
X007907Y022567D01*
X007950Y022670D01*
X007950Y022788D01*
X008933Y022788D01*
X009053Y022668D01*
X009053Y022243D01*
X009096Y022140D01*
X009175Y022062D01*
X009277Y022019D01*
X009783Y022019D01*
X009885Y022062D01*
X009964Y022140D01*
X010007Y022243D01*
X010007Y023355D01*
X009964Y023458D01*
X009885Y023536D01*
X009783Y023579D01*
X009358Y023579D01*
X009355Y023582D01*
X009197Y023648D01*
X007950Y023648D01*
X007950Y023766D01*
X007907Y023869D01*
X007828Y023947D01*
X007725Y023990D01*
X006335Y023990D01*
X006232Y023947D01*
X006153Y023869D01*
X006110Y023766D01*
X006110Y022670D01*
X006153Y022567D01*
X006232Y022488D01*
X006335Y022446D01*
X006600Y022446D01*
X006600Y020994D01*
X005392Y020994D01*
X005289Y020951D01*
X005210Y020873D01*
X005167Y020770D01*
X005167Y019733D01*
X005210Y019630D01*
X005289Y019551D01*
X005392Y019509D01*
X007668Y019509D01*
X007771Y019551D01*
X007850Y019630D01*
X007893Y019733D01*
X007893Y020770D01*
X007850Y020873D01*
X007771Y020951D01*
X007668Y020994D01*
X007460Y020994D01*
X007829Y020894D02*
X014827Y020894D01*
X014986Y020735D02*
X007893Y020735D01*
X007893Y020577D02*
X015144Y020577D01*
X015167Y020418D02*
X007893Y020418D01*
X007893Y020260D02*
X015167Y020260D01*
X015167Y020101D02*
X007893Y020101D01*
X007893Y019943D02*
X015184Y019943D01*
X015331Y019784D02*
X007893Y019784D01*
X007845Y019626D02*
X015558Y019626D01*
X015400Y019467D02*
X001080Y019467D01*
X001080Y019309D02*
X015241Y019309D01*
X015083Y019150D02*
X001080Y019150D01*
X001080Y018992D02*
X014924Y018992D01*
X014766Y018833D02*
X001080Y018833D01*
X001080Y018675D02*
X005217Y018675D01*
X005167Y018516D02*
X001080Y018516D01*
X001080Y018358D02*
X005167Y018358D01*
X005167Y018199D02*
X001080Y018199D01*
X001080Y018041D02*
X005167Y018041D01*
X005167Y017882D02*
X001080Y017882D01*
X001080Y017724D02*
X005167Y017724D01*
X005167Y017565D02*
X001080Y017565D01*
X001080Y017407D02*
X005229Y017407D01*
X005668Y017248D02*
X001080Y017248D01*
X001080Y017090D02*
X005648Y017090D01*
X005680Y016931D02*
X001080Y016931D01*
X001080Y016773D02*
X005778Y016773D01*
X006183Y016614D02*
X001080Y016614D01*
X001080Y016456D02*
X007056Y016456D01*
X007053Y016614D02*
X006877Y016614D01*
X006867Y016614D02*
X006193Y016614D01*
X007053Y016297D02*
X001080Y016297D01*
X001080Y016139D02*
X007053Y016139D01*
X006908Y015980D02*
X001080Y015980D01*
X001080Y015822D02*
X006750Y015822D01*
X006591Y015663D02*
X006389Y015663D01*
X005671Y015663D02*
X001080Y015663D01*
X001080Y015505D02*
X005530Y015505D01*
X005514Y015346D02*
X001080Y015346D01*
X001080Y015188D02*
X005514Y015188D01*
X005518Y015029D02*
X001080Y015029D01*
X001080Y014871D02*
X005566Y014871D01*
X005514Y014712D02*
X001080Y014712D01*
X001080Y014554D02*
X005514Y014554D01*
X005514Y014395D02*
X001080Y014395D01*
X001080Y014237D02*
X005553Y014237D01*
X005476Y014078D02*
X001080Y014078D01*
X001080Y013920D02*
X005455Y013920D01*
X005225Y013761D02*
X001080Y013761D01*
X001080Y013603D02*
X005066Y013603D01*
X004858Y013444D02*
X001080Y013444D01*
X001080Y013286D02*
X004775Y013286D01*
X004765Y013127D02*
X001080Y013127D01*
X001080Y012969D02*
X004818Y012969D01*
X004986Y012810D02*
X001080Y012810D01*
X001080Y012652D02*
X005455Y012652D01*
X005455Y012810D02*
X005374Y012810D01*
X005455Y012493D02*
X001080Y012493D01*
X001080Y012335D02*
X005455Y012335D01*
X005520Y012176D02*
X001080Y012176D01*
X001080Y012018D02*
X005650Y012018D01*
X005650Y011859D02*
X001080Y011859D01*
X001080Y011701D02*
X005650Y011701D01*
X005684Y011542D02*
X001080Y011542D01*
X001080Y011384D02*
X005808Y011384D01*
X005941Y011225D02*
X001080Y011225D01*
X001080Y011067D02*
X006077Y011067D01*
X006543Y011067D02*
X006950Y011067D01*
X006950Y011225D02*
X006679Y011225D01*
X006725Y011384D02*
X006950Y011384D01*
X006950Y011542D02*
X006708Y011542D01*
X006615Y011701D02*
X006950Y011701D01*
X006950Y011859D02*
X006410Y011859D01*
X006410Y012018D02*
X006950Y012018D01*
X007015Y012176D02*
X006540Y012176D01*
X006605Y012335D02*
X007100Y012335D01*
X007049Y012493D02*
X006605Y012493D01*
X006605Y012652D02*
X007049Y012652D01*
X007049Y012810D02*
X006605Y012810D01*
X006604Y012969D02*
X007049Y012969D01*
X007049Y013127D02*
X006605Y013127D01*
X006605Y013286D02*
X007127Y013286D01*
X007423Y013444D02*
X006605Y013444D01*
X006605Y013603D02*
X007423Y013603D01*
X007423Y013761D02*
X006605Y013761D01*
X006605Y013920D02*
X007423Y013920D01*
X007423Y014078D02*
X006584Y014078D01*
X006507Y014237D02*
X007423Y014237D01*
X007176Y014395D02*
X006546Y014395D01*
X006546Y014554D02*
X007075Y014554D01*
X007049Y014712D02*
X006546Y014712D01*
X006494Y014871D02*
X006759Y014871D01*
X009007Y016773D02*
X009050Y016773D01*
X009053Y016931D02*
X009007Y016931D01*
X008972Y017090D02*
X009088Y017090D01*
X009207Y017248D02*
X007392Y017248D01*
X007831Y017407D02*
X009068Y017407D01*
X009053Y017565D02*
X007893Y017565D01*
X007893Y017724D02*
X009053Y017724D01*
X009053Y017882D02*
X007893Y017882D01*
X007893Y018041D02*
X009053Y018041D01*
X009053Y018199D02*
X007893Y018199D01*
X007893Y018358D02*
X009053Y018358D01*
X009053Y018516D02*
X007893Y018516D01*
X007843Y018675D02*
X009113Y018675D01*
X009947Y018675D02*
X010113Y018675D01*
X010053Y018516D02*
X010007Y018516D01*
X010007Y018358D02*
X010053Y018358D01*
X010053Y018199D02*
X010007Y018199D01*
X010007Y018041D02*
X010050Y018041D01*
X010050Y017882D02*
X010007Y017882D01*
X010007Y017724D02*
X010050Y017724D01*
X010050Y017565D02*
X010007Y017565D01*
X009992Y017407D02*
X010050Y017407D01*
X010050Y017248D02*
X009853Y017248D01*
X011010Y017248D02*
X012207Y017248D01*
X012068Y017407D02*
X011010Y017407D01*
X011010Y017090D02*
X013022Y017090D01*
X013181Y017248D02*
X012853Y017248D01*
X012992Y017407D02*
X013068Y017407D01*
X013053Y017565D02*
X013007Y017565D01*
X013007Y017724D02*
X013053Y017724D01*
X013053Y017882D02*
X013007Y017882D01*
X013010Y018041D02*
X013053Y018041D01*
X013053Y018199D02*
X013007Y018199D01*
X013007Y018358D02*
X013053Y018358D01*
X013053Y018516D02*
X013007Y018516D01*
X012947Y018675D02*
X013113Y018675D01*
X013947Y018675D02*
X014607Y018675D01*
X014449Y018516D02*
X014007Y018516D01*
X014007Y018358D02*
X014290Y018358D01*
X014132Y018199D02*
X014007Y018199D01*
X012864Y016931D02*
X011010Y016931D01*
X011010Y016773D02*
X012705Y016773D01*
X012053Y018516D02*
X011007Y018516D01*
X010947Y018675D02*
X012113Y018675D01*
X015568Y021369D02*
X019750Y021369D01*
X019750Y021211D02*
X017749Y021211D01*
X017879Y021052D02*
X019750Y021052D01*
X019750Y020894D02*
X019731Y020894D01*
X020410Y021369D02*
X020482Y021369D01*
X019750Y021528D02*
X015410Y021528D01*
X015251Y021686D02*
X019750Y021686D01*
X019750Y021845D02*
X015093Y021845D01*
X016200Y022954D02*
X016360Y022954D01*
X016360Y023113D02*
X016200Y023113D01*
X016200Y023271D02*
X016360Y023271D01*
X016360Y023430D02*
X016200Y023430D01*
X014960Y024381D02*
X013693Y024381D01*
X013367Y024381D02*
X001080Y024381D01*
X001080Y024539D02*
X014917Y024539D01*
X014917Y024698D02*
X001080Y024698D01*
X001080Y024856D02*
X014917Y024856D01*
X014917Y025015D02*
X007835Y025015D01*
X007837Y025019D02*
X007850Y025064D01*
X007850Y025500D01*
X007110Y025500D01*
X007110Y024908D01*
X007693Y024908D01*
X007739Y024920D01*
X007780Y024944D01*
X007814Y024977D01*
X007837Y025019D01*
X007850Y025173D02*
X014917Y025173D01*
X014917Y025332D02*
X007850Y025332D01*
X007850Y025490D02*
X014917Y025490D01*
X014986Y025649D02*
X007110Y025649D01*
X007110Y025660D02*
X007850Y025660D01*
X007850Y026096D01*
X007837Y026142D01*
X007814Y026183D01*
X007780Y026216D01*
X007739Y026240D01*
X007693Y026252D01*
X007110Y026252D01*
X007110Y025660D01*
X007110Y025500D01*
X006950Y025500D01*
X006950Y024908D01*
X006367Y024908D01*
X006321Y024920D01*
X006280Y024944D01*
X006246Y024977D01*
X006223Y025019D01*
X006210Y025064D01*
X006210Y025500D01*
X006950Y025500D01*
X006950Y025660D01*
X006210Y025660D01*
X006210Y026096D01*
X006223Y026142D01*
X006246Y026183D01*
X006280Y026216D01*
X006321Y026240D01*
X006367Y026252D01*
X006950Y026252D01*
X006950Y025660D01*
X007110Y025660D01*
X007110Y025807D02*
X006950Y025807D01*
X006950Y025649D02*
X001080Y025649D01*
X001080Y025807D02*
X006210Y025807D01*
X006210Y025966D02*
X001080Y025966D01*
X001080Y026124D02*
X006218Y026124D01*
X006950Y026124D02*
X007110Y026124D01*
X007110Y025966D02*
X006950Y025966D01*
X006950Y025490D02*
X007110Y025490D01*
X007110Y025332D02*
X006950Y025332D01*
X006950Y025173D02*
X007110Y025173D01*
X007110Y025015D02*
X006950Y025015D01*
X006225Y025015D02*
X001080Y025015D01*
X001080Y025173D02*
X006210Y025173D01*
X006210Y025332D02*
X001080Y025332D01*
X001080Y025490D02*
X006210Y025490D01*
X007850Y025807D02*
X015050Y025807D01*
X015050Y025966D02*
X007850Y025966D01*
X007842Y026124D02*
X013786Y026124D01*
X013568Y026283D02*
X001080Y026283D01*
X001080Y026441D02*
X011878Y026441D01*
X011718Y026600D02*
X001080Y026600D01*
X001080Y026758D02*
X011699Y026758D01*
X011699Y026917D02*
X001080Y026917D01*
X001080Y027075D02*
X011699Y027075D01*
X011733Y027234D02*
X001080Y027234D01*
X001080Y027392D02*
X011774Y027392D01*
X011719Y027551D02*
X001080Y027551D01*
X001080Y027709D02*
X011719Y027709D01*
X011719Y027868D02*
X001080Y027868D01*
X001080Y028026D02*
X011728Y028026D01*
X011840Y028185D02*
X001080Y028185D01*
X001080Y028343D02*
X012093Y028343D01*
X012093Y028502D02*
X001080Y028502D01*
X001080Y028660D02*
X012093Y028660D01*
X012104Y028819D02*
X001080Y028819D01*
X001080Y028977D02*
X012225Y028977D01*
X012453Y029136D02*
X001080Y029136D01*
X001080Y029294D02*
X012449Y029294D01*
X012449Y029453D02*
X001080Y029453D01*
X001080Y029611D02*
X012449Y029611D01*
X012507Y029770D02*
X001080Y029770D01*
X001080Y029928D02*
X013225Y029928D01*
X013225Y030087D02*
X001080Y030087D01*
X001080Y030245D02*
X013224Y030245D01*
X013219Y030404D02*
X001080Y030404D01*
X001080Y030562D02*
X013219Y030562D01*
X013219Y030721D02*
X001080Y030721D01*
X001080Y030879D02*
X013284Y030879D01*
X013596Y031038D02*
X001080Y031038D01*
X001080Y031196D02*
X013593Y031196D01*
X013593Y031355D02*
X001080Y031355D01*
X001080Y031513D02*
X013593Y031513D01*
X013640Y031672D02*
X001080Y031672D01*
X001080Y031830D02*
X013640Y031830D01*
X013442Y031989D02*
X001080Y031989D01*
X001080Y032147D02*
X013396Y032147D01*
X013396Y032306D02*
X001080Y032306D01*
X001080Y032464D02*
X013396Y032464D01*
X013405Y032623D02*
X001080Y032623D01*
X001080Y032781D02*
X013516Y032781D01*
X015920Y034049D02*
X016328Y034049D01*
X016170Y034208D02*
X015920Y034208D01*
X016028Y033891D02*
X016487Y033891D01*
X016408Y033732D02*
X016152Y033732D01*
X016164Y033574D02*
X016396Y033574D01*
X016396Y033415D02*
X016164Y033415D01*
X016164Y033257D02*
X016396Y033257D01*
X016437Y033098D02*
X016123Y033098D01*
X014784Y030879D02*
X014776Y030879D01*
X014674Y027755D02*
X015030Y027399D01*
X014674Y027755D02*
X014654Y027755D01*
X013280Y027399D02*
X012924Y027755D01*
X012904Y027755D01*
X013182Y026441D02*
X013410Y026441D01*
X012547Y026441D02*
X012513Y026441D01*
X013173Y024222D02*
X001080Y024222D01*
X001080Y024064D02*
X013115Y024064D01*
X013120Y023905D02*
X007871Y023905D01*
X007950Y023747D02*
X013140Y023747D01*
X013140Y023588D02*
X009341Y023588D01*
X009976Y023430D02*
X013084Y023430D01*
X013053Y023271D02*
X010007Y023271D01*
X010007Y023113D02*
X013053Y023113D01*
X013053Y022954D02*
X010007Y022954D01*
X010007Y022796D02*
X013053Y022796D01*
X013053Y022637D02*
X010007Y022637D01*
X010007Y022479D02*
X013053Y022479D01*
X013053Y022320D02*
X010007Y022320D01*
X009973Y022162D02*
X013087Y022162D01*
X009087Y022162D02*
X007460Y022162D01*
X007460Y022320D02*
X009053Y022320D01*
X009053Y022479D02*
X007805Y022479D01*
X007936Y022637D02*
X009053Y022637D01*
X006600Y022320D02*
X001080Y022320D01*
X001080Y022162D02*
X006600Y022162D01*
X006600Y022003D02*
X001080Y022003D01*
X001080Y021845D02*
X006600Y021845D01*
X006600Y021686D02*
X001080Y021686D01*
X001080Y021528D02*
X006600Y021528D01*
X006600Y021369D02*
X001080Y021369D01*
X001080Y021211D02*
X006600Y021211D01*
X006600Y021052D02*
X001080Y021052D01*
X001080Y020894D02*
X005231Y020894D01*
X005167Y020735D02*
X001080Y020735D01*
X001080Y020577D02*
X005167Y020577D01*
X005167Y020418D02*
X001080Y020418D01*
X001080Y020260D02*
X005167Y020260D01*
X005167Y020101D02*
X001080Y020101D01*
X001080Y019943D02*
X005167Y019943D01*
X005167Y019784D02*
X001080Y019784D01*
X001080Y019626D02*
X005215Y019626D01*
X006255Y022479D02*
X001080Y022479D01*
X001080Y022637D02*
X006124Y022637D01*
X006110Y022796D02*
X001080Y022796D01*
X001080Y022954D02*
X006110Y022954D01*
X006110Y023113D02*
X001080Y023113D01*
X001080Y023271D02*
X006110Y023271D01*
X006110Y023430D02*
X001080Y023430D01*
X001080Y023588D02*
X006110Y023588D01*
X006110Y023747D02*
X001080Y023747D01*
X001080Y023905D02*
X006189Y023905D01*
X007972Y017090D02*
X008088Y017090D01*
X006950Y010908D02*
X001080Y010908D01*
X001080Y010750D02*
X006950Y010750D01*
X006950Y010591D02*
X001080Y010591D01*
X001080Y010433D02*
X006950Y010433D01*
X006950Y010274D02*
X001080Y010274D01*
X001080Y010116D02*
X006950Y010116D01*
X006950Y009957D02*
X001080Y009957D01*
X001080Y009799D02*
X006950Y009799D01*
X006950Y009640D02*
X001080Y009640D01*
X001080Y009482D02*
X006992Y009482D01*
X007139Y009323D02*
X001080Y009323D01*
X001080Y009165D02*
X007298Y009165D01*
X007456Y009006D02*
X001080Y009006D01*
X001080Y008848D02*
X007615Y008848D01*
X007667Y008689D02*
X001080Y008689D01*
X001080Y008531D02*
X007667Y008531D01*
X007667Y008372D02*
X001080Y008372D01*
X001080Y008214D02*
X007702Y008214D01*
X007808Y008055D02*
X001080Y008055D01*
X001080Y007897D02*
X007808Y007897D01*
X007808Y007738D02*
X002582Y007738D01*
X002802Y007580D02*
X007808Y007580D01*
X007808Y007421D02*
X002950Y007421D01*
X003041Y007263D02*
X007808Y007263D01*
X007808Y007104D02*
X003104Y007104D01*
X003147Y006946D02*
X007808Y006946D01*
X007808Y006787D02*
X003155Y006787D01*
X003155Y006629D02*
X007808Y006629D01*
X007808Y006470D02*
X003114Y006470D01*
X003062Y006312D02*
X007839Y006312D01*
X007953Y006153D02*
X002970Y006153D01*
X002838Y005995D02*
X008112Y005995D01*
X008270Y005836D02*
X002644Y005836D01*
X001150Y007421D02*
X001080Y007421D01*
X001080Y007580D02*
X001298Y007580D01*
X001080Y007738D02*
X001518Y007738D01*
X008618Y007104D02*
X009091Y007104D01*
X009014Y006946D02*
X008618Y006946D01*
X008618Y006787D02*
X009014Y006787D01*
X009014Y006629D02*
X008623Y006629D01*
X008782Y006470D02*
X009043Y006470D01*
X009036Y006312D02*
X008940Y006312D01*
X009530Y006753D02*
X010530Y006753D01*
X011530Y006753D01*
X012530Y006753D01*
X012484Y006799D01*
X012030Y006799D01*
X009336Y008214D02*
X008724Y008214D01*
X008759Y008372D02*
X009301Y008372D01*
X009301Y008531D02*
X008759Y008531D01*
X008759Y008689D02*
X009195Y008689D01*
X009000Y008848D02*
X008759Y008848D01*
X008756Y009006D02*
X008805Y009006D01*
X009425Y009482D02*
X010780Y009482D01*
X010622Y009640D02*
X009230Y009640D01*
X009048Y009799D02*
X010463Y009799D01*
X010305Y009957D02*
X008889Y009957D01*
X008731Y010116D02*
X010182Y010116D01*
X010150Y010274D02*
X008822Y010274D01*
X008917Y010433D02*
X010150Y010433D01*
X010150Y010591D02*
X009839Y010591D01*
X009221Y010591D02*
X008935Y010591D01*
X009620Y009323D02*
X010939Y009323D01*
X011097Y009165D02*
X010288Y009165D01*
X011530Y010399D02*
X011530Y011064D01*
X016780Y027399D02*
X016424Y027755D01*
X016404Y027755D01*
X018154Y027755D02*
X018174Y027755D01*
X018530Y027399D01*
D51*
X017030Y025899D03*
X016280Y025899D03*
X015530Y025899D03*
X022030Y019899D03*
X017130Y017399D03*
X016530Y017399D03*
X015930Y017399D03*
X019730Y015599D03*
X019730Y014999D03*
X019730Y014399D03*
X011630Y017999D03*
X011230Y017999D03*
X006930Y017099D03*
X006530Y017099D03*
X006130Y017099D03*
X039710Y017639D03*
D52*
X020928Y014899D02*
X020430Y014899D01*
X019730Y015599D01*
X019730Y014999D02*
X020330Y014999D01*
X019730Y014399D01*
X020330Y014999D02*
X020828Y014999D01*
X020928Y014899D01*
X017130Y017399D02*
X016530Y018099D01*
X016530Y017999D01*
X015930Y017399D01*
X016530Y017399D02*
X016530Y017999D01*
X016530Y018099D02*
X016530Y018297D01*
X012530Y017999D02*
X011630Y017999D01*
X011230Y017999D01*
X010530Y017999D01*
X010530Y016734D01*
X009530Y016734D01*
X006930Y017099D02*
X006630Y017699D01*
X006530Y017699D02*
X006430Y017699D01*
X006130Y017099D01*
X006530Y017099D02*
X006530Y017699D01*
X006530Y018047D01*
X015530Y025899D02*
X016280Y025149D01*
X017030Y025899D01*
X016280Y025899D02*
X016280Y025149D01*
X016280Y025001D01*
D53*
X019030Y024387D02*
X019030Y023799D01*
X019030Y023734D01*
X019365Y023399D01*
X020530Y024564D01*
X021030Y024564D01*
X021030Y020899D02*
X021630Y020899D01*
X022130Y020399D01*
X022030Y020299D01*
X022030Y019899D01*
X022130Y019799D01*
X022130Y018899D01*
X023030Y018899D01*
X022130Y018899D02*
X021630Y019399D01*
X021030Y019399D01*
X022130Y020399D02*
X023030Y020399D01*
X040884Y013222D02*
X040884Y012745D01*
X040930Y012699D01*
X041630Y012699D02*
X041630Y013222D01*
X041652Y013222D01*
X042676Y013222D02*
X042932Y013222D01*
X042930Y013222D01*
X042930Y012699D01*
X041930Y016076D02*
X041930Y016599D01*
X041908Y016076D02*
X041930Y016076D01*
D54*
X040416Y016879D02*
X038603Y016879D01*
X038603Y018226D01*
X037950Y018649D02*
X028720Y009419D01*
X011380Y009419D01*
X010530Y010269D01*
X010530Y011064D01*
X009530Y011064D01*
X008530Y011064D01*
X008520Y011049D02*
X008520Y010559D01*
X007760Y010549D02*
X007760Y011419D01*
X007760Y011949D01*
X008150Y012339D01*
X008150Y012793D01*
X008146Y012797D02*
X007890Y012797D01*
X006030Y012564D02*
X006030Y011699D01*
X006310Y011419D01*
X007760Y010549D02*
X008847Y009462D01*
X009847Y008649D01*
X012710Y008739D02*
X012980Y009009D01*
X028880Y009009D01*
X038830Y018959D01*
X039294Y017639D02*
X039710Y017639D01*
X038603Y016879D02*
X038603Y016399D01*
X043400Y018189D02*
X043400Y019710D01*
X043406Y019716D01*
X044154Y019716D02*
X044160Y019710D01*
X044160Y018209D01*
X040830Y024499D02*
X041030Y025025D01*
X039280Y025025D02*
X039280Y024549D01*
X039230Y024499D01*
X037030Y027299D02*
X036993Y027336D01*
X036993Y027844D01*
X035322Y025779D02*
X035282Y025739D01*
X032280Y025739D01*
X031580Y025039D01*
X030200Y025039D01*
X029590Y025649D01*
X027730Y025649D01*
X028260Y028719D02*
X028260Y034009D01*
X029540Y035289D01*
X029540Y035810D01*
X031540Y035810D02*
X032620Y034529D01*
X032620Y032479D01*
X031900Y031369D02*
X031900Y031289D01*
X031900Y030903D01*
X031904Y030899D01*
X031900Y031369D02*
X030540Y032729D01*
X030540Y033408D01*
X029540Y033408D02*
X029540Y032529D01*
X027560Y030899D02*
X027550Y030899D01*
X027540Y030909D01*
X021000Y025959D02*
X021000Y025264D01*
X021035Y025239D02*
X022100Y025239D01*
X023030Y024309D01*
X023030Y023939D01*
X023030Y021349D01*
X024370Y021349D01*
X026785Y021344D01*
X023030Y021349D02*
X023030Y020899D01*
X025510Y016349D02*
X026780Y016349D01*
X026790Y016339D01*
X025365Y016234D02*
X025140Y016009D01*
X025080Y015949D02*
X024182Y015949D01*
X023132Y014899D01*
X023280Y014719D02*
X023280Y014069D01*
X024250Y013099D01*
X031970Y013099D01*
X025365Y015234D02*
X025365Y015399D01*
X025365Y015234D02*
X025030Y014899D01*
X024676Y014545D01*
X024676Y014399D01*
X018656Y025411D02*
X018656Y025945D01*
X018930Y026189D01*
X020680Y026189D01*
X021000Y025959D01*
X007530Y016064D02*
X006830Y015364D01*
X006830Y015253D01*
X006922Y015253D01*
X006830Y015253D02*
X006030Y015253D01*
X006030Y014545D02*
X006030Y013499D01*
X005500Y013499D01*
X005180Y013179D01*
X039197Y033954D02*
X039197Y034386D01*
X039400Y034589D01*
X043831Y009472D02*
X043831Y009149D01*
X042729Y009149D02*
X042730Y008398D01*
X042730Y008339D01*
X044840Y006229D01*
D55*
X041280Y009312D02*
X040906Y009686D01*
X040906Y009799D01*
X040930Y009799D01*
X040906Y009799D02*
X040906Y011149D01*
X042906Y010649D02*
X042930Y010173D01*
X042630Y009949D01*
X042906Y010649D02*
X042906Y012149D01*
X043780Y026109D02*
X043780Y026649D01*
X043830Y026759D01*
X038882Y033954D02*
X038882Y034447D01*
X038830Y034499D01*
X035733Y034496D02*
X035733Y033954D01*
X035733Y034496D02*
X035730Y034499D01*
D56*
X036360Y034249D02*
X036360Y033959D01*
X036363Y033954D01*
X036360Y034249D02*
X036530Y034419D01*
X036530Y034889D01*
X037010Y035369D01*
X040540Y035369D01*
X041310Y036139D01*
X044160Y036139D01*
X044090Y035209D02*
X044160Y035139D01*
X044090Y035209D02*
X037080Y035209D01*
X036690Y034819D01*
X036690Y033966D01*
X036678Y033954D01*
X036993Y033954D02*
X036993Y034542D01*
X037380Y034929D01*
X043310Y034929D01*
X044290Y033949D01*
X044290Y034009D01*
X044160Y034139D01*
X044730Y033759D02*
X044730Y034559D01*
X045230Y035059D01*
X045490Y035059D01*
X045490Y034059D02*
X045260Y034059D01*
X044300Y033099D01*
X042650Y033099D01*
X041390Y031839D01*
X041280Y031839D01*
X041130Y031689D01*
X040840Y031689D01*
X040835Y031686D01*
X040835Y031371D02*
X040840Y031369D01*
X041150Y031369D01*
X042720Y032939D01*
X044370Y032939D01*
X044490Y033059D01*
X045490Y033059D01*
X044730Y033759D02*
X044230Y033259D01*
X042580Y033259D01*
X041322Y032001D01*
X040835Y032001D01*
X040840Y031059D02*
X040835Y031056D01*
X040840Y031059D02*
X041070Y031059D01*
X042790Y032779D01*
X044310Y032779D01*
X045030Y032059D01*
X045490Y032059D01*
X044910Y031779D02*
X044760Y031929D01*
X044430Y031929D01*
X044230Y032129D01*
X043820Y032129D01*
X043530Y031839D01*
X042730Y031839D01*
X041480Y030589D01*
X041280Y030589D01*
X041130Y030739D01*
X040840Y030739D01*
X040835Y030742D01*
X040835Y030427D02*
X041548Y030427D01*
X042800Y031679D01*
X044000Y031679D01*
X044030Y031649D01*
X044910Y031639D02*
X044910Y031779D01*
X044910Y031639D02*
X045490Y031059D01*
X044030Y030649D02*
X043493Y030112D01*
X040835Y030112D01*
X040835Y029797D02*
X043882Y029797D01*
X044030Y029649D01*
X043197Y029482D02*
X044030Y028649D01*
X044030Y027649D02*
X042512Y029167D01*
X040835Y029167D01*
X040835Y029482D02*
X043197Y029482D01*
X041500Y027389D02*
X042780Y026109D01*
X043280Y026109D02*
X043280Y026749D01*
X042910Y027119D01*
X044290Y026789D02*
X044290Y026119D01*
X044280Y026109D01*
X041500Y027389D02*
X040010Y027389D01*
X039827Y027572D01*
X039827Y027844D01*
X039512Y027844D02*
X039512Y027447D01*
X039670Y027289D01*
X040720Y026819D02*
X038370Y026819D01*
X037623Y027566D01*
X037623Y027844D01*
X037308Y027844D02*
X037308Y027421D01*
X038210Y026519D01*
X038200Y026509D01*
X038200Y024469D01*
X039620Y023049D01*
X039620Y021529D01*
X041030Y020119D01*
X041500Y019249D01*
X042900Y020489D02*
X042900Y022259D01*
X043280Y022639D01*
X043280Y023689D01*
X043780Y023689D02*
X043780Y022919D01*
X044280Y022523D02*
X044030Y022273D01*
X044280Y022523D02*
X044280Y023689D01*
X044030Y021525D02*
X043780Y021525D01*
X043780Y021059D01*
X043780Y020582D01*
X044154Y019993D02*
X044440Y020279D01*
X044154Y019993D02*
X044154Y019716D01*
X043406Y019716D02*
X043406Y019983D01*
X042900Y020489D01*
X041500Y023049D02*
X040570Y023849D01*
X040570Y025439D01*
X040904Y025773D01*
X041030Y025773D01*
X041020Y025783D01*
X041020Y026519D01*
X040720Y026819D01*
X039280Y025773D02*
X038956Y025773D01*
X038210Y026519D01*
X037740Y025809D02*
X037290Y026259D01*
X036778Y026025D02*
X036778Y025779D01*
X036778Y026025D02*
X036400Y026403D01*
X035716Y026279D02*
X035716Y026779D01*
X035716Y026593D01*
X035716Y026779D02*
X035656Y026835D01*
X036380Y027559D01*
X036380Y027827D01*
X036363Y027844D01*
X036678Y027844D02*
X036678Y028377D01*
X039200Y030899D01*
X039200Y033951D01*
X039197Y033954D01*
X036800Y036049D02*
X036650Y035939D01*
X036800Y036049D02*
X038960Y036049D01*
X035418Y033954D02*
X035365Y033954D01*
X034450Y034869D01*
X034450Y035888D01*
X034439Y035899D01*
X034725Y032946D02*
X034087Y032946D01*
X032430Y031289D01*
X031900Y031289D01*
X031904Y030123D02*
X033450Y031669D01*
X034412Y032631D01*
X034725Y032631D01*
X034725Y030742D02*
X034017Y030742D01*
X034000Y030759D01*
X034120Y030419D02*
X034717Y030419D01*
X034725Y030427D01*
X034120Y030419D02*
X031030Y027269D01*
X030370Y027269D01*
X030440Y026699D02*
X031020Y026699D01*
X034120Y029799D01*
X034723Y029799D01*
X034725Y029797D01*
X034725Y029482D02*
X034712Y029469D01*
X034370Y029469D01*
X030830Y025929D01*
X030460Y025929D01*
X031820Y023939D02*
X032762Y025060D01*
X032870Y025189D01*
X033960Y024589D02*
X034284Y024599D01*
X034517Y024366D01*
X035726Y024784D02*
X036110Y025168D01*
X036110Y025169D01*
X036267Y024759D02*
X036009Y024501D01*
X036567Y023942D02*
X036573Y023942D01*
X036702Y023808D02*
X037030Y024116D01*
X037030Y024129D01*
X037366Y024029D02*
X037370Y024029D01*
X037740Y024439D02*
X037740Y025809D01*
X037740Y024439D02*
X039280Y022899D01*
X039280Y021439D01*
X039680Y021039D01*
X039700Y020079D01*
X039066Y018785D01*
X038586Y017639D01*
X038603Y018226D01*
X037960Y018649D02*
X039210Y019899D01*
X039130Y020029D01*
X039070Y020089D01*
X039020Y020159D01*
X039020Y020449D01*
X039220Y020449D02*
X039220Y020219D01*
X039400Y020039D01*
X039413Y020024D01*
X039422Y020007D01*
X039429Y019988D01*
X039432Y019969D01*
X039431Y019949D01*
X039427Y019930D01*
X039420Y019912D01*
X039409Y019895D01*
X039396Y019881D01*
X039380Y019869D01*
X039380Y019819D01*
X038830Y019269D01*
X038830Y018959D01*
X038315Y019444D02*
X038600Y019759D01*
X038630Y020449D01*
X038630Y023119D01*
X035716Y026173D02*
X035322Y025779D01*
X035716Y026173D02*
X035716Y026279D01*
X031820Y023939D02*
X023030Y023939D01*
X020510Y022859D02*
X020080Y022429D01*
X020080Y020799D01*
X020480Y020399D01*
X021030Y020399D01*
X021030Y019899D02*
X021290Y019899D01*
X021030Y018399D02*
X020470Y018399D01*
X020140Y018069D01*
X023030Y017899D02*
X035990Y017899D01*
X036940Y018849D01*
X036690Y019099D02*
X037580Y019099D01*
X037950Y018649D02*
X037960Y018649D01*
X038315Y019444D02*
X038370Y019499D01*
X038315Y019444D02*
X031970Y013099D01*
X028530Y017199D02*
X025730Y014399D01*
X025384Y014399D01*
X030060Y018229D02*
X035820Y018229D01*
X036690Y019099D01*
X041164Y016879D02*
X041654Y017279D01*
X042470Y017279D01*
X043187Y016562D01*
X043187Y016076D01*
X042164Y013222D02*
X042170Y013216D01*
X042170Y011589D01*
X041654Y011565D02*
X041654Y011149D01*
X041654Y011565D02*
X041300Y011919D01*
X040930Y011919D01*
X040630Y012219D01*
X040630Y013220D01*
X040628Y013222D01*
X040373Y013222D02*
X040373Y011702D01*
X040030Y011359D01*
X040000Y011319D01*
X039860Y011179D01*
X039860Y007749D01*
X039900Y007709D01*
X039940Y007679D01*
X040580Y007039D01*
X043030Y007039D01*
X043840Y006229D01*
X042840Y006229D02*
X042190Y006879D01*
X040320Y006879D01*
X039700Y007499D01*
X039700Y011469D01*
X040120Y011889D01*
X040120Y013218D01*
X040117Y013222D01*
X038943Y013149D02*
X038943Y012756D01*
X039560Y012139D01*
X039350Y011399D02*
X038943Y011399D01*
X039350Y011399D02*
X039410Y011339D01*
X039200Y010439D02*
X039200Y009499D01*
X039470Y009229D01*
X039470Y006599D01*
X039840Y006229D01*
X040750Y007559D02*
X041280Y008089D01*
X041280Y008486D01*
X041920Y012159D02*
X041920Y013210D01*
X041908Y013222D01*
X035530Y008525D02*
X035530Y007529D01*
X030060Y018229D02*
X028890Y019399D01*
X023030Y019399D01*
X023030Y019899D02*
X023630Y019899D01*
X024150Y020419D01*
X026780Y021339D02*
X026785Y021344D01*
X026785Y021344D01*
X031904Y028899D02*
X031904Y030123D01*
X040250Y028399D02*
X040270Y028399D01*
X040540Y028129D01*
X011520Y012799D02*
X009684Y012799D01*
X009682Y012797D01*
X008914Y012797D02*
X008914Y012350D01*
X009530Y011734D01*
X010530Y011734D01*
X011530Y011734D01*
X008658Y011862D02*
X008658Y012797D01*
X008405Y012794D02*
X008402Y012797D01*
X008405Y012794D02*
X008405Y012224D01*
X008155Y011974D01*
X008155Y011224D01*
X008315Y011064D01*
X008530Y011064D01*
X008530Y011059D01*
X008520Y011049D01*
X008520Y011069D01*
X008530Y011069D01*
X008520Y010559D02*
X008520Y010549D01*
X007280Y009649D02*
X008213Y008716D01*
X008213Y008649D01*
X007280Y009649D02*
X007280Y011974D01*
X007630Y012324D01*
X007630Y012792D01*
X007634Y012797D01*
X007880Y012786D02*
X007890Y012797D01*
X008146Y012797D02*
X008150Y012793D01*
X008658Y011862D02*
X008530Y011734D01*
X009682Y015001D02*
X010530Y015850D01*
X010530Y016064D01*
X012530Y006045D02*
X012536Y006039D01*
D57*
X009170Y012797D02*
X009170Y013459D01*
X009130Y013499D01*
X009130Y014299D02*
X008914Y014515D01*
X008914Y015001D01*
X008658Y015001D02*
X008640Y015029D01*
X008640Y015239D01*
X008220Y015659D01*
X008220Y016319D01*
X008280Y016379D01*
X012750Y016379D01*
X015990Y019619D01*
X021780Y019619D01*
X021450Y020039D02*
X021330Y019919D01*
X021030Y019899D01*
X021450Y020039D02*
X021450Y020549D01*
X021390Y020609D01*
X020760Y020609D01*
X020610Y020759D01*
X020610Y021059D01*
X020670Y021119D01*
X021630Y021119D01*
X022050Y020699D01*
X026460Y020699D01*
X029250Y023489D01*
X031590Y023489D01*
X032360Y023759D01*
X033503Y024269D02*
X032762Y025060D01*
X032870Y025189D02*
X033963Y025189D01*
X034651Y024501D01*
X034793Y024642D02*
X035174Y024260D01*
X035330Y024260D01*
X034764Y023695D01*
X034199Y023129D02*
X034071Y023129D01*
X033675Y023525D01*
X033541Y023391D02*
X033540Y023369D01*
X029310Y023369D01*
X025620Y019679D01*
X022410Y019679D01*
X021900Y018899D02*
X022650Y018149D01*
X029790Y018149D01*
X027720Y017639D02*
X026775Y016694D01*
X027030Y016439D01*
X027030Y016259D01*
X026580Y015809D01*
X025230Y015809D01*
X024840Y015419D01*
X024720Y015419D01*
X024695Y015399D01*
X024695Y016399D02*
X024720Y016409D01*
X025020Y016709D01*
X026760Y016709D01*
X026775Y016694D01*
X025510Y016349D02*
X025440Y016289D01*
X025365Y016399D01*
X023280Y014719D02*
X023220Y014789D01*
X023190Y014819D01*
X023132Y014899D01*
X021900Y018899D02*
X021030Y018899D01*
X029280Y026429D02*
X030270Y025439D01*
X031080Y025439D01*
X033480Y027839D01*
X035400Y027839D01*
X035418Y027844D01*
X034725Y028537D02*
X034710Y028529D01*
X033990Y028529D01*
X031020Y025559D01*
X030330Y025559D01*
X029340Y026549D01*
X015480Y026549D01*
X015150Y026879D01*
X014640Y026879D01*
X014615Y026899D01*
X013860Y026429D02*
X029280Y026429D01*
X029190Y026879D02*
X030390Y025679D01*
X030780Y025679D01*
X034260Y029159D01*
X034710Y029159D01*
X034725Y029167D01*
X034725Y028852D02*
X034710Y028829D01*
X034650Y028769D01*
X034200Y028769D01*
X031770Y028379D02*
X031680Y028379D01*
X031170Y028889D01*
X031156Y028899D01*
X031410Y028139D02*
X017310Y028139D01*
X017130Y027959D01*
X017130Y027419D01*
X016620Y026909D01*
X016380Y026909D01*
X016365Y026899D01*
X018115Y026899D02*
X018120Y026879D01*
X029190Y026879D01*
X033503Y024269D02*
X034060Y024379D01*
X034120Y024409D01*
X034201Y024399D01*
X034375Y024225D01*
X034420Y025059D02*
X034410Y025229D01*
X034980Y025229D01*
X035280Y024929D01*
X035580Y024929D01*
X035592Y024918D01*
X035330Y024656D02*
X035330Y024260D01*
X035486Y024260D01*
X035867Y024642D01*
X036267Y024759D02*
X036990Y024759D01*
X038630Y023119D01*
X039420Y023039D02*
X037890Y024569D01*
X037890Y026009D01*
X037800Y026099D01*
X036610Y024529D02*
X036630Y024359D01*
X036450Y024179D01*
X036450Y024089D01*
X036426Y024084D01*
X036567Y023956D02*
X036567Y023942D01*
X036567Y023956D02*
X036790Y024179D01*
X036790Y024329D01*
X036950Y024459D01*
X037216Y023989D02*
X036843Y023666D01*
X036985Y023525D02*
X036589Y023129D01*
X036461Y023129D01*
X036985Y022733D02*
X037840Y021878D01*
X037840Y020449D01*
X038040Y020449D02*
X038040Y021946D01*
X037119Y022867D01*
X036843Y022592D02*
X037640Y021795D01*
X037640Y020449D01*
X037450Y020449D02*
X037450Y021702D01*
X036702Y022450D01*
X036567Y022316D02*
X037250Y021633D01*
X037250Y020449D01*
X037050Y020449D02*
X037050Y021550D01*
X036426Y022174D01*
X036285Y022033D02*
X036460Y021858D01*
X036460Y020449D01*
X036270Y020449D02*
X036270Y020779D01*
X036310Y020819D01*
X036330Y021725D01*
X036143Y021892D01*
X036009Y021757D02*
X036180Y021586D01*
X036180Y020869D01*
X036070Y020759D01*
X036070Y020449D01*
X035870Y020449D02*
X035870Y020859D01*
X036030Y021009D01*
X036030Y021463D01*
X035867Y021616D01*
X035726Y021474D02*
X035900Y021310D01*
X035900Y021099D01*
X035680Y020889D01*
X035680Y020449D01*
X035480Y020449D02*
X035480Y021228D01*
X035592Y021340D01*
X035330Y021602D02*
X035330Y021998D01*
X035896Y022563D01*
X035401Y023058D01*
X035400Y023069D01*
X035340Y023129D01*
X035330Y023129D01*
X034093Y022316D02*
X033510Y021733D01*
X033510Y020449D01*
X033690Y020429D02*
X033690Y020129D01*
X033675Y020114D01*
X033750Y020039D01*
X034980Y020039D01*
X035055Y020114D01*
X035130Y020039D01*
X036540Y020039D01*
X036645Y020144D01*
X036750Y020039D01*
X038130Y020039D01*
X038220Y020129D01*
X038220Y020429D01*
X038230Y020449D01*
X038250Y020459D01*
X038430Y020459D01*
X038430Y020449D01*
X038820Y020449D02*
X038820Y020009D01*
X038860Y019949D01*
X039420Y021509D02*
X039420Y023039D01*
X039420Y021509D02*
X040770Y020159D01*
X040770Y016589D01*
X040890Y016469D01*
X041460Y016469D01*
X041820Y016829D01*
X042030Y016829D01*
X042390Y016469D01*
X042390Y016079D01*
X042420Y016076D01*
X043443Y016076D02*
X043470Y016079D01*
X043470Y017939D01*
X043860Y018329D01*
X043860Y020039D01*
X044520Y020699D01*
X044660Y031679D01*
X039840Y033959D02*
X039827Y033954D01*
X039840Y033959D02*
X039840Y034409D01*
X040020Y034589D01*
X039512Y033954D02*
X039540Y033929D01*
X039540Y033689D01*
X039660Y033569D01*
X039660Y033509D01*
X040530Y035709D02*
X036510Y035699D01*
X035880Y036329D01*
X031230Y036329D01*
X030900Y035999D01*
X030900Y034589D01*
X030180Y033869D01*
X030180Y031859D01*
X031140Y030899D01*
X031156Y030899D01*
X035700Y026279D02*
X035716Y026279D01*
X035710Y026269D02*
X035700Y026279D01*
X035068Y024918D02*
X035330Y024656D01*
X037216Y023989D02*
X037366Y024029D01*
X035330Y021602D02*
X035068Y021340D01*
X035068Y020461D01*
X035080Y020449D01*
X035070Y020429D01*
X035070Y020129D01*
X035055Y020114D01*
X035080Y020449D02*
X035100Y020459D01*
X035280Y020459D01*
X035280Y020449D01*
X034890Y020449D02*
X034890Y020919D01*
X034760Y021049D01*
X034770Y021300D01*
X034934Y021474D01*
X034793Y021616D02*
X034610Y021463D01*
X034640Y020989D01*
X034690Y020939D01*
X034690Y020449D01*
X034490Y020449D02*
X034490Y021596D01*
X034651Y021757D01*
X034517Y021892D02*
X034300Y021675D01*
X034300Y020449D01*
X034100Y020449D02*
X034100Y021758D01*
X034375Y022033D01*
X034234Y022174D02*
X033900Y021840D01*
X033900Y020449D01*
X033710Y020449D02*
X033690Y020429D01*
X033675Y020114D02*
X033600Y020039D01*
X032430Y020039D01*
X032340Y020129D01*
X032340Y020429D01*
X032330Y020449D01*
X032720Y020449D02*
X032720Y022046D01*
X033541Y022867D01*
X033675Y022733D02*
X032920Y021978D01*
X032920Y020449D01*
X033120Y020449D02*
X033120Y021895D01*
X033817Y022592D01*
X033958Y022450D02*
X033310Y021802D01*
X033310Y020449D01*
X036645Y020144D02*
X036660Y020159D01*
X036660Y020449D01*
X036660Y020459D01*
X036840Y020459D01*
X036860Y020449D01*
X022290Y036479D02*
X020250Y034439D01*
X018480Y034439D01*
X018030Y034889D01*
X018030Y034899D01*
X019030Y034899D02*
X020730Y036599D01*
X039450Y036599D01*
X040050Y035999D01*
X040050Y035939D01*
X036690Y036279D02*
X036350Y036269D01*
X035910Y036479D01*
X022290Y036479D01*
X013410Y026879D02*
X012870Y026879D01*
X012865Y026899D01*
X013410Y026879D02*
X013860Y026429D01*
X008146Y015001D02*
X007890Y015001D01*
X007890Y014339D01*
X007930Y014299D01*
X007650Y014579D01*
X007430Y014579D01*
X007378Y014631D01*
X007378Y015001D01*
X006930Y015249D02*
X006926Y015249D01*
X006922Y015253D01*
D58*
X002050Y006769D03*
X002050Y036269D03*
X049550Y036269D03*
X049550Y006769D03*
D59*
X041396Y013222D02*
X041140Y013222D01*
X041396Y013222D02*
X041396Y014125D01*
X042676Y015405D01*
X042676Y016076D01*
X036400Y026403D02*
X036464Y026779D01*
X036400Y026403D02*
X036400Y027179D01*
X036678Y027457D01*
X036678Y027844D01*
X025380Y016414D02*
X025365Y016399D01*
X025365Y016234D01*
X025140Y016009D02*
X025175Y015974D01*
X025140Y016009D02*
X025080Y015949D01*
X021030Y025234D02*
X021035Y025239D01*
X021030Y025234D02*
X021000Y025264D01*
D60*
X025230Y024999D03*
X025230Y029499D03*
D61*
X038730Y014729D03*
X034370Y011349D03*
D62*
X019280Y020397D02*
X019176Y020501D01*
X016530Y020501D01*
X015828Y020501D01*
X013530Y022799D01*
X014470Y023839D02*
X015512Y022797D01*
X016280Y022797D01*
X014470Y023839D02*
X014470Y024839D01*
X013700Y025609D01*
X007059Y025609D01*
X007030Y025580D01*
X007030Y023218D02*
X009111Y023218D01*
X009530Y022799D01*
X007030Y023218D02*
X007030Y020751D01*
X006530Y020251D01*
D63*
X014020Y011029D02*
X019280Y016289D01*
X019280Y018901D01*
X008213Y008649D02*
X008213Y006466D01*
X008780Y005899D01*
X009384Y005899D01*
X009530Y006045D01*
X010530Y006045D01*
X011530Y006045D01*
X012530Y006045D01*
X012536Y006039D02*
X014000Y006039D01*
X014430Y006469D01*
X015800Y006469D01*
X036674Y010569D02*
X037287Y010569D01*
X038117Y011399D01*
X036714Y011659D02*
X036714Y011746D01*
X038117Y013149D01*
X043654Y010649D02*
X043654Y009649D01*
X043831Y009472D01*
D64*
X017780Y028543D02*
X017445Y028877D01*
X017445Y029399D01*
X016656Y029440D02*
X016656Y030505D01*
X017404Y030505D02*
X017404Y030148D01*
X017280Y030024D01*
X016656Y029440D02*
X016615Y029399D01*
X015945Y029399D02*
X015945Y028627D01*
X016030Y028543D01*
X015656Y027755D02*
X015695Y027716D01*
X015695Y026899D01*
X013945Y026899D02*
X013945Y027716D01*
X013906Y027755D01*
X014280Y028543D02*
X014445Y028708D01*
X014445Y029399D01*
X013615Y029399D02*
X013615Y030464D01*
X013656Y030505D01*
X014230Y030049D02*
X014404Y030223D01*
X014404Y030505D01*
X015156Y030505D02*
X015156Y029440D01*
X015115Y029399D01*
X015730Y030049D02*
X015904Y030223D01*
X015904Y030505D01*
X015530Y031293D02*
X015530Y032348D01*
X015530Y033450D02*
X015530Y034399D01*
X015030Y034899D01*
X014030Y034899D02*
X014030Y033450D01*
X014030Y032348D02*
X014030Y031293D01*
X012945Y029399D02*
X012945Y028958D01*
X012530Y028543D01*
X012156Y027755D02*
X012195Y027716D01*
X012195Y026899D01*
X013530Y023999D02*
X013530Y022799D01*
X017445Y026899D02*
X017445Y027716D01*
X017406Y027755D01*
X018115Y029399D02*
X018156Y029440D01*
X018156Y030505D01*
X018904Y030505D02*
X018904Y030198D01*
X018730Y030024D01*
X018530Y031293D02*
X018530Y032348D01*
X017030Y032348D02*
X017030Y031293D01*
X017030Y033450D02*
X017030Y033899D01*
X016030Y034899D01*
X017030Y034899D02*
X018479Y033450D01*
X018530Y033450D01*
D65*
X008530Y016734D02*
X007530Y016734D01*
X007695Y016734D01*
X008030Y016399D01*
X008030Y015839D01*
X007640Y015449D01*
X007640Y015007D01*
X007634Y015001D01*
X008530Y016064D02*
X009170Y015425D01*
X009170Y015001D01*
X009426Y015001D02*
X009426Y015960D01*
X009530Y016064D01*
M02*
