G75*
%MOIN*%
%OFA0B0*%
%FSLAX24Y24*%
%IPPOS*%
%LPD*%
%AMOC8*
5,1,8,0,0,1.08239X$1,22.5*
%
%ADD10C,0.0100*%
%ADD11C,0.0040*%
%ADD12C,0.0060*%
%ADD13R,0.0100X0.0050*%
%ADD14R,0.1250X0.0050*%
%ADD15R,0.0150X0.0050*%
%ADD16R,0.3500X0.0050*%
%ADD17R,0.5800X0.0050*%
%ADD18R,0.8050X0.0050*%
%ADD19R,0.0250X0.0050*%
%ADD20R,0.0200X0.0050*%
%ADD21R,0.6200X0.0050*%
%ADD22R,0.0350X0.0050*%
%ADD23R,0.0050X0.0050*%
%ADD24R,0.0450X0.0050*%
%ADD25R,0.0300X0.0050*%
%ADD26R,0.0500X0.0050*%
%ADD27R,0.0550X0.0050*%
%ADD28R,0.0400X0.0050*%
%ADD29R,0.0600X0.0050*%
%ADD30R,0.0700X0.0050*%
%ADD31R,0.4950X0.0050*%
%ADD32R,0.0850X0.0050*%
%ADD33R,0.0900X0.0050*%
%ADD34R,0.0800X0.0050*%
%ADD35R,0.0650X0.0050*%
%ADD36R,0.0750X0.0050*%
%ADD37C,0.0010*%
%ADD38C,0.0030*%
%ADD39C,0.0050*%
%ADD40C,0.0220*%
%ADD41C,0.0080*%
%ADD42C,0.0020*%
%ADD43R,0.0079X0.0079*%
%ADD44C,0.0002*%
%ADD45R,0.0180X0.0300*%
%ADD46R,0.0300X0.0180*%
%ADD47R,0.0433X0.0226*%
D10*
X000150Y006769D02*
X000152Y006856D01*
X000158Y006943D01*
X000168Y007030D01*
X000182Y007116D01*
X000200Y007201D01*
X000221Y007285D01*
X000247Y007369D01*
X000276Y007451D01*
X000310Y007531D01*
X000346Y007610D01*
X000387Y007687D01*
X000431Y007763D01*
X000478Y007836D01*
X000528Y007907D01*
X000582Y007975D01*
X000639Y008041D01*
X000699Y008105D01*
X000761Y008165D01*
X000827Y008223D01*
X000895Y008277D01*
X000965Y008329D01*
X001038Y008377D01*
X001113Y008422D01*
X001189Y008463D01*
X001268Y008501D01*
X001348Y008535D01*
X001430Y008565D01*
X001513Y008591D01*
X001597Y008614D01*
X001682Y008633D01*
X001768Y008648D01*
X001854Y008659D01*
X001941Y008666D01*
X002028Y008669D01*
X002115Y008668D01*
X002202Y008663D01*
X002289Y008654D01*
X002375Y008641D01*
X002461Y008624D01*
X002545Y008603D01*
X002629Y008579D01*
X002711Y008550D01*
X002792Y008518D01*
X002872Y008482D01*
X002949Y008443D01*
X003025Y008400D01*
X003099Y008353D01*
X003170Y008304D01*
X003239Y008251D01*
X003306Y008194D01*
X003370Y008135D01*
X003431Y008073D01*
X003490Y008009D01*
X003545Y007941D01*
X003597Y007872D01*
X003646Y007800D01*
X003692Y007725D01*
X003734Y007649D01*
X003772Y007571D01*
X003807Y007491D01*
X003839Y007410D01*
X003866Y007327D01*
X003890Y007243D01*
X003910Y007158D01*
X003926Y007073D01*
X003938Y006986D01*
X003946Y006900D01*
X003950Y006813D01*
X003950Y006725D01*
X003946Y006638D01*
X003938Y006552D01*
X003926Y006465D01*
X003910Y006380D01*
X003890Y006295D01*
X003866Y006211D01*
X003839Y006128D01*
X003807Y006047D01*
X003772Y005967D01*
X003734Y005889D01*
X003692Y005813D01*
X003646Y005738D01*
X003597Y005666D01*
X003545Y005597D01*
X003490Y005529D01*
X003431Y005465D01*
X003370Y005403D01*
X003306Y005344D01*
X003239Y005287D01*
X003170Y005234D01*
X003099Y005185D01*
X003025Y005138D01*
X002949Y005095D01*
X002872Y005056D01*
X002792Y005020D01*
X002711Y004988D01*
X002629Y004959D01*
X002545Y004935D01*
X002461Y004914D01*
X002375Y004897D01*
X002289Y004884D01*
X002202Y004875D01*
X002115Y004870D01*
X002028Y004869D01*
X001941Y004872D01*
X001854Y004879D01*
X001768Y004890D01*
X001682Y004905D01*
X001597Y004924D01*
X001513Y004947D01*
X001430Y004973D01*
X001348Y005003D01*
X001268Y005037D01*
X001189Y005075D01*
X001113Y005116D01*
X001038Y005161D01*
X000965Y005209D01*
X000895Y005261D01*
X000827Y005315D01*
X000761Y005373D01*
X000699Y005433D01*
X000639Y005497D01*
X000582Y005563D01*
X000528Y005631D01*
X000478Y005702D01*
X000431Y005775D01*
X000387Y005851D01*
X000346Y005928D01*
X000310Y006007D01*
X000276Y006087D01*
X000247Y006169D01*
X000221Y006253D01*
X000200Y006337D01*
X000182Y006422D01*
X000168Y006508D01*
X000158Y006595D01*
X000152Y006682D01*
X000150Y006769D01*
X000150Y036269D02*
X000152Y036356D01*
X000158Y036443D01*
X000168Y036530D01*
X000182Y036616D01*
X000200Y036701D01*
X000221Y036785D01*
X000247Y036869D01*
X000276Y036951D01*
X000310Y037031D01*
X000346Y037110D01*
X000387Y037187D01*
X000431Y037263D01*
X000478Y037336D01*
X000528Y037407D01*
X000582Y037475D01*
X000639Y037541D01*
X000699Y037605D01*
X000761Y037665D01*
X000827Y037723D01*
X000895Y037777D01*
X000965Y037829D01*
X001038Y037877D01*
X001113Y037922D01*
X001189Y037963D01*
X001268Y038001D01*
X001348Y038035D01*
X001430Y038065D01*
X001513Y038091D01*
X001597Y038114D01*
X001682Y038133D01*
X001768Y038148D01*
X001854Y038159D01*
X001941Y038166D01*
X002028Y038169D01*
X002115Y038168D01*
X002202Y038163D01*
X002289Y038154D01*
X002375Y038141D01*
X002461Y038124D01*
X002545Y038103D01*
X002629Y038079D01*
X002711Y038050D01*
X002792Y038018D01*
X002872Y037982D01*
X002949Y037943D01*
X003025Y037900D01*
X003099Y037853D01*
X003170Y037804D01*
X003239Y037751D01*
X003306Y037694D01*
X003370Y037635D01*
X003431Y037573D01*
X003490Y037509D01*
X003545Y037441D01*
X003597Y037372D01*
X003646Y037300D01*
X003692Y037225D01*
X003734Y037149D01*
X003772Y037071D01*
X003807Y036991D01*
X003839Y036910D01*
X003866Y036827D01*
X003890Y036743D01*
X003910Y036658D01*
X003926Y036573D01*
X003938Y036486D01*
X003946Y036400D01*
X003950Y036313D01*
X003950Y036225D01*
X003946Y036138D01*
X003938Y036052D01*
X003926Y035965D01*
X003910Y035880D01*
X003890Y035795D01*
X003866Y035711D01*
X003839Y035628D01*
X003807Y035547D01*
X003772Y035467D01*
X003734Y035389D01*
X003692Y035313D01*
X003646Y035238D01*
X003597Y035166D01*
X003545Y035097D01*
X003490Y035029D01*
X003431Y034965D01*
X003370Y034903D01*
X003306Y034844D01*
X003239Y034787D01*
X003170Y034734D01*
X003099Y034685D01*
X003025Y034638D01*
X002949Y034595D01*
X002872Y034556D01*
X002792Y034520D01*
X002711Y034488D01*
X002629Y034459D01*
X002545Y034435D01*
X002461Y034414D01*
X002375Y034397D01*
X002289Y034384D01*
X002202Y034375D01*
X002115Y034370D01*
X002028Y034369D01*
X001941Y034372D01*
X001854Y034379D01*
X001768Y034390D01*
X001682Y034405D01*
X001597Y034424D01*
X001513Y034447D01*
X001430Y034473D01*
X001348Y034503D01*
X001268Y034537D01*
X001189Y034575D01*
X001113Y034616D01*
X001038Y034661D01*
X000965Y034709D01*
X000895Y034761D01*
X000827Y034815D01*
X000761Y034873D01*
X000699Y034933D01*
X000639Y034997D01*
X000582Y035063D01*
X000528Y035131D01*
X000478Y035202D01*
X000431Y035275D01*
X000387Y035351D01*
X000346Y035428D01*
X000310Y035507D01*
X000276Y035587D01*
X000247Y035669D01*
X000221Y035753D01*
X000200Y035837D01*
X000182Y035922D01*
X000168Y036008D01*
X000158Y036095D01*
X000152Y036182D01*
X000150Y036269D01*
X047650Y036269D02*
X047652Y036356D01*
X047658Y036443D01*
X047668Y036530D01*
X047682Y036616D01*
X047700Y036701D01*
X047721Y036785D01*
X047747Y036869D01*
X047776Y036951D01*
X047810Y037031D01*
X047846Y037110D01*
X047887Y037187D01*
X047931Y037263D01*
X047978Y037336D01*
X048028Y037407D01*
X048082Y037475D01*
X048139Y037541D01*
X048199Y037605D01*
X048261Y037665D01*
X048327Y037723D01*
X048395Y037777D01*
X048465Y037829D01*
X048538Y037877D01*
X048613Y037922D01*
X048689Y037963D01*
X048768Y038001D01*
X048848Y038035D01*
X048930Y038065D01*
X049013Y038091D01*
X049097Y038114D01*
X049182Y038133D01*
X049268Y038148D01*
X049354Y038159D01*
X049441Y038166D01*
X049528Y038169D01*
X049615Y038168D01*
X049702Y038163D01*
X049789Y038154D01*
X049875Y038141D01*
X049961Y038124D01*
X050045Y038103D01*
X050129Y038079D01*
X050211Y038050D01*
X050292Y038018D01*
X050372Y037982D01*
X050449Y037943D01*
X050525Y037900D01*
X050599Y037853D01*
X050670Y037804D01*
X050739Y037751D01*
X050806Y037694D01*
X050870Y037635D01*
X050931Y037573D01*
X050990Y037509D01*
X051045Y037441D01*
X051097Y037372D01*
X051146Y037300D01*
X051192Y037225D01*
X051234Y037149D01*
X051272Y037071D01*
X051307Y036991D01*
X051339Y036910D01*
X051366Y036827D01*
X051390Y036743D01*
X051410Y036658D01*
X051426Y036573D01*
X051438Y036486D01*
X051446Y036400D01*
X051450Y036313D01*
X051450Y036225D01*
X051446Y036138D01*
X051438Y036052D01*
X051426Y035965D01*
X051410Y035880D01*
X051390Y035795D01*
X051366Y035711D01*
X051339Y035628D01*
X051307Y035547D01*
X051272Y035467D01*
X051234Y035389D01*
X051192Y035313D01*
X051146Y035238D01*
X051097Y035166D01*
X051045Y035097D01*
X050990Y035029D01*
X050931Y034965D01*
X050870Y034903D01*
X050806Y034844D01*
X050739Y034787D01*
X050670Y034734D01*
X050599Y034685D01*
X050525Y034638D01*
X050449Y034595D01*
X050372Y034556D01*
X050292Y034520D01*
X050211Y034488D01*
X050129Y034459D01*
X050045Y034435D01*
X049961Y034414D01*
X049875Y034397D01*
X049789Y034384D01*
X049702Y034375D01*
X049615Y034370D01*
X049528Y034369D01*
X049441Y034372D01*
X049354Y034379D01*
X049268Y034390D01*
X049182Y034405D01*
X049097Y034424D01*
X049013Y034447D01*
X048930Y034473D01*
X048848Y034503D01*
X048768Y034537D01*
X048689Y034575D01*
X048613Y034616D01*
X048538Y034661D01*
X048465Y034709D01*
X048395Y034761D01*
X048327Y034815D01*
X048261Y034873D01*
X048199Y034933D01*
X048139Y034997D01*
X048082Y035063D01*
X048028Y035131D01*
X047978Y035202D01*
X047931Y035275D01*
X047887Y035351D01*
X047846Y035428D01*
X047810Y035507D01*
X047776Y035587D01*
X047747Y035669D01*
X047721Y035753D01*
X047700Y035837D01*
X047682Y035922D01*
X047668Y036008D01*
X047658Y036095D01*
X047652Y036182D01*
X047650Y036269D01*
X047650Y006769D02*
X047652Y006856D01*
X047658Y006943D01*
X047668Y007030D01*
X047682Y007116D01*
X047700Y007201D01*
X047721Y007285D01*
X047747Y007369D01*
X047776Y007451D01*
X047810Y007531D01*
X047846Y007610D01*
X047887Y007687D01*
X047931Y007763D01*
X047978Y007836D01*
X048028Y007907D01*
X048082Y007975D01*
X048139Y008041D01*
X048199Y008105D01*
X048261Y008165D01*
X048327Y008223D01*
X048395Y008277D01*
X048465Y008329D01*
X048538Y008377D01*
X048613Y008422D01*
X048689Y008463D01*
X048768Y008501D01*
X048848Y008535D01*
X048930Y008565D01*
X049013Y008591D01*
X049097Y008614D01*
X049182Y008633D01*
X049268Y008648D01*
X049354Y008659D01*
X049441Y008666D01*
X049528Y008669D01*
X049615Y008668D01*
X049702Y008663D01*
X049789Y008654D01*
X049875Y008641D01*
X049961Y008624D01*
X050045Y008603D01*
X050129Y008579D01*
X050211Y008550D01*
X050292Y008518D01*
X050372Y008482D01*
X050449Y008443D01*
X050525Y008400D01*
X050599Y008353D01*
X050670Y008304D01*
X050739Y008251D01*
X050806Y008194D01*
X050870Y008135D01*
X050931Y008073D01*
X050990Y008009D01*
X051045Y007941D01*
X051097Y007872D01*
X051146Y007800D01*
X051192Y007725D01*
X051234Y007649D01*
X051272Y007571D01*
X051307Y007491D01*
X051339Y007410D01*
X051366Y007327D01*
X051390Y007243D01*
X051410Y007158D01*
X051426Y007073D01*
X051438Y006986D01*
X051446Y006900D01*
X051450Y006813D01*
X051450Y006725D01*
X051446Y006638D01*
X051438Y006552D01*
X051426Y006465D01*
X051410Y006380D01*
X051390Y006295D01*
X051366Y006211D01*
X051339Y006128D01*
X051307Y006047D01*
X051272Y005967D01*
X051234Y005889D01*
X051192Y005813D01*
X051146Y005738D01*
X051097Y005666D01*
X051045Y005597D01*
X050990Y005529D01*
X050931Y005465D01*
X050870Y005403D01*
X050806Y005344D01*
X050739Y005287D01*
X050670Y005234D01*
X050599Y005185D01*
X050525Y005138D01*
X050449Y005095D01*
X050372Y005056D01*
X050292Y005020D01*
X050211Y004988D01*
X050129Y004959D01*
X050045Y004935D01*
X049961Y004914D01*
X049875Y004897D01*
X049789Y004884D01*
X049702Y004875D01*
X049615Y004870D01*
X049528Y004869D01*
X049441Y004872D01*
X049354Y004879D01*
X049268Y004890D01*
X049182Y004905D01*
X049097Y004924D01*
X049013Y004947D01*
X048930Y004973D01*
X048848Y005003D01*
X048768Y005037D01*
X048689Y005075D01*
X048613Y005116D01*
X048538Y005161D01*
X048465Y005209D01*
X048395Y005261D01*
X048327Y005315D01*
X048261Y005373D01*
X048199Y005433D01*
X048139Y005497D01*
X048082Y005563D01*
X048028Y005631D01*
X047978Y005702D01*
X047931Y005775D01*
X047887Y005851D01*
X047846Y005928D01*
X047810Y006007D01*
X047776Y006087D01*
X047747Y006169D01*
X047721Y006253D01*
X047700Y006337D01*
X047682Y006422D01*
X047668Y006508D01*
X047658Y006595D01*
X047652Y006682D01*
X047650Y006769D01*
D11*
X045080Y007116D02*
X045080Y007269D01*
X045003Y007346D01*
X044620Y007346D01*
X044696Y007499D02*
X044773Y007499D01*
X044850Y007576D01*
X044850Y007730D01*
X044927Y007806D01*
X045003Y007806D01*
X045080Y007730D01*
X045080Y007576D01*
X045003Y007499D01*
X044696Y007499D02*
X044620Y007576D01*
X044620Y007730D01*
X044696Y007806D01*
X044620Y007960D02*
X044620Y008190D01*
X044696Y008267D01*
X044773Y008267D01*
X044850Y008190D01*
X044850Y007960D01*
X044850Y008190D02*
X044927Y008267D01*
X045003Y008267D01*
X045080Y008190D01*
X045080Y007960D01*
X044620Y007960D01*
X045157Y008420D02*
X045157Y008727D01*
X044927Y008881D02*
X044620Y008881D01*
X044620Y009188D02*
X044927Y009188D01*
X045080Y009034D01*
X044927Y008881D01*
X044850Y009341D02*
X044850Y009648D01*
X044696Y009494D02*
X045003Y009494D01*
X043647Y009669D02*
X043340Y009669D01*
X043647Y009976D01*
X043647Y010053D01*
X043570Y010129D01*
X043416Y010129D01*
X043340Y010053D01*
X043033Y010129D02*
X043033Y009669D01*
X043186Y009669D02*
X042879Y009669D01*
X042726Y009746D02*
X042649Y009669D01*
X042496Y009669D01*
X042419Y009746D01*
X042419Y010053D01*
X042496Y010129D01*
X042649Y010129D01*
X042726Y010053D01*
X042879Y009976D02*
X043033Y010129D01*
X042080Y010032D02*
X042080Y009801D01*
X041620Y009801D01*
X041620Y010032D01*
X041696Y010108D01*
X042003Y010108D01*
X042080Y010032D01*
X042080Y009648D02*
X041620Y009648D01*
X041620Y009341D02*
X042080Y009648D01*
X042080Y009341D02*
X041620Y009341D01*
X041696Y009188D02*
X041620Y009111D01*
X041620Y008957D01*
X041696Y008881D01*
X042003Y008881D01*
X042080Y008957D01*
X042080Y009111D01*
X042003Y009188D01*
X041850Y009188D01*
X041850Y009034D01*
X042157Y008727D02*
X042157Y008420D01*
X042003Y008267D02*
X042080Y008190D01*
X042080Y007960D01*
X041620Y007960D01*
X041620Y008190D01*
X041696Y008267D01*
X041773Y008267D01*
X041850Y008190D01*
X041850Y007960D01*
X041927Y007806D02*
X042003Y007806D01*
X042080Y007730D01*
X042080Y007576D01*
X042003Y007499D01*
X042003Y007346D02*
X041620Y007346D01*
X041696Y007499D02*
X041773Y007499D01*
X041850Y007576D01*
X041850Y007730D01*
X041927Y007806D01*
X041696Y007806D02*
X041620Y007730D01*
X041620Y007576D01*
X041696Y007499D01*
X042003Y007346D02*
X042080Y007269D01*
X042080Y007116D01*
X042003Y007039D01*
X041620Y007039D01*
X040980Y007116D02*
X040980Y007269D01*
X040903Y007346D01*
X040980Y007499D02*
X040673Y007499D01*
X040520Y007653D01*
X040673Y007806D01*
X040980Y007806D01*
X040980Y007960D02*
X040520Y007960D01*
X040980Y008267D01*
X040520Y008267D01*
X040157Y008420D02*
X040157Y008727D01*
X040080Y008881D02*
X039620Y008881D01*
X040080Y008881D02*
X040080Y009188D01*
X040520Y009188D02*
X040980Y009188D01*
X040750Y009188D02*
X040750Y008881D01*
X040980Y008881D02*
X040520Y008881D01*
X041057Y008727D02*
X041057Y008420D01*
X040750Y007806D02*
X040750Y007499D01*
X040596Y007346D02*
X040520Y007269D01*
X040520Y007116D01*
X040596Y007039D01*
X040903Y007039D01*
X040980Y007116D01*
X040080Y007116D02*
X040080Y007269D01*
X040003Y007346D01*
X040080Y007499D02*
X039773Y007499D01*
X039620Y007653D01*
X039773Y007806D01*
X040080Y007806D01*
X040080Y007960D02*
X039620Y007960D01*
X040080Y008267D01*
X039620Y008267D01*
X039850Y007806D02*
X039850Y007499D01*
X039696Y007346D02*
X039620Y007269D01*
X039620Y007116D01*
X039696Y007039D01*
X040003Y007039D01*
X040080Y007116D01*
X039080Y007116D02*
X039080Y007269D01*
X039003Y007346D01*
X038850Y007346D01*
X038850Y007192D01*
X039003Y007039D02*
X039080Y007116D01*
X039003Y007039D02*
X038696Y007039D01*
X038620Y007116D01*
X038620Y007269D01*
X038696Y007346D01*
X038620Y007499D02*
X039080Y007806D01*
X038620Y007806D01*
X038620Y007960D02*
X038620Y008190D01*
X038696Y008267D01*
X039003Y008267D01*
X039080Y008190D01*
X039080Y007960D01*
X038620Y007960D01*
X038620Y007499D02*
X039080Y007499D01*
X038080Y007576D02*
X038080Y007730D01*
X038003Y007806D01*
X038003Y007960D02*
X038080Y008037D01*
X038080Y008190D01*
X038003Y008267D01*
X037696Y008267D02*
X037620Y008190D01*
X037620Y008037D01*
X037696Y007960D01*
X038003Y007960D01*
X037696Y007806D02*
X037620Y007730D01*
X037620Y007576D01*
X037696Y007499D01*
X038003Y007499D01*
X038080Y007576D01*
X037927Y007346D02*
X037620Y007346D01*
X037927Y007346D02*
X038080Y007192D01*
X037927Y007039D01*
X037620Y007039D01*
X035010Y008669D02*
X034550Y008669D01*
X034550Y008899D01*
X034626Y008976D01*
X034780Y008976D01*
X034857Y008899D01*
X034857Y008669D01*
X034857Y008822D02*
X035010Y008976D01*
X034933Y009129D02*
X035010Y009206D01*
X035010Y009360D01*
X034933Y009436D01*
X034857Y009436D01*
X034780Y009360D01*
X034780Y009129D01*
X034933Y009129D01*
X034780Y009129D02*
X034626Y009283D01*
X034550Y009436D01*
X035649Y009589D02*
X035649Y010049D01*
X035879Y010049D01*
X035956Y009973D01*
X035956Y009819D01*
X035879Y009742D01*
X035649Y009742D01*
X035803Y009742D02*
X035956Y009589D01*
X036110Y009666D02*
X036110Y009742D01*
X036186Y009819D01*
X036340Y009819D01*
X036417Y009742D01*
X036417Y009666D01*
X036340Y009589D01*
X036186Y009589D01*
X036110Y009666D01*
X036186Y009819D02*
X036110Y009896D01*
X036110Y009973D01*
X036186Y010049D01*
X036340Y010049D01*
X036417Y009973D01*
X036417Y009896D01*
X036340Y009819D01*
X036380Y010679D02*
X036457Y010756D01*
X036457Y011063D01*
X036380Y011139D01*
X036226Y011139D01*
X036150Y011063D01*
X036150Y010986D01*
X036226Y010909D01*
X036457Y010909D01*
X036380Y010679D02*
X036226Y010679D01*
X036150Y010756D01*
X035996Y010679D02*
X035843Y010832D01*
X035919Y010832D02*
X035689Y010832D01*
X035689Y010679D02*
X035689Y011139D01*
X035919Y011139D01*
X035996Y011063D01*
X035996Y010909D01*
X035919Y010832D01*
X038050Y011919D02*
X038050Y012379D01*
X038050Y011919D02*
X038357Y011919D01*
X038510Y011919D02*
X038817Y011919D01*
X038971Y011919D02*
X039201Y011919D01*
X039278Y011996D01*
X039278Y012303D01*
X039201Y012379D01*
X038971Y012379D01*
X038971Y011919D01*
X038664Y012149D02*
X038510Y012149D01*
X038510Y012379D02*
X038510Y011919D01*
X038510Y012379D02*
X038817Y012379D01*
X039431Y012303D02*
X039508Y012379D01*
X039661Y012379D01*
X039738Y012303D01*
X039738Y012226D01*
X039431Y011919D01*
X039738Y011919D01*
X040519Y011953D02*
X040519Y011646D01*
X040596Y011569D01*
X040749Y011569D01*
X040826Y011646D01*
X040979Y011569D02*
X041286Y011569D01*
X041133Y011569D02*
X041133Y012029D01*
X040979Y011876D01*
X040826Y011953D02*
X040749Y012029D01*
X040596Y012029D01*
X040519Y011953D01*
X041440Y011953D02*
X041440Y011876D01*
X041516Y011799D01*
X041670Y011799D01*
X041747Y011722D01*
X041747Y011646D01*
X041670Y011569D01*
X041516Y011569D01*
X041440Y011646D01*
X041440Y011722D01*
X041516Y011799D01*
X041670Y011799D02*
X041747Y011876D01*
X041747Y011953D01*
X041670Y012029D01*
X041516Y012029D01*
X041440Y011953D01*
X042419Y011553D02*
X042419Y011246D01*
X042496Y011169D01*
X042649Y011169D01*
X042726Y011246D01*
X042879Y011169D02*
X043186Y011169D01*
X043033Y011169D02*
X043033Y011629D01*
X042879Y011476D01*
X042726Y011553D02*
X042649Y011629D01*
X042496Y011629D01*
X042419Y011553D01*
X043340Y011553D02*
X043340Y011476D01*
X043416Y011399D01*
X043647Y011399D01*
X043647Y011246D02*
X043647Y011553D01*
X043570Y011629D01*
X043416Y011629D01*
X043340Y011553D01*
X043340Y011246D02*
X043416Y011169D01*
X043570Y011169D01*
X043647Y011246D01*
X041187Y010356D02*
X041187Y010049D01*
X041187Y009896D02*
X041187Y009819D01*
X041033Y009896D02*
X040956Y009819D01*
X040803Y009819D01*
X040726Y009896D01*
X040726Y010203D01*
X040803Y010279D01*
X040956Y010279D01*
X041033Y010203D01*
X040573Y010203D02*
X040496Y010279D01*
X040342Y010279D01*
X040266Y010203D01*
X040266Y009896D01*
X040342Y009819D01*
X040496Y009819D01*
X040573Y009896D01*
X040112Y009972D02*
X040112Y010279D01*
X040112Y009972D02*
X039959Y009819D01*
X039805Y009972D01*
X039805Y010279D01*
X041850Y008190D02*
X041927Y008267D01*
X042003Y008267D01*
X042750Y007806D02*
X042750Y007499D01*
X042903Y007346D02*
X042596Y007346D01*
X042520Y007269D01*
X042520Y007039D01*
X042980Y007039D01*
X042980Y007269D01*
X042903Y007346D01*
X042903Y007653D02*
X042596Y007653D01*
X043620Y007269D02*
X043620Y007039D01*
X044080Y007039D01*
X044080Y007269D01*
X044003Y007346D01*
X043696Y007346D01*
X043620Y007269D01*
X043850Y007499D02*
X043850Y007806D01*
X044620Y007039D02*
X045003Y007039D01*
X045080Y007116D01*
X039661Y013669D02*
X039508Y013669D01*
X039431Y013746D01*
X039278Y013746D02*
X039278Y014053D01*
X039201Y014129D01*
X038971Y014129D01*
X038971Y013669D01*
X039201Y013669D01*
X039278Y013746D01*
X039585Y013899D02*
X039661Y013899D01*
X039738Y013822D01*
X039738Y013746D01*
X039661Y013669D01*
X039661Y013899D02*
X039738Y013976D01*
X039738Y014053D01*
X039661Y014129D01*
X039508Y014129D01*
X039431Y014053D01*
X038817Y014129D02*
X038510Y014129D01*
X038510Y013669D01*
X038817Y013669D01*
X038664Y013899D02*
X038510Y013899D01*
X038357Y013669D02*
X038050Y013669D01*
X038050Y014129D01*
X039929Y015976D02*
X040006Y015899D01*
X040159Y015899D01*
X040236Y015976D01*
X040389Y015899D02*
X040696Y016206D01*
X040696Y016283D01*
X040619Y016359D01*
X040466Y016359D01*
X040389Y016283D01*
X040236Y016283D02*
X040159Y016359D01*
X040006Y016359D01*
X039929Y016283D01*
X039929Y015976D01*
X040389Y015899D02*
X040696Y015899D01*
X040850Y015976D02*
X041157Y016283D01*
X041157Y015976D01*
X041080Y015899D01*
X040926Y015899D01*
X040850Y015976D01*
X040850Y016283D01*
X040926Y016359D01*
X041080Y016359D01*
X041157Y016283D01*
X043956Y015551D02*
X043956Y015244D01*
X044186Y015244D01*
X044109Y015397D01*
X044109Y015474D01*
X044186Y015551D01*
X044339Y015551D01*
X044416Y015474D01*
X044416Y015321D01*
X044339Y015244D01*
X044339Y015091D02*
X044416Y015014D01*
X044416Y014860D01*
X044339Y014784D01*
X044032Y014784D01*
X043956Y014860D01*
X043956Y015014D01*
X044032Y015091D01*
X043956Y014630D02*
X043956Y014477D01*
X043956Y014553D02*
X044416Y014553D01*
X044416Y014477D02*
X044416Y014630D01*
X044550Y021248D02*
X044550Y021478D01*
X044626Y021555D01*
X044780Y021555D01*
X044857Y021478D01*
X044857Y021248D01*
X045010Y021248D02*
X044550Y021248D01*
X044857Y021402D02*
X045010Y021555D01*
X044933Y021709D02*
X045010Y021785D01*
X045010Y021939D01*
X044933Y022016D01*
X044857Y022016D01*
X044780Y021939D01*
X044780Y021862D01*
X044780Y021939D02*
X044703Y022016D01*
X044626Y022016D01*
X044550Y021939D01*
X044550Y021785D01*
X044626Y021709D01*
X040510Y024996D02*
X040510Y025149D01*
X040433Y025226D01*
X040510Y025379D02*
X040510Y025686D01*
X040510Y025533D02*
X040050Y025533D01*
X040203Y025379D01*
X040126Y025226D02*
X040050Y025149D01*
X040050Y024996D01*
X040126Y024919D01*
X040433Y024919D01*
X040510Y024996D01*
X038760Y024996D02*
X038760Y025149D01*
X038683Y025226D01*
X038760Y025379D02*
X038453Y025686D01*
X038376Y025686D01*
X038300Y025610D01*
X038300Y025456D01*
X038376Y025379D01*
X038376Y025226D02*
X038300Y025149D01*
X038300Y024996D01*
X038376Y024919D01*
X038683Y024919D01*
X038760Y024996D01*
X038760Y025379D02*
X038760Y025686D01*
X042120Y027339D02*
X042120Y027799D01*
X042350Y027799D01*
X042427Y027723D01*
X042427Y027569D01*
X042350Y027492D01*
X042120Y027492D01*
X042580Y027416D02*
X042580Y027723D01*
X042657Y027799D01*
X042811Y027799D01*
X042887Y027723D01*
X043041Y027723D02*
X043118Y027799D01*
X043271Y027799D01*
X043348Y027723D01*
X043041Y027416D01*
X043118Y027339D01*
X043271Y027339D01*
X043348Y027416D01*
X043348Y027723D01*
X043041Y027723D02*
X043041Y027416D01*
X042887Y027416D02*
X042811Y027339D01*
X042657Y027339D01*
X042580Y027416D01*
X042657Y028389D02*
X042811Y028389D01*
X042887Y028466D01*
X043041Y028389D02*
X043348Y028389D01*
X043194Y028389D02*
X043194Y028849D01*
X043041Y028696D01*
X042887Y028773D02*
X042811Y028849D01*
X042657Y028849D01*
X042580Y028773D01*
X042580Y028466D01*
X042657Y028389D01*
X042427Y028619D02*
X042350Y028542D01*
X042120Y028542D01*
X042120Y028389D02*
X042120Y028849D01*
X042350Y028849D01*
X042427Y028773D01*
X042427Y028619D01*
X042170Y029389D02*
X042170Y029849D01*
X042400Y029849D01*
X042477Y029773D01*
X042477Y029619D01*
X042400Y029542D01*
X042170Y029542D01*
X042630Y029466D02*
X042707Y029389D01*
X042861Y029389D01*
X042937Y029466D01*
X043091Y029389D02*
X043398Y029696D01*
X043398Y029773D01*
X043321Y029849D01*
X043168Y029849D01*
X043091Y029773D01*
X042937Y029773D02*
X042861Y029849D01*
X042707Y029849D01*
X042630Y029773D01*
X042630Y029466D01*
X043091Y029389D02*
X043398Y029389D01*
X043271Y030339D02*
X043118Y030339D01*
X043041Y030416D01*
X042887Y030416D02*
X042811Y030339D01*
X042657Y030339D01*
X042580Y030416D01*
X042580Y030723D01*
X042657Y030799D01*
X042811Y030799D01*
X042887Y030723D01*
X043041Y030723D02*
X043118Y030799D01*
X043271Y030799D01*
X043348Y030723D01*
X043348Y030646D01*
X043271Y030569D01*
X043348Y030492D01*
X043348Y030416D01*
X043271Y030339D01*
X043271Y030569D02*
X043194Y030569D01*
X042427Y030569D02*
X042427Y030723D01*
X042350Y030799D01*
X042120Y030799D01*
X042120Y030339D01*
X042120Y030492D02*
X042350Y030492D01*
X042427Y030569D01*
X042657Y031339D02*
X042811Y031339D01*
X042887Y031416D01*
X043041Y031569D02*
X043348Y031569D01*
X043271Y031339D02*
X043271Y031799D01*
X043041Y031569D01*
X042887Y031723D02*
X042811Y031799D01*
X042657Y031799D01*
X042580Y031723D01*
X042580Y031416D01*
X042657Y031339D01*
X042427Y031569D02*
X042350Y031492D01*
X042120Y031492D01*
X042120Y031339D02*
X042120Y031799D01*
X042350Y031799D01*
X042427Y031723D01*
X042427Y031569D01*
X042480Y033839D02*
X042480Y034299D01*
X042787Y034299D01*
X042941Y034223D02*
X043018Y034299D01*
X043171Y034299D01*
X043248Y034223D01*
X043248Y034146D01*
X042941Y033839D01*
X043248Y033839D01*
X042634Y034069D02*
X042480Y034069D01*
X042327Y034069D02*
X042250Y033992D01*
X042020Y033992D01*
X042020Y033839D02*
X042020Y034299D01*
X042250Y034299D01*
X042327Y034223D01*
X042327Y034069D01*
X042480Y034939D02*
X042480Y035399D01*
X042787Y035399D01*
X042941Y035246D02*
X043094Y035399D01*
X043094Y034939D01*
X042941Y034939D02*
X043248Y034939D01*
X042634Y035169D02*
X042480Y035169D01*
X042327Y035169D02*
X042250Y035092D01*
X042020Y035092D01*
X042020Y034939D02*
X042020Y035399D01*
X042250Y035399D01*
X042327Y035323D01*
X042327Y035169D01*
X042480Y035939D02*
X042480Y036399D01*
X042787Y036399D01*
X042941Y036323D02*
X042941Y036016D01*
X043248Y036323D01*
X043248Y036016D01*
X043171Y035939D01*
X043018Y035939D01*
X042941Y036016D01*
X042941Y036323D02*
X043018Y036399D01*
X043171Y036399D01*
X043248Y036323D01*
X042634Y036169D02*
X042480Y036169D01*
X042327Y036169D02*
X042250Y036092D01*
X042020Y036092D01*
X042020Y035939D02*
X042020Y036399D01*
X042250Y036399D01*
X042327Y036323D01*
X042327Y036169D01*
X046320Y035299D02*
X046320Y034839D01*
X046320Y034992D02*
X046550Y034992D01*
X046627Y035069D01*
X046627Y035223D01*
X046550Y035299D01*
X046320Y035299D01*
X046780Y035146D02*
X046934Y035299D01*
X047087Y035146D01*
X047087Y034839D01*
X047241Y034839D02*
X047241Y034916D01*
X047548Y035223D01*
X047548Y035299D01*
X047241Y035299D01*
X047087Y035069D02*
X046780Y035069D01*
X046780Y035146D02*
X046780Y034839D01*
X046857Y034299D02*
X046780Y034223D01*
X046780Y033916D01*
X046857Y033839D01*
X047011Y033839D01*
X047087Y033916D01*
X047087Y034069D01*
X046934Y034069D01*
X047087Y034223D02*
X047011Y034299D01*
X046857Y034299D01*
X046627Y034223D02*
X046627Y034069D01*
X046550Y033992D01*
X046320Y033992D01*
X046320Y033839D02*
X046320Y034299D01*
X046550Y034299D01*
X046627Y034223D01*
X047241Y034223D02*
X047318Y034299D01*
X047471Y034299D01*
X047548Y034223D01*
X047548Y034146D01*
X047241Y033839D01*
X047548Y033839D01*
X047548Y033299D02*
X047241Y033299D01*
X047087Y033223D02*
X047011Y033299D01*
X046857Y033299D01*
X046780Y033223D01*
X046780Y032916D01*
X046857Y032839D01*
X047011Y032839D01*
X047087Y032916D01*
X047241Y032916D02*
X047241Y032839D01*
X047241Y032916D02*
X047548Y033223D01*
X047548Y033299D01*
X046627Y033223D02*
X046627Y033069D01*
X046550Y032992D01*
X046320Y032992D01*
X046320Y032839D02*
X046320Y033299D01*
X046550Y033299D01*
X046627Y033223D01*
X046550Y032299D02*
X046320Y032299D01*
X046320Y031839D01*
X046320Y031992D02*
X046550Y031992D01*
X046627Y032069D01*
X046627Y032223D01*
X046550Y032299D01*
X046780Y032223D02*
X046780Y031916D01*
X046857Y031839D01*
X047011Y031839D01*
X047087Y031916D01*
X047241Y031916D02*
X047318Y031839D01*
X047471Y031839D01*
X047548Y031916D01*
X047548Y031992D01*
X047471Y032069D01*
X047241Y032069D01*
X047241Y031916D01*
X047241Y032069D02*
X047394Y032223D01*
X047548Y032299D01*
X047087Y032223D02*
X047011Y032299D01*
X046857Y032299D01*
X046780Y032223D01*
X046857Y031199D02*
X046780Y031123D01*
X046780Y030816D01*
X046857Y030739D01*
X047011Y030739D01*
X047087Y030816D01*
X047241Y030816D02*
X047318Y030739D01*
X047471Y030739D01*
X047548Y030816D01*
X047548Y030969D01*
X047471Y031046D01*
X047394Y031046D01*
X047241Y030969D01*
X047241Y031199D01*
X047548Y031199D01*
X047087Y031123D02*
X047011Y031199D01*
X046857Y031199D01*
X046627Y031123D02*
X046627Y030969D01*
X046550Y030892D01*
X046320Y030892D01*
X046320Y030739D02*
X046320Y031199D01*
X046550Y031199D01*
X046627Y031123D01*
X036624Y034424D02*
X036317Y034424D01*
X036471Y034424D02*
X036471Y034884D01*
X036317Y034731D01*
X036164Y034808D02*
X036087Y034884D01*
X035934Y034884D01*
X035857Y034808D01*
X035857Y034501D01*
X035934Y034424D01*
X036087Y034424D01*
X036164Y034501D01*
X035703Y034424D02*
X035550Y034424D01*
X035627Y034424D02*
X035627Y034884D01*
X035703Y034884D02*
X035550Y034884D01*
X034037Y035639D02*
X033730Y035639D01*
X033883Y035639D02*
X033883Y036099D01*
X033730Y035946D01*
X033576Y035639D02*
X033269Y035639D01*
X033269Y036099D01*
X031991Y031879D02*
X031837Y031879D01*
X031760Y031803D01*
X031607Y031803D02*
X031607Y031649D01*
X031530Y031572D01*
X031300Y031572D01*
X031300Y031419D02*
X031300Y031879D01*
X031530Y031879D01*
X031607Y031803D01*
X031453Y031572D02*
X031607Y031419D01*
X031760Y031419D02*
X032067Y031726D01*
X032067Y031803D01*
X031991Y031879D01*
X032067Y031419D02*
X031760Y031419D01*
X031760Y029879D02*
X032067Y029879D01*
X032067Y029803D01*
X031760Y029496D01*
X031760Y029419D01*
X031607Y029419D02*
X031453Y029572D01*
X031530Y029572D02*
X031300Y029572D01*
X031300Y029419D02*
X031300Y029879D01*
X031530Y029879D01*
X031607Y029803D01*
X031607Y029649D01*
X031530Y029572D01*
X034640Y027019D02*
X034870Y027019D01*
X034947Y026943D01*
X034947Y026789D01*
X034870Y026712D01*
X034640Y026712D01*
X034640Y026559D02*
X034640Y027019D01*
X034793Y026712D02*
X034947Y026559D01*
X035100Y026559D02*
X035407Y026559D01*
X035254Y026559D02*
X035254Y027019D01*
X035100Y026866D01*
X020154Y019949D02*
X020154Y019642D01*
X019847Y019949D01*
X019770Y019949D01*
X019693Y019872D01*
X019693Y019718D01*
X019770Y019642D01*
X019770Y019488D02*
X019693Y019411D01*
X019693Y019181D01*
X020154Y019181D01*
X020154Y019411D01*
X020077Y019488D01*
X019770Y019488D01*
X012397Y022919D02*
X012090Y022919D01*
X012243Y022919D02*
X012243Y023379D01*
X012090Y023226D01*
X011936Y023303D02*
X011859Y023379D01*
X011706Y023379D01*
X011629Y023303D01*
X011629Y023226D01*
X011706Y023149D01*
X011859Y023149D01*
X011936Y023072D01*
X011936Y022996D01*
X011859Y022919D01*
X011706Y022919D01*
X011629Y022996D01*
X011476Y022996D02*
X011476Y023379D01*
X011169Y023379D02*
X011169Y022996D01*
X011246Y022919D01*
X011399Y022919D01*
X011476Y022996D01*
X011783Y022842D02*
X011783Y023456D01*
X005435Y023501D02*
X005128Y023808D01*
X005052Y023808D01*
X004975Y023732D01*
X004975Y023578D01*
X005052Y023501D01*
X005435Y023501D02*
X005435Y023808D01*
X005435Y023348D02*
X005435Y023041D01*
X004975Y023041D01*
X018300Y025746D02*
X018377Y025669D01*
X018530Y025669D01*
X018607Y025746D01*
X018607Y026129D01*
X018760Y026053D02*
X018837Y026129D01*
X018991Y026129D01*
X019067Y026053D01*
X019221Y026053D02*
X019298Y026129D01*
X019451Y026129D01*
X019528Y026053D01*
X019528Y025976D01*
X019451Y025899D01*
X019528Y025822D01*
X019528Y025746D01*
X019451Y025669D01*
X019298Y025669D01*
X019221Y025746D01*
X019067Y025746D02*
X018991Y025669D01*
X018837Y025669D01*
X018760Y025746D01*
X018837Y025899D02*
X018760Y025976D01*
X018760Y026053D01*
X018837Y025899D02*
X018991Y025899D01*
X019067Y025822D01*
X019067Y025746D01*
X018914Y025592D02*
X018914Y026206D01*
X019374Y025899D02*
X019451Y025899D01*
X018300Y025746D02*
X018300Y026129D01*
X018180Y035639D02*
X017720Y035639D01*
X018180Y035639D02*
X018180Y035946D01*
X018103Y036099D02*
X017796Y036099D01*
X017720Y036176D01*
X017720Y036330D01*
X017796Y036406D01*
X017873Y036560D02*
X017720Y036713D01*
X018180Y036713D01*
X018180Y036560D02*
X018180Y036867D01*
X018103Y036406D02*
X018180Y036330D01*
X018180Y036176D01*
X018103Y036099D01*
X018770Y036176D02*
X018846Y036099D01*
X019153Y036099D01*
X019230Y036176D01*
X019230Y036330D01*
X019153Y036406D01*
X019230Y036560D02*
X018923Y036867D01*
X018846Y036867D01*
X018770Y036790D01*
X018770Y036637D01*
X018846Y036560D01*
X018846Y036406D02*
X018770Y036330D01*
X018770Y036176D01*
X019230Y035946D02*
X019230Y035639D01*
X018770Y035639D01*
X019770Y035639D02*
X020230Y035639D01*
X020230Y035946D01*
X020153Y036099D02*
X019846Y036099D01*
X019770Y036176D01*
X019770Y036330D01*
X019846Y036406D01*
X019846Y036560D02*
X019770Y036637D01*
X019770Y036790D01*
X019846Y036867D01*
X019923Y036867D01*
X020000Y036790D01*
X020077Y036867D01*
X020153Y036867D01*
X020230Y036790D01*
X020230Y036637D01*
X020153Y036560D01*
X020153Y036406D02*
X020230Y036330D01*
X020230Y036176D01*
X020153Y036099D01*
X020000Y036713D02*
X020000Y036790D01*
X019230Y036867D02*
X019230Y036560D01*
X017230Y036790D02*
X016770Y036790D01*
X017000Y036560D01*
X017000Y036867D01*
X017153Y036406D02*
X017230Y036330D01*
X017230Y036176D01*
X017153Y036099D01*
X016846Y036099D01*
X016770Y036176D01*
X016770Y036330D01*
X016846Y036406D01*
X016230Y036380D02*
X016153Y036456D01*
X016230Y036380D02*
X016230Y036226D01*
X016153Y036149D01*
X015846Y036149D01*
X015770Y036226D01*
X015770Y036380D01*
X015846Y036456D01*
X015846Y036610D02*
X015770Y036687D01*
X015770Y036840D01*
X015846Y036917D01*
X015923Y036917D01*
X016000Y036840D01*
X016077Y036917D01*
X016153Y036917D01*
X016230Y036840D01*
X016230Y036687D01*
X016153Y036610D01*
X016000Y036763D02*
X016000Y036840D01*
X015140Y036867D02*
X015140Y036560D01*
X014833Y036867D01*
X014756Y036867D01*
X014680Y036790D01*
X014680Y036637D01*
X014756Y036560D01*
X014756Y036406D02*
X014680Y036330D01*
X014680Y036176D01*
X014756Y036099D01*
X015063Y036099D01*
X015140Y036176D01*
X015140Y036330D01*
X015063Y036406D01*
X015140Y035946D02*
X014680Y035946D01*
X014910Y035946D02*
X014910Y035639D01*
X015140Y035639D02*
X014680Y035639D01*
X014190Y035659D02*
X013730Y035659D01*
X013960Y035659D02*
X013960Y035966D01*
X014113Y036119D02*
X013806Y036119D01*
X013730Y036196D01*
X013730Y036350D01*
X013806Y036426D01*
X013883Y036580D02*
X013730Y036733D01*
X014190Y036733D01*
X014190Y036580D02*
X014190Y036887D01*
X014113Y036426D02*
X014190Y036350D01*
X014190Y036196D01*
X014113Y036119D01*
X014190Y035966D02*
X013730Y035966D01*
X013230Y035792D02*
X013077Y035946D01*
X012770Y035946D01*
X012846Y036099D02*
X013153Y036099D01*
X013230Y036176D01*
X013230Y036330D01*
X013153Y036406D01*
X013153Y036560D02*
X013230Y036637D01*
X013230Y036790D01*
X013153Y036867D01*
X012846Y036867D02*
X012770Y036790D01*
X012770Y036637D01*
X012846Y036560D01*
X013153Y036560D01*
X012846Y036406D02*
X012770Y036330D01*
X012770Y036176D01*
X012846Y036099D01*
X012770Y035639D02*
X013077Y035639D01*
X013230Y035792D01*
X015770Y035689D02*
X016230Y035689D01*
X016000Y035689D02*
X016000Y035996D01*
X015770Y035996D02*
X016230Y035996D01*
X016770Y035946D02*
X017230Y035946D01*
X017000Y035946D02*
X017000Y035639D01*
X017230Y035639D02*
X016770Y035639D01*
X016010Y010328D02*
X015857Y010175D01*
X015857Y010252D02*
X015857Y010021D01*
X016010Y010021D02*
X015550Y010021D01*
X015550Y010252D01*
X015626Y010328D01*
X015780Y010328D01*
X015857Y010252D01*
X016010Y009868D02*
X015550Y009868D01*
X015550Y009561D02*
X016010Y009561D01*
X015857Y009714D01*
X016010Y009868D01*
X015780Y009408D02*
X015857Y009331D01*
X015857Y009101D01*
X016010Y009101D02*
X015550Y009101D01*
X015550Y009331D01*
X015626Y009408D01*
X015780Y009408D01*
X016087Y008947D02*
X016087Y008640D01*
X015857Y008487D02*
X016010Y008333D01*
X015857Y008180D01*
X015550Y008180D01*
X015626Y008026D02*
X015550Y007950D01*
X015550Y007796D01*
X015626Y007719D01*
X015626Y008026D02*
X015703Y008026D01*
X016010Y007719D01*
X016010Y008026D01*
X016010Y007566D02*
X016010Y007259D01*
X016010Y007412D02*
X015550Y007412D01*
X015703Y007259D01*
X015857Y008487D02*
X015550Y008487D01*
D12*
X012766Y006517D02*
X012766Y006281D01*
X012294Y006281D02*
X012294Y006517D01*
X011766Y006517D02*
X011766Y006281D01*
X011294Y006281D02*
X011294Y006517D01*
X010766Y006517D02*
X010766Y006281D01*
X010294Y006281D02*
X010294Y006517D01*
X009766Y006517D02*
X009766Y006281D01*
X009294Y006281D02*
X009294Y006517D01*
X006266Y014781D02*
X006266Y015017D01*
X005794Y015017D02*
X005794Y014781D01*
X018470Y024580D02*
X018507Y024580D01*
X018470Y024580D02*
X018470Y025218D01*
X018507Y025218D01*
X018824Y025218D02*
X019236Y025218D01*
X019553Y025218D02*
X019590Y025218D01*
X019590Y024580D01*
X019553Y024580D01*
X019236Y024580D02*
X019199Y024580D01*
X018861Y024580D02*
X018824Y024580D01*
X021410Y021119D02*
X021910Y021119D01*
X022150Y021119D01*
X022650Y021119D01*
X022150Y021119D02*
X022148Y021098D01*
X022143Y021078D01*
X022134Y021059D01*
X022122Y021042D01*
X022107Y021027D01*
X022090Y021015D01*
X022071Y021006D01*
X022051Y021001D01*
X022030Y020999D01*
X022009Y021001D01*
X021989Y021006D01*
X021970Y021015D01*
X021953Y021027D01*
X021938Y021042D01*
X021926Y021059D01*
X021917Y021078D01*
X021912Y021098D01*
X021910Y021119D01*
X023490Y018909D02*
X023890Y018909D01*
X022650Y017679D02*
X021410Y017679D01*
X024912Y014635D02*
X025148Y014635D01*
X025148Y014163D02*
X024912Y014163D01*
X030640Y017999D02*
X040120Y017999D01*
X040120Y018599D01*
X040550Y018999D02*
X040550Y023299D01*
X040552Y023316D01*
X040556Y023333D01*
X040563Y023349D01*
X040573Y023363D01*
X040586Y023376D01*
X040600Y023386D01*
X040616Y023393D01*
X040633Y023397D01*
X040650Y023399D01*
X041050Y023399D01*
X041950Y023399D02*
X042350Y023399D01*
X042367Y023397D01*
X042384Y023393D01*
X042400Y023386D01*
X042414Y023376D01*
X042427Y023363D01*
X042437Y023349D01*
X042444Y023333D01*
X042448Y023316D01*
X042450Y023299D01*
X042450Y018999D01*
X042448Y018982D01*
X042444Y018965D01*
X042437Y018949D01*
X042427Y018935D01*
X042414Y018922D01*
X042400Y018912D01*
X042384Y018905D01*
X042367Y018901D01*
X042350Y018899D01*
X041950Y018899D01*
X041050Y018899D02*
X040650Y018899D01*
X040633Y018901D01*
X040616Y018905D01*
X040600Y018912D01*
X040586Y018922D01*
X040573Y018935D01*
X040563Y018949D01*
X040556Y018965D01*
X040552Y018982D01*
X040550Y018999D01*
X040120Y019739D02*
X040120Y020199D01*
X039410Y020199D01*
X041250Y020899D02*
X041500Y020899D01*
X041750Y020899D01*
X041750Y021049D02*
X041750Y021249D01*
X041250Y021249D01*
X041250Y021049D01*
X041750Y021049D01*
X041750Y021399D02*
X041500Y021399D01*
X041250Y021399D01*
X042680Y024129D02*
X044380Y024129D01*
X044403Y024131D01*
X044426Y024136D01*
X044448Y024145D01*
X044468Y024158D01*
X044486Y024173D01*
X044501Y024191D01*
X044514Y024211D01*
X044523Y024233D01*
X044528Y024256D01*
X044530Y024279D01*
X044530Y024699D01*
X044530Y025099D01*
X044530Y025519D01*
X044528Y025542D01*
X044523Y025565D01*
X044514Y025587D01*
X044501Y025607D01*
X044486Y025625D01*
X044468Y025640D01*
X044448Y025653D01*
X044426Y025662D01*
X044403Y025667D01*
X044380Y025669D01*
X042680Y025669D01*
X042657Y025667D01*
X042634Y025662D01*
X042612Y025653D01*
X042592Y025640D01*
X042574Y025625D01*
X042559Y025607D01*
X042546Y025587D01*
X042537Y025565D01*
X042532Y025542D01*
X042530Y025519D01*
X042530Y024279D01*
X042532Y024256D01*
X042537Y024233D01*
X042546Y024211D01*
X042559Y024191D01*
X042574Y024173D01*
X042592Y024158D01*
X042612Y024145D01*
X042634Y024136D01*
X042657Y024131D01*
X042680Y024129D01*
X044530Y024699D02*
X044503Y024701D01*
X044476Y024706D01*
X044450Y024716D01*
X044426Y024728D01*
X044404Y024744D01*
X044384Y024762D01*
X044367Y024784D01*
X044352Y024807D01*
X044342Y024832D01*
X044334Y024858D01*
X044330Y024885D01*
X044330Y024913D01*
X044334Y024940D01*
X044342Y024966D01*
X044352Y024991D01*
X044367Y025014D01*
X044384Y025036D01*
X044404Y025054D01*
X044426Y025070D01*
X044450Y025082D01*
X044476Y025092D01*
X044503Y025097D01*
X044530Y025099D01*
X045879Y025439D02*
X045986Y025332D01*
X045879Y025439D02*
X045879Y025652D01*
X045986Y025759D01*
X046093Y025759D01*
X046520Y025332D01*
X046520Y025759D01*
X046413Y025977D02*
X045986Y026404D01*
X046413Y026404D01*
X046520Y026297D01*
X046520Y026083D01*
X046413Y025977D01*
X045986Y025977D01*
X045879Y026083D01*
X045879Y026297D01*
X045986Y026404D01*
X046093Y026621D02*
X045879Y026835D01*
X046520Y026835D01*
X046520Y027048D02*
X046520Y026621D01*
X046413Y027266D02*
X046520Y027373D01*
X046520Y027586D01*
X046413Y027693D01*
X046200Y027693D01*
X046093Y027586D01*
X046093Y027479D01*
X046200Y027266D01*
X045879Y027266D01*
X045879Y027693D01*
X049243Y027156D02*
X049350Y027263D01*
X049670Y027263D01*
X049670Y027050D02*
X049350Y027050D01*
X049243Y027156D01*
X049350Y027050D02*
X049243Y026943D01*
X049243Y026836D01*
X049670Y026836D01*
X049563Y026619D02*
X049350Y026619D01*
X049243Y026512D01*
X049243Y026298D01*
X049350Y026192D01*
X049563Y026192D01*
X049670Y026298D01*
X049670Y026512D01*
X049563Y026619D01*
X049670Y025974D02*
X049670Y025654D01*
X049563Y025547D01*
X049350Y025547D01*
X049243Y025654D01*
X049243Y025974D01*
X049563Y025331D02*
X049670Y025331D01*
X049670Y025225D01*
X049563Y025225D01*
X049563Y025331D01*
X049456Y025007D02*
X049456Y024580D01*
X049350Y024580D02*
X049243Y024687D01*
X049243Y024900D01*
X049350Y025007D01*
X049456Y025007D01*
X049670Y024900D02*
X049670Y024687D01*
X049563Y024580D01*
X049350Y024580D01*
X049350Y024363D02*
X049670Y024363D01*
X049670Y024149D02*
X049350Y024149D01*
X049243Y024256D01*
X049350Y024363D01*
X049350Y024149D02*
X049243Y024042D01*
X049243Y023936D01*
X049670Y023936D01*
X049563Y023718D02*
X049670Y023611D01*
X049670Y023398D01*
X049563Y023291D01*
X049136Y023291D01*
X049029Y023398D01*
X049029Y023611D01*
X049136Y023718D01*
X049350Y023718D01*
X049456Y023611D01*
X049243Y023611D01*
X049243Y023398D01*
X049456Y023398D01*
X049456Y023611D01*
X049350Y023074D02*
X049670Y023074D01*
X049350Y023074D02*
X049243Y022967D01*
X049243Y022646D01*
X049670Y022646D01*
X049563Y022429D02*
X049350Y022429D01*
X049243Y022322D01*
X049243Y022109D01*
X049350Y022002D01*
X049563Y022002D01*
X049670Y022109D01*
X049670Y022322D01*
X049563Y022429D01*
X049563Y021784D02*
X049456Y021678D01*
X049456Y021464D01*
X049350Y021357D01*
X049243Y021464D01*
X049243Y021784D01*
X049563Y021784D02*
X049670Y021678D01*
X049670Y021357D01*
X049670Y021141D02*
X049670Y020928D01*
X049670Y021034D02*
X049029Y021034D01*
X049029Y020928D01*
X049029Y020605D02*
X049670Y020605D01*
X049670Y020498D02*
X049670Y020712D01*
X049029Y020605D02*
X049029Y020498D01*
X049029Y020175D02*
X048923Y020175D01*
X049243Y020175D02*
X049670Y020175D01*
X049670Y020068D02*
X049670Y020282D01*
X049243Y020175D02*
X049243Y020068D01*
X049243Y019851D02*
X049563Y019851D01*
X049670Y019744D01*
X049563Y019637D01*
X049670Y019530D01*
X049563Y019424D01*
X049243Y019424D01*
X049563Y019208D02*
X049563Y019101D01*
X049670Y019101D01*
X049670Y019208D01*
X049563Y019208D01*
X049563Y018884D02*
X049456Y018777D01*
X049456Y018564D01*
X049350Y018457D01*
X049243Y018564D01*
X049243Y018884D01*
X049563Y018884D02*
X049670Y018777D01*
X049670Y018457D01*
X049670Y018239D02*
X049350Y018239D01*
X049243Y018133D01*
X049243Y017919D01*
X049456Y017919D02*
X049456Y018239D01*
X049670Y018239D02*
X049670Y017919D01*
X049563Y017812D01*
X049456Y017919D01*
X049350Y017595D02*
X049670Y017595D01*
X049670Y017381D02*
X049350Y017381D01*
X049243Y017488D01*
X049350Y017595D01*
X049350Y017381D02*
X049243Y017275D01*
X049243Y017168D01*
X049670Y017168D01*
X049563Y016950D02*
X049350Y016950D01*
X049243Y016844D01*
X049243Y016630D01*
X049350Y016523D01*
X049563Y016523D01*
X049670Y016630D01*
X049670Y016844D01*
X049563Y016950D01*
X049670Y016306D02*
X049350Y016306D01*
X049243Y016199D01*
X049243Y015985D01*
X049350Y015879D01*
X049243Y015663D02*
X049243Y015449D01*
X049136Y015556D02*
X049563Y015556D01*
X049670Y015663D01*
X049670Y015879D02*
X049029Y015879D01*
X048620Y016094D02*
X047979Y016094D01*
X047979Y015876D02*
X047979Y015449D01*
X047979Y015663D02*
X048620Y015663D01*
X048300Y016094D02*
X048193Y016200D01*
X048193Y016414D01*
X048300Y016521D01*
X048620Y016521D01*
X048513Y016738D02*
X048620Y016845D01*
X048620Y017058D01*
X048513Y017165D01*
X048300Y017165D01*
X048193Y017058D01*
X048193Y016845D01*
X048300Y016738D01*
X048513Y016738D01*
X048620Y017383D02*
X048193Y017383D01*
X048193Y017489D01*
X048300Y017596D01*
X048193Y017703D01*
X048300Y017810D01*
X048620Y017810D01*
X048620Y017596D02*
X048300Y017596D01*
X047570Y017058D02*
X047463Y017165D01*
X047036Y017165D01*
X046929Y017058D01*
X046929Y016738D01*
X047570Y016738D01*
X047570Y017058D01*
X047463Y016521D02*
X047570Y016414D01*
X047570Y016200D01*
X047463Y016094D01*
X047036Y016094D01*
X046929Y016200D01*
X046929Y016414D01*
X047036Y016521D01*
X046520Y016414D02*
X046413Y016521D01*
X046200Y016521D01*
X046093Y016414D01*
X046093Y016200D01*
X046200Y016094D01*
X046413Y016094D01*
X046520Y016200D01*
X046520Y016414D01*
X046520Y016738D02*
X046093Y016738D01*
X046306Y016738D02*
X046093Y016952D01*
X046093Y017058D01*
X046093Y017275D02*
X046093Y017382D01*
X046200Y017489D01*
X046093Y017596D01*
X046200Y017702D01*
X046520Y017702D01*
X046520Y017489D02*
X046200Y017489D01*
X046093Y017275D02*
X046520Y017275D01*
X046413Y017920D02*
X046520Y018027D01*
X046520Y018347D01*
X046093Y018347D01*
X045879Y018564D02*
X045879Y018671D01*
X046520Y018671D01*
X046520Y018564D02*
X046520Y018778D01*
X046413Y018994D02*
X046520Y019101D01*
X046520Y019421D01*
X046200Y019421D01*
X046093Y019314D01*
X046093Y019101D01*
X046306Y019101D02*
X046306Y019421D01*
X046306Y019101D02*
X046413Y018994D01*
X046823Y018779D02*
X046929Y018779D01*
X047143Y018779D02*
X047143Y018672D01*
X047143Y018779D02*
X047570Y018779D01*
X047570Y018885D02*
X047570Y018672D01*
X047463Y018454D02*
X047570Y018347D01*
X047570Y018027D01*
X046929Y018027D01*
X046929Y018347D01*
X047036Y018454D01*
X047463Y018454D01*
X047570Y019101D02*
X047570Y019422D01*
X047463Y019528D01*
X047356Y019422D01*
X047356Y019208D01*
X047250Y019101D01*
X047143Y019208D01*
X047143Y019528D01*
X047143Y019746D02*
X047143Y020066D01*
X047250Y020173D01*
X047463Y020173D01*
X047570Y020066D01*
X047570Y019746D01*
X047784Y019746D02*
X047143Y019746D01*
X046520Y020283D02*
X046520Y020710D01*
X046520Y020928D02*
X046520Y021141D01*
X046520Y021034D02*
X045879Y021034D01*
X045879Y020928D01*
X045879Y020710D02*
X045879Y020283D01*
X046520Y020283D01*
X046200Y020283D02*
X046200Y020497D01*
X046929Y020497D02*
X047570Y020497D01*
X047570Y020391D02*
X047570Y020604D01*
X047463Y020820D02*
X047356Y020927D01*
X047356Y021247D01*
X047250Y021247D02*
X047570Y021247D01*
X047570Y020927D01*
X047463Y020820D01*
X047143Y020927D02*
X047143Y021141D01*
X047250Y021247D01*
X047143Y021465D02*
X047463Y021465D01*
X047570Y021572D01*
X047570Y021892D01*
X047677Y021892D02*
X047784Y021785D01*
X047784Y021678D01*
X047979Y021572D02*
X048620Y021572D01*
X048406Y021786D01*
X048620Y021999D01*
X047979Y021999D01*
X048193Y022217D02*
X048193Y022324D01*
X048620Y022324D01*
X048620Y022430D02*
X048620Y022217D01*
X048620Y022646D02*
X048620Y022860D01*
X048620Y022753D02*
X047979Y022753D01*
X047979Y022646D01*
X047979Y022324D02*
X047873Y022324D01*
X047677Y021892D02*
X047143Y021892D01*
X046520Y021678D02*
X046520Y021464D01*
X046413Y021357D01*
X046200Y021357D01*
X046093Y021464D01*
X046093Y021678D01*
X046200Y021784D01*
X046306Y021784D01*
X046306Y021357D01*
X046200Y022002D02*
X046413Y022002D01*
X046520Y022109D01*
X046520Y022429D01*
X046413Y022753D02*
X046520Y022860D01*
X046413Y022753D02*
X045986Y022753D01*
X046093Y022646D02*
X046093Y022860D01*
X046093Y023076D02*
X046520Y023076D01*
X046306Y023076D02*
X046093Y023290D01*
X046093Y023396D01*
X046093Y023613D02*
X046093Y023720D01*
X046520Y023720D01*
X046520Y023613D02*
X046520Y023827D01*
X046413Y024043D02*
X046520Y024150D01*
X046520Y024470D01*
X046093Y024470D02*
X046093Y024150D01*
X046200Y024043D01*
X046413Y024043D01*
X045879Y023720D02*
X045773Y023720D01*
X046929Y023505D02*
X047570Y023505D01*
X047570Y023718D02*
X047570Y023291D01*
X047979Y023183D02*
X048620Y023183D01*
X048620Y023076D02*
X048620Y023290D01*
X048620Y023506D02*
X048620Y023826D01*
X048513Y023933D01*
X048406Y023826D01*
X048406Y023613D01*
X048300Y023506D01*
X048193Y023613D01*
X048193Y023933D01*
X048300Y024150D02*
X048513Y024150D01*
X048620Y024257D01*
X048620Y024471D01*
X048513Y024577D01*
X048300Y024577D01*
X048193Y024471D01*
X048193Y024257D01*
X048300Y024150D01*
X048193Y024795D02*
X048193Y025115D01*
X048300Y025222D01*
X048620Y025222D01*
X048620Y024795D02*
X048193Y024795D01*
X046929Y023505D02*
X047143Y023291D01*
X047143Y023074D02*
X047143Y022967D01*
X047356Y022754D01*
X047143Y022754D02*
X047570Y022754D01*
X047979Y023076D02*
X047979Y023183D01*
X046093Y022429D02*
X046093Y022109D01*
X046200Y022002D01*
X046929Y020497D02*
X046929Y020391D01*
X047979Y020388D02*
X047979Y019961D01*
X048620Y019961D01*
X048620Y020388D01*
X048620Y020605D02*
X048620Y020712D01*
X048513Y020712D01*
X048513Y020605D01*
X048620Y020605D01*
X048300Y020174D02*
X048300Y019961D01*
X048193Y019099D02*
X048193Y018779D01*
X048300Y018672D01*
X048406Y018779D01*
X048406Y018992D01*
X048513Y019099D01*
X048620Y018992D01*
X048620Y018672D01*
X048620Y018454D02*
X048620Y018134D01*
X048513Y018027D01*
X048406Y018134D01*
X048406Y018454D01*
X048300Y018454D02*
X048620Y018454D01*
X048300Y018454D02*
X048193Y018347D01*
X048193Y018134D01*
X046413Y017920D02*
X046093Y017920D01*
X045879Y015876D02*
X045879Y015449D01*
X046520Y015449D01*
X046200Y015449D02*
X046200Y015663D01*
X046929Y015449D02*
X047570Y015449D01*
X047570Y015876D01*
X039058Y017403D02*
X038822Y017403D01*
X038822Y017875D02*
X039058Y017875D01*
X035521Y021326D02*
X035606Y021411D01*
X035662Y021467D02*
X035740Y021545D01*
X035797Y021602D02*
X035882Y021687D01*
X035938Y021743D02*
X036023Y021828D01*
X036080Y021885D02*
X036157Y021962D01*
X036214Y022019D02*
X036299Y022104D01*
X036355Y022160D02*
X036440Y022245D01*
X036497Y022302D02*
X036575Y022379D01*
X036631Y022436D02*
X036716Y022521D01*
X036772Y022577D02*
X036857Y022662D01*
X036914Y022719D02*
X036992Y022797D01*
X036970Y022775D02*
X036970Y023483D01*
X036992Y023461D02*
X036914Y023539D01*
X036857Y023596D02*
X036772Y023681D01*
X036716Y023737D02*
X036631Y023822D01*
X036575Y023879D02*
X036497Y023956D01*
X036440Y024013D02*
X036355Y024098D01*
X036299Y024154D02*
X036214Y024239D01*
X036157Y024296D02*
X036080Y024374D01*
X036023Y024430D02*
X035938Y024515D01*
X035882Y024572D02*
X035797Y024656D01*
X035740Y024713D02*
X035662Y024791D01*
X035606Y024847D02*
X035521Y024932D01*
X035330Y025123D02*
X037324Y023129D01*
X035330Y021135D01*
X033336Y023129D01*
X035330Y025123D01*
X035139Y024932D02*
X035054Y024847D01*
X034998Y024791D02*
X034920Y024713D01*
X034863Y024656D02*
X034778Y024572D01*
X034722Y024515D02*
X034637Y024430D01*
X034580Y024374D02*
X034503Y024296D01*
X034446Y024239D02*
X034361Y024154D01*
X034305Y024098D02*
X034220Y024013D01*
X034163Y023956D02*
X034085Y023879D01*
X034029Y023822D02*
X033944Y023737D01*
X033888Y023681D02*
X033803Y023596D01*
X033746Y023539D02*
X033668Y023461D01*
X033612Y023405D02*
X033527Y023320D01*
X033527Y022938D02*
X033612Y022853D01*
X033668Y022797D02*
X033746Y022719D01*
X033803Y022662D02*
X033888Y022577D01*
X033944Y022521D02*
X034029Y022436D01*
X034085Y022379D02*
X034163Y022302D01*
X034220Y022245D02*
X034305Y022160D01*
X034361Y022104D02*
X034446Y022019D01*
X034503Y021962D02*
X034580Y021885D01*
X034637Y021828D02*
X034722Y021743D01*
X034778Y021687D02*
X034863Y021602D01*
X034920Y021545D02*
X034998Y021467D01*
X035054Y021411D02*
X035139Y021326D01*
X037048Y022853D02*
X037133Y022938D01*
X037133Y023320D02*
X037048Y023405D01*
X031350Y020319D02*
X031290Y020199D01*
X031350Y020199D02*
X030640Y020199D01*
X030640Y019739D01*
X030640Y018599D02*
X030640Y017999D01*
X035024Y028143D02*
X035024Y033497D01*
X035182Y033655D01*
X040536Y033655D01*
X040536Y028143D01*
X035024Y028143D01*
X035245Y033214D02*
X035247Y033243D01*
X035253Y033272D01*
X035262Y033300D01*
X035276Y033326D01*
X035292Y033350D01*
X035312Y033372D01*
X035335Y033391D01*
X035359Y033407D01*
X035386Y033419D01*
X035414Y033428D01*
X035443Y033433D01*
X035472Y033434D01*
X035502Y033431D01*
X035530Y033424D01*
X035558Y033414D01*
X035583Y033399D01*
X035607Y033382D01*
X035628Y033362D01*
X035646Y033339D01*
X035661Y033313D01*
X035673Y033286D01*
X035681Y033258D01*
X035685Y033229D01*
X035685Y033199D01*
X035681Y033170D01*
X035673Y033142D01*
X035661Y033115D01*
X035646Y033089D01*
X035628Y033066D01*
X035607Y033046D01*
X035583Y033029D01*
X035558Y033014D01*
X035530Y033004D01*
X035502Y032997D01*
X035472Y032994D01*
X035443Y032995D01*
X035414Y033000D01*
X035386Y033009D01*
X035359Y033021D01*
X035335Y033037D01*
X035312Y033056D01*
X035292Y033078D01*
X035276Y033102D01*
X035262Y033128D01*
X035253Y033156D01*
X035247Y033185D01*
X035245Y033214D01*
D13*
X012075Y031269D03*
X011925Y031469D03*
X011575Y032519D03*
X011575Y032569D03*
X011575Y032619D03*
X011575Y032669D03*
X011575Y032719D03*
X011575Y032769D03*
X011575Y032819D03*
X011625Y032919D03*
X011625Y032969D03*
X011625Y033019D03*
X011625Y033069D03*
X011625Y033119D03*
X011625Y033169D03*
X011625Y033219D03*
X010825Y033169D03*
X010825Y033119D03*
X010825Y033069D03*
X010825Y033019D03*
X010775Y032969D03*
X010775Y032919D03*
X010775Y032869D03*
X010775Y032819D03*
X010775Y032769D03*
X010775Y032719D03*
X010775Y032669D03*
X010775Y032619D03*
X010725Y032519D03*
X010725Y032469D03*
X010725Y032419D03*
X010725Y032369D03*
X008175Y033019D03*
X008175Y033069D03*
X008125Y032969D03*
X008125Y032919D03*
X008075Y032869D03*
X008025Y032769D03*
X007925Y032619D03*
X007925Y032569D03*
X007875Y032519D03*
X007825Y032419D03*
X007775Y032369D03*
X006425Y033069D03*
X006425Y033119D03*
X006075Y033019D03*
X005125Y033119D03*
X004775Y033019D03*
X004775Y032969D03*
X005025Y032519D03*
X004075Y032869D03*
X004075Y032919D03*
X004075Y032969D03*
X004075Y033019D03*
X002825Y032669D03*
X002425Y032819D03*
X001575Y033119D03*
X001525Y033069D03*
X001525Y033019D03*
X001525Y032969D03*
X001525Y032919D03*
X001525Y032869D03*
X001525Y032819D03*
X001475Y032669D03*
X001475Y032619D03*
X001475Y032569D03*
D14*
X010500Y031319D03*
D15*
X011600Y031319D03*
X011700Y031369D03*
X011800Y031419D03*
X012150Y031319D03*
X012250Y031369D03*
X012350Y031419D03*
X012450Y031469D03*
X011600Y032869D03*
X011650Y033269D03*
X010750Y032569D03*
X008050Y032819D03*
X007850Y032469D03*
X006350Y032569D03*
X006350Y032619D03*
X006300Y032519D03*
X006400Y033019D03*
X006100Y033069D03*
X004750Y032919D03*
X004750Y032869D03*
X004750Y032819D03*
X004750Y032769D03*
X004750Y032719D03*
X004750Y032669D03*
X002850Y032719D03*
X002850Y032769D03*
X002850Y032819D03*
X001500Y032519D03*
D16*
X009475Y031369D03*
D17*
X008425Y031419D03*
D18*
X007400Y031469D03*
D19*
X007550Y031869D03*
X007550Y031919D03*
X007550Y031969D03*
X007550Y032019D03*
X007550Y032069D03*
X007550Y032119D03*
X007550Y032169D03*
X007150Y032119D03*
X007150Y032069D03*
X007100Y031969D03*
X007100Y031819D03*
X006650Y031919D03*
X006250Y032169D03*
X006250Y032219D03*
X005700Y032219D03*
X005650Y032019D03*
X005350Y031869D03*
X005350Y031819D03*
X005350Y031769D03*
X005350Y031719D03*
X005100Y032019D03*
X005100Y032069D03*
X004800Y031919D03*
X004800Y031869D03*
X004800Y031819D03*
X004800Y031769D03*
X004800Y031719D03*
X004550Y032019D03*
X004550Y032069D03*
X004550Y032119D03*
X004250Y031919D03*
X004250Y031869D03*
X004250Y031819D03*
X004250Y031769D03*
X004000Y032019D03*
X004000Y032069D03*
X004000Y032119D03*
X004000Y032169D03*
X004000Y032219D03*
X003700Y031919D03*
X003700Y031869D03*
X003700Y031819D03*
X003450Y032069D03*
X003450Y032119D03*
X003450Y032169D03*
X003450Y032219D03*
X003150Y031919D03*
X002900Y032119D03*
X002900Y032169D03*
X002900Y032219D03*
X002350Y032219D03*
X002350Y032169D03*
X002550Y031719D03*
X002000Y031719D03*
X002000Y031769D03*
X002000Y031819D03*
X001750Y032019D03*
X001450Y031869D03*
X001450Y031819D03*
X001450Y031769D03*
X001450Y031719D03*
X002400Y032619D03*
X002400Y032669D03*
X002250Y033119D03*
X002800Y033069D03*
X005550Y033119D03*
X006300Y032819D03*
X005900Y031769D03*
X005900Y031719D03*
X008600Y032069D03*
X009050Y031969D03*
X009050Y031919D03*
X009350Y031869D03*
X009350Y031819D03*
X009400Y031969D03*
X009400Y032119D03*
X009400Y032169D03*
X009300Y032919D03*
X010450Y032169D03*
X010450Y031919D03*
X010450Y031869D03*
X010450Y031819D03*
X010850Y031819D03*
X010900Y031969D03*
X010900Y032019D03*
X010900Y032069D03*
X010900Y032119D03*
X011250Y032169D03*
X011250Y031969D03*
X011200Y031919D03*
X011200Y031869D03*
X011200Y031819D03*
X011600Y031819D03*
X011600Y032019D03*
X011650Y032069D03*
X011650Y032119D03*
X012000Y031919D03*
X012050Y031969D03*
X012050Y032719D03*
X012100Y033119D03*
D20*
X012075Y032119D03*
X012075Y032069D03*
X012075Y032019D03*
X011625Y031969D03*
X011625Y031919D03*
X011625Y031869D03*
X011225Y032019D03*
X011225Y032069D03*
X011225Y032119D03*
X010875Y031919D03*
X010875Y031869D03*
X010475Y031969D03*
X010475Y032019D03*
X010475Y032069D03*
X010475Y032119D03*
X009375Y032069D03*
X009375Y032019D03*
X009375Y031919D03*
X009075Y032019D03*
X009075Y032069D03*
X009075Y032119D03*
X009075Y032169D03*
X009025Y031869D03*
X009025Y031819D03*
X008625Y031819D03*
X008625Y031869D03*
X007525Y031819D03*
X007125Y031869D03*
X007125Y031919D03*
X006225Y032019D03*
X006225Y032069D03*
X006225Y032119D03*
X005925Y031919D03*
X005925Y031869D03*
X005925Y031819D03*
X005675Y032069D03*
X005675Y032119D03*
X005675Y032169D03*
X005725Y032519D03*
X005725Y032569D03*
X005725Y032619D03*
X006125Y033119D03*
X006375Y032969D03*
X006375Y032919D03*
X006325Y032869D03*
X005375Y031919D03*
X005125Y032119D03*
X005125Y032169D03*
X005125Y032219D03*
X004575Y032219D03*
X004575Y032169D03*
X004225Y031719D03*
X003675Y031719D03*
X003675Y031769D03*
X003425Y032019D03*
X003125Y031869D03*
X003125Y031819D03*
X003125Y031769D03*
X003125Y031719D03*
X002875Y032019D03*
X002875Y032069D03*
X002575Y031919D03*
X002575Y031869D03*
X002575Y031819D03*
X002575Y031769D03*
X002325Y032019D03*
X002325Y032069D03*
X002325Y032119D03*
X002025Y031919D03*
X002025Y031869D03*
X001775Y032069D03*
X001775Y032119D03*
X001775Y032169D03*
X001775Y032219D03*
X001475Y031919D03*
X002225Y033069D03*
X002825Y033019D03*
X002825Y032969D03*
X002825Y032919D03*
X002825Y032869D03*
D21*
X009625Y032219D03*
X009575Y031769D03*
X009575Y031719D03*
D22*
X008650Y032369D03*
X008600Y032569D03*
X008550Y032769D03*
X008500Y032969D03*
X008400Y033219D03*
X008400Y033269D03*
X007400Y033169D03*
X007250Y032669D03*
X007300Y032519D03*
X007300Y032469D03*
X007350Y032369D03*
X006700Y032169D03*
X006700Y031969D03*
X006650Y031819D03*
X005600Y032869D03*
X005600Y032919D03*
X002000Y032769D03*
X002000Y032719D03*
X011100Y033069D03*
X011100Y033119D03*
X011150Y032969D03*
X011150Y032919D03*
X011200Y032819D03*
X011250Y032669D03*
X011300Y032519D03*
X012000Y031819D03*
X012500Y031819D03*
X012550Y032019D03*
X012550Y032069D03*
X012550Y032119D03*
D23*
X012250Y031919D03*
X010250Y031969D03*
X010250Y032019D03*
X009600Y032069D03*
X008850Y032069D03*
X008850Y032019D03*
X007800Y032119D03*
X007800Y032169D03*
X007750Y031819D03*
X006100Y032519D03*
X006100Y032969D03*
X005150Y033019D03*
X005150Y033069D03*
X005100Y032869D03*
X005100Y032819D03*
X005100Y032769D03*
X005100Y032719D03*
X005100Y032669D03*
X005100Y032619D03*
X005050Y032569D03*
X004400Y032769D03*
X004400Y032819D03*
X004400Y032869D03*
X004450Y033069D03*
X004450Y033119D03*
X002850Y032619D03*
X002850Y032569D03*
X002850Y032519D03*
X002450Y032869D03*
X001500Y032769D03*
X001500Y032719D03*
D24*
X002050Y032919D03*
X002050Y032969D03*
X002100Y033019D03*
X004200Y032619D03*
X004200Y032569D03*
X004200Y032519D03*
X005600Y032669D03*
X005600Y032769D03*
X008150Y032169D03*
X008150Y032119D03*
X008150Y032069D03*
X008100Y031969D03*
X008100Y031919D03*
X008100Y031869D03*
X008100Y031819D03*
X008400Y033119D03*
X008400Y033169D03*
X009900Y031969D03*
X009900Y031919D03*
X009900Y031869D03*
X009900Y031819D03*
X011400Y032419D03*
X011400Y032469D03*
X011000Y033219D03*
X011000Y033269D03*
X012550Y032819D03*
D25*
X012625Y032769D03*
X012625Y032719D03*
X012625Y032669D03*
X012625Y032619D03*
X012625Y032569D03*
X012625Y032519D03*
X012525Y031969D03*
X012525Y031919D03*
X012525Y031869D03*
X012075Y032169D03*
X011975Y031869D03*
X011625Y032169D03*
X012025Y032519D03*
X012025Y032569D03*
X012025Y032619D03*
X012025Y032669D03*
X012075Y032769D03*
X012075Y032819D03*
X012075Y032869D03*
X012075Y032919D03*
X012075Y032969D03*
X012075Y033019D03*
X012075Y033069D03*
X012125Y033169D03*
X011225Y032769D03*
X011225Y032719D03*
X011275Y032619D03*
X011275Y032569D03*
X011175Y032869D03*
X011125Y033019D03*
X011075Y033169D03*
X010375Y033169D03*
X010375Y033119D03*
X010375Y033069D03*
X010325Y033019D03*
X010325Y032969D03*
X010325Y032919D03*
X010325Y032869D03*
X010325Y032819D03*
X010325Y032769D03*
X010325Y032719D03*
X010325Y032669D03*
X010325Y032619D03*
X010275Y032569D03*
X010275Y032519D03*
X010275Y032469D03*
X010275Y032419D03*
X010275Y032369D03*
X010875Y032169D03*
X010375Y033219D03*
X010375Y033269D03*
X009375Y033169D03*
X009325Y033119D03*
X009325Y033069D03*
X009325Y033019D03*
X009325Y032969D03*
X009275Y032869D03*
X009275Y032819D03*
X009275Y032769D03*
X009275Y032719D03*
X009275Y032669D03*
X009275Y032619D03*
X009275Y032569D03*
X009275Y032519D03*
X008625Y032519D03*
X008625Y032469D03*
X008625Y032419D03*
X008575Y032619D03*
X008525Y032819D03*
X008525Y032869D03*
X008525Y032919D03*
X008475Y033019D03*
X008475Y033069D03*
X007425Y033119D03*
X007375Y033069D03*
X007375Y033019D03*
X007375Y032969D03*
X007375Y032919D03*
X007225Y032769D03*
X007225Y032719D03*
X007275Y032619D03*
X007275Y032569D03*
X007325Y032419D03*
X007125Y032169D03*
X007125Y032019D03*
X006675Y032019D03*
X006675Y032069D03*
X006675Y032119D03*
X006625Y031869D03*
X006725Y032369D03*
X006725Y032419D03*
X006725Y032469D03*
X006725Y032519D03*
X006725Y032569D03*
X006775Y032619D03*
X006775Y032669D03*
X006775Y032719D03*
X006775Y032769D03*
X006775Y032919D03*
X006775Y032969D03*
X006825Y033019D03*
X006825Y033069D03*
X006825Y033119D03*
X006825Y033169D03*
X006275Y032769D03*
X006275Y032719D03*
X006275Y032669D03*
X005575Y032969D03*
X005575Y033019D03*
X005575Y033069D03*
X003575Y032619D03*
X003575Y032569D03*
X003575Y032519D03*
X002825Y033119D03*
X002375Y032569D03*
X002375Y032519D03*
X001975Y032669D03*
X008575Y032019D03*
X008575Y031969D03*
X008575Y031919D03*
X008625Y032119D03*
X008625Y032169D03*
D26*
X008125Y032019D03*
X009925Y032069D03*
X009925Y032119D03*
X012575Y032869D03*
X005625Y032719D03*
D27*
X003500Y032969D03*
X003500Y033019D03*
X003500Y033069D03*
X003500Y033119D03*
X003450Y032819D03*
X003450Y032769D03*
X003450Y032719D03*
X003450Y032669D03*
X009900Y032019D03*
X009950Y032169D03*
D28*
X011375Y032369D03*
X012525Y032169D03*
X005625Y032819D03*
X004225Y032719D03*
X004175Y032669D03*
X002025Y032819D03*
X002025Y032869D03*
D29*
X003475Y032869D03*
X003475Y032919D03*
X009525Y032369D03*
D30*
X009475Y032419D03*
X009475Y032469D03*
X009575Y033219D03*
X012375Y032369D03*
D31*
X004000Y033169D03*
X004000Y033219D03*
X004000Y033269D03*
X003900Y032469D03*
X003900Y032419D03*
D32*
X007050Y032819D03*
X007100Y033219D03*
X012350Y032419D03*
D33*
X012325Y032469D03*
X007075Y032869D03*
D34*
X007075Y033269D03*
X008325Y032719D03*
X008325Y032669D03*
X012425Y033219D03*
D35*
X009600Y033269D03*
D36*
X012450Y033269D03*
D37*
X013375Y032551D02*
X013375Y032451D01*
X013450Y032451D01*
X013425Y032501D01*
X013425Y032526D01*
X013450Y032551D01*
X013500Y032551D01*
X013525Y032526D01*
X013525Y032476D01*
X013500Y032451D01*
X013450Y032354D02*
X013450Y032304D01*
X013525Y032304D02*
X013375Y032304D01*
X013375Y032404D01*
X013535Y031614D02*
X013535Y031522D01*
X013553Y031504D01*
X013590Y031504D01*
X013608Y031522D01*
X013608Y031614D01*
X013645Y031596D02*
X013664Y031614D01*
X013701Y031614D01*
X013719Y031596D01*
X013701Y031559D02*
X013664Y031559D01*
X013645Y031577D01*
X013645Y031596D01*
X013682Y031632D02*
X013682Y031486D01*
X013664Y031504D02*
X013701Y031504D01*
X013719Y031522D01*
X013719Y031541D01*
X013701Y031559D01*
X013756Y031577D02*
X013793Y031614D01*
X013793Y031504D01*
X013829Y031504D02*
X013756Y031504D01*
X013664Y031504D02*
X013645Y031522D01*
X013866Y031504D02*
X013940Y031577D01*
X013940Y031596D01*
X013922Y031614D01*
X013885Y031614D01*
X013866Y031596D01*
X013866Y031504D02*
X013940Y031504D01*
X015035Y031522D02*
X015053Y031504D01*
X015090Y031504D01*
X015108Y031522D01*
X015108Y031614D01*
X015145Y031596D02*
X015164Y031614D01*
X015201Y031614D01*
X015219Y031596D01*
X015201Y031559D02*
X015164Y031559D01*
X015145Y031577D01*
X015145Y031596D01*
X015182Y031632D02*
X015182Y031486D01*
X015164Y031504D02*
X015201Y031504D01*
X015219Y031522D01*
X015219Y031541D01*
X015201Y031559D01*
X015256Y031577D02*
X015293Y031614D01*
X015293Y031504D01*
X015329Y031504D02*
X015256Y031504D01*
X015164Y031504D02*
X015145Y031522D01*
X015035Y031522D02*
X015035Y031614D01*
X015366Y031596D02*
X015385Y031614D01*
X015422Y031614D01*
X015440Y031596D01*
X015366Y031522D01*
X015385Y031504D01*
X015422Y031504D01*
X015440Y031522D01*
X015440Y031596D01*
X015366Y031596D02*
X015366Y031522D01*
X015025Y032304D02*
X014875Y032304D01*
X014875Y032404D01*
X014950Y032451D02*
X014950Y032551D01*
X015025Y032526D02*
X014875Y032526D01*
X014950Y032451D01*
X014950Y032354D02*
X014950Y032304D01*
X016375Y032304D02*
X016375Y032404D01*
X016400Y032451D02*
X016375Y032476D01*
X016375Y032526D01*
X016400Y032551D01*
X016425Y032551D01*
X016450Y032526D01*
X016475Y032551D01*
X016500Y032551D01*
X016525Y032526D01*
X016525Y032476D01*
X016500Y032451D01*
X016450Y032501D02*
X016450Y032526D01*
X016450Y032354D02*
X016450Y032304D01*
X016525Y032304D02*
X016375Y032304D01*
X016535Y031614D02*
X016535Y031522D01*
X016553Y031504D01*
X016590Y031504D01*
X016608Y031522D01*
X016608Y031614D01*
X016645Y031596D02*
X016664Y031614D01*
X016701Y031614D01*
X016719Y031596D01*
X016756Y031596D02*
X016756Y031577D01*
X016774Y031559D01*
X016811Y031559D01*
X016829Y031541D01*
X016829Y031522D01*
X016811Y031504D01*
X016774Y031504D01*
X016756Y031522D01*
X016756Y031541D01*
X016774Y031559D01*
X016811Y031559D02*
X016829Y031577D01*
X016829Y031596D01*
X016811Y031614D01*
X016774Y031614D01*
X016756Y031596D01*
X016719Y031541D02*
X016701Y031559D01*
X016664Y031559D01*
X016645Y031577D01*
X016645Y031596D01*
X016682Y031632D02*
X016682Y031486D01*
X016664Y031504D02*
X016701Y031504D01*
X016719Y031522D01*
X016719Y031541D01*
X016664Y031504D02*
X016645Y031522D01*
X018035Y031522D02*
X018053Y031504D01*
X018090Y031504D01*
X018108Y031522D01*
X018108Y031614D01*
X018145Y031596D02*
X018164Y031614D01*
X018201Y031614D01*
X018219Y031596D01*
X018201Y031559D02*
X018164Y031559D01*
X018145Y031577D01*
X018145Y031596D01*
X018182Y031632D02*
X018182Y031486D01*
X018164Y031504D02*
X018201Y031504D01*
X018219Y031522D01*
X018219Y031541D01*
X018201Y031559D01*
X018256Y031559D02*
X018311Y031559D01*
X018329Y031541D01*
X018329Y031522D01*
X018311Y031504D01*
X018274Y031504D01*
X018256Y031522D01*
X018256Y031559D01*
X018293Y031596D01*
X018329Y031614D01*
X018164Y031504D02*
X018145Y031522D01*
X018035Y031522D02*
X018035Y031614D01*
X018025Y032304D02*
X017875Y032304D01*
X017875Y032404D01*
X017900Y032451D02*
X017875Y032476D01*
X017875Y032526D01*
X017900Y032551D01*
X017925Y032551D01*
X018025Y032451D01*
X018025Y032551D01*
X017950Y032354D02*
X017950Y032304D01*
X017657Y029854D02*
X017582Y029779D01*
X017682Y029779D01*
X017657Y029704D02*
X017657Y029854D01*
X017535Y029829D02*
X017535Y029779D01*
X017510Y029754D01*
X017435Y029754D01*
X017435Y029704D02*
X017435Y029854D01*
X017510Y029854D01*
X017535Y029829D01*
X017485Y029754D02*
X017535Y029704D01*
X017432Y028882D02*
X017432Y028736D01*
X017414Y028754D02*
X017451Y028754D01*
X017469Y028772D01*
X017469Y028791D01*
X017451Y028809D01*
X017414Y028809D01*
X017395Y028827D01*
X017395Y028846D01*
X017414Y028864D01*
X017451Y028864D01*
X017469Y028846D01*
X017506Y028864D02*
X017506Y028809D01*
X017543Y028827D01*
X017561Y028827D01*
X017579Y028809D01*
X017579Y028772D01*
X017561Y028754D01*
X017524Y028754D01*
X017506Y028772D01*
X017506Y028864D02*
X017579Y028864D01*
X017414Y028754D02*
X017395Y028772D01*
X017358Y028772D02*
X017358Y028864D01*
X017285Y028864D02*
X017285Y028772D01*
X017303Y028754D01*
X017340Y028754D01*
X017358Y028772D01*
X016330Y029704D02*
X016230Y029704D01*
X016182Y029704D02*
X016082Y029704D01*
X016035Y029704D02*
X015985Y029754D01*
X016010Y029754D02*
X015935Y029754D01*
X015935Y029704D02*
X015935Y029854D01*
X016010Y029854D01*
X016035Y029829D01*
X016035Y029779D01*
X016010Y029754D01*
X016082Y029804D02*
X016132Y029854D01*
X016132Y029704D01*
X016230Y029804D02*
X016280Y029854D01*
X016280Y029704D01*
X015829Y028864D02*
X015829Y028846D01*
X015756Y028772D01*
X015756Y028754D01*
X015719Y028772D02*
X015719Y028791D01*
X015701Y028809D01*
X015664Y028809D01*
X015645Y028827D01*
X015645Y028846D01*
X015664Y028864D01*
X015701Y028864D01*
X015719Y028846D01*
X015756Y028864D02*
X015829Y028864D01*
X015719Y028772D02*
X015701Y028754D01*
X015664Y028754D01*
X015645Y028772D01*
X015608Y028772D02*
X015608Y028864D01*
X015535Y028864D02*
X015535Y028772D01*
X015553Y028754D01*
X015590Y028754D01*
X015608Y028772D01*
X015682Y028736D02*
X015682Y028882D01*
X014830Y029729D02*
X014805Y029704D01*
X014755Y029704D01*
X014730Y029729D01*
X014682Y029704D02*
X014582Y029704D01*
X014535Y029704D02*
X014485Y029754D01*
X014510Y029754D02*
X014435Y029754D01*
X014435Y029704D02*
X014435Y029854D01*
X014510Y029854D01*
X014535Y029829D01*
X014535Y029779D01*
X014510Y029754D01*
X014582Y029804D02*
X014632Y029854D01*
X014632Y029704D01*
X014730Y029829D02*
X014755Y029854D01*
X014805Y029854D01*
X014830Y029829D01*
X014830Y029804D01*
X014805Y029779D01*
X014830Y029754D01*
X014830Y029729D01*
X014805Y029779D02*
X014780Y029779D01*
X014061Y028864D02*
X014024Y028864D01*
X014006Y028846D01*
X014006Y028827D01*
X014024Y028809D01*
X014079Y028809D01*
X014079Y028772D02*
X014079Y028846D01*
X014061Y028864D01*
X014079Y028772D02*
X014061Y028754D01*
X014024Y028754D01*
X014006Y028772D01*
X013969Y028772D02*
X013969Y028791D01*
X013951Y028809D01*
X013914Y028809D01*
X013895Y028827D01*
X013895Y028846D01*
X013914Y028864D01*
X013951Y028864D01*
X013969Y028846D01*
X013932Y028882D02*
X013932Y028736D01*
X013914Y028754D02*
X013951Y028754D01*
X013969Y028772D01*
X013914Y028754D02*
X013895Y028772D01*
X013858Y028772D02*
X013858Y028864D01*
X013785Y028864D02*
X013785Y028772D01*
X013803Y028754D01*
X013840Y028754D01*
X013858Y028772D01*
X013305Y029704D02*
X013255Y029704D01*
X013230Y029729D01*
X013230Y029779D02*
X013280Y029804D01*
X013305Y029804D01*
X013330Y029779D01*
X013330Y029729D01*
X013305Y029704D01*
X013230Y029779D02*
X013230Y029854D01*
X013330Y029854D01*
X013132Y029854D02*
X013132Y029704D01*
X013082Y029704D02*
X013182Y029704D01*
X013082Y029804D02*
X013132Y029854D01*
X013035Y029829D02*
X013035Y029779D01*
X013010Y029754D01*
X012935Y029754D01*
X012935Y029704D02*
X012935Y029854D01*
X013010Y029854D01*
X013035Y029829D01*
X012985Y029754D02*
X013035Y029704D01*
X012403Y028864D02*
X012366Y028827D01*
X012403Y028864D02*
X012403Y028754D01*
X012366Y028754D02*
X012440Y028754D01*
X012329Y028754D02*
X012256Y028754D01*
X012293Y028754D02*
X012293Y028864D01*
X012256Y028827D01*
X012219Y028846D02*
X012201Y028864D01*
X012164Y028864D01*
X012145Y028846D01*
X012145Y028827D01*
X012164Y028809D01*
X012201Y028809D01*
X012219Y028791D01*
X012219Y028772D01*
X012201Y028754D01*
X012164Y028754D01*
X012145Y028772D01*
X012108Y028772D02*
X012108Y028864D01*
X012035Y028864D02*
X012035Y028772D01*
X012053Y028754D01*
X012090Y028754D01*
X012108Y028772D01*
X012182Y028736D02*
X012182Y028882D01*
X011817Y030994D02*
X011817Y031084D01*
X011862Y031084D01*
X011877Y031069D01*
X011877Y031039D01*
X011862Y031024D01*
X011817Y031024D01*
X011785Y031024D02*
X011785Y031069D01*
X011770Y031084D01*
X011755Y031069D01*
X011755Y031024D01*
X011725Y031024D02*
X011725Y031084D01*
X011740Y031084D01*
X011755Y031069D01*
X011693Y031069D02*
X011678Y031084D01*
X011633Y031084D01*
X011633Y031114D02*
X011633Y031024D01*
X011678Y031024D01*
X011693Y031039D01*
X011693Y031069D01*
X011602Y031039D02*
X011602Y031024D01*
X011587Y031024D01*
X011587Y031039D01*
X011602Y031039D01*
X011555Y031024D02*
X011555Y031069D01*
X011540Y031084D01*
X011495Y031084D01*
X011495Y031024D01*
X011464Y031024D02*
X011434Y031024D01*
X011449Y031024D02*
X011449Y031084D01*
X011434Y031084D01*
X011449Y031114D02*
X011449Y031129D01*
X011402Y031114D02*
X011341Y031114D01*
X011341Y031069D01*
X011372Y031084D01*
X011387Y031084D01*
X011402Y031069D01*
X011402Y031039D01*
X011387Y031024D01*
X011357Y031024D01*
X011341Y031039D01*
X011309Y031024D02*
X011249Y031024D01*
X011309Y031084D01*
X011309Y031099D01*
X011294Y031114D01*
X011264Y031114D01*
X011249Y031099D01*
X011218Y031039D02*
X011218Y031024D01*
X011203Y031024D01*
X011203Y031039D01*
X011218Y031039D01*
X011171Y031024D02*
X011111Y031024D01*
X011141Y031024D02*
X011141Y031114D01*
X011111Y031084D01*
X011079Y031069D02*
X011019Y031069D01*
X010987Y031054D02*
X010987Y031039D01*
X010972Y031024D01*
X010927Y031024D01*
X010927Y031114D01*
X010972Y031114D01*
X010987Y031099D01*
X010987Y031084D01*
X010972Y031069D01*
X010927Y031069D01*
X010895Y031039D02*
X010880Y031024D01*
X010850Y031024D01*
X010835Y031039D01*
X010835Y031099D01*
X010850Y031114D01*
X010880Y031114D01*
X010895Y031099D01*
X010972Y031069D02*
X010987Y031054D01*
X010803Y031069D02*
X010788Y031054D01*
X010743Y031054D01*
X010743Y031024D02*
X010743Y031114D01*
X010788Y031114D01*
X010803Y031099D01*
X010803Y031069D01*
X010711Y031069D02*
X010651Y031069D01*
X010620Y031024D02*
X010590Y031024D01*
X010605Y031024D02*
X010605Y031114D01*
X010590Y031114D01*
X010558Y031069D02*
X010558Y031024D01*
X010512Y031024D01*
X010497Y031039D01*
X010512Y031054D01*
X010558Y031054D01*
X010558Y031069D02*
X010542Y031084D01*
X010512Y031084D01*
X010465Y031069D02*
X010465Y031024D01*
X010465Y031069D02*
X010450Y031084D01*
X010405Y031084D01*
X010405Y031024D01*
X010374Y031024D02*
X010344Y031024D01*
X010359Y031024D02*
X010359Y031084D01*
X010344Y031084D01*
X010359Y031114D02*
X010359Y031129D01*
X010312Y031114D02*
X010252Y031114D01*
X010252Y031024D01*
X010252Y031069D02*
X010282Y031069D01*
X010220Y031069D02*
X010160Y031069D01*
X010128Y031024D02*
X010128Y031114D01*
X010068Y031114D02*
X010068Y031024D01*
X010098Y031054D01*
X010128Y031024D01*
X010036Y031039D02*
X010021Y031024D01*
X009976Y031024D01*
X009976Y031114D01*
X010021Y031114D01*
X010036Y031099D01*
X010036Y031084D01*
X010021Y031069D01*
X009976Y031069D01*
X009944Y031069D02*
X009884Y031069D01*
X009852Y031039D02*
X009852Y031099D01*
X009837Y031114D01*
X009807Y031114D01*
X009792Y031099D01*
X009792Y031039D01*
X009807Y031024D01*
X009837Y031024D01*
X009852Y031039D01*
X009759Y031024D02*
X009699Y031024D01*
X009699Y031114D01*
X009667Y031099D02*
X009652Y031114D01*
X009622Y031114D01*
X009607Y031099D01*
X009607Y031084D01*
X009622Y031069D01*
X009652Y031069D01*
X009667Y031054D01*
X009667Y031039D01*
X009652Y031024D01*
X009622Y031024D01*
X009607Y031039D01*
X009575Y031024D02*
X009530Y031024D01*
X009515Y031039D01*
X009515Y031069D01*
X009530Y031084D01*
X009575Y031084D01*
X009575Y031009D01*
X009560Y030994D01*
X009545Y030994D01*
X009483Y031024D02*
X009483Y031069D01*
X009468Y031084D01*
X009423Y031084D01*
X009423Y031024D01*
X009392Y031024D02*
X009362Y031024D01*
X009377Y031024D02*
X009377Y031084D01*
X009362Y031084D01*
X009330Y031084D02*
X009285Y031084D01*
X009270Y031069D01*
X009270Y031039D01*
X009285Y031024D01*
X009330Y031024D01*
X009238Y031024D02*
X009238Y031069D01*
X009223Y031084D01*
X009193Y031084D01*
X009193Y031054D02*
X009238Y031054D01*
X009238Y031024D02*
X009193Y031024D01*
X009178Y031039D01*
X009193Y031054D01*
X009146Y031069D02*
X009131Y031054D01*
X009086Y031054D01*
X009116Y031054D02*
X009146Y031024D01*
X009146Y031069D02*
X009146Y031099D01*
X009131Y031114D01*
X009086Y031114D01*
X009086Y031024D01*
X009054Y031069D02*
X009039Y031054D01*
X008994Y031054D01*
X008994Y031024D02*
X008994Y031114D01*
X009039Y031114D01*
X009054Y031099D01*
X009054Y031069D01*
X008961Y031039D02*
X008946Y031024D01*
X008916Y031024D01*
X008901Y031039D01*
X008901Y031099D01*
X008916Y031114D01*
X008946Y031114D01*
X008961Y031099D01*
X008869Y031114D02*
X008809Y031024D01*
X008777Y031039D02*
X008777Y031069D01*
X008762Y031084D01*
X008732Y031084D01*
X008717Y031069D01*
X008717Y031039D01*
X008732Y031024D01*
X008762Y031024D01*
X008777Y031039D01*
X008685Y031024D02*
X008640Y031024D01*
X008625Y031039D01*
X008625Y031069D01*
X008640Y031084D01*
X008685Y031084D01*
X008685Y031009D01*
X008670Y030994D01*
X008655Y030994D01*
X008593Y031039D02*
X008578Y031024D01*
X008548Y031024D01*
X008533Y031039D01*
X008533Y031069D01*
X008548Y031084D01*
X008578Y031084D01*
X008593Y031069D01*
X008593Y031039D01*
X008501Y031024D02*
X008441Y031024D01*
X008441Y031114D01*
X008317Y031084D02*
X008272Y031084D01*
X008257Y031069D01*
X008257Y031039D01*
X008272Y031024D01*
X008317Y031024D01*
X008317Y031009D02*
X008317Y031084D01*
X008317Y031009D02*
X008302Y030994D01*
X008287Y030994D01*
X008225Y031024D02*
X008225Y031069D01*
X008210Y031084D01*
X008165Y031084D01*
X008165Y031024D01*
X008133Y031024D02*
X008103Y031024D01*
X008118Y031024D02*
X008118Y031084D01*
X008103Y031084D01*
X008071Y031084D02*
X008026Y031084D01*
X008011Y031069D01*
X008011Y031039D01*
X008026Y031024D01*
X008071Y031024D01*
X007979Y031024D02*
X007934Y031024D01*
X007919Y031039D01*
X007934Y031054D01*
X007979Y031054D01*
X007979Y031069D02*
X007979Y031024D01*
X007979Y031069D02*
X007964Y031084D01*
X007934Y031084D01*
X007887Y031069D02*
X007872Y031054D01*
X007827Y031054D01*
X007827Y031024D02*
X007827Y031114D01*
X007872Y031114D01*
X007887Y031099D01*
X007887Y031069D01*
X007857Y031054D02*
X007887Y031024D01*
X007703Y031024D02*
X007658Y031024D01*
X007643Y031039D01*
X007643Y031084D01*
X007597Y031114D02*
X007597Y031024D01*
X007582Y031024D02*
X007612Y031024D01*
X007550Y031039D02*
X007535Y031024D01*
X007505Y031024D01*
X007490Y031039D01*
X007490Y031069D01*
X007505Y031084D01*
X007535Y031084D01*
X007550Y031069D01*
X007550Y031039D01*
X007582Y031114D02*
X007597Y031114D01*
X007703Y031084D02*
X007703Y031009D01*
X007688Y030994D01*
X007673Y030994D01*
X007458Y031069D02*
X007443Y031054D01*
X007397Y031054D01*
X007397Y031024D02*
X007397Y031114D01*
X007443Y031114D01*
X007458Y031099D01*
X007458Y031069D01*
X007274Y031024D02*
X007244Y031024D01*
X007259Y031024D02*
X007259Y031114D01*
X007244Y031114D01*
X007212Y031069D02*
X007212Y031024D01*
X007167Y031024D01*
X007152Y031039D01*
X007167Y031054D01*
X007212Y031054D01*
X007212Y031069D02*
X007197Y031084D01*
X007167Y031084D01*
X007120Y031099D02*
X007105Y031114D01*
X007075Y031114D01*
X007060Y031099D01*
X007060Y031039D01*
X007075Y031024D01*
X007105Y031024D01*
X007120Y031039D01*
X006936Y031039D02*
X006921Y031024D01*
X006891Y031024D01*
X006876Y031039D01*
X006876Y031069D02*
X006906Y031084D01*
X006921Y031084D01*
X006936Y031069D01*
X006936Y031039D01*
X006876Y031069D02*
X006876Y031114D01*
X006936Y031114D01*
X006814Y031114D02*
X006814Y031024D01*
X006784Y031024D02*
X006844Y031024D01*
X006784Y031084D02*
X006814Y031114D01*
X006752Y031099D02*
X006692Y031039D01*
X006707Y031024D01*
X006737Y031024D01*
X006752Y031039D01*
X006752Y031099D01*
X006737Y031114D01*
X006707Y031114D01*
X006692Y031099D01*
X006692Y031039D01*
X006660Y031024D02*
X006599Y031024D01*
X006660Y031084D01*
X006660Y031099D01*
X006645Y031114D01*
X006614Y031114D01*
X006599Y031099D01*
X006567Y031114D02*
X006507Y031024D01*
X006475Y031039D02*
X006460Y031024D01*
X006415Y031024D01*
X006430Y031054D02*
X006415Y031069D01*
X006430Y031084D01*
X006475Y031084D01*
X006460Y031054D02*
X006430Y031054D01*
X006460Y031054D02*
X006475Y031039D01*
X006383Y031039D02*
X006383Y031069D01*
X006368Y031084D01*
X006338Y031084D01*
X006323Y031069D01*
X006323Y031039D01*
X006338Y031024D01*
X006368Y031024D01*
X006383Y031039D01*
X006291Y031024D02*
X006246Y031024D01*
X006231Y031039D01*
X006231Y031069D01*
X006246Y031084D01*
X006291Y031084D01*
X006291Y031009D01*
X006276Y030994D01*
X006261Y030994D01*
X006199Y031039D02*
X006199Y031069D01*
X006184Y031084D01*
X006154Y031084D01*
X006139Y031069D01*
X006139Y031039D01*
X006154Y031024D01*
X006184Y031024D01*
X006199Y031039D01*
X006107Y031024D02*
X006047Y031024D01*
X006047Y031114D01*
X006015Y031114D02*
X005955Y031024D01*
X005924Y031024D02*
X005894Y031024D01*
X005909Y031024D02*
X005909Y031114D01*
X005894Y031114D01*
X005862Y031069D02*
X005862Y031024D01*
X005816Y031024D01*
X005801Y031039D01*
X005816Y031054D01*
X005862Y031054D01*
X005862Y031069D02*
X005847Y031084D01*
X005816Y031084D01*
X005770Y031084D02*
X005755Y031084D01*
X005725Y031054D01*
X005725Y031024D02*
X005725Y031084D01*
X005693Y031069D02*
X005693Y031054D01*
X005633Y031054D01*
X005633Y031039D02*
X005633Y031069D01*
X005648Y031084D01*
X005678Y031084D01*
X005693Y031069D01*
X005678Y031024D02*
X005648Y031024D01*
X005633Y031039D01*
X005601Y031024D02*
X005601Y031069D01*
X005586Y031084D01*
X005541Y031084D01*
X005541Y031024D01*
X005509Y031054D02*
X005449Y031054D01*
X005449Y031039D02*
X005449Y031069D01*
X005464Y031084D01*
X005494Y031084D01*
X005509Y031069D01*
X005509Y031054D01*
X005494Y031024D02*
X005464Y031024D01*
X005449Y031039D01*
X005416Y031039D02*
X005416Y031069D01*
X005386Y031069D01*
X005356Y031039D02*
X005371Y031024D01*
X005401Y031024D01*
X005416Y031039D01*
X005356Y031039D02*
X005356Y031099D01*
X005371Y031114D01*
X005401Y031114D01*
X005416Y031099D01*
X005232Y031114D02*
X005172Y031114D01*
X005172Y031024D01*
X005232Y031024D01*
X005202Y031069D02*
X005172Y031069D01*
X005140Y031069D02*
X005080Y031069D01*
X005080Y031084D02*
X005110Y031114D01*
X005140Y031084D01*
X005140Y031024D01*
X005080Y031024D02*
X005080Y031084D01*
X005048Y031099D02*
X005033Y031114D01*
X005003Y031114D01*
X004988Y031099D01*
X004988Y031084D01*
X005003Y031069D01*
X005033Y031069D01*
X005048Y031054D01*
X005048Y031039D01*
X005033Y031024D01*
X005003Y031024D01*
X004988Y031039D01*
X004864Y031024D02*
X004819Y031024D01*
X004804Y031039D01*
X004804Y031084D01*
X004758Y031114D02*
X004758Y031024D01*
X004743Y031024D02*
X004773Y031024D01*
X004711Y031039D02*
X004696Y031024D01*
X004666Y031024D01*
X004650Y031039D01*
X004650Y031069D01*
X004666Y031084D01*
X004696Y031084D01*
X004711Y031069D01*
X004711Y031039D01*
X004743Y031114D02*
X004758Y031114D01*
X004864Y031084D02*
X004864Y031009D01*
X004849Y030994D01*
X004834Y030994D01*
X004618Y031069D02*
X004603Y031054D01*
X004558Y031054D01*
X004558Y031024D02*
X004558Y031114D01*
X004603Y031114D01*
X004618Y031099D01*
X004618Y031069D01*
X004435Y031024D02*
X004405Y031024D01*
X004420Y031024D02*
X004420Y031114D01*
X004405Y031114D01*
X004373Y031069D02*
X004373Y031024D01*
X004328Y031024D01*
X004313Y031039D01*
X004328Y031054D01*
X004373Y031054D01*
X004373Y031069D02*
X004358Y031084D01*
X004328Y031084D01*
X004281Y031099D02*
X004266Y031114D01*
X004236Y031114D01*
X004221Y031099D01*
X004221Y031039D01*
X004236Y031024D01*
X004266Y031024D01*
X004281Y031039D01*
X004189Y031114D02*
X004129Y031024D01*
X004097Y031054D02*
X004037Y031054D01*
X004037Y031039D02*
X004037Y031069D01*
X004052Y031084D01*
X004082Y031084D01*
X004097Y031069D01*
X004097Y031054D01*
X004082Y031024D02*
X004052Y031024D01*
X004037Y031039D01*
X004005Y031084D02*
X003975Y031024D01*
X003945Y031084D01*
X003898Y031084D02*
X003898Y031024D01*
X003883Y031024D02*
X003913Y031024D01*
X003898Y031084D02*
X003883Y031084D01*
X003851Y031084D02*
X003836Y031084D01*
X003806Y031054D01*
X003806Y031024D02*
X003806Y031084D01*
X003774Y031099D02*
X003759Y031114D01*
X003714Y031114D01*
X003714Y031024D01*
X003759Y031024D01*
X003774Y031039D01*
X003774Y031099D01*
X003898Y031114D02*
X003898Y031129D01*
X003590Y031069D02*
X003590Y031054D01*
X003530Y031054D01*
X003530Y031039D02*
X003530Y031069D01*
X003545Y031084D01*
X003575Y031084D01*
X003590Y031069D01*
X003575Y031024D02*
X003545Y031024D01*
X003530Y031039D01*
X003499Y031024D02*
X003469Y031024D01*
X003484Y031024D02*
X003484Y031114D01*
X003469Y031114D01*
X003437Y031084D02*
X003392Y031084D01*
X003377Y031069D01*
X003377Y031039D01*
X003392Y031024D01*
X003437Y031024D01*
X003437Y031009D02*
X003437Y031084D01*
X003437Y031009D02*
X003422Y030994D01*
X003407Y030994D01*
X003345Y031039D02*
X003330Y031024D01*
X003300Y031024D01*
X003285Y031039D01*
X003285Y031069D01*
X003300Y031084D01*
X003330Y031084D01*
X003345Y031069D01*
X003345Y031039D01*
X003253Y031039D02*
X003253Y031069D01*
X003238Y031084D01*
X003208Y031084D01*
X003193Y031069D01*
X003193Y031039D01*
X003208Y031024D01*
X003238Y031024D01*
X003253Y031039D01*
X003161Y031039D02*
X003161Y031069D01*
X003131Y031069D01*
X003161Y031039D02*
X003146Y031024D01*
X003116Y031024D01*
X003101Y031039D01*
X003101Y031099D01*
X003116Y031114D01*
X003146Y031114D01*
X003161Y031099D01*
X003068Y031114D02*
X003008Y031024D01*
X002976Y031024D02*
X002976Y031069D01*
X002961Y031084D01*
X002916Y031084D01*
X002916Y031024D01*
X002884Y031039D02*
X002869Y031024D01*
X002839Y031024D01*
X002824Y031039D01*
X002824Y031069D01*
X002839Y031084D01*
X002869Y031084D01*
X002884Y031069D01*
X002884Y031039D01*
X002792Y031039D02*
X002777Y031054D01*
X002747Y031054D01*
X002732Y031069D01*
X002747Y031084D01*
X002792Y031084D01*
X002792Y031039D02*
X002777Y031024D01*
X002732Y031024D01*
X002701Y031024D02*
X002671Y031024D01*
X002686Y031024D02*
X002686Y031114D01*
X002671Y031114D01*
X002624Y031114D02*
X002624Y031024D01*
X002609Y031024D02*
X002639Y031024D01*
X002578Y031024D02*
X002548Y031024D01*
X002563Y031024D02*
X002563Y031084D01*
X002548Y031084D01*
X002516Y031084D02*
X002516Y031039D01*
X002501Y031024D01*
X002486Y031039D01*
X002471Y031024D01*
X002456Y031039D01*
X002456Y031084D01*
X002424Y031084D02*
X002379Y031084D01*
X002364Y031069D01*
X002379Y031054D01*
X002409Y031054D01*
X002424Y031039D01*
X002409Y031024D01*
X002364Y031024D01*
X002332Y031024D02*
X002287Y031024D01*
X002272Y031039D01*
X002287Y031054D01*
X002332Y031054D01*
X002332Y031069D02*
X002332Y031024D01*
X002332Y031069D02*
X002317Y031084D01*
X002287Y031084D01*
X002240Y031069D02*
X002240Y031024D01*
X002210Y031024D02*
X002210Y031069D01*
X002225Y031084D01*
X002240Y031069D01*
X002210Y031069D02*
X002195Y031084D01*
X002180Y031084D01*
X002180Y031024D01*
X002148Y031039D02*
X002133Y031024D01*
X002103Y031024D01*
X002088Y031039D01*
X002088Y031069D01*
X002103Y031084D01*
X002133Y031084D01*
X002148Y031069D01*
X002148Y031039D01*
X002056Y031024D02*
X002056Y031069D01*
X002041Y031084D01*
X002011Y031084D01*
X001996Y031069D01*
X001964Y031084D02*
X001934Y031084D01*
X001949Y031099D02*
X001949Y031039D01*
X001964Y031024D01*
X001996Y031024D02*
X001996Y031114D01*
X001902Y031114D02*
X001842Y031024D01*
X001810Y031039D02*
X001795Y031024D01*
X001750Y031024D01*
X001765Y031054D02*
X001750Y031069D01*
X001765Y031084D01*
X001810Y031084D01*
X001795Y031054D02*
X001765Y031054D01*
X001795Y031054D02*
X001810Y031039D01*
X001718Y031084D02*
X001703Y031084D01*
X001673Y031054D01*
X001673Y031024D02*
X001673Y031084D01*
X001641Y031069D02*
X001641Y031054D01*
X001581Y031054D01*
X001581Y031039D02*
X001581Y031069D01*
X001596Y031084D01*
X001626Y031084D01*
X001641Y031069D01*
X001626Y031024D02*
X001596Y031024D01*
X001581Y031039D01*
X001549Y031039D02*
X001534Y031054D01*
X001504Y031054D01*
X001489Y031069D01*
X001504Y031084D01*
X001549Y031084D01*
X001549Y031039D02*
X001534Y031024D01*
X001489Y031024D01*
X001457Y031039D02*
X001442Y031024D01*
X001412Y031024D01*
X001397Y031039D01*
X001397Y031114D01*
X001365Y031114D02*
X001305Y031024D01*
X001457Y031039D02*
X001457Y031114D01*
X002563Y031129D02*
X002563Y031114D01*
X002609Y031114D02*
X002624Y031114D01*
X008118Y031129D02*
X008118Y031114D01*
X009377Y031129D02*
X009377Y031114D01*
X010021Y031069D02*
X010036Y031054D01*
X010036Y031039D01*
X012443Y026594D02*
X012518Y026594D01*
X012543Y026569D01*
X012543Y026519D01*
X012518Y026494D01*
X012443Y026494D01*
X012443Y026444D02*
X012443Y026594D01*
X012493Y026494D02*
X012543Y026444D01*
X012590Y026444D02*
X012690Y026444D01*
X012640Y026444D02*
X012640Y026594D01*
X012590Y026544D01*
X012738Y026519D02*
X012813Y026519D01*
X012838Y026494D01*
X012838Y026469D01*
X012813Y026444D01*
X012763Y026444D01*
X012738Y026469D01*
X012738Y026519D01*
X012788Y026569D01*
X012838Y026594D01*
X014193Y026594D02*
X014268Y026594D01*
X014293Y026569D01*
X014293Y026519D01*
X014268Y026494D01*
X014193Y026494D01*
X014193Y026444D02*
X014193Y026594D01*
X014243Y026494D02*
X014293Y026444D01*
X014340Y026444D02*
X014440Y026444D01*
X014390Y026444D02*
X014390Y026594D01*
X014340Y026544D01*
X014488Y026519D02*
X014588Y026519D01*
X014563Y026444D02*
X014563Y026594D01*
X014488Y026519D01*
X015943Y026494D02*
X016018Y026494D01*
X016043Y026519D01*
X016043Y026569D01*
X016018Y026594D01*
X015943Y026594D01*
X015943Y026444D01*
X015993Y026494D02*
X016043Y026444D01*
X016090Y026444D02*
X016190Y026444D01*
X016238Y026444D02*
X016338Y026544D01*
X016338Y026569D01*
X016313Y026594D01*
X016263Y026594D01*
X016238Y026569D01*
X016140Y026594D02*
X016140Y026444D01*
X016238Y026444D02*
X016338Y026444D01*
X016140Y026594D02*
X016090Y026544D01*
X017840Y026494D02*
X017915Y026494D01*
X017940Y026519D01*
X017940Y026569D01*
X017915Y026594D01*
X017840Y026594D01*
X017840Y026444D01*
X017890Y026494D02*
X017940Y026444D01*
X017988Y026469D02*
X018013Y026444D01*
X018063Y026444D01*
X018088Y026469D01*
X018088Y026519D01*
X018063Y026544D01*
X018038Y026544D01*
X017988Y026519D01*
X017988Y026594D01*
X018088Y026594D01*
X021335Y025182D02*
X021410Y025107D01*
X021410Y025207D01*
X021485Y025182D02*
X021335Y025182D01*
X021335Y025009D02*
X021485Y025009D01*
X021485Y024959D02*
X021485Y025059D01*
X021385Y024959D02*
X021335Y025009D01*
X021360Y024912D02*
X021335Y024887D01*
X021335Y024837D01*
X021360Y024812D01*
X021460Y024812D01*
X021485Y024837D01*
X021485Y024887D01*
X021460Y024912D01*
X019080Y023829D02*
X019080Y023804D01*
X019055Y023779D01*
X019080Y023754D01*
X019080Y023729D01*
X019055Y023704D01*
X019005Y023704D01*
X018980Y023729D01*
X018932Y023704D02*
X018832Y023704D01*
X018882Y023704D02*
X018882Y023854D01*
X018832Y023804D01*
X018785Y023829D02*
X018760Y023854D01*
X018710Y023854D01*
X018685Y023829D01*
X018685Y023729D01*
X018710Y023704D01*
X018760Y023704D01*
X018785Y023729D01*
X018980Y023829D02*
X019005Y023854D01*
X019055Y023854D01*
X019080Y023829D01*
X019055Y023779D02*
X019030Y023779D01*
X024685Y016854D02*
X024760Y016854D01*
X024785Y016829D01*
X024785Y016779D01*
X024760Y016754D01*
X024685Y016754D01*
X024685Y016704D02*
X024685Y016854D01*
X024735Y016754D02*
X024785Y016704D01*
X024832Y016704D02*
X024932Y016704D01*
X024882Y016704D02*
X024882Y016854D01*
X024832Y016804D01*
X024980Y016829D02*
X025005Y016854D01*
X025055Y016854D01*
X025080Y016829D01*
X024980Y016729D01*
X025005Y016704D01*
X025055Y016704D01*
X025080Y016729D01*
X025080Y016829D01*
X024980Y016829D02*
X024980Y016729D01*
X024932Y015854D02*
X024932Y015829D01*
X024832Y015729D01*
X024832Y015704D01*
X024785Y015729D02*
X024760Y015704D01*
X024710Y015704D01*
X024685Y015729D01*
X024685Y015829D01*
X024710Y015854D01*
X024760Y015854D01*
X024785Y015829D01*
X024832Y015854D02*
X024932Y015854D01*
X025065Y014069D02*
X025040Y014044D01*
X025040Y013944D01*
X025065Y013919D01*
X025115Y013919D01*
X025140Y013944D01*
X025188Y013944D02*
X025188Y013969D01*
X025213Y013994D01*
X025263Y013994D01*
X025288Y013969D01*
X025288Y013944D01*
X025263Y013919D01*
X025213Y013919D01*
X025188Y013944D01*
X025213Y013994D02*
X025188Y014019D01*
X025188Y014044D01*
X025213Y014069D01*
X025263Y014069D01*
X025288Y014044D01*
X025288Y014019D01*
X025263Y013994D01*
X025140Y014044D02*
X025115Y014069D01*
X025065Y014069D01*
X012200Y006572D02*
X012200Y006522D01*
X012175Y006497D01*
X012200Y006450D02*
X012050Y006450D01*
X012075Y006497D02*
X012050Y006522D01*
X012050Y006572D01*
X012075Y006597D01*
X012100Y006597D01*
X012125Y006572D01*
X012150Y006597D01*
X012175Y006597D01*
X012200Y006572D01*
X012125Y006572D02*
X012125Y006547D01*
X012200Y006450D02*
X012050Y006350D01*
X012200Y006350D01*
X012200Y006301D02*
X012200Y006251D01*
X012200Y006276D02*
X012050Y006276D01*
X012050Y006251D02*
X012050Y006301D01*
X012075Y006204D02*
X012050Y006179D01*
X012050Y006129D01*
X012075Y006104D01*
X012175Y006104D01*
X012200Y006129D01*
X012200Y006179D01*
X012175Y006204D01*
X011200Y006179D02*
X011200Y006129D01*
X011175Y006104D01*
X011075Y006104D01*
X011050Y006129D01*
X011050Y006179D01*
X011075Y006204D01*
X011050Y006251D02*
X011050Y006301D01*
X011050Y006276D02*
X011200Y006276D01*
X011200Y006251D02*
X011200Y006301D01*
X011200Y006350D02*
X011050Y006350D01*
X011200Y006450D01*
X011050Y006450D01*
X011075Y006497D02*
X011050Y006522D01*
X011050Y006572D01*
X011075Y006597D01*
X011100Y006597D01*
X011200Y006497D01*
X011200Y006597D01*
X011175Y006204D02*
X011200Y006179D01*
X010200Y006179D02*
X010200Y006129D01*
X010175Y006104D01*
X010075Y006104D01*
X010050Y006129D01*
X010050Y006179D01*
X010075Y006204D01*
X010050Y006251D02*
X010050Y006301D01*
X010050Y006276D02*
X010200Y006276D01*
X010200Y006251D02*
X010200Y006301D01*
X010200Y006350D02*
X010050Y006350D01*
X010200Y006450D01*
X010050Y006450D01*
X010100Y006497D02*
X010050Y006547D01*
X010200Y006547D01*
X010200Y006497D02*
X010200Y006597D01*
X010175Y006204D02*
X010200Y006179D01*
X009200Y006179D02*
X009200Y006129D01*
X009175Y006104D01*
X009075Y006104D01*
X009050Y006129D01*
X009050Y006179D01*
X009075Y006204D01*
X009050Y006251D02*
X009050Y006301D01*
X009050Y006276D02*
X009200Y006276D01*
X009200Y006251D02*
X009200Y006301D01*
X009200Y006350D02*
X009050Y006350D01*
X009200Y006450D01*
X009050Y006450D01*
X009175Y006204D02*
X009200Y006179D01*
X009200Y011054D02*
X009225Y011079D01*
X009225Y011129D01*
X009200Y011154D01*
X009225Y011201D02*
X009075Y011201D01*
X009075Y011301D01*
X009075Y011349D02*
X009075Y011424D01*
X009100Y011449D01*
X009125Y011449D01*
X009150Y011424D01*
X009150Y011349D01*
X009150Y011424D02*
X009175Y011449D01*
X009200Y011449D01*
X009225Y011424D01*
X009225Y011349D01*
X009075Y011349D01*
X009150Y011251D02*
X009150Y011201D01*
X009100Y011154D02*
X009075Y011129D01*
X009075Y011079D01*
X009100Y011054D01*
X009200Y011054D01*
X008985Y011459D02*
X008835Y011459D01*
X008835Y011534D01*
X008860Y011559D01*
X008910Y011559D01*
X008935Y011534D01*
X008935Y011459D01*
X008935Y011509D02*
X008985Y011559D01*
X008985Y011657D02*
X008835Y011657D01*
X008835Y011607D02*
X008835Y011707D01*
X010835Y011657D02*
X010985Y011657D01*
X010985Y011607D02*
X010985Y011707D01*
X010885Y011607D02*
X010835Y011657D01*
X010860Y011559D02*
X010835Y011534D01*
X010835Y011459D01*
X010985Y011459D01*
X010985Y011534D01*
X010960Y011559D01*
X010935Y011559D01*
X010910Y011534D01*
X010910Y011459D01*
X010910Y011534D02*
X010885Y011559D01*
X010860Y011559D01*
X010835Y011412D02*
X010835Y011312D01*
X010985Y011312D01*
X010985Y011265D02*
X010935Y011215D01*
X010935Y011240D02*
X010935Y011165D01*
X010985Y011165D02*
X010835Y011165D01*
X010835Y011240D01*
X010860Y011265D01*
X010910Y011265D01*
X010935Y011240D01*
X010910Y011312D02*
X010910Y011362D01*
X011075Y011349D02*
X011075Y011424D01*
X011100Y011449D01*
X011125Y011449D01*
X011150Y011424D01*
X011150Y011349D01*
X011150Y011424D02*
X011175Y011449D01*
X011200Y011449D01*
X011225Y011424D01*
X011225Y011349D01*
X011075Y011349D01*
X011075Y011301D02*
X011075Y011201D01*
X011225Y011201D01*
X011225Y011154D02*
X011175Y011104D01*
X011175Y011129D02*
X011175Y011054D01*
X011225Y011054D02*
X011075Y011054D01*
X011075Y011129D01*
X011100Y011154D01*
X011150Y011154D01*
X011175Y011129D01*
X011150Y011201D02*
X011150Y011251D01*
X011100Y011496D02*
X011075Y011521D01*
X011075Y011571D01*
X011100Y011596D01*
X011125Y011596D01*
X011225Y011496D01*
X011225Y011596D01*
X005700Y014629D02*
X005700Y014679D01*
X005675Y014704D01*
X005675Y014751D02*
X005700Y014776D01*
X005700Y014826D01*
X005675Y014851D01*
X005575Y014851D01*
X005550Y014826D01*
X005550Y014776D01*
X005575Y014751D01*
X005675Y014751D01*
X005575Y014704D02*
X005550Y014679D01*
X005550Y014629D01*
X005575Y014604D01*
X005675Y014604D01*
X005700Y014629D01*
X005675Y014899D02*
X005700Y014924D01*
X005700Y014974D01*
X005675Y014999D01*
X005550Y014999D01*
X005550Y015046D02*
X005550Y015146D01*
X005550Y015096D02*
X005700Y015096D01*
X005675Y014899D02*
X005550Y014899D01*
X007835Y016190D02*
X007860Y016165D01*
X007960Y016165D01*
X007985Y016190D01*
X007985Y016240D01*
X007960Y016265D01*
X007935Y016312D02*
X007985Y016362D01*
X007935Y016412D01*
X007835Y016412D01*
X007860Y016459D02*
X007960Y016459D01*
X007985Y016484D01*
X007985Y016534D01*
X007960Y016559D01*
X007960Y016607D02*
X007985Y016632D01*
X007985Y016682D01*
X007960Y016707D01*
X007860Y016707D02*
X007835Y016682D01*
X007835Y016632D01*
X007860Y016607D01*
X007960Y016607D01*
X007860Y016559D02*
X007835Y016534D01*
X007835Y016484D01*
X007860Y016459D01*
X007835Y016312D02*
X007935Y016312D01*
X007860Y016265D02*
X007835Y016240D01*
X007835Y016190D01*
X008075Y016226D02*
X008100Y016201D01*
X008200Y016201D01*
X008225Y016226D01*
X008225Y016276D01*
X008200Y016301D01*
X008200Y016349D02*
X008225Y016374D01*
X008225Y016424D01*
X008200Y016449D01*
X008100Y016449D01*
X008075Y016424D01*
X008075Y016374D01*
X008100Y016349D01*
X008200Y016349D01*
X008100Y016301D02*
X008075Y016276D01*
X008075Y016226D01*
X008100Y016154D02*
X008150Y016154D01*
X008175Y016129D01*
X008175Y016054D01*
X008225Y016054D02*
X008075Y016054D01*
X008075Y016129D01*
X008100Y016154D01*
X008175Y016104D02*
X008225Y016154D01*
X008225Y016496D02*
X008075Y016496D01*
X008125Y016546D01*
X008075Y016596D01*
X008225Y016596D01*
X008225Y016643D02*
X008075Y016643D01*
X008125Y016693D01*
X008075Y016743D01*
X008225Y016743D01*
X009075Y016694D02*
X009075Y016594D01*
X009225Y016594D01*
X009225Y016547D02*
X009225Y016447D01*
X009075Y016447D01*
X009075Y016547D01*
X009150Y016594D02*
X009150Y016644D01*
X009150Y016497D02*
X009150Y016447D01*
X009150Y016400D02*
X009175Y016375D01*
X009175Y016300D01*
X009175Y016350D02*
X009225Y016400D01*
X009150Y016400D02*
X009100Y016400D01*
X009075Y016375D01*
X009075Y016300D01*
X009225Y016300D01*
X009225Y016251D02*
X009225Y016201D01*
X009225Y016226D02*
X009075Y016226D01*
X009075Y016201D02*
X009075Y016251D01*
X009100Y016154D02*
X009150Y016154D01*
X009175Y016129D01*
X009175Y016054D01*
X009225Y016054D02*
X009075Y016054D01*
X009075Y016129D01*
X009100Y016154D01*
X009175Y016104D02*
X009225Y016154D01*
X010075Y016129D02*
X010075Y016079D01*
X010100Y016054D01*
X010200Y016054D01*
X010225Y016079D01*
X010225Y016129D01*
X010200Y016154D01*
X010225Y016201D02*
X010225Y016276D01*
X010200Y016301D01*
X010100Y016301D01*
X010075Y016276D01*
X010075Y016201D01*
X010225Y016201D01*
X010100Y016154D02*
X010075Y016129D01*
X010075Y016349D02*
X010225Y016349D01*
X010150Y016349D02*
X010150Y016449D01*
X010200Y016496D02*
X010225Y016521D01*
X010225Y016571D01*
X010200Y016596D01*
X010200Y016496D02*
X010100Y016496D01*
X010075Y016521D01*
X010075Y016571D01*
X010100Y016596D01*
X010075Y016449D02*
X010225Y016449D01*
X031629Y034415D02*
X031629Y034565D01*
X031629Y034490D02*
X031729Y034490D01*
X031776Y034440D02*
X031876Y034540D01*
X031876Y034565D01*
X031776Y034565D01*
X031729Y034565D02*
X031729Y034415D01*
X031776Y034415D02*
X031776Y034440D01*
X036193Y025380D02*
X036268Y025380D01*
X036294Y025355D01*
X036294Y025255D01*
X036268Y025230D01*
X036193Y025230D01*
X036193Y025380D01*
X036341Y025330D02*
X036391Y025380D01*
X036391Y025230D01*
X036341Y025230D02*
X036441Y025230D01*
X043435Y021104D02*
X043485Y021104D01*
X043460Y021104D02*
X043460Y020954D01*
X043435Y020954D02*
X043485Y020954D01*
X043533Y020979D02*
X043558Y020954D01*
X043608Y020954D01*
X043633Y020979D01*
X043681Y020979D02*
X043706Y020954D01*
X043756Y020954D01*
X043781Y020979D01*
X043781Y021004D01*
X043756Y021029D01*
X043731Y021029D01*
X043756Y021029D02*
X043781Y021054D01*
X043781Y021079D01*
X043756Y021104D01*
X043706Y021104D01*
X043681Y021079D01*
X043633Y021079D02*
X043608Y021104D01*
X043558Y021104D01*
X043533Y021079D01*
X043533Y020979D01*
X039040Y018119D02*
X038990Y018094D01*
X038940Y018044D01*
X039015Y018044D01*
X039040Y018019D01*
X039040Y017994D01*
X039015Y017969D01*
X038965Y017969D01*
X038940Y017994D01*
X038940Y018044D01*
X038892Y017969D02*
X038792Y017969D01*
X038842Y017969D02*
X038842Y018119D01*
X038792Y018069D01*
X038745Y018094D02*
X038720Y018119D01*
X038670Y018119D01*
X038645Y018094D01*
X038645Y017994D01*
X038670Y017969D01*
X038720Y017969D01*
X038745Y017994D01*
X038726Y015894D02*
X038701Y015869D01*
X038701Y015844D01*
X038726Y015819D01*
X038776Y015819D01*
X038801Y015794D01*
X038801Y015769D01*
X038776Y015744D01*
X038726Y015744D01*
X038701Y015769D01*
X038726Y015894D02*
X038776Y015894D01*
X038801Y015869D01*
X038898Y015894D02*
X038948Y015894D01*
X038923Y015894D02*
X038923Y015769D01*
X038898Y015744D01*
X038873Y015744D01*
X038848Y015769D01*
X038995Y015744D02*
X039095Y015744D01*
X039045Y015744D02*
X039045Y015894D01*
X038995Y015844D01*
X043590Y008644D02*
X043690Y008644D01*
X043738Y008594D02*
X043788Y008644D01*
X043788Y008494D01*
X043738Y008494D02*
X043838Y008494D01*
X043640Y008569D02*
X043590Y008569D01*
X043590Y008494D02*
X043590Y008644D01*
D38*
X035467Y022934D02*
X035578Y023044D01*
X035578Y023155D01*
X035682Y023259D02*
X035793Y023259D01*
X035904Y023370D01*
X035904Y023481D01*
X035848Y023536D01*
X035738Y023536D01*
X035627Y023425D01*
X035516Y023425D01*
X035460Y023481D01*
X035460Y023592D01*
X035571Y023703D01*
X035682Y023703D01*
X035786Y023806D02*
X036063Y023529D01*
X035904Y023259D02*
X035460Y023703D01*
X035301Y023433D02*
X035301Y022989D01*
X035357Y022934D01*
X035467Y022934D01*
X035079Y023211D02*
X035301Y023433D01*
X035786Y023806D02*
X035786Y023917D01*
X035897Y024028D01*
X036008Y024028D01*
X036285Y023751D01*
X037349Y023488D02*
X037792Y023488D01*
X037681Y023377D02*
X037460Y023599D01*
X037570Y023710D02*
X037570Y023266D01*
X037460Y023377D02*
X037681Y023599D01*
X023026Y013661D02*
X022964Y013723D01*
X022841Y013723D01*
X022779Y013661D01*
X022779Y013599D01*
X022841Y013538D01*
X023026Y013538D01*
X023026Y013661D02*
X023026Y013414D01*
X022964Y013353D01*
X022841Y013353D01*
X022779Y013414D01*
X022658Y013414D02*
X022596Y013353D01*
X022472Y013353D01*
X022411Y013414D01*
X022411Y013661D01*
X022472Y013723D01*
X022596Y013723D01*
X022658Y013661D01*
X018015Y019411D02*
X018076Y019473D01*
X018076Y019597D01*
X018015Y019658D01*
X018076Y019780D02*
X018076Y020027D01*
X018076Y019903D02*
X017706Y019903D01*
X017830Y019780D01*
X017768Y019658D02*
X017706Y019597D01*
X017706Y019473D01*
X017768Y019411D01*
X018015Y019411D01*
X018015Y020148D02*
X018076Y020210D01*
X018076Y020333D01*
X018015Y020395D01*
X017891Y020395D01*
X017830Y020333D01*
X017830Y020272D01*
X017891Y020148D01*
X017706Y020148D01*
X017706Y020395D01*
X020715Y021162D02*
X021029Y021476D01*
X021029Y021319D02*
X020715Y021319D01*
X020715Y021476D02*
X021029Y021162D01*
X020872Y021162D02*
X020872Y021476D01*
X015104Y022873D02*
X015104Y022997D01*
X015042Y023059D01*
X014918Y023180D02*
X014918Y023427D01*
X014733Y023365D02*
X014918Y023180D01*
X014795Y023059D02*
X014733Y022997D01*
X014733Y022873D01*
X014795Y022812D01*
X015042Y022812D01*
X015104Y022873D01*
X015104Y023365D02*
X014733Y023365D01*
X008076Y020083D02*
X008076Y019960D01*
X008015Y019898D01*
X008015Y019777D02*
X008076Y019715D01*
X008076Y019591D01*
X008015Y019530D01*
X007768Y019530D01*
X007706Y019591D01*
X007706Y019715D01*
X007768Y019777D01*
X007768Y019898D02*
X007706Y019960D01*
X007706Y020083D01*
X007768Y020145D01*
X007830Y020145D01*
X007891Y020083D01*
X007953Y020145D01*
X008015Y020145D01*
X008076Y020083D01*
X007891Y020083D02*
X007891Y020022D01*
X007864Y010923D02*
X008009Y010923D01*
X008057Y010874D01*
X008057Y010826D01*
X008009Y010778D01*
X007864Y010778D01*
X007864Y010633D02*
X007864Y010923D01*
X008009Y010778D02*
X008057Y010729D01*
X008057Y010681D01*
X008009Y010633D01*
X007864Y010633D01*
X008159Y010633D02*
X008352Y010633D01*
X008453Y010584D02*
X008647Y010584D01*
X008748Y010633D02*
X008941Y010633D01*
X009043Y010633D02*
X009236Y010633D01*
X009139Y010633D02*
X009139Y010923D01*
X009043Y010826D01*
X008748Y010923D02*
X008748Y010633D01*
X008159Y010633D02*
X008159Y010923D01*
D39*
X008630Y009449D02*
X009430Y009449D01*
X009830Y009049D01*
X009830Y008249D01*
X009430Y007849D01*
X008630Y007849D01*
X008230Y008249D01*
X008230Y009049D01*
X008630Y009449D01*
X009810Y013033D02*
X007250Y013033D01*
X007250Y014765D01*
X009810Y014765D01*
X009810Y013033D01*
X007408Y013308D02*
X007410Y013327D01*
X007415Y013346D01*
X007425Y013362D01*
X007437Y013377D01*
X007452Y013389D01*
X007468Y013399D01*
X007487Y013404D01*
X007506Y013406D01*
X007525Y013404D01*
X007544Y013399D01*
X007560Y013389D01*
X007575Y013377D01*
X007587Y013362D01*
X007597Y013346D01*
X007602Y013327D01*
X007604Y013308D01*
X007602Y013289D01*
X007597Y013270D01*
X007587Y013254D01*
X007575Y013239D01*
X007560Y013227D01*
X007544Y013217D01*
X007525Y013212D01*
X007506Y013210D01*
X007487Y013212D01*
X007468Y013217D01*
X007452Y013227D01*
X007437Y013239D01*
X007425Y013254D01*
X007415Y013270D01*
X007410Y013289D01*
X007408Y013308D01*
X008530Y018726D02*
X008530Y022072D01*
X014530Y022072D01*
X014530Y018726D01*
X008530Y018726D01*
X017439Y010822D02*
X032998Y010822D01*
X032998Y018405D01*
X038097Y018405D01*
X038097Y019905D01*
X032998Y019905D01*
X032998Y018405D01*
X038097Y018405D02*
X038097Y010822D01*
X038097Y005164D01*
X037097Y005164D01*
X035726Y005164D01*
X029679Y005164D01*
X020266Y005164D01*
X017439Y005164D01*
X017439Y010822D01*
X020266Y005164D02*
X020266Y000125D01*
X029679Y000125D02*
X029679Y005164D01*
X035726Y005164D02*
X035726Y000125D01*
X037097Y000125D02*
X037097Y005164D01*
X038097Y010822D02*
X032998Y010822D01*
X042700Y022503D02*
X042625Y022578D01*
X042625Y022728D01*
X042700Y022803D01*
X043000Y022803D01*
X043075Y022728D01*
X043075Y022578D01*
X043000Y022503D01*
X042700Y022503D01*
X042925Y022653D02*
X043075Y022803D01*
X043075Y022964D02*
X043075Y023264D01*
X043075Y023114D02*
X042625Y023114D01*
X042775Y022964D01*
X044705Y024446D02*
X044705Y024596D01*
X044705Y024521D02*
X045155Y024521D01*
X045155Y024446D02*
X045155Y024596D01*
X045080Y024753D02*
X045155Y024828D01*
X045155Y024978D01*
X045080Y025053D01*
X045155Y025214D02*
X044855Y025514D01*
X044780Y025514D01*
X044705Y025439D01*
X044705Y025289D01*
X044780Y025214D01*
X044780Y025053D02*
X044705Y024978D01*
X044705Y024828D01*
X044780Y024753D01*
X045080Y024753D01*
X045155Y025214D02*
X045155Y025514D01*
X036750Y025479D02*
X036750Y026079D01*
X035350Y026079D01*
X035350Y025479D01*
X036750Y025479D01*
X019121Y030623D02*
X019121Y031175D01*
X018730Y031175D01*
X018330Y031175D02*
X017940Y031175D01*
X017940Y030623D01*
X017621Y030623D02*
X017621Y031175D01*
X017230Y031175D01*
X016830Y031175D02*
X016440Y031175D01*
X016440Y030623D01*
X016121Y030623D02*
X016121Y031175D01*
X015730Y031175D01*
X015330Y031175D02*
X014940Y031175D01*
X014940Y030623D01*
X014621Y030623D02*
X014621Y031175D01*
X014230Y031175D01*
X013830Y031175D02*
X013440Y031175D01*
X013440Y030623D01*
X013850Y030623D02*
X014210Y030623D01*
X015350Y030623D02*
X015710Y030623D01*
X016850Y030623D02*
X017210Y030623D01*
X018350Y030623D02*
X018710Y030623D01*
X018371Y028425D02*
X017980Y028425D01*
X018371Y028425D02*
X018371Y027873D01*
X017960Y027873D02*
X017600Y027873D01*
X017190Y027873D02*
X017190Y028425D01*
X017580Y028425D01*
X016621Y028425D02*
X016621Y027873D01*
X016210Y027873D02*
X015850Y027873D01*
X015440Y027873D02*
X015440Y028425D01*
X015830Y028425D01*
X016230Y028425D02*
X016621Y028425D01*
X014871Y028425D02*
X014871Y027873D01*
X014460Y027873D02*
X014100Y027873D01*
X013690Y027873D02*
X013690Y028425D01*
X014080Y028425D01*
X014480Y028425D02*
X014871Y028425D01*
X013121Y028425D02*
X013121Y027873D01*
X012710Y027873D02*
X012350Y027873D01*
X011940Y027873D02*
X011940Y028425D01*
X012330Y028425D01*
X012730Y028425D02*
X013121Y028425D01*
D40*
X019030Y023411D02*
X019030Y023387D01*
X021018Y024899D02*
X021042Y024899D01*
X010542Y016399D02*
X010518Y016399D01*
X007542Y016399D02*
X007518Y016399D01*
X009518Y011399D02*
X009542Y011399D01*
X025030Y015387D02*
X025030Y015411D01*
D41*
X031351Y016888D02*
X031351Y017629D01*
X031845Y016888D01*
X031845Y017629D01*
X032106Y017629D02*
X032106Y016888D01*
X032600Y016888D02*
X032106Y017629D01*
X032600Y017629D02*
X032600Y016888D01*
X032861Y017012D02*
X032984Y016888D01*
X033231Y016888D01*
X033355Y017012D01*
X033355Y017506D01*
X033231Y017629D01*
X032984Y017629D01*
X032861Y017506D01*
X032861Y017012D01*
X033616Y017012D02*
X033740Y016888D01*
X033986Y016888D01*
X034110Y017012D01*
X034110Y017506D01*
X033986Y017629D01*
X033740Y017629D01*
X033616Y017506D01*
X034371Y017752D02*
X034865Y017752D01*
X035126Y017506D02*
X035126Y017012D01*
X035250Y016888D01*
X035620Y016888D01*
X035620Y017629D01*
X035250Y017629D01*
X035126Y017506D01*
X035881Y017506D02*
X036005Y017629D01*
X036252Y017629D01*
X036375Y017506D01*
X036375Y017012D01*
X036252Y016888D01*
X036005Y016888D01*
X035881Y017012D01*
X036636Y017629D02*
X037130Y017629D01*
X037130Y016888D01*
X038465Y016793D02*
X039095Y016793D01*
X039095Y016792D02*
X039111Y016787D01*
X039127Y016779D01*
X039141Y016769D01*
X039153Y016757D01*
X039163Y016742D01*
X039170Y016726D01*
X039174Y016709D01*
X039175Y016692D01*
X039173Y016674D01*
X039173Y016124D02*
X039175Y016106D01*
X039174Y016089D01*
X039170Y016072D01*
X039163Y016056D01*
X039153Y016041D01*
X039141Y016029D01*
X039127Y016019D01*
X039111Y016011D01*
X039095Y016006D01*
X039095Y016005D02*
X038465Y016005D01*
X038465Y016006D02*
X038449Y016011D01*
X038433Y016019D01*
X038419Y016029D01*
X038407Y016041D01*
X038397Y016056D01*
X038390Y016072D01*
X038386Y016089D01*
X038385Y016106D01*
X038387Y016124D01*
X038387Y016674D02*
X038385Y016692D01*
X038386Y016709D01*
X038390Y016726D01*
X038397Y016742D01*
X038407Y016757D01*
X038419Y016769D01*
X038433Y016779D01*
X038449Y016787D01*
X038465Y016792D01*
X039772Y015673D02*
X039772Y013625D01*
X043788Y013625D01*
X043788Y015673D02*
X039772Y015673D01*
X043030Y009449D02*
X043530Y009449D01*
X043530Y008849D02*
X043030Y008849D01*
X043090Y006729D02*
X042590Y006729D01*
X042340Y006479D01*
X042090Y006729D01*
X041590Y006729D01*
X041340Y006479D01*
X041090Y006729D01*
X040590Y006729D01*
X040340Y006479D01*
X040090Y006729D01*
X039590Y006729D01*
X039340Y006479D01*
X039090Y006729D01*
X038590Y006729D01*
X038340Y006479D01*
X038090Y006729D01*
X037590Y006729D01*
X037340Y006479D01*
X037340Y005979D01*
X037590Y005729D01*
X038090Y005729D01*
X038340Y005979D01*
X038590Y005729D01*
X039090Y005729D01*
X039340Y005979D01*
X039590Y005729D01*
X040090Y005729D01*
X040340Y005979D01*
X040590Y005729D01*
X041090Y005729D01*
X041340Y005979D01*
X041590Y005729D01*
X042090Y005729D01*
X042340Y005979D01*
X042590Y005729D01*
X043090Y005729D01*
X043340Y005979D01*
X043590Y005729D01*
X044090Y005729D01*
X044340Y005979D01*
X044590Y005729D01*
X045090Y005729D01*
X045340Y005979D01*
X045340Y006479D01*
X045090Y006729D01*
X044590Y006729D01*
X044340Y006479D01*
X044090Y006729D01*
X043590Y006729D01*
X043340Y006479D01*
X043090Y006729D01*
X021959Y021689D02*
X021465Y021689D01*
X021712Y021689D02*
X021712Y022430D01*
X021465Y022183D01*
X021204Y022430D02*
X021204Y021812D01*
X021080Y021689D01*
X020833Y021689D01*
X020710Y021812D01*
X020710Y022430D01*
X008487Y022942D02*
X005573Y022942D01*
X005573Y025856D01*
X008487Y025856D01*
X008487Y022942D01*
X008201Y024399D02*
X008199Y024464D01*
X008194Y024529D01*
X008185Y024593D01*
X008172Y024656D01*
X008156Y024719D01*
X008136Y024781D01*
X008114Y024841D01*
X008087Y024900D01*
X008058Y024958D01*
X008025Y025014D01*
X007990Y025068D01*
X007951Y025120D01*
X007910Y025170D01*
X007866Y025217D01*
X007819Y025262D01*
X007770Y025304D01*
X007719Y025344D01*
X008201Y024399D02*
X008199Y024334D01*
X008194Y024269D01*
X008185Y024205D01*
X008172Y024142D01*
X008156Y024079D01*
X008136Y024017D01*
X008114Y023957D01*
X008087Y023898D01*
X008058Y023840D01*
X008025Y023784D01*
X007990Y023730D01*
X007951Y023678D01*
X007910Y023628D01*
X007866Y023581D01*
X007819Y023536D01*
X007770Y023494D01*
X007719Y023454D01*
X005859Y024399D02*
X005861Y024464D01*
X005866Y024529D01*
X005875Y024593D01*
X005888Y024656D01*
X005904Y024719D01*
X005924Y024781D01*
X005946Y024841D01*
X005973Y024900D01*
X006002Y024958D01*
X006035Y025014D01*
X006070Y025068D01*
X006109Y025120D01*
X006150Y025170D01*
X006194Y025217D01*
X006241Y025262D01*
X006290Y025304D01*
X006341Y025344D01*
X005859Y024399D02*
X005861Y024334D01*
X005866Y024269D01*
X005875Y024205D01*
X005888Y024142D01*
X005904Y024079D01*
X005924Y024017D01*
X005946Y023957D01*
X005973Y023898D01*
X006002Y023840D01*
X006035Y023784D01*
X006070Y023730D01*
X006109Y023678D01*
X006150Y023628D01*
X006194Y023581D01*
X006241Y023536D01*
X006290Y023494D01*
X006341Y023454D01*
X013730Y032649D02*
X013730Y033149D01*
X014330Y033149D02*
X014330Y032649D01*
X015230Y032649D02*
X015230Y033149D01*
X015830Y033149D02*
X015830Y032649D01*
X016730Y032649D02*
X016730Y033149D01*
X017330Y033149D02*
X017330Y032649D01*
X018230Y032649D02*
X018230Y033149D01*
X018830Y033149D02*
X018830Y032649D01*
X018780Y034399D02*
X019280Y034399D01*
X019530Y034649D01*
X019780Y034399D01*
X020280Y034399D01*
X020530Y034649D01*
X020530Y035149D01*
X020280Y035399D01*
X019780Y035399D01*
X019530Y035149D01*
X019280Y035399D01*
X018780Y035399D01*
X018530Y035149D01*
X018280Y035399D01*
X017780Y035399D01*
X017530Y035149D01*
X017280Y035399D01*
X016780Y035399D01*
X016530Y035149D01*
X016280Y035399D01*
X015780Y035399D01*
X015530Y035149D01*
X015280Y035399D01*
X014780Y035399D01*
X014530Y035149D01*
X014280Y035399D01*
X013780Y035399D01*
X013530Y035149D01*
X013280Y035399D01*
X012780Y035399D01*
X012530Y035149D01*
X012530Y034649D01*
X012780Y034399D01*
X013280Y034399D01*
X013530Y034649D01*
X013780Y034399D01*
X014280Y034399D01*
X014530Y034649D01*
X014780Y034399D01*
X015280Y034399D01*
X015530Y034649D01*
X015780Y034399D01*
X016280Y034399D01*
X016530Y034649D01*
X016780Y034399D01*
X017280Y034399D01*
X017530Y034649D01*
X017780Y034399D01*
X018280Y034399D01*
X018530Y034649D01*
X018780Y034399D01*
X043530Y031899D02*
X043530Y031399D01*
X043780Y031149D01*
X043530Y030899D01*
X043530Y030399D01*
X043780Y030149D01*
X043530Y029899D01*
X043530Y029399D01*
X043780Y029149D01*
X043530Y028899D01*
X043530Y028399D01*
X043780Y028149D01*
X043530Y027899D01*
X043530Y027399D01*
X043780Y027149D01*
X044280Y027149D01*
X044530Y027399D01*
X044530Y027899D01*
X044280Y028149D01*
X044530Y028399D01*
X044530Y028899D01*
X044280Y029149D01*
X044530Y029399D01*
X044530Y029899D01*
X044280Y030149D01*
X044530Y030399D01*
X044530Y030899D01*
X044280Y031149D01*
X044530Y031399D01*
X044530Y031899D01*
X044280Y032149D01*
X043780Y032149D01*
X043530Y031899D01*
X044990Y031809D02*
X045240Y031559D01*
X044990Y031309D01*
X044990Y030809D01*
X045240Y030559D01*
X045740Y030559D01*
X045990Y030809D01*
X045990Y031309D01*
X045740Y031559D01*
X045990Y031809D01*
X045990Y032309D01*
X045740Y032559D01*
X045990Y032809D01*
X045990Y033309D01*
X045740Y033559D01*
X045990Y033809D01*
X045990Y034309D01*
X045740Y034559D01*
X045990Y034809D01*
X045990Y035309D01*
X045740Y035559D01*
X045240Y035559D01*
X044990Y035309D01*
X044990Y034809D01*
X045240Y034559D01*
X044990Y034309D01*
X044990Y033809D01*
X045240Y033559D01*
X044990Y033309D01*
X044990Y032809D01*
X045240Y032559D01*
X044990Y032309D01*
X044990Y031809D01*
X044410Y033639D02*
X043910Y033639D01*
X043660Y033889D01*
X043660Y034389D01*
X043910Y034639D01*
X043660Y034889D01*
X043660Y035389D01*
X043910Y035639D01*
X043660Y035889D01*
X043660Y036389D01*
X043910Y036639D01*
X044410Y036639D01*
X044660Y036389D01*
X044660Y035889D01*
X044410Y035639D01*
X044660Y035389D01*
X044660Y034889D01*
X044410Y034639D01*
X044660Y034389D01*
X044660Y033889D01*
X044410Y033639D01*
X016300Y006719D02*
X016050Y006969D01*
X015550Y006969D01*
X015300Y006719D01*
X015300Y006219D01*
X015550Y005969D01*
X016050Y005969D01*
X016300Y006219D01*
X016300Y006719D01*
D42*
X040700Y019799D02*
X040700Y022499D01*
X041000Y022499D02*
X041000Y019799D01*
X042000Y019799D02*
X042000Y022499D01*
X042300Y022499D02*
X042300Y019799D01*
X041500Y020749D02*
X041500Y020899D01*
X041500Y021399D02*
X041500Y021549D01*
X042530Y025529D02*
X044530Y025529D01*
D43*
X038569Y013149D03*
X038569Y011399D03*
X041280Y008938D03*
D44*
X041955Y019131D02*
X041945Y019146D01*
X041946Y019146D02*
X041990Y019178D01*
X042032Y019213D01*
X042071Y019252D01*
X042108Y019293D01*
X042141Y019336D01*
X042172Y019381D01*
X042199Y019429D01*
X042223Y019478D01*
X042244Y019529D01*
X042260Y019581D01*
X042274Y019635D01*
X042283Y019689D01*
X042289Y019743D01*
X042291Y019798D01*
X042308Y019799D01*
X042309Y019798D01*
X042307Y019742D01*
X042301Y019686D01*
X042291Y019631D01*
X042278Y019576D01*
X042261Y019523D01*
X042240Y019471D01*
X042215Y019421D01*
X042187Y019372D01*
X042156Y019325D01*
X042121Y019281D01*
X042084Y019239D01*
X042044Y019200D01*
X042001Y019164D01*
X041956Y019131D01*
X041955Y019132D01*
X042000Y019165D01*
X042043Y019201D01*
X042083Y019240D01*
X042121Y019282D01*
X042155Y019326D01*
X042186Y019373D01*
X042214Y019421D01*
X042239Y019472D01*
X042260Y019523D01*
X042277Y019577D01*
X042290Y019631D01*
X042300Y019686D01*
X042306Y019742D01*
X042308Y019798D01*
X042307Y019798D01*
X042305Y019742D01*
X042299Y019686D01*
X042289Y019631D01*
X042276Y019577D01*
X042259Y019524D01*
X042238Y019472D01*
X042213Y019422D01*
X042185Y019373D01*
X042154Y019327D01*
X042120Y019282D01*
X042083Y019241D01*
X042043Y019202D01*
X042000Y019165D01*
X041955Y019132D01*
X041954Y019133D01*
X041999Y019166D01*
X042042Y019202D01*
X042082Y019241D01*
X042119Y019283D01*
X042153Y019327D01*
X042185Y019374D01*
X042212Y019422D01*
X042237Y019472D01*
X042258Y019524D01*
X042275Y019577D01*
X042288Y019632D01*
X042298Y019687D01*
X042304Y019742D01*
X042306Y019798D01*
X042305Y019798D01*
X042303Y019742D01*
X042297Y019687D01*
X042287Y019632D01*
X042274Y019578D01*
X042257Y019524D01*
X042236Y019473D01*
X042212Y019423D01*
X042184Y019374D01*
X042153Y019328D01*
X042118Y019284D01*
X042081Y019242D01*
X042041Y019203D01*
X041999Y019167D01*
X041954Y019134D01*
X041953Y019135D01*
X041998Y019168D01*
X042041Y019204D01*
X042080Y019243D01*
X042118Y019284D01*
X042152Y019328D01*
X042183Y019375D01*
X042211Y019423D01*
X042235Y019473D01*
X042256Y019525D01*
X042273Y019578D01*
X042286Y019632D01*
X042296Y019687D01*
X042302Y019742D01*
X042304Y019798D01*
X042303Y019798D01*
X042301Y019742D01*
X042295Y019687D01*
X042285Y019632D01*
X042272Y019578D01*
X042255Y019525D01*
X042234Y019474D01*
X042210Y019423D01*
X042182Y019375D01*
X042151Y019329D01*
X042117Y019285D01*
X042080Y019243D01*
X042040Y019205D01*
X041997Y019169D01*
X041953Y019136D01*
X041952Y019136D01*
X041997Y019169D01*
X042039Y019205D01*
X042079Y019244D01*
X042116Y019286D01*
X042150Y019330D01*
X042181Y019376D01*
X042209Y019424D01*
X042233Y019474D01*
X042254Y019526D01*
X042271Y019578D01*
X042285Y019632D01*
X042294Y019687D01*
X042300Y019742D01*
X042302Y019798D01*
X042301Y019798D01*
X042299Y019743D01*
X042293Y019687D01*
X042284Y019633D01*
X042270Y019579D01*
X042253Y019526D01*
X042232Y019474D01*
X042208Y019424D01*
X042180Y019376D01*
X042149Y019330D01*
X042115Y019286D01*
X042078Y019245D01*
X042039Y019206D01*
X041996Y019170D01*
X041951Y019137D01*
X041951Y019138D01*
X041996Y019171D01*
X042038Y019207D01*
X042078Y019245D01*
X042115Y019287D01*
X042149Y019331D01*
X042179Y019377D01*
X042207Y019425D01*
X042231Y019475D01*
X042252Y019526D01*
X042269Y019579D01*
X042283Y019633D01*
X042292Y019687D01*
X042298Y019743D01*
X042300Y019798D01*
X042299Y019798D01*
X042297Y019743D01*
X042291Y019688D01*
X042282Y019633D01*
X042268Y019579D01*
X042251Y019527D01*
X042230Y019475D01*
X042206Y019425D01*
X042179Y019377D01*
X042148Y019331D01*
X042114Y019287D01*
X042077Y019246D01*
X042037Y019208D01*
X041995Y019172D01*
X041950Y019139D01*
X041950Y019140D01*
X041994Y019173D01*
X042037Y019208D01*
X042076Y019247D01*
X042113Y019288D01*
X042147Y019332D01*
X042178Y019378D01*
X042205Y019426D01*
X042230Y019476D01*
X042250Y019527D01*
X042267Y019580D01*
X042281Y019633D01*
X042290Y019688D01*
X042296Y019743D01*
X042298Y019798D01*
X042297Y019798D01*
X042295Y019743D01*
X042289Y019688D01*
X042280Y019633D01*
X042266Y019580D01*
X042249Y019527D01*
X042229Y019476D01*
X042204Y019426D01*
X042177Y019378D01*
X042146Y019332D01*
X042112Y019289D01*
X042075Y019248D01*
X042036Y019209D01*
X041994Y019173D01*
X041949Y019141D01*
X041993Y019174D01*
X042035Y019210D01*
X042075Y019248D01*
X042112Y019289D01*
X042145Y019333D01*
X042176Y019379D01*
X042204Y019427D01*
X042228Y019476D01*
X042248Y019528D01*
X042265Y019580D01*
X042279Y019634D01*
X042288Y019688D01*
X042294Y019743D01*
X042296Y019798D01*
X042295Y019798D01*
X042293Y019743D01*
X042287Y019688D01*
X042278Y019634D01*
X042264Y019580D01*
X042247Y019528D01*
X042227Y019477D01*
X042203Y019427D01*
X042175Y019379D01*
X042145Y019334D01*
X042111Y019290D01*
X042074Y019249D01*
X042035Y019211D01*
X041992Y019175D01*
X041948Y019142D01*
X041947Y019143D01*
X041992Y019176D01*
X042034Y019211D01*
X042073Y019250D01*
X042110Y019291D01*
X042144Y019334D01*
X042174Y019380D01*
X042202Y019428D01*
X042226Y019477D01*
X042246Y019528D01*
X042263Y019581D01*
X042277Y019634D01*
X042286Y019688D01*
X042292Y019743D01*
X042294Y019798D01*
X042293Y019798D01*
X042291Y019743D01*
X042285Y019688D01*
X042276Y019634D01*
X042262Y019581D01*
X042245Y019529D01*
X042225Y019478D01*
X042201Y019428D01*
X042174Y019380D01*
X042143Y019335D01*
X042109Y019291D01*
X042073Y019250D01*
X042033Y019212D01*
X041991Y019176D01*
X041947Y019144D01*
X041946Y019145D01*
X041991Y019177D01*
X042032Y019213D01*
X042072Y019251D01*
X042108Y019292D01*
X042142Y019335D01*
X042173Y019381D01*
X042200Y019429D01*
X042224Y019478D01*
X042245Y019529D01*
X042261Y019581D01*
X042275Y019634D01*
X042284Y019689D01*
X042290Y019743D01*
X042292Y019798D01*
X040692Y019798D02*
X040710Y019798D01*
X040709Y019798D02*
X040711Y019743D01*
X040717Y019689D01*
X040726Y019635D01*
X040740Y019581D01*
X040756Y019529D01*
X040777Y019478D01*
X040801Y019429D01*
X040828Y019381D01*
X040859Y019336D01*
X040892Y019293D01*
X040929Y019252D01*
X040968Y019213D01*
X041010Y019178D01*
X041054Y019146D01*
X041045Y019131D01*
X041044Y019131D01*
X040999Y019164D01*
X040956Y019200D01*
X040916Y019239D01*
X040879Y019281D01*
X040844Y019325D01*
X040813Y019372D01*
X040785Y019421D01*
X040760Y019471D01*
X040740Y019523D01*
X040722Y019576D01*
X040709Y019631D01*
X040699Y019686D01*
X040693Y019742D01*
X040691Y019798D01*
X040692Y019798D01*
X040694Y019742D01*
X040700Y019686D01*
X040710Y019631D01*
X040723Y019577D01*
X040740Y019523D01*
X040761Y019471D01*
X040786Y019421D01*
X040814Y019372D01*
X040845Y019326D01*
X040879Y019282D01*
X040917Y019240D01*
X040957Y019201D01*
X041000Y019165D01*
X041045Y019131D01*
X041045Y019132D01*
X041000Y019165D01*
X040957Y019202D01*
X040917Y019241D01*
X040880Y019282D01*
X040846Y019327D01*
X040815Y019373D01*
X040787Y019422D01*
X040762Y019472D01*
X040741Y019524D01*
X040724Y019577D01*
X040711Y019631D01*
X040701Y019686D01*
X040695Y019742D01*
X040693Y019798D01*
X040694Y019798D01*
X040696Y019742D01*
X040702Y019687D01*
X040712Y019631D01*
X040725Y019577D01*
X040742Y019524D01*
X040763Y019472D01*
X040788Y019422D01*
X040815Y019374D01*
X040847Y019327D01*
X040881Y019283D01*
X040918Y019241D01*
X040958Y019202D01*
X041001Y019166D01*
X041046Y019133D01*
X041046Y019134D01*
X041001Y019167D01*
X040959Y019203D01*
X040919Y019242D01*
X040882Y019284D01*
X040847Y019328D01*
X040816Y019374D01*
X040788Y019422D01*
X040764Y019473D01*
X040743Y019524D01*
X040726Y019578D01*
X040713Y019632D01*
X040703Y019687D01*
X040697Y019742D01*
X040695Y019798D01*
X040696Y019798D01*
X040698Y019742D01*
X040704Y019687D01*
X040714Y019632D01*
X040727Y019578D01*
X040744Y019525D01*
X040765Y019473D01*
X040789Y019423D01*
X040817Y019375D01*
X040848Y019328D01*
X040882Y019284D01*
X040920Y019243D01*
X040959Y019204D01*
X041002Y019168D01*
X041047Y019135D01*
X041048Y019136D01*
X041003Y019169D01*
X040960Y019205D01*
X040920Y019243D01*
X040883Y019285D01*
X040849Y019329D01*
X040818Y019375D01*
X040790Y019423D01*
X040766Y019473D01*
X040745Y019525D01*
X040728Y019578D01*
X040715Y019632D01*
X040705Y019687D01*
X040699Y019742D01*
X040697Y019798D01*
X040698Y019798D01*
X040700Y019742D01*
X040706Y019687D01*
X040716Y019632D01*
X040729Y019578D01*
X040746Y019525D01*
X040767Y019474D01*
X040791Y019424D01*
X040819Y019376D01*
X040850Y019329D01*
X040884Y019286D01*
X040921Y019244D01*
X040961Y019205D01*
X041003Y019169D01*
X041048Y019136D01*
X041049Y019137D01*
X041004Y019170D01*
X040961Y019206D01*
X040922Y019245D01*
X040885Y019286D01*
X040851Y019330D01*
X040820Y019376D01*
X040792Y019424D01*
X040768Y019474D01*
X040747Y019526D01*
X040730Y019579D01*
X040716Y019633D01*
X040707Y019687D01*
X040701Y019742D01*
X040699Y019798D01*
X040700Y019798D01*
X040702Y019743D01*
X040708Y019687D01*
X040717Y019633D01*
X040731Y019579D01*
X040748Y019526D01*
X040769Y019475D01*
X040793Y019425D01*
X040821Y019377D01*
X040851Y019331D01*
X040885Y019287D01*
X040922Y019245D01*
X040962Y019207D01*
X041005Y019171D01*
X041049Y019138D01*
X041050Y019139D01*
X041005Y019172D01*
X040963Y019208D01*
X040923Y019246D01*
X040886Y019287D01*
X040852Y019331D01*
X040821Y019377D01*
X040794Y019425D01*
X040770Y019475D01*
X040749Y019526D01*
X040732Y019579D01*
X040718Y019633D01*
X040709Y019687D01*
X040703Y019743D01*
X040701Y019798D01*
X040702Y019798D01*
X040704Y019743D01*
X040710Y019688D01*
X040719Y019633D01*
X040733Y019579D01*
X040750Y019527D01*
X040771Y019475D01*
X040795Y019426D01*
X040822Y019378D01*
X040853Y019332D01*
X040887Y019288D01*
X040924Y019247D01*
X040964Y019208D01*
X041006Y019172D01*
X041050Y019140D01*
X041051Y019141D01*
X041006Y019173D01*
X040964Y019209D01*
X040925Y019248D01*
X040888Y019289D01*
X040854Y019332D01*
X040823Y019378D01*
X040796Y019426D01*
X040771Y019476D01*
X040751Y019527D01*
X040734Y019580D01*
X040720Y019633D01*
X040711Y019688D01*
X040705Y019743D01*
X040703Y019798D01*
X040704Y019798D01*
X040706Y019743D01*
X040712Y019688D01*
X040721Y019634D01*
X040735Y019580D01*
X040752Y019528D01*
X040772Y019476D01*
X040796Y019427D01*
X040824Y019379D01*
X040855Y019333D01*
X040889Y019289D01*
X040925Y019248D01*
X040965Y019210D01*
X041007Y019174D01*
X041051Y019141D01*
X041052Y019142D01*
X041008Y019175D01*
X040966Y019210D01*
X040926Y019249D01*
X040889Y019290D01*
X040855Y019334D01*
X040825Y019379D01*
X040797Y019427D01*
X040773Y019477D01*
X040753Y019528D01*
X040736Y019580D01*
X040722Y019634D01*
X040713Y019688D01*
X040707Y019743D01*
X040705Y019798D01*
X040706Y019798D01*
X040708Y019743D01*
X040714Y019688D01*
X040723Y019634D01*
X040737Y019581D01*
X040754Y019528D01*
X040774Y019477D01*
X040798Y019428D01*
X040826Y019380D01*
X040856Y019334D01*
X040890Y019291D01*
X040927Y019250D01*
X040966Y019211D01*
X041008Y019176D01*
X041053Y019143D01*
X041053Y019144D01*
X041009Y019176D01*
X040967Y019212D01*
X040927Y019250D01*
X040891Y019291D01*
X040857Y019335D01*
X040826Y019380D01*
X040799Y019428D01*
X040775Y019478D01*
X040755Y019529D01*
X040738Y019581D01*
X040724Y019634D01*
X040715Y019688D01*
X040709Y019743D01*
X040707Y019798D01*
X040708Y019798D01*
X040710Y019743D01*
X040716Y019688D01*
X040725Y019634D01*
X040739Y019581D01*
X040755Y019529D01*
X040776Y019478D01*
X040800Y019429D01*
X040827Y019381D01*
X040858Y019335D01*
X040892Y019292D01*
X040928Y019251D01*
X040968Y019213D01*
X041009Y019177D01*
X041054Y019145D01*
X040992Y019799D02*
X041010Y019799D01*
X041009Y019798D02*
X041011Y019754D01*
X041017Y019711D01*
X041027Y019668D01*
X041040Y019626D01*
X041058Y019586D01*
X041042Y019579D01*
X041041Y019578D01*
X041026Y019613D01*
X041014Y019649D01*
X041004Y019685D01*
X040997Y019722D01*
X040992Y019760D01*
X040991Y019798D01*
X040992Y019798D01*
X040993Y019760D01*
X040998Y019723D01*
X041005Y019685D01*
X041015Y019649D01*
X041027Y019613D01*
X041042Y019578D01*
X041043Y019579D01*
X041028Y019614D01*
X041016Y019649D01*
X041006Y019686D01*
X040999Y019723D01*
X040994Y019760D01*
X040993Y019798D01*
X040994Y019798D01*
X040995Y019760D01*
X041000Y019723D01*
X041007Y019686D01*
X041017Y019649D01*
X041029Y019614D01*
X041044Y019579D01*
X041045Y019580D01*
X041030Y019614D01*
X041018Y019650D01*
X041008Y019686D01*
X041001Y019723D01*
X040996Y019760D01*
X040995Y019798D01*
X040996Y019798D01*
X040997Y019760D01*
X041002Y019723D01*
X041009Y019686D01*
X041019Y019650D01*
X041031Y019615D01*
X041046Y019580D01*
X041047Y019581D01*
X041032Y019615D01*
X041019Y019650D01*
X041010Y019687D01*
X041003Y019723D01*
X040998Y019761D01*
X040997Y019798D01*
X040998Y019798D01*
X040999Y019761D01*
X041004Y019723D01*
X041011Y019687D01*
X041020Y019651D01*
X041033Y019615D01*
X041048Y019581D01*
X041049Y019582D01*
X041034Y019616D01*
X041021Y019651D01*
X041012Y019687D01*
X041005Y019724D01*
X041000Y019761D01*
X040999Y019798D01*
X041000Y019798D01*
X041001Y019761D01*
X041006Y019724D01*
X041013Y019687D01*
X041022Y019651D01*
X041035Y019616D01*
X041050Y019582D01*
X041036Y019616D01*
X041023Y019652D01*
X041014Y019687D01*
X041007Y019724D01*
X041002Y019761D01*
X041001Y019798D01*
X041002Y019798D01*
X041003Y019761D01*
X041008Y019724D01*
X041015Y019688D01*
X041024Y019652D01*
X041037Y019617D01*
X041051Y019583D01*
X041052Y019583D01*
X041037Y019617D01*
X041025Y019652D01*
X041016Y019688D01*
X041009Y019724D01*
X041004Y019761D01*
X041003Y019798D01*
X041004Y019798D01*
X041006Y019754D01*
X041012Y019710D01*
X041022Y019667D01*
X041036Y019624D01*
X041053Y019584D01*
X041054Y019584D01*
X041037Y019625D01*
X041023Y019667D01*
X041013Y019710D01*
X041007Y019754D01*
X041005Y019798D01*
X041006Y019798D01*
X041008Y019754D01*
X041014Y019710D01*
X041024Y019667D01*
X041038Y019625D01*
X041055Y019585D01*
X041056Y019585D01*
X041039Y019626D01*
X041025Y019667D01*
X041015Y019710D01*
X041009Y019754D01*
X041007Y019798D01*
X041008Y019798D01*
X041010Y019754D01*
X041016Y019711D01*
X041026Y019668D01*
X041039Y019626D01*
X041057Y019585D01*
X041958Y019579D02*
X041942Y019586D01*
X041960Y019626D01*
X041973Y019668D01*
X041983Y019711D01*
X041989Y019754D01*
X041991Y019798D01*
X042008Y019799D01*
X042009Y019798D01*
X042008Y019760D01*
X042003Y019722D01*
X041996Y019685D01*
X041986Y019649D01*
X041974Y019613D01*
X041959Y019578D01*
X041958Y019578D01*
X041973Y019613D01*
X041985Y019649D01*
X041995Y019685D01*
X042002Y019723D01*
X042007Y019760D01*
X042008Y019798D01*
X042007Y019798D01*
X042006Y019760D01*
X042001Y019723D01*
X041994Y019686D01*
X041984Y019649D01*
X041972Y019614D01*
X041957Y019579D01*
X041956Y019579D01*
X041971Y019614D01*
X041983Y019649D01*
X041993Y019686D01*
X042000Y019723D01*
X042005Y019760D01*
X042006Y019798D01*
X042005Y019798D01*
X042004Y019760D01*
X041999Y019723D01*
X041992Y019686D01*
X041982Y019650D01*
X041970Y019614D01*
X041955Y019580D01*
X041954Y019580D01*
X041969Y019615D01*
X041981Y019650D01*
X041991Y019686D01*
X041998Y019723D01*
X042003Y019760D01*
X042004Y019798D01*
X042003Y019798D01*
X042002Y019761D01*
X041997Y019723D01*
X041990Y019687D01*
X041981Y019650D01*
X041968Y019615D01*
X041953Y019581D01*
X041952Y019581D01*
X041967Y019615D01*
X041980Y019651D01*
X041989Y019687D01*
X041996Y019723D01*
X042001Y019761D01*
X042002Y019798D01*
X042001Y019798D01*
X042000Y019761D01*
X041995Y019724D01*
X041988Y019687D01*
X041979Y019651D01*
X041966Y019616D01*
X041951Y019582D01*
X041950Y019582D01*
X041965Y019616D01*
X041978Y019651D01*
X041987Y019687D01*
X041994Y019724D01*
X041999Y019761D01*
X042000Y019798D01*
X041999Y019798D01*
X041998Y019761D01*
X041993Y019724D01*
X041986Y019687D01*
X041977Y019652D01*
X041964Y019616D01*
X041950Y019582D01*
X041949Y019583D01*
X041963Y019617D01*
X041976Y019652D01*
X041985Y019688D01*
X041992Y019724D01*
X041997Y019761D01*
X041998Y019798D01*
X041997Y019798D01*
X041996Y019761D01*
X041991Y019724D01*
X041984Y019688D01*
X041975Y019652D01*
X041963Y019617D01*
X041948Y019583D01*
X041947Y019584D01*
X041964Y019624D01*
X041978Y019667D01*
X041988Y019710D01*
X041994Y019754D01*
X041996Y019798D01*
X041995Y019798D01*
X041993Y019754D01*
X041987Y019710D01*
X041977Y019667D01*
X041963Y019625D01*
X041946Y019584D01*
X041945Y019585D01*
X041962Y019625D01*
X041976Y019667D01*
X041986Y019710D01*
X041992Y019754D01*
X041994Y019798D01*
X041993Y019798D01*
X041991Y019754D01*
X041985Y019710D01*
X041975Y019667D01*
X041961Y019626D01*
X041944Y019585D01*
X041943Y019585D01*
X041961Y019626D01*
X041974Y019668D01*
X041984Y019711D01*
X041990Y019754D01*
X041992Y019798D01*
X042308Y022500D02*
X042290Y022500D01*
X042291Y022500D02*
X042289Y022555D01*
X042283Y022609D01*
X042274Y022663D01*
X042260Y022717D01*
X042244Y022769D01*
X042223Y022820D01*
X042199Y022869D01*
X042172Y022917D01*
X042141Y022962D01*
X042108Y023005D01*
X042071Y023046D01*
X042032Y023085D01*
X041990Y023120D01*
X041946Y023152D01*
X041955Y023167D01*
X041956Y023167D01*
X042001Y023134D01*
X042044Y023098D01*
X042084Y023059D01*
X042121Y023017D01*
X042156Y022973D01*
X042187Y022926D01*
X042215Y022877D01*
X042240Y022827D01*
X042260Y022775D01*
X042278Y022722D01*
X042291Y022667D01*
X042301Y022612D01*
X042307Y022556D01*
X042309Y022500D01*
X042308Y022500D01*
X042306Y022556D01*
X042300Y022612D01*
X042290Y022667D01*
X042277Y022721D01*
X042260Y022775D01*
X042239Y022827D01*
X042214Y022877D01*
X042186Y022926D01*
X042155Y022972D01*
X042121Y023016D01*
X042083Y023058D01*
X042043Y023097D01*
X042000Y023133D01*
X041955Y023167D01*
X041955Y023166D01*
X042000Y023133D01*
X042043Y023096D01*
X042083Y023057D01*
X042120Y023016D01*
X042154Y022971D01*
X042185Y022925D01*
X042213Y022876D01*
X042238Y022826D01*
X042259Y022774D01*
X042276Y022721D01*
X042289Y022667D01*
X042299Y022612D01*
X042305Y022556D01*
X042307Y022500D01*
X042306Y022500D01*
X042304Y022556D01*
X042298Y022611D01*
X042288Y022666D01*
X042275Y022721D01*
X042258Y022774D01*
X042237Y022826D01*
X042212Y022876D01*
X042185Y022924D01*
X042153Y022971D01*
X042119Y023015D01*
X042082Y023057D01*
X042042Y023096D01*
X041999Y023132D01*
X041954Y023165D01*
X041954Y023164D01*
X041999Y023131D01*
X042041Y023095D01*
X042081Y023056D01*
X042118Y023014D01*
X042153Y022970D01*
X042184Y022924D01*
X042212Y022876D01*
X042236Y022825D01*
X042257Y022774D01*
X042274Y022720D01*
X042287Y022666D01*
X042297Y022611D01*
X042303Y022556D01*
X042305Y022500D01*
X042304Y022500D01*
X042302Y022556D01*
X042296Y022611D01*
X042286Y022666D01*
X042273Y022720D01*
X042256Y022773D01*
X042235Y022825D01*
X042211Y022875D01*
X042183Y022923D01*
X042152Y022970D01*
X042118Y023014D01*
X042080Y023055D01*
X042041Y023094D01*
X041998Y023130D01*
X041953Y023163D01*
X041952Y023162D01*
X041997Y023129D01*
X042040Y023093D01*
X042080Y023055D01*
X042117Y023013D01*
X042151Y022969D01*
X042182Y022923D01*
X042210Y022875D01*
X042234Y022825D01*
X042255Y022773D01*
X042272Y022720D01*
X042285Y022666D01*
X042295Y022611D01*
X042301Y022556D01*
X042303Y022500D01*
X042302Y022500D01*
X042300Y022556D01*
X042294Y022611D01*
X042284Y022666D01*
X042271Y022720D01*
X042254Y022773D01*
X042233Y022824D01*
X042209Y022874D01*
X042181Y022922D01*
X042150Y022969D01*
X042116Y023012D01*
X042079Y023054D01*
X042039Y023093D01*
X041997Y023129D01*
X041952Y023162D01*
X041951Y023161D01*
X041996Y023128D01*
X042039Y023092D01*
X042078Y023053D01*
X042115Y023012D01*
X042149Y022968D01*
X042180Y022922D01*
X042208Y022874D01*
X042232Y022824D01*
X042253Y022772D01*
X042270Y022719D01*
X042284Y022665D01*
X042293Y022611D01*
X042299Y022556D01*
X042301Y022500D01*
X042300Y022500D01*
X042298Y022555D01*
X042292Y022611D01*
X042283Y022665D01*
X042269Y022719D01*
X042252Y022772D01*
X042231Y022823D01*
X042207Y022873D01*
X042179Y022921D01*
X042149Y022967D01*
X042115Y023011D01*
X042078Y023053D01*
X042038Y023091D01*
X041996Y023127D01*
X041951Y023160D01*
X041950Y023159D01*
X041995Y023126D01*
X042037Y023090D01*
X042077Y023052D01*
X042114Y023011D01*
X042148Y022967D01*
X042179Y022921D01*
X042206Y022873D01*
X042230Y022823D01*
X042251Y022771D01*
X042268Y022719D01*
X042282Y022665D01*
X042291Y022610D01*
X042297Y022555D01*
X042299Y022500D01*
X042298Y022500D01*
X042296Y022555D01*
X042290Y022610D01*
X042281Y022665D01*
X042267Y022719D01*
X042250Y022771D01*
X042229Y022822D01*
X042205Y022872D01*
X042178Y022920D01*
X042147Y022966D01*
X042113Y023010D01*
X042076Y023051D01*
X042037Y023090D01*
X041994Y023125D01*
X041950Y023158D01*
X041949Y023157D01*
X041994Y023125D01*
X042036Y023089D01*
X042075Y023050D01*
X042112Y023009D01*
X042146Y022966D01*
X042177Y022920D01*
X042204Y022872D01*
X042229Y022822D01*
X042249Y022771D01*
X042266Y022718D01*
X042280Y022665D01*
X042289Y022610D01*
X042295Y022555D01*
X042297Y022500D01*
X042296Y022500D01*
X042294Y022555D01*
X042288Y022610D01*
X042279Y022664D01*
X042265Y022718D01*
X042248Y022770D01*
X042228Y022822D01*
X042204Y022871D01*
X042176Y022919D01*
X042145Y022965D01*
X042111Y023009D01*
X042075Y023050D01*
X042035Y023088D01*
X041993Y023124D01*
X041949Y023157D01*
X041948Y023156D01*
X041992Y023123D01*
X042034Y023088D01*
X042074Y023049D01*
X042111Y023008D01*
X042145Y022964D01*
X042175Y022919D01*
X042203Y022871D01*
X042227Y022821D01*
X042247Y022770D01*
X042264Y022718D01*
X042278Y022664D01*
X042287Y022610D01*
X042293Y022555D01*
X042295Y022500D01*
X042294Y022500D01*
X042292Y022555D01*
X042286Y022610D01*
X042277Y022664D01*
X042263Y022717D01*
X042246Y022770D01*
X042226Y022821D01*
X042202Y022870D01*
X042174Y022918D01*
X042144Y022964D01*
X042110Y023007D01*
X042073Y023048D01*
X042034Y023087D01*
X041992Y023122D01*
X041947Y023155D01*
X041947Y023154D01*
X041991Y023122D01*
X042033Y023086D01*
X042073Y023048D01*
X042109Y023007D01*
X042143Y022963D01*
X042174Y022918D01*
X042201Y022870D01*
X042225Y022820D01*
X042245Y022769D01*
X042262Y022717D01*
X042276Y022664D01*
X042285Y022610D01*
X042291Y022555D01*
X042293Y022500D01*
X042292Y022500D01*
X042290Y022555D01*
X042284Y022610D01*
X042275Y022664D01*
X042261Y022717D01*
X042245Y022769D01*
X042224Y022820D01*
X042200Y022869D01*
X042173Y022917D01*
X042142Y022963D01*
X042108Y023006D01*
X042072Y023047D01*
X042032Y023085D01*
X041991Y023121D01*
X041946Y023153D01*
X041045Y023167D02*
X041055Y023152D01*
X041054Y023152D02*
X041010Y023120D01*
X040968Y023085D01*
X040929Y023046D01*
X040892Y023005D01*
X040859Y022962D01*
X040828Y022917D01*
X040801Y022869D01*
X040777Y022820D01*
X040756Y022769D01*
X040740Y022717D01*
X040726Y022663D01*
X040717Y022609D01*
X040711Y022555D01*
X040709Y022500D01*
X040692Y022499D01*
X040691Y022500D01*
X040693Y022556D01*
X040699Y022612D01*
X040709Y022667D01*
X040722Y022722D01*
X040739Y022775D01*
X040760Y022827D01*
X040785Y022877D01*
X040813Y022926D01*
X040844Y022973D01*
X040879Y023017D01*
X040916Y023059D01*
X040956Y023098D01*
X040999Y023134D01*
X041044Y023167D01*
X041045Y023166D01*
X041000Y023133D01*
X040957Y023097D01*
X040917Y023058D01*
X040879Y023016D01*
X040845Y022972D01*
X040814Y022925D01*
X040786Y022877D01*
X040761Y022826D01*
X040740Y022775D01*
X040723Y022721D01*
X040710Y022667D01*
X040700Y022612D01*
X040694Y022556D01*
X040692Y022500D01*
X040693Y022500D01*
X040695Y022556D01*
X040701Y022612D01*
X040711Y022667D01*
X040724Y022721D01*
X040741Y022774D01*
X040762Y022826D01*
X040787Y022876D01*
X040815Y022925D01*
X040846Y022971D01*
X040880Y023016D01*
X040917Y023057D01*
X040957Y023096D01*
X041000Y023133D01*
X041045Y023166D01*
X041046Y023165D01*
X041001Y023132D01*
X040958Y023096D01*
X040918Y023057D01*
X040881Y023015D01*
X040847Y022971D01*
X040815Y022924D01*
X040788Y022876D01*
X040763Y022826D01*
X040742Y022774D01*
X040725Y022721D01*
X040712Y022666D01*
X040702Y022611D01*
X040696Y022556D01*
X040694Y022500D01*
X040695Y022500D01*
X040697Y022556D01*
X040703Y022611D01*
X040713Y022666D01*
X040726Y022720D01*
X040743Y022774D01*
X040764Y022825D01*
X040788Y022875D01*
X040816Y022924D01*
X040847Y022970D01*
X040882Y023014D01*
X040919Y023056D01*
X040959Y023095D01*
X041001Y023131D01*
X041046Y023164D01*
X041047Y023163D01*
X041002Y023130D01*
X040959Y023094D01*
X040920Y023055D01*
X040882Y023014D01*
X040848Y022970D01*
X040817Y022923D01*
X040789Y022875D01*
X040765Y022825D01*
X040744Y022773D01*
X040727Y022720D01*
X040714Y022666D01*
X040704Y022611D01*
X040698Y022556D01*
X040696Y022500D01*
X040697Y022500D01*
X040699Y022556D01*
X040705Y022611D01*
X040715Y022666D01*
X040728Y022720D01*
X040745Y022773D01*
X040766Y022824D01*
X040790Y022875D01*
X040818Y022923D01*
X040849Y022969D01*
X040883Y023013D01*
X040920Y023055D01*
X040960Y023093D01*
X041003Y023129D01*
X041047Y023162D01*
X041048Y023162D01*
X041003Y023129D01*
X040961Y023093D01*
X040921Y023054D01*
X040884Y023012D01*
X040850Y022968D01*
X040819Y022922D01*
X040791Y022874D01*
X040767Y022824D01*
X040746Y022772D01*
X040729Y022720D01*
X040715Y022666D01*
X040706Y022611D01*
X040700Y022556D01*
X040698Y022500D01*
X040699Y022500D01*
X040701Y022555D01*
X040707Y022611D01*
X040716Y022665D01*
X040730Y022719D01*
X040747Y022772D01*
X040768Y022824D01*
X040792Y022874D01*
X040820Y022922D01*
X040851Y022968D01*
X040885Y023012D01*
X040922Y023053D01*
X040961Y023092D01*
X041004Y023128D01*
X041049Y023161D01*
X041049Y023160D01*
X041004Y023127D01*
X040962Y023091D01*
X040922Y023053D01*
X040885Y023011D01*
X040851Y022967D01*
X040821Y022921D01*
X040793Y022873D01*
X040769Y022823D01*
X040748Y022772D01*
X040731Y022719D01*
X040717Y022665D01*
X040708Y022611D01*
X040702Y022555D01*
X040700Y022500D01*
X040701Y022500D01*
X040703Y022555D01*
X040709Y022610D01*
X040718Y022665D01*
X040732Y022719D01*
X040749Y022771D01*
X040770Y022823D01*
X040794Y022873D01*
X040821Y022921D01*
X040852Y022967D01*
X040886Y023011D01*
X040923Y023052D01*
X040963Y023090D01*
X041005Y023126D01*
X041050Y023159D01*
X041050Y023158D01*
X041006Y023125D01*
X040963Y023090D01*
X040924Y023051D01*
X040887Y023010D01*
X040853Y022966D01*
X040822Y022920D01*
X040795Y022872D01*
X040770Y022822D01*
X040750Y022771D01*
X040733Y022718D01*
X040719Y022665D01*
X040710Y022610D01*
X040704Y022555D01*
X040702Y022500D01*
X040703Y022500D01*
X040705Y022555D01*
X040711Y022610D01*
X040720Y022665D01*
X040734Y022718D01*
X040751Y022771D01*
X040771Y022822D01*
X040796Y022872D01*
X040823Y022920D01*
X040854Y022966D01*
X040888Y023009D01*
X040925Y023050D01*
X040964Y023089D01*
X041006Y023125D01*
X041051Y023157D01*
X041007Y023124D01*
X040965Y023088D01*
X040925Y023050D01*
X040888Y023009D01*
X040855Y022965D01*
X040824Y022919D01*
X040796Y022871D01*
X040772Y022822D01*
X040752Y022770D01*
X040735Y022718D01*
X040721Y022664D01*
X040712Y022610D01*
X040706Y022555D01*
X040704Y022500D01*
X040705Y022500D01*
X040707Y022555D01*
X040713Y022610D01*
X040722Y022664D01*
X040736Y022718D01*
X040753Y022770D01*
X040773Y022821D01*
X040797Y022871D01*
X040825Y022919D01*
X040855Y022964D01*
X040889Y023008D01*
X040926Y023049D01*
X040965Y023087D01*
X041008Y023123D01*
X041052Y023156D01*
X041053Y023155D01*
X041008Y023122D01*
X040966Y023087D01*
X040927Y023048D01*
X040890Y023007D01*
X040856Y022964D01*
X040826Y022918D01*
X040798Y022870D01*
X040774Y022821D01*
X040754Y022770D01*
X040737Y022717D01*
X040723Y022664D01*
X040714Y022610D01*
X040708Y022555D01*
X040706Y022500D01*
X040707Y022500D01*
X040709Y022555D01*
X040715Y022610D01*
X040724Y022664D01*
X040738Y022717D01*
X040755Y022769D01*
X040775Y022820D01*
X040799Y022870D01*
X040826Y022918D01*
X040857Y022963D01*
X040891Y023007D01*
X040927Y023048D01*
X040967Y023086D01*
X041009Y023122D01*
X041053Y023154D01*
X041054Y023153D01*
X041009Y023121D01*
X040968Y023085D01*
X040928Y023047D01*
X040892Y023006D01*
X040858Y022963D01*
X040827Y022917D01*
X040800Y022869D01*
X040776Y022820D01*
X040755Y022769D01*
X040739Y022717D01*
X040725Y022664D01*
X040716Y022609D01*
X040710Y022555D01*
X040708Y022500D01*
X041042Y022719D02*
X041058Y022712D01*
X041040Y022672D01*
X041027Y022630D01*
X041017Y022587D01*
X041011Y022544D01*
X041009Y022500D01*
X040992Y022499D01*
X040991Y022500D01*
X040992Y022538D01*
X040997Y022576D01*
X041004Y022613D01*
X041014Y022649D01*
X041026Y022685D01*
X041041Y022720D01*
X041042Y022720D01*
X041027Y022685D01*
X041015Y022649D01*
X041005Y022613D01*
X040998Y022575D01*
X040993Y022538D01*
X040992Y022500D01*
X040993Y022500D01*
X040994Y022538D01*
X040999Y022575D01*
X041006Y022612D01*
X041016Y022649D01*
X041028Y022684D01*
X041043Y022719D01*
X041044Y022719D01*
X041029Y022684D01*
X041017Y022649D01*
X041007Y022612D01*
X041000Y022575D01*
X040995Y022538D01*
X040994Y022500D01*
X040995Y022500D01*
X040996Y022538D01*
X041001Y022575D01*
X041008Y022612D01*
X041018Y022648D01*
X041030Y022684D01*
X041045Y022718D01*
X041046Y022718D01*
X041031Y022683D01*
X041019Y022648D01*
X041009Y022612D01*
X041002Y022575D01*
X040997Y022538D01*
X040996Y022500D01*
X040997Y022500D01*
X040998Y022537D01*
X041003Y022575D01*
X041010Y022611D01*
X041019Y022648D01*
X041032Y022683D01*
X041047Y022717D01*
X041048Y022717D01*
X041033Y022683D01*
X041020Y022647D01*
X041011Y022611D01*
X041004Y022575D01*
X040999Y022537D01*
X040998Y022500D01*
X040999Y022500D01*
X041000Y022537D01*
X041005Y022574D01*
X041012Y022611D01*
X041021Y022647D01*
X041034Y022682D01*
X041049Y022716D01*
X041050Y022716D01*
X041035Y022682D01*
X041022Y022647D01*
X041013Y022611D01*
X041006Y022574D01*
X041001Y022537D01*
X041000Y022500D01*
X041001Y022500D01*
X041002Y022537D01*
X041007Y022574D01*
X041014Y022611D01*
X041023Y022646D01*
X041036Y022682D01*
X041050Y022716D01*
X041051Y022715D01*
X041037Y022681D01*
X041024Y022646D01*
X041015Y022610D01*
X041008Y022574D01*
X041003Y022537D01*
X041002Y022500D01*
X041003Y022500D01*
X041004Y022537D01*
X041009Y022574D01*
X041016Y022610D01*
X041025Y022646D01*
X041037Y022681D01*
X041052Y022715D01*
X041053Y022714D01*
X041036Y022674D01*
X041022Y022631D01*
X041012Y022588D01*
X041006Y022544D01*
X041004Y022500D01*
X041005Y022500D01*
X041007Y022544D01*
X041013Y022588D01*
X041023Y022631D01*
X041037Y022673D01*
X041054Y022714D01*
X041055Y022713D01*
X041038Y022673D01*
X041024Y022631D01*
X041014Y022588D01*
X041008Y022544D01*
X041006Y022500D01*
X041007Y022500D01*
X041009Y022544D01*
X041015Y022588D01*
X041025Y022631D01*
X041039Y022672D01*
X041056Y022713D01*
X041057Y022713D01*
X041039Y022672D01*
X041026Y022630D01*
X041016Y022587D01*
X041010Y022544D01*
X041008Y022500D01*
X042008Y022499D02*
X041990Y022499D01*
X041991Y022500D02*
X041989Y022544D01*
X041983Y022587D01*
X041973Y022630D01*
X041960Y022672D01*
X041942Y022712D01*
X041958Y022719D01*
X041959Y022720D01*
X041974Y022685D01*
X041986Y022649D01*
X041996Y022613D01*
X042003Y022576D01*
X042008Y022538D01*
X042009Y022500D01*
X042008Y022500D01*
X042007Y022538D01*
X042002Y022575D01*
X041995Y022613D01*
X041985Y022649D01*
X041973Y022685D01*
X041958Y022720D01*
X041957Y022719D01*
X041972Y022684D01*
X041984Y022649D01*
X041994Y022612D01*
X042001Y022575D01*
X042006Y022538D01*
X042007Y022500D01*
X042006Y022500D01*
X042005Y022538D01*
X042000Y022575D01*
X041993Y022612D01*
X041983Y022649D01*
X041971Y022684D01*
X041956Y022719D01*
X041955Y022718D01*
X041970Y022684D01*
X041982Y022648D01*
X041992Y022612D01*
X041999Y022575D01*
X042004Y022538D01*
X042005Y022500D01*
X042004Y022500D01*
X042003Y022538D01*
X041998Y022575D01*
X041991Y022612D01*
X041981Y022648D01*
X041969Y022683D01*
X041954Y022718D01*
X041953Y022717D01*
X041968Y022683D01*
X041981Y022648D01*
X041990Y022611D01*
X041997Y022575D01*
X042002Y022537D01*
X042003Y022500D01*
X042002Y022500D01*
X042001Y022537D01*
X041996Y022575D01*
X041989Y022611D01*
X041980Y022647D01*
X041967Y022683D01*
X041952Y022717D01*
X041951Y022716D01*
X041966Y022682D01*
X041979Y022647D01*
X041988Y022611D01*
X041995Y022574D01*
X042000Y022537D01*
X042001Y022500D01*
X042000Y022500D01*
X041999Y022537D01*
X041994Y022574D01*
X041987Y022611D01*
X041978Y022647D01*
X041965Y022682D01*
X041950Y022716D01*
X041964Y022682D01*
X041977Y022646D01*
X041986Y022611D01*
X041993Y022574D01*
X041998Y022537D01*
X041999Y022500D01*
X041998Y022500D01*
X041997Y022537D01*
X041992Y022574D01*
X041985Y022610D01*
X041976Y022646D01*
X041963Y022681D01*
X041949Y022715D01*
X041948Y022715D01*
X041963Y022681D01*
X041975Y022646D01*
X041984Y022610D01*
X041991Y022574D01*
X041996Y022537D01*
X041997Y022500D01*
X041996Y022500D01*
X041994Y022544D01*
X041988Y022588D01*
X041978Y022631D01*
X041964Y022674D01*
X041947Y022714D01*
X041946Y022714D01*
X041963Y022673D01*
X041977Y022631D01*
X041987Y022588D01*
X041993Y022544D01*
X041995Y022500D01*
X041994Y022500D01*
X041992Y022544D01*
X041986Y022588D01*
X041976Y022631D01*
X041962Y022673D01*
X041945Y022713D01*
X041944Y022713D01*
X041961Y022672D01*
X041975Y022631D01*
X041985Y022588D01*
X041991Y022544D01*
X041993Y022500D01*
X041992Y022500D01*
X041990Y022544D01*
X041984Y022587D01*
X041974Y022630D01*
X041961Y022672D01*
X041943Y022713D01*
D45*
X025030Y016399D03*
X017780Y026899D03*
X016030Y026899D03*
X014280Y026899D03*
X012530Y026899D03*
X013280Y029399D03*
X014780Y029399D03*
X016280Y029399D03*
X017780Y029399D03*
D46*
X009530Y016399D03*
X008530Y016399D03*
X008530Y011399D03*
X010530Y011399D03*
X011530Y011399D03*
D47*
G36*
X007692Y023433D02*
X007996Y023737D01*
X008156Y023577D01*
X007852Y023273D01*
X007692Y023433D01*
G37*
G36*
X006064Y023737D02*
X006368Y023433D01*
X006208Y023273D01*
X005904Y023577D01*
X006064Y023737D01*
G37*
G36*
X006368Y025365D02*
X006064Y025061D01*
X005904Y025221D01*
X006208Y025525D01*
X006368Y025365D01*
G37*
G36*
X007996Y025061D02*
X007692Y025365D01*
X007852Y025525D01*
X008156Y025221D01*
X007996Y025061D01*
G37*
M02*
