G75*
%MOIN*%
%OFA0B0*%
%FSLAX25Y25*%
%IPPOS*%
%LPD*%
%AMOC8*
5,1,8,0,0,1.08239X$1,22.5*
%
%ADD10R,0.05950X0.05950*%
%ADD11C,0.05950*%
%ADD12R,0.08300X0.08300*%
%ADD13C,0.08300*%
%ADD14C,0.05800*%
%ADD15R,0.06737X0.06737*%
%ADD16C,0.06737*%
%ADD17R,0.07296X0.07296*%
%ADD18C,0.07296*%
%ADD19R,0.03556X0.04343*%
%ADD20R,0.05131X0.04737*%
%ADD21C,0.06343*%
%ADD22C,0.12020*%
%ADD23C,0.13600*%
%ADD24R,0.09068X0.09068*%
%ADD25C,0.12611*%
%ADD26R,0.04700X0.02000*%
%ADD27C,0.06000*%
%ADD28R,0.04643X0.03950*%
%ADD29R,0.04737X0.05131*%
%ADD30R,0.04343X0.03556*%
%ADD31R,0.03359X0.01784*%
%ADD32C,0.17300*%
%ADD33C,0.03300*%
%ADD34C,0.03769*%
%ADD35C,0.06115*%
%ADD36C,0.05524*%
%ADD37C,0.04343*%
D10*
X0324538Y0036000D03*
X0324538Y0111500D03*
D11*
X0316664Y0111500D03*
X0308790Y0111500D03*
X0300916Y0111500D03*
X0293042Y0111500D03*
X0285168Y0111500D03*
X0277294Y0111500D03*
X0269420Y0111500D03*
X0261546Y0111500D03*
X0253672Y0111500D03*
X0245798Y0111500D03*
X0237924Y0111500D03*
X0230050Y0111500D03*
X0222176Y0111500D03*
X0214302Y0111500D03*
X0206428Y0111500D03*
X0198554Y0111500D03*
X0190680Y0111500D03*
X0182806Y0111500D03*
X0174931Y0111500D03*
X0167057Y0111500D03*
X0159183Y0111500D03*
X0151309Y0111500D03*
X0143435Y0111500D03*
X0135561Y0111500D03*
X0135561Y0119374D03*
X0143435Y0119374D03*
X0151309Y0119374D03*
X0159183Y0119374D03*
X0167057Y0119374D03*
X0174931Y0119374D03*
X0182806Y0119374D03*
X0190680Y0119374D03*
X0198554Y0119374D03*
X0206428Y0119374D03*
X0214302Y0119374D03*
X0222176Y0119374D03*
X0230050Y0119374D03*
X0237924Y0119374D03*
X0245798Y0119374D03*
X0253672Y0119374D03*
X0261546Y0119374D03*
X0269420Y0119374D03*
X0277294Y0119374D03*
X0285168Y0119374D03*
X0293042Y0119374D03*
X0300916Y0119374D03*
X0308790Y0119374D03*
X0316664Y0119374D03*
X0324538Y0119374D03*
X0324538Y0043874D03*
X0316664Y0043874D03*
X0316664Y0036000D03*
X0308790Y0036000D03*
X0300916Y0036000D03*
X0300916Y0043874D03*
X0308790Y0043874D03*
X0293042Y0043874D03*
X0293042Y0036000D03*
X0285168Y0036000D03*
X0285168Y0043874D03*
X0277294Y0043874D03*
X0277294Y0036000D03*
X0269420Y0036000D03*
X0269420Y0043874D03*
X0261546Y0043874D03*
X0261546Y0036000D03*
X0253672Y0036000D03*
X0253672Y0043874D03*
X0245798Y0043874D03*
X0245798Y0036000D03*
X0237924Y0036000D03*
X0237924Y0043874D03*
X0230050Y0043874D03*
X0230050Y0036000D03*
X0222176Y0036000D03*
X0214302Y0036000D03*
X0214302Y0043874D03*
X0222176Y0043874D03*
X0206428Y0043874D03*
X0206428Y0036000D03*
X0198554Y0036000D03*
X0198554Y0043874D03*
X0190680Y0043874D03*
X0190680Y0036000D03*
X0182806Y0036000D03*
X0182806Y0043874D03*
X0174931Y0043874D03*
X0167057Y0043874D03*
X0159183Y0043874D03*
X0151309Y0043874D03*
X0143435Y0043874D03*
X0135561Y0043874D03*
X0135561Y0036000D03*
X0143435Y0036000D03*
X0151309Y0036000D03*
X0159183Y0036000D03*
X0167057Y0036000D03*
X0174931Y0036000D03*
D12*
X0165038Y0073500D03*
D13*
X0165038Y0083500D03*
X0155038Y0083500D03*
X0145038Y0083500D03*
X0145038Y0073500D03*
X0155038Y0073500D03*
X0135038Y0073500D03*
X0125038Y0073500D03*
X0125038Y0083500D03*
X0135038Y0083500D03*
D14*
X0367538Y0051050D03*
X0355538Y0265150D03*
D15*
X0261038Y0220500D03*
D16*
X0261038Y0230500D03*
X0261038Y0240500D03*
X0059538Y0239500D03*
X0049538Y0239500D03*
X0049538Y0229500D03*
X0059538Y0229500D03*
X0059538Y0249500D03*
X0049538Y0249500D03*
X0049538Y0259500D03*
X0059538Y0259500D03*
X0059538Y0269500D03*
X0049538Y0269500D03*
X0049538Y0279500D03*
X0059538Y0279500D03*
X0059538Y0289500D03*
X0049538Y0289500D03*
X0049538Y0299500D03*
X0059538Y0299500D03*
X0059538Y0186500D03*
X0049538Y0186500D03*
X0049538Y0176500D03*
X0059538Y0176500D03*
X0059538Y0166500D03*
X0049538Y0166500D03*
X0049538Y0156500D03*
X0059538Y0156500D03*
X0059538Y0146500D03*
X0049538Y0146500D03*
X0049538Y0136500D03*
X0059538Y0136500D03*
X0059538Y0126500D03*
X0049538Y0126500D03*
X0049538Y0116500D03*
X0059538Y0116500D03*
D17*
X0130380Y0275315D03*
X0120538Y0295000D03*
X0227538Y0295000D03*
X0237380Y0275315D03*
D18*
X0257065Y0275315D03*
X0276750Y0275315D03*
X0296435Y0275315D03*
X0316120Y0275315D03*
X0306278Y0295000D03*
X0286593Y0295000D03*
X0266908Y0295000D03*
X0247223Y0295000D03*
X0209120Y0275315D03*
X0189435Y0275315D03*
X0169750Y0275315D03*
X0150065Y0275315D03*
X0140223Y0295000D03*
X0159908Y0295000D03*
X0179593Y0295000D03*
X0199278Y0295000D03*
D19*
X0089097Y0286500D03*
X0083979Y0286500D03*
X0083979Y0280500D03*
X0089097Y0280500D03*
X0072597Y0265000D03*
X0067479Y0265000D03*
X0070479Y0259500D03*
X0075597Y0259500D03*
X0075597Y0253500D03*
X0070479Y0253500D03*
X0070479Y0247500D03*
X0075597Y0247500D03*
X0075597Y0241500D03*
X0070479Y0241500D03*
X0064097Y0197500D03*
X0058979Y0197500D03*
X0082479Y0073000D03*
X0087597Y0073000D03*
D20*
X0346191Y0297000D03*
X0346191Y0302500D03*
X0352884Y0302500D03*
X0352884Y0297000D03*
D21*
X0067038Y0060500D03*
X0067038Y0050500D03*
X0067038Y0040500D03*
X0067038Y0030500D03*
X0057038Y0025500D03*
X0057038Y0035500D03*
X0057038Y0045500D03*
X0057038Y0055500D03*
D22*
X0020038Y0011000D03*
X0066526Y0011000D03*
X0066526Y0075000D03*
X0020038Y0075000D03*
D23*
X0032038Y0065500D03*
X0032038Y0020500D03*
D24*
X0132711Y0185000D03*
X0154365Y0185000D03*
D25*
X0152554Y0166496D03*
X0152554Y0203504D03*
D26*
X0383550Y0204500D03*
X0383550Y0201941D03*
X0383550Y0199382D03*
X0383550Y0196823D03*
X0383550Y0207059D03*
X0383550Y0209618D03*
X0383550Y0212177D03*
X0406525Y0212177D03*
X0406525Y0209618D03*
X0406525Y0207059D03*
X0406525Y0204500D03*
X0406525Y0201941D03*
X0406525Y0199382D03*
X0406525Y0196823D03*
D27*
X0393538Y0042000D03*
X0383538Y0042000D03*
X0388538Y0032000D03*
X0398538Y0032000D03*
D28*
X0087475Y0057260D03*
X0079601Y0061000D03*
X0087475Y0064740D03*
D29*
X0344038Y0021846D03*
X0344038Y0015154D03*
D30*
X0272538Y0093941D03*
X0272538Y0099059D03*
X0265538Y0099059D03*
X0265538Y0093941D03*
X0256538Y0093941D03*
X0256538Y0099059D03*
X0250038Y0099059D03*
X0250038Y0093941D03*
X0234538Y0093441D03*
X0234538Y0098559D03*
D31*
X0153746Y0135547D03*
X0153746Y0137516D03*
X0153746Y0139484D03*
X0153746Y0141453D03*
X0142329Y0141453D03*
X0142329Y0139484D03*
X0142329Y0137516D03*
X0142329Y0135547D03*
D32*
X0091638Y0013000D03*
X0374138Y0013000D03*
X0374038Y0303000D03*
X0091638Y0303000D03*
D33*
X0344163Y0283625D03*
X0348038Y0292500D03*
X0387038Y0292581D03*
X0402913Y0292581D03*
X0384038Y0314500D03*
D34*
X0339384Y0297000D03*
X0336384Y0312000D03*
X0346538Y0215000D03*
X0344538Y0191000D03*
X0340038Y0191000D03*
X0341038Y0137500D03*
X0334538Y0134000D03*
X0328038Y0131000D03*
X0347038Y0035000D03*
X0185538Y0168500D03*
X0194038Y0182500D03*
X0162038Y0138500D03*
X0136038Y0138500D03*
X0086038Y0082000D03*
X0092038Y0069000D03*
X0093038Y0060500D03*
X0067538Y0218500D03*
D35*
X0097038Y0142000D03*
D36*
X0239538Y0230500D03*
D37*
X0161538Y0195000D03*
X0143538Y0185000D03*
X0145038Y0176500D03*
X0141038Y0170500D03*
X0135038Y0175500D03*
X0132538Y0196000D03*
X0140038Y0196000D03*
X0140038Y0203000D03*
X0146538Y0210500D03*
X0105538Y0222000D03*
X0105538Y0231000D03*
X0087538Y0231000D03*
X0088538Y0221500D03*
X0087538Y0211000D03*
X0088538Y0201000D03*
X0087538Y0191000D03*
X0087538Y0179000D03*
X0088538Y0169000D03*
X0087538Y0159000D03*
X0106038Y0170500D03*
X0106038Y0177500D03*
X0106038Y0185000D03*
X0153038Y0156500D03*
X0161038Y0162500D03*
X0161538Y0175000D03*
X0108038Y0258500D03*
X0104538Y0065500D03*
X0104538Y0054500D03*
X0407038Y0271000D03*
M02*
