G75*
%MOIN*%
%OFA0B0*%
%FSLAX25Y25*%
%IPPOS*%
%LPD*%
%AMOC8*
5,1,8,0,0,1.08239X$1,22.5*
%
%ADD10C,0.00210*%
%ADD11R,0.10900X0.04290*%
%ADD12R,0.10900X0.04200*%
D10*
X0006233Y0263318D02*
X0006235Y0263410D01*
X0006241Y0263501D01*
X0006251Y0263592D01*
X0006265Y0263683D01*
X0006283Y0263773D01*
X0006305Y0263862D01*
X0006330Y0263949D01*
X0006360Y0264036D01*
X0006393Y0264122D01*
X0006430Y0264205D01*
X0006470Y0264288D01*
X0006514Y0264368D01*
X0006562Y0264446D01*
X0006613Y0264523D01*
X0006667Y0264596D01*
X0006724Y0264668D01*
X0006785Y0264737D01*
X0006848Y0264803D01*
X0006914Y0264866D01*
X0006983Y0264927D01*
X0007055Y0264984D01*
X0007128Y0265038D01*
X0007205Y0265089D01*
X0007283Y0265137D01*
X0007363Y0265181D01*
X0007446Y0265221D01*
X0007529Y0265258D01*
X0007615Y0265291D01*
X0007702Y0265321D01*
X0007789Y0265346D01*
X0007878Y0265368D01*
X0007968Y0265386D01*
X0008059Y0265400D01*
X0008150Y0265410D01*
X0008241Y0265416D01*
X0008333Y0265418D01*
X0008425Y0265416D01*
X0008516Y0265410D01*
X0008607Y0265400D01*
X0008698Y0265386D01*
X0008788Y0265368D01*
X0008877Y0265346D01*
X0008964Y0265321D01*
X0009051Y0265291D01*
X0009137Y0265258D01*
X0009220Y0265221D01*
X0009303Y0265181D01*
X0009383Y0265137D01*
X0009461Y0265089D01*
X0009538Y0265038D01*
X0009611Y0264984D01*
X0009683Y0264927D01*
X0009752Y0264866D01*
X0009818Y0264803D01*
X0009881Y0264737D01*
X0009942Y0264668D01*
X0009999Y0264596D01*
X0010053Y0264523D01*
X0010104Y0264446D01*
X0010152Y0264368D01*
X0010196Y0264288D01*
X0010236Y0264205D01*
X0010273Y0264122D01*
X0010306Y0264036D01*
X0010336Y0263949D01*
X0010361Y0263862D01*
X0010383Y0263773D01*
X0010401Y0263683D01*
X0010415Y0263592D01*
X0010425Y0263501D01*
X0010431Y0263410D01*
X0010433Y0263318D01*
X0010431Y0263226D01*
X0010425Y0263135D01*
X0010415Y0263044D01*
X0010401Y0262953D01*
X0010383Y0262863D01*
X0010361Y0262774D01*
X0010336Y0262687D01*
X0010306Y0262600D01*
X0010273Y0262514D01*
X0010236Y0262431D01*
X0010196Y0262348D01*
X0010152Y0262268D01*
X0010104Y0262190D01*
X0010053Y0262113D01*
X0009999Y0262040D01*
X0009942Y0261968D01*
X0009881Y0261899D01*
X0009818Y0261833D01*
X0009752Y0261770D01*
X0009683Y0261709D01*
X0009611Y0261652D01*
X0009538Y0261598D01*
X0009461Y0261547D01*
X0009383Y0261499D01*
X0009303Y0261455D01*
X0009220Y0261415D01*
X0009137Y0261378D01*
X0009051Y0261345D01*
X0008964Y0261315D01*
X0008877Y0261290D01*
X0008788Y0261268D01*
X0008698Y0261250D01*
X0008607Y0261236D01*
X0008516Y0261226D01*
X0008425Y0261220D01*
X0008333Y0261218D01*
X0008241Y0261220D01*
X0008150Y0261226D01*
X0008059Y0261236D01*
X0007968Y0261250D01*
X0007878Y0261268D01*
X0007789Y0261290D01*
X0007702Y0261315D01*
X0007615Y0261345D01*
X0007529Y0261378D01*
X0007446Y0261415D01*
X0007363Y0261455D01*
X0007283Y0261499D01*
X0007205Y0261547D01*
X0007128Y0261598D01*
X0007055Y0261652D01*
X0006983Y0261709D01*
X0006914Y0261770D01*
X0006848Y0261833D01*
X0006785Y0261899D01*
X0006724Y0261968D01*
X0006667Y0262040D01*
X0006613Y0262113D01*
X0006562Y0262190D01*
X0006514Y0262268D01*
X0006470Y0262348D01*
X0006430Y0262431D01*
X0006393Y0262514D01*
X0006360Y0262600D01*
X0006330Y0262687D01*
X0006305Y0262774D01*
X0006283Y0262863D01*
X0006265Y0262953D01*
X0006251Y0263044D01*
X0006241Y0263135D01*
X0006235Y0263226D01*
X0006233Y0263318D01*
X0017133Y0263318D02*
X0017135Y0263410D01*
X0017141Y0263501D01*
X0017151Y0263592D01*
X0017165Y0263683D01*
X0017183Y0263773D01*
X0017205Y0263862D01*
X0017230Y0263949D01*
X0017260Y0264036D01*
X0017293Y0264122D01*
X0017330Y0264205D01*
X0017370Y0264288D01*
X0017414Y0264368D01*
X0017462Y0264446D01*
X0017513Y0264523D01*
X0017567Y0264596D01*
X0017624Y0264668D01*
X0017685Y0264737D01*
X0017748Y0264803D01*
X0017814Y0264866D01*
X0017883Y0264927D01*
X0017955Y0264984D01*
X0018028Y0265038D01*
X0018105Y0265089D01*
X0018183Y0265137D01*
X0018263Y0265181D01*
X0018346Y0265221D01*
X0018429Y0265258D01*
X0018515Y0265291D01*
X0018602Y0265321D01*
X0018689Y0265346D01*
X0018778Y0265368D01*
X0018868Y0265386D01*
X0018959Y0265400D01*
X0019050Y0265410D01*
X0019141Y0265416D01*
X0019233Y0265418D01*
X0019325Y0265416D01*
X0019416Y0265410D01*
X0019507Y0265400D01*
X0019598Y0265386D01*
X0019688Y0265368D01*
X0019777Y0265346D01*
X0019864Y0265321D01*
X0019951Y0265291D01*
X0020037Y0265258D01*
X0020120Y0265221D01*
X0020203Y0265181D01*
X0020283Y0265137D01*
X0020361Y0265089D01*
X0020438Y0265038D01*
X0020511Y0264984D01*
X0020583Y0264927D01*
X0020652Y0264866D01*
X0020718Y0264803D01*
X0020781Y0264737D01*
X0020842Y0264668D01*
X0020899Y0264596D01*
X0020953Y0264523D01*
X0021004Y0264446D01*
X0021052Y0264368D01*
X0021096Y0264288D01*
X0021136Y0264205D01*
X0021173Y0264122D01*
X0021206Y0264036D01*
X0021236Y0263949D01*
X0021261Y0263862D01*
X0021283Y0263773D01*
X0021301Y0263683D01*
X0021315Y0263592D01*
X0021325Y0263501D01*
X0021331Y0263410D01*
X0021333Y0263318D01*
X0021331Y0263226D01*
X0021325Y0263135D01*
X0021315Y0263044D01*
X0021301Y0262953D01*
X0021283Y0262863D01*
X0021261Y0262774D01*
X0021236Y0262687D01*
X0021206Y0262600D01*
X0021173Y0262514D01*
X0021136Y0262431D01*
X0021096Y0262348D01*
X0021052Y0262268D01*
X0021004Y0262190D01*
X0020953Y0262113D01*
X0020899Y0262040D01*
X0020842Y0261968D01*
X0020781Y0261899D01*
X0020718Y0261833D01*
X0020652Y0261770D01*
X0020583Y0261709D01*
X0020511Y0261652D01*
X0020438Y0261598D01*
X0020361Y0261547D01*
X0020283Y0261499D01*
X0020203Y0261455D01*
X0020120Y0261415D01*
X0020037Y0261378D01*
X0019951Y0261345D01*
X0019864Y0261315D01*
X0019777Y0261290D01*
X0019688Y0261268D01*
X0019598Y0261250D01*
X0019507Y0261236D01*
X0019416Y0261226D01*
X0019325Y0261220D01*
X0019233Y0261218D01*
X0019141Y0261220D01*
X0019050Y0261226D01*
X0018959Y0261236D01*
X0018868Y0261250D01*
X0018778Y0261268D01*
X0018689Y0261290D01*
X0018602Y0261315D01*
X0018515Y0261345D01*
X0018429Y0261378D01*
X0018346Y0261415D01*
X0018263Y0261455D01*
X0018183Y0261499D01*
X0018105Y0261547D01*
X0018028Y0261598D01*
X0017955Y0261652D01*
X0017883Y0261709D01*
X0017814Y0261770D01*
X0017748Y0261833D01*
X0017685Y0261899D01*
X0017624Y0261968D01*
X0017567Y0262040D01*
X0017513Y0262113D01*
X0017462Y0262190D01*
X0017414Y0262268D01*
X0017370Y0262348D01*
X0017330Y0262431D01*
X0017293Y0262514D01*
X0017260Y0262600D01*
X0017230Y0262687D01*
X0017205Y0262774D01*
X0017183Y0262863D01*
X0017165Y0262953D01*
X0017151Y0263044D01*
X0017141Y0263135D01*
X0017135Y0263226D01*
X0017133Y0263318D01*
X0017133Y0296818D02*
X0017135Y0296910D01*
X0017141Y0297001D01*
X0017151Y0297092D01*
X0017165Y0297183D01*
X0017183Y0297273D01*
X0017205Y0297362D01*
X0017230Y0297449D01*
X0017260Y0297536D01*
X0017293Y0297622D01*
X0017330Y0297705D01*
X0017370Y0297788D01*
X0017414Y0297868D01*
X0017462Y0297946D01*
X0017513Y0298023D01*
X0017567Y0298096D01*
X0017624Y0298168D01*
X0017685Y0298237D01*
X0017748Y0298303D01*
X0017814Y0298366D01*
X0017883Y0298427D01*
X0017955Y0298484D01*
X0018028Y0298538D01*
X0018105Y0298589D01*
X0018183Y0298637D01*
X0018263Y0298681D01*
X0018346Y0298721D01*
X0018429Y0298758D01*
X0018515Y0298791D01*
X0018602Y0298821D01*
X0018689Y0298846D01*
X0018778Y0298868D01*
X0018868Y0298886D01*
X0018959Y0298900D01*
X0019050Y0298910D01*
X0019141Y0298916D01*
X0019233Y0298918D01*
X0019325Y0298916D01*
X0019416Y0298910D01*
X0019507Y0298900D01*
X0019598Y0298886D01*
X0019688Y0298868D01*
X0019777Y0298846D01*
X0019864Y0298821D01*
X0019951Y0298791D01*
X0020037Y0298758D01*
X0020120Y0298721D01*
X0020203Y0298681D01*
X0020283Y0298637D01*
X0020361Y0298589D01*
X0020438Y0298538D01*
X0020511Y0298484D01*
X0020583Y0298427D01*
X0020652Y0298366D01*
X0020718Y0298303D01*
X0020781Y0298237D01*
X0020842Y0298168D01*
X0020899Y0298096D01*
X0020953Y0298023D01*
X0021004Y0297946D01*
X0021052Y0297868D01*
X0021096Y0297788D01*
X0021136Y0297705D01*
X0021173Y0297622D01*
X0021206Y0297536D01*
X0021236Y0297449D01*
X0021261Y0297362D01*
X0021283Y0297273D01*
X0021301Y0297183D01*
X0021315Y0297092D01*
X0021325Y0297001D01*
X0021331Y0296910D01*
X0021333Y0296818D01*
X0021331Y0296726D01*
X0021325Y0296635D01*
X0021315Y0296544D01*
X0021301Y0296453D01*
X0021283Y0296363D01*
X0021261Y0296274D01*
X0021236Y0296187D01*
X0021206Y0296100D01*
X0021173Y0296014D01*
X0021136Y0295931D01*
X0021096Y0295848D01*
X0021052Y0295768D01*
X0021004Y0295690D01*
X0020953Y0295613D01*
X0020899Y0295540D01*
X0020842Y0295468D01*
X0020781Y0295399D01*
X0020718Y0295333D01*
X0020652Y0295270D01*
X0020583Y0295209D01*
X0020511Y0295152D01*
X0020438Y0295098D01*
X0020361Y0295047D01*
X0020283Y0294999D01*
X0020203Y0294955D01*
X0020120Y0294915D01*
X0020037Y0294878D01*
X0019951Y0294845D01*
X0019864Y0294815D01*
X0019777Y0294790D01*
X0019688Y0294768D01*
X0019598Y0294750D01*
X0019507Y0294736D01*
X0019416Y0294726D01*
X0019325Y0294720D01*
X0019233Y0294718D01*
X0019141Y0294720D01*
X0019050Y0294726D01*
X0018959Y0294736D01*
X0018868Y0294750D01*
X0018778Y0294768D01*
X0018689Y0294790D01*
X0018602Y0294815D01*
X0018515Y0294845D01*
X0018429Y0294878D01*
X0018346Y0294915D01*
X0018263Y0294955D01*
X0018183Y0294999D01*
X0018105Y0295047D01*
X0018028Y0295098D01*
X0017955Y0295152D01*
X0017883Y0295209D01*
X0017814Y0295270D01*
X0017748Y0295333D01*
X0017685Y0295399D01*
X0017624Y0295468D01*
X0017567Y0295540D01*
X0017513Y0295613D01*
X0017462Y0295690D01*
X0017414Y0295768D01*
X0017370Y0295848D01*
X0017330Y0295931D01*
X0017293Y0296014D01*
X0017260Y0296100D01*
X0017230Y0296187D01*
X0017205Y0296274D01*
X0017183Y0296363D01*
X0017165Y0296453D01*
X0017151Y0296544D01*
X0017141Y0296635D01*
X0017135Y0296726D01*
X0017133Y0296818D01*
X0006233Y0296818D02*
X0006235Y0296910D01*
X0006241Y0297001D01*
X0006251Y0297092D01*
X0006265Y0297183D01*
X0006283Y0297273D01*
X0006305Y0297362D01*
X0006330Y0297449D01*
X0006360Y0297536D01*
X0006393Y0297622D01*
X0006430Y0297705D01*
X0006470Y0297788D01*
X0006514Y0297868D01*
X0006562Y0297946D01*
X0006613Y0298023D01*
X0006667Y0298096D01*
X0006724Y0298168D01*
X0006785Y0298237D01*
X0006848Y0298303D01*
X0006914Y0298366D01*
X0006983Y0298427D01*
X0007055Y0298484D01*
X0007128Y0298538D01*
X0007205Y0298589D01*
X0007283Y0298637D01*
X0007363Y0298681D01*
X0007446Y0298721D01*
X0007529Y0298758D01*
X0007615Y0298791D01*
X0007702Y0298821D01*
X0007789Y0298846D01*
X0007878Y0298868D01*
X0007968Y0298886D01*
X0008059Y0298900D01*
X0008150Y0298910D01*
X0008241Y0298916D01*
X0008333Y0298918D01*
X0008425Y0298916D01*
X0008516Y0298910D01*
X0008607Y0298900D01*
X0008698Y0298886D01*
X0008788Y0298868D01*
X0008877Y0298846D01*
X0008964Y0298821D01*
X0009051Y0298791D01*
X0009137Y0298758D01*
X0009220Y0298721D01*
X0009303Y0298681D01*
X0009383Y0298637D01*
X0009461Y0298589D01*
X0009538Y0298538D01*
X0009611Y0298484D01*
X0009683Y0298427D01*
X0009752Y0298366D01*
X0009818Y0298303D01*
X0009881Y0298237D01*
X0009942Y0298168D01*
X0009999Y0298096D01*
X0010053Y0298023D01*
X0010104Y0297946D01*
X0010152Y0297868D01*
X0010196Y0297788D01*
X0010236Y0297705D01*
X0010273Y0297622D01*
X0010306Y0297536D01*
X0010336Y0297449D01*
X0010361Y0297362D01*
X0010383Y0297273D01*
X0010401Y0297183D01*
X0010415Y0297092D01*
X0010425Y0297001D01*
X0010431Y0296910D01*
X0010433Y0296818D01*
X0010431Y0296726D01*
X0010425Y0296635D01*
X0010415Y0296544D01*
X0010401Y0296453D01*
X0010383Y0296363D01*
X0010361Y0296274D01*
X0010336Y0296187D01*
X0010306Y0296100D01*
X0010273Y0296014D01*
X0010236Y0295931D01*
X0010196Y0295848D01*
X0010152Y0295768D01*
X0010104Y0295690D01*
X0010053Y0295613D01*
X0009999Y0295540D01*
X0009942Y0295468D01*
X0009881Y0295399D01*
X0009818Y0295333D01*
X0009752Y0295270D01*
X0009683Y0295209D01*
X0009611Y0295152D01*
X0009538Y0295098D01*
X0009461Y0295047D01*
X0009383Y0294999D01*
X0009303Y0294955D01*
X0009220Y0294915D01*
X0009137Y0294878D01*
X0009051Y0294845D01*
X0008964Y0294815D01*
X0008877Y0294790D01*
X0008788Y0294768D01*
X0008698Y0294750D01*
X0008607Y0294736D01*
X0008516Y0294726D01*
X0008425Y0294720D01*
X0008333Y0294718D01*
X0008241Y0294720D01*
X0008150Y0294726D01*
X0008059Y0294736D01*
X0007968Y0294750D01*
X0007878Y0294768D01*
X0007789Y0294790D01*
X0007702Y0294815D01*
X0007615Y0294845D01*
X0007529Y0294878D01*
X0007446Y0294915D01*
X0007363Y0294955D01*
X0007283Y0294999D01*
X0007205Y0295047D01*
X0007128Y0295098D01*
X0007055Y0295152D01*
X0006983Y0295209D01*
X0006914Y0295270D01*
X0006848Y0295333D01*
X0006785Y0295399D01*
X0006724Y0295468D01*
X0006667Y0295540D01*
X0006613Y0295613D01*
X0006562Y0295690D01*
X0006514Y0295768D01*
X0006470Y0295848D01*
X0006430Y0295931D01*
X0006393Y0296014D01*
X0006360Y0296100D01*
X0006330Y0296187D01*
X0006305Y0296274D01*
X0006283Y0296363D01*
X0006265Y0296453D01*
X0006251Y0296544D01*
X0006241Y0296635D01*
X0006235Y0296726D01*
X0006233Y0296818D01*
D11*
X0013783Y0296773D03*
D12*
X0013783Y0263318D03*
M02*
